G75*
%MOIN*%
%OFA0B0*%
%FSLAX24Y24*%
%IPPOS*%
%LPD*%
%AMOC8*
5,1,8,0,0,1.08239X$1,22.5*
%
%ADD10R,0.0500X0.0220*%
%ADD11R,0.0220X0.0500*%
%ADD12R,0.0433X0.0394*%
%ADD13R,0.0394X0.0433*%
%ADD14R,0.0630X0.0709*%
%ADD15R,0.0790X0.0590*%
%ADD16R,0.0790X0.1500*%
%ADD17C,0.0118*%
%ADD18R,0.0472X0.0315*%
%ADD19C,0.0240*%
%ADD20C,0.0177*%
%ADD21R,0.0600X0.0300*%
D10*
X022712Y012050D03*
X022712Y012365D03*
X022712Y012680D03*
X022712Y012995D03*
X022712Y013310D03*
X022712Y013625D03*
X022712Y013940D03*
X022712Y014255D03*
X026092Y014255D03*
X026092Y013940D03*
X026092Y013625D03*
X026092Y013310D03*
X026092Y012995D03*
X026092Y012680D03*
X026092Y012365D03*
X026092Y012050D03*
D11*
X025504Y011462D03*
X025189Y011462D03*
X024874Y011462D03*
X024559Y011462D03*
X024244Y011462D03*
X023929Y011462D03*
X023614Y011462D03*
X023299Y011462D03*
X023299Y014842D03*
X023614Y014842D03*
X023929Y014842D03*
X024244Y014842D03*
X024559Y014842D03*
X024874Y014842D03*
X025189Y014842D03*
X025504Y014842D03*
D12*
X028767Y012002D03*
X029436Y012002D03*
X029917Y007852D03*
X030586Y007852D03*
D13*
X032452Y010018D03*
X032452Y010687D03*
X030952Y011818D03*
X030952Y012487D03*
X030302Y013468D03*
X030302Y014137D03*
X031002Y017968D03*
X031002Y018637D03*
X020852Y014637D03*
X020852Y013968D03*
X013292Y006704D03*
X013292Y006034D03*
D14*
X028750Y010752D03*
X029853Y010752D03*
X029700Y009252D03*
X030803Y009252D03*
D15*
X029312Y015192D03*
X029312Y016092D03*
X029312Y016992D03*
D16*
X031792Y016102D03*
D17*
X014727Y006576D02*
X014451Y006576D01*
X014451Y006852D01*
X014727Y006852D01*
X014727Y006576D01*
X014727Y006693D02*
X014451Y006693D01*
X014451Y006810D02*
X014727Y006810D01*
X014727Y005886D02*
X014451Y005886D01*
X014451Y006162D01*
X014727Y006162D01*
X014727Y005886D01*
X014727Y006003D02*
X014451Y006003D01*
X014451Y006120D02*
X014727Y006120D01*
D18*
X031502Y013448D03*
X031502Y014157D03*
X029202Y017948D03*
X029202Y018657D03*
D19*
X027374Y016482D02*
X027374Y015922D01*
X026429Y015922D02*
X026429Y016482D01*
D20*
X026902Y016514D02*
X026902Y016514D01*
X026902Y015890D01*
X026902Y015890D01*
X026902Y016514D01*
X026902Y016066D02*
X026902Y016066D01*
X026902Y016242D02*
X026902Y016242D01*
X026902Y016418D02*
X026902Y016418D01*
D21*
X009546Y003633D03*
X009546Y005133D03*
X011746Y005133D03*
X011746Y003633D03*
M02*
