G75*
%MOIN*%
%OFA0B0*%
%FSLAX24Y24*%
%IPPOS*%
%LPD*%
%AMOC8*
5,1,8,0,0,1.08239X$1,22.5*
%
%ADD10C,0.0130*%
%ADD11C,0.0240*%
%ADD12R,0.0500X0.0220*%
%ADD13R,0.0220X0.0500*%
%ADD14R,0.0433X0.0394*%
%ADD15R,0.0394X0.0433*%
%ADD16R,0.0630X0.0709*%
%ADD17C,0.0740*%
%ADD18C,0.1266*%
%ADD19R,0.0790X0.0590*%
%ADD20R,0.0790X0.1500*%
%ADD21C,0.0600*%
%ADD22C,0.0118*%
%ADD23R,0.0472X0.0315*%
%ADD24C,0.0177*%
%ADD25C,0.0100*%
%ADD26R,0.0600X0.0300*%
%ADD27OC8,0.0600*%
%ADD28C,0.0160*%
%ADD29C,0.0360*%
D10*
X008105Y018003D02*
X008337Y018235D01*
X008337Y018390D01*
X008260Y018468D01*
X008105Y018468D01*
X007872Y018235D01*
X007640Y018468D02*
X007872Y018700D01*
X008027Y018700D01*
X008105Y018623D01*
X008105Y018468D01*
X008307Y018825D02*
X008462Y018825D01*
X008618Y018980D01*
X008773Y018980D01*
X008850Y018903D01*
X008850Y018748D01*
X008695Y018593D01*
X008540Y018593D01*
X008307Y018825D02*
X008230Y018903D01*
X008230Y019058D01*
X008385Y019213D01*
X008540Y019213D01*
X008820Y019338D02*
X008898Y019416D01*
X009208Y019105D01*
X009130Y019028D02*
X009285Y019183D01*
X009394Y019447D02*
X009239Y019602D01*
X009239Y019757D01*
X009472Y019990D01*
X009317Y020145D02*
X009782Y019680D01*
X009550Y019447D01*
X009394Y019447D01*
X008742Y019571D02*
X008665Y019648D01*
X009752Y020115D02*
X009752Y020270D01*
X009907Y020425D01*
X010062Y020425D01*
X010140Y020348D01*
X009830Y020037D01*
X009907Y019960D02*
X009752Y020115D01*
X009907Y019960D02*
X010062Y019960D01*
X010217Y020115D01*
X010497Y020395D02*
X010730Y020628D01*
X010730Y020783D01*
X010575Y020783D01*
X010420Y020628D01*
X010265Y020628D01*
X010265Y020783D01*
X010497Y021015D01*
X011368Y021575D02*
X011600Y021808D01*
X011600Y021963D01*
X011445Y022118D01*
X011290Y022118D01*
X011057Y021886D01*
X011523Y021420D01*
X012035Y021933D02*
X011570Y022398D01*
X011803Y022631D01*
X011958Y022631D01*
X012113Y022476D01*
X012113Y022321D01*
X011880Y022088D01*
X012035Y022243D02*
X012345Y022243D01*
X008105Y018003D02*
X007640Y018468D01*
D11*
X026429Y016482D02*
X026429Y015922D01*
X027374Y015922D02*
X027374Y016482D01*
X033410Y008419D02*
X032816Y007825D01*
X033262Y007379D01*
X033410Y007825D01*
X033559Y007974D01*
X033856Y007974D01*
X034153Y007676D01*
X034153Y007379D01*
X033856Y007082D01*
X033559Y007082D01*
X033325Y006551D02*
X032731Y005957D01*
X033028Y006254D02*
X032137Y007146D01*
X032137Y006551D01*
X031606Y006317D02*
X031606Y005129D01*
X031903Y005129D01*
X032200Y005426D01*
X032200Y005723D01*
X031606Y006317D01*
X031308Y006317D01*
X031011Y006020D01*
X031011Y005723D01*
X031606Y005129D01*
X031372Y004598D02*
X030778Y004003D01*
X030778Y005192D01*
X030629Y005341D01*
X030332Y005341D01*
X030035Y005044D01*
X030035Y004746D01*
D12*
X026092Y012050D03*
X026092Y012365D03*
X026092Y012680D03*
X026092Y012995D03*
X026092Y013310D03*
X026092Y013625D03*
X026092Y013940D03*
X026092Y014255D03*
X022712Y014255D03*
X022712Y013940D03*
X022712Y013625D03*
X022712Y013310D03*
X022712Y012995D03*
X022712Y012680D03*
X022712Y012365D03*
X022712Y012050D03*
D13*
X023299Y011462D03*
X023614Y011462D03*
X023929Y011462D03*
X024244Y011462D03*
X024559Y011462D03*
X024874Y011462D03*
X025189Y011462D03*
X025504Y011462D03*
X025504Y014842D03*
X025189Y014842D03*
X024874Y014842D03*
X024559Y014842D03*
X024244Y014842D03*
X023929Y014842D03*
X023614Y014842D03*
X023299Y014842D03*
D14*
X028767Y012002D03*
X029436Y012002D03*
X029917Y007852D03*
X030586Y007852D03*
D15*
X032452Y010018D03*
X032452Y010687D03*
X030952Y011818D03*
X030952Y012487D03*
X030302Y013468D03*
X030302Y014137D03*
X031002Y017968D03*
X031002Y018637D03*
X020852Y014637D03*
X020852Y013968D03*
X013292Y006704D03*
X013292Y006034D03*
D16*
X028750Y010752D03*
X029853Y010752D03*
X029700Y009252D03*
X030803Y009252D03*
D17*
X034507Y011419D03*
X034507Y012353D03*
X034507Y013241D03*
X034507Y014175D03*
D18*
X035452Y015080D03*
X035452Y010513D03*
D19*
X029312Y015192D03*
X029312Y016092D03*
X029312Y016992D03*
D20*
X031792Y016102D03*
D21*
X027952Y022054D02*
X027952Y022654D01*
X026952Y022654D02*
X026952Y022054D01*
X025952Y022054D02*
X025952Y022654D01*
X024952Y022654D02*
X024952Y022054D01*
X023952Y022054D02*
X023952Y022654D01*
X022952Y022654D02*
X022952Y022054D01*
X021952Y022054D02*
X021952Y022654D01*
X020952Y022654D02*
X020952Y022054D01*
X019352Y022054D02*
X019352Y022654D01*
X018352Y022654D02*
X018352Y022054D01*
X017352Y022054D02*
X017352Y022654D01*
X016352Y022654D02*
X016352Y022054D01*
X015352Y022054D02*
X015352Y022654D01*
X014352Y022654D02*
X014352Y022054D01*
X011364Y016652D02*
X010764Y016652D01*
X010764Y015652D02*
X011364Y015652D01*
X011364Y014652D02*
X010764Y014652D01*
X010764Y013652D02*
X011364Y013652D01*
X011364Y012652D02*
X010764Y012652D01*
X010764Y011652D02*
X011364Y011652D01*
X011364Y010652D02*
X010764Y010652D01*
X010764Y009652D02*
X011364Y009652D01*
X015952Y003654D02*
X015952Y003054D01*
X016952Y003054D02*
X016952Y003654D01*
X017952Y003654D02*
X017952Y003054D01*
X018952Y003054D02*
X018952Y003654D01*
X019952Y003654D02*
X019952Y003054D01*
X020952Y003054D02*
X020952Y003654D01*
X022952Y003654D02*
X022952Y003054D01*
X023952Y003054D02*
X023952Y003654D01*
X024952Y003654D02*
X024952Y003054D01*
X025952Y003054D02*
X025952Y003654D01*
X026952Y003654D02*
X026952Y003054D01*
X027952Y003054D02*
X027952Y003654D01*
D22*
X014727Y005886D02*
X014451Y005886D01*
X014451Y006162D01*
X014727Y006162D01*
X014727Y005886D01*
X014727Y006003D02*
X014451Y006003D01*
X014451Y006120D02*
X014727Y006120D01*
X014727Y006576D02*
X014451Y006576D01*
X014451Y006852D01*
X014727Y006852D01*
X014727Y006576D01*
X014727Y006693D02*
X014451Y006693D01*
X014451Y006810D02*
X014727Y006810D01*
D23*
X031502Y013448D03*
X031502Y014157D03*
X029202Y017948D03*
X029202Y018657D03*
D24*
X026902Y016514D02*
X026902Y016514D01*
X026902Y015890D01*
X026902Y015890D01*
X026902Y016514D01*
X026902Y016066D02*
X026902Y016066D01*
X026902Y016242D02*
X026902Y016242D01*
X026902Y016418D02*
X026902Y016418D01*
D25*
X026902Y016202D02*
X026902Y016727D01*
X027374Y016727D02*
X027374Y016202D01*
X027374Y015677D01*
X026902Y015677D02*
X026902Y016202D01*
X026429Y016202D02*
X026429Y016727D01*
X026429Y016202D02*
X026429Y015677D01*
X023002Y012102D02*
X022712Y012050D01*
D26*
X011746Y005133D03*
X011746Y003633D03*
X009546Y003633D03*
X009546Y005133D03*
D27*
X021163Y006547D03*
D28*
X004641Y002668D02*
X004268Y002908D01*
X003899Y003227D01*
X002042Y005935D01*
X001807Y006737D01*
X001724Y007313D01*
X001724Y012134D01*
X001786Y012159D01*
X002014Y012387D01*
X002137Y012685D01*
X002137Y013007D01*
X002014Y013305D01*
X001786Y013533D01*
X001724Y013558D01*
X001724Y018007D01*
X001816Y018645D01*
X002093Y019590D01*
X002171Y019761D01*
X007232Y023945D01*
X008072Y024066D01*
X008565Y024083D01*
X013610Y024083D01*
X013715Y024189D01*
X013715Y024206D01*
X016747Y024164D01*
X016995Y024083D01*
X022535Y024083D01*
X024711Y024053D01*
X024851Y024076D01*
X024851Y024076D01*
X024914Y024083D01*
X024978Y024083D01*
X024985Y024090D01*
X025504Y024140D01*
X026665Y024154D01*
X027821Y024038D01*
X028957Y023793D01*
X030058Y023422D01*
X031110Y022931D01*
X032101Y022324D01*
X033018Y021611D01*
X033849Y020799D01*
X034584Y019900D01*
X035213Y018924D01*
X035489Y018367D01*
X035749Y017679D01*
X035972Y016889D01*
X036126Y016083D01*
X036156Y016058D01*
X036140Y015440D01*
X036108Y015518D01*
X035890Y015736D01*
X035606Y015853D01*
X035299Y015853D01*
X035014Y015736D01*
X034797Y015518D01*
X034679Y015234D01*
X034679Y014927D01*
X034797Y014642D01*
X035014Y014425D01*
X035299Y014307D01*
X035606Y014307D01*
X035890Y014425D01*
X036108Y014642D01*
X036121Y014674D01*
X036037Y011364D01*
X036103Y010956D01*
X035890Y011169D01*
X035606Y011286D01*
X035299Y011286D01*
X035014Y011169D01*
X034979Y011134D01*
X035017Y011208D01*
X035044Y011290D01*
X035057Y011376D01*
X035057Y011409D01*
X034517Y011409D01*
X034517Y010869D01*
X034551Y010869D01*
X034636Y010882D01*
X034719Y010909D01*
X034796Y010948D01*
X034796Y010949D01*
X034679Y010667D01*
X034679Y010360D01*
X034797Y010075D01*
X035014Y009858D01*
X035299Y009740D01*
X035606Y009740D01*
X035890Y009858D01*
X036108Y010075D01*
X036138Y010148D01*
X036097Y009871D01*
X036244Y009401D01*
X035992Y008467D01*
X035991Y008466D01*
X035912Y008403D01*
X035846Y008328D01*
X035793Y008241D01*
X035756Y008148D01*
X035736Y008049D01*
X035733Y007948D01*
X035748Y007848D01*
X035755Y007827D01*
X035718Y007727D01*
X035199Y006693D01*
X034567Y005725D01*
X033830Y004833D01*
X032998Y004029D01*
X032119Y003352D01*
X030192Y002310D01*
X030041Y002240D01*
X028942Y001877D01*
X027810Y001639D01*
X026659Y001529D01*
X025502Y001549D01*
X024985Y001601D01*
X024978Y001609D01*
X024915Y001609D01*
X024852Y001617D01*
X024842Y001609D01*
X016912Y001609D01*
X016625Y001516D01*
X016625Y001516D01*
X016404Y001355D01*
X014204Y001319D01*
X014129Y001319D01*
X013722Y001322D01*
X013715Y001429D01*
X013715Y001503D01*
X013610Y001609D01*
X008171Y001609D01*
X007706Y001625D01*
X006786Y001758D01*
X005901Y002017D01*
X004641Y002668D01*
X004579Y002708D02*
X015676Y002708D01*
X015702Y002681D02*
X015864Y002614D01*
X016039Y002614D01*
X016201Y002681D01*
X016325Y002805D01*
X016392Y002966D01*
X016392Y003741D01*
X016325Y003903D01*
X016201Y004027D01*
X016039Y004094D01*
X015864Y004094D01*
X015702Y004027D01*
X015579Y003903D01*
X015512Y003743D01*
X015285Y003823D01*
X015255Y003853D01*
X015202Y003853D01*
X015152Y003870D01*
X015114Y003853D01*
X012174Y003853D01*
X012104Y003923D01*
X011388Y003923D01*
X011318Y003853D01*
X009974Y003853D01*
X009904Y003923D01*
X009188Y003923D01*
X009106Y003841D01*
X009106Y003425D01*
X009188Y003343D01*
X009904Y003343D01*
X009974Y003413D01*
X011318Y003413D01*
X011388Y003343D01*
X012104Y003343D01*
X012174Y003413D01*
X015126Y003413D01*
X015512Y003276D01*
X015512Y002966D01*
X015579Y002805D01*
X015702Y002681D01*
X015553Y002866D02*
X004333Y002866D01*
X004133Y003025D02*
X015512Y003025D01*
X015512Y003183D02*
X003950Y003183D01*
X003821Y003342D02*
X015327Y003342D01*
X015164Y003633D02*
X015952Y003354D01*
X016392Y003342D02*
X016512Y003342D01*
X016512Y003500D02*
X016392Y003500D01*
X016392Y003659D02*
X016512Y003659D01*
X016512Y003741D02*
X016512Y002966D01*
X016579Y002805D01*
X016702Y002681D01*
X016864Y002614D01*
X017039Y002614D01*
X017201Y002681D01*
X017325Y002805D01*
X017392Y002966D01*
X017392Y003741D01*
X017325Y003903D01*
X017201Y004027D01*
X017172Y004039D01*
X017172Y005240D01*
X017680Y005539D01*
X019286Y005539D01*
X019414Y005668D01*
X020270Y006524D01*
X020399Y006653D01*
X020399Y009999D01*
X020860Y010461D01*
X020989Y010590D01*
X020989Y012974D01*
X021043Y013611D01*
X021106Y013611D01*
X021188Y013693D01*
X021188Y013732D01*
X021356Y013724D01*
X021360Y013720D01*
X021446Y013720D01*
X021532Y013716D01*
X021537Y013720D01*
X022322Y013720D01*
X022322Y013530D01*
X021964Y013530D01*
X021886Y013539D01*
X021874Y013530D01*
X021859Y013530D01*
X021804Y013475D01*
X021284Y013066D01*
X021269Y013066D01*
X021214Y013011D01*
X021152Y012963D01*
X021150Y012948D01*
X021140Y012937D01*
X021140Y012859D01*
X021131Y012782D01*
X021140Y012770D01*
X021140Y010716D01*
X020971Y010209D01*
X020943Y010181D01*
X020943Y010126D01*
X020925Y010073D01*
X020943Y010038D01*
X020943Y006949D01*
X020723Y006729D01*
X020723Y006365D01*
X020981Y006107D01*
X021345Y006107D01*
X021603Y006365D01*
X021603Y006729D01*
X021383Y006949D01*
X021383Y010054D01*
X021552Y010562D01*
X021580Y010590D01*
X021580Y010645D01*
X021597Y010698D01*
X021580Y010733D01*
X021580Y012739D01*
X022026Y013090D01*
X022322Y013090D01*
X022322Y012575D01*
X022239Y012573D01*
X022183Y012589D01*
X022151Y012571D01*
X022115Y012570D01*
X022075Y012528D01*
X022024Y012499D01*
X022014Y012464D01*
X021989Y012438D01*
X021991Y012380D01*
X021805Y011717D01*
X021782Y011693D01*
X021782Y011633D01*
X021765Y011574D01*
X021782Y011545D01*
X021782Y006592D01*
X021766Y006531D01*
X021782Y006504D01*
X021782Y006474D01*
X021827Y006429D01*
X022698Y004965D01*
X022732Y004754D01*
X022732Y004039D01*
X022702Y004027D01*
X022579Y003903D01*
X022512Y003741D01*
X022512Y002966D01*
X022579Y002805D01*
X022702Y002681D01*
X022864Y002614D01*
X023039Y002614D01*
X023201Y002681D01*
X023325Y002805D01*
X023392Y002966D01*
X023392Y003741D01*
X023325Y003903D01*
X023201Y004027D01*
X023172Y004039D01*
X023172Y004700D01*
X023183Y004716D01*
X023172Y004789D01*
X023172Y004862D01*
X023158Y004876D01*
X023133Y005031D01*
X023144Y005076D01*
X023119Y005118D01*
X023111Y005166D01*
X023074Y005193D01*
X022222Y006625D01*
X022222Y011572D01*
X022282Y011786D01*
X022282Y011365D01*
X022273Y011286D01*
X022282Y011275D01*
X022282Y011261D01*
X022337Y011205D01*
X022682Y010775D01*
X022682Y007246D01*
X022664Y007196D01*
X022682Y007159D01*
X022682Y007117D01*
X022719Y007080D01*
X022986Y006518D01*
X023732Y004932D01*
X023732Y004039D01*
X023702Y004027D01*
X023579Y003903D01*
X023512Y003741D01*
X023512Y002966D01*
X023579Y002805D01*
X023702Y002681D01*
X023864Y002614D01*
X024039Y002614D01*
X024201Y002681D01*
X024325Y002805D01*
X024392Y002966D01*
X024392Y003741D01*
X024325Y003903D01*
X024201Y004027D01*
X024172Y004039D01*
X024172Y004942D01*
X024189Y004992D01*
X024172Y005030D01*
X024172Y005072D01*
X024134Y005109D01*
X023423Y006623D01*
X023423Y006624D01*
X023384Y006706D01*
X023345Y006788D01*
X023122Y007258D01*
X023122Y007509D01*
X024732Y005226D01*
X024732Y004039D01*
X024702Y004027D01*
X024579Y003903D01*
X024512Y003741D01*
X024512Y002966D01*
X024579Y002805D01*
X024702Y002681D01*
X024864Y002614D01*
X025039Y002614D01*
X025201Y002681D01*
X025325Y002805D01*
X025392Y002966D01*
X025392Y003741D01*
X025325Y003903D01*
X025201Y004027D01*
X025172Y004039D01*
X025172Y005277D01*
X025184Y005348D01*
X025172Y005365D01*
X025172Y005387D01*
X025120Y005438D01*
X023510Y007722D01*
X023510Y007739D01*
X025732Y005180D01*
X025732Y004039D01*
X025702Y004027D01*
X025579Y003903D01*
X025512Y003741D01*
X025512Y002966D01*
X025579Y002805D01*
X025702Y002681D01*
X025864Y002614D01*
X026039Y002614D01*
X026201Y002681D01*
X026325Y002805D01*
X026392Y002966D01*
X026392Y003741D01*
X026325Y003903D01*
X026201Y004027D01*
X026172Y004039D01*
X026172Y005255D01*
X026177Y005338D01*
X026172Y005345D01*
X026172Y005354D01*
X026113Y005413D01*
X023834Y008037D01*
X023834Y008171D01*
X023838Y008167D01*
X023842Y008167D01*
X026732Y005433D01*
X026732Y004039D01*
X026702Y004027D01*
X026579Y003903D01*
X026512Y003741D01*
X026512Y002966D01*
X026579Y002805D01*
X026702Y002681D01*
X026864Y002614D01*
X027039Y002614D01*
X027201Y002681D01*
X027325Y002805D01*
X027392Y002966D01*
X027392Y003741D01*
X027325Y003903D01*
X027201Y004027D01*
X027172Y004039D01*
X027172Y005440D01*
X027174Y005443D01*
X027172Y005531D01*
X027172Y005619D01*
X027169Y005621D01*
X027169Y005625D01*
X027105Y005685D01*
X027043Y005748D01*
X027039Y005748D01*
X024149Y008482D01*
X024149Y008597D01*
X024153Y008593D01*
X024164Y008593D01*
X027732Y005605D01*
X027732Y004039D01*
X027702Y004027D01*
X027579Y003903D01*
X027512Y003741D01*
X027512Y002966D01*
X027579Y002805D01*
X027702Y002681D01*
X027864Y002614D01*
X028039Y002614D01*
X028201Y002681D01*
X028325Y002805D01*
X028392Y002966D01*
X028392Y003741D01*
X028325Y003903D01*
X028201Y004027D01*
X028172Y004039D01*
X028172Y005628D01*
X028179Y005636D01*
X028172Y005717D01*
X028172Y005799D01*
X028164Y005807D01*
X028163Y005818D01*
X028100Y005870D01*
X028043Y005927D01*
X028032Y005927D01*
X024464Y008916D01*
X024464Y009422D01*
X024691Y009032D01*
X024698Y008985D01*
X024735Y008957D01*
X024759Y008916D01*
X024806Y008904D01*
X025491Y008390D01*
X025493Y008383D01*
X025563Y008336D01*
X025631Y008285D01*
X025638Y008286D01*
X025961Y008071D01*
X025961Y008058D01*
X026010Y007940D01*
X026100Y007850D01*
X026217Y007802D01*
X026345Y007802D01*
X026462Y007850D01*
X026552Y007940D01*
X026601Y008058D01*
X026601Y008185D01*
X026552Y008303D01*
X026462Y008393D01*
X026345Y008442D01*
X026217Y008442D01*
X026205Y008437D01*
X025818Y008695D01*
X025071Y009255D01*
X024779Y009756D01*
X024779Y009786D01*
X024783Y009782D01*
X024785Y009782D01*
X025382Y009206D01*
X025382Y009139D01*
X025430Y009021D01*
X025520Y008931D01*
X025638Y008882D01*
X025765Y008882D01*
X025883Y008931D01*
X025973Y009021D01*
X026022Y009139D01*
X026022Y009266D01*
X025973Y009384D01*
X025883Y009474D01*
X025765Y009522D01*
X025687Y009522D01*
X025094Y010096D01*
X025094Y010286D01*
X025098Y010282D01*
X025099Y010282D01*
X025482Y009908D01*
X025482Y009839D01*
X025530Y009721D01*
X025620Y009631D01*
X025738Y009582D01*
X025865Y009582D01*
X025983Y009631D01*
X026073Y009721D01*
X026122Y009839D01*
X026122Y009966D01*
X026073Y010084D01*
X025983Y010174D01*
X025865Y010222D01*
X025789Y010222D01*
X025409Y010595D01*
X025409Y010673D01*
X025409Y010672D01*
X025412Y010661D01*
X025482Y010619D01*
X025547Y010571D01*
X025558Y010573D01*
X025782Y010438D01*
X025830Y010321D01*
X025920Y010231D01*
X026038Y010182D01*
X026064Y010182D01*
X027795Y007833D01*
X027795Y007817D01*
X027848Y007761D01*
X027894Y007699D01*
X027909Y007696D01*
X027920Y007685D01*
X027997Y007683D01*
X028074Y007671D01*
X028087Y007680D01*
X029560Y007642D01*
X029560Y007598D01*
X029642Y007516D01*
X030191Y007516D01*
X030252Y007576D01*
X030312Y007516D01*
X030861Y007516D01*
X030943Y007598D01*
X030943Y007681D01*
X031023Y007761D01*
X031023Y008758D01*
X031176Y008758D01*
X031258Y008840D01*
X031258Y009665D01*
X031227Y009695D01*
X031552Y010470D01*
X032115Y010468D01*
X032115Y010412D01*
X032147Y010380D01*
X032144Y010378D01*
X032111Y010345D01*
X032087Y010304D01*
X032075Y010258D01*
X032075Y010036D01*
X032433Y010036D01*
X032433Y009999D01*
X032470Y009999D01*
X032470Y009621D01*
X032672Y009621D01*
X032718Y009633D01*
X032759Y009657D01*
X032792Y009691D01*
X032816Y009732D01*
X032828Y009777D01*
X032828Y009999D01*
X032470Y009999D01*
X032470Y010036D01*
X032828Y010036D01*
X032828Y010258D01*
X032816Y010304D01*
X032792Y010345D01*
X032759Y010378D01*
X032756Y010380D01*
X032788Y010412D01*
X032788Y010962D01*
X032706Y011044D01*
X032669Y011044D01*
X032668Y011204D01*
X033665Y012141D01*
X034044Y012138D01*
X034075Y012064D01*
X034219Y011921D01*
X034253Y011907D01*
X034219Y011889D01*
X034149Y011838D01*
X034088Y011777D01*
X034037Y011707D01*
X033998Y011630D01*
X033971Y011548D01*
X033957Y011462D01*
X033957Y011429D01*
X034497Y011429D01*
X034497Y011409D01*
X033957Y011409D01*
X033957Y011376D01*
X033971Y011290D01*
X033998Y011208D01*
X034037Y011131D01*
X034088Y011061D01*
X034149Y010999D01*
X034219Y010948D01*
X034296Y010909D01*
X034379Y010882D01*
X034464Y010869D01*
X034497Y010869D01*
X034497Y011409D01*
X034517Y011409D01*
X034517Y011429D01*
X035057Y011429D01*
X035057Y011462D01*
X035044Y011548D01*
X035017Y011630D01*
X034978Y011707D01*
X034927Y011777D01*
X034866Y011838D01*
X034796Y011889D01*
X034762Y011907D01*
X034796Y011921D01*
X034940Y012064D01*
X035017Y012252D01*
X035017Y012455D01*
X034940Y012642D01*
X034796Y012786D01*
X034769Y012797D01*
X034796Y012808D01*
X034940Y012952D01*
X035017Y013139D01*
X035017Y013342D01*
X034940Y013529D01*
X034796Y013673D01*
X034712Y013708D01*
X034796Y013742D01*
X034940Y013886D01*
X035017Y014073D01*
X035017Y014276D01*
X034940Y014464D01*
X034796Y014607D01*
X034609Y014685D01*
X034406Y014685D01*
X034219Y014607D01*
X034075Y014464D01*
X034045Y014392D01*
X033242Y014386D01*
X033023Y014537D01*
X032948Y014588D01*
X032873Y014640D01*
X032873Y014640D01*
X032243Y015072D01*
X032193Y015122D01*
X032170Y015122D01*
X032151Y015135D01*
X032081Y015122D01*
X030593Y015122D01*
X030421Y015295D01*
X030421Y015296D01*
X030356Y015359D01*
X030293Y015422D01*
X030291Y015422D01*
X030290Y015423D01*
X030200Y015422D01*
X030110Y015422D01*
X030109Y015421D01*
X029847Y015418D01*
X029847Y015545D01*
X029765Y015627D01*
X028859Y015627D01*
X028777Y015545D01*
X028777Y014839D01*
X028859Y014757D01*
X029228Y014757D01*
X029260Y014663D01*
X028978Y014392D01*
X028915Y014345D01*
X028913Y014330D01*
X028902Y014320D01*
X028901Y014242D01*
X028853Y013902D01*
X028766Y013815D01*
X028717Y013697D01*
X028717Y013570D01*
X028766Y013452D01*
X028856Y013362D01*
X028973Y013313D01*
X029101Y013313D01*
X029218Y013362D01*
X029308Y013452D01*
X029357Y013570D01*
X029357Y013697D01*
X029308Y013815D01*
X029288Y013835D01*
X029328Y014118D01*
X029546Y014328D01*
X029965Y014080D01*
X029965Y013862D01*
X029997Y013830D01*
X029994Y013828D01*
X029961Y013795D01*
X029937Y013754D01*
X029925Y013708D01*
X029925Y013486D01*
X030283Y013486D01*
X030283Y013449D01*
X030320Y013449D01*
X030320Y013071D01*
X030522Y013071D01*
X030568Y013083D01*
X030609Y013107D01*
X030642Y013141D01*
X030666Y013182D01*
X030678Y013227D01*
X030678Y013449D01*
X030320Y013449D01*
X030320Y013486D01*
X030678Y013486D01*
X030678Y013708D01*
X030666Y013754D01*
X030642Y013795D01*
X030609Y013828D01*
X030606Y013830D01*
X030638Y013862D01*
X030638Y013923D01*
X031136Y013931D01*
X031207Y013859D01*
X031796Y013859D01*
X031878Y013941D01*
X031878Y014372D01*
X031796Y014454D01*
X031207Y014454D01*
X031125Y014372D01*
X031125Y014371D01*
X030638Y014363D01*
X030638Y014412D01*
X030556Y014494D01*
X030130Y014494D01*
X029696Y014750D01*
X029693Y014757D01*
X029765Y014757D01*
X029847Y014839D01*
X029847Y014978D01*
X030111Y014981D01*
X030410Y014682D01*
X032033Y014682D01*
X032699Y014226D01*
X033033Y013996D01*
X033084Y013945D01*
X033106Y013946D01*
X033124Y013933D01*
X033195Y013946D01*
X034048Y013952D01*
X034075Y013886D01*
X034219Y013742D01*
X034303Y013708D01*
X034219Y013673D01*
X034075Y013529D01*
X034033Y013427D01*
X033314Y013375D01*
X033236Y013379D01*
X033225Y013369D01*
X033210Y013368D01*
X033159Y013309D01*
X033067Y013225D01*
X033059Y013225D01*
X033000Y013164D01*
X032937Y013107D01*
X032937Y013100D01*
X031901Y012038D01*
X031288Y012038D01*
X031288Y012092D01*
X031228Y012152D01*
X031288Y012212D01*
X031288Y012762D01*
X031206Y012844D01*
X030697Y012844D01*
X030654Y012801D01*
X029267Y013198D01*
X029243Y013222D01*
X029182Y013222D01*
X029125Y013239D01*
X029095Y013222D01*
X027122Y013222D01*
X027122Y013405D01*
X028293Y013405D01*
X028422Y013534D01*
X028422Y015882D01*
X028777Y015882D01*
X028777Y015739D01*
X028859Y015657D01*
X029765Y015657D01*
X029847Y015739D01*
X029847Y016445D01*
X029765Y016527D01*
X029776Y016530D01*
X029817Y016553D01*
X029851Y016587D01*
X029874Y016628D01*
X029887Y016674D01*
X029887Y016925D01*
X029379Y016925D01*
X029379Y017060D01*
X029244Y017060D01*
X029244Y017467D01*
X028893Y017467D01*
X028847Y017455D01*
X028806Y017431D01*
X028773Y017398D01*
X028749Y017357D01*
X028737Y017311D01*
X028737Y017060D01*
X029244Y017060D01*
X029244Y016925D01*
X028737Y016925D01*
X028737Y016674D01*
X028749Y016628D01*
X028773Y016587D01*
X028806Y016553D01*
X028847Y016530D01*
X028858Y016527D01*
X028777Y016445D01*
X028777Y016422D01*
X028422Y016422D01*
X028422Y017501D01*
X028955Y017651D01*
X029496Y017651D01*
X029577Y017732D01*
X030665Y017744D01*
X030665Y017693D01*
X030747Y017611D01*
X031256Y017611D01*
X031338Y017693D01*
X031338Y018242D01*
X031306Y018275D01*
X031309Y018276D01*
X031342Y018310D01*
X031366Y018351D01*
X031378Y018397D01*
X031378Y018619D01*
X031020Y018619D01*
X031020Y018655D01*
X031378Y018655D01*
X031378Y018877D01*
X031366Y018923D01*
X031342Y018964D01*
X031309Y018998D01*
X031268Y019021D01*
X031222Y019034D01*
X031020Y019034D01*
X031020Y018655D01*
X030983Y018655D01*
X030983Y018619D01*
X030625Y018619D01*
X030625Y018397D01*
X030637Y018351D01*
X030661Y018310D01*
X030694Y018276D01*
X030697Y018275D01*
X030665Y018242D01*
X030665Y018184D01*
X029569Y018172D01*
X029496Y018246D01*
X028907Y018246D01*
X028825Y018164D01*
X028825Y018071D01*
X028171Y017888D01*
X028110Y017888D01*
X028087Y017864D01*
X028054Y017855D01*
X028025Y017802D01*
X027982Y017759D01*
X027982Y017725D01*
X027965Y017696D01*
X027982Y017637D01*
X027982Y017534D01*
X025724Y017534D01*
X025724Y018116D01*
X025727Y018119D01*
X025724Y018206D01*
X025724Y018293D01*
X025721Y018297D01*
X025721Y018301D01*
X025657Y018361D01*
X025595Y018422D01*
X025591Y018422D01*
X025269Y018723D01*
X025269Y018723D01*
X025202Y018785D01*
X025136Y018847D01*
X025135Y018847D01*
X024654Y019291D01*
X024593Y019352D01*
X024588Y019352D01*
X024584Y019356D01*
X024497Y019352D01*
X023295Y019352D01*
X023152Y019625D01*
X023160Y020122D01*
X023161Y020123D01*
X023162Y020213D01*
X023163Y020303D01*
X023162Y020304D01*
X023168Y021667D01*
X023201Y021681D01*
X023325Y021805D01*
X023392Y021966D01*
X023392Y022741D01*
X023325Y022903D01*
X023201Y023027D01*
X023039Y023094D01*
X022864Y023094D01*
X022702Y023027D01*
X022579Y022903D01*
X022512Y022741D01*
X022512Y021966D01*
X022579Y021805D01*
X022702Y021681D01*
X022728Y021670D01*
X022722Y020217D01*
X022712Y019608D01*
X022694Y019551D01*
X022711Y019520D01*
X022710Y019485D01*
X022751Y019442D01*
X022942Y019078D01*
X022942Y019041D01*
X022982Y019001D01*
X022997Y018972D01*
X022429Y018972D01*
X022172Y019503D01*
X022172Y021669D01*
X022201Y021681D01*
X022325Y021805D01*
X022392Y021966D01*
X022392Y022741D01*
X022325Y022903D01*
X022201Y023027D01*
X022039Y023094D01*
X021864Y023094D01*
X021702Y023027D01*
X021579Y022903D01*
X021512Y022741D01*
X021512Y021966D01*
X021579Y021805D01*
X021702Y021681D01*
X021732Y021669D01*
X021732Y019489D01*
X021714Y019438D01*
X021732Y019402D01*
X021732Y019361D01*
X021770Y019323D01*
X022072Y018702D01*
X022072Y018661D01*
X022110Y018623D01*
X022110Y018622D01*
X022082Y018622D01*
X021501Y019115D01*
X021172Y019444D01*
X021172Y021669D01*
X021201Y021681D01*
X021325Y021805D01*
X021392Y021966D01*
X021392Y022741D01*
X021325Y022903D01*
X021201Y023027D01*
X021039Y023094D01*
X020864Y023094D01*
X020702Y023027D01*
X020579Y022903D01*
X020512Y022741D01*
X020512Y021966D01*
X020579Y021805D01*
X020702Y021681D01*
X020732Y021669D01*
X020732Y019443D01*
X020731Y019443D01*
X020732Y019352D01*
X020732Y019300D01*
X020704Y019341D01*
X020704Y019364D01*
X020654Y019414D01*
X020614Y019472D01*
X020591Y019477D01*
X020575Y019493D01*
X020505Y019493D01*
X020435Y019506D01*
X020416Y019493D01*
X019787Y019493D01*
X019562Y019931D01*
X019569Y021668D01*
X019601Y021681D01*
X019725Y021805D01*
X019792Y021966D01*
X019792Y022741D01*
X019725Y022903D01*
X019601Y023027D01*
X019439Y023094D01*
X019264Y023094D01*
X019102Y023027D01*
X018979Y022903D01*
X018912Y022741D01*
X018912Y021966D01*
X018979Y021805D01*
X019102Y021681D01*
X019129Y021670D01*
X019122Y019913D01*
X019104Y019859D01*
X019122Y019826D01*
X018567Y019826D01*
X018567Y019984D02*
X019122Y019984D01*
X019122Y019826D02*
X019121Y019788D01*
X019162Y019748D01*
X019432Y019220D01*
X019432Y019182D01*
X019472Y019142D01*
X019498Y019092D01*
X019534Y019080D01*
X019561Y019053D01*
X019618Y019053D01*
X019672Y019036D01*
X019705Y019053D01*
X020368Y019053D01*
X020713Y018546D01*
X020926Y018208D01*
X020925Y018203D01*
X020975Y018132D01*
X021021Y018059D01*
X021026Y018058D01*
X021182Y017834D01*
X021182Y017833D01*
X020222Y018793D01*
X020093Y018922D01*
X019000Y018922D01*
X018566Y019454D01*
X018570Y021668D01*
X018601Y021681D01*
X018725Y021805D01*
X018792Y021966D01*
X018792Y022741D01*
X018725Y022903D01*
X018601Y023027D01*
X018439Y023094D01*
X018264Y023094D01*
X018102Y023027D01*
X017979Y022903D01*
X017912Y022741D01*
X017912Y021966D01*
X017979Y021805D01*
X018102Y021681D01*
X018130Y021669D01*
X018126Y019388D01*
X018118Y019308D01*
X018126Y019298D01*
X018126Y019286D01*
X018182Y019229D01*
X018675Y018624D01*
X018675Y018611D01*
X018732Y018555D01*
X018782Y018493D01*
X018795Y018491D01*
X018804Y018482D01*
X018884Y018482D01*
X018964Y018474D01*
X018974Y018482D01*
X019910Y018482D01*
X021110Y017282D01*
X023137Y017282D01*
X023540Y017021D01*
X024024Y016687D01*
X024024Y016519D01*
X024020Y016522D01*
X023994Y016522D01*
X023742Y016684D01*
X023741Y016691D01*
X023667Y016733D01*
X023595Y016779D01*
X023588Y016778D01*
X023236Y016979D01*
X023193Y017022D01*
X023160Y017022D01*
X023132Y017039D01*
X023072Y017022D01*
X021383Y017022D01*
X020751Y017564D01*
X019960Y018355D01*
X019900Y018419D01*
X019896Y018419D01*
X019893Y018422D01*
X019805Y018422D01*
X018204Y018473D01*
X017489Y019446D01*
X017552Y021661D01*
X017601Y021681D01*
X017725Y021805D01*
X017792Y021966D01*
X017792Y022741D01*
X017725Y022903D01*
X017601Y023027D01*
X017439Y023094D01*
X017264Y023094D01*
X017102Y023027D01*
X016979Y022903D01*
X016912Y022741D01*
X016912Y021966D01*
X016979Y021805D01*
X017102Y021681D01*
X017112Y021677D01*
X017048Y019396D01*
X017036Y019320D01*
X017045Y019307D01*
X017045Y019292D01*
X017098Y019235D01*
X017868Y018187D01*
X017867Y018172D01*
X017921Y018116D01*
X017967Y018053D01*
X017982Y018051D01*
X017992Y018039D01*
X018070Y018037D01*
X018147Y018025D01*
X018159Y018034D01*
X019708Y017985D01*
X020388Y017304D01*
X020389Y017295D01*
X020452Y017241D01*
X020510Y017182D01*
X020520Y017182D01*
X021152Y016641D01*
X021210Y016582D01*
X021220Y016582D01*
X021228Y016576D01*
X021310Y016582D01*
X023043Y016582D01*
X023438Y016357D01*
X023709Y016182D01*
X023709Y016119D01*
X023705Y016122D01*
X023680Y016122D01*
X023141Y016474D01*
X023093Y016522D01*
X023067Y016522D01*
X023046Y016536D01*
X022979Y016522D01*
X020993Y016522D01*
X019722Y017793D01*
X019593Y017922D01*
X017710Y017922D01*
X016528Y019450D01*
X016561Y021665D01*
X016601Y021681D01*
X016725Y021805D01*
X016792Y021966D01*
X016792Y022741D01*
X016725Y022903D01*
X016601Y023027D01*
X016439Y023094D01*
X016264Y023094D01*
X016102Y023027D01*
X015979Y022903D01*
X015912Y022741D01*
X015912Y021966D01*
X015979Y021805D01*
X016102Y021681D01*
X016121Y021673D01*
X016087Y019392D01*
X016077Y019314D01*
X016086Y019303D01*
X016085Y019289D01*
X016140Y019232D01*
X017382Y017627D01*
X017382Y017611D01*
X017436Y017557D01*
X017483Y017496D01*
X017499Y017494D01*
X017510Y017482D01*
X017588Y017482D01*
X017664Y017473D01*
X017677Y017482D01*
X019410Y017482D01*
X020496Y016397D01*
X019737Y016976D01*
X019249Y017367D01*
X019193Y017422D01*
X019179Y017422D01*
X019168Y017431D01*
X019089Y017422D01*
X017209Y017422D01*
X015614Y019454D01*
X015582Y021673D01*
X015601Y021681D01*
X015725Y021805D01*
X015792Y021966D01*
X015792Y022741D01*
X015725Y022903D01*
X015601Y023027D01*
X015439Y023094D01*
X015264Y023094D01*
X015102Y023027D01*
X014979Y022903D01*
X014912Y022741D01*
X014912Y021966D01*
X014979Y021805D01*
X015102Y021681D01*
X015142Y021665D01*
X015175Y019388D01*
X015166Y019312D01*
X015176Y019299D01*
X015177Y019282D01*
X015231Y019229D01*
X016882Y017126D01*
X016882Y017111D01*
X016937Y017056D01*
X016985Y016995D01*
X017000Y016993D01*
X017010Y016982D01*
X017088Y016982D01*
X017166Y016973D01*
X017178Y016982D01*
X019024Y016982D01*
X019395Y016686D01*
X019396Y016683D01*
X019466Y016629D01*
X019535Y016574D01*
X019538Y016574D01*
X020589Y015772D01*
X019041Y016774D01*
X018993Y016822D01*
X018967Y016822D01*
X018945Y016837D01*
X018878Y016822D01*
X016886Y016822D01*
X014888Y018631D01*
X014615Y019415D01*
X014582Y021673D01*
X014601Y021681D01*
X014725Y021805D01*
X014792Y021966D01*
X014792Y022741D01*
X014725Y022903D01*
X014601Y023027D01*
X014439Y023094D01*
X014264Y023094D01*
X014102Y023027D01*
X013979Y022903D01*
X013912Y022741D01*
X013912Y021966D01*
X013918Y021950D01*
X012941Y019878D01*
X011666Y019419D01*
X011604Y019413D01*
X011583Y019389D01*
X011554Y019378D01*
X011527Y019322D01*
X011049Y018747D01*
X009858Y017454D01*
X009797Y017392D01*
X009797Y017387D01*
X009794Y017384D01*
X009797Y017297D01*
X009822Y014125D01*
X009804Y014078D01*
X009822Y014038D01*
X009823Y013993D01*
X009858Y013958D01*
X009879Y013912D01*
X009921Y013897D01*
X009952Y013866D01*
X010003Y013866D01*
X010326Y013745D01*
X010324Y013740D01*
X010324Y013565D01*
X010391Y013403D01*
X010515Y013279D01*
X010677Y013212D01*
X011452Y013212D01*
X011613Y013279D01*
X011737Y013403D01*
X011804Y013565D01*
X011804Y013740D01*
X011737Y013902D01*
X011613Y014025D01*
X011452Y014092D01*
X010677Y014092D01*
X010665Y014087D01*
X010261Y014239D01*
X010238Y017217D01*
X011319Y018391D01*
X011325Y018392D01*
X011380Y018457D01*
X011438Y018520D01*
X011437Y018527D01*
X011845Y019016D01*
X013176Y019495D01*
X013262Y019526D01*
X013301Y019609D01*
X014146Y021401D01*
X014175Y019425D01*
X014158Y019390D01*
X014176Y019338D01*
X014177Y019282D01*
X014205Y019255D01*
X014480Y018463D01*
X014483Y018404D01*
X014509Y018380D01*
X014521Y018347D01*
X014574Y018321D01*
X016650Y016443D01*
X016710Y016382D01*
X016717Y016382D01*
X016722Y016378D01*
X016807Y016382D01*
X018837Y016382D01*
X020462Y015330D01*
X020510Y015282D01*
X020537Y015282D01*
X020559Y015268D01*
X020625Y015282D01*
X021199Y015282D01*
X021582Y014828D01*
X021582Y014511D01*
X021929Y014164D01*
X021929Y014164D01*
X021933Y014160D01*
X021457Y014160D01*
X021188Y014172D01*
X021188Y014242D01*
X021156Y014275D01*
X021159Y014276D01*
X021192Y014310D01*
X021216Y014351D01*
X021228Y014397D01*
X021228Y014619D01*
X020870Y014619D01*
X020870Y014655D01*
X021228Y014655D01*
X021228Y014877D01*
X021216Y014923D01*
X021192Y014964D01*
X021159Y014998D01*
X021118Y015021D01*
X021072Y015034D01*
X020870Y015034D01*
X020870Y014655D01*
X020833Y014655D01*
X020833Y014619D01*
X020475Y014619D01*
X020475Y014397D01*
X020487Y014351D01*
X020511Y014310D01*
X020544Y014276D01*
X020547Y014275D01*
X020515Y014242D01*
X020515Y014185D01*
X018851Y014172D01*
X018205Y014172D01*
X016722Y014940D01*
X016548Y014884D01*
X016464Y014722D01*
X016520Y014549D01*
X018020Y013773D01*
X018060Y013732D01*
X018098Y013732D01*
X018131Y013715D01*
X018186Y013732D01*
X018761Y013732D01*
X018762Y013732D01*
X018852Y013732D01*
X018943Y013732D01*
X018943Y013733D01*
X020515Y013745D01*
X020515Y013693D01*
X020597Y013611D01*
X020601Y013611D01*
X020557Y013082D01*
X020549Y013075D01*
X020549Y012993D01*
X020542Y012911D01*
X020549Y012903D01*
X020549Y010772D01*
X019959Y010181D01*
X019959Y006835D01*
X019103Y005979D01*
X017648Y005979D01*
X017587Y005995D01*
X017560Y005979D01*
X017529Y005979D01*
X017484Y005935D01*
X016892Y005586D01*
X016860Y005586D01*
X016816Y005541D01*
X016761Y005509D01*
X016754Y005479D01*
X016732Y005457D01*
X016732Y005394D01*
X016716Y005333D01*
X016732Y005306D01*
X016732Y004039D01*
X016702Y004027D01*
X016579Y003903D01*
X016512Y003741D01*
X016543Y003817D02*
X016360Y003817D01*
X016252Y003976D02*
X016651Y003976D01*
X016732Y004134D02*
X003277Y004134D01*
X003169Y004293D02*
X016732Y004293D01*
X016732Y004451D02*
X003060Y004451D01*
X002951Y004610D02*
X016732Y004610D01*
X016732Y004768D02*
X002842Y004768D01*
X002734Y004927D02*
X009074Y004927D01*
X009078Y004913D02*
X009102Y004872D01*
X009135Y004839D01*
X009176Y004815D01*
X009222Y004803D01*
X009546Y004803D01*
X009869Y004803D01*
X009915Y004815D01*
X009956Y004839D01*
X009990Y004872D01*
X010013Y004913D01*
X010026Y004959D01*
X010026Y005133D01*
X010026Y005306D01*
X010013Y005352D01*
X009990Y005393D01*
X009956Y005427D01*
X009915Y005450D01*
X009869Y005463D01*
X009546Y005463D01*
X009546Y005133D01*
X010026Y005133D01*
X009546Y005133D01*
X009546Y005133D01*
X009546Y005133D01*
X009546Y005463D01*
X009222Y005463D01*
X009176Y005450D01*
X009135Y005427D01*
X009102Y005393D01*
X009078Y005352D01*
X009066Y005306D01*
X009066Y005133D01*
X009546Y005133D01*
X009546Y004803D01*
X009546Y005133D01*
X009546Y005133D01*
X009546Y005133D01*
X009066Y005133D01*
X009066Y004959D01*
X009078Y004913D01*
X009066Y005085D02*
X002625Y005085D01*
X002516Y005244D02*
X009066Y005244D01*
X009110Y005402D02*
X002408Y005402D01*
X002299Y005561D02*
X016835Y005561D01*
X016732Y005402D02*
X012181Y005402D01*
X012190Y005393D02*
X012156Y005427D01*
X012115Y005450D01*
X012069Y005463D01*
X011746Y005463D01*
X011746Y005133D01*
X012226Y005133D01*
X012226Y005306D01*
X012213Y005352D01*
X012190Y005393D01*
X012226Y005244D02*
X016732Y005244D01*
X016732Y005085D02*
X012226Y005085D01*
X012226Y005133D02*
X011746Y005133D01*
X011746Y005133D01*
X011746Y005133D01*
X011746Y005463D01*
X011422Y005463D01*
X011376Y005450D01*
X011335Y005427D01*
X011302Y005393D01*
X011278Y005352D01*
X011266Y005306D01*
X011266Y005133D01*
X011746Y005133D01*
X011746Y004803D01*
X012069Y004803D01*
X012115Y004815D01*
X012156Y004839D01*
X012190Y004872D01*
X012213Y004913D01*
X012226Y004959D01*
X012226Y005133D01*
X012217Y004927D02*
X016732Y004927D01*
X017172Y004927D02*
X022704Y004927D01*
X022729Y004768D02*
X017172Y004768D01*
X017172Y004610D02*
X022732Y004610D01*
X022732Y004451D02*
X017172Y004451D01*
X017172Y004293D02*
X022732Y004293D01*
X022732Y004134D02*
X017172Y004134D01*
X017252Y003976D02*
X017651Y003976D01*
X017702Y004027D02*
X017579Y003903D01*
X017512Y003741D01*
X017512Y002966D01*
X017579Y002805D01*
X017702Y002681D01*
X017864Y002614D01*
X017975Y002614D01*
X018125Y002179D01*
X018125Y002125D01*
X018154Y002096D01*
X018167Y002058D01*
X018216Y002034D01*
X018254Y001996D01*
X018295Y001996D01*
X018331Y001978D01*
X018382Y001996D01*
X020118Y001996D01*
X020144Y001981D01*
X020206Y001996D01*
X020270Y001996D01*
X020291Y002017D01*
X020993Y002193D01*
X021057Y002193D01*
X021079Y002214D01*
X021108Y002222D01*
X021141Y002277D01*
X021186Y002322D01*
X021186Y002352D01*
X021202Y002378D01*
X021186Y002440D01*
X021186Y002675D01*
X021201Y002681D01*
X021325Y002805D01*
X021392Y002966D01*
X021392Y003741D01*
X021325Y003903D01*
X021201Y004027D01*
X021039Y004094D01*
X020864Y004094D01*
X020702Y004027D01*
X020579Y003903D01*
X020512Y003741D01*
X020512Y002966D01*
X020579Y002805D01*
X020702Y002681D01*
X020746Y002663D01*
X020746Y002585D01*
X020152Y002436D01*
X018502Y002436D01*
X018352Y002870D01*
X018392Y002966D01*
X018392Y003741D01*
X018325Y003903D01*
X018201Y004027D01*
X018039Y004094D01*
X017864Y004094D01*
X017702Y004027D01*
X017543Y003817D02*
X017360Y003817D01*
X017392Y003659D02*
X017512Y003659D01*
X017512Y003500D02*
X017392Y003500D01*
X017392Y003342D02*
X017512Y003342D01*
X017512Y003183D02*
X017392Y003183D01*
X017392Y003025D02*
X017512Y003025D01*
X017553Y002866D02*
X017350Y002866D01*
X017227Y002708D02*
X017676Y002708D01*
X017997Y002549D02*
X004871Y002549D01*
X005178Y002391D02*
X018052Y002391D01*
X018107Y002232D02*
X005486Y002232D01*
X005793Y002074D02*
X018162Y002074D01*
X018345Y002216D02*
X020179Y002216D01*
X020966Y002413D01*
X020966Y003354D01*
X020952Y003354D01*
X021392Y003342D02*
X022512Y003342D01*
X022512Y003500D02*
X021392Y003500D01*
X021392Y003659D02*
X022512Y003659D01*
X022543Y003817D02*
X021360Y003817D01*
X021252Y003976D02*
X022651Y003976D01*
X023172Y004134D02*
X023732Y004134D01*
X023732Y004293D02*
X023172Y004293D01*
X023172Y004451D02*
X023732Y004451D01*
X023732Y004610D02*
X023172Y004610D01*
X023175Y004768D02*
X023732Y004768D01*
X023732Y004927D02*
X023150Y004927D01*
X023138Y005085D02*
X023659Y005085D01*
X023585Y005244D02*
X023044Y005244D01*
X022950Y005402D02*
X023510Y005402D01*
X023436Y005561D02*
X022855Y005561D01*
X022761Y005719D02*
X023361Y005719D01*
X023287Y005878D02*
X022667Y005878D01*
X022572Y006036D02*
X023213Y006036D01*
X023138Y006195D02*
X022478Y006195D01*
X022384Y006353D02*
X023064Y006353D01*
X022989Y006512D02*
X022289Y006512D01*
X022222Y006670D02*
X022914Y006670D01*
X022838Y006829D02*
X022222Y006829D01*
X022222Y006987D02*
X022763Y006987D01*
X022682Y007146D02*
X022222Y007146D01*
X022222Y007304D02*
X022682Y007304D01*
X022682Y007463D02*
X022222Y007463D01*
X022222Y007621D02*
X022682Y007621D01*
X022682Y007780D02*
X022222Y007780D01*
X022222Y007938D02*
X022682Y007938D01*
X022682Y008097D02*
X022222Y008097D01*
X022222Y008255D02*
X022682Y008255D01*
X022682Y008414D02*
X022222Y008414D01*
X022222Y008572D02*
X022682Y008572D01*
X022682Y008731D02*
X022222Y008731D01*
X022222Y008889D02*
X022682Y008889D01*
X022682Y009048D02*
X022222Y009048D01*
X022222Y009206D02*
X022682Y009206D01*
X022682Y009365D02*
X022222Y009365D01*
X022222Y009523D02*
X022682Y009523D01*
X022682Y009682D02*
X022222Y009682D01*
X022222Y009840D02*
X022682Y009840D01*
X022682Y009999D02*
X022222Y009999D01*
X022222Y010157D02*
X022682Y010157D01*
X022682Y010316D02*
X022222Y010316D01*
X022222Y010474D02*
X022682Y010474D01*
X022682Y010633D02*
X022222Y010633D01*
X022222Y010791D02*
X022669Y010791D01*
X022542Y010950D02*
X022222Y010950D01*
X022222Y011108D02*
X022415Y011108D01*
X022282Y011267D02*
X022222Y011267D01*
X022222Y011425D02*
X022282Y011425D01*
X022282Y011584D02*
X022225Y011584D01*
X022269Y011742D02*
X022282Y011742D01*
X022002Y011602D02*
X022002Y006565D01*
X022908Y005041D01*
X022952Y004771D01*
X022952Y003354D01*
X023392Y003342D02*
X023512Y003342D01*
X023512Y003500D02*
X023392Y003500D01*
X023392Y003659D02*
X023512Y003659D01*
X023543Y003817D02*
X023360Y003817D01*
X023252Y003976D02*
X023651Y003976D01*
X024172Y004134D02*
X024732Y004134D01*
X024732Y004293D02*
X024172Y004293D01*
X024172Y004451D02*
X024732Y004451D01*
X024732Y004610D02*
X024172Y004610D01*
X024172Y004768D02*
X024732Y004768D01*
X024732Y004927D02*
X024172Y004927D01*
X024158Y005085D02*
X024732Y005085D01*
X024719Y005244D02*
X024071Y005244D01*
X023997Y005402D02*
X024607Y005402D01*
X024496Y005561D02*
X023922Y005561D01*
X023848Y005719D02*
X024384Y005719D01*
X024272Y005878D02*
X023773Y005878D01*
X023699Y006036D02*
X024160Y006036D01*
X024049Y006195D02*
X023624Y006195D01*
X023550Y006353D02*
X023937Y006353D01*
X023825Y006512D02*
X023475Y006512D01*
X023401Y006670D02*
X023713Y006670D01*
X023601Y006829D02*
X023326Y006829D01*
X023345Y006788D02*
X023345Y006788D01*
X023250Y006987D02*
X023490Y006987D01*
X023378Y007146D02*
X023175Y007146D01*
X023122Y007304D02*
X023266Y007304D01*
X023154Y007463D02*
X023122Y007463D01*
X023289Y007653D02*
X023299Y011462D01*
X023614Y011462D02*
X023614Y007955D01*
X025952Y005263D01*
X025952Y003354D01*
X026392Y003342D02*
X026512Y003342D01*
X026512Y003500D02*
X026392Y003500D01*
X026392Y003659D02*
X026512Y003659D01*
X026543Y003817D02*
X026360Y003817D01*
X026252Y003976D02*
X026651Y003976D01*
X026732Y004134D02*
X026172Y004134D01*
X026172Y004293D02*
X026732Y004293D01*
X026732Y004451D02*
X026172Y004451D01*
X026172Y004610D02*
X026732Y004610D01*
X026732Y004768D02*
X026172Y004768D01*
X026172Y004927D02*
X026732Y004927D01*
X026732Y005085D02*
X026172Y005085D01*
X026172Y005244D02*
X026732Y005244D01*
X026732Y005402D02*
X026123Y005402D01*
X025984Y005561D02*
X026597Y005561D01*
X026429Y005719D02*
X025847Y005719D01*
X025709Y005878D02*
X026261Y005878D01*
X026094Y006036D02*
X025571Y006036D01*
X025434Y006195D02*
X025926Y006195D01*
X025759Y006353D02*
X025296Y006353D01*
X025158Y006512D02*
X025591Y006512D01*
X025424Y006670D02*
X025021Y006670D01*
X024883Y006829D02*
X025256Y006829D01*
X025089Y006987D02*
X024746Y006987D01*
X024608Y007146D02*
X024921Y007146D01*
X024753Y007304D02*
X024470Y007304D01*
X024586Y007463D02*
X024333Y007463D01*
X024418Y007621D02*
X024195Y007621D01*
X024251Y007780D02*
X024057Y007780D01*
X024083Y007938D02*
X023920Y007938D01*
X023916Y008097D02*
X023834Y008097D01*
X023929Y008387D02*
X023929Y011462D01*
X024244Y011462D02*
X024244Y008813D01*
X027952Y005707D01*
X027952Y003354D01*
X028392Y003342D02*
X032100Y003342D01*
X032311Y003500D02*
X028392Y003500D01*
X028392Y003659D02*
X032517Y003659D01*
X032723Y003817D02*
X030959Y003817D01*
X030925Y003783D02*
X030998Y003856D01*
X031593Y004450D01*
X031632Y004546D01*
X031632Y004649D01*
X031593Y004745D01*
X031519Y004818D01*
X031424Y004858D01*
X031320Y004858D01*
X031225Y004818D01*
X031038Y004631D01*
X031038Y005244D01*
X030998Y005339D01*
X030778Y005560D01*
X030776Y005561D01*
X030722Y005584D01*
X030681Y005601D01*
X030280Y005601D01*
X030253Y005590D01*
X030185Y005561D01*
X029814Y005191D01*
X029776Y005098D01*
X029775Y005095D01*
X029775Y004695D01*
X029814Y004599D01*
X029887Y004526D01*
X029983Y004486D01*
X030086Y004486D01*
X030182Y004526D01*
X030255Y004599D01*
X030295Y004695D01*
X030295Y004936D01*
X030440Y005081D01*
X030518Y005081D01*
X030518Y003952D01*
X030557Y003856D01*
X030630Y003783D01*
X030726Y003743D01*
X030829Y003743D01*
X030925Y003783D01*
X031118Y003976D02*
X032929Y003976D01*
X033107Y004134D02*
X031276Y004134D01*
X031435Y004293D02*
X033271Y004293D01*
X033435Y004451D02*
X031593Y004451D01*
X031632Y004610D02*
X033599Y004610D01*
X033763Y004768D02*
X031570Y004768D01*
X031554Y004869D02*
X031955Y004869D01*
X032050Y004908D01*
X032421Y005278D01*
X032460Y005374D01*
X032460Y005775D01*
X032421Y005870D01*
X032347Y005943D01*
X031753Y006538D01*
X031657Y006577D01*
X031257Y006577D01*
X031228Y006566D01*
X031161Y006538D01*
X030791Y006168D01*
X030751Y006072D01*
X030751Y005671D01*
X030791Y005576D01*
X030864Y005503D01*
X031458Y004908D01*
X031554Y004869D01*
X031440Y004927D02*
X031038Y004927D01*
X031038Y005085D02*
X031281Y005085D01*
X031123Y005244D02*
X031038Y005244D01*
X030964Y005402D02*
X030936Y005402D01*
X030806Y005561D02*
X030777Y005561D01*
X030776Y005561D02*
X030776Y005561D01*
X030751Y005719D02*
X028172Y005719D01*
X028172Y005561D02*
X030184Y005561D01*
X030025Y005402D02*
X028172Y005402D01*
X028172Y005244D02*
X029867Y005244D01*
X029775Y005085D02*
X028172Y005085D01*
X028172Y004927D02*
X029775Y004927D01*
X029775Y004768D02*
X028172Y004768D01*
X028172Y004610D02*
X029810Y004610D01*
X030259Y004610D02*
X030518Y004610D01*
X030518Y004768D02*
X030295Y004768D01*
X030295Y004927D02*
X030518Y004927D01*
X031038Y004768D02*
X031175Y004768D01*
X030518Y004451D02*
X028172Y004451D01*
X028172Y004293D02*
X030518Y004293D01*
X030518Y004134D02*
X028172Y004134D01*
X028252Y003976D02*
X030518Y003976D01*
X030596Y003817D02*
X028360Y003817D01*
X028392Y003183D02*
X031807Y003183D01*
X031514Y003025D02*
X028392Y003025D01*
X028350Y002866D02*
X031221Y002866D01*
X030927Y002708D02*
X028227Y002708D01*
X027676Y002708D02*
X027227Y002708D01*
X027350Y002866D02*
X027553Y002866D01*
X027512Y003025D02*
X027392Y003025D01*
X027392Y003183D02*
X027512Y003183D01*
X027512Y003342D02*
X027392Y003342D01*
X027392Y003500D02*
X027512Y003500D01*
X027512Y003659D02*
X027392Y003659D01*
X027360Y003817D02*
X027543Y003817D01*
X027651Y003976D02*
X027252Y003976D01*
X027172Y004134D02*
X027732Y004134D01*
X027732Y004293D02*
X027172Y004293D01*
X027172Y004451D02*
X027732Y004451D01*
X027732Y004610D02*
X027172Y004610D01*
X027172Y004768D02*
X027732Y004768D01*
X027732Y004927D02*
X027172Y004927D01*
X027172Y005085D02*
X027732Y005085D01*
X027732Y005244D02*
X027172Y005244D01*
X027172Y005402D02*
X027732Y005402D01*
X027732Y005561D02*
X027172Y005561D01*
X027071Y005719D02*
X027595Y005719D01*
X027406Y005878D02*
X026902Y005878D01*
X026734Y006036D02*
X027217Y006036D01*
X027027Y006195D02*
X026567Y006195D01*
X026399Y006353D02*
X026838Y006353D01*
X026649Y006512D02*
X026231Y006512D01*
X026064Y006670D02*
X026460Y006670D01*
X026270Y006829D02*
X025896Y006829D01*
X025729Y006987D02*
X026081Y006987D01*
X025892Y007146D02*
X025561Y007146D01*
X025703Y007304D02*
X025394Y007304D01*
X025513Y007463D02*
X025226Y007463D01*
X025324Y007621D02*
X025059Y007621D01*
X025135Y007780D02*
X024891Y007780D01*
X024946Y007938D02*
X024724Y007938D01*
X024757Y008097D02*
X024556Y008097D01*
X024567Y008255D02*
X024388Y008255D01*
X024378Y008414D02*
X024221Y008414D01*
X024189Y008572D02*
X024149Y008572D01*
X023929Y008387D02*
X026952Y005528D01*
X026952Y003354D01*
X026512Y003183D02*
X026392Y003183D01*
X026392Y003025D02*
X026512Y003025D01*
X026553Y002866D02*
X026350Y002866D01*
X026227Y002708D02*
X026676Y002708D01*
X025676Y002708D02*
X025227Y002708D01*
X025350Y002866D02*
X025553Y002866D01*
X025512Y003025D02*
X025392Y003025D01*
X025392Y003183D02*
X025512Y003183D01*
X025512Y003342D02*
X025392Y003342D01*
X025392Y003500D02*
X025512Y003500D01*
X025512Y003659D02*
X025392Y003659D01*
X025360Y003817D02*
X025543Y003817D01*
X025651Y003976D02*
X025252Y003976D01*
X025172Y004134D02*
X025732Y004134D01*
X025732Y004293D02*
X025172Y004293D01*
X025172Y004451D02*
X025732Y004451D01*
X025732Y004610D02*
X025172Y004610D01*
X025172Y004768D02*
X025732Y004768D01*
X025732Y004927D02*
X025172Y004927D01*
X025172Y005085D02*
X025732Y005085D01*
X025677Y005244D02*
X025172Y005244D01*
X025156Y005402D02*
X025539Y005402D01*
X025401Y005561D02*
X025034Y005561D01*
X024922Y005719D02*
X025264Y005719D01*
X025126Y005878D02*
X024810Y005878D01*
X024699Y006036D02*
X024989Y006036D01*
X024851Y006195D02*
X024587Y006195D01*
X024475Y006353D02*
X024713Y006353D01*
X024576Y006512D02*
X024363Y006512D01*
X024438Y006670D02*
X024252Y006670D01*
X024300Y006829D02*
X024140Y006829D01*
X024163Y006987D02*
X024028Y006987D01*
X024025Y007146D02*
X023916Y007146D01*
X023888Y007304D02*
X023805Y007304D01*
X023750Y007463D02*
X023693Y007463D01*
X023612Y007621D02*
X023581Y007621D01*
X023289Y007653D02*
X024952Y005296D01*
X024952Y003354D01*
X024512Y003342D02*
X024392Y003342D01*
X024392Y003500D02*
X024512Y003500D01*
X024512Y003659D02*
X024392Y003659D01*
X024360Y003817D02*
X024543Y003817D01*
X024651Y003976D02*
X024252Y003976D01*
X023952Y003354D02*
X023952Y004981D01*
X023185Y006612D01*
X022902Y007208D01*
X022902Y010852D01*
X022502Y011352D01*
X022502Y012050D01*
X022712Y012050D01*
X022712Y012365D02*
X022212Y012352D01*
X022002Y011602D01*
X021768Y011584D02*
X021580Y011584D01*
X021580Y011742D02*
X021812Y011742D01*
X021857Y011901D02*
X021580Y011901D01*
X021580Y012059D02*
X021901Y012059D01*
X021945Y012218D02*
X021580Y012218D01*
X021580Y012376D02*
X021990Y012376D01*
X022081Y012535D02*
X021580Y012535D01*
X021580Y012693D02*
X022322Y012693D01*
X022322Y012852D02*
X021723Y012852D01*
X021925Y013010D02*
X022322Y013010D01*
X021950Y013310D02*
X022712Y013310D01*
X022322Y013644D02*
X021139Y013644D01*
X021032Y013486D02*
X021815Y013486D01*
X021950Y013310D02*
X021360Y012846D01*
X021360Y010681D01*
X021163Y010090D01*
X021163Y006547D01*
X021603Y006512D02*
X021777Y006512D01*
X021782Y006670D02*
X021603Y006670D01*
X021503Y006829D02*
X021782Y006829D01*
X021782Y006987D02*
X021383Y006987D01*
X021383Y007146D02*
X021782Y007146D01*
X021782Y007304D02*
X021383Y007304D01*
X021383Y007463D02*
X021782Y007463D01*
X021782Y007621D02*
X021383Y007621D01*
X021383Y007780D02*
X021782Y007780D01*
X021782Y007938D02*
X021383Y007938D01*
X021383Y008097D02*
X021782Y008097D01*
X021782Y008255D02*
X021383Y008255D01*
X021383Y008414D02*
X021782Y008414D01*
X021782Y008572D02*
X021383Y008572D01*
X021383Y008731D02*
X021782Y008731D01*
X021782Y008889D02*
X021383Y008889D01*
X021383Y009048D02*
X021782Y009048D01*
X021782Y009206D02*
X021383Y009206D01*
X021383Y009365D02*
X021782Y009365D01*
X021782Y009523D02*
X021383Y009523D01*
X021383Y009682D02*
X021782Y009682D01*
X021782Y009840D02*
X021383Y009840D01*
X021383Y009999D02*
X021782Y009999D01*
X021782Y010157D02*
X021417Y010157D01*
X021470Y010316D02*
X021782Y010316D01*
X021782Y010474D02*
X021523Y010474D01*
X021580Y010633D02*
X021782Y010633D01*
X021782Y010791D02*
X021580Y010791D01*
X021580Y010950D02*
X021782Y010950D01*
X021782Y011108D02*
X021580Y011108D01*
X021580Y011267D02*
X021782Y011267D01*
X021782Y011425D02*
X021580Y011425D01*
X021140Y011425D02*
X020989Y011425D01*
X020989Y011267D02*
X021140Y011267D01*
X021140Y011108D02*
X020989Y011108D01*
X020989Y010950D02*
X021140Y010950D01*
X021140Y010791D02*
X020989Y010791D01*
X020989Y010633D02*
X021112Y010633D01*
X021059Y010474D02*
X020874Y010474D01*
X021006Y010316D02*
X020715Y010316D01*
X020557Y010157D02*
X020943Y010157D01*
X020943Y009999D02*
X020399Y009999D01*
X020399Y009840D02*
X020943Y009840D01*
X020943Y009682D02*
X020399Y009682D01*
X020399Y009523D02*
X020943Y009523D01*
X020943Y009365D02*
X020399Y009365D01*
X020399Y009206D02*
X020943Y009206D01*
X020943Y009048D02*
X020399Y009048D01*
X020399Y008889D02*
X020943Y008889D01*
X020943Y008731D02*
X020399Y008731D01*
X020399Y008572D02*
X020943Y008572D01*
X020943Y008414D02*
X020399Y008414D01*
X020399Y008255D02*
X020943Y008255D01*
X020943Y008097D02*
X020399Y008097D01*
X020399Y007938D02*
X020943Y007938D01*
X020943Y007780D02*
X020399Y007780D01*
X020399Y007621D02*
X020943Y007621D01*
X020943Y007463D02*
X020399Y007463D01*
X020399Y007304D02*
X020943Y007304D01*
X020943Y007146D02*
X020399Y007146D01*
X020399Y006987D02*
X020943Y006987D01*
X020823Y006829D02*
X020399Y006829D01*
X020399Y006670D02*
X020723Y006670D01*
X020723Y006512D02*
X020258Y006512D01*
X020270Y006524D02*
X020270Y006524D01*
X020179Y006744D02*
X020179Y010090D01*
X020769Y010681D01*
X020769Y012983D01*
X020852Y013968D01*
X018852Y013952D01*
X018152Y013952D01*
X016702Y014702D01*
X016635Y014912D02*
X011727Y014912D01*
X011737Y014902D02*
X011613Y015025D01*
X011452Y015092D01*
X010677Y015092D01*
X010515Y015025D01*
X010391Y014902D01*
X010324Y014740D01*
X010324Y014565D01*
X010391Y014403D01*
X010515Y014279D01*
X010677Y014212D01*
X011452Y014212D01*
X011613Y014279D01*
X011737Y014403D01*
X011804Y014565D01*
X011804Y014740D01*
X011737Y014902D01*
X011798Y014754D02*
X016480Y014754D01*
X016505Y014595D02*
X011804Y014595D01*
X011751Y014437D02*
X016736Y014437D01*
X016838Y014122D02*
X016720Y014074D01*
X016669Y014022D01*
X014165Y014022D01*
X014141Y014037D01*
X014077Y014022D01*
X014010Y014022D01*
X013991Y014003D01*
X013963Y013996D01*
X013928Y013940D01*
X013882Y013893D01*
X013882Y013865D01*
X013457Y013186D01*
X013446Y013182D01*
X013409Y013110D01*
X013367Y013042D01*
X013369Y013030D01*
X013018Y012328D01*
X012604Y011872D01*
X011749Y011872D01*
X011737Y011902D01*
X011613Y012025D01*
X011452Y012092D01*
X010677Y012092D01*
X010515Y012025D01*
X010391Y011902D01*
X010324Y011740D01*
X010324Y011565D01*
X010391Y011403D01*
X010515Y011279D01*
X010677Y011212D01*
X011452Y011212D01*
X011613Y011279D01*
X011737Y011403D01*
X011749Y011432D01*
X012617Y011432D01*
X012621Y011428D01*
X012707Y011432D01*
X012793Y011432D01*
X012797Y011437D01*
X012803Y011437D01*
X012861Y011500D01*
X012922Y011561D01*
X012922Y011567D01*
X013326Y012012D01*
X013358Y012022D01*
X013385Y012077D01*
X013426Y012122D01*
X013424Y012155D01*
X013794Y012895D01*
X014224Y013582D01*
X016669Y013582D01*
X016720Y013531D01*
X016838Y013482D01*
X016965Y013482D01*
X017083Y013531D01*
X017173Y013621D01*
X017222Y013739D01*
X017222Y013866D01*
X017173Y013984D01*
X017083Y014074D01*
X016965Y014122D01*
X016838Y014122D01*
X016831Y014120D02*
X010579Y014120D01*
X010518Y014278D02*
X010260Y014278D01*
X010259Y014437D02*
X010377Y014437D01*
X010324Y014595D02*
X010258Y014595D01*
X010257Y014754D02*
X010330Y014754D01*
X010402Y014912D02*
X010256Y014912D01*
X010254Y015071D02*
X010624Y015071D01*
X010677Y015212D02*
X010515Y015279D01*
X010391Y015403D01*
X010324Y015565D01*
X010324Y015740D01*
X010391Y015902D01*
X010515Y016025D01*
X010677Y016092D01*
X011452Y016092D01*
X011613Y016025D01*
X011737Y015902D01*
X011749Y015872D01*
X012666Y015872D01*
X012718Y015890D01*
X012754Y015872D01*
X012793Y015872D01*
X012832Y015833D01*
X013454Y015522D01*
X017253Y015522D01*
X017292Y015540D01*
X017341Y015522D01*
X017393Y015522D01*
X017423Y015492D01*
X019059Y014889D01*
X019138Y014922D01*
X019265Y014922D01*
X019383Y014874D01*
X019473Y014784D01*
X019522Y014666D01*
X019522Y014539D01*
X019473Y014421D01*
X019383Y014331D01*
X019265Y014282D01*
X019138Y014282D01*
X019020Y014331D01*
X018930Y014421D01*
X018907Y014476D01*
X017262Y015082D01*
X013437Y015082D01*
X013385Y015065D01*
X013350Y015082D01*
X013310Y015082D01*
X013271Y015122D01*
X012650Y015432D01*
X011749Y015432D01*
X011737Y015403D01*
X011613Y015279D01*
X011452Y015212D01*
X010677Y015212D01*
X010636Y015229D02*
X010253Y015229D01*
X010252Y015388D02*
X010407Y015388D01*
X010332Y015546D02*
X010251Y015546D01*
X010250Y015705D02*
X010324Y015705D01*
X010375Y015863D02*
X010248Y015863D01*
X010247Y016022D02*
X010511Y016022D01*
X010580Y016208D02*
X010652Y016184D01*
X010726Y016172D01*
X011044Y016172D01*
X011044Y016632D01*
X011084Y016632D01*
X011084Y016172D01*
X011402Y016172D01*
X011477Y016184D01*
X011548Y016208D01*
X011616Y016242D01*
X011677Y016286D01*
X011730Y016340D01*
X011775Y016401D01*
X011809Y016468D01*
X011832Y016540D01*
X011844Y016615D01*
X011844Y016632D01*
X011084Y016632D01*
X011084Y016672D01*
X011844Y016672D01*
X011844Y016690D01*
X011832Y016765D01*
X011809Y016837D01*
X011775Y016904D01*
X011730Y016965D01*
X011677Y017018D01*
X011616Y017063D01*
X011548Y017097D01*
X011477Y017121D01*
X011402Y017132D01*
X011084Y017132D01*
X011084Y016672D01*
X011044Y016672D01*
X011044Y016632D01*
X010284Y016632D01*
X010284Y016615D01*
X010296Y016540D01*
X010319Y016468D01*
X010354Y016401D01*
X010398Y016340D01*
X010451Y016286D01*
X010513Y016242D01*
X010580Y016208D01*
X010677Y016180D02*
X010246Y016180D01*
X010245Y016339D02*
X010399Y016339D01*
X010310Y016497D02*
X010243Y016497D01*
X010242Y016656D02*
X011044Y016656D01*
X011044Y016672D02*
X010284Y016672D01*
X010284Y016690D01*
X010296Y016765D01*
X010319Y016837D01*
X010354Y016904D01*
X010398Y016965D01*
X010451Y017018D01*
X010513Y017063D01*
X010580Y017097D01*
X010652Y017121D01*
X010726Y017132D01*
X011044Y017132D01*
X011044Y016672D01*
X011084Y016656D02*
X016415Y016656D01*
X016240Y016814D02*
X011816Y016814D01*
X011723Y016973D02*
X016065Y016973D01*
X015889Y017131D02*
X011410Y017131D01*
X011084Y017131D02*
X011044Y017131D01*
X011044Y016973D02*
X011084Y016973D01*
X011084Y016814D02*
X011044Y016814D01*
X010719Y017131D02*
X010239Y017131D01*
X010240Y016973D02*
X010406Y016973D01*
X010312Y016814D02*
X010241Y016814D01*
X009801Y016814D02*
X001724Y016814D01*
X001724Y016656D02*
X009802Y016656D01*
X009803Y016497D02*
X001724Y016497D01*
X001724Y016339D02*
X009805Y016339D01*
X009806Y016180D02*
X001724Y016180D01*
X001724Y016022D02*
X009807Y016022D01*
X009808Y015863D02*
X001724Y015863D01*
X001724Y015705D02*
X009810Y015705D01*
X009811Y015546D02*
X001724Y015546D01*
X001724Y015388D02*
X009812Y015388D01*
X009813Y015229D02*
X001724Y015229D01*
X001724Y015071D02*
X009814Y015071D01*
X009816Y014912D02*
X001724Y014912D01*
X001724Y014754D02*
X009817Y014754D01*
X009818Y014595D02*
X001724Y014595D01*
X001724Y014437D02*
X009819Y014437D01*
X009820Y014278D02*
X001724Y014278D01*
X001724Y014120D02*
X009819Y014120D01*
X009855Y013961D02*
X001724Y013961D01*
X001724Y013803D02*
X010171Y013803D01*
X010324Y013644D02*
X001724Y013644D01*
X001833Y013486D02*
X010357Y013486D01*
X010467Y013327D02*
X001992Y013327D01*
X002071Y013169D02*
X013439Y013169D01*
X013359Y013010D02*
X011629Y013010D01*
X011613Y013025D02*
X011452Y013092D01*
X010677Y013092D01*
X010515Y013025D01*
X010391Y012902D01*
X010324Y012740D01*
X010324Y012565D01*
X010391Y012403D01*
X010515Y012279D01*
X010677Y012212D01*
X011452Y012212D01*
X011613Y012279D01*
X011737Y012403D01*
X011804Y012565D01*
X011804Y012740D01*
X011737Y012902D01*
X011613Y013025D01*
X011758Y012852D02*
X013280Y012852D01*
X013201Y012693D02*
X011804Y012693D01*
X011792Y012535D02*
X013122Y012535D01*
X013042Y012376D02*
X011710Y012376D01*
X011464Y012218D02*
X012918Y012218D01*
X012774Y012059D02*
X011532Y012059D01*
X011738Y011901D02*
X012630Y011901D01*
X012702Y011652D02*
X011064Y011652D01*
X010596Y012059D02*
X001724Y012059D01*
X001724Y011901D02*
X010391Y011901D01*
X010325Y011742D02*
X001724Y011742D01*
X001724Y011584D02*
X010324Y011584D01*
X010382Y011425D02*
X001724Y011425D01*
X001724Y011267D02*
X010546Y011267D01*
X010677Y011092D02*
X010515Y011025D01*
X010391Y010902D01*
X010324Y010740D01*
X010324Y010565D01*
X010391Y010403D01*
X010515Y010279D01*
X010677Y010212D01*
X011452Y010212D01*
X011613Y010279D01*
X011737Y010403D01*
X011804Y010565D01*
X011804Y010740D01*
X011737Y010902D01*
X011613Y011025D01*
X011452Y011092D01*
X010677Y011092D01*
X010439Y010950D02*
X001724Y010950D01*
X001724Y011108D02*
X020549Y011108D01*
X020549Y010950D02*
X011689Y010950D01*
X011783Y010791D02*
X020549Y010791D01*
X020410Y010633D02*
X011804Y010633D01*
X011767Y010474D02*
X020252Y010474D01*
X020093Y010316D02*
X011650Y010316D01*
X011613Y010025D02*
X011452Y010092D01*
X010677Y010092D01*
X010515Y010025D01*
X010391Y009902D01*
X010324Y009740D01*
X010324Y009565D01*
X010391Y009403D01*
X010515Y009279D01*
X010677Y009212D01*
X011452Y009212D01*
X011613Y009279D01*
X011737Y009403D01*
X011804Y009565D01*
X011804Y009740D01*
X011737Y009902D01*
X011613Y010025D01*
X011640Y009999D02*
X019959Y009999D01*
X019959Y010157D02*
X001724Y010157D01*
X001724Y009999D02*
X010488Y009999D01*
X010366Y009840D02*
X001724Y009840D01*
X001724Y009682D02*
X010324Y009682D01*
X010341Y009523D02*
X001724Y009523D01*
X001724Y009365D02*
X010430Y009365D01*
X010933Y008774D02*
X010843Y008684D01*
X010794Y008566D01*
X010794Y008439D01*
X010843Y008321D01*
X010933Y008231D01*
X011051Y008182D01*
X011178Y008182D01*
X011295Y008231D01*
X011348Y008283D01*
X012347Y008287D01*
X012955Y006920D01*
X012955Y006429D01*
X013015Y006369D01*
X012955Y006309D01*
X012955Y005760D01*
X013037Y005678D01*
X013547Y005678D01*
X013629Y005760D01*
X013629Y005814D01*
X013996Y005814D01*
X014252Y005810D01*
X014252Y005803D01*
X014369Y005687D01*
X014809Y005687D01*
X014926Y005803D01*
X014926Y006244D01*
X014815Y006354D01*
X014840Y006365D01*
X014879Y006391D01*
X014912Y006424D01*
X014939Y006463D01*
X014957Y006507D01*
X014966Y006553D01*
X014966Y006696D01*
X014607Y006696D01*
X014607Y006733D01*
X014571Y006733D01*
X014571Y007091D01*
X014428Y007091D01*
X014381Y007082D01*
X014338Y007064D01*
X014299Y007038D01*
X014265Y007004D01*
X014239Y006965D01*
X014221Y006922D01*
X014212Y006876D01*
X014212Y006733D01*
X014571Y006733D01*
X014571Y006696D01*
X014212Y006696D01*
X014212Y006553D01*
X014221Y006507D01*
X014239Y006463D01*
X014265Y006424D01*
X014299Y006391D01*
X014338Y006365D01*
X014363Y006354D01*
X014258Y006250D01*
X014091Y006253D01*
X014090Y006254D01*
X014000Y006254D01*
X013911Y006256D01*
X013910Y006254D01*
X013629Y006254D01*
X013629Y006309D01*
X013569Y006369D01*
X013629Y006429D01*
X013629Y006978D01*
X013547Y007060D01*
X013374Y007060D01*
X012710Y008554D01*
X012710Y008599D01*
X012674Y008634D01*
X012654Y008680D01*
X012612Y008696D01*
X012580Y008728D01*
X012530Y008727D01*
X012484Y008745D01*
X012443Y008727D01*
X011346Y008723D01*
X011295Y008774D01*
X011178Y008822D01*
X011051Y008822D01*
X010933Y008774D01*
X010890Y008731D02*
X001724Y008731D01*
X001724Y008889D02*
X019959Y008889D01*
X019959Y008731D02*
X012522Y008731D01*
X012451Y008731D02*
X011338Y008731D01*
X011114Y008502D02*
X012490Y008507D01*
X013292Y006704D01*
X012955Y006670D02*
X001827Y006670D01*
X001794Y006829D02*
X012955Y006829D01*
X012925Y006987D02*
X001771Y006987D01*
X001748Y007146D02*
X012855Y007146D01*
X012784Y007304D02*
X001725Y007304D01*
X001724Y007463D02*
X012714Y007463D01*
X012643Y007621D02*
X001724Y007621D01*
X001724Y007780D02*
X012573Y007780D01*
X012502Y007938D02*
X001724Y007938D01*
X001724Y008097D02*
X012432Y008097D01*
X012361Y008255D02*
X011319Y008255D01*
X010909Y008255D02*
X001724Y008255D01*
X001724Y008414D02*
X010805Y008414D01*
X010797Y008572D02*
X001724Y008572D01*
X001724Y009048D02*
X019959Y009048D01*
X019959Y009206D02*
X001724Y009206D01*
X001724Y010316D02*
X010479Y010316D01*
X010362Y010474D02*
X001724Y010474D01*
X001724Y010633D02*
X010324Y010633D01*
X010345Y010791D02*
X001724Y010791D01*
X001845Y012218D02*
X010664Y012218D01*
X010418Y012376D02*
X002003Y012376D01*
X002075Y012535D02*
X010337Y012535D01*
X010324Y012693D02*
X002137Y012693D01*
X002137Y012852D02*
X010370Y012852D01*
X010500Y013010D02*
X002136Y013010D01*
X001724Y016973D02*
X009800Y016973D01*
X009799Y017131D02*
X001724Y017131D01*
X001724Y017290D02*
X009797Y017290D01*
X009852Y017448D02*
X001724Y017448D01*
X001724Y017607D02*
X009998Y017607D01*
X010144Y017765D02*
X001724Y017765D01*
X001724Y017924D02*
X007894Y017924D01*
X007900Y017918D02*
X007900Y017918D01*
X007787Y018030D01*
X007787Y018030D01*
X007667Y018150D01*
X007667Y018150D01*
X007438Y018380D01*
X007435Y018383D01*
X007435Y018553D01*
X007440Y018558D01*
X007555Y018673D01*
X007555Y018673D01*
X007667Y018785D01*
X007667Y018785D01*
X007717Y018835D01*
X007787Y018905D01*
X007787Y018905D01*
X007787Y018905D01*
X007897Y018905D01*
X007957Y018905D01*
X007957Y018905D01*
X008025Y018905D01*
X008025Y019143D01*
X008145Y019263D01*
X008145Y019263D01*
X008180Y019298D01*
X008180Y019298D01*
X008235Y019353D01*
X008300Y019418D01*
X008300Y019418D01*
X008300Y019418D01*
X008407Y019418D01*
X008470Y019418D01*
X008470Y019418D01*
X008605Y019418D01*
X008460Y019563D01*
X008460Y019733D01*
X008580Y019853D01*
X008750Y019853D01*
X008947Y019656D01*
X008947Y019621D01*
X008982Y019621D01*
X008986Y019617D01*
X009034Y019569D01*
X009034Y019842D01*
X009037Y019845D01*
X009154Y019962D01*
X009154Y019962D01*
X009182Y019990D01*
X009112Y020060D01*
X009112Y020230D01*
X009232Y020350D01*
X009402Y020350D01*
X009547Y020205D01*
X009547Y020355D01*
X009549Y020357D01*
X009667Y020475D01*
X009667Y020475D01*
X009755Y020562D01*
X009822Y020630D01*
X010060Y020630D01*
X010060Y020868D01*
X010062Y020870D01*
X010180Y020988D01*
X010180Y020988D01*
X010412Y021220D01*
X010582Y021220D01*
X010702Y021100D01*
X010702Y020988D01*
X010815Y020988D01*
X010935Y020868D01*
X010935Y020543D01*
X010815Y020423D01*
X010582Y020190D01*
X010422Y020190D01*
X010422Y020030D01*
X010267Y019875D01*
X010147Y019755D01*
X009987Y019755D01*
X009987Y019595D01*
X009755Y019362D01*
X009634Y019242D01*
X009490Y019242D01*
X009490Y019098D01*
X009215Y018823D01*
X009055Y018823D01*
X009055Y018663D01*
X008900Y018508D01*
X008780Y018388D01*
X008542Y018388D01*
X008542Y018150D01*
X008190Y017798D01*
X008020Y017798D01*
X007900Y017918D01*
X007735Y018082D02*
X001735Y018082D01*
X001758Y018241D02*
X007577Y018241D01*
X007435Y018399D02*
X001780Y018399D01*
X001803Y018558D02*
X007440Y018558D01*
X007598Y018716D02*
X001837Y018716D01*
X001883Y018875D02*
X007757Y018875D01*
X008025Y019033D02*
X001930Y019033D01*
X001976Y019192D02*
X008074Y019192D01*
X008232Y019350D02*
X002023Y019350D01*
X002069Y019509D02*
X008515Y019509D01*
X008460Y019667D02*
X002128Y019667D01*
X002249Y019826D02*
X008552Y019826D01*
X008777Y019826D02*
X009034Y019826D01*
X009034Y019667D02*
X008936Y019667D01*
X009176Y019984D02*
X002441Y019984D01*
X002633Y020143D02*
X009112Y020143D01*
X009183Y020301D02*
X002824Y020301D01*
X003016Y020460D02*
X009652Y020460D01*
X009547Y020301D02*
X009451Y020301D01*
X009810Y020618D02*
X003208Y020618D01*
X003400Y020777D02*
X010060Y020777D01*
X010127Y020935D02*
X003591Y020935D01*
X003783Y021094D02*
X010286Y021094D01*
X010702Y021094D02*
X013514Y021094D01*
X013589Y021252D02*
X011644Y021252D01*
X011608Y021215D02*
X011728Y021335D01*
X011728Y021505D01*
X011657Y021575D01*
X011685Y021603D01*
X011685Y021603D01*
X011805Y021723D01*
X011805Y021873D01*
X011950Y021728D01*
X012120Y021728D01*
X012240Y021848D01*
X012240Y022018D01*
X012220Y022038D01*
X012430Y022038D01*
X012550Y022158D01*
X012550Y022328D01*
X012430Y022448D01*
X012318Y022448D01*
X012318Y022561D01*
X012198Y022681D01*
X012198Y022681D01*
X012043Y022836D01*
X011888Y022836D01*
X011827Y022836D01*
X011718Y022836D01*
X011718Y022836D01*
X011718Y022836D01*
X011647Y022765D01*
X011598Y022716D01*
X011598Y022716D01*
X011485Y022603D01*
X011371Y022489D01*
X011365Y022483D01*
X011365Y022323D01*
X011315Y022323D01*
X011205Y022323D01*
X011135Y022253D01*
X011085Y022203D01*
X010972Y022091D01*
X010858Y021976D01*
X010852Y021970D01*
X010852Y021801D01*
X010855Y021798D01*
X011163Y021490D01*
X011283Y021370D01*
X011438Y021215D01*
X011608Y021215D01*
X011401Y021252D02*
X003975Y021252D01*
X004166Y021411D02*
X011242Y021411D01*
X011283Y021370D02*
X011283Y021370D01*
X011163Y021490D02*
X011163Y021490D01*
X011084Y021569D02*
X004358Y021569D01*
X004550Y021728D02*
X010925Y021728D01*
X010852Y021886D02*
X004741Y021886D01*
X004933Y022045D02*
X010927Y022045D01*
X010972Y022091D02*
X010972Y022091D01*
X011085Y022203D02*
X011085Y022203D01*
X005125Y022203D01*
X005317Y022362D02*
X011365Y022362D01*
X011402Y022520D02*
X005508Y022520D01*
X005700Y022679D02*
X011561Y022679D01*
X011485Y022603D02*
X011485Y022603D01*
X011205Y022323D02*
X011205Y022323D01*
X011205Y022323D01*
X011805Y021728D02*
X013813Y021728D01*
X013888Y021886D02*
X012240Y021886D01*
X012437Y022045D02*
X013912Y022045D01*
X013912Y022203D02*
X012550Y022203D01*
X012517Y022362D02*
X013912Y022362D01*
X013912Y022520D02*
X012318Y022520D01*
X012200Y022679D02*
X013912Y022679D01*
X013951Y022837D02*
X005892Y022837D01*
X006083Y022996D02*
X014071Y022996D01*
X014632Y022996D02*
X015071Y022996D01*
X014951Y022837D02*
X014752Y022837D01*
X014792Y022679D02*
X014912Y022679D01*
X014912Y022520D02*
X014792Y022520D01*
X014792Y022362D02*
X014912Y022362D01*
X014912Y022203D02*
X014792Y022203D01*
X014792Y022045D02*
X014912Y022045D01*
X014945Y021886D02*
X014758Y021886D01*
X014648Y021728D02*
X015056Y021728D01*
X015143Y021569D02*
X014583Y021569D01*
X014585Y021411D02*
X015145Y021411D01*
X015148Y021252D02*
X014588Y021252D01*
X014590Y021094D02*
X015150Y021094D01*
X015152Y020935D02*
X014592Y020935D01*
X014595Y020777D02*
X015155Y020777D01*
X015157Y020618D02*
X014597Y020618D01*
X014599Y020460D02*
X015159Y020460D01*
X015162Y020301D02*
X014602Y020301D01*
X014604Y020143D02*
X015164Y020143D01*
X015166Y019984D02*
X014606Y019984D01*
X014609Y019826D02*
X015169Y019826D01*
X015171Y019667D02*
X014611Y019667D01*
X014613Y019509D02*
X015173Y019509D01*
X015171Y019350D02*
X014637Y019350D01*
X014693Y019192D02*
X015261Y019192D01*
X015385Y019033D02*
X014748Y019033D01*
X014803Y018875D02*
X015509Y018875D01*
X015634Y018716D02*
X014858Y018716D01*
X014969Y018558D02*
X015758Y018558D01*
X015883Y018399D02*
X015144Y018399D01*
X015319Y018241D02*
X016007Y018241D01*
X016131Y018082D02*
X015494Y018082D01*
X015669Y017924D02*
X016256Y017924D01*
X016380Y017765D02*
X015844Y017765D01*
X016020Y017607D02*
X016505Y017607D01*
X016629Y017448D02*
X016195Y017448D01*
X016370Y017290D02*
X016753Y017290D01*
X016878Y017131D02*
X016545Y017131D01*
X016720Y016973D02*
X019037Y016973D01*
X019001Y016814D02*
X019235Y016814D01*
X019224Y016656D02*
X019431Y016656D01*
X019469Y016497D02*
X019639Y016497D01*
X019714Y016339D02*
X019847Y016339D01*
X019959Y016180D02*
X020055Y016180D01*
X020204Y016022D02*
X020262Y016022D01*
X020449Y015863D02*
X020470Y015863D01*
X020782Y015902D02*
X019602Y016802D01*
X019102Y017202D01*
X017102Y017202D01*
X015395Y019376D01*
X015352Y022354D01*
X015792Y022362D02*
X015912Y022362D01*
X015912Y022520D02*
X015792Y022520D01*
X015792Y022679D02*
X015912Y022679D01*
X015951Y022837D02*
X015752Y022837D01*
X015632Y022996D02*
X016071Y022996D01*
X016632Y022996D02*
X017071Y022996D01*
X016951Y022837D02*
X016752Y022837D01*
X016792Y022679D02*
X016912Y022679D01*
X016912Y022520D02*
X016792Y022520D01*
X016792Y022362D02*
X016912Y022362D01*
X016912Y022203D02*
X016792Y022203D01*
X016792Y022045D02*
X016912Y022045D01*
X016945Y021886D02*
X016758Y021886D01*
X016648Y021728D02*
X017056Y021728D01*
X017109Y021569D02*
X016560Y021569D01*
X016557Y021411D02*
X017105Y021411D01*
X017100Y021252D02*
X016555Y021252D01*
X016553Y021094D02*
X017096Y021094D01*
X017091Y020935D02*
X016550Y020935D01*
X016548Y020777D02*
X017087Y020777D01*
X017082Y020618D02*
X016545Y020618D01*
X016543Y020460D02*
X017078Y020460D01*
X017073Y020301D02*
X016541Y020301D01*
X016538Y020143D02*
X017069Y020143D01*
X017064Y019984D02*
X016536Y019984D01*
X016533Y019826D02*
X017060Y019826D01*
X017055Y019667D02*
X016531Y019667D01*
X016529Y019509D02*
X017051Y019509D01*
X017041Y019350D02*
X016605Y019350D01*
X016728Y019192D02*
X017130Y019192D01*
X017247Y019033D02*
X016850Y019033D01*
X016973Y018875D02*
X017363Y018875D01*
X017479Y018716D02*
X017096Y018716D01*
X017218Y018558D02*
X017596Y018558D01*
X017712Y018399D02*
X017341Y018399D01*
X017463Y018241D02*
X017829Y018241D01*
X017945Y018082D02*
X017586Y018082D01*
X017709Y017924D02*
X019769Y017924D01*
X019750Y017765D02*
X019928Y017765D01*
X019908Y017607D02*
X020086Y017607D01*
X020067Y017448D02*
X020245Y017448D01*
X020225Y017290D02*
X020395Y017290D01*
X020384Y017131D02*
X020580Y017131D01*
X020542Y016973D02*
X020765Y016973D01*
X020701Y016814D02*
X020950Y016814D01*
X020859Y016656D02*
X021135Y016656D01*
X021302Y016802D02*
X020602Y017402D01*
X019802Y018202D01*
X018090Y018256D01*
X017267Y019376D01*
X017352Y022354D01*
X017792Y022362D02*
X017912Y022362D01*
X017912Y022520D02*
X017792Y022520D01*
X017792Y022679D02*
X017912Y022679D01*
X017951Y022837D02*
X017752Y022837D01*
X017632Y022996D02*
X018071Y022996D01*
X018632Y022996D02*
X019071Y022996D01*
X018951Y022837D02*
X018752Y022837D01*
X018792Y022679D02*
X018912Y022679D01*
X018912Y022520D02*
X018792Y022520D01*
X018792Y022362D02*
X018912Y022362D01*
X018912Y022203D02*
X018792Y022203D01*
X018792Y022045D02*
X018912Y022045D01*
X018945Y021886D02*
X018758Y021886D01*
X018648Y021728D02*
X019056Y021728D01*
X019128Y021569D02*
X018570Y021569D01*
X018570Y021411D02*
X019128Y021411D01*
X019127Y021252D02*
X018570Y021252D01*
X018569Y021094D02*
X019127Y021094D01*
X019126Y020935D02*
X018569Y020935D01*
X018569Y020777D02*
X019125Y020777D01*
X019125Y020618D02*
X018568Y020618D01*
X018568Y020460D02*
X019124Y020460D01*
X019123Y020301D02*
X018568Y020301D01*
X018567Y020143D02*
X019123Y020143D01*
X019342Y019878D02*
X019352Y022354D01*
X019792Y022362D02*
X020512Y022362D01*
X020512Y022520D02*
X019792Y022520D01*
X019792Y022679D02*
X020512Y022679D01*
X020551Y022837D02*
X019752Y022837D01*
X019632Y022996D02*
X020671Y022996D01*
X021232Y022996D02*
X021671Y022996D01*
X021551Y022837D02*
X021352Y022837D01*
X021392Y022679D02*
X021512Y022679D01*
X021512Y022520D02*
X021392Y022520D01*
X021392Y022362D02*
X021512Y022362D01*
X021512Y022203D02*
X021392Y022203D01*
X021392Y022045D02*
X021512Y022045D01*
X021545Y021886D02*
X021358Y021886D01*
X021248Y021728D02*
X021656Y021728D01*
X021732Y021569D02*
X021172Y021569D01*
X021172Y021411D02*
X021732Y021411D01*
X021732Y021252D02*
X021172Y021252D01*
X021172Y021094D02*
X021732Y021094D01*
X021732Y020935D02*
X021172Y020935D01*
X021172Y020777D02*
X021732Y020777D01*
X021732Y020618D02*
X021172Y020618D01*
X021172Y020460D02*
X021732Y020460D01*
X021732Y020301D02*
X021172Y020301D01*
X021172Y020143D02*
X021732Y020143D01*
X021732Y019984D02*
X021172Y019984D01*
X021172Y019826D02*
X021732Y019826D01*
X021732Y019667D02*
X021172Y019667D01*
X021172Y019509D02*
X021732Y019509D01*
X021743Y019350D02*
X021266Y019350D01*
X021425Y019192D02*
X021834Y019192D01*
X021911Y019033D02*
X021598Y019033D01*
X021785Y018875D02*
X021988Y018875D01*
X021972Y018716D02*
X022065Y018716D01*
X022292Y018752D02*
X021952Y019452D01*
X021952Y022354D01*
X022392Y022362D02*
X022512Y022362D01*
X022512Y022520D02*
X022392Y022520D01*
X022392Y022679D02*
X022512Y022679D01*
X022551Y022837D02*
X022352Y022837D01*
X022232Y022996D02*
X022671Y022996D01*
X023232Y022996D02*
X023671Y022996D01*
X023702Y023027D02*
X023579Y022903D01*
X023512Y022741D01*
X023512Y021966D01*
X023579Y021805D01*
X023702Y021681D01*
X023864Y021614D01*
X024039Y021614D01*
X024201Y021681D01*
X024325Y021805D01*
X024392Y021966D01*
X024392Y022741D01*
X024325Y022903D01*
X024201Y023027D01*
X024039Y023094D01*
X023864Y023094D01*
X023702Y023027D01*
X023551Y022837D02*
X023352Y022837D01*
X023392Y022679D02*
X023512Y022679D01*
X023512Y022520D02*
X023392Y022520D01*
X023392Y022362D02*
X023512Y022362D01*
X023512Y022203D02*
X023392Y022203D01*
X023392Y022045D02*
X023512Y022045D01*
X023545Y021886D02*
X023358Y021886D01*
X023248Y021728D02*
X023656Y021728D01*
X023168Y021569D02*
X033060Y021569D01*
X033223Y021411D02*
X023167Y021411D01*
X023166Y021252D02*
X033385Y021252D01*
X033547Y021094D02*
X023166Y021094D01*
X023165Y020935D02*
X033710Y020935D01*
X033849Y020799D02*
X033849Y020799D01*
X033867Y020777D02*
X023164Y020777D01*
X023163Y020618D02*
X033997Y020618D01*
X034126Y020460D02*
X023163Y020460D01*
X023163Y020301D02*
X034256Y020301D01*
X034385Y020143D02*
X023161Y020143D01*
X023158Y019984D02*
X034515Y019984D01*
X034584Y019900D02*
X034584Y019900D01*
X034632Y019826D02*
X023156Y019826D01*
X023153Y019667D02*
X034734Y019667D01*
X034836Y019509D02*
X023213Y019509D01*
X022932Y019572D02*
X023162Y019132D01*
X024502Y019132D01*
X025052Y018624D01*
X025504Y018202D01*
X025504Y014842D01*
X025189Y014842D02*
X025189Y017802D01*
X025102Y017902D01*
X024302Y018752D01*
X022292Y018752D01*
X022400Y019033D02*
X022950Y019033D01*
X022882Y019192D02*
X022323Y019192D01*
X022246Y019350D02*
X022799Y019350D01*
X022711Y019509D02*
X022172Y019509D01*
X022172Y019667D02*
X022713Y019667D01*
X022715Y019826D02*
X022172Y019826D01*
X022172Y019984D02*
X022718Y019984D01*
X022720Y020143D02*
X022172Y020143D01*
X022172Y020301D02*
X022722Y020301D01*
X022723Y020460D02*
X022172Y020460D01*
X022172Y020618D02*
X022723Y020618D01*
X022724Y020777D02*
X022172Y020777D01*
X022172Y020935D02*
X022725Y020935D01*
X022726Y021094D02*
X022172Y021094D01*
X022172Y021252D02*
X022726Y021252D01*
X022727Y021411D02*
X022172Y021411D01*
X022172Y021569D02*
X022728Y021569D01*
X022656Y021728D02*
X022248Y021728D01*
X022358Y021886D02*
X022545Y021886D01*
X022512Y022045D02*
X022392Y022045D01*
X022392Y022203D02*
X022512Y022203D01*
X022952Y022354D02*
X022942Y020215D01*
X022932Y019572D01*
X022002Y018402D02*
X021352Y018953D01*
X020952Y019352D01*
X020952Y022354D01*
X020512Y022203D02*
X019792Y022203D01*
X019792Y022045D02*
X020512Y022045D01*
X020545Y021886D02*
X019758Y021886D01*
X019648Y021728D02*
X020656Y021728D01*
X020732Y021569D02*
X019568Y021569D01*
X019568Y021411D02*
X020732Y021411D01*
X020732Y021252D02*
X019567Y021252D01*
X019567Y021094D02*
X020732Y021094D01*
X020732Y020935D02*
X019566Y020935D01*
X019565Y020777D02*
X020732Y020777D01*
X020732Y020618D02*
X019565Y020618D01*
X019564Y020460D02*
X020732Y020460D01*
X020732Y020301D02*
X019563Y020301D01*
X019563Y020143D02*
X020732Y020143D01*
X020732Y019984D02*
X019562Y019984D01*
X019616Y019826D02*
X020732Y019826D01*
X020732Y019667D02*
X019697Y019667D01*
X019779Y019509D02*
X020732Y019509D01*
X020732Y019350D02*
X020704Y019350D01*
X020484Y019273D02*
X019652Y019273D01*
X019342Y019878D01*
X019203Y019667D02*
X018567Y019667D01*
X018566Y019509D02*
X019284Y019509D01*
X019365Y019350D02*
X018651Y019350D01*
X018780Y019192D02*
X019432Y019192D01*
X018910Y019033D02*
X020381Y019033D01*
X020489Y018875D02*
X020140Y018875D01*
X020002Y018702D02*
X018895Y018702D01*
X018346Y019376D01*
X018352Y022354D01*
X017912Y022203D02*
X017792Y022203D01*
X017792Y022045D02*
X017912Y022045D01*
X017945Y021886D02*
X017758Y021886D01*
X017648Y021728D02*
X018056Y021728D01*
X018130Y021569D02*
X017549Y021569D01*
X017545Y021411D02*
X018130Y021411D01*
X018130Y021252D02*
X017540Y021252D01*
X017536Y021094D02*
X018129Y021094D01*
X018129Y020935D02*
X017532Y020935D01*
X017527Y020777D02*
X018129Y020777D01*
X018128Y020618D02*
X017523Y020618D01*
X017518Y020460D02*
X018128Y020460D01*
X018128Y020301D02*
X017514Y020301D01*
X017509Y020143D02*
X018127Y020143D01*
X018127Y019984D02*
X017505Y019984D01*
X017500Y019826D02*
X018127Y019826D01*
X018127Y019667D02*
X017496Y019667D01*
X017491Y019509D02*
X018126Y019509D01*
X018122Y019350D02*
X017560Y019350D01*
X017676Y019192D02*
X018213Y019192D01*
X018342Y019033D02*
X017793Y019033D01*
X017909Y018875D02*
X018471Y018875D01*
X018600Y018716D02*
X018025Y018716D01*
X018142Y018558D02*
X018729Y018558D01*
X019502Y017702D02*
X017602Y017702D01*
X016307Y019376D01*
X016352Y022354D01*
X015912Y022203D02*
X015792Y022203D01*
X015792Y022045D02*
X015912Y022045D01*
X015945Y021886D02*
X015758Y021886D01*
X015648Y021728D02*
X016056Y021728D01*
X016120Y021569D02*
X015583Y021569D01*
X015585Y021411D02*
X016117Y021411D01*
X016115Y021252D02*
X015588Y021252D01*
X015590Y021094D02*
X016113Y021094D01*
X016110Y020935D02*
X015592Y020935D01*
X015595Y020777D02*
X016108Y020777D01*
X016105Y020618D02*
X015597Y020618D01*
X015599Y020460D02*
X016103Y020460D01*
X016101Y020301D02*
X015602Y020301D01*
X015604Y020143D02*
X016098Y020143D01*
X016096Y019984D02*
X015606Y019984D01*
X015609Y019826D02*
X016093Y019826D01*
X016091Y019667D02*
X015611Y019667D01*
X015613Y019509D02*
X016089Y019509D01*
X016082Y019350D02*
X015696Y019350D01*
X015820Y019192D02*
X016171Y019192D01*
X016294Y019033D02*
X015944Y019033D01*
X016069Y018875D02*
X016417Y018875D01*
X016539Y018716D02*
X016193Y018716D01*
X016318Y018558D02*
X016662Y018558D01*
X016784Y018399D02*
X016442Y018399D01*
X016566Y018241D02*
X016907Y018241D01*
X017030Y018082D02*
X016691Y018082D01*
X016815Y017924D02*
X017152Y017924D01*
X017275Y017765D02*
X016940Y017765D01*
X017064Y017607D02*
X017386Y017607D01*
X017188Y017448D02*
X019445Y017448D01*
X019345Y017290D02*
X019603Y017290D01*
X019543Y017131D02*
X019762Y017131D01*
X019741Y016973D02*
X019920Y016973D01*
X019949Y016814D02*
X020079Y016814D01*
X020157Y016656D02*
X020237Y016656D01*
X020365Y016497D02*
X020396Y016497D01*
X020902Y016302D02*
X019502Y017702D01*
X020074Y018241D02*
X020152Y018241D01*
X020233Y018082D02*
X020311Y018082D01*
X020391Y017924D02*
X020469Y017924D01*
X020550Y017765D02*
X020628Y017765D01*
X020708Y017607D02*
X020786Y017607D01*
X020886Y017448D02*
X020945Y017448D01*
X021071Y017290D02*
X021103Y017290D01*
X021256Y017131D02*
X023370Y017131D01*
X023247Y016973D02*
X023610Y016973D01*
X023525Y016814D02*
X023840Y016814D01*
X023787Y016656D02*
X024024Y016656D01*
X024244Y016802D02*
X023662Y017204D01*
X023202Y017502D01*
X021202Y017502D01*
X020002Y018702D01*
X020299Y018716D02*
X020597Y018716D01*
X020705Y018558D02*
X020457Y018558D01*
X020616Y018399D02*
X020806Y018399D01*
X020774Y018241D02*
X020906Y018241D01*
X020933Y018082D02*
X021006Y018082D01*
X021091Y017924D02*
X021119Y017924D01*
X021402Y017902D02*
X021158Y018253D01*
X020897Y018667D01*
X020484Y019273D01*
X019994Y018399D02*
X019919Y018399D01*
X021402Y017902D02*
X023802Y017902D01*
X024559Y017125D01*
X024559Y014842D01*
X024244Y014842D02*
X024244Y016802D01*
X023929Y016302D02*
X023552Y016545D01*
X023102Y016802D01*
X021302Y016802D01*
X020902Y016302D02*
X023002Y016302D01*
X023614Y015902D01*
X023614Y014842D01*
X023299Y014842D02*
X023299Y015502D01*
X022972Y015724D01*
X022702Y015902D01*
X020782Y015902D01*
X020602Y015502D02*
X021302Y015502D01*
X021802Y014909D01*
X021802Y014602D01*
X022149Y014255D01*
X022712Y014255D01*
X022712Y013940D02*
X021452Y013940D01*
X020852Y013968D01*
X021161Y014278D02*
X021815Y014278D01*
X021656Y014437D02*
X021228Y014437D01*
X021228Y014595D02*
X021582Y014595D01*
X021582Y014754D02*
X021228Y014754D01*
X021219Y014912D02*
X021511Y014912D01*
X021378Y015071D02*
X018567Y015071D01*
X018137Y015229D02*
X021244Y015229D01*
X020833Y015034D02*
X020631Y015034D01*
X020585Y015021D01*
X020544Y014998D01*
X020511Y014964D01*
X020487Y014923D01*
X020475Y014877D01*
X020475Y014655D01*
X020833Y014655D01*
X020833Y015034D01*
X020833Y014912D02*
X020870Y014912D01*
X020870Y014754D02*
X020833Y014754D01*
X020475Y014754D02*
X019485Y014754D01*
X019522Y014595D02*
X020475Y014595D01*
X020475Y014437D02*
X019479Y014437D01*
X019202Y014602D02*
X017302Y015302D01*
X013402Y015302D01*
X012702Y015652D01*
X011064Y015652D01*
X011492Y015229D02*
X013056Y015229D01*
X012739Y015388D02*
X011722Y015388D01*
X011504Y015071D02*
X013373Y015071D01*
X013402Y015071D02*
X017294Y015071D01*
X017081Y014754D02*
X018155Y014754D01*
X018585Y014595D02*
X017388Y014595D01*
X017694Y014437D02*
X018924Y014437D01*
X018997Y014912D02*
X019113Y014912D01*
X019290Y014912D02*
X020484Y014912D01*
X020374Y015388D02*
X017707Y015388D01*
X017724Y014912D02*
X016775Y014912D01*
X017043Y014278D02*
X011610Y014278D01*
X011678Y013961D02*
X013941Y013961D01*
X013842Y013803D02*
X011778Y013803D01*
X011804Y013644D02*
X013743Y013644D01*
X013644Y013486D02*
X011771Y013486D01*
X011661Y013327D02*
X013545Y013327D01*
X013602Y013002D02*
X013202Y012202D01*
X012702Y011652D01*
X012936Y011584D02*
X020549Y011584D01*
X020549Y011742D02*
X013080Y011742D01*
X013225Y011901D02*
X020549Y011901D01*
X020549Y012059D02*
X015961Y012059D01*
X015933Y012031D02*
X016023Y012121D01*
X016072Y012239D01*
X016072Y012366D01*
X016023Y012484D01*
X015933Y012574D01*
X015815Y012622D01*
X015688Y012622D01*
X015685Y012621D01*
X015311Y012890D01*
X015311Y012893D01*
X015238Y012943D01*
X015166Y012994D01*
X015163Y012994D01*
X014902Y013171D01*
X014902Y013186D01*
X014853Y013304D01*
X014763Y013394D01*
X014645Y013442D01*
X014518Y013442D01*
X014400Y013394D01*
X014310Y013304D01*
X014262Y013186D01*
X014262Y013059D01*
X014310Y012941D01*
X014400Y012851D01*
X014518Y012802D01*
X014645Y012802D01*
X014655Y012806D01*
X014986Y012582D01*
X015432Y012261D01*
X015432Y012239D01*
X015480Y012121D01*
X015570Y012031D01*
X015688Y011982D01*
X015815Y011982D01*
X015933Y012031D01*
X016063Y012218D02*
X020549Y012218D01*
X020549Y012376D02*
X016067Y012376D01*
X015972Y012535D02*
X020549Y012535D01*
X020549Y012693D02*
X015585Y012693D01*
X015364Y012852D02*
X020549Y012852D01*
X020549Y013010D02*
X015138Y013010D01*
X015112Y012762D02*
X015752Y012302D01*
X015542Y012059D02*
X013376Y012059D01*
X013455Y012218D02*
X015440Y012218D01*
X015272Y012376D02*
X013534Y012376D01*
X013614Y012535D02*
X015051Y012535D01*
X015112Y012762D02*
X014582Y013122D01*
X014282Y013010D02*
X013866Y013010D01*
X013772Y012852D02*
X014400Y012852D01*
X014822Y012693D02*
X013693Y012693D01*
X013602Y013002D02*
X014102Y013802D01*
X016902Y013802D01*
X017222Y013803D02*
X017962Y013803D01*
X017656Y013961D02*
X017182Y013961D01*
X017349Y014120D02*
X016972Y014120D01*
X017182Y013644D02*
X020564Y013644D01*
X020591Y013486D02*
X016973Y013486D01*
X016830Y013486D02*
X014163Y013486D01*
X014064Y013327D02*
X014334Y013327D01*
X014262Y013169D02*
X013965Y013169D01*
X014829Y013327D02*
X020577Y013327D01*
X020564Y013169D02*
X014905Y013169D01*
X011746Y011425D02*
X020549Y011425D01*
X020549Y011267D02*
X011583Y011267D01*
X011763Y009840D02*
X019959Y009840D01*
X019959Y009682D02*
X011804Y009682D01*
X011787Y009523D02*
X019959Y009523D01*
X019959Y009365D02*
X011699Y009365D01*
X012710Y008572D02*
X019959Y008572D01*
X019959Y008414D02*
X012772Y008414D01*
X012843Y008255D02*
X019959Y008255D01*
X019959Y008097D02*
X012913Y008097D01*
X012984Y007938D02*
X019959Y007938D01*
X019959Y007780D02*
X013054Y007780D01*
X013125Y007621D02*
X019959Y007621D01*
X019959Y007463D02*
X013195Y007463D01*
X013266Y007304D02*
X019959Y007304D01*
X019959Y007146D02*
X013336Y007146D01*
X013620Y006987D02*
X014254Y006987D01*
X014212Y006829D02*
X013629Y006829D01*
X013629Y006670D02*
X014212Y006670D01*
X014220Y006512D02*
X013629Y006512D01*
X013585Y006353D02*
X014361Y006353D01*
X014589Y006024D02*
X013998Y006034D01*
X013292Y006034D01*
X012955Y006036D02*
X002013Y006036D01*
X001966Y006195D02*
X012955Y006195D01*
X013000Y006353D02*
X001920Y006353D01*
X001873Y006512D02*
X012955Y006512D01*
X012955Y005878D02*
X002082Y005878D01*
X002190Y005719D02*
X012996Y005719D01*
X013588Y005719D02*
X014336Y005719D01*
X014842Y005719D02*
X017118Y005719D01*
X017387Y005878D02*
X014926Y005878D01*
X014926Y006036D02*
X019160Y006036D01*
X019319Y006195D02*
X014926Y006195D01*
X014817Y006353D02*
X019477Y006353D01*
X019636Y006512D02*
X014958Y006512D01*
X014966Y006670D02*
X019794Y006670D01*
X019953Y006829D02*
X014966Y006829D01*
X014966Y006876D02*
X014957Y006922D01*
X014939Y006965D01*
X014912Y007004D01*
X014879Y007038D01*
X014840Y007064D01*
X014797Y007082D01*
X014750Y007091D01*
X014607Y007091D01*
X014607Y006733D01*
X014966Y006733D01*
X014966Y006876D01*
X014924Y006987D02*
X019959Y006987D01*
X020179Y006744D02*
X019194Y005759D01*
X017620Y005759D01*
X016952Y005366D01*
X016952Y003354D01*
X016512Y003183D02*
X016392Y003183D01*
X016392Y003025D02*
X016512Y003025D01*
X016553Y002866D02*
X016350Y002866D01*
X016227Y002708D02*
X016676Y002708D01*
X017952Y003354D02*
X018345Y002216D01*
X018463Y002549D02*
X020604Y002549D01*
X020676Y002708D02*
X020284Y002708D01*
X020264Y002688D02*
X020318Y002741D01*
X020362Y002802D01*
X020396Y002870D01*
X020420Y002942D01*
X020432Y003016D01*
X020432Y003334D01*
X019972Y003334D01*
X019972Y003374D01*
X020432Y003374D01*
X020432Y003692D01*
X020420Y003766D01*
X020396Y003838D01*
X020362Y003906D01*
X020318Y003967D01*
X020264Y004020D01*
X020203Y004064D01*
X020136Y004099D01*
X020064Y004122D01*
X019989Y004134D01*
X019972Y004134D01*
X019972Y003374D01*
X019932Y003374D01*
X019932Y004134D01*
X019914Y004134D01*
X019839Y004122D01*
X019767Y004099D01*
X019700Y004064D01*
X019639Y004020D01*
X019585Y003967D01*
X019541Y003906D01*
X019507Y003838D01*
X019483Y003766D01*
X019472Y003692D01*
X019472Y003374D01*
X019932Y003374D01*
X019932Y003334D01*
X019972Y003334D01*
X019972Y002574D01*
X019989Y002574D01*
X020064Y002586D01*
X020136Y002609D01*
X020203Y002643D01*
X020264Y002688D01*
X020395Y002866D02*
X020553Y002866D01*
X020512Y003025D02*
X020432Y003025D01*
X020432Y003183D02*
X020512Y003183D01*
X020512Y003342D02*
X019972Y003342D01*
X019932Y003342D02*
X018972Y003342D01*
X018972Y003334D02*
X018972Y003374D01*
X019432Y003374D01*
X019432Y003692D01*
X019420Y003766D01*
X019396Y003838D01*
X019362Y003906D01*
X019318Y003967D01*
X019264Y004020D01*
X019203Y004064D01*
X019136Y004099D01*
X019064Y004122D01*
X018989Y004134D01*
X018972Y004134D01*
X018972Y003374D01*
X018932Y003374D01*
X018932Y004134D01*
X018914Y004134D01*
X018839Y004122D01*
X018767Y004099D01*
X018700Y004064D01*
X018639Y004020D01*
X018585Y003967D01*
X018541Y003906D01*
X018507Y003838D01*
X018483Y003766D01*
X018472Y003692D01*
X018472Y003374D01*
X018932Y003374D01*
X018932Y003334D01*
X018972Y003334D01*
X019432Y003334D01*
X019432Y003016D01*
X019420Y002942D01*
X019396Y002870D01*
X019362Y002802D01*
X019318Y002741D01*
X019264Y002688D01*
X019203Y002643D01*
X019136Y002609D01*
X019064Y002586D01*
X018989Y002574D01*
X018972Y002574D01*
X018972Y003334D01*
X018932Y003334D02*
X018932Y002574D01*
X018914Y002574D01*
X018839Y002586D01*
X018767Y002609D01*
X018700Y002643D01*
X018639Y002688D01*
X018585Y002741D01*
X018541Y002802D01*
X018507Y002870D01*
X018483Y002942D01*
X018472Y003016D01*
X018472Y003334D01*
X018932Y003334D01*
X018932Y003342D02*
X018392Y003342D01*
X018392Y003500D02*
X018472Y003500D01*
X018472Y003659D02*
X018392Y003659D01*
X018360Y003817D02*
X018500Y003817D01*
X018594Y003976D02*
X018252Y003976D01*
X018932Y003976D02*
X018972Y003976D01*
X018972Y003817D02*
X018932Y003817D01*
X018932Y003659D02*
X018972Y003659D01*
X018972Y003500D02*
X018932Y003500D01*
X018932Y003183D02*
X018972Y003183D01*
X018972Y003025D02*
X018932Y003025D01*
X018932Y002866D02*
X018972Y002866D01*
X018972Y002708D02*
X018932Y002708D01*
X018619Y002708D02*
X018408Y002708D01*
X018353Y002866D02*
X018509Y002866D01*
X018472Y003025D02*
X018392Y003025D01*
X018392Y003183D02*
X018472Y003183D01*
X019284Y002708D02*
X019619Y002708D01*
X019639Y002688D02*
X019700Y002643D01*
X019767Y002609D01*
X019839Y002586D01*
X019914Y002574D01*
X019932Y002574D01*
X019932Y003334D01*
X019472Y003334D01*
X019472Y003016D01*
X019483Y002942D01*
X019507Y002870D01*
X019541Y002802D01*
X019585Y002741D01*
X019639Y002688D01*
X019509Y002866D02*
X019395Y002866D01*
X019432Y003025D02*
X019472Y003025D01*
X019472Y003183D02*
X019432Y003183D01*
X019432Y003500D02*
X019472Y003500D01*
X019472Y003659D02*
X019432Y003659D01*
X019403Y003817D02*
X019500Y003817D01*
X019594Y003976D02*
X019309Y003976D01*
X019932Y003976D02*
X019972Y003976D01*
X019972Y003817D02*
X019932Y003817D01*
X019932Y003659D02*
X019972Y003659D01*
X019972Y003500D02*
X019932Y003500D01*
X019932Y003183D02*
X019972Y003183D01*
X019972Y003025D02*
X019932Y003025D01*
X019932Y002866D02*
X019972Y002866D01*
X019972Y002708D02*
X019932Y002708D01*
X020516Y002074D02*
X029537Y002074D01*
X030016Y002232D02*
X021114Y002232D01*
X021199Y002391D02*
X030341Y002391D01*
X030634Y002549D02*
X021186Y002549D01*
X021227Y002708D02*
X022676Y002708D01*
X022553Y002866D02*
X021350Y002866D01*
X021392Y003025D02*
X022512Y003025D01*
X022512Y003183D02*
X021392Y003183D01*
X020512Y003500D02*
X020432Y003500D01*
X020432Y003659D02*
X020512Y003659D01*
X020543Y003817D02*
X020403Y003817D01*
X020309Y003976D02*
X020651Y003976D01*
X022626Y005085D02*
X017172Y005085D01*
X017178Y005244D02*
X022532Y005244D01*
X022438Y005402D02*
X017447Y005402D01*
X019307Y005561D02*
X022343Y005561D01*
X022249Y005719D02*
X019465Y005719D01*
X019414Y005668D02*
X019414Y005668D01*
X019624Y005878D02*
X022155Y005878D01*
X022060Y006036D02*
X019782Y006036D01*
X019941Y006195D02*
X020893Y006195D01*
X020734Y006353D02*
X020099Y006353D01*
X021433Y006195D02*
X021966Y006195D01*
X021872Y006353D02*
X021592Y006353D01*
X025063Y008414D02*
X025460Y008414D01*
X025691Y008515D02*
X026281Y008122D01*
X026412Y008414D02*
X027367Y008414D01*
X027250Y008572D02*
X026002Y008572D01*
X025770Y008731D02*
X027134Y008731D01*
X027017Y008889D02*
X025782Y008889D01*
X025622Y008889D02*
X025559Y008889D01*
X025419Y009048D02*
X025348Y009048D01*
X025381Y009206D02*
X025136Y009206D01*
X025217Y009365D02*
X025007Y009365D01*
X025053Y009523D02*
X024915Y009523D01*
X024889Y009682D02*
X024822Y009682D01*
X024559Y009696D02*
X024903Y009106D01*
X025691Y008515D01*
X025684Y008255D02*
X025253Y008255D01*
X025442Y008097D02*
X025922Y008097D01*
X026012Y007938D02*
X025631Y007938D01*
X025820Y007780D02*
X027830Y007780D01*
X027717Y007938D02*
X026550Y007938D01*
X026601Y008097D02*
X027601Y008097D01*
X027484Y008255D02*
X026572Y008255D01*
X027563Y008889D02*
X029205Y008889D01*
X029205Y008874D02*
X029218Y008829D01*
X029241Y008788D01*
X029275Y008754D01*
X029316Y008730D01*
X029362Y008718D01*
X029623Y008718D01*
X029623Y009175D01*
X029205Y009175D01*
X029205Y008874D01*
X029205Y009048D02*
X027447Y009048D01*
X027330Y009206D02*
X029623Y009206D01*
X029623Y009175D02*
X029623Y009330D01*
X029623Y009787D01*
X029362Y009787D01*
X029316Y009774D01*
X029275Y009751D01*
X029241Y009717D01*
X029218Y009676D01*
X029205Y009630D01*
X029205Y009330D01*
X029623Y009330D01*
X029778Y009330D01*
X029778Y009787D01*
X030039Y009787D01*
X030085Y009774D01*
X030126Y009751D01*
X030159Y009717D01*
X030183Y009676D01*
X030195Y009630D01*
X030195Y009330D01*
X029778Y009330D01*
X029778Y009175D01*
X030195Y009175D01*
X030195Y008874D01*
X030183Y008829D01*
X030159Y008788D01*
X030126Y008754D01*
X030085Y008730D01*
X030039Y008718D01*
X029778Y008718D01*
X029778Y009175D01*
X029623Y009175D01*
X029623Y009048D02*
X029778Y009048D01*
X029778Y009206D02*
X030348Y009206D01*
X030348Y009048D02*
X030195Y009048D01*
X030195Y008889D02*
X030348Y008889D01*
X030348Y008840D02*
X030430Y008758D01*
X030583Y008758D01*
X030583Y008189D01*
X030312Y008189D01*
X030252Y008129D01*
X030191Y008189D01*
X029642Y008189D01*
X029560Y008107D01*
X029560Y008082D01*
X028130Y008119D01*
X026422Y010439D01*
X026422Y010566D01*
X026373Y010684D01*
X026283Y010774D01*
X026165Y010822D01*
X026038Y010822D01*
X026014Y010812D01*
X025806Y010937D01*
X025754Y011281D01*
X025754Y011770D01*
X025694Y011830D01*
X025754Y011830D01*
X025784Y011800D01*
X026400Y011800D01*
X026482Y011882D01*
X026482Y012145D01*
X028410Y012145D01*
X028410Y011748D01*
X028492Y011666D01*
X029041Y011666D01*
X029102Y011726D01*
X029162Y011666D01*
X029349Y011666D01*
X029525Y011284D01*
X029533Y011247D01*
X029480Y011247D01*
X029398Y011165D01*
X029398Y010340D01*
X029480Y010258D01*
X030226Y010258D01*
X030308Y010340D01*
X030308Y011165D01*
X030226Y011247D01*
X029981Y011247D01*
X029964Y011334D01*
X029974Y011362D01*
X029947Y011420D01*
X029935Y011484D01*
X029910Y011500D01*
X029823Y011689D01*
X030209Y011601D01*
X030231Y011580D01*
X030295Y011582D01*
X030357Y011568D01*
X030383Y011584D01*
X030615Y011590D01*
X030615Y011543D01*
X030697Y011461D01*
X031206Y011461D01*
X031288Y011543D01*
X031288Y011598D01*
X031904Y011598D01*
X031905Y011597D01*
X031995Y011598D01*
X032084Y011598D01*
X032086Y011599D01*
X032087Y011599D01*
X032150Y011663D01*
X032213Y011727D01*
X032213Y011728D01*
X033306Y012847D01*
X033408Y012941D01*
X034060Y012988D01*
X034075Y012952D01*
X034219Y012808D01*
X034246Y012797D01*
X034219Y012786D01*
X034075Y012642D01*
X034049Y012578D01*
X033583Y012581D01*
X033495Y012584D01*
X033492Y012582D01*
X033489Y012582D01*
X033426Y012520D01*
X032360Y011518D01*
X032355Y011518D01*
X032294Y011456D01*
X032230Y011396D01*
X032230Y011392D01*
X032227Y011388D01*
X032227Y011301D01*
X032225Y011214D01*
X032228Y011211D01*
X032229Y011044D01*
X032197Y011044D01*
X032115Y010962D01*
X032115Y010908D01*
X031450Y010910D01*
X031407Y010928D01*
X031363Y010910D01*
X031315Y010910D01*
X031282Y010877D01*
X031238Y010859D01*
X031220Y010815D01*
X031186Y010782D01*
X031186Y010735D01*
X030771Y009747D01*
X030430Y009747D01*
X030348Y009665D01*
X030348Y008840D01*
X030583Y008731D02*
X030085Y008731D01*
X029778Y008731D02*
X029623Y008731D01*
X029623Y008889D02*
X029778Y008889D01*
X029315Y008731D02*
X027680Y008731D01*
X027797Y008572D02*
X030583Y008572D01*
X030583Y008414D02*
X027914Y008414D01*
X028030Y008255D02*
X030583Y008255D01*
X031023Y008255D02*
X032878Y008255D01*
X032720Y008097D02*
X031023Y008097D01*
X031023Y007938D02*
X032581Y007938D01*
X032596Y007972D02*
X032556Y007877D01*
X032556Y007773D01*
X032568Y007744D01*
X032596Y007678D01*
X032668Y007606D01*
X033048Y007225D01*
X033052Y007217D01*
X033084Y007189D01*
X033114Y007159D01*
X033123Y007155D01*
X033130Y007149D01*
X033171Y007135D01*
X033210Y007119D01*
X033220Y007119D01*
X033229Y007116D01*
X033271Y007119D01*
X033299Y007119D01*
X033299Y007030D01*
X033339Y006935D01*
X033412Y006861D01*
X033507Y006822D01*
X033908Y006822D01*
X034004Y006861D01*
X034077Y006935D01*
X034374Y007232D01*
X034413Y007327D01*
X034413Y007728D01*
X034374Y007824D01*
X034301Y007897D01*
X034004Y008194D01*
X033908Y008234D01*
X033592Y008234D01*
X033631Y008272D01*
X033670Y008368D01*
X033670Y008471D01*
X033631Y008567D01*
X033558Y008640D01*
X033462Y008679D01*
X033359Y008679D01*
X033263Y008640D01*
X032669Y008045D01*
X032596Y007972D01*
X032556Y007780D02*
X031023Y007780D01*
X030943Y007621D02*
X032652Y007621D01*
X032811Y007463D02*
X026199Y007463D01*
X026009Y007621D02*
X029560Y007621D01*
X029917Y007852D02*
X028017Y007902D01*
X026102Y010502D01*
X025604Y010802D01*
X025504Y011462D01*
X025754Y011425D02*
X029460Y011425D01*
X029529Y011267D02*
X029148Y011267D01*
X029135Y011274D02*
X029089Y011287D01*
X028828Y011287D01*
X028828Y010830D01*
X028673Y010830D01*
X028673Y011287D01*
X028412Y011287D01*
X028366Y011274D01*
X028325Y011251D01*
X028291Y011217D01*
X028268Y011176D01*
X028255Y011130D01*
X028255Y010830D01*
X028673Y010830D01*
X028673Y010675D01*
X028255Y010675D01*
X028255Y010374D01*
X028268Y010329D01*
X028291Y010288D01*
X028325Y010254D01*
X028366Y010230D01*
X028412Y010218D01*
X028673Y010218D01*
X028673Y010675D01*
X028828Y010675D01*
X028828Y010830D01*
X029245Y010830D01*
X029245Y011130D01*
X029233Y011176D01*
X029209Y011217D01*
X029176Y011251D01*
X029135Y011274D01*
X029245Y011108D02*
X029398Y011108D01*
X029398Y010950D02*
X029245Y010950D01*
X029398Y010791D02*
X028828Y010791D01*
X028828Y010675D02*
X029245Y010675D01*
X029245Y010374D01*
X029233Y010329D01*
X029209Y010288D01*
X029176Y010254D01*
X029135Y010230D01*
X029089Y010218D01*
X028828Y010218D01*
X028828Y010675D01*
X028828Y010633D02*
X028673Y010633D01*
X028673Y010791D02*
X026241Y010791D01*
X026394Y010633D02*
X028255Y010633D01*
X028255Y010474D02*
X026422Y010474D01*
X026512Y010316D02*
X028275Y010316D01*
X028673Y010316D02*
X028828Y010316D01*
X028828Y010474D02*
X028673Y010474D01*
X029245Y010474D02*
X029398Y010474D01*
X029398Y010633D02*
X029245Y010633D01*
X028828Y010950D02*
X028673Y010950D01*
X028673Y011108D02*
X028828Y011108D01*
X028828Y011267D02*
X028673Y011267D01*
X028352Y011267D02*
X025756Y011267D01*
X025780Y011108D02*
X028255Y011108D01*
X028255Y010950D02*
X025804Y010950D01*
X025459Y010633D02*
X025409Y010633D01*
X025532Y010474D02*
X025722Y010474D01*
X025694Y010316D02*
X025836Y010316D01*
X025999Y010157D02*
X026083Y010157D01*
X026108Y009999D02*
X026199Y009999D01*
X026122Y009840D02*
X026316Y009840D01*
X026433Y009682D02*
X026033Y009682D01*
X025802Y009902D02*
X025189Y010502D01*
X025189Y011462D01*
X024874Y011462D02*
X024874Y010002D01*
X025702Y009202D01*
X026022Y009206D02*
X026783Y009206D01*
X026666Y009365D02*
X025981Y009365D01*
X025984Y009048D02*
X026900Y009048D01*
X027213Y009365D02*
X029205Y009365D01*
X029205Y009523D02*
X027096Y009523D01*
X026979Y009682D02*
X029221Y009682D01*
X029623Y009682D02*
X029778Y009682D01*
X029778Y009523D02*
X029623Y009523D01*
X029623Y009365D02*
X029778Y009365D01*
X030195Y009365D02*
X030348Y009365D01*
X030348Y009523D02*
X030195Y009523D01*
X030180Y009682D02*
X030365Y009682D01*
X030811Y009840D02*
X026863Y009840D01*
X026746Y009999D02*
X030877Y009999D01*
X030944Y010157D02*
X026629Y010157D01*
X025570Y009682D02*
X025522Y009682D01*
X025482Y009840D02*
X025358Y009840D01*
X025389Y009999D02*
X025194Y009999D01*
X025227Y010157D02*
X025094Y010157D01*
X024559Y009696D02*
X024559Y011462D01*
X024902Y012102D02*
X025202Y012050D01*
X026092Y012050D01*
X026092Y012365D02*
X028767Y012365D01*
X028767Y012002D01*
X028410Y012059D02*
X026482Y012059D01*
X026482Y011901D02*
X028410Y011901D01*
X028416Y011742D02*
X025754Y011742D01*
X025754Y011584D02*
X029387Y011584D01*
X029736Y011352D02*
X029853Y010752D01*
X030308Y010791D02*
X031195Y010791D01*
X031143Y010633D02*
X030308Y010633D01*
X030308Y010474D02*
X031077Y010474D01*
X031010Y010316D02*
X030283Y010316D01*
X029422Y010316D02*
X029226Y010316D01*
X030308Y010950D02*
X032115Y010950D01*
X032229Y011108D02*
X030308Y011108D01*
X029977Y011267D02*
X032226Y011267D01*
X032261Y011425D02*
X029946Y011425D01*
X029872Y011584D02*
X030228Y011584D01*
X030382Y011584D02*
X030615Y011584D01*
X030317Y011802D02*
X029436Y012002D01*
X029736Y011352D01*
X030317Y011802D02*
X030952Y011818D01*
X031993Y011818D01*
X033153Y013006D01*
X033317Y013155D01*
X034507Y013241D01*
X034964Y013010D02*
X036078Y013010D01*
X036074Y012852D02*
X034840Y012852D01*
X034889Y012693D02*
X036070Y012693D01*
X036066Y012535D02*
X034984Y012535D01*
X035017Y012376D02*
X036062Y012376D01*
X036058Y012218D02*
X035746Y012218D01*
X035716Y012247D02*
X035571Y012308D01*
X035413Y012308D01*
X035267Y012247D01*
X035156Y012136D01*
X035095Y011990D01*
X035095Y011832D01*
X035156Y011686D01*
X035267Y011575D01*
X035413Y011514D01*
X035571Y011514D01*
X035716Y011575D01*
X035828Y011686D01*
X035888Y011832D01*
X035888Y011990D01*
X035828Y012136D01*
X035716Y012247D01*
X035860Y012059D02*
X036054Y012059D01*
X036050Y011901D02*
X035888Y011901D01*
X035851Y011742D02*
X036046Y011742D01*
X036042Y011584D02*
X035725Y011584D01*
X035654Y011267D02*
X036053Y011267D01*
X036038Y011425D02*
X034517Y011425D01*
X034497Y011425D02*
X032904Y011425D01*
X033072Y011584D02*
X033983Y011584D01*
X034062Y011742D02*
X033241Y011742D01*
X033410Y011901D02*
X034241Y011901D01*
X034080Y012059D02*
X033579Y012059D01*
X033579Y012361D02*
X032447Y011298D01*
X032452Y010687D01*
X031406Y010690D01*
X030803Y009252D01*
X030803Y007852D01*
X030586Y007852D01*
X031023Y008414D02*
X033037Y008414D01*
X033195Y008572D02*
X031023Y008572D01*
X031023Y008731D02*
X036063Y008731D01*
X036106Y008889D02*
X031258Y008889D01*
X031258Y009048D02*
X036149Y009048D01*
X036192Y009206D02*
X031258Y009206D01*
X031258Y009365D02*
X036234Y009365D01*
X036206Y009523D02*
X031258Y009523D01*
X031241Y009682D02*
X032120Y009682D01*
X032111Y009691D02*
X032144Y009657D01*
X032185Y009633D01*
X032231Y009621D01*
X032433Y009621D01*
X032433Y009999D01*
X032075Y009999D01*
X032075Y009777D01*
X032087Y009732D01*
X032111Y009691D01*
X032075Y009840D02*
X031288Y009840D01*
X031354Y009999D02*
X032075Y009999D01*
X032075Y010157D02*
X031421Y010157D01*
X031487Y010316D02*
X032094Y010316D01*
X032433Y009999D02*
X032470Y009999D01*
X032470Y009840D02*
X032433Y009840D01*
X032433Y009682D02*
X032470Y009682D01*
X032783Y009682D02*
X036156Y009682D01*
X036107Y009840D02*
X035847Y009840D01*
X036031Y009999D02*
X036116Y009999D01*
X035058Y009840D02*
X032828Y009840D01*
X032828Y009999D02*
X034874Y009999D01*
X034763Y010157D02*
X032828Y010157D01*
X032809Y010316D02*
X034698Y010316D01*
X034679Y010474D02*
X032788Y010474D01*
X032788Y010633D02*
X034679Y010633D01*
X034731Y010791D02*
X032788Y010791D01*
X032788Y010950D02*
X034218Y010950D01*
X034053Y011108D02*
X032669Y011108D01*
X032735Y011267D02*
X033979Y011267D01*
X034497Y011267D02*
X034517Y011267D01*
X034517Y011108D02*
X034497Y011108D01*
X034497Y010950D02*
X034517Y010950D01*
X035036Y011267D02*
X035251Y011267D01*
X035258Y011584D02*
X035032Y011584D01*
X034952Y011742D02*
X035132Y011742D01*
X035095Y011901D02*
X034774Y011901D01*
X034935Y012059D02*
X035124Y012059D01*
X035238Y012218D02*
X035003Y012218D01*
X034507Y012353D02*
X034399Y012356D01*
X033579Y012361D01*
X033441Y012535D02*
X033000Y012535D01*
X033155Y012693D02*
X034126Y012693D01*
X034175Y012852D02*
X033310Y012852D01*
X032850Y013010D02*
X029924Y013010D01*
X029994Y013107D02*
X030035Y013083D01*
X030081Y013071D01*
X030283Y013071D01*
X030283Y013449D01*
X029925Y013449D01*
X029925Y013227D01*
X029937Y013182D01*
X029961Y013141D01*
X029994Y013107D01*
X029945Y013169D02*
X029370Y013169D01*
X029152Y013002D02*
X030952Y012487D01*
X031288Y012535D02*
X032385Y012535D01*
X032231Y012376D02*
X031288Y012376D01*
X031288Y012218D02*
X032076Y012218D01*
X031921Y012059D02*
X031288Y012059D01*
X030675Y012152D02*
X030615Y012092D01*
X030615Y012030D01*
X030339Y012023D01*
X029793Y012147D01*
X029793Y012257D01*
X029711Y012339D01*
X029162Y012339D01*
X029102Y012279D01*
X029041Y012339D01*
X028987Y012339D01*
X028987Y012456D01*
X028858Y012585D01*
X026522Y012585D01*
X026522Y012680D01*
X026522Y012782D01*
X029121Y012782D01*
X030615Y012355D01*
X030615Y012212D01*
X030675Y012152D01*
X030615Y012218D02*
X029793Y012218D01*
X029986Y012535D02*
X028908Y012535D01*
X028987Y012376D02*
X030540Y012376D01*
X030615Y012059D02*
X030180Y012059D01*
X030477Y012852D02*
X032695Y012852D01*
X032540Y012693D02*
X031288Y012693D01*
X031242Y013111D02*
X031502Y013111D01*
X031761Y013111D01*
X031807Y013123D01*
X031848Y013147D01*
X031882Y013180D01*
X031906Y013221D01*
X031918Y013267D01*
X031918Y013448D01*
X031502Y013448D01*
X031502Y013448D01*
X031918Y013448D01*
X031918Y013629D01*
X031906Y013675D01*
X031882Y013716D01*
X031848Y013750D01*
X031807Y013773D01*
X031761Y013786D01*
X031502Y013786D01*
X031502Y013448D01*
X031502Y013111D01*
X031502Y013448D01*
X031502Y013448D01*
X031502Y013448D01*
X031502Y013786D01*
X031242Y013786D01*
X031196Y013773D01*
X031155Y013750D01*
X031121Y013716D01*
X031098Y013675D01*
X031085Y013629D01*
X031085Y013448D01*
X031085Y013267D01*
X031098Y013221D01*
X031121Y013180D01*
X031155Y013147D01*
X031196Y013123D01*
X031242Y013111D01*
X031133Y013169D02*
X030659Y013169D01*
X030678Y013327D02*
X031085Y013327D01*
X031085Y013448D02*
X031502Y013448D01*
X031502Y013448D01*
X031085Y013448D01*
X031085Y013486D02*
X030320Y013486D01*
X030283Y013486D02*
X029322Y013486D01*
X029357Y013644D02*
X029925Y013644D01*
X029969Y013803D02*
X029313Y013803D01*
X029306Y013961D02*
X029965Y013961D01*
X029898Y014120D02*
X029329Y014120D01*
X029495Y014278D02*
X029630Y014278D01*
X029514Y014602D02*
X029120Y014224D01*
X029037Y013633D01*
X028717Y013644D02*
X028422Y013644D01*
X028422Y013803D02*
X028761Y013803D01*
X028861Y013961D02*
X028422Y013961D01*
X028422Y014120D02*
X028884Y014120D01*
X028902Y014278D02*
X028422Y014278D01*
X028422Y014437D02*
X029024Y014437D01*
X029189Y014595D02*
X028422Y014595D01*
X028422Y014754D02*
X029230Y014754D01*
X029514Y014602D02*
X029312Y015192D01*
X030202Y015202D01*
X030502Y014902D01*
X032102Y014902D01*
X032823Y014407D01*
X033174Y014166D01*
X034507Y014175D01*
X034158Y013803D02*
X030635Y013803D01*
X030678Y013644D02*
X031089Y013644D01*
X031502Y013644D02*
X031502Y013644D01*
X031502Y013486D02*
X031502Y013486D01*
X031502Y013327D02*
X031502Y013327D01*
X031502Y013169D02*
X031502Y013169D01*
X031870Y013169D02*
X033004Y013169D01*
X033175Y013327D02*
X031918Y013327D01*
X031918Y013486D02*
X034057Y013486D01*
X034190Y013644D02*
X031914Y013644D01*
X031878Y013961D02*
X033068Y013961D01*
X032853Y014120D02*
X031878Y014120D01*
X031878Y014278D02*
X032622Y014278D01*
X032391Y014437D02*
X031813Y014437D01*
X032160Y014595D02*
X029958Y014595D01*
X029695Y014754D02*
X030339Y014754D01*
X030181Y014912D02*
X029847Y014912D01*
X029514Y014602D02*
X030302Y014137D01*
X031502Y014157D01*
X031190Y014437D02*
X030613Y014437D01*
X031339Y015212D02*
X031257Y015294D01*
X031257Y016910D01*
X031339Y016992D01*
X032245Y016992D01*
X032327Y016910D01*
X032327Y015294D01*
X032245Y015212D01*
X031339Y015212D01*
X031322Y015229D02*
X030486Y015229D01*
X030327Y015388D02*
X031257Y015388D01*
X031257Y015546D02*
X029846Y015546D01*
X029812Y015705D02*
X031257Y015705D01*
X031257Y015863D02*
X029847Y015863D01*
X029847Y016022D02*
X031257Y016022D01*
X031257Y016180D02*
X029847Y016180D01*
X029847Y016339D02*
X031257Y016339D01*
X031257Y016497D02*
X029795Y016497D01*
X029882Y016656D02*
X031257Y016656D01*
X031257Y016814D02*
X029887Y016814D01*
X029887Y017060D02*
X029887Y017311D01*
X029874Y017357D01*
X029851Y017398D01*
X029817Y017431D01*
X029776Y017455D01*
X029730Y017467D01*
X029379Y017467D01*
X029379Y017060D01*
X029887Y017060D01*
X029887Y017131D02*
X035904Y017131D01*
X035948Y016973D02*
X032264Y016973D01*
X032327Y016814D02*
X035986Y016814D01*
X036016Y016656D02*
X032327Y016656D01*
X032327Y016497D02*
X036047Y016497D01*
X036077Y016339D02*
X032327Y016339D01*
X032327Y016180D02*
X036107Y016180D01*
X036155Y016022D02*
X032327Y016022D01*
X032327Y015863D02*
X036151Y015863D01*
X036147Y015705D02*
X035921Y015705D01*
X036080Y015546D02*
X036143Y015546D01*
X034983Y015705D02*
X032327Y015705D01*
X032327Y015546D02*
X034825Y015546D01*
X034743Y015388D02*
X032327Y015388D01*
X032261Y015229D02*
X034679Y015229D01*
X034679Y015071D02*
X032245Y015071D01*
X032476Y014912D02*
X034685Y014912D01*
X034751Y014754D02*
X032707Y014754D01*
X032938Y014595D02*
X034207Y014595D01*
X034064Y014437D02*
X033169Y014437D01*
X033023Y014537D02*
X033023Y014537D01*
X034808Y014595D02*
X034844Y014595D01*
X034951Y014437D02*
X035003Y014437D01*
X035017Y014278D02*
X036111Y014278D01*
X036107Y014120D02*
X035017Y014120D01*
X034971Y013961D02*
X035209Y013961D01*
X035156Y013907D02*
X035267Y014019D01*
X035413Y014079D01*
X035571Y014079D01*
X035716Y014019D01*
X035828Y013907D01*
X035888Y013762D01*
X035888Y013604D01*
X035828Y013458D01*
X035716Y013347D01*
X035571Y013286D01*
X035413Y013286D01*
X035267Y013347D01*
X035156Y013458D01*
X035095Y013604D01*
X035095Y013762D01*
X035156Y013907D01*
X035112Y013803D02*
X034857Y013803D01*
X034825Y013644D02*
X035095Y013644D01*
X035144Y013486D02*
X034958Y013486D01*
X035017Y013327D02*
X035314Y013327D01*
X035017Y013169D02*
X036082Y013169D01*
X036086Y013327D02*
X035670Y013327D01*
X035839Y013486D02*
X036091Y013486D01*
X036095Y013644D02*
X035888Y013644D01*
X035871Y013803D02*
X036099Y013803D01*
X036103Y013961D02*
X035774Y013961D01*
X035902Y014437D02*
X036115Y014437D01*
X036119Y014595D02*
X036060Y014595D01*
X033273Y012376D02*
X032846Y012376D01*
X032691Y012218D02*
X033105Y012218D01*
X032936Y012059D02*
X032536Y012059D01*
X032381Y011901D02*
X032767Y011901D01*
X032598Y011742D02*
X032227Y011742D01*
X032430Y011584D02*
X031288Y011584D01*
X029432Y012693D02*
X026522Y012693D01*
X026522Y012680D02*
X026092Y012680D01*
X026092Y012680D01*
X026522Y012680D01*
X026092Y012680D02*
X025662Y012680D01*
X026092Y012680D01*
X026092Y012680D01*
X026092Y013002D02*
X026902Y013002D01*
X029152Y013002D01*
X029134Y013327D02*
X029925Y013327D01*
X030283Y013327D02*
X030320Y013327D01*
X030320Y013169D02*
X030283Y013169D01*
X028940Y013327D02*
X027122Y013327D01*
X026902Y013625D02*
X026902Y013002D01*
X026682Y013222D02*
X026682Y013405D01*
X026522Y013405D01*
X026522Y013310D01*
X026092Y013310D01*
X026092Y013310D01*
X026522Y013310D01*
X026522Y013222D01*
X026682Y013222D01*
X026682Y013327D02*
X026522Y013327D01*
X026092Y013310D02*
X026092Y013310D01*
X025662Y013310D01*
X025662Y013382D01*
X025010Y013382D01*
X024882Y013511D01*
X024882Y013720D01*
X023771Y013720D01*
X023883Y013674D01*
X023934Y013622D01*
X024493Y013622D01*
X024920Y013195D01*
X024958Y013182D01*
X024982Y013133D01*
X025022Y013093D01*
X025022Y013054D01*
X025092Y012914D01*
X025317Y012585D01*
X025662Y012585D01*
X025662Y012680D01*
X025662Y012814D01*
X025674Y012859D01*
X025698Y012900D01*
X025702Y012904D01*
X025702Y013085D01*
X025698Y013089D01*
X025674Y013130D01*
X025662Y013176D01*
X025662Y013310D01*
X026092Y013310D01*
X026092Y013602D02*
X025102Y013602D01*
X025102Y013940D01*
X022712Y013940D01*
X023702Y013402D02*
X024402Y013402D01*
X024802Y013002D01*
X024902Y012802D01*
X025202Y012365D01*
X026092Y012365D01*
X025662Y012693D02*
X025243Y012693D01*
X025135Y012852D02*
X025672Y012852D01*
X025702Y013010D02*
X025044Y013010D01*
X024964Y013169D02*
X025664Y013169D01*
X025662Y013327D02*
X024788Y013327D01*
X024907Y013486D02*
X024629Y013486D01*
X024882Y013644D02*
X023912Y013644D01*
X024102Y012502D02*
X024602Y012202D01*
X024902Y012102D01*
X026092Y013602D02*
X026092Y013625D01*
X026902Y013625D01*
X028202Y013625D01*
X028202Y016102D01*
X029312Y016102D01*
X029312Y016092D01*
X029312Y016202D01*
X028202Y016202D01*
X028202Y017668D01*
X029202Y017948D01*
X031002Y017968D01*
X031338Y017924D02*
X035657Y017924D01*
X035597Y018082D02*
X031338Y018082D01*
X031338Y018241D02*
X035537Y018241D01*
X035474Y018399D02*
X031378Y018399D01*
X031378Y018558D02*
X035395Y018558D01*
X035316Y018716D02*
X031378Y018716D01*
X031378Y018875D02*
X035238Y018875D01*
X035143Y019033D02*
X031224Y019033D01*
X031020Y019033D02*
X030983Y019033D01*
X030983Y019034D02*
X030781Y019034D01*
X030735Y019021D01*
X030694Y018998D01*
X030661Y018964D01*
X030637Y018923D01*
X030625Y018877D01*
X030625Y018655D01*
X030983Y018655D01*
X030983Y019034D01*
X030983Y018875D02*
X031020Y018875D01*
X031020Y018716D02*
X030983Y018716D01*
X030625Y018716D02*
X029618Y018716D01*
X029618Y018657D02*
X029618Y018838D01*
X029606Y018884D01*
X029582Y018925D01*
X029548Y018958D01*
X029507Y018982D01*
X029461Y018994D01*
X029202Y018994D01*
X029202Y018657D01*
X029618Y018657D01*
X029202Y018657D01*
X029202Y018657D01*
X029202Y018657D01*
X029202Y018994D01*
X028942Y018994D01*
X028896Y018982D01*
X028855Y018958D01*
X028821Y018925D01*
X028798Y018884D01*
X028785Y018838D01*
X028785Y018657D01*
X029202Y018657D01*
X029202Y018319D01*
X029461Y018319D01*
X029507Y018331D01*
X029548Y018355D01*
X029582Y018389D01*
X029606Y018430D01*
X029618Y018476D01*
X029618Y018657D01*
X029618Y018558D02*
X030625Y018558D01*
X030625Y018399D02*
X029588Y018399D01*
X029501Y018241D02*
X030665Y018241D01*
X031338Y017765D02*
X035717Y017765D01*
X035769Y017607D02*
X028799Y017607D01*
X028835Y017448D02*
X028422Y017448D01*
X028422Y017290D02*
X028737Y017290D01*
X028737Y017131D02*
X028422Y017131D01*
X028422Y016973D02*
X029244Y016973D01*
X029244Y016925D02*
X029244Y016527D01*
X029379Y016527D01*
X029379Y016925D01*
X029244Y016925D01*
X029244Y016814D02*
X029379Y016814D01*
X029379Y016656D02*
X029244Y016656D01*
X029379Y016973D02*
X031319Y016973D01*
X029887Y017290D02*
X035859Y017290D01*
X035814Y017448D02*
X029788Y017448D01*
X029379Y017448D02*
X029244Y017448D01*
X029244Y017290D02*
X029379Y017290D01*
X029379Y017131D02*
X029244Y017131D01*
X028737Y016814D02*
X028422Y016814D01*
X028422Y016656D02*
X028741Y016656D01*
X028828Y016497D02*
X028422Y016497D01*
X028422Y015863D02*
X028777Y015863D01*
X028811Y015705D02*
X028422Y015705D01*
X028422Y015546D02*
X028777Y015546D01*
X028777Y015388D02*
X028422Y015388D01*
X028422Y015229D02*
X028777Y015229D01*
X028777Y015071D02*
X028422Y015071D01*
X028422Y014912D02*
X028777Y014912D01*
X027367Y014379D02*
X026970Y013940D01*
X026721Y013942D01*
X026092Y013940D01*
X026092Y014255D02*
X026429Y014380D01*
X026429Y016202D01*
X026902Y016202D02*
X026903Y017824D01*
X027982Y018292D01*
X028299Y017924D02*
X025724Y017924D01*
X025724Y018082D02*
X028825Y018082D01*
X028902Y018241D02*
X025724Y018241D01*
X025618Y018399D02*
X028815Y018399D01*
X028821Y018389D02*
X028855Y018355D01*
X028896Y018331D01*
X028942Y018319D01*
X029202Y018319D01*
X029202Y018657D01*
X029202Y018657D01*
X029202Y018657D01*
X028785Y018657D01*
X028785Y018476D01*
X028798Y018430D01*
X028821Y018389D01*
X028785Y018558D02*
X025446Y018558D01*
X025276Y018716D02*
X028785Y018716D01*
X028795Y018875D02*
X025105Y018875D01*
X024933Y019033D02*
X030779Y019033D01*
X030625Y018875D02*
X029608Y018875D01*
X029202Y018875D02*
X029202Y018875D01*
X029202Y018716D02*
X029202Y018716D01*
X029202Y018558D02*
X029202Y018558D01*
X029202Y018399D02*
X029202Y018399D01*
X027988Y017765D02*
X025724Y017765D01*
X025724Y017607D02*
X027982Y017607D01*
X027374Y016202D02*
X027367Y014379D01*
X028374Y013486D02*
X028752Y013486D01*
X024874Y014842D02*
X024874Y017502D01*
X024002Y018402D01*
X022002Y018402D01*
X024595Y019350D02*
X034938Y019350D01*
X035040Y019192D02*
X024762Y019192D01*
X024864Y021614D02*
X025039Y021614D01*
X025201Y021681D01*
X025325Y021805D01*
X025392Y021966D01*
X025392Y022741D01*
X025325Y022903D01*
X025201Y023027D01*
X025039Y023094D01*
X024864Y023094D01*
X024702Y023027D01*
X024579Y022903D01*
X024512Y022741D01*
X024512Y021966D01*
X024579Y021805D01*
X024702Y021681D01*
X024864Y021614D01*
X024656Y021728D02*
X024248Y021728D01*
X024358Y021886D02*
X024545Y021886D01*
X024512Y022045D02*
X024392Y022045D01*
X024392Y022203D02*
X024512Y022203D01*
X024512Y022362D02*
X024392Y022362D01*
X024392Y022520D02*
X024512Y022520D01*
X024512Y022679D02*
X024392Y022679D01*
X024352Y022837D02*
X024551Y022837D01*
X024671Y022996D02*
X024232Y022996D01*
X025232Y022996D02*
X025671Y022996D01*
X025702Y023027D02*
X025579Y022903D01*
X025512Y022741D01*
X025512Y021966D01*
X025579Y021805D01*
X025702Y021681D01*
X025864Y021614D01*
X026039Y021614D01*
X026201Y021681D01*
X026325Y021805D01*
X026392Y021966D01*
X026392Y022741D01*
X026325Y022903D01*
X026201Y023027D01*
X026039Y023094D01*
X025864Y023094D01*
X025702Y023027D01*
X025551Y022837D02*
X025352Y022837D01*
X025392Y022679D02*
X025512Y022679D01*
X025512Y022520D02*
X025392Y022520D01*
X025392Y022362D02*
X025512Y022362D01*
X025512Y022203D02*
X025392Y022203D01*
X025392Y022045D02*
X025512Y022045D01*
X025545Y021886D02*
X025358Y021886D01*
X025248Y021728D02*
X025656Y021728D01*
X026248Y021728D02*
X026656Y021728D01*
X026702Y021681D02*
X026864Y021614D01*
X027039Y021614D01*
X027201Y021681D01*
X027325Y021805D01*
X027392Y021966D01*
X027392Y022741D01*
X027325Y022903D01*
X027201Y023027D01*
X027039Y023094D01*
X026864Y023094D01*
X026702Y023027D01*
X026579Y022903D01*
X026512Y022741D01*
X026512Y021966D01*
X026579Y021805D01*
X026702Y021681D01*
X026545Y021886D02*
X026358Y021886D01*
X026392Y022045D02*
X026512Y022045D01*
X026512Y022203D02*
X026392Y022203D01*
X026392Y022362D02*
X026512Y022362D01*
X026512Y022520D02*
X026392Y022520D01*
X026392Y022679D02*
X026512Y022679D01*
X026551Y022837D02*
X026352Y022837D01*
X026232Y022996D02*
X026671Y022996D01*
X027232Y022996D02*
X027671Y022996D01*
X027702Y023027D02*
X027579Y022903D01*
X027512Y022741D01*
X027512Y021966D01*
X027579Y021805D01*
X027702Y021681D01*
X027864Y021614D01*
X028039Y021614D01*
X028201Y021681D01*
X028325Y021805D01*
X028392Y021966D01*
X028392Y022741D01*
X028325Y022903D01*
X028201Y023027D01*
X028039Y023094D01*
X027864Y023094D01*
X027702Y023027D01*
X027551Y022837D02*
X027352Y022837D01*
X027392Y022679D02*
X027512Y022679D01*
X027512Y022520D02*
X027392Y022520D01*
X027392Y022362D02*
X027512Y022362D01*
X027512Y022203D02*
X027392Y022203D01*
X027392Y022045D02*
X027512Y022045D01*
X027545Y021886D02*
X027358Y021886D01*
X027248Y021728D02*
X027656Y021728D01*
X028248Y021728D02*
X032868Y021728D01*
X032664Y021886D02*
X028358Y021886D01*
X028392Y022045D02*
X032460Y022045D01*
X032257Y022203D02*
X028392Y022203D01*
X028392Y022362D02*
X032040Y022362D01*
X031781Y022520D02*
X028392Y022520D01*
X028392Y022679D02*
X031522Y022679D01*
X031263Y022837D02*
X028352Y022837D01*
X028232Y022996D02*
X030971Y022996D01*
X030632Y023154D02*
X006275Y023154D01*
X006467Y023313D02*
X030292Y023313D01*
X029912Y023471D02*
X006658Y023471D01*
X006850Y023630D02*
X029441Y023630D01*
X028971Y023788D02*
X007042Y023788D01*
X007243Y023947D02*
X028244Y023947D01*
X027153Y024105D02*
X025137Y024105D01*
X016928Y024105D02*
X013631Y024105D01*
X011888Y022836D02*
X011888Y022836D01*
X011664Y021569D02*
X013738Y021569D01*
X013664Y021411D02*
X011728Y021411D01*
X010867Y020935D02*
X013440Y020935D01*
X013365Y020777D02*
X010935Y020777D01*
X010935Y020618D02*
X013290Y020618D01*
X013215Y020460D02*
X010852Y020460D01*
X010693Y020301D02*
X013141Y020301D01*
X013066Y020143D02*
X010422Y020143D01*
X010376Y019984D02*
X012991Y019984D01*
X012795Y019826D02*
X010218Y019826D01*
X009987Y019667D02*
X012355Y019667D01*
X012773Y019350D02*
X014171Y019350D01*
X014173Y019509D02*
X013213Y019509D01*
X013262Y019526D02*
X013262Y019526D01*
X013262Y019526D01*
X013328Y019667D02*
X014171Y019667D01*
X014169Y019826D02*
X013403Y019826D01*
X013478Y019984D02*
X014166Y019984D01*
X014164Y020143D02*
X013552Y020143D01*
X013627Y020301D02*
X014162Y020301D01*
X014159Y020460D02*
X013702Y020460D01*
X013777Y020618D02*
X014157Y020618D01*
X014155Y020777D02*
X013851Y020777D01*
X013926Y020935D02*
X014152Y020935D01*
X014150Y021094D02*
X014001Y021094D01*
X014075Y021252D02*
X014148Y021252D01*
X014352Y022354D02*
X013102Y019702D01*
X011714Y019202D01*
X011214Y018602D01*
X010017Y017302D01*
X010042Y014086D01*
X011064Y013702D01*
X011064Y013652D01*
X013089Y015705D02*
X019884Y015705D01*
X019639Y015863D02*
X012802Y015863D01*
X013406Y015546D02*
X020129Y015546D01*
X020602Y015502D02*
X018902Y016602D01*
X016802Y016602D01*
X014698Y018506D01*
X014395Y019376D01*
X014352Y022354D01*
X011915Y019509D02*
X009901Y019509D01*
X009742Y019350D02*
X011541Y019350D01*
X011419Y019192D02*
X009490Y019192D01*
X009425Y019033D02*
X011287Y019033D01*
X011155Y018875D02*
X009267Y018875D01*
X009055Y018716D02*
X011020Y018716D01*
X010874Y018558D02*
X008950Y018558D01*
X008791Y018399D02*
X010728Y018399D01*
X010582Y018241D02*
X008542Y018241D01*
X008474Y018082D02*
X010436Y018082D01*
X010290Y017924D02*
X008316Y017924D01*
X010305Y017290D02*
X015714Y017290D01*
X015539Y017448D02*
X010451Y017448D01*
X010596Y017607D02*
X015364Y017607D01*
X015189Y017765D02*
X010742Y017765D01*
X010888Y017924D02*
X015014Y017924D01*
X014838Y018082D02*
X011034Y018082D01*
X011180Y018241D02*
X014663Y018241D01*
X014488Y018399D02*
X011331Y018399D01*
X011463Y018558D02*
X014447Y018558D01*
X014392Y018716D02*
X011595Y018716D01*
X011727Y018875D02*
X014337Y018875D01*
X014282Y019033D02*
X011893Y019033D01*
X012333Y019192D02*
X014227Y019192D01*
X016590Y016497D02*
X011818Y016497D01*
X011729Y016339D02*
X018904Y016339D01*
X019149Y016180D02*
X011451Y016180D01*
X011617Y016022D02*
X019394Y016022D01*
X020543Y014278D02*
X018001Y014278D01*
X021019Y013327D02*
X021616Y013327D01*
X021414Y013169D02*
X021006Y013169D01*
X020992Y013010D02*
X021213Y013010D01*
X021139Y012852D02*
X020989Y012852D01*
X020989Y012693D02*
X021140Y012693D01*
X021140Y012535D02*
X020989Y012535D01*
X020989Y012376D02*
X021140Y012376D01*
X021140Y012218D02*
X020989Y012218D01*
X020989Y012059D02*
X021140Y012059D01*
X021140Y011901D02*
X020989Y011901D01*
X020989Y011742D02*
X021140Y011742D01*
X021140Y011584D02*
X020989Y011584D01*
X024464Y009365D02*
X024498Y009365D01*
X024464Y009206D02*
X024590Y009206D01*
X024682Y009048D02*
X024464Y009048D01*
X024496Y008889D02*
X024826Y008889D01*
X024685Y008731D02*
X025037Y008731D01*
X024874Y008572D02*
X025248Y008572D01*
X025686Y009523D02*
X026550Y009523D01*
X028998Y008097D02*
X029560Y008097D01*
X031877Y007197D02*
X031877Y007094D01*
X031877Y006499D01*
X031916Y006404D01*
X031989Y006331D01*
X032085Y006291D01*
X032188Y006291D01*
X032284Y006331D01*
X032357Y006404D01*
X032397Y006499D01*
X032397Y006518D01*
X032661Y006254D01*
X032511Y006104D01*
X032471Y006008D01*
X032471Y005905D01*
X032511Y005809D01*
X032584Y005736D01*
X032679Y005697D01*
X032783Y005697D01*
X032878Y005736D01*
X033546Y006404D01*
X033585Y006499D01*
X033585Y006603D01*
X033546Y006698D01*
X033473Y006771D01*
X033377Y006811D01*
X033274Y006811D01*
X033178Y006771D01*
X033028Y006621D01*
X032357Y007293D01*
X032299Y007351D01*
X032284Y007366D01*
X032188Y007405D01*
X032085Y007405D01*
X031992Y007367D01*
X031989Y007366D01*
X031916Y007293D01*
X031877Y007197D01*
X031877Y007146D02*
X026577Y007146D01*
X026388Y007304D02*
X031927Y007304D01*
X031877Y006987D02*
X026766Y006987D01*
X026956Y006829D02*
X031877Y006829D01*
X031877Y006670D02*
X027145Y006670D01*
X027334Y006512D02*
X031135Y006512D01*
X030976Y006353D02*
X027523Y006353D01*
X027713Y006195D02*
X030818Y006195D01*
X030751Y006036D02*
X027902Y006036D01*
X028093Y005878D02*
X030751Y005878D01*
X031938Y006353D02*
X031967Y006353D01*
X031877Y006512D02*
X031779Y006512D01*
X032096Y006195D02*
X032601Y006195D01*
X032561Y006353D02*
X032306Y006353D01*
X032397Y006512D02*
X032403Y006512D01*
X032821Y006829D02*
X033491Y006829D01*
X033558Y006670D02*
X035183Y006670D01*
X035267Y006829D02*
X033924Y006829D01*
X034129Y006987D02*
X035346Y006987D01*
X035426Y007146D02*
X034288Y007146D01*
X034404Y007304D02*
X035506Y007304D01*
X035585Y007463D02*
X034413Y007463D01*
X034413Y007621D02*
X035665Y007621D01*
X035738Y007780D02*
X034392Y007780D01*
X034259Y007938D02*
X035735Y007938D01*
X035745Y008097D02*
X034101Y008097D01*
X033670Y008414D02*
X035925Y008414D01*
X036020Y008572D02*
X033625Y008572D01*
X033614Y008255D02*
X035801Y008255D01*
X033317Y006987D02*
X032663Y006987D01*
X032504Y007146D02*
X033140Y007146D01*
X032969Y007304D02*
X032346Y007304D01*
X032357Y007293D02*
X032357Y007293D01*
X032980Y006670D02*
X033077Y006670D01*
X033495Y006353D02*
X034977Y006353D01*
X035080Y006512D02*
X033585Y006512D01*
X033337Y006195D02*
X034873Y006195D01*
X034770Y006036D02*
X033178Y006036D01*
X033020Y005878D02*
X034666Y005878D01*
X034562Y005719D02*
X032837Y005719D01*
X032625Y005719D02*
X032460Y005719D01*
X032460Y005561D02*
X034431Y005561D01*
X034300Y005402D02*
X032460Y005402D01*
X032386Y005244D02*
X034169Y005244D01*
X034038Y005085D02*
X032227Y005085D01*
X032069Y004927D02*
X033908Y004927D01*
X032482Y005878D02*
X032413Y005878D01*
X032483Y006036D02*
X032255Y006036D01*
X029058Y001915D02*
X006250Y001915D01*
X006793Y001757D02*
X028370Y001757D01*
X027383Y001598D02*
X025016Y001598D01*
X024676Y002708D02*
X024227Y002708D01*
X024350Y002866D02*
X024553Y002866D01*
X024512Y003025D02*
X024392Y003025D01*
X024392Y003183D02*
X024512Y003183D01*
X023676Y002708D02*
X023227Y002708D01*
X023350Y002866D02*
X023553Y002866D01*
X023512Y003025D02*
X023392Y003025D01*
X023392Y003183D02*
X023512Y003183D01*
X016879Y001598D02*
X013620Y001598D01*
X013715Y001440D02*
X016521Y001440D01*
X015543Y003817D02*
X015302Y003817D01*
X015164Y003633D02*
X011746Y003633D01*
X009546Y003633D01*
X009106Y003659D02*
X003603Y003659D01*
X003495Y003817D02*
X009106Y003817D01*
X009106Y003500D02*
X003712Y003500D01*
X003386Y003976D02*
X015651Y003976D01*
X011746Y004803D02*
X011746Y005133D01*
X011746Y005133D01*
X011746Y005133D01*
X011266Y005133D01*
X011266Y004959D01*
X011278Y004913D01*
X011302Y004872D01*
X011335Y004839D01*
X011376Y004815D01*
X011422Y004803D01*
X011746Y004803D01*
X011746Y004927D02*
X011746Y004927D01*
X011746Y005085D02*
X011746Y005085D01*
X011746Y005244D02*
X011746Y005244D01*
X011746Y005402D02*
X011746Y005402D01*
X011310Y005402D02*
X009981Y005402D01*
X010026Y005244D02*
X011266Y005244D01*
X011266Y005085D02*
X010026Y005085D01*
X010017Y004927D02*
X011274Y004927D01*
X009546Y004927D02*
X009546Y004927D01*
X009546Y005085D02*
X009546Y005085D01*
X009546Y005244D02*
X009546Y005244D01*
X009546Y005402D02*
X009546Y005402D01*
X014571Y006829D02*
X014607Y006829D01*
X014607Y006987D02*
X014571Y006987D01*
X023929Y014842D02*
X023929Y016302D01*
X023709Y016180D02*
X023591Y016180D01*
X023466Y016339D02*
X023348Y016339D01*
X023192Y016497D02*
X023118Y016497D01*
X011084Y016497D02*
X011044Y016497D01*
X011044Y016339D02*
X011084Y016339D01*
X011084Y016180D02*
X011044Y016180D01*
X035951Y011108D02*
X036079Y011108D01*
D29*
X032402Y013802D03*
X029037Y013633D03*
X025402Y013002D03*
X024102Y012502D03*
X023702Y013402D03*
X019802Y011802D03*
X016902Y013802D03*
X014582Y013122D03*
X015752Y012302D03*
X015132Y011592D03*
X019202Y014602D03*
X015902Y016002D03*
X026102Y010502D03*
X025802Y009902D03*
X025702Y009202D03*
X026281Y008122D03*
X028902Y006902D03*
X030802Y010702D03*
X030602Y016802D03*
X027982Y018292D03*
X028952Y019552D03*
X011114Y008502D03*
M02*
