%
M48
M72
T01C0.0240
T02C0.0360
T03C0.0400
T04C0.0433
T05C0.0866
T06C0.1260
%
T01
X11114Y8502
X15132Y11592
X15752Y12302
X14582Y13122
X16902Y13802
X19202Y14602
X15902Y16002
X19802Y11802
X23702Y13402
X24102Y12502
X25402Y13002
X29037Y13633
X32402Y13802
X30802Y10702
X26102Y10502
X25802Y9902
X25702Y9202
X26281Y8122
X28902Y6902
X30602Y16802
X27982Y18292
X28952Y19552
T02
X34507Y14175
X34507Y13241
X34507Y12353
X34507Y11419
T03
X27952Y3354
X26952Y3354
X25952Y3354
X24952Y3354
X23952Y3354
X22952Y3354
X20952Y3354
X19952Y3354
X18952Y3354
X17952Y3354
X16952Y3354
X15952Y3354
X21163Y6547
X11064Y9652
X11064Y10652
X11064Y11652
X11064Y12652
X11064Y13652
X11064Y14652
X11064Y15652
X11064Y16652
X14352Y22354
X15352Y22354
X16352Y22354
X17352Y22354
X18352Y22354
X19352Y22354
X20952Y22354
X21952Y22354
X22952Y22354
X23952Y22354
X24952Y22354
X25952Y22354
X26952Y22354
X27952Y22354
T04
X35492Y13683
X35492Y11911
T05
X35452Y10513
X35452Y15080
T06
X1328Y12846
M30
