G75*
%MOIN*%
%OFA0B0*%
%FSLAX24Y24*%
%IPPOS*%
%LPD*%
%AMOC8*
5,1,8,0,0,1.08239X$1,22.5*
%
%ADD10C,0.0000*%
%ADD11C,0.0030*%
%ADD12C,0.0040*%
%ADD13C,0.0050*%
%ADD14R,0.6299X2.3622*%
%ADD15C,0.0080*%
%ADD16R,0.0020X0.0040*%
%ADD17R,0.0020X0.0180*%
%ADD18R,0.0020X0.0220*%
%ADD19R,0.0020X0.0280*%
%ADD20R,0.0020X0.0300*%
%ADD21R,0.0020X0.0320*%
%ADD22R,0.0020X0.0360*%
%ADD23R,0.0020X0.0420*%
%ADD24R,0.0020X0.0440*%
%ADD25R,0.0020X0.0460*%
%ADD26R,0.0020X0.0480*%
%ADD27R,0.0020X0.0500*%
%ADD28R,0.0020X0.0520*%
%ADD29R,0.0020X0.0540*%
%ADD30R,0.0020X0.0560*%
%ADD31R,0.0020X0.0580*%
%ADD32R,0.0020X0.0600*%
%ADD33R,0.0020X0.0620*%
%ADD34R,0.0020X0.0640*%
%ADD35R,0.0020X0.0660*%
%ADD36R,0.0020X0.0120*%
%ADD37R,0.0020X0.0140*%
%ADD38R,0.0020X0.0240*%
%ADD39R,0.0020X0.0680*%
%ADD40R,0.0020X0.0340*%
%ADD41R,0.0020X0.0400*%
%ADD42R,0.0020X0.0200*%
%ADD43R,0.0020X0.0700*%
%ADD44R,0.0020X0.0720*%
%ADD45R,0.0020X0.0740*%
%ADD46R,0.0020X0.0760*%
%ADD47R,0.0020X0.0780*%
%ADD48R,0.0020X0.0800*%
%ADD49R,0.0020X0.0820*%
%ADD50R,0.0020X0.0860*%
%ADD51R,0.0020X0.0840*%
%ADD52R,0.0020X0.0880*%
%ADD53R,0.0020X0.0900*%
%ADD54R,0.0020X0.0920*%
%ADD55R,0.0020X0.0940*%
%ADD56R,0.0020X0.0960*%
%ADD57R,0.0020X0.1000*%
%ADD58R,0.0020X0.0980*%
%ADD59R,0.0020X0.1020*%
%ADD60R,0.0020X0.1040*%
%ADD61R,0.0020X0.1060*%
%ADD62R,0.0020X0.1080*%
%ADD63R,0.0020X0.1100*%
%ADD64R,0.0020X0.1140*%
%ADD65R,0.0020X0.2220*%
%ADD66R,0.0020X0.2180*%
%ADD67R,0.0020X0.0060*%
%ADD68R,0.0020X0.2160*%
%ADD69R,0.0020X0.2140*%
%ADD70R,0.0020X0.2580*%
%ADD71R,0.0020X0.2620*%
%ADD72R,0.0020X0.2640*%
%ADD73R,0.0020X0.2680*%
%ADD74R,0.0020X0.2720*%
%ADD75R,0.0020X0.2740*%
%ADD76R,0.0020X0.2760*%
%ADD77R,0.0020X0.2800*%
%ADD78R,0.0020X0.2820*%
%ADD79R,0.0020X0.2860*%
%ADD80R,0.0020X0.2920*%
%ADD81R,0.0020X0.2980*%
%ADD82R,0.0020X0.1860*%
%ADD83R,0.0020X0.1160*%
%ADD84R,0.0020X0.3200*%
%ADD85R,0.0020X0.4420*%
%ADD86R,0.0020X0.3040*%
%ADD87R,0.0020X0.1340*%
%ADD88R,0.0020X0.4440*%
%ADD89R,0.0020X0.4540*%
%ADD90R,0.0020X0.4560*%
%ADD91R,0.0020X0.4600*%
%ADD92R,0.0020X0.4620*%
%ADD93R,0.0020X0.4640*%
%ADD94R,0.0020X0.4660*%
%ADD95R,0.0020X0.4680*%
%ADD96R,0.0020X0.4700*%
%ADD97R,0.0020X0.4720*%
%ADD98R,0.0020X0.4740*%
%ADD99R,0.0020X0.4760*%
%ADD100R,0.0020X0.3640*%
%ADD101R,0.0020X0.3600*%
%ADD102R,0.0020X0.3580*%
%ADD103R,0.0020X0.3560*%
%ADD104R,0.0020X0.3520*%
%ADD105R,0.0020X0.1920*%
%ADD106R,0.0020X0.1780*%
%ADD107R,0.0020X0.1760*%
%ADD108R,0.0020X0.1660*%
%ADD109R,0.0020X0.1620*%
%ADD110R,0.0020X0.1600*%
%ADD111R,0.0020X0.1540*%
%ADD112R,0.0020X0.1500*%
%ADD113R,0.0020X0.1460*%
%ADD114R,0.0020X0.1440*%
%ADD115R,0.0020X0.1420*%
%ADD116R,0.0020X0.1180*%
%ADD117R,0.0020X0.1400*%
%ADD118R,0.0020X0.1280*%
%ADD119R,0.0020X0.1360*%
%ADD120R,0.0020X0.1480*%
%ADD121R,0.0020X0.0020*%
%ADD122R,0.0020X0.1320*%
%ADD123R,0.0020X0.1640*%
%ADD124R,0.0020X0.1720*%
%ADD125R,0.0020X0.1260*%
%ADD126R,0.0020X0.1940*%
%ADD127R,0.0020X0.1220*%
%ADD128R,0.0020X0.2020*%
%ADD129R,0.0020X0.2040*%
%ADD130R,0.0020X0.1200*%
%ADD131R,0.0020X0.2100*%
%ADD132R,0.0020X0.2260*%
%ADD133R,0.0020X0.1120*%
%ADD134R,0.0020X0.2300*%
%ADD135R,0.0020X0.0080*%
%ADD136R,0.0020X0.2400*%
%ADD137R,0.0020X0.0380*%
%ADD138R,0.0020X0.2500*%
%ADD139R,0.0020X0.2600*%
%ADD140R,0.0020X0.2780*%
%ADD141R,0.0020X0.2900*%
%ADD142R,0.0020X0.0160*%
%ADD143R,0.0020X0.2960*%
%ADD144R,0.0020X0.3120*%
%ADD145R,0.0020X0.3240*%
%ADD146R,0.0020X0.3280*%
%ADD147R,0.0020X0.3340*%
%ADD148R,0.0020X0.3380*%
%ADD149R,0.0020X0.3420*%
%ADD150R,0.0020X0.3460*%
%ADD151R,0.0020X0.3480*%
%ADD152R,0.0020X0.3500*%
%ADD153R,0.0020X0.3540*%
%ADD154R,0.0020X0.0100*%
%ADD155R,0.0020X0.3360*%
%ADD156R,0.0020X0.3320*%
%ADD157R,0.0020X0.1240*%
%ADD158R,0.0020X0.3300*%
%ADD159R,0.0020X0.3220*%
%ADD160R,0.0020X0.3080*%
%ADD161R,0.0020X0.2940*%
%ADD162R,0.0020X0.2880*%
%ADD163R,0.0020X0.1300*%
%ADD164R,0.0020X0.2660*%
%ADD165R,0.0020X0.2560*%
%ADD166R,0.0020X0.2520*%
%ADD167R,0.0020X0.2480*%
%ADD168R,0.0020X0.2420*%
%ADD169R,0.0020X0.2360*%
%ADD170R,0.0020X0.1380*%
%ADD171R,0.0020X0.2240*%
%ADD172R,0.0020X0.2120*%
%ADD173R,0.0020X0.1520*%
%ADD174R,0.0020X0.0260*%
%ADD175R,0.0020X0.1560*%
%ADD176R,0.0020X0.1680*%
%ADD177R,0.0020X0.1700*%
%ADD178R,0.0020X0.1740*%
%ADD179R,0.0020X0.1800*%
%ADD180R,0.0020X0.1580*%
%ADD181R,0.0020X0.3060*%
%ADD182R,0.0020X0.3800*%
%ADD183R,0.0020X0.3780*%
%ADD184R,0.0020X0.3760*%
%ADD185R,0.0020X0.3740*%
%ADD186R,0.0020X0.3720*%
%ADD187R,0.0020X0.3700*%
%ADD188R,0.0020X0.2280*%
%ADD189R,0.0020X0.2080*%
%ADD190R,0.0020X0.1980*%
%ADD191R,0.0020X0.1880*%
%ADD192R,0.0020X0.2200*%
%ADD193R,0.0020X0.3440*%
%ADD194R,0.0020X0.4220*%
%ADD195R,0.0020X0.4180*%
%ADD196R,0.0020X0.4140*%
%ADD197R,0.0020X0.4120*%
%ADD198R,0.0020X0.4040*%
%ADD199R,0.0020X0.4000*%
%ADD200R,0.0020X0.3960*%
%ADD201R,0.0020X0.4020*%
%ADD202R,0.0020X0.4240*%
%ADD203R,0.0020X0.4380*%
%ADD204R,0.0020X0.4460*%
%ADD205R,0.0020X0.4520*%
%ADD206R,0.0020X0.4840*%
%ADD207R,0.0020X0.4880*%
%ADD208R,0.0020X0.4920*%
%ADD209R,0.0020X0.4980*%
%ADD210R,0.0020X0.5000*%
%ADD211R,0.0020X0.5080*%
%ADD212R,0.0020X0.5100*%
%ADD213R,0.0020X0.5120*%
%ADD214R,0.0020X0.5180*%
%ADD215R,0.0020X0.5240*%
%ADD216R,0.0020X0.5260*%
%ADD217R,0.0020X0.5300*%
%ADD218R,0.0020X0.5360*%
%ADD219R,0.0020X0.5380*%
%ADD220R,0.0020X0.5460*%
%ADD221R,0.0020X0.5500*%
%ADD222R,0.0020X0.5560*%
%ADD223R,0.0020X0.5640*%
%ADD224R,0.0020X0.5660*%
%ADD225R,0.0020X0.5680*%
%ADD226R,0.0020X0.5720*%
%ADD227R,0.0020X0.5740*%
%ADD228R,0.0020X0.5780*%
%ADD229R,0.0020X0.5800*%
%ADD230R,0.0020X0.5860*%
%ADD231R,0.0020X0.4160*%
%ADD232R,0.0020X0.4100*%
%ADD233R,0.0020X0.4080*%
%ADD234R,0.0020X0.4060*%
%ADD235R,0.0020X0.2700*%
%ADD236R,0.0020X0.2540*%
%ADD237R,0.0020X0.2460*%
%ADD238R,0.0020X0.2440*%
%ADD239R,0.0020X0.1820*%
%ADD240R,0.0020X0.1840*%
%ADD241R,0.0020X0.2000*%
%ADD242R,0.0020X0.2060*%
%ADD243R,0.0020X0.2320*%
%ADD244R,0.0020X0.2340*%
%ADD245R,0.0020X0.6760*%
%ADD246R,0.0020X0.6700*%
%ADD247R,0.0020X0.6660*%
%ADD248R,0.0020X0.6580*%
%ADD249R,0.0020X0.6560*%
%ADD250R,0.0020X0.6480*%
%ADD251R,0.0020X0.6420*%
%ADD252R,0.0020X0.6360*%
%ADD253R,0.0020X0.6320*%
%ADD254R,0.0020X0.6260*%
%ADD255R,0.0020X0.6200*%
%ADD256R,0.0020X0.6140*%
%ADD257R,0.0020X0.6120*%
%ADD258R,0.0020X0.6020*%
%ADD259R,0.0020X0.6000*%
%ADD260R,0.0020X0.5960*%
%ADD261R,0.0020X0.5820*%
%ADD262R,0.0020X0.5760*%
%ADD263R,0.0020X0.5600*%
%ADD264R,0.0020X0.5480*%
%ADD265R,0.0020X0.5400*%
%ADD266R,0.0020X0.5140*%
%ADD267R,0.0020X0.5040*%
%ADD268R,0.0020X0.4960*%
%ADD269R,0.0020X0.4860*%
%ADD270R,0.0020X0.4820*%
%ADD271R,0.0020X0.4780*%
%ADD272R,0.0020X0.4500*%
%ADD273R,0.0020X0.4320*%
%ADD274R,0.0020X0.4280*%
%ADD275R,0.0020X0.3880*%
%ADD276R,0.0020X0.3820*%
%ADD277R,0.0020X0.3680*%
%ADD278R,0.0020X0.2840*%
D10*
X008171Y001568D02*
X013535Y001568D01*
X013537Y001496D01*
X013543Y001424D01*
X013553Y001353D01*
X013566Y001282D01*
X013583Y001212D01*
X013605Y001144D01*
X013629Y001076D01*
X013658Y001010D01*
X013690Y000945D01*
X013725Y000883D01*
X013764Y000822D01*
X013806Y000764D01*
X013851Y000708D01*
X013899Y000654D01*
X013950Y000603D01*
X014004Y000555D01*
X014060Y000510D01*
X014118Y000468D01*
X014179Y000429D01*
X014241Y000394D01*
X014306Y000362D01*
X014372Y000333D01*
X014440Y000309D01*
X014508Y000287D01*
X014578Y000270D01*
X014649Y000257D01*
X014720Y000247D01*
X014792Y000241D01*
X014864Y000239D01*
X015734Y000239D01*
X015780Y000241D01*
X015826Y000247D01*
X015871Y000256D01*
X015915Y000269D01*
X015958Y000286D01*
X015999Y000306D01*
X016039Y000330D01*
X016076Y000356D01*
X016111Y000386D01*
X016144Y000419D01*
X016174Y000454D01*
X016200Y000491D01*
X016224Y000531D01*
X016244Y000572D01*
X016261Y000615D01*
X016274Y000659D01*
X016283Y000704D01*
X016289Y000750D01*
X016291Y000796D01*
X016293Y000849D01*
X016298Y000901D01*
X016307Y000953D01*
X016320Y001004D01*
X016336Y001055D01*
X016355Y001104D01*
X016378Y001151D01*
X016403Y001197D01*
X016432Y001241D01*
X016464Y001283D01*
X016499Y001323D01*
X016536Y001360D01*
X016576Y001395D01*
X016618Y001427D01*
X016662Y001456D01*
X016708Y001481D01*
X016755Y001504D01*
X016804Y001523D01*
X016855Y001539D01*
X016906Y001552D01*
X016958Y001561D01*
X017010Y001566D01*
X017063Y001568D01*
X027463Y001568D01*
X027463Y001567D02*
X027686Y001570D01*
X027909Y001578D01*
X028132Y001592D01*
X028354Y001611D01*
X028576Y001636D01*
X028797Y001665D01*
X029017Y001700D01*
X029237Y001741D01*
X029455Y001787D01*
X029672Y001838D01*
X029888Y001894D01*
X030102Y001955D01*
X030315Y002022D01*
X030527Y002094D01*
X030736Y002170D01*
X030944Y002252D01*
X031149Y002339D01*
X031352Y002431D01*
X031554Y002528D01*
X031752Y002629D01*
X031948Y002735D01*
X032142Y002846D01*
X032333Y002962D01*
X032521Y003082D01*
X032706Y003207D01*
X032888Y003336D01*
X033066Y003470D01*
X033242Y003607D01*
X033414Y003749D01*
X033582Y003895D01*
X033747Y004046D01*
X033909Y004200D01*
X034066Y004358D01*
X034220Y004519D01*
X034370Y004685D01*
X034516Y004853D01*
X034657Y005026D01*
X034795Y005202D01*
X034928Y005381D01*
X035056Y005563D01*
X035181Y005748D01*
X035301Y005936D01*
X035416Y006127D01*
X035526Y006321D01*
X035632Y006518D01*
X035733Y006716D01*
X035829Y006918D01*
X035921Y007121D01*
X036007Y007327D01*
X036089Y007535D01*
X036165Y007744D01*
X036236Y007956D01*
X036302Y008169D01*
X036363Y008383D01*
X036419Y008599D01*
X036470Y008817D01*
X036515Y009035D01*
X036555Y009255D01*
X036590Y009475D01*
X036619Y009696D01*
X036643Y009918D01*
X036661Y010140D01*
X036675Y010363D01*
X036683Y010586D01*
X036685Y010809D01*
X036685Y015181D01*
X035373Y013822D02*
X035375Y013851D01*
X035381Y013879D01*
X035390Y013907D01*
X035403Y013933D01*
X035420Y013956D01*
X035439Y013978D01*
X035461Y013997D01*
X035486Y014012D01*
X035512Y014025D01*
X035540Y014033D01*
X035568Y014038D01*
X035597Y014039D01*
X035626Y014036D01*
X035654Y014029D01*
X035681Y014019D01*
X035707Y014005D01*
X035730Y013988D01*
X035751Y013968D01*
X035769Y013945D01*
X035784Y013920D01*
X035795Y013893D01*
X035803Y013865D01*
X035807Y013836D01*
X035807Y013808D01*
X035803Y013779D01*
X035795Y013751D01*
X035784Y013724D01*
X035769Y013699D01*
X035751Y013676D01*
X035730Y013656D01*
X035707Y013639D01*
X035681Y013625D01*
X035654Y013615D01*
X035626Y013608D01*
X035597Y013605D01*
X035568Y013606D01*
X035540Y013611D01*
X035512Y013619D01*
X035486Y013632D01*
X035461Y013647D01*
X035439Y013666D01*
X035420Y013688D01*
X035403Y013711D01*
X035390Y013737D01*
X035381Y013765D01*
X035375Y013793D01*
X035373Y013822D01*
X035373Y012050D02*
X035375Y012079D01*
X035381Y012107D01*
X035390Y012135D01*
X035403Y012161D01*
X035420Y012184D01*
X035439Y012206D01*
X035461Y012225D01*
X035486Y012240D01*
X035512Y012253D01*
X035540Y012261D01*
X035568Y012266D01*
X035597Y012267D01*
X035626Y012264D01*
X035654Y012257D01*
X035681Y012247D01*
X035707Y012233D01*
X035730Y012216D01*
X035751Y012196D01*
X035769Y012173D01*
X035784Y012148D01*
X035795Y012121D01*
X035803Y012093D01*
X035807Y012064D01*
X035807Y012036D01*
X035803Y012007D01*
X035795Y011979D01*
X035784Y011952D01*
X035769Y011927D01*
X035751Y011904D01*
X035730Y011884D01*
X035707Y011867D01*
X035681Y011853D01*
X035654Y011843D01*
X035626Y011836D01*
X035597Y011833D01*
X035568Y011834D01*
X035540Y011839D01*
X035512Y011847D01*
X035486Y011860D01*
X035461Y011875D01*
X035439Y011894D01*
X035420Y011916D01*
X035403Y011939D01*
X035390Y011965D01*
X035381Y011993D01*
X035375Y012021D01*
X035373Y012050D01*
X036685Y015181D02*
X036682Y015404D01*
X036674Y015627D01*
X036661Y015849D01*
X036642Y016071D01*
X036618Y016293D01*
X036588Y016513D01*
X036553Y016734D01*
X036513Y016953D01*
X036468Y017171D01*
X036417Y017388D01*
X036361Y017604D01*
X036300Y017818D01*
X036234Y018031D01*
X036162Y018242D01*
X036086Y018451D01*
X036004Y018659D01*
X035918Y018864D01*
X035826Y019067D01*
X035730Y019268D01*
X035629Y019467D01*
X035523Y019663D01*
X035412Y019856D01*
X035297Y020047D01*
X035177Y020235D01*
X035053Y020420D01*
X034924Y020602D01*
X034791Y020780D01*
X034653Y020956D01*
X034512Y021128D01*
X034366Y021296D01*
X034216Y021461D01*
X034062Y021623D01*
X033905Y021780D01*
X033743Y021934D01*
X033578Y022084D01*
X033410Y022230D01*
X033238Y022371D01*
X033062Y022509D01*
X032884Y022642D01*
X032702Y022771D01*
X032517Y022895D01*
X032329Y023015D01*
X032138Y023130D01*
X031945Y023241D01*
X031749Y023347D01*
X031550Y023448D01*
X031349Y023544D01*
X031146Y023636D01*
X030941Y023722D01*
X030733Y023804D01*
X030524Y023880D01*
X030313Y023952D01*
X030100Y024018D01*
X029886Y024079D01*
X029670Y024135D01*
X029453Y024186D01*
X029235Y024231D01*
X029016Y024271D01*
X028795Y024306D01*
X028575Y024336D01*
X028353Y024360D01*
X028131Y024379D01*
X027909Y024392D01*
X027686Y024400D01*
X027463Y024403D01*
X027463Y024402D02*
X017161Y024402D01*
X017161Y024403D02*
X017104Y024405D01*
X017047Y024410D01*
X016991Y024420D01*
X016936Y024433D01*
X016881Y024449D01*
X016828Y024469D01*
X016776Y024493D01*
X016726Y024520D01*
X016678Y024550D01*
X016631Y024583D01*
X016587Y024619D01*
X016546Y024658D01*
X016507Y024699D01*
X016471Y024743D01*
X016438Y024790D01*
X016408Y024838D01*
X016381Y024888D01*
X016357Y024940D01*
X016337Y024993D01*
X016321Y025048D01*
X016308Y025103D01*
X016298Y025159D01*
X016293Y025216D01*
X016291Y025273D01*
X016289Y025319D01*
X016283Y025365D01*
X016274Y025410D01*
X016261Y025454D01*
X016244Y025497D01*
X016224Y025538D01*
X016200Y025578D01*
X016174Y025615D01*
X016144Y025650D01*
X016111Y025683D01*
X016076Y025713D01*
X016039Y025739D01*
X015999Y025763D01*
X015958Y025783D01*
X015915Y025800D01*
X015871Y025813D01*
X015826Y025822D01*
X015780Y025828D01*
X015734Y025830D01*
X014962Y025830D01*
X014962Y025829D02*
X014887Y025827D01*
X014813Y025821D01*
X014739Y025811D01*
X014665Y025798D01*
X014593Y025780D01*
X014521Y025759D01*
X014451Y025734D01*
X014382Y025706D01*
X014314Y025673D01*
X014249Y025638D01*
X014185Y025599D01*
X014123Y025556D01*
X014064Y025511D01*
X014007Y025462D01*
X013953Y025411D01*
X013902Y025357D01*
X013853Y025300D01*
X013808Y025241D01*
X013765Y025179D01*
X013726Y025116D01*
X013691Y025050D01*
X013658Y024982D01*
X013630Y024913D01*
X013605Y024843D01*
X013584Y024771D01*
X013566Y024699D01*
X013553Y024625D01*
X013543Y024551D01*
X013537Y024477D01*
X013535Y024402D01*
X008565Y024402D01*
X008565Y024403D02*
X008394Y024401D01*
X008223Y024395D01*
X008052Y024384D01*
X007881Y024370D01*
X007711Y024351D01*
X007541Y024329D01*
X007372Y024302D01*
X007203Y024271D01*
X007036Y024236D01*
X006869Y024197D01*
X006703Y024154D01*
X006539Y024107D01*
X006375Y024056D01*
X006213Y024001D01*
X006052Y023942D01*
X005893Y023880D01*
X005735Y023813D01*
X005579Y023743D01*
X005424Y023669D01*
X005272Y023591D01*
X005121Y023510D01*
X004972Y023425D01*
X004826Y023336D01*
X004681Y023244D01*
X004539Y023148D01*
X004399Y023050D01*
X004262Y022947D01*
X004127Y022842D01*
X003995Y022733D01*
X003865Y022621D01*
X003739Y022506D01*
X003615Y022387D01*
X003494Y022266D01*
X003375Y022142D01*
X003260Y022016D01*
X003148Y021886D01*
X003039Y021754D01*
X002934Y021619D01*
X002831Y021482D01*
X002733Y021342D01*
X002637Y021200D01*
X002545Y021055D01*
X002456Y020909D01*
X002371Y020760D01*
X002290Y020609D01*
X002212Y020457D01*
X002138Y020302D01*
X002068Y020146D01*
X002001Y019988D01*
X001939Y019829D01*
X001880Y019668D01*
X001825Y019506D01*
X001774Y019342D01*
X001727Y019178D01*
X001684Y019012D01*
X001645Y018845D01*
X001610Y018678D01*
X001579Y018509D01*
X001552Y018340D01*
X001530Y018170D01*
X001511Y018000D01*
X001497Y017829D01*
X001486Y017658D01*
X001480Y017487D01*
X001478Y017316D01*
X001406Y017314D01*
X001334Y017308D01*
X001262Y017299D01*
X001191Y017286D01*
X001121Y017269D01*
X001052Y017249D01*
X000984Y017224D01*
X000918Y017197D01*
X000852Y017166D01*
X000789Y017131D01*
X000727Y017094D01*
X000668Y017053D01*
X000611Y017009D01*
X000556Y016962D01*
X000504Y016912D01*
X000454Y016860D01*
X000407Y016805D01*
X000363Y016748D01*
X000322Y016689D01*
X000285Y016627D01*
X000250Y016564D01*
X000219Y016498D01*
X000192Y016432D01*
X000167Y016364D01*
X000147Y016295D01*
X000130Y016225D01*
X000117Y016154D01*
X000108Y016082D01*
X000102Y016010D01*
X000100Y015938D01*
X000100Y009639D01*
X000102Y009567D01*
X000108Y009495D01*
X000117Y009423D01*
X000130Y009352D01*
X000147Y009282D01*
X000167Y009213D01*
X000192Y009145D01*
X000219Y009079D01*
X000250Y009013D01*
X000285Y008950D01*
X000322Y008888D01*
X000363Y008829D01*
X000407Y008772D01*
X000454Y008717D01*
X000504Y008665D01*
X000556Y008615D01*
X000611Y008568D01*
X000668Y008524D01*
X000727Y008483D01*
X000789Y008446D01*
X000852Y008411D01*
X000918Y008380D01*
X000984Y008353D01*
X001052Y008328D01*
X001121Y008308D01*
X001191Y008291D01*
X001262Y008278D01*
X001334Y008269D01*
X001406Y008263D01*
X001478Y008261D01*
X001480Y008099D01*
X001486Y007938D01*
X001496Y007776D01*
X001509Y007615D01*
X001527Y007454D01*
X001548Y007294D01*
X001574Y007134D01*
X001603Y006975D01*
X001636Y006817D01*
X001672Y006659D01*
X001713Y006503D01*
X001757Y006347D01*
X001806Y006193D01*
X001857Y006040D01*
X001913Y005888D01*
X001972Y005737D01*
X002035Y005588D01*
X002101Y005441D01*
X002171Y005295D01*
X002245Y005151D01*
X002322Y005008D01*
X002402Y004868D01*
X002486Y004730D01*
X002573Y004593D01*
X002663Y004459D01*
X002756Y004327D01*
X002853Y004197D01*
X002953Y004070D01*
X003055Y003945D01*
X003161Y003823D01*
X003270Y003703D01*
X003381Y003586D01*
X003496Y003471D01*
X003613Y003360D01*
X003733Y003251D01*
X003855Y003145D01*
X003980Y003043D01*
X004107Y002943D01*
X004237Y002846D01*
X004369Y002753D01*
X004503Y002663D01*
X004640Y002576D01*
X004778Y002492D01*
X004918Y002412D01*
X005061Y002335D01*
X005205Y002261D01*
X005351Y002191D01*
X005498Y002125D01*
X005647Y002062D01*
X005798Y002003D01*
X005950Y001947D01*
X006103Y001896D01*
X006257Y001847D01*
X006413Y001803D01*
X006569Y001762D01*
X006727Y001726D01*
X006885Y001693D01*
X007044Y001664D01*
X007204Y001638D01*
X007364Y001617D01*
X007525Y001599D01*
X007686Y001586D01*
X007848Y001576D01*
X008009Y001570D01*
X008171Y001568D01*
X000698Y012985D02*
X000700Y013035D01*
X000706Y013085D01*
X000716Y013134D01*
X000730Y013182D01*
X000747Y013229D01*
X000768Y013274D01*
X000793Y013318D01*
X000821Y013359D01*
X000853Y013398D01*
X000887Y013435D01*
X000924Y013469D01*
X000964Y013499D01*
X001006Y013526D01*
X001050Y013550D01*
X001096Y013571D01*
X001143Y013587D01*
X001191Y013600D01*
X001241Y013609D01*
X001290Y013614D01*
X001341Y013615D01*
X001391Y013612D01*
X001440Y013605D01*
X001489Y013594D01*
X001537Y013579D01*
X001583Y013561D01*
X001628Y013539D01*
X001671Y013513D01*
X001712Y013484D01*
X001751Y013452D01*
X001787Y013417D01*
X001819Y013379D01*
X001849Y013339D01*
X001876Y013296D01*
X001899Y013252D01*
X001918Y013206D01*
X001934Y013158D01*
X001946Y013109D01*
X001954Y013060D01*
X001958Y013010D01*
X001958Y012960D01*
X001954Y012910D01*
X001946Y012861D01*
X001934Y012812D01*
X001918Y012764D01*
X001899Y012718D01*
X001876Y012674D01*
X001849Y012631D01*
X001819Y012591D01*
X001787Y012553D01*
X001751Y012518D01*
X001712Y012486D01*
X001671Y012457D01*
X001628Y012431D01*
X001583Y012409D01*
X001537Y012391D01*
X001489Y012376D01*
X001440Y012365D01*
X001391Y012358D01*
X001341Y012355D01*
X001290Y012356D01*
X001241Y012361D01*
X001191Y012370D01*
X001143Y012383D01*
X001096Y012399D01*
X001050Y012420D01*
X001006Y012444D01*
X000964Y012471D01*
X000924Y012501D01*
X000887Y012535D01*
X000853Y012572D01*
X000821Y012611D01*
X000793Y012652D01*
X000768Y012696D01*
X000747Y012741D01*
X000730Y012788D01*
X000716Y012836D01*
X000706Y012885D01*
X000700Y012935D01*
X000698Y012985D01*
D11*
X012139Y014836D02*
X012262Y014712D01*
X012386Y014836D01*
X012386Y015083D01*
X012507Y015083D02*
X012507Y014712D01*
X012754Y015083D01*
X012754Y014712D01*
X012876Y014712D02*
X013000Y014712D01*
X012938Y014712D02*
X012938Y015083D01*
X013000Y015083D02*
X012876Y015083D01*
X013121Y015083D02*
X013121Y014836D01*
X013245Y014712D01*
X013368Y014836D01*
X013368Y015083D01*
X012139Y015083D02*
X012139Y014836D01*
X021744Y007250D02*
X021868Y007374D01*
X022115Y007374D01*
X021930Y007374D02*
X021930Y007127D01*
X021868Y007127D02*
X022115Y007127D01*
X022115Y007005D02*
X021744Y007005D01*
X021744Y006820D01*
X021806Y006758D01*
X021930Y006758D01*
X021991Y006820D01*
X021991Y007005D01*
X021991Y006882D02*
X022115Y006758D01*
X022115Y006637D02*
X022115Y006390D01*
X022115Y006269D02*
X021744Y006269D01*
X021744Y006022D01*
X021930Y006145D02*
X021930Y006269D01*
X021744Y006390D02*
X021744Y006637D01*
X022115Y006637D01*
X021930Y006637D02*
X021930Y006513D01*
X021868Y007127D02*
X021744Y007250D01*
D12*
X019617Y007739D02*
X019387Y007739D01*
X019310Y007816D01*
X019310Y008123D01*
X019387Y008200D01*
X019617Y008200D01*
X019617Y007739D01*
X019157Y007739D02*
X019157Y007816D01*
X018850Y008123D01*
X018850Y008200D01*
X019157Y008200D01*
X018236Y008123D02*
X018236Y008046D01*
X018159Y007970D01*
X018006Y007970D01*
X017929Y007893D01*
X017929Y007816D01*
X018006Y007739D01*
X018159Y007739D01*
X018236Y007816D01*
X018236Y008123D02*
X018159Y008200D01*
X018006Y008200D01*
X017929Y008123D01*
X017776Y008200D02*
X017776Y007739D01*
X017622Y007893D01*
X017469Y007739D01*
X017469Y008200D01*
X013259Y009557D02*
X013029Y009557D01*
X012952Y009633D01*
X012952Y009940D01*
X013029Y010017D01*
X013259Y010017D01*
X013259Y009557D01*
X012798Y009633D02*
X012722Y009557D01*
X012568Y009557D01*
X012491Y009633D01*
X012491Y009710D01*
X012568Y009787D01*
X012798Y009787D01*
X012798Y009633D01*
X012798Y009787D02*
X012645Y009940D01*
X012491Y010017D01*
X012568Y010541D02*
X012722Y010541D01*
X012798Y010618D01*
X012798Y010694D01*
X012722Y010771D01*
X012568Y010771D01*
X012491Y010694D01*
X012491Y010618D01*
X012568Y010541D01*
X012568Y010771D02*
X012491Y010848D01*
X012491Y010925D01*
X012568Y011001D01*
X012722Y011001D01*
X012798Y010925D01*
X012798Y010848D01*
X012722Y010771D01*
X012952Y010618D02*
X012952Y010925D01*
X013029Y011001D01*
X013259Y011001D01*
X013259Y010541D01*
X013029Y010541D01*
X012952Y010618D01*
X013029Y011525D02*
X012952Y011602D01*
X012952Y011909D01*
X013029Y011986D01*
X013259Y011986D01*
X013259Y011525D01*
X013029Y011525D01*
X012798Y011602D02*
X012722Y011525D01*
X012568Y011525D01*
X012491Y011602D01*
X012491Y011755D01*
X012568Y011832D01*
X012645Y011832D01*
X012798Y011755D01*
X012798Y011986D01*
X012491Y011986D01*
X012558Y012706D02*
X012865Y012706D01*
X012712Y012706D02*
X012712Y013167D01*
X012865Y013013D01*
X013019Y013090D02*
X013095Y013167D01*
X013326Y013167D01*
X013326Y012706D01*
X013095Y012706D01*
X013019Y012783D01*
X013019Y013090D01*
X012405Y013013D02*
X012251Y013167D01*
X012251Y012706D01*
X012098Y012706D02*
X012405Y012706D01*
X012328Y013691D02*
X012405Y013767D01*
X012328Y013691D02*
X012175Y013691D01*
X012098Y013767D01*
X012098Y013844D01*
X012175Y013921D01*
X012251Y013921D01*
X012175Y013921D02*
X012098Y013997D01*
X012098Y014074D01*
X012175Y014151D01*
X012328Y014151D01*
X012405Y014074D01*
X012712Y014151D02*
X012712Y013691D01*
X012865Y013691D02*
X012558Y013691D01*
X012865Y013997D02*
X012712Y014151D01*
X013019Y014074D02*
X013095Y014151D01*
X013326Y014151D01*
X013326Y013691D01*
X013095Y013691D01*
X013019Y013767D01*
X013019Y014074D01*
X013029Y015659D02*
X012952Y015736D01*
X012952Y016043D01*
X013029Y016119D01*
X013259Y016119D01*
X013259Y015659D01*
X013029Y015659D01*
X012798Y015736D02*
X012722Y015659D01*
X012568Y015659D01*
X012491Y015736D01*
X012491Y015813D01*
X012568Y015889D01*
X012645Y015889D01*
X012568Y015889D02*
X012491Y015966D01*
X012491Y016043D01*
X012568Y016119D01*
X012722Y016119D01*
X012798Y016043D01*
X012865Y016604D02*
X012865Y017064D01*
X012558Y016604D01*
X012558Y017064D01*
X012405Y017064D02*
X012175Y017064D01*
X012098Y016988D01*
X012098Y016681D01*
X012175Y016604D01*
X012405Y016604D01*
X012405Y017064D01*
X013019Y016988D02*
X013095Y017064D01*
X013249Y017064D01*
X013326Y016988D01*
X013326Y016681D01*
X013249Y016604D01*
X013095Y016604D01*
X013019Y016681D01*
X013019Y016834D01*
X013172Y016834D01*
X015126Y020323D02*
X015049Y020400D01*
X015049Y020553D01*
X015126Y020630D01*
X015126Y020323D02*
X015203Y020323D01*
X015510Y020630D01*
X015510Y020323D01*
X015510Y020783D02*
X015510Y021090D01*
X015510Y020937D02*
X015049Y020937D01*
X015203Y021090D01*
X015126Y021244D02*
X015049Y021320D01*
X015049Y021551D01*
X015510Y021551D01*
X015510Y021320D01*
X015433Y021244D01*
X015126Y021244D01*
X016033Y021320D02*
X016033Y021551D01*
X016494Y021551D01*
X016494Y021320D01*
X016417Y021244D01*
X016110Y021244D01*
X016033Y021320D01*
X016187Y021090D02*
X016033Y020937D01*
X016494Y020937D01*
X016494Y021090D02*
X016494Y020783D01*
X016494Y020630D02*
X016494Y020323D01*
X016494Y020476D02*
X016033Y020476D01*
X016187Y020630D01*
X018121Y020686D02*
X018121Y020839D01*
X018197Y020916D01*
X018274Y020916D01*
X018351Y020839D01*
X018351Y020609D01*
X018504Y020609D02*
X018197Y020609D01*
X018121Y020686D01*
X018504Y020609D02*
X018581Y020686D01*
X018581Y020839D01*
X018504Y020916D01*
X018504Y021069D02*
X018197Y021069D01*
X018121Y021146D01*
X018121Y021376D01*
X018581Y021376D01*
X018581Y021146D01*
X018504Y021069D01*
X019272Y021146D02*
X019272Y021376D01*
X019732Y021376D01*
X019732Y021146D01*
X019655Y021069D01*
X019348Y021069D01*
X019272Y021146D01*
X019348Y020916D02*
X019425Y020916D01*
X019502Y020839D01*
X019502Y020686D01*
X019579Y020609D01*
X019655Y020609D01*
X019732Y020686D01*
X019732Y020839D01*
X019655Y020916D01*
X019579Y020916D01*
X019502Y020839D01*
X019502Y020686D02*
X019425Y020609D01*
X019348Y020609D01*
X019272Y020686D01*
X019272Y020839D01*
X019348Y020916D01*
X020445Y020916D02*
X020445Y020609D01*
X020522Y020609D01*
X020828Y020916D01*
X020905Y020916D01*
X020828Y021069D02*
X020522Y021069D01*
X020445Y021146D01*
X020445Y021376D01*
X020905Y021376D01*
X020905Y021146D01*
X020828Y021069D01*
X021671Y021146D02*
X021671Y021376D01*
X022132Y021376D01*
X022132Y021146D01*
X022055Y021069D01*
X021748Y021069D01*
X021671Y021146D01*
X021901Y020916D02*
X021901Y020686D01*
X021978Y020609D01*
X022055Y020609D01*
X022132Y020686D01*
X022132Y020839D01*
X022055Y020916D01*
X021901Y020916D01*
X021748Y020763D01*
X021671Y020609D01*
X022691Y020609D02*
X022691Y020916D01*
X022921Y020916D01*
X022845Y020763D01*
X022845Y020686D01*
X022921Y020609D01*
X023075Y020609D01*
X023152Y020686D01*
X023152Y020839D01*
X023075Y020916D01*
X023075Y021069D02*
X022768Y021069D01*
X022691Y021146D01*
X022691Y021376D01*
X023152Y021376D01*
X023152Y021146D01*
X023075Y021069D01*
X023677Y021146D02*
X023677Y021376D01*
X024137Y021376D01*
X024137Y021146D01*
X024061Y021069D01*
X023754Y021069D01*
X023677Y021146D01*
X023907Y020916D02*
X023907Y020609D01*
X023677Y020686D02*
X023907Y020916D01*
X024137Y020686D02*
X023677Y020686D01*
X024661Y020686D02*
X024738Y020609D01*
X024815Y020609D01*
X024891Y020686D01*
X024968Y020609D01*
X025045Y020609D01*
X025122Y020686D01*
X025122Y020839D01*
X025045Y020916D01*
X025045Y021069D02*
X024738Y021069D01*
X024661Y021146D01*
X024661Y021376D01*
X025122Y021376D01*
X025122Y021146D01*
X025045Y021069D01*
X024738Y020916D02*
X024661Y020839D01*
X024661Y020686D01*
X024891Y020686D02*
X024891Y020763D01*
X025645Y020686D02*
X025645Y020839D01*
X025722Y020916D01*
X025722Y021069D02*
X025645Y021146D01*
X025645Y021376D01*
X026106Y021376D01*
X026106Y021146D01*
X026029Y021069D01*
X025722Y021069D01*
X026106Y020916D02*
X025799Y020609D01*
X025722Y020609D01*
X025645Y020686D01*
X026106Y020609D02*
X026106Y020916D01*
X026661Y020763D02*
X027122Y020763D01*
X027122Y020916D02*
X027122Y020609D01*
X026815Y020916D02*
X026661Y020763D01*
X026738Y021069D02*
X026661Y021146D01*
X026661Y021376D01*
X027122Y021376D01*
X027122Y021146D01*
X027045Y021069D01*
X026738Y021069D01*
X027751Y021146D02*
X027751Y021376D01*
X028212Y021376D01*
X028212Y021146D01*
X028135Y021069D01*
X027828Y021069D01*
X027751Y021146D01*
X027828Y020916D02*
X027751Y020839D01*
X027751Y020686D01*
X027828Y020609D01*
X028135Y020916D01*
X028212Y020839D01*
X028212Y020686D01*
X028135Y020609D01*
X027828Y020609D01*
X027828Y020916D02*
X028135Y020916D01*
X017767Y023639D02*
X017605Y023476D01*
X017496Y023476D01*
X017279Y023693D01*
X017279Y023802D01*
X017442Y023964D01*
X017767Y023639D01*
X017442Y023313D02*
X017225Y023096D01*
X017333Y023205D02*
X017008Y023530D01*
X017225Y023530D01*
X016845Y023259D02*
X016736Y023259D01*
X016628Y023151D01*
X016628Y023042D01*
X017062Y023042D01*
X017062Y022934D01*
X016954Y022825D01*
X016845Y022825D01*
X016628Y023042D01*
X016845Y023259D02*
X017062Y023042D01*
X014618Y023639D02*
X014455Y023476D01*
X014346Y023476D01*
X014129Y023693D01*
X014129Y023802D01*
X014292Y023964D01*
X014618Y023639D01*
X014292Y023313D02*
X014075Y023096D01*
X014184Y023205D02*
X013858Y023530D01*
X014075Y023530D01*
X013695Y023259D02*
X013587Y023259D01*
X013478Y023151D01*
X013478Y023042D01*
X013533Y022988D01*
X013641Y022988D01*
X013641Y022879D01*
X013695Y022825D01*
X013804Y022825D01*
X013912Y022934D01*
X013912Y023042D01*
X013695Y023042D02*
X013641Y022988D01*
X022821Y005337D02*
X022667Y005184D01*
X022821Y005030D01*
X023127Y005030D01*
X023051Y004877D02*
X022744Y004570D01*
X023051Y004570D01*
X023127Y004646D01*
X023127Y004800D01*
X023051Y004877D01*
X022744Y004877D01*
X022667Y004800D01*
X022667Y004646D01*
X022744Y004570D01*
X022897Y005030D02*
X022897Y005337D01*
X022821Y005337D02*
X023127Y005337D01*
X023635Y005184D02*
X023789Y005030D01*
X024096Y005030D01*
X024096Y004877D02*
X024096Y004570D01*
X024096Y004723D02*
X023635Y004723D01*
X023789Y004877D01*
X023865Y005030D02*
X023865Y005337D01*
X023789Y005337D02*
X023635Y005184D01*
X023789Y005337D02*
X024096Y005337D01*
X024584Y005184D02*
X024737Y005030D01*
X025044Y005030D01*
X025044Y004877D02*
X024737Y004570D01*
X024661Y004570D01*
X024584Y004646D01*
X024584Y004800D01*
X024661Y004877D01*
X024814Y005030D02*
X024814Y005337D01*
X024737Y005337D02*
X025044Y005337D01*
X024737Y005337D02*
X024584Y005184D01*
X025044Y004877D02*
X025044Y004570D01*
X025602Y004646D02*
X025602Y004800D01*
X025679Y004877D01*
X025756Y005030D02*
X025602Y005184D01*
X025756Y005337D01*
X026063Y005337D01*
X025832Y005337D02*
X025832Y005030D01*
X025756Y005030D02*
X026063Y005030D01*
X025986Y004877D02*
X026063Y004800D01*
X026063Y004646D01*
X025986Y004570D01*
X025909Y004570D01*
X025832Y004646D01*
X025832Y004723D01*
X025832Y004646D02*
X025756Y004570D01*
X025679Y004570D01*
X025602Y004646D01*
X026521Y004646D02*
X026751Y004877D01*
X026751Y004570D01*
X026981Y004646D02*
X026521Y004646D01*
X026674Y005030D02*
X026981Y005030D01*
X026751Y005030D02*
X026751Y005337D01*
X026674Y005337D02*
X026521Y005184D01*
X026674Y005030D01*
X026674Y005337D02*
X026981Y005337D01*
X027646Y005184D02*
X027800Y005030D01*
X028107Y005030D01*
X028030Y004877D02*
X028107Y004800D01*
X028107Y004646D01*
X028030Y004570D01*
X027876Y004570D01*
X027800Y004646D01*
X027800Y004723D01*
X027876Y004877D01*
X027646Y004877D01*
X027646Y004570D01*
X027876Y005030D02*
X027876Y005337D01*
X027800Y005337D02*
X027646Y005184D01*
X027800Y005337D02*
X028107Y005337D01*
D13*
X021322Y005378D02*
X021322Y005174D01*
X021322Y005276D02*
X020711Y005276D01*
X020711Y005378D02*
X020711Y005174D01*
X020711Y004973D02*
X021322Y004566D01*
X020711Y004566D01*
X020188Y004465D02*
X020086Y004363D01*
X019679Y004363D01*
X019577Y004465D01*
X019577Y004770D01*
X020188Y004770D01*
X020188Y004465D01*
X020188Y004971D02*
X019577Y004971D01*
X019203Y004971D02*
X018593Y004971D01*
X018593Y004770D02*
X018593Y004465D01*
X018695Y004363D01*
X019102Y004363D01*
X019203Y004465D01*
X019203Y004770D01*
X018593Y004770D01*
X018172Y004973D02*
X017561Y004973D01*
X018172Y004566D01*
X017561Y004566D01*
X017199Y004555D02*
X017199Y004758D01*
X017097Y004860D01*
X017097Y005062D02*
X017199Y005062D01*
X017199Y005164D01*
X017097Y005164D01*
X017097Y005062D01*
X017097Y005365D02*
X016996Y005365D01*
X016894Y005466D01*
X016894Y005568D01*
X016894Y005466D02*
X016792Y005365D01*
X016690Y005365D01*
X016589Y005466D01*
X016589Y005670D01*
X016690Y005772D01*
X016589Y005972D02*
X016996Y005972D01*
X017199Y006176D01*
X016996Y006379D01*
X016589Y006379D01*
X016085Y005986D02*
X015475Y005986D01*
X015475Y005680D01*
X015577Y005579D01*
X015780Y005579D01*
X015882Y005680D01*
X015882Y005986D01*
X015882Y005782D02*
X016085Y005579D01*
X015984Y005378D02*
X016085Y005276D01*
X016085Y005073D01*
X015984Y004971D01*
X015882Y004971D01*
X015780Y005073D01*
X015780Y005276D01*
X015678Y005378D01*
X015577Y005378D01*
X015475Y005276D01*
X015475Y005073D01*
X015577Y004971D01*
X015475Y004770D02*
X015475Y004363D01*
X015475Y004567D02*
X016085Y004567D01*
X016589Y004555D02*
X016589Y004758D01*
X016690Y004860D01*
X016894Y004656D02*
X016894Y004555D01*
X016996Y004453D01*
X017097Y004453D01*
X017199Y004555D01*
X016894Y004555D02*
X016792Y004453D01*
X016690Y004453D01*
X016589Y004555D01*
X017097Y005365D02*
X017199Y005466D01*
X017199Y005670D01*
X017097Y005772D01*
X017561Y005579D02*
X017968Y005579D01*
X018172Y005782D01*
X017968Y005986D01*
X017561Y005986D01*
X018593Y005884D02*
X018593Y005680D01*
X018695Y005579D01*
X018898Y005579D02*
X018898Y005782D01*
X018898Y005579D02*
X019102Y005579D01*
X019203Y005680D01*
X019203Y005884D01*
X019102Y005986D01*
X018695Y005986D01*
X018593Y005884D01*
X018593Y005378D02*
X019203Y004971D01*
X019203Y005378D02*
X018593Y005378D01*
X018172Y005378D02*
X018172Y005174D01*
X018172Y005276D02*
X017561Y005276D01*
X017561Y005378D02*
X017561Y005174D01*
X019577Y005378D02*
X020188Y004971D01*
X020188Y005378D02*
X019577Y005378D01*
X019679Y005579D02*
X019577Y005680D01*
X019577Y005884D01*
X019679Y005986D01*
X020086Y005986D01*
X020188Y005884D01*
X020188Y005680D01*
X020086Y005579D01*
X019882Y005579D01*
X019882Y005782D01*
X020711Y005579D02*
X021118Y005579D01*
X021322Y005782D01*
X021118Y005986D01*
X020711Y005986D01*
X020711Y004973D02*
X021322Y004973D01*
D14*
X030464Y012837D03*
D15*
X019172Y010458D02*
X019172Y009245D01*
X018660Y008851D02*
X017683Y008851D01*
X017172Y009245D02*
X017172Y010458D01*
X017672Y010851D02*
X018660Y010851D01*
X017672Y009851D02*
X017674Y009895D01*
X017680Y009939D01*
X017690Y009982D01*
X017703Y010024D01*
X017720Y010065D01*
X017741Y010104D01*
X017765Y010141D01*
X017792Y010176D01*
X017822Y010208D01*
X017855Y010238D01*
X017891Y010264D01*
X017928Y010288D01*
X017968Y010307D01*
X018009Y010324D01*
X018052Y010336D01*
X018095Y010345D01*
X018139Y010350D01*
X018183Y010351D01*
X018227Y010348D01*
X018271Y010341D01*
X018314Y010330D01*
X018356Y010316D01*
X018396Y010298D01*
X018435Y010276D01*
X018471Y010252D01*
X018505Y010224D01*
X018537Y010193D01*
X018566Y010159D01*
X018592Y010123D01*
X018614Y010085D01*
X018633Y010045D01*
X018648Y010003D01*
X018660Y009961D01*
X018668Y009917D01*
X018672Y009873D01*
X018672Y009829D01*
X018668Y009785D01*
X018660Y009741D01*
X018648Y009699D01*
X018633Y009657D01*
X018614Y009617D01*
X018592Y009579D01*
X018566Y009543D01*
X018537Y009509D01*
X018505Y009478D01*
X018471Y009450D01*
X018435Y009426D01*
X018396Y009404D01*
X018356Y009386D01*
X018314Y009372D01*
X018271Y009361D01*
X018227Y009354D01*
X018183Y009351D01*
X018139Y009352D01*
X018095Y009357D01*
X018052Y009366D01*
X018009Y009378D01*
X017968Y009395D01*
X017928Y009414D01*
X017891Y009438D01*
X017855Y009464D01*
X017822Y009494D01*
X017792Y009526D01*
X017765Y009561D01*
X017741Y009598D01*
X017720Y009637D01*
X017703Y009678D01*
X017690Y009720D01*
X017680Y009763D01*
X017674Y009807D01*
X017672Y009851D01*
D16*
X017751Y010977D03*
X024411Y009257D03*
X016971Y017557D03*
X013771Y017857D03*
X014031Y020937D03*
D17*
X017671Y020707D03*
X019391Y018487D03*
X017811Y017667D03*
X017771Y017687D03*
X017751Y017687D03*
X017191Y017567D03*
X017171Y017567D03*
X016831Y016507D03*
X013691Y017887D03*
X016431Y014127D03*
X018951Y013167D03*
X017651Y010827D03*
X017631Y010787D03*
X017611Y010767D03*
X017551Y010667D03*
X017511Y010587D03*
X017491Y010587D03*
X017371Y010407D03*
X019651Y009967D03*
X019691Y009927D03*
X019711Y009907D03*
X019731Y009907D03*
X019771Y009887D03*
X019791Y009867D03*
X019811Y009867D03*
X017551Y008727D03*
X024391Y009267D03*
D18*
X024371Y009267D03*
X023411Y007447D03*
X019631Y009987D03*
X017351Y010387D03*
X017331Y010347D03*
X017271Y010287D03*
X017251Y010267D03*
X017191Y010187D03*
X017171Y010167D03*
X017091Y010067D03*
X017071Y010067D03*
X017051Y010027D03*
X016351Y012527D03*
X016371Y012567D03*
X016391Y014187D03*
X018891Y013107D03*
X018931Y013147D03*
X021911Y011827D03*
X023571Y012387D03*
X020331Y016467D03*
X019131Y017087D03*
X018811Y017267D03*
X018791Y017287D03*
X018751Y017307D03*
X018731Y017327D03*
X018711Y017327D03*
X018691Y017327D03*
X018671Y017327D03*
X018591Y017367D03*
X018571Y017367D03*
X018531Y017387D03*
X018491Y017407D03*
X018471Y017407D03*
X018391Y017447D03*
X018351Y017467D03*
X018331Y017467D03*
X018291Y017487D03*
X018251Y017507D03*
X018231Y017507D03*
X018151Y017547D03*
X018131Y017547D03*
X018111Y017547D03*
X018091Y017567D03*
X018051Y017587D03*
X018031Y017587D03*
X018011Y017587D03*
X017971Y017607D03*
X017951Y017627D03*
X017931Y017627D03*
X017891Y017647D03*
X016411Y016247D03*
X014051Y020967D03*
D19*
X013611Y017937D03*
X016391Y016257D03*
X016791Y016537D03*
X019331Y018497D03*
X016331Y014297D03*
X016351Y014257D03*
X016331Y012497D03*
X018851Y013037D03*
X019591Y010057D03*
X016711Y009717D03*
X016671Y009677D03*
X016631Y009637D03*
X016531Y009557D03*
X024351Y009277D03*
D20*
X024331Y009267D03*
X023391Y007447D03*
X020971Y010567D03*
X020791Y011747D03*
X018831Y013007D03*
X020491Y013467D03*
X023531Y012367D03*
X016291Y012427D03*
X016271Y012407D03*
X016311Y014327D03*
X014791Y014587D03*
X016651Y009647D03*
X016611Y009627D03*
X016591Y009607D03*
X016571Y009587D03*
X016551Y009567D03*
X016511Y009527D03*
X016491Y009527D03*
X016471Y009507D03*
X016431Y009487D03*
X016411Y009467D03*
X016351Y009427D03*
D21*
X016371Y009437D03*
X016391Y009457D03*
X016451Y009497D03*
X016331Y009397D03*
X016311Y009397D03*
X016251Y009357D03*
X016231Y009337D03*
X016251Y012377D03*
X018711Y012697D03*
X016291Y014377D03*
X013591Y017957D03*
X012491Y019637D03*
X014071Y020957D03*
X017651Y020697D03*
X019291Y018497D03*
X019311Y018497D03*
X024311Y009277D03*
D22*
X024291Y009277D03*
X024271Y009277D03*
X021891Y011817D03*
X023471Y012357D03*
X023491Y012357D03*
X016271Y014397D03*
X016211Y012297D03*
X016131Y009277D03*
X016051Y009237D03*
X016011Y009197D03*
X015971Y009177D03*
X015951Y009177D03*
X015891Y009137D03*
X015831Y009097D03*
X013571Y017977D03*
X012511Y019617D03*
D23*
X016351Y016287D03*
X016211Y014507D03*
X016151Y012167D03*
X019551Y010147D03*
X020831Y011687D03*
X024231Y009287D03*
X024251Y009287D03*
X023331Y007447D03*
X015691Y009027D03*
X015651Y009007D03*
X015611Y008987D03*
X015591Y008987D03*
X015531Y008947D03*
X015471Y008927D03*
X015451Y008927D03*
X015431Y008907D03*
X015391Y008887D03*
X015371Y008887D03*
X015271Y008847D03*
X020431Y016127D03*
X019171Y018487D03*
X019151Y018487D03*
X019131Y018487D03*
D24*
X017491Y018237D03*
X017631Y020697D03*
X016171Y014577D03*
X014811Y014657D03*
X016131Y012137D03*
X016111Y012117D03*
X019531Y010177D03*
X023431Y012357D03*
X024211Y009277D03*
X015351Y008877D03*
X015331Y008877D03*
X015311Y008857D03*
X015291Y008857D03*
X015251Y008837D03*
X015191Y008817D03*
X015171Y008817D03*
X015151Y008797D03*
X015131Y008797D03*
X015091Y008777D03*
X015071Y008777D03*
D25*
X015051Y008767D03*
X015031Y008767D03*
X014991Y008747D03*
X014971Y008747D03*
X014951Y008747D03*
X014931Y008727D03*
X014911Y008727D03*
X015111Y008787D03*
X015211Y008827D03*
X015231Y008827D03*
X019511Y010187D03*
X023411Y012347D03*
X018971Y013047D03*
X024191Y009287D03*
X023311Y007467D03*
X013511Y018027D03*
X013491Y018027D03*
X012551Y019607D03*
X019071Y018487D03*
X019091Y018487D03*
X019111Y018487D03*
D26*
X019051Y018497D03*
X019031Y018497D03*
X019011Y018497D03*
X014091Y020917D03*
X016131Y014677D03*
X016151Y014637D03*
X020511Y013477D03*
X023391Y012337D03*
X020851Y011657D03*
X024171Y009297D03*
X023291Y007477D03*
X015011Y008757D03*
X014891Y008717D03*
X014831Y008697D03*
X014811Y008697D03*
X014791Y008697D03*
X014751Y008677D03*
X014731Y008677D03*
D27*
X014711Y008667D03*
X014691Y008667D03*
X014671Y008667D03*
X014611Y008647D03*
X014531Y008627D03*
X014511Y008627D03*
X014491Y008627D03*
X014771Y008687D03*
X014851Y008707D03*
X014871Y008707D03*
X016071Y012027D03*
X016091Y012067D03*
X016111Y014687D03*
X016331Y016287D03*
X016871Y016967D03*
X018471Y018687D03*
X018411Y018727D03*
X018351Y018767D03*
X018331Y018767D03*
X018551Y018627D03*
X018571Y018627D03*
X018651Y018587D03*
X018771Y018547D03*
X018791Y018547D03*
X018931Y018507D03*
X018951Y018507D03*
X018971Y018507D03*
X018991Y018507D03*
X013471Y018047D03*
X013451Y018047D03*
X012571Y019587D03*
X023371Y012327D03*
X024131Y009307D03*
X024151Y009307D03*
X023271Y007487D03*
D28*
X024091Y009317D03*
X024111Y009317D03*
X020951Y010577D03*
X018991Y011897D03*
X018871Y012297D03*
X020531Y013477D03*
X023351Y012317D03*
X017611Y008737D03*
X014651Y008657D03*
X014631Y008657D03*
X014591Y008637D03*
X014571Y008637D03*
X014551Y008637D03*
X014471Y008617D03*
X014451Y008617D03*
X014431Y008617D03*
X016051Y011977D03*
X018611Y018597D03*
X018631Y018597D03*
X018671Y018577D03*
X018691Y018577D03*
X018731Y018557D03*
X018751Y018557D03*
X018811Y018537D03*
X018831Y018537D03*
X018871Y018517D03*
X018891Y018517D03*
X018911Y018517D03*
X018591Y018617D03*
X018531Y018637D03*
X018511Y018657D03*
X018491Y018677D03*
X018451Y018697D03*
X018391Y018737D03*
X018371Y018757D03*
X018311Y018777D03*
X018291Y018777D03*
D29*
X018271Y018787D03*
X018251Y018787D03*
X018231Y018787D03*
X018431Y018707D03*
X018711Y018567D03*
X018851Y018527D03*
X017471Y018227D03*
X017611Y020687D03*
X014111Y020907D03*
X012591Y019587D03*
X013411Y018067D03*
X013431Y018067D03*
X016091Y014767D03*
X018851Y012347D03*
X018891Y012207D03*
X018911Y012167D03*
X018931Y012067D03*
X018971Y011947D03*
X019491Y010267D03*
X017631Y008727D03*
X014411Y008607D03*
X014391Y008607D03*
X014371Y008607D03*
X014351Y008607D03*
X016031Y011947D03*
X023331Y012307D03*
X024051Y009327D03*
X024071Y009327D03*
X023251Y007487D03*
D30*
X023231Y007497D03*
X024011Y009337D03*
X024031Y009337D03*
X020931Y010577D03*
X018951Y012037D03*
X018831Y012377D03*
X018991Y012997D03*
X016071Y014797D03*
X016051Y014837D03*
X016031Y014857D03*
X016311Y016297D03*
X013391Y018077D03*
X017831Y018877D03*
X018111Y018797D03*
X018131Y018797D03*
X018151Y018797D03*
X018171Y018797D03*
X018191Y018797D03*
X018211Y018797D03*
X023311Y012297D03*
X014331Y008597D03*
X014311Y008597D03*
X014291Y008597D03*
X014271Y008597D03*
X014251Y008597D03*
X014191Y008577D03*
X014171Y008577D03*
D31*
X014151Y008567D03*
X014131Y008567D03*
X014111Y008567D03*
X014091Y008567D03*
X014071Y008567D03*
X014051Y008567D03*
X014031Y008567D03*
X014211Y008587D03*
X014231Y008587D03*
X016011Y011887D03*
X019471Y010307D03*
X023951Y009347D03*
X023971Y009347D03*
X023991Y009347D03*
X023211Y007507D03*
X014831Y014707D03*
X013371Y018087D03*
X013351Y018087D03*
X012611Y019587D03*
X017771Y018907D03*
X017791Y018887D03*
X017811Y018887D03*
X017851Y018867D03*
X017871Y018867D03*
X017911Y018847D03*
X018051Y018807D03*
X018071Y018807D03*
X018091Y018807D03*
D32*
X018031Y018817D03*
X018011Y018817D03*
X017991Y018817D03*
X017971Y018817D03*
X017931Y018837D03*
X017891Y018857D03*
X017751Y018897D03*
X017731Y018897D03*
X017711Y018897D03*
X023271Y012297D03*
X023291Y012297D03*
X023251Y012277D03*
X019451Y010357D03*
X023911Y009357D03*
X023931Y009357D03*
X023191Y007517D03*
X014011Y008557D03*
X013991Y008557D03*
X013971Y008557D03*
X013951Y008557D03*
D33*
X013931Y008547D03*
X013911Y008547D03*
X013891Y008547D03*
X013871Y008547D03*
X013851Y008547D03*
X013831Y008547D03*
X013811Y008547D03*
X013791Y008547D03*
X013771Y008547D03*
X013751Y008547D03*
X013731Y008547D03*
X013711Y008547D03*
X013691Y008547D03*
X013671Y008547D03*
X013651Y008547D03*
X013631Y008547D03*
X013611Y008547D03*
X013591Y008547D03*
X017651Y008747D03*
X019431Y010367D03*
X020911Y010587D03*
X023251Y009507D03*
X023311Y009487D03*
X023331Y009467D03*
X023351Y009467D03*
X023811Y009367D03*
X023831Y009367D03*
X023851Y009367D03*
X023871Y009367D03*
X023891Y009367D03*
X023171Y007527D03*
X023151Y007527D03*
X015991Y011847D03*
X018751Y012687D03*
X023231Y012267D03*
X020331Y016007D03*
X017951Y018827D03*
D34*
X017691Y018897D03*
X017671Y018897D03*
X017651Y018897D03*
X017591Y018937D03*
X017571Y018937D03*
X013331Y018097D03*
X012651Y019557D03*
X012631Y019557D03*
X016011Y014937D03*
X018771Y012677D03*
X020551Y013477D03*
X023211Y012257D03*
X020891Y011597D03*
X020871Y011597D03*
X023231Y009517D03*
X023271Y009497D03*
X023291Y009497D03*
X023371Y009457D03*
X023391Y009457D03*
X023411Y009457D03*
X023431Y009457D03*
X023591Y009417D03*
X023611Y009417D03*
X023731Y009397D03*
X023751Y009397D03*
X023771Y009397D03*
X023791Y009377D03*
X023111Y007557D03*
X023131Y007537D03*
X015971Y011797D03*
X015491Y010617D03*
X013571Y008557D03*
X020311Y015997D03*
D35*
X020291Y015987D03*
X020411Y016147D03*
X016891Y016967D03*
X016291Y016307D03*
X015991Y014967D03*
X015951Y011767D03*
X013551Y008547D03*
X013531Y008547D03*
X013511Y008547D03*
X013491Y008547D03*
X013471Y008547D03*
X013451Y008547D03*
X013431Y008547D03*
X013411Y008547D03*
X013391Y008547D03*
X013371Y008547D03*
X013351Y008547D03*
X013331Y008547D03*
X013311Y008547D03*
X013291Y008547D03*
X013271Y008547D03*
X023091Y007567D03*
X023451Y009447D03*
X023471Y009447D03*
X023491Y009447D03*
X023551Y009427D03*
X023571Y009427D03*
X023631Y009407D03*
X023651Y009407D03*
X023671Y009407D03*
X023691Y009407D03*
X023711Y009407D03*
X023211Y009527D03*
X023191Y009527D03*
X023171Y009527D03*
X023091Y009547D03*
X023191Y012247D03*
X013311Y018107D03*
X013291Y018107D03*
X013271Y018107D03*
X017551Y018947D03*
X017611Y018907D03*
X017631Y018907D03*
X017591Y020667D03*
D36*
X013731Y017877D03*
X016851Y016497D03*
X017291Y017637D03*
X017311Y017637D03*
X017331Y017637D03*
X017351Y017657D03*
X017371Y017677D03*
X019271Y017077D03*
X019291Y017057D03*
X019331Y017037D03*
X019351Y017037D03*
X019371Y017017D03*
X019391Y017017D03*
X019451Y016997D03*
X019471Y016977D03*
X019491Y016977D03*
X019511Y016957D03*
X019531Y016957D03*
X019551Y016957D03*
X019571Y016957D03*
X019591Y016937D03*
X019611Y016917D03*
X019631Y016917D03*
X019691Y016897D03*
X019731Y016877D03*
X019791Y016857D03*
X019831Y016837D03*
X019851Y016837D03*
X019891Y016817D03*
X019911Y016817D03*
X019951Y016797D03*
X019971Y016777D03*
X019991Y016777D03*
X020031Y016757D03*
X020051Y016737D03*
X020071Y016737D03*
X020111Y016717D03*
X020131Y016697D03*
X020171Y016677D03*
X020191Y016657D03*
X020251Y016597D03*
X023611Y012377D03*
X021931Y011837D03*
X020751Y011837D03*
X017731Y010937D03*
D37*
X017711Y010927D03*
X017671Y010847D03*
X019831Y009847D03*
X019851Y009847D03*
X019891Y009827D03*
X019931Y009807D03*
X019951Y009807D03*
X023591Y012387D03*
X020471Y013467D03*
X016451Y014107D03*
X016411Y012607D03*
X020291Y016547D03*
X020231Y016627D03*
X020211Y016647D03*
X020151Y016687D03*
X020091Y016727D03*
X019871Y016827D03*
X019811Y016847D03*
X019771Y016867D03*
X019751Y016867D03*
X019671Y016907D03*
X019651Y016907D03*
X019431Y017007D03*
X019411Y017007D03*
X019311Y017047D03*
X019251Y017087D03*
X019231Y017087D03*
X019211Y017087D03*
X019191Y017087D03*
X019171Y017087D03*
X017631Y017707D03*
X017611Y017707D03*
X017591Y017707D03*
X017571Y017707D03*
X017551Y017707D03*
X017531Y017707D03*
X017511Y017707D03*
X017491Y017707D03*
X017471Y017707D03*
X017411Y017687D03*
X017391Y017687D03*
X017271Y017607D03*
X017251Y017607D03*
X017231Y017587D03*
X017211Y017587D03*
X017531Y018267D03*
X019411Y018487D03*
D38*
X018371Y017457D03*
X017911Y017637D03*
X016811Y016517D03*
X013651Y017917D03*
X018871Y013057D03*
X017391Y010437D03*
X017211Y010217D03*
X017151Y010137D03*
X017131Y010117D03*
X017031Y010017D03*
X017011Y009997D03*
X016991Y009977D03*
X016971Y009957D03*
X016951Y009937D03*
X016911Y009897D03*
X016891Y009877D03*
X016871Y009857D03*
X016851Y009837D03*
X019611Y010017D03*
X023551Y012377D03*
D39*
X023171Y012237D03*
X020571Y013477D03*
X015931Y011737D03*
X017671Y008757D03*
X013251Y008557D03*
X013231Y008557D03*
X013211Y008557D03*
X023051Y007577D03*
X023071Y007577D03*
X023511Y009437D03*
X023531Y009437D03*
X023151Y009537D03*
X023131Y009537D03*
X023111Y009537D03*
X023071Y009557D03*
X023051Y009557D03*
X016271Y016317D03*
X017511Y018957D03*
X017531Y018957D03*
X014131Y020857D03*
X012671Y019537D03*
D40*
X019251Y018487D03*
X019271Y018487D03*
X016251Y014407D03*
X016231Y012327D03*
X019571Y010087D03*
X017571Y008727D03*
X016291Y009387D03*
X016271Y009367D03*
X016211Y009327D03*
X016191Y009307D03*
X016171Y009307D03*
X016151Y009287D03*
X016111Y009267D03*
X016091Y009247D03*
X016071Y009247D03*
X016031Y009227D03*
X020811Y011727D03*
X023511Y012367D03*
X023371Y007447D03*
D41*
X023351Y007457D03*
X019271Y011557D03*
X018731Y012697D03*
X016191Y012257D03*
X016171Y012237D03*
X016231Y014477D03*
X016191Y014557D03*
X013531Y017997D03*
X012531Y019617D03*
X019191Y018497D03*
X023451Y012357D03*
X015791Y009077D03*
X015771Y009077D03*
X015711Y009037D03*
X015671Y009017D03*
X015631Y008997D03*
X015571Y008977D03*
X015551Y008957D03*
X015511Y008937D03*
X015491Y008937D03*
X015411Y008897D03*
D42*
X017231Y010237D03*
X017291Y010317D03*
X017311Y010337D03*
X017411Y010457D03*
X017431Y010497D03*
X017451Y010517D03*
X017471Y010557D03*
X017531Y010637D03*
X017571Y010697D03*
X017591Y010717D03*
X019671Y009957D03*
X020771Y011797D03*
X018911Y013117D03*
X016411Y014177D03*
X014771Y014577D03*
X018431Y017417D03*
X018451Y017417D03*
X018411Y017437D03*
X018511Y017397D03*
X018551Y017377D03*
X018611Y017357D03*
X018631Y017357D03*
X018651Y017337D03*
X018771Y017297D03*
X018311Y017477D03*
X018271Y017497D03*
X018211Y017517D03*
X018191Y017537D03*
X018171Y017537D03*
X018071Y017577D03*
X017991Y017597D03*
X017871Y017657D03*
X017851Y017657D03*
X017831Y017657D03*
X017791Y017677D03*
X019371Y018497D03*
X013671Y017897D03*
X012471Y019637D03*
X023431Y007437D03*
D43*
X023031Y007587D03*
X023011Y007607D03*
X022991Y007607D03*
X022971Y007627D03*
X022951Y007627D03*
X022971Y009567D03*
X022991Y009567D03*
X023011Y009567D03*
X023031Y009567D03*
X020911Y011567D03*
X019091Y011447D03*
X019011Y011687D03*
X015911Y011667D03*
X013191Y008567D03*
X013171Y008567D03*
X013151Y008567D03*
X013131Y008567D03*
X013111Y008567D03*
X013091Y008567D03*
X013071Y008567D03*
X013051Y008567D03*
X023111Y012207D03*
X023151Y012227D03*
X015971Y015027D03*
X016911Y016967D03*
X017491Y018947D03*
X017571Y020667D03*
X013251Y018107D03*
X013231Y018107D03*
X013211Y018107D03*
X013191Y018107D03*
X013171Y018107D03*
X013151Y018107D03*
X013131Y018107D03*
X013111Y018107D03*
X012691Y019527D03*
D44*
X012711Y019517D03*
X014151Y020837D03*
X013091Y018097D03*
X013071Y018097D03*
X013051Y018097D03*
X013031Y018097D03*
X013011Y018077D03*
X012991Y018077D03*
X012971Y018077D03*
X012951Y018077D03*
X016251Y016317D03*
X020271Y015977D03*
X020591Y013457D03*
X023071Y012177D03*
X023091Y012197D03*
X023131Y012217D03*
X019411Y010457D03*
X019071Y011497D03*
X019051Y011597D03*
X019031Y011637D03*
X015891Y011637D03*
X017691Y008757D03*
X013031Y008577D03*
X013011Y008577D03*
X012991Y008577D03*
X012971Y008577D03*
X012931Y008597D03*
X012911Y008597D03*
X012891Y008597D03*
X012871Y008597D03*
X012851Y008597D03*
X022831Y007697D03*
X022851Y007697D03*
X022871Y007677D03*
X022911Y009557D03*
X022931Y009557D03*
X022951Y009557D03*
D45*
X022891Y009567D03*
X022871Y009567D03*
X022711Y007767D03*
X022751Y007747D03*
X022771Y007727D03*
X022811Y007707D03*
X022891Y007667D03*
X022911Y007647D03*
X022931Y007647D03*
X019391Y010487D03*
X018791Y012687D03*
X019011Y012947D03*
X015951Y015067D03*
X016131Y017327D03*
X016151Y017327D03*
X017471Y018927D03*
X020391Y016127D03*
X020251Y015967D03*
X023051Y012167D03*
X012951Y008587D03*
X012831Y008607D03*
X012811Y008607D03*
X012851Y018067D03*
X012871Y018067D03*
X012891Y018067D03*
X012911Y018067D03*
X012931Y018067D03*
X012771Y019467D03*
X012751Y019487D03*
X012731Y019507D03*
D46*
X012791Y019457D03*
X012811Y018057D03*
X012831Y018057D03*
X016171Y017317D03*
X015931Y015097D03*
X019111Y011357D03*
X019131Y011337D03*
X019331Y010657D03*
X019351Y010617D03*
X019371Y010517D03*
X020891Y010577D03*
X022611Y009617D03*
X022631Y009617D03*
X022691Y009597D03*
X022711Y009597D03*
X022751Y009577D03*
X022771Y009577D03*
X022791Y009577D03*
X022811Y009577D03*
X022831Y009577D03*
X022851Y009577D03*
X021811Y008397D03*
X021731Y008437D03*
X022731Y007757D03*
X022791Y007717D03*
X017731Y008757D03*
X017711Y008757D03*
X015511Y010617D03*
X012791Y008617D03*
X012771Y008617D03*
X012751Y008617D03*
X012731Y008617D03*
X012711Y008617D03*
X012691Y008617D03*
X023011Y012137D03*
X023031Y012157D03*
D47*
X022991Y012107D03*
X022971Y012107D03*
X019271Y010867D03*
X022591Y009627D03*
X022651Y009607D03*
X022671Y009607D03*
X022731Y009587D03*
X021771Y008427D03*
X021751Y008427D03*
X021791Y008407D03*
X021871Y008347D03*
X022691Y007787D03*
X019031Y012927D03*
X016231Y016327D03*
X016931Y016967D03*
X016191Y017307D03*
X012791Y018047D03*
X012771Y018047D03*
X012751Y018047D03*
X012731Y018047D03*
X012711Y018047D03*
X012691Y018047D03*
X012651Y018027D03*
X012571Y018007D03*
X012551Y018007D03*
X012491Y017987D03*
X012811Y019447D03*
X012671Y008627D03*
X012651Y008627D03*
X012631Y008627D03*
D48*
X012611Y008637D03*
X012591Y008637D03*
X012571Y008657D03*
X012551Y008657D03*
X012531Y008657D03*
X012471Y008677D03*
X015851Y011517D03*
X015871Y011557D03*
X020611Y013437D03*
X020631Y013437D03*
X022931Y012077D03*
X022951Y012097D03*
X020931Y011517D03*
X022191Y009777D03*
X022211Y009777D03*
X022231Y009777D03*
X022271Y009757D03*
X022291Y009737D03*
X022311Y009737D03*
X022371Y009717D03*
X022471Y009677D03*
X022491Y009677D03*
X022511Y009657D03*
X022531Y009657D03*
X022551Y009637D03*
X022571Y009637D03*
X021711Y008457D03*
X021671Y008477D03*
X021651Y008497D03*
X021831Y008377D03*
X021851Y008357D03*
X021891Y008337D03*
X021911Y008317D03*
X021931Y008317D03*
X021951Y008297D03*
X022671Y007817D03*
X015911Y015157D03*
X015891Y015197D03*
X016211Y017297D03*
X012671Y018037D03*
X012631Y018017D03*
X012611Y018017D03*
X012591Y018017D03*
X012531Y017997D03*
X012511Y017997D03*
X012471Y017977D03*
X012451Y017977D03*
X012431Y017977D03*
X012871Y019397D03*
X012851Y019417D03*
X012831Y019437D03*
X014171Y020817D03*
X017551Y020657D03*
X020371Y016137D03*
X020231Y015977D03*
D49*
X020211Y015987D03*
X016231Y017287D03*
X012971Y019327D03*
X012911Y019367D03*
X012891Y019387D03*
X012411Y017967D03*
X012391Y017967D03*
X017531Y020647D03*
X020651Y013407D03*
X022891Y012047D03*
X022911Y012067D03*
X019311Y010727D03*
X022131Y009807D03*
X022151Y009787D03*
X022171Y009787D03*
X022251Y009767D03*
X022331Y009727D03*
X022351Y009727D03*
X022391Y009707D03*
X022411Y009687D03*
X022431Y009687D03*
X022451Y009687D03*
X021691Y008467D03*
X021971Y008287D03*
X021991Y008287D03*
X022011Y008267D03*
X022051Y008247D03*
X022071Y008227D03*
X022591Y007867D03*
X022611Y007867D03*
X022631Y007847D03*
X022651Y007827D03*
X017751Y008767D03*
X012511Y008667D03*
X012491Y008667D03*
X012451Y008687D03*
X012431Y008687D03*
X012411Y008687D03*
X012391Y008687D03*
D50*
X012271Y008727D03*
X012251Y008747D03*
X012231Y008747D03*
X012151Y008767D03*
X015811Y011427D03*
X017931Y008847D03*
X017951Y008847D03*
X017971Y008867D03*
X017991Y008867D03*
X018031Y008887D03*
X017891Y008827D03*
X017871Y008807D03*
X017851Y008807D03*
X017831Y008807D03*
X020871Y010587D03*
X022051Y009847D03*
X022071Y009847D03*
X021611Y008527D03*
X022111Y008207D03*
X022171Y008167D03*
X022191Y008167D03*
X022211Y008147D03*
X022231Y008127D03*
X022251Y008127D03*
X022271Y008107D03*
X022291Y008107D03*
X022311Y008087D03*
X022331Y008087D03*
X022351Y008067D03*
X022391Y008027D03*
X022411Y008027D03*
X022431Y008007D03*
X022451Y007987D03*
X022511Y007947D03*
X022551Y007907D03*
X020951Y011487D03*
X022831Y011987D03*
X022871Y012027D03*
X020891Y013147D03*
X020671Y013387D03*
X016211Y016327D03*
X016251Y017267D03*
X016271Y017267D03*
X016291Y017267D03*
X013491Y018867D03*
X013471Y018867D03*
X013431Y018907D03*
X013411Y018907D03*
X013391Y018947D03*
X013371Y018947D03*
X013271Y019047D03*
X013211Y019127D03*
X013191Y019127D03*
X013131Y019187D03*
X013111Y019207D03*
X013091Y019227D03*
X013071Y019247D03*
X013051Y019267D03*
X013031Y019267D03*
X012991Y019307D03*
X012311Y017947D03*
X012251Y017927D03*
X012231Y017907D03*
X012211Y017907D03*
X012191Y017907D03*
X012171Y017907D03*
X012151Y017907D03*
X014851Y014847D03*
D51*
X019051Y012917D03*
X020871Y013177D03*
X022851Y011997D03*
X019291Y010777D03*
X019151Y011277D03*
X022091Y009817D03*
X022111Y009817D03*
X021631Y008517D03*
X022031Y008257D03*
X022091Y008217D03*
X022131Y008197D03*
X022151Y008177D03*
X022371Y008037D03*
X022471Y007977D03*
X022491Y007957D03*
X022531Y007937D03*
X022571Y007897D03*
X017811Y008797D03*
X017791Y008777D03*
X017771Y008777D03*
X015831Y011457D03*
X012371Y008697D03*
X012351Y008697D03*
X012331Y008717D03*
X012311Y008717D03*
X012291Y008717D03*
X008171Y013317D03*
X012271Y017937D03*
X012291Y017937D03*
X012331Y017957D03*
X012351Y017957D03*
X012371Y017957D03*
X013011Y019297D03*
X012951Y019337D03*
X012931Y019357D03*
X014191Y020797D03*
X020351Y016137D03*
X020191Y015977D03*
D52*
X016951Y016957D03*
X016191Y016337D03*
X012131Y017897D03*
X012111Y017877D03*
X012091Y017877D03*
X012051Y017857D03*
X013351Y018957D03*
X013331Y018997D03*
X013311Y018997D03*
X013291Y019037D03*
X013251Y019077D03*
X013231Y019097D03*
X013171Y019137D03*
X013151Y019177D03*
X013451Y018877D03*
X013511Y018857D03*
X020691Y013377D03*
X020751Y013317D03*
X020851Y013217D03*
X018811Y012657D03*
X019171Y011257D03*
X018191Y008957D03*
X018171Y008957D03*
X018151Y008957D03*
X018131Y008937D03*
X018111Y008937D03*
X018091Y008917D03*
X018051Y008897D03*
X018011Y008877D03*
X017911Y008837D03*
X021591Y008537D03*
X022771Y011937D03*
X022811Y011957D03*
X012211Y008757D03*
X012191Y008757D03*
X012171Y008757D03*
X012131Y008777D03*
X012071Y008797D03*
X012051Y008797D03*
D53*
X012031Y008807D03*
X011991Y008827D03*
X011971Y008827D03*
X012091Y008787D03*
X012111Y008787D03*
X015791Y011327D03*
X018071Y008907D03*
X018211Y008967D03*
X018231Y008967D03*
X018251Y008987D03*
X018271Y008987D03*
X018291Y009007D03*
X018311Y009007D03*
X018331Y009007D03*
X018351Y009027D03*
X018371Y009027D03*
X018391Y009047D03*
X018411Y009047D03*
X018431Y009047D03*
X022011Y009867D03*
X022031Y009867D03*
X022711Y011867D03*
X022731Y011887D03*
X022751Y011907D03*
X022791Y011947D03*
X020831Y013227D03*
X020811Y013267D03*
X020791Y013267D03*
X020771Y013307D03*
X020731Y013327D03*
X020171Y015987D03*
X013571Y018807D03*
X013531Y018827D03*
X012071Y017867D03*
X012031Y017847D03*
X012011Y017847D03*
X011991Y017847D03*
X011971Y017847D03*
D54*
X011951Y017837D03*
X011931Y017817D03*
X011891Y017797D03*
X011871Y017797D03*
X013551Y018817D03*
X013591Y018777D03*
X014211Y020757D03*
X017511Y020637D03*
X016311Y017257D03*
X016971Y016957D03*
X016171Y016337D03*
X020151Y015977D03*
X020711Y013357D03*
X022691Y011857D03*
X018551Y009097D03*
X018531Y009097D03*
X018511Y009097D03*
X018491Y009077D03*
X018471Y009077D03*
X018451Y009057D03*
X012011Y008817D03*
X011951Y008837D03*
X011931Y008837D03*
X011891Y008857D03*
D55*
X011911Y008847D03*
X011871Y008867D03*
X011851Y008887D03*
X011831Y008887D03*
X015751Y011267D03*
X015771Y011307D03*
X018571Y009107D03*
X021571Y008567D03*
X020971Y011447D03*
X022671Y011807D03*
X016331Y017247D03*
X013611Y018767D03*
X011911Y017807D03*
X011851Y017787D03*
X011831Y017787D03*
X011791Y017767D03*
X014231Y020747D03*
X017491Y020627D03*
D56*
X013651Y018717D03*
X013631Y018737D03*
X011811Y017777D03*
X011771Y017757D03*
X011731Y017737D03*
X011691Y017717D03*
X016991Y016957D03*
X017011Y016957D03*
X021071Y012757D03*
X022611Y011737D03*
X022631Y011757D03*
X022651Y011797D03*
X022511Y011617D03*
X022471Y011557D03*
X022431Y011517D03*
X022391Y011477D03*
X021991Y009897D03*
X018591Y009117D03*
X011811Y008897D03*
X011791Y008897D03*
X011771Y008897D03*
X011751Y008917D03*
X011711Y008937D03*
D57*
X011671Y008957D03*
X011651Y008957D03*
X011631Y008957D03*
X011611Y008977D03*
X011591Y008977D03*
X011571Y008997D03*
X011551Y009017D03*
X015531Y010637D03*
X015711Y011137D03*
X015731Y011177D03*
X018611Y009157D03*
X022311Y011417D03*
X022331Y011437D03*
X022371Y011457D03*
X022531Y011637D03*
X022591Y011717D03*
X021031Y012817D03*
X020971Y012897D03*
X020911Y013017D03*
X019071Y012857D03*
X020091Y015977D03*
X020111Y015977D03*
X016351Y017217D03*
X016131Y016337D03*
X011591Y017677D03*
X011571Y017657D03*
X011551Y017657D03*
X014271Y020697D03*
D58*
X014251Y020727D03*
X017471Y020607D03*
X011751Y017747D03*
X011711Y017727D03*
X011671Y017707D03*
X011651Y017707D03*
X011631Y017707D03*
X011611Y017687D03*
X016151Y016347D03*
X014871Y014887D03*
X020131Y015987D03*
X021051Y012767D03*
X021091Y012727D03*
X022351Y011447D03*
X022411Y011507D03*
X022451Y011547D03*
X022491Y011587D03*
X022551Y011667D03*
X022571Y011687D03*
X020991Y011427D03*
X011731Y008927D03*
X011691Y008947D03*
D59*
X011531Y009027D03*
X019091Y012847D03*
X020931Y012987D03*
X020951Y012947D03*
X021011Y012827D03*
X021011Y011387D03*
X022271Y011407D03*
X022291Y011407D03*
X020071Y015967D03*
X016371Y017207D03*
X016111Y016327D03*
X013691Y018667D03*
X013671Y018687D03*
X014291Y020687D03*
X017451Y020607D03*
D60*
X013751Y018617D03*
X013731Y018637D03*
X013711Y018637D03*
X014171Y018157D03*
X014191Y018137D03*
X014231Y018097D03*
X011531Y017637D03*
X011511Y017637D03*
X011491Y017637D03*
X011471Y017617D03*
X011431Y017597D03*
X017031Y016957D03*
X020051Y015977D03*
X020991Y012877D03*
X022151Y011317D03*
X022191Y011337D03*
X022211Y011357D03*
X022231Y011377D03*
X022251Y011377D03*
X018631Y009177D03*
X011511Y009037D03*
X011491Y009037D03*
X011471Y009037D03*
X011451Y009057D03*
X011431Y009077D03*
X011411Y009077D03*
D61*
X011391Y009087D03*
X011371Y009107D03*
X011351Y009107D03*
X011331Y009127D03*
X011311Y009127D03*
X019191Y011167D03*
X020851Y010647D03*
X021031Y011367D03*
X022091Y011267D03*
X022131Y011287D03*
X022171Y011327D03*
X020271Y009107D03*
X020251Y009107D03*
X020231Y009107D03*
X020211Y009107D03*
X020191Y009107D03*
X020171Y009107D03*
X020151Y009107D03*
X020131Y009107D03*
X020111Y009107D03*
X020091Y009107D03*
X020071Y009107D03*
X020051Y009107D03*
X020031Y009107D03*
X020011Y009107D03*
X019991Y009107D03*
X019971Y009107D03*
X011451Y017607D03*
X011411Y017587D03*
X011351Y017547D03*
X013771Y018587D03*
X014111Y018227D03*
X014151Y018187D03*
X014211Y018107D03*
X014251Y018067D03*
X014311Y020667D03*
X017431Y020607D03*
D62*
X014331Y020637D03*
X013791Y018577D03*
X013811Y018537D03*
X013831Y018517D03*
X013851Y018497D03*
X013871Y018477D03*
X014051Y018297D03*
X014071Y018277D03*
X014131Y018197D03*
X014271Y018017D03*
X016391Y017177D03*
X016091Y016337D03*
X020031Y015977D03*
X019111Y012837D03*
X021151Y012557D03*
X021171Y012537D03*
X022111Y011277D03*
X022071Y011237D03*
X022051Y011217D03*
X022031Y011177D03*
X020331Y009117D03*
X020311Y009117D03*
X020291Y009117D03*
X019951Y009117D03*
X019931Y009117D03*
X019911Y009117D03*
X019891Y009117D03*
X019871Y009117D03*
X019211Y011157D03*
X015551Y010677D03*
X011291Y009137D03*
X011271Y017517D03*
X011331Y017537D03*
X011371Y017557D03*
X011391Y017577D03*
D63*
X011311Y017527D03*
X011291Y017527D03*
X011251Y017487D03*
X011231Y017487D03*
X011211Y017467D03*
X013931Y018427D03*
X013951Y018387D03*
X013971Y018387D03*
X013991Y018347D03*
X014011Y018327D03*
X014031Y018307D03*
X014091Y018247D03*
X016411Y017167D03*
X017051Y016947D03*
X016071Y016347D03*
X019991Y015987D03*
X020011Y015987D03*
X021111Y012607D03*
X021131Y012587D03*
X022011Y011147D03*
X020831Y010647D03*
X020451Y009127D03*
X020431Y009127D03*
X020411Y009127D03*
X020391Y009127D03*
X020371Y009127D03*
X020351Y009127D03*
X018651Y009227D03*
X015691Y011047D03*
X011271Y009147D03*
X011251Y009167D03*
X011231Y009187D03*
X014351Y020607D03*
X017391Y020567D03*
D64*
X017371Y020547D03*
X017311Y020487D03*
X014371Y020587D03*
X014311Y017947D03*
X016431Y017127D03*
X019951Y015987D03*
X021991Y011107D03*
X020491Y009147D03*
X019811Y009127D03*
X019791Y009127D03*
X018671Y009247D03*
X015571Y010687D03*
X011191Y009207D03*
X011151Y009227D03*
X011091Y009267D03*
X011091Y017407D03*
X011111Y017407D03*
X011131Y017427D03*
D65*
X009671Y015867D03*
X009651Y015847D03*
X016071Y018107D03*
X016571Y018847D03*
X009651Y010827D03*
X021971Y010527D03*
D66*
X021951Y010507D03*
X020531Y010907D03*
X020511Y010907D03*
X016031Y018107D03*
D67*
X012451Y019627D03*
X021951Y011827D03*
X018991Y011447D03*
D68*
X019411Y012397D03*
X021911Y010517D03*
X021931Y010517D03*
X009691Y015917D03*
X016551Y018837D03*
D69*
X016531Y018827D03*
X016011Y018087D03*
X014551Y017307D03*
X009691Y010747D03*
X020551Y010907D03*
X021891Y010507D03*
D70*
X021871Y010727D03*
X020411Y011047D03*
X009531Y015547D03*
D71*
X009511Y015507D03*
X021851Y010747D03*
D72*
X021831Y010777D03*
X014831Y017117D03*
X014811Y017117D03*
D73*
X019591Y012117D03*
X020371Y011077D03*
X021791Y010797D03*
X021811Y010797D03*
D74*
X021771Y010817D03*
X014871Y017077D03*
D75*
X021751Y010827D03*
D76*
X021731Y010837D03*
X009491Y011257D03*
X008331Y013337D03*
X009491Y015417D03*
D77*
X009471Y015377D03*
X021711Y010857D03*
D78*
X021691Y010867D03*
X020331Y011147D03*
X019631Y012047D03*
X009471Y011307D03*
D79*
X021671Y010887D03*
D80*
X021651Y010897D03*
X016911Y018917D03*
D81*
X009451Y011407D03*
X021611Y010907D03*
X021631Y010907D03*
D82*
X021591Y010327D03*
X021011Y009347D03*
X016311Y018687D03*
D83*
X016451Y017117D03*
X016511Y017117D03*
X017171Y016857D03*
X016051Y016337D03*
X019931Y015977D03*
X021591Y011857D03*
X019231Y011137D03*
X018691Y009257D03*
X019751Y009137D03*
X019771Y009137D03*
X011071Y009277D03*
X010971Y017317D03*
X010991Y017337D03*
X011031Y017357D03*
X011051Y017377D03*
X011071Y017397D03*
X017271Y020437D03*
X017291Y020477D03*
X017331Y020497D03*
D84*
X020231Y011317D03*
X021571Y010897D03*
D85*
X021551Y010307D03*
D86*
X021531Y009637D03*
X020271Y011257D03*
X019691Y011917D03*
X009451Y015237D03*
D87*
X010611Y017027D03*
X010651Y017067D03*
X010671Y017087D03*
X014391Y017787D03*
X017151Y016967D03*
X017371Y016847D03*
X017391Y016847D03*
X018551Y016427D03*
X018811Y016387D03*
X019131Y016227D03*
X019151Y016207D03*
X019251Y016167D03*
X019271Y016167D03*
X019291Y016147D03*
X019311Y016147D03*
X019371Y016107D03*
X019391Y016107D03*
X019411Y016107D03*
X019451Y016087D03*
X019471Y016087D03*
X021531Y011887D03*
X018791Y009387D03*
X019491Y009207D03*
X020731Y009207D03*
X020751Y009207D03*
X010651Y009587D03*
X010631Y009607D03*
X010611Y009627D03*
X014451Y020407D03*
D88*
X021511Y010357D03*
D89*
X021491Y010407D03*
D90*
X021471Y010417D03*
D91*
X021451Y010457D03*
X015551Y016977D03*
D92*
X008691Y013347D03*
X021411Y010487D03*
X021431Y010467D03*
D93*
X021391Y010517D03*
D94*
X021371Y010527D03*
X015531Y016967D03*
X008711Y013327D03*
D95*
X021331Y010557D03*
X021351Y010557D03*
D96*
X021311Y010587D03*
D97*
X021291Y010597D03*
X021271Y010617D03*
X021231Y010637D03*
D98*
X021251Y010627D03*
X021191Y010667D03*
X015511Y016967D03*
D99*
X015491Y016957D03*
X021211Y010657D03*
D100*
X021171Y010137D03*
D101*
X021151Y010137D03*
X008471Y013337D03*
D102*
X021131Y010127D03*
D103*
X021111Y010137D03*
X019971Y011517D03*
D104*
X020031Y011477D03*
X021051Y010137D03*
X021071Y010137D03*
X021091Y010137D03*
D105*
X021031Y009357D03*
X020671Y010877D03*
X009851Y016177D03*
X016351Y018717D03*
D106*
X016271Y018647D03*
X009971Y016367D03*
X009971Y010307D03*
X019151Y009507D03*
X020991Y009347D03*
D107*
X020971Y009337D03*
X019131Y009517D03*
X019111Y009517D03*
X009991Y010277D03*
X009991Y016377D03*
X016251Y018637D03*
D108*
X010131Y016567D03*
X010091Y016527D03*
X019271Y012607D03*
X019051Y009527D03*
X019031Y009527D03*
X019011Y009527D03*
X020951Y009287D03*
X010131Y010107D03*
X010111Y010127D03*
X010091Y010147D03*
D109*
X010151Y016587D03*
X010171Y016607D03*
X016171Y018547D03*
X017051Y018447D03*
X017151Y018527D03*
X019111Y016387D03*
X020931Y009287D03*
D110*
X020911Y009277D03*
X018991Y009517D03*
X018971Y009517D03*
X017611Y013317D03*
X017591Y013317D03*
X017571Y013317D03*
X014471Y017617D03*
X016151Y018517D03*
X016971Y018437D03*
X016991Y018437D03*
X017011Y018437D03*
X017031Y018437D03*
X017091Y018497D03*
X017131Y018517D03*
X017171Y018537D03*
X017191Y018537D03*
X017211Y018557D03*
X017231Y018557D03*
X017251Y018557D03*
X014691Y019997D03*
X014651Y020057D03*
X010151Y010077D03*
X010171Y010057D03*
D111*
X010251Y009967D03*
X017491Y013307D03*
X017511Y013307D03*
X017691Y013307D03*
X019231Y012667D03*
X020731Y010747D03*
X018951Y009507D03*
X019311Y009327D03*
X020891Y009287D03*
X014911Y019527D03*
X014871Y019647D03*
X014831Y019747D03*
X014551Y020207D03*
X014531Y020227D03*
D112*
X014511Y020267D03*
X014491Y020287D03*
X017371Y018587D03*
X010331Y016787D03*
X010271Y016727D03*
X008211Y013327D03*
X010271Y009927D03*
X010311Y009907D03*
X020871Y009267D03*
D113*
X020851Y009247D03*
X019391Y009267D03*
X019371Y009267D03*
X010391Y009827D03*
X010351Y009867D03*
X010391Y016847D03*
X014431Y017707D03*
X017391Y018607D03*
X017411Y018607D03*
X017431Y018607D03*
D114*
X017451Y018597D03*
X017551Y016777D03*
X017571Y016757D03*
X017591Y016757D03*
X010431Y016877D03*
X020771Y010717D03*
X018891Y009457D03*
X019411Y009257D03*
X020831Y009237D03*
X010411Y009797D03*
D115*
X010431Y009787D03*
X010451Y009767D03*
X010471Y009747D03*
X010491Y009727D03*
X010511Y009707D03*
X018871Y009447D03*
X020811Y009227D03*
X019191Y012707D03*
X018031Y016607D03*
X017851Y016687D03*
X017831Y016687D03*
X017631Y016767D03*
X017611Y016767D03*
X017531Y016787D03*
X010451Y016907D03*
X010411Y016867D03*
D116*
X010951Y017307D03*
X011011Y017347D03*
X014331Y017927D03*
X016471Y017107D03*
X016491Y017107D03*
X016531Y017107D03*
X017191Y016847D03*
X016031Y016347D03*
X019871Y015987D03*
X019891Y015987D03*
X019911Y015987D03*
X019131Y012807D03*
X015591Y010727D03*
X019691Y009147D03*
X019711Y009147D03*
X019731Y009147D03*
X020511Y009147D03*
X020531Y009147D03*
X020551Y009147D03*
X020811Y010647D03*
X011051Y009287D03*
X011031Y009307D03*
X011011Y009327D03*
X014391Y020547D03*
X017251Y020407D03*
D117*
X014471Y020357D03*
X016591Y016997D03*
X016611Y016997D03*
X017491Y016817D03*
X017651Y016757D03*
X017671Y016757D03*
X017711Y016737D03*
X017771Y016717D03*
X017791Y016697D03*
X017811Y016697D03*
X017871Y016677D03*
X017891Y016657D03*
X017911Y016657D03*
X017931Y016637D03*
X017951Y016637D03*
X017971Y016637D03*
X017991Y016637D03*
X018011Y016617D03*
X018051Y016597D03*
X018071Y016597D03*
X018091Y016597D03*
X018111Y016577D03*
X018131Y016577D03*
X018151Y016557D03*
X018171Y016557D03*
X018191Y016557D03*
X018211Y016557D03*
X018271Y016517D03*
X018291Y016497D03*
X018311Y016497D03*
X018331Y016497D03*
X018351Y016477D03*
X018371Y016477D03*
X018391Y016457D03*
X018411Y016457D03*
X017711Y013297D03*
X018851Y009437D03*
X019431Y009237D03*
X020791Y009217D03*
X010531Y009697D03*
X010471Y016917D03*
X010491Y016937D03*
X010511Y016957D03*
D118*
X010711Y017117D03*
X010751Y017157D03*
X010771Y017177D03*
X014371Y017837D03*
X015971Y016357D03*
X017131Y016957D03*
X017331Y016857D03*
X019651Y016017D03*
X019671Y016017D03*
X019691Y016017D03*
X019711Y016017D03*
X020791Y010677D03*
X020691Y009197D03*
X019591Y009177D03*
X019571Y009177D03*
X018771Y009357D03*
X018751Y009337D03*
X015631Y010797D03*
X010731Y009517D03*
X010711Y009537D03*
D119*
X010591Y009637D03*
X010571Y009657D03*
X010551Y009677D03*
X019471Y009217D03*
X020771Y009217D03*
X018531Y016437D03*
X018511Y016437D03*
X018491Y016437D03*
X018471Y016437D03*
X017451Y016837D03*
X017431Y016837D03*
X017411Y016837D03*
X010591Y017017D03*
X010571Y016997D03*
D120*
X010371Y016837D03*
X010351Y016797D03*
X017471Y013317D03*
X019211Y012677D03*
X020751Y010737D03*
X018911Y009477D03*
X010371Y009837D03*
X010331Y009877D03*
D121*
X016431Y012647D03*
X020731Y011887D03*
D122*
X019171Y012757D03*
X019591Y016037D03*
X019571Y016057D03*
X019551Y016057D03*
X019531Y016057D03*
X019511Y016057D03*
X019491Y016077D03*
X019431Y016097D03*
X019351Y016137D03*
X019331Y016137D03*
X019231Y016177D03*
X019211Y016177D03*
X019191Y016197D03*
X019171Y016197D03*
X018791Y016377D03*
X018671Y016397D03*
X018631Y016417D03*
X018611Y016417D03*
X018591Y016417D03*
X018571Y016417D03*
X017111Y020097D03*
X017191Y020217D03*
X010631Y017057D03*
X010671Y009577D03*
X019511Y009197D03*
X019531Y009197D03*
X020711Y009197D03*
D123*
X020711Y010777D03*
X019251Y012617D03*
X019091Y016397D03*
X016191Y018557D03*
X010111Y016537D03*
D124*
X010051Y016477D03*
X010031Y016437D03*
X016231Y018617D03*
X020691Y010797D03*
X019211Y009457D03*
X010031Y010237D03*
D125*
X010751Y009507D03*
X010771Y009487D03*
X010791Y009467D03*
X010811Y009447D03*
X019151Y012767D03*
X019731Y016007D03*
X019751Y016007D03*
X017311Y016847D03*
X017291Y016847D03*
X015991Y016347D03*
X010811Y017207D03*
X010791Y017187D03*
X017031Y019967D03*
X017051Y019987D03*
X017071Y020027D03*
X017091Y020047D03*
X017211Y020287D03*
X019611Y009167D03*
X020651Y009187D03*
X020671Y009187D03*
D126*
X020651Y010887D03*
X009851Y010487D03*
X009831Y010507D03*
X009831Y016147D03*
X016371Y018727D03*
D127*
X017011Y019947D03*
X017091Y016967D03*
X017231Y016867D03*
X017251Y016867D03*
X019831Y015987D03*
X019851Y015987D03*
X019251Y011107D03*
X018731Y009307D03*
X018711Y009307D03*
X019651Y009167D03*
X020611Y009167D03*
X020631Y009167D03*
X015651Y010847D03*
X015611Y010747D03*
X010911Y009387D03*
X010851Y017227D03*
X010891Y017267D03*
D128*
X014531Y017367D03*
X019331Y012427D03*
X020631Y010887D03*
X009771Y010587D03*
D129*
X019291Y012417D03*
X019311Y012417D03*
X019351Y012417D03*
X020611Y010897D03*
X016451Y018777D03*
X016431Y018777D03*
D130*
X014411Y020517D03*
X010931Y017297D03*
X010911Y017277D03*
X017071Y016977D03*
X017211Y016857D03*
X010931Y009377D03*
X010951Y009357D03*
X010971Y009337D03*
X010991Y009337D03*
X019671Y009157D03*
X020571Y009157D03*
X020591Y009157D03*
D131*
X020591Y010907D03*
X020571Y010907D03*
X019371Y012427D03*
X016491Y018807D03*
D132*
X016591Y018847D03*
X016091Y018107D03*
X019451Y012347D03*
X020491Y010927D03*
D133*
X020471Y009137D03*
X019851Y009117D03*
X019831Y009117D03*
X015671Y010997D03*
X011211Y009197D03*
X011171Y009217D03*
X011131Y009237D03*
X011111Y009257D03*
X019971Y015977D03*
X014291Y017997D03*
X013911Y018437D03*
X013891Y018457D03*
X011191Y017457D03*
X011171Y017457D03*
X011151Y017437D03*
X017351Y020537D03*
X017411Y020577D03*
D134*
X016111Y018127D03*
X014611Y017227D03*
X009631Y015787D03*
X009631Y010887D03*
X020471Y010947D03*
D135*
X015471Y010637D03*
X020471Y016137D03*
X019431Y018477D03*
X013751Y017857D03*
D136*
X014651Y017177D03*
X008291Y013337D03*
X020451Y010977D03*
D137*
X017591Y008727D03*
X015991Y009187D03*
X015931Y009167D03*
X015911Y009147D03*
X015871Y009127D03*
X015851Y009107D03*
X015811Y009087D03*
X015751Y009067D03*
X015731Y009047D03*
X016371Y016267D03*
X016771Y016567D03*
X016851Y016947D03*
X017511Y018247D03*
X019211Y018487D03*
X019231Y018487D03*
X020451Y016127D03*
X013551Y017987D03*
D138*
X020431Y011027D03*
D139*
X020391Y011057D03*
X009511Y011157D03*
D140*
X019611Y012067D03*
X020351Y011127D03*
D141*
X020311Y011187D03*
X016831Y018787D03*
X016811Y018787D03*
X016851Y018847D03*
D142*
X017431Y017697D03*
X017451Y017697D03*
X017651Y017697D03*
X017671Y017697D03*
X017691Y017697D03*
X017711Y017697D03*
X017731Y017697D03*
X019151Y017097D03*
X020271Y016577D03*
X020311Y016537D03*
X016391Y012597D03*
X017691Y010877D03*
X019751Y009897D03*
X019871Y009837D03*
X019911Y009817D03*
X013711Y017877D03*
D143*
X016791Y018737D03*
X016931Y018957D03*
X016951Y018977D03*
X020291Y011217D03*
D144*
X020251Y011297D03*
X019731Y011877D03*
X008391Y013337D03*
D145*
X020211Y011337D03*
D146*
X020191Y011357D03*
X019771Y011777D03*
X009431Y011577D03*
D147*
X020171Y011387D03*
D148*
X020151Y011387D03*
X019951Y011627D03*
X019931Y011647D03*
X019911Y011667D03*
X019871Y011707D03*
X008431Y013327D03*
D149*
X020111Y011427D03*
X020131Y011427D03*
D150*
X020091Y011447D03*
X015891Y017367D03*
D151*
X020071Y011457D03*
D152*
X020051Y011467D03*
D153*
X020011Y011487D03*
X019991Y011507D03*
D154*
X016471Y014087D03*
X019711Y016887D03*
X019931Y016807D03*
X020011Y016767D03*
D155*
X019851Y011737D03*
X019831Y011737D03*
X019891Y011677D03*
D156*
X019811Y011757D03*
X009431Y015077D03*
D157*
X010831Y017217D03*
X010871Y017257D03*
X014351Y017857D03*
X016551Y017077D03*
X017111Y016957D03*
X017271Y016857D03*
X016011Y016337D03*
X019771Y015997D03*
X019791Y015997D03*
X019811Y015997D03*
X016971Y019897D03*
X016991Y019917D03*
X017231Y020337D03*
X014431Y020477D03*
X010851Y009437D03*
X010831Y009437D03*
X010871Y009417D03*
X010891Y009397D03*
X019631Y009157D03*
D158*
X019791Y011767D03*
X008411Y013327D03*
D159*
X019751Y011827D03*
D160*
X019711Y011897D03*
D161*
X019671Y011967D03*
X016871Y018867D03*
X016891Y018907D03*
D162*
X019651Y011997D03*
D163*
X019551Y009187D03*
X010691Y009547D03*
X019611Y016027D03*
X019631Y016027D03*
X018771Y016367D03*
X018751Y016367D03*
X018731Y016367D03*
X018711Y016367D03*
X018691Y016387D03*
X018651Y016407D03*
X017351Y016847D03*
X015951Y016347D03*
X010731Y017147D03*
X010691Y017107D03*
X017131Y020127D03*
X017151Y020147D03*
X017171Y020187D03*
D164*
X019571Y012147D03*
D165*
X019551Y012197D03*
D166*
X019531Y012217D03*
X009531Y011097D03*
X008311Y013337D03*
D167*
X009551Y015617D03*
X014731Y017137D03*
X014751Y017137D03*
X019511Y012237D03*
D168*
X019491Y012267D03*
X014671Y017167D03*
D169*
X014631Y017197D03*
X019471Y012297D03*
D170*
X018831Y009427D03*
X018811Y009407D03*
X019451Y009227D03*
X008191Y013327D03*
X010531Y016967D03*
X010551Y016987D03*
X014411Y017747D03*
X016571Y017007D03*
X017471Y016827D03*
X017511Y016807D03*
X017691Y016747D03*
X017731Y016727D03*
X017751Y016727D03*
X018231Y016547D03*
X018251Y016527D03*
X018431Y016447D03*
X018451Y016447D03*
D171*
X014571Y017257D03*
X019431Y012357D03*
D172*
X019391Y012417D03*
X015991Y018097D03*
X016511Y018817D03*
X009711Y015957D03*
X009711Y010717D03*
D173*
X010291Y009917D03*
X018931Y009497D03*
X019331Y009297D03*
X019351Y009297D03*
X010311Y016757D03*
X010291Y016737D03*
X014451Y017657D03*
X017351Y018577D03*
X014891Y019577D03*
X014851Y019677D03*
D174*
X013631Y017927D03*
X016371Y014227D03*
X016311Y012487D03*
X017111Y010107D03*
X016931Y009927D03*
X016831Y009807D03*
X016811Y009807D03*
X016791Y009787D03*
X016771Y009767D03*
X016751Y009747D03*
X016731Y009727D03*
X016691Y009687D03*
X019351Y018487D03*
D175*
X017331Y018577D03*
X017311Y018577D03*
X017291Y018577D03*
X014931Y019497D03*
X014811Y019777D03*
X014791Y019837D03*
X014751Y019917D03*
X014731Y019937D03*
X014571Y020157D03*
X010251Y016697D03*
X010231Y016677D03*
X017531Y013317D03*
X017651Y013317D03*
X017671Y013317D03*
X019291Y009337D03*
X010231Y009997D03*
X010211Y010017D03*
D176*
X019271Y009397D03*
X019071Y016417D03*
X018991Y016457D03*
X018911Y016497D03*
X018891Y016497D03*
X016211Y018597D03*
X010071Y016497D03*
D177*
X018831Y016527D03*
X018851Y016507D03*
X018871Y016507D03*
X018931Y016487D03*
X018951Y016487D03*
X018971Y016467D03*
X019011Y016447D03*
X019031Y016447D03*
X019051Y016447D03*
X010071Y010167D03*
X010051Y010187D03*
X019071Y009527D03*
X019251Y009407D03*
D178*
X019231Y009447D03*
X019091Y009527D03*
X010011Y010247D03*
X010011Y016427D03*
X014491Y017507D03*
D179*
X016291Y018657D03*
X009931Y010337D03*
X009951Y010317D03*
X019171Y009497D03*
X019191Y009497D03*
D180*
X017631Y013327D03*
X017551Y013327D03*
X010211Y016647D03*
X010191Y016647D03*
X014951Y019447D03*
X014771Y019867D03*
X014711Y019947D03*
X014671Y020027D03*
X014631Y020087D03*
X014611Y020127D03*
X014591Y020127D03*
X016131Y018507D03*
X017071Y018487D03*
X017111Y018507D03*
X017271Y018567D03*
X010191Y010027D03*
D181*
X008371Y013327D03*
X016771Y018647D03*
D182*
X016751Y018257D03*
D183*
X016731Y018227D03*
D184*
X016711Y018217D03*
D185*
X016691Y018207D03*
D186*
X016671Y018197D03*
X016631Y018157D03*
D187*
X016651Y018167D03*
D188*
X016611Y018857D03*
X014591Y017237D03*
D189*
X015951Y018077D03*
X015971Y018077D03*
X016471Y018797D03*
X009731Y015997D03*
D190*
X016391Y018747D03*
X016411Y018747D03*
X009811Y010547D03*
D191*
X009871Y010437D03*
X009891Y010417D03*
X008231Y013317D03*
X009871Y016217D03*
X009891Y016237D03*
X016331Y018697D03*
D192*
X016051Y018097D03*
X008271Y013317D03*
X009671Y010797D03*
D193*
X008451Y013337D03*
X015911Y017377D03*
X015931Y017397D03*
D194*
X015871Y016967D03*
D195*
X015851Y016987D03*
X015651Y017067D03*
D196*
X015831Y017007D03*
X008591Y013327D03*
D197*
X015811Y017017D03*
D198*
X015791Y017057D03*
D199*
X015771Y017077D03*
X015751Y017097D03*
X008551Y013337D03*
D200*
X015691Y017137D03*
X015711Y017137D03*
X015731Y017117D03*
D201*
X015671Y017127D03*
D202*
X015631Y017057D03*
D203*
X015611Y017007D03*
D204*
X015591Y016987D03*
X008651Y013327D03*
D205*
X015571Y016977D03*
D206*
X015471Y016957D03*
D207*
X015451Y016977D03*
D208*
X015431Y016977D03*
D209*
X015411Y016987D03*
D210*
X015391Y016997D03*
D211*
X015371Y016997D03*
D212*
X015351Y017007D03*
D213*
X015331Y016997D03*
X008831Y013337D03*
D214*
X015311Y017007D03*
D215*
X015291Y017017D03*
D216*
X015271Y017027D03*
D217*
X015251Y017047D03*
X008891Y013327D03*
X008871Y013327D03*
D218*
X015231Y017057D03*
D219*
X015211Y017067D03*
D220*
X015191Y017087D03*
X008931Y013327D03*
D221*
X015171Y017107D03*
D222*
X015151Y017137D03*
X015131Y017137D03*
X008971Y013337D03*
D223*
X015111Y017177D03*
D224*
X015091Y017187D03*
D225*
X015071Y017197D03*
D226*
X015051Y017217D03*
X009011Y013337D03*
D227*
X015031Y017227D03*
D228*
X015011Y017247D03*
D229*
X014991Y017257D03*
D230*
X014971Y017287D03*
X009071Y013327D03*
D231*
X014951Y016437D03*
D232*
X014931Y016427D03*
D233*
X014911Y016437D03*
D234*
X014891Y016427D03*
X008571Y013327D03*
D235*
X014851Y017087D03*
D236*
X014791Y017127D03*
X014771Y017127D03*
D237*
X014711Y017147D03*
X009551Y011047D03*
D238*
X009571Y010997D03*
X009571Y015657D03*
X014691Y017157D03*
D239*
X014511Y017467D03*
X009951Y016347D03*
X009931Y016307D03*
X009911Y010367D03*
D240*
X009911Y016297D03*
D241*
X009811Y016117D03*
X009791Y016097D03*
X009771Y016077D03*
X009791Y010557D03*
D242*
X009751Y010647D03*
X009731Y010667D03*
X008251Y013327D03*
X009751Y016027D03*
D243*
X009611Y010917D03*
D244*
X009591Y010947D03*
X009591Y015727D03*
X009611Y015747D03*
D245*
X009411Y013337D03*
D246*
X009391Y013327D03*
D247*
X009371Y013327D03*
D248*
X009351Y013327D03*
D249*
X009331Y013337D03*
D250*
X009311Y013337D03*
X009291Y013337D03*
D251*
X009271Y013327D03*
D252*
X009251Y013337D03*
D253*
X009231Y013337D03*
D254*
X009211Y013327D03*
D255*
X009191Y013337D03*
D256*
X009171Y013327D03*
D257*
X009151Y013337D03*
D258*
X009131Y013327D03*
D259*
X009111Y013337D03*
D260*
X009091Y013337D03*
D261*
X009051Y013327D03*
D262*
X009031Y013337D03*
D263*
X008991Y013337D03*
D264*
X008951Y013337D03*
D265*
X008911Y013337D03*
D266*
X008851Y013327D03*
D267*
X008811Y013337D03*
D268*
X008791Y013337D03*
D269*
X008771Y013327D03*
D270*
X008751Y013327D03*
D271*
X008731Y013327D03*
D272*
X008671Y013327D03*
D273*
X008631Y013337D03*
D274*
X008611Y013337D03*
D275*
X008531Y013337D03*
D276*
X008511Y013347D03*
D277*
X008491Y013337D03*
D278*
X008351Y013337D03*
M02*
