G75*
%MOIN*%
%OFA0B0*%
%FSLAX24Y24*%
%IPPOS*%
%LPD*%
%AMOC8*
5,1,8,0,0,1.08239X$1,22.5*
%
%ADD10C,0.0000*%
%ADD11C,0.0050*%
%ADD12C,0.0040*%
%ADD13C,0.0080*%
%ADD14C,0.0090*%
%ADD15C,0.0060*%
%ADD16C,0.0160*%
%ADD17R,0.2018X0.1427*%
%ADD18C,0.0130*%
%ADD19R,0.0246X2.2982*%
%ADD20R,0.0246X2.1161*%
%ADD21R,0.3543X0.2805*%
%ADD22C,0.0030*%
%ADD23C,0.0010*%
%ADD24R,0.0180X0.0300*%
%ADD25R,0.0300X0.0180*%
%ADD26C,0.0220*%
%ADD27R,0.0020X0.0520*%
%ADD28R,0.0020X0.1220*%
%ADD29R,0.0020X0.1360*%
%ADD30R,0.0020X0.1520*%
%ADD31R,0.0020X0.1620*%
%ADD32R,0.0020X0.1760*%
%ADD33R,0.0020X0.2060*%
%ADD34R,0.0020X0.2180*%
%ADD35R,0.0020X0.2220*%
%ADD36R,0.0020X0.2360*%
%ADD37R,0.0020X0.2440*%
%ADD38R,0.0020X0.2620*%
%ADD39R,0.0020X0.2780*%
%ADD40R,0.0020X0.2800*%
%ADD41R,0.0020X0.2920*%
%ADD42R,0.0020X0.3120*%
%ADD43R,0.0020X0.3140*%
%ADD44R,0.0020X0.3180*%
%ADD45R,0.0020X0.3260*%
%ADD46R,0.0020X0.3300*%
%ADD47R,0.0020X0.3540*%
%ADD48R,0.0020X0.3580*%
%ADD49R,0.0020X0.3640*%
%ADD50R,0.0020X0.3660*%
%ADD51R,0.0020X0.3820*%
%ADD52R,0.0020X0.3900*%
%ADD53R,0.0020X0.3920*%
%ADD54R,0.0020X0.3960*%
%ADD55R,0.0020X0.4120*%
%ADD56R,0.0020X0.4220*%
%ADD57R,0.0020X0.4260*%
%ADD58R,0.0020X0.4280*%
%ADD59R,0.0020X0.4460*%
%ADD60R,0.0020X0.4480*%
%ADD61R,0.0020X0.4500*%
%ADD62R,0.0020X0.4540*%
%ADD63R,0.0020X0.4680*%
%ADD64R,0.0020X0.4700*%
%ADD65R,0.0020X0.4720*%
%ADD66R,0.0020X0.4760*%
%ADD67R,0.0020X0.4860*%
%ADD68R,0.0020X0.4880*%
%ADD69R,0.0020X0.4940*%
%ADD70R,0.0020X0.4960*%
%ADD71R,0.0020X0.5020*%
%ADD72R,0.0020X0.5080*%
%ADD73R,0.0020X0.5120*%
%ADD74R,0.0020X0.5140*%
%ADD75R,0.0020X0.5220*%
%ADD76R,0.0020X0.5260*%
%ADD77R,0.0020X0.5360*%
%ADD78R,0.0020X0.5380*%
%ADD79R,0.0020X0.5460*%
%ADD80R,0.0020X0.5500*%
%ADD81R,0.0020X0.5520*%
%ADD82R,0.0020X0.5560*%
%ADD83R,0.0020X0.5580*%
%ADD84R,0.0020X0.5640*%
%ADD85R,0.0020X0.5680*%
%ADD86R,0.0020X0.5740*%
%ADD87R,0.0020X0.5800*%
%ADD88R,0.0020X0.5820*%
%ADD89R,0.0020X0.5900*%
%ADD90R,0.0020X0.5960*%
%ADD91R,0.0020X0.5980*%
%ADD92R,0.0020X0.6000*%
%ADD93R,0.0020X0.6020*%
%ADD94R,0.0020X0.6140*%
%ADD95R,0.0020X0.6160*%
%ADD96R,0.0020X0.6220*%
%ADD97R,0.0020X0.6260*%
%ADD98R,0.0020X0.6280*%
%ADD99R,0.0020X0.6320*%
%ADD100R,0.0020X0.6360*%
%ADD101R,0.0020X0.6380*%
%ADD102R,0.0020X0.6420*%
%ADD103R,0.0020X0.2840*%
%ADD104R,0.0020X0.2760*%
%ADD105R,0.0020X0.2680*%
%ADD106R,0.0020X0.2640*%
%ADD107R,0.0020X0.2580*%
%ADD108R,0.0020X0.2600*%
%ADD109R,0.0020X0.2540*%
%ADD110R,0.0020X0.2560*%
%ADD111R,0.0020X0.2520*%
%ADD112R,0.0020X0.2500*%
%ADD113R,0.0020X0.2480*%
%ADD114R,0.0020X0.2460*%
%ADD115R,0.0020X0.2420*%
%ADD116R,0.0020X0.2400*%
%ADD117R,0.0020X0.2340*%
%ADD118R,0.0020X0.2260*%
%ADD119R,0.0020X0.2280*%
%ADD120R,0.0020X0.2300*%
%ADD121R,0.0020X0.2240*%
%ADD122R,0.0020X0.2200*%
%ADD123R,0.0020X0.2160*%
%ADD124R,0.0020X0.2140*%
%ADD125R,0.0020X0.2100*%
%ADD126R,0.0020X0.2120*%
%ADD127R,0.0020X0.2080*%
%ADD128R,0.0020X0.2040*%
%ADD129R,0.0020X0.2020*%
%ADD130R,0.0020X0.2000*%
%ADD131R,0.0020X0.1980*%
%ADD132R,0.0020X0.1960*%
%ADD133R,0.0020X0.0260*%
%ADD134R,0.0020X0.1940*%
%ADD135R,0.0020X0.0620*%
%ADD136R,0.0020X0.0680*%
%ADD137R,0.0020X0.0180*%
%ADD138R,0.0020X0.0200*%
%ADD139R,0.0020X0.0120*%
%ADD140R,0.0020X0.0140*%
%ADD141R,0.0020X0.1920*%
%ADD142R,0.0020X0.1900*%
%ADD143R,0.0020X0.0100*%
%ADD144R,0.0020X0.1880*%
%ADD145R,0.0020X0.1860*%
%ADD146R,0.0020X0.0080*%
%ADD147R,0.0020X0.0060*%
%ADD148R,0.0020X0.0380*%
%ADD149R,0.0020X0.0420*%
%ADD150R,0.0020X0.0760*%
%ADD151R,0.0020X0.0780*%
%ADD152R,0.0020X0.0800*%
%ADD153R,0.0020X0.0920*%
%ADD154R,0.0020X0.1000*%
%ADD155R,0.0020X0.1840*%
%ADD156R,0.0020X0.0040*%
%ADD157R,0.0020X0.1020*%
%ADD158R,0.0020X0.1100*%
%ADD159R,0.0020X0.1820*%
%ADD160R,0.0020X0.1120*%
%ADD161R,0.0020X0.1180*%
%ADD162R,0.0020X0.1240*%
%ADD163R,0.0020X0.1260*%
%ADD164R,0.0020X0.1800*%
%ADD165R,0.0020X0.1300*%
%ADD166R,0.0020X0.1320*%
%ADD167R,0.0020X0.0020*%
%ADD168R,0.0020X0.1780*%
%ADD169R,0.0020X0.1380*%
%ADD170R,0.0020X0.1400*%
%ADD171R,0.0020X0.1420*%
%ADD172R,0.0020X0.1480*%
%ADD173R,0.0020X0.1500*%
%ADD174R,0.0020X0.1540*%
%ADD175R,0.0020X0.1580*%
%ADD176R,0.0020X0.1640*%
%ADD177R,0.0020X0.1660*%
%ADD178R,0.0020X0.1680*%
%ADD179R,0.0020X0.1600*%
%ADD180R,0.0020X0.1460*%
%ADD181R,0.0020X0.1440*%
%ADD182R,0.0020X0.1340*%
%ADD183R,0.0020X0.1200*%
%ADD184R,0.0020X0.1160*%
%ADD185R,0.0020X0.0860*%
%ADD186R,0.0020X0.0560*%
%ADD187R,0.0020X0.0500*%
%ADD188R,0.0020X0.0460*%
%ADD189R,0.0020X0.0320*%
%ADD190R,0.0020X0.1700*%
%ADD191R,0.0020X0.1560*%
%ADD192R,0.0020X0.1140*%
%ADD193R,0.0020X0.0240*%
%ADD194R,0.0020X0.1040*%
%ADD195R,0.0020X0.2320*%
%ADD196R,0.0020X0.0280*%
%ADD197R,0.0020X0.0960*%
%ADD198R,0.0020X0.0160*%
%ADD199R,0.0020X0.0940*%
%ADD200R,0.0020X0.0840*%
%ADD201R,0.0020X0.0820*%
%ADD202R,0.0020X0.0660*%
%ADD203R,0.0020X0.0580*%
%ADD204R,0.0020X0.0400*%
%ADD205R,0.0020X0.0360*%
%ADD206R,0.0020X0.2380*%
%ADD207R,0.0020X0.0900*%
%ADD208R,0.0020X0.1080*%
%ADD209R,0.0020X0.0640*%
%ADD210R,0.0020X0.1280*%
%ADD211R,0.0020X0.1720*%
%ADD212R,0.0020X0.1060*%
%ADD213R,0.0020X0.0880*%
%ADD214R,0.0020X0.0720*%
%ADD215R,0.0020X0.0300*%
%ADD216R,0.0020X0.0220*%
%ADD217R,0.0020X0.2700*%
%ADD218R,0.0020X0.2720*%
%ADD219R,0.0020X0.2820*%
%ADD220R,0.0020X0.2900*%
%ADD221R,0.0020X0.3320*%
%ADD222R,0.0020X0.3340*%
%ADD223R,0.0020X0.3440*%
%ADD224R,0.0020X0.3480*%
%ADD225R,0.0020X0.3560*%
%ADD226R,0.0020X0.3600*%
%ADD227R,0.0020X0.3720*%
%ADD228R,0.0020X0.3840*%
%ADD229R,0.0020X0.3940*%
%ADD230R,0.0020X0.4000*%
%ADD231R,0.0020X0.3060*%
%ADD232R,0.0020X0.4440*%
%ADD233R,0.0020X0.7780*%
%ADD234R,0.0020X0.7740*%
%ADD235R,0.0020X0.7720*%
%ADD236R,0.0020X0.7700*%
%ADD237R,0.0020X0.7640*%
%ADD238R,0.0020X0.7600*%
%ADD239R,0.0020X0.7580*%
%ADD240R,0.0020X0.7560*%
%ADD241R,0.0020X0.7540*%
%ADD242R,0.0020X0.7520*%
%ADD243R,0.0020X0.7500*%
%ADD244R,0.0020X0.7460*%
%ADD245R,0.0020X0.7400*%
%ADD246R,0.0020X0.7360*%
%ADD247R,0.0020X0.5400*%
%ADD248R,0.0020X0.5340*%
%ADD249R,0.0020X0.5320*%
%ADD250R,0.0020X0.5200*%
%ADD251R,0.0020X0.5180*%
%ADD252R,0.0020X0.5100*%
%ADD253R,0.0020X0.5000*%
%ADD254R,0.0020X0.4980*%
%ADD255R,0.0020X0.4900*%
%ADD256R,0.0020X0.4780*%
%ADD257R,0.0020X0.4660*%
%ADD258R,0.0020X0.4640*%
%ADD259R,0.0020X0.4520*%
%ADD260R,0.0020X0.4420*%
%ADD261R,0.0020X0.4300*%
%ADD262R,0.0020X0.4160*%
%ADD263R,0.0020X0.4100*%
%ADD264R,0.0020X0.3880*%
%ADD265R,0.0020X0.3780*%
%ADD266R,0.0020X0.3620*%
%ADD267R,0.0020X0.3520*%
%ADD268R,0.0020X0.3360*%
%ADD269R,0.0020X0.3220*%
%ADD270R,0.0020X0.3200*%
%ADD271R,0.0020X0.3080*%
%ADD272R,0.0020X0.2880*%
%ADD273R,0.0020X0.0480*%
%ADD274R,0.0020X0.0600*%
%ADD275R,0.0020X0.0700*%
%ADD276R,0.0020X0.0740*%
%ADD277R,0.0020X0.0540*%
%ADD278R,0.0020X0.0340*%
%ADD279R,0.0020X0.0440*%
D10*
X008171Y001568D02*
X013535Y001568D01*
X013537Y001496D01*
X013543Y001424D01*
X013553Y001353D01*
X013566Y001282D01*
X013583Y001212D01*
X013605Y001144D01*
X013629Y001076D01*
X013658Y001010D01*
X013690Y000945D01*
X013725Y000883D01*
X013764Y000822D01*
X013806Y000764D01*
X013851Y000708D01*
X013899Y000654D01*
X013950Y000603D01*
X014004Y000555D01*
X014060Y000510D01*
X014118Y000468D01*
X014179Y000429D01*
X014241Y000394D01*
X014306Y000362D01*
X014372Y000333D01*
X014440Y000309D01*
X014508Y000287D01*
X014578Y000270D01*
X014649Y000257D01*
X014720Y000247D01*
X014792Y000241D01*
X014864Y000239D01*
X015734Y000239D01*
X015780Y000241D01*
X015826Y000247D01*
X015871Y000256D01*
X015915Y000269D01*
X015958Y000286D01*
X015999Y000306D01*
X016039Y000330D01*
X016076Y000356D01*
X016111Y000386D01*
X016144Y000419D01*
X016174Y000454D01*
X016200Y000491D01*
X016224Y000531D01*
X016244Y000572D01*
X016261Y000615D01*
X016274Y000659D01*
X016283Y000704D01*
X016289Y000750D01*
X016291Y000796D01*
X016293Y000849D01*
X016298Y000901D01*
X016307Y000953D01*
X016320Y001004D01*
X016336Y001055D01*
X016355Y001104D01*
X016378Y001151D01*
X016403Y001197D01*
X016432Y001241D01*
X016464Y001283D01*
X016499Y001323D01*
X016536Y001360D01*
X016576Y001395D01*
X016618Y001427D01*
X016662Y001456D01*
X016708Y001481D01*
X016755Y001504D01*
X016804Y001523D01*
X016855Y001539D01*
X016906Y001552D01*
X016958Y001561D01*
X017010Y001566D01*
X017063Y001568D01*
X027463Y001568D01*
X027463Y001567D02*
X027686Y001570D01*
X027909Y001578D01*
X028132Y001592D01*
X028354Y001611D01*
X028576Y001636D01*
X028797Y001665D01*
X029017Y001700D01*
X029237Y001741D01*
X029455Y001787D01*
X029672Y001838D01*
X029888Y001894D01*
X030102Y001955D01*
X030315Y002022D01*
X030527Y002094D01*
X030736Y002170D01*
X030944Y002252D01*
X031149Y002339D01*
X031352Y002431D01*
X031554Y002528D01*
X031752Y002629D01*
X031948Y002735D01*
X032142Y002846D01*
X032333Y002962D01*
X032521Y003082D01*
X032706Y003207D01*
X032888Y003336D01*
X033066Y003470D01*
X033242Y003607D01*
X033414Y003749D01*
X033582Y003895D01*
X033747Y004046D01*
X033909Y004200D01*
X034066Y004358D01*
X034220Y004519D01*
X034370Y004685D01*
X034516Y004853D01*
X034657Y005026D01*
X034795Y005202D01*
X034928Y005381D01*
X035056Y005563D01*
X035181Y005748D01*
X035301Y005936D01*
X035416Y006127D01*
X035526Y006321D01*
X035632Y006518D01*
X035733Y006716D01*
X035829Y006918D01*
X035921Y007121D01*
X036007Y007327D01*
X036089Y007535D01*
X036165Y007744D01*
X036236Y007956D01*
X036302Y008169D01*
X036363Y008383D01*
X036419Y008599D01*
X036470Y008817D01*
X036515Y009035D01*
X036555Y009255D01*
X036590Y009475D01*
X036619Y009696D01*
X036643Y009918D01*
X036661Y010140D01*
X036675Y010363D01*
X036683Y010586D01*
X036685Y010809D01*
X036685Y015181D01*
X035373Y013822D02*
X035375Y013851D01*
X035381Y013879D01*
X035390Y013907D01*
X035403Y013933D01*
X035420Y013956D01*
X035439Y013978D01*
X035461Y013997D01*
X035486Y014012D01*
X035512Y014025D01*
X035540Y014033D01*
X035568Y014038D01*
X035597Y014039D01*
X035626Y014036D01*
X035654Y014029D01*
X035681Y014019D01*
X035707Y014005D01*
X035730Y013988D01*
X035751Y013968D01*
X035769Y013945D01*
X035784Y013920D01*
X035795Y013893D01*
X035803Y013865D01*
X035807Y013836D01*
X035807Y013808D01*
X035803Y013779D01*
X035795Y013751D01*
X035784Y013724D01*
X035769Y013699D01*
X035751Y013676D01*
X035730Y013656D01*
X035707Y013639D01*
X035681Y013625D01*
X035654Y013615D01*
X035626Y013608D01*
X035597Y013605D01*
X035568Y013606D01*
X035540Y013611D01*
X035512Y013619D01*
X035486Y013632D01*
X035461Y013647D01*
X035439Y013666D01*
X035420Y013688D01*
X035403Y013711D01*
X035390Y013737D01*
X035381Y013765D01*
X035375Y013793D01*
X035373Y013822D01*
X035373Y012050D02*
X035375Y012079D01*
X035381Y012107D01*
X035390Y012135D01*
X035403Y012161D01*
X035420Y012184D01*
X035439Y012206D01*
X035461Y012225D01*
X035486Y012240D01*
X035512Y012253D01*
X035540Y012261D01*
X035568Y012266D01*
X035597Y012267D01*
X035626Y012264D01*
X035654Y012257D01*
X035681Y012247D01*
X035707Y012233D01*
X035730Y012216D01*
X035751Y012196D01*
X035769Y012173D01*
X035784Y012148D01*
X035795Y012121D01*
X035803Y012093D01*
X035807Y012064D01*
X035807Y012036D01*
X035803Y012007D01*
X035795Y011979D01*
X035784Y011952D01*
X035769Y011927D01*
X035751Y011904D01*
X035730Y011884D01*
X035707Y011867D01*
X035681Y011853D01*
X035654Y011843D01*
X035626Y011836D01*
X035597Y011833D01*
X035568Y011834D01*
X035540Y011839D01*
X035512Y011847D01*
X035486Y011860D01*
X035461Y011875D01*
X035439Y011894D01*
X035420Y011916D01*
X035403Y011939D01*
X035390Y011965D01*
X035381Y011993D01*
X035375Y012021D01*
X035373Y012050D01*
X036685Y015181D02*
X036682Y015404D01*
X036674Y015627D01*
X036661Y015849D01*
X036642Y016071D01*
X036618Y016293D01*
X036588Y016513D01*
X036553Y016734D01*
X036513Y016953D01*
X036468Y017171D01*
X036417Y017388D01*
X036361Y017604D01*
X036300Y017818D01*
X036234Y018031D01*
X036162Y018242D01*
X036086Y018451D01*
X036004Y018659D01*
X035918Y018864D01*
X035826Y019067D01*
X035730Y019268D01*
X035629Y019467D01*
X035523Y019663D01*
X035412Y019856D01*
X035297Y020047D01*
X035177Y020235D01*
X035053Y020420D01*
X034924Y020602D01*
X034791Y020780D01*
X034653Y020956D01*
X034512Y021128D01*
X034366Y021296D01*
X034216Y021461D01*
X034062Y021623D01*
X033905Y021780D01*
X033743Y021934D01*
X033578Y022084D01*
X033410Y022230D01*
X033238Y022371D01*
X033062Y022509D01*
X032884Y022642D01*
X032702Y022771D01*
X032517Y022895D01*
X032329Y023015D01*
X032138Y023130D01*
X031945Y023241D01*
X031749Y023347D01*
X031550Y023448D01*
X031349Y023544D01*
X031146Y023636D01*
X030941Y023722D01*
X030733Y023804D01*
X030524Y023880D01*
X030313Y023952D01*
X030100Y024018D01*
X029886Y024079D01*
X029670Y024135D01*
X029453Y024186D01*
X029235Y024231D01*
X029016Y024271D01*
X028795Y024306D01*
X028575Y024336D01*
X028353Y024360D01*
X028131Y024379D01*
X027909Y024392D01*
X027686Y024400D01*
X027463Y024403D01*
X027463Y024402D02*
X017161Y024402D01*
X017161Y024403D02*
X017104Y024405D01*
X017047Y024410D01*
X016991Y024420D01*
X016936Y024433D01*
X016881Y024449D01*
X016828Y024469D01*
X016776Y024493D01*
X016726Y024520D01*
X016678Y024550D01*
X016631Y024583D01*
X016587Y024619D01*
X016546Y024658D01*
X016507Y024699D01*
X016471Y024743D01*
X016438Y024790D01*
X016408Y024838D01*
X016381Y024888D01*
X016357Y024940D01*
X016337Y024993D01*
X016321Y025048D01*
X016308Y025103D01*
X016298Y025159D01*
X016293Y025216D01*
X016291Y025273D01*
X016289Y025319D01*
X016283Y025365D01*
X016274Y025410D01*
X016261Y025454D01*
X016244Y025497D01*
X016224Y025538D01*
X016200Y025578D01*
X016174Y025615D01*
X016144Y025650D01*
X016111Y025683D01*
X016076Y025713D01*
X016039Y025739D01*
X015999Y025763D01*
X015958Y025783D01*
X015915Y025800D01*
X015871Y025813D01*
X015826Y025822D01*
X015780Y025828D01*
X015734Y025830D01*
X014962Y025830D01*
X014962Y025829D02*
X014887Y025827D01*
X014813Y025821D01*
X014739Y025811D01*
X014665Y025798D01*
X014593Y025780D01*
X014521Y025759D01*
X014451Y025734D01*
X014382Y025706D01*
X014314Y025673D01*
X014249Y025638D01*
X014185Y025599D01*
X014123Y025556D01*
X014064Y025511D01*
X014007Y025462D01*
X013953Y025411D01*
X013902Y025357D01*
X013853Y025300D01*
X013808Y025241D01*
X013765Y025179D01*
X013726Y025116D01*
X013691Y025050D01*
X013658Y024982D01*
X013630Y024913D01*
X013605Y024843D01*
X013584Y024771D01*
X013566Y024699D01*
X013553Y024625D01*
X013543Y024551D01*
X013537Y024477D01*
X013535Y024402D01*
X008565Y024402D01*
X008565Y024403D02*
X008394Y024401D01*
X008223Y024395D01*
X008052Y024384D01*
X007881Y024370D01*
X007711Y024351D01*
X007541Y024329D01*
X007372Y024302D01*
X007203Y024271D01*
X007036Y024236D01*
X006869Y024197D01*
X006703Y024154D01*
X006539Y024107D01*
X006375Y024056D01*
X006213Y024001D01*
X006052Y023942D01*
X005893Y023880D01*
X005735Y023813D01*
X005579Y023743D01*
X005424Y023669D01*
X005272Y023591D01*
X005121Y023510D01*
X004972Y023425D01*
X004826Y023336D01*
X004681Y023244D01*
X004539Y023148D01*
X004399Y023050D01*
X004262Y022947D01*
X004127Y022842D01*
X003995Y022733D01*
X003865Y022621D01*
X003739Y022506D01*
X003615Y022387D01*
X003494Y022266D01*
X003375Y022142D01*
X003260Y022016D01*
X003148Y021886D01*
X003039Y021754D01*
X002934Y021619D01*
X002831Y021482D01*
X002733Y021342D01*
X002637Y021200D01*
X002545Y021055D01*
X002456Y020909D01*
X002371Y020760D01*
X002290Y020609D01*
X002212Y020457D01*
X002138Y020302D01*
X002068Y020146D01*
X002001Y019988D01*
X001939Y019829D01*
X001880Y019668D01*
X001825Y019506D01*
X001774Y019342D01*
X001727Y019178D01*
X001684Y019012D01*
X001645Y018845D01*
X001610Y018678D01*
X001579Y018509D01*
X001552Y018340D01*
X001530Y018170D01*
X001511Y018000D01*
X001497Y017829D01*
X001486Y017658D01*
X001480Y017487D01*
X001478Y017316D01*
X001406Y017314D01*
X001334Y017308D01*
X001262Y017299D01*
X001191Y017286D01*
X001121Y017269D01*
X001052Y017249D01*
X000984Y017224D01*
X000918Y017197D01*
X000852Y017166D01*
X000789Y017131D01*
X000727Y017094D01*
X000668Y017053D01*
X000611Y017009D01*
X000556Y016962D01*
X000504Y016912D01*
X000454Y016860D01*
X000407Y016805D01*
X000363Y016748D01*
X000322Y016689D01*
X000285Y016627D01*
X000250Y016564D01*
X000219Y016498D01*
X000192Y016432D01*
X000167Y016364D01*
X000147Y016295D01*
X000130Y016225D01*
X000117Y016154D01*
X000108Y016082D01*
X000102Y016010D01*
X000100Y015938D01*
X000100Y009639D01*
X000102Y009567D01*
X000108Y009495D01*
X000117Y009423D01*
X000130Y009352D01*
X000147Y009282D01*
X000167Y009213D01*
X000192Y009145D01*
X000219Y009079D01*
X000250Y009013D01*
X000285Y008950D01*
X000322Y008888D01*
X000363Y008829D01*
X000407Y008772D01*
X000454Y008717D01*
X000504Y008665D01*
X000556Y008615D01*
X000611Y008568D01*
X000668Y008524D01*
X000727Y008483D01*
X000789Y008446D01*
X000852Y008411D01*
X000918Y008380D01*
X000984Y008353D01*
X001052Y008328D01*
X001121Y008308D01*
X001191Y008291D01*
X001262Y008278D01*
X001334Y008269D01*
X001406Y008263D01*
X001478Y008261D01*
X001480Y008099D01*
X001486Y007938D01*
X001496Y007776D01*
X001509Y007615D01*
X001527Y007454D01*
X001548Y007294D01*
X001574Y007134D01*
X001603Y006975D01*
X001636Y006817D01*
X001672Y006659D01*
X001713Y006503D01*
X001757Y006347D01*
X001806Y006193D01*
X001857Y006040D01*
X001913Y005888D01*
X001972Y005737D01*
X002035Y005588D01*
X002101Y005441D01*
X002171Y005295D01*
X002245Y005151D01*
X002322Y005008D01*
X002402Y004868D01*
X002486Y004730D01*
X002573Y004593D01*
X002663Y004459D01*
X002756Y004327D01*
X002853Y004197D01*
X002953Y004070D01*
X003055Y003945D01*
X003161Y003823D01*
X003270Y003703D01*
X003381Y003586D01*
X003496Y003471D01*
X003613Y003360D01*
X003733Y003251D01*
X003855Y003145D01*
X003980Y003043D01*
X004107Y002943D01*
X004237Y002846D01*
X004369Y002753D01*
X004503Y002663D01*
X004640Y002576D01*
X004778Y002492D01*
X004918Y002412D01*
X005061Y002335D01*
X005205Y002261D01*
X005351Y002191D01*
X005498Y002125D01*
X005647Y002062D01*
X005798Y002003D01*
X005950Y001947D01*
X006103Y001896D01*
X006257Y001847D01*
X006413Y001803D01*
X006569Y001762D01*
X006727Y001726D01*
X006885Y001693D01*
X007044Y001664D01*
X007204Y001638D01*
X007364Y001617D01*
X007525Y001599D01*
X007686Y001586D01*
X007848Y001576D01*
X008009Y001570D01*
X008171Y001568D01*
X000698Y012985D02*
X000700Y013035D01*
X000706Y013085D01*
X000716Y013134D01*
X000730Y013182D01*
X000747Y013229D01*
X000768Y013274D01*
X000793Y013318D01*
X000821Y013359D01*
X000853Y013398D01*
X000887Y013435D01*
X000924Y013469D01*
X000964Y013499D01*
X001006Y013526D01*
X001050Y013550D01*
X001096Y013571D01*
X001143Y013587D01*
X001191Y013600D01*
X001241Y013609D01*
X001290Y013614D01*
X001341Y013615D01*
X001391Y013612D01*
X001440Y013605D01*
X001489Y013594D01*
X001537Y013579D01*
X001583Y013561D01*
X001628Y013539D01*
X001671Y013513D01*
X001712Y013484D01*
X001751Y013452D01*
X001787Y013417D01*
X001819Y013379D01*
X001849Y013339D01*
X001876Y013296D01*
X001899Y013252D01*
X001918Y013206D01*
X001934Y013158D01*
X001946Y013109D01*
X001954Y013060D01*
X001958Y013010D01*
X001958Y012960D01*
X001954Y012910D01*
X001946Y012861D01*
X001934Y012812D01*
X001918Y012764D01*
X001899Y012718D01*
X001876Y012674D01*
X001849Y012631D01*
X001819Y012591D01*
X001787Y012553D01*
X001751Y012518D01*
X001712Y012486D01*
X001671Y012457D01*
X001628Y012431D01*
X001583Y012409D01*
X001537Y012391D01*
X001489Y012376D01*
X001440Y012365D01*
X001391Y012358D01*
X001341Y012355D01*
X001290Y012356D01*
X001241Y012361D01*
X001191Y012370D01*
X001143Y012383D01*
X001096Y012399D01*
X001050Y012420D01*
X001006Y012444D01*
X000964Y012471D01*
X000924Y012501D01*
X000887Y012535D01*
X000853Y012572D01*
X000821Y012611D01*
X000793Y012652D01*
X000768Y012696D01*
X000747Y012741D01*
X000730Y012788D01*
X000716Y012836D01*
X000706Y012885D01*
X000700Y012935D01*
X000698Y012985D01*
D11*
X009044Y017896D02*
X009044Y018039D01*
X009332Y018327D01*
X009476Y018327D01*
X009691Y018111D01*
X009260Y017680D01*
X009044Y017896D01*
X009402Y017538D02*
X009833Y017969D01*
X009689Y017250D01*
X010121Y017682D01*
X010191Y017468D02*
X010047Y017324D01*
X010191Y017180D01*
X009903Y017180D02*
X009903Y017036D01*
X010047Y016892D01*
X010191Y016892D01*
X010479Y017180D01*
X010479Y017324D01*
X010335Y017468D01*
X010191Y017468D01*
X013362Y021728D02*
X013437Y021803D01*
X013437Y021878D01*
X013362Y021953D01*
X012986Y021953D01*
X012986Y021878D02*
X012986Y022028D01*
X012986Y022188D02*
X012986Y022414D01*
X013061Y022489D01*
X013211Y022489D01*
X013286Y022414D01*
X013286Y022188D01*
X013437Y022188D02*
X012986Y022188D01*
X013211Y022649D02*
X013211Y022949D01*
X012986Y022874D02*
X013211Y022649D01*
X013437Y022874D02*
X012986Y022874D01*
X028616Y022884D02*
X028691Y022959D01*
X028841Y022959D01*
X028916Y022884D01*
X028916Y022658D01*
X029067Y022658D02*
X028616Y022658D01*
X028616Y022884D01*
X028691Y023119D02*
X028616Y023194D01*
X028616Y023344D01*
X028691Y023419D01*
X028766Y023419D01*
X028841Y023344D01*
X028916Y023419D01*
X028992Y023419D01*
X029067Y023344D01*
X029067Y023194D01*
X028992Y023119D01*
X028841Y023269D02*
X028841Y023344D01*
X028616Y022498D02*
X028616Y022348D01*
X028616Y022423D02*
X028992Y022423D01*
X029067Y022348D01*
X029067Y022273D01*
X028992Y022198D01*
X032351Y017106D02*
X032276Y017031D01*
X032276Y016881D01*
X032351Y016806D01*
X032351Y016646D02*
X032276Y016571D01*
X032276Y016421D01*
X032351Y016346D01*
X032652Y016346D01*
X032727Y016421D01*
X032727Y016571D01*
X032652Y016646D01*
X032727Y016806D02*
X032426Y017106D01*
X032351Y017106D01*
X032727Y017106D02*
X032727Y016806D01*
X032727Y016189D02*
X032727Y016039D01*
X032727Y016114D02*
X032276Y016114D01*
X032276Y016039D02*
X032276Y016189D01*
X020418Y007402D02*
X020418Y007102D01*
X020118Y007402D01*
X020043Y007402D01*
X019968Y007327D01*
X019968Y007177D01*
X020043Y007102D01*
X020043Y006942D02*
X020193Y006942D01*
X020268Y006866D01*
X020268Y006641D01*
X020418Y006641D02*
X019968Y006641D01*
X019968Y006866D01*
X020043Y006942D01*
X019968Y006481D02*
X019968Y006331D01*
X019968Y006406D02*
X020343Y006406D01*
X020418Y006331D01*
X020418Y006256D01*
X020343Y006181D01*
X020092Y005886D02*
X019685Y005886D01*
X019583Y005785D01*
X019583Y005479D01*
X020193Y005479D01*
X020193Y005785D01*
X020092Y005886D01*
X020711Y005684D02*
X021322Y005684D01*
X020711Y005277D01*
X021322Y005277D01*
X021322Y005075D02*
X021322Y004872D01*
X021322Y004973D02*
X020711Y004973D01*
X020711Y004872D02*
X020711Y005075D01*
X020193Y004872D02*
X019583Y004872D01*
X020193Y005279D01*
X019583Y005279D01*
X019203Y005279D02*
X018593Y005279D01*
X018593Y005479D02*
X018593Y005785D01*
X018695Y005886D01*
X019102Y005886D01*
X019203Y005785D01*
X019203Y005479D01*
X018593Y005479D01*
X018172Y005474D02*
X017561Y005474D01*
X018172Y005881D01*
X017561Y005881D01*
X017199Y005678D02*
X017199Y005474D01*
X017097Y005372D01*
X017097Y005170D02*
X017199Y005170D01*
X017199Y005068D01*
X017097Y005068D01*
X017097Y005170D01*
X017097Y004868D02*
X016996Y004868D01*
X016894Y004766D01*
X016894Y004664D01*
X016894Y004766D02*
X016792Y004868D01*
X016690Y004868D01*
X016589Y004766D01*
X016589Y004563D01*
X016690Y004461D01*
X017097Y004461D02*
X017199Y004563D01*
X017199Y004766D01*
X017097Y004868D01*
X017561Y004868D02*
X017968Y004868D01*
X018172Y004664D01*
X017968Y004461D01*
X017561Y004461D01*
X017561Y005068D02*
X017561Y005272D01*
X017561Y005170D02*
X018172Y005170D01*
X018172Y005068D02*
X018172Y005272D01*
X018593Y004872D02*
X019203Y005279D01*
X019203Y004872D02*
X018593Y004872D01*
X018695Y004671D02*
X018593Y004569D01*
X018593Y004366D01*
X018695Y004264D01*
X019102Y004264D01*
X019203Y004366D01*
X019203Y004569D01*
X019102Y004671D01*
X018898Y004671D01*
X018898Y004467D01*
X019583Y004366D02*
X019685Y004264D01*
X020092Y004264D01*
X020193Y004366D01*
X020193Y004569D01*
X020092Y004671D01*
X019888Y004671D01*
X019888Y004467D01*
X019685Y004671D02*
X019583Y004569D01*
X019583Y004366D01*
X020711Y004264D02*
X021118Y004264D01*
X021322Y004467D01*
X021118Y004671D01*
X020711Y004671D01*
X018000Y002552D02*
X017700Y002552D01*
X017700Y002326D01*
X017850Y002401D01*
X017925Y002401D01*
X018000Y002326D01*
X018000Y002176D01*
X017925Y002101D01*
X017775Y002101D01*
X017700Y002176D01*
X017540Y002326D02*
X017465Y002251D01*
X017239Y002251D01*
X017239Y002101D02*
X017239Y002552D01*
X017465Y002552D01*
X017540Y002476D01*
X017540Y002326D01*
X017079Y002552D02*
X016929Y002552D01*
X017004Y002552D02*
X017004Y002176D01*
X016929Y002101D01*
X016854Y002101D01*
X016779Y002176D01*
X016085Y004461D02*
X015475Y004461D01*
X015475Y004766D01*
X015577Y004868D01*
X015780Y004868D01*
X015882Y004766D01*
X015882Y004461D01*
X015882Y004664D02*
X016085Y004868D01*
X015984Y005068D02*
X016085Y005170D01*
X016085Y005374D01*
X015984Y005475D01*
X015882Y005475D01*
X015780Y005374D01*
X015780Y005170D01*
X015678Y005068D01*
X015577Y005068D01*
X015475Y005170D01*
X015475Y005374D01*
X015577Y005475D01*
X015475Y005676D02*
X015475Y006083D01*
X015475Y005880D02*
X016085Y005880D01*
X016589Y005980D02*
X016996Y005980D01*
X017199Y006184D01*
X016996Y006387D01*
X016589Y006387D01*
X016690Y005779D02*
X016792Y005779D01*
X016894Y005678D01*
X016996Y005779D01*
X017097Y005779D01*
X017199Y005678D01*
X016894Y005678D02*
X016894Y005576D01*
X016690Y005779D02*
X016589Y005678D01*
X016589Y005474D01*
X016690Y005372D01*
X012288Y007712D02*
X012288Y008012D01*
X012213Y008172D02*
X011912Y008172D01*
X011837Y008247D01*
X011837Y008397D01*
X011912Y008472D01*
X011837Y008632D02*
X011837Y008858D01*
X011912Y008933D01*
X012213Y008933D01*
X012288Y008858D01*
X012288Y008632D01*
X011837Y008632D01*
X012213Y008472D02*
X012288Y008397D01*
X012288Y008247D01*
X012213Y008172D01*
X012288Y007712D02*
X011837Y007712D01*
X012363Y009093D02*
X012363Y009393D01*
X012288Y009553D02*
X011837Y009553D01*
X012288Y009853D01*
X011837Y009853D01*
X011912Y010014D02*
X012213Y010014D01*
X012288Y010089D01*
X012288Y010239D01*
X012213Y010314D01*
X011912Y010314D01*
X011837Y010239D01*
X011837Y010089D01*
X011912Y010014D01*
X011837Y010474D02*
X012288Y010474D01*
X012138Y010474D02*
X011837Y010774D01*
X011837Y010934D02*
X011837Y011084D01*
X011837Y011009D02*
X012288Y011009D01*
X012288Y010934D02*
X012288Y011084D01*
X012288Y011241D02*
X011987Y011241D01*
X011837Y011391D01*
X011987Y011542D01*
X012288Y011542D01*
X012062Y011542D02*
X012062Y011241D01*
X012288Y010774D02*
X012062Y010549D01*
D12*
X010103Y010797D02*
X009858Y010552D01*
X009735Y010552D01*
X009612Y010674D01*
X009612Y010797D01*
X009432Y010855D02*
X009800Y011223D01*
X009554Y011468D01*
X009796Y011530D02*
X009612Y011714D01*
X009612Y011837D01*
X009858Y012082D01*
X009980Y012082D01*
X010164Y011898D01*
X009796Y011530D01*
X009493Y011956D02*
X009370Y011956D01*
X009248Y012079D01*
X009248Y012202D01*
X009493Y012447D02*
X009616Y012447D01*
X009738Y012324D01*
X009738Y012202D01*
X009493Y011956D01*
X009796Y012430D02*
X009612Y012614D01*
X009612Y012737D01*
X009858Y012982D01*
X009980Y012982D01*
X010164Y012798D01*
X009796Y012430D01*
X009432Y012795D02*
X009309Y012918D01*
X009370Y012856D02*
X009738Y013224D01*
X009800Y013163D02*
X009677Y013286D01*
X009557Y013406D02*
X009189Y013038D01*
X009311Y013651D01*
X008943Y013283D01*
X009432Y013825D02*
X009800Y014193D01*
X009554Y014438D01*
X009435Y014557D02*
X009067Y014189D01*
X009190Y014435D02*
X009190Y014803D01*
X009370Y014936D02*
X009738Y015304D01*
X009800Y015243D02*
X009677Y015366D01*
X009557Y015486D02*
X009189Y015118D01*
X009311Y015731D01*
X008943Y015363D01*
X009309Y014998D02*
X009432Y014875D01*
X009551Y014756D02*
X009796Y015001D01*
X010042Y015001D01*
X010042Y014756D01*
X009796Y014510D01*
X009312Y014435D02*
X008822Y014435D01*
X009612Y013767D02*
X009612Y013644D01*
X009735Y013522D01*
X009858Y013522D01*
X010103Y013767D01*
X010103Y013890D01*
X009980Y014012D01*
X009858Y014012D01*
X009796Y015697D02*
X010164Y016065D01*
X009919Y016310D01*
X009800Y016430D02*
X009677Y016552D01*
X009738Y016491D02*
X009370Y016123D01*
X009432Y016062D02*
X009309Y016184D01*
X009250Y016366D02*
X009495Y016611D01*
X009495Y016734D01*
X009373Y016857D01*
X009250Y016857D01*
X009127Y016734D01*
X009250Y016611D01*
X009250Y016366D02*
X009127Y016366D01*
X009005Y016489D01*
X009005Y016611D01*
X008824Y016669D02*
X009192Y017037D01*
X009008Y016853D02*
X008763Y017099D01*
X008579Y016915D02*
X008947Y017283D01*
X008705Y017525D02*
X008337Y017157D01*
X008459Y017034D02*
X008214Y017279D01*
X008097Y016946D02*
X007852Y016946D01*
X007606Y016700D01*
X007487Y016819D02*
X007487Y017065D01*
X007610Y017187D01*
X007855Y017187D01*
X008097Y016946D02*
X008097Y016700D01*
X007852Y016455D01*
X007971Y016336D02*
X008216Y016090D01*
X008400Y016274D01*
X008216Y016336D01*
X008155Y016397D01*
X008155Y016520D01*
X008278Y016642D01*
X008400Y016642D01*
X008523Y016520D01*
X008523Y016397D01*
X008705Y016338D02*
X008705Y016093D01*
X008582Y015970D01*
X008337Y015970D01*
X014065Y020606D02*
X014065Y020837D01*
X014142Y020913D01*
X014449Y020913D01*
X014525Y020837D01*
X014525Y020606D01*
X014065Y020606D01*
X014218Y021067D02*
X014065Y021220D01*
X014525Y021220D01*
X014525Y021067D02*
X014525Y021374D01*
X014449Y021527D02*
X014525Y021604D01*
X014525Y021757D01*
X014449Y021834D01*
X014372Y021834D01*
X014295Y021757D01*
X014295Y021681D01*
X014295Y021757D02*
X014218Y021834D01*
X014142Y021834D01*
X014065Y021757D01*
X014065Y021604D01*
X014142Y021527D01*
X014948Y021604D02*
X015025Y021527D01*
X014948Y021604D02*
X014948Y021757D01*
X015025Y021834D01*
X015101Y021834D01*
X015408Y021527D01*
X015408Y021834D01*
X015408Y021374D02*
X015408Y021067D01*
X015408Y021220D02*
X014948Y021220D01*
X015101Y021067D01*
X015025Y020913D02*
X014948Y020837D01*
X014948Y020606D01*
X015408Y020606D01*
X015408Y020837D01*
X015332Y020913D01*
X015025Y020913D01*
X015938Y020837D02*
X015938Y020606D01*
X016398Y020606D01*
X016398Y020837D01*
X016322Y020913D01*
X016015Y020913D01*
X015938Y020837D01*
X016091Y021067D02*
X015938Y021220D01*
X016398Y021220D01*
X016398Y021067D02*
X016398Y021374D01*
X016398Y021527D02*
X016398Y021834D01*
X016398Y021681D02*
X015938Y021681D01*
X016091Y021527D01*
X017008Y021604D02*
X017008Y021757D01*
X017085Y021834D01*
X017392Y021527D01*
X017468Y021604D01*
X017468Y021757D01*
X017392Y021834D01*
X017085Y021834D01*
X017008Y021604D02*
X017085Y021527D01*
X017392Y021527D01*
X017468Y021374D02*
X017468Y021067D01*
X017468Y021220D02*
X017008Y021220D01*
X017161Y021067D01*
X017085Y020913D02*
X017008Y020837D01*
X017008Y020606D01*
X017468Y020606D01*
X017468Y020837D01*
X017392Y020913D01*
X017085Y020913D01*
X017938Y020837D02*
X017938Y020606D01*
X018398Y020606D01*
X018398Y020837D01*
X018322Y020913D01*
X018015Y020913D01*
X017938Y020837D01*
X018015Y021067D02*
X018091Y021067D01*
X018168Y021144D01*
X018168Y021374D01*
X018015Y021374D02*
X017938Y021297D01*
X017938Y021144D01*
X018015Y021067D01*
X018322Y021067D02*
X018398Y021144D01*
X018398Y021297D01*
X018322Y021374D01*
X018015Y021374D01*
X018878Y021297D02*
X018955Y021374D01*
X019031Y021374D01*
X019108Y021297D01*
X019108Y021144D01*
X019031Y021067D01*
X018955Y021067D01*
X018878Y021144D01*
X018878Y021297D01*
X019108Y021297D02*
X019185Y021374D01*
X019262Y021374D01*
X019338Y021297D01*
X019338Y021144D01*
X019262Y021067D01*
X019185Y021067D01*
X019108Y021144D01*
X018955Y020913D02*
X018878Y020837D01*
X018878Y020606D01*
X019338Y020606D01*
X019338Y020837D01*
X019262Y020913D01*
X018955Y020913D01*
X020671Y020859D02*
X020671Y020629D01*
X021132Y020629D01*
X021132Y020859D01*
X021055Y020936D01*
X020748Y020936D01*
X020671Y020859D01*
X020671Y021089D02*
X020671Y021396D01*
X020748Y021396D01*
X021055Y021089D01*
X021132Y021089D01*
X021671Y020859D02*
X021671Y020629D01*
X022132Y020629D01*
X022132Y020859D01*
X022055Y020936D01*
X021748Y020936D01*
X021671Y020859D01*
X021901Y021089D02*
X021748Y021243D01*
X021671Y021396D01*
X021901Y021320D02*
X021901Y021089D01*
X022055Y021089D01*
X022132Y021166D01*
X022132Y021320D01*
X022055Y021396D01*
X021978Y021396D01*
X021901Y021320D01*
X022691Y021396D02*
X022691Y021089D01*
X022921Y021089D01*
X022845Y021243D01*
X022845Y021320D01*
X022921Y021396D01*
X023075Y021396D01*
X023152Y021320D01*
X023152Y021166D01*
X023075Y021089D01*
X023075Y020936D02*
X022768Y020936D01*
X022691Y020859D01*
X022691Y020629D01*
X023152Y020629D01*
X023152Y020859D01*
X023075Y020936D01*
X023721Y020932D02*
X023721Y020702D01*
X024182Y020702D01*
X024182Y020932D01*
X024105Y021009D01*
X023798Y021009D01*
X023721Y020932D01*
X023951Y021163D02*
X023951Y021469D01*
X023721Y021393D02*
X024182Y021393D01*
X023951Y021163D02*
X023721Y021393D01*
X024661Y021320D02*
X024738Y021396D01*
X024815Y021396D01*
X024891Y021320D01*
X024968Y021396D01*
X025045Y021396D01*
X025122Y021320D01*
X025122Y021166D01*
X025045Y021089D01*
X025045Y020936D02*
X024738Y020936D01*
X024661Y020859D01*
X024661Y020629D01*
X025122Y020629D01*
X025122Y020859D01*
X025045Y020936D01*
X024891Y021243D02*
X024891Y021320D01*
X024661Y021320D02*
X024661Y021166D01*
X024738Y021089D01*
X025731Y021042D02*
X025808Y020966D01*
X025731Y021042D02*
X025731Y021196D01*
X025808Y021273D01*
X025885Y021273D01*
X026192Y020966D01*
X026192Y021273D01*
X026115Y020812D02*
X025808Y020812D01*
X025731Y020735D01*
X025731Y020505D01*
X026192Y020505D01*
X026192Y020735D01*
X026115Y020812D01*
X026661Y020859D02*
X026661Y020629D01*
X027122Y020629D01*
X027122Y020859D01*
X027045Y020936D01*
X026738Y020936D01*
X026661Y020859D01*
X026815Y021089D02*
X026661Y021243D01*
X027122Y021243D01*
X027122Y021396D02*
X027122Y021089D01*
X027751Y021166D02*
X027751Y021320D01*
X027828Y021396D01*
X028135Y021089D01*
X028212Y021166D01*
X028212Y021320D01*
X028135Y021396D01*
X027828Y021396D01*
X027751Y021166D02*
X027828Y021089D01*
X028135Y021089D01*
X028135Y020936D02*
X027828Y020936D01*
X027751Y020859D01*
X027751Y020629D01*
X028212Y020629D01*
X028212Y020859D01*
X028135Y020936D01*
X026115Y019738D02*
X025808Y019738D01*
X025961Y019891D02*
X025961Y019584D01*
X025808Y019431D02*
X025731Y019354D01*
X025731Y019124D01*
X026192Y019124D01*
X026192Y019354D01*
X026115Y019431D01*
X025808Y019431D01*
X025808Y018510D02*
X025885Y018510D01*
X025961Y018434D01*
X025961Y018203D01*
X026038Y018050D02*
X026115Y018050D01*
X026192Y017973D01*
X026192Y017820D01*
X026115Y017743D01*
X026115Y017589D02*
X025731Y017589D01*
X025808Y017743D02*
X025885Y017743D01*
X025961Y017820D01*
X025961Y017973D01*
X026038Y018050D01*
X026192Y018203D02*
X025731Y018203D01*
X025731Y018434D01*
X025808Y018510D01*
X025961Y018434D02*
X026038Y018510D01*
X026115Y018510D01*
X026192Y018434D01*
X026192Y018203D01*
X025808Y018050D02*
X025731Y017973D01*
X025731Y017820D01*
X025808Y017743D01*
X026115Y017589D02*
X026192Y017513D01*
X026192Y017359D01*
X026115Y017283D01*
X025731Y017283D01*
X024182Y017556D02*
X024182Y017710D01*
X024105Y017786D01*
X023721Y017786D01*
X023798Y017940D02*
X023875Y017940D01*
X023951Y018016D01*
X023951Y018170D01*
X024028Y018247D01*
X024105Y018247D01*
X024182Y018170D01*
X024182Y018016D01*
X024105Y017940D01*
X023798Y017940D02*
X023721Y018016D01*
X023721Y018170D01*
X023798Y018247D01*
X023721Y018400D02*
X023721Y018630D01*
X023798Y018707D01*
X023875Y018707D01*
X023951Y018630D01*
X023951Y018400D01*
X023721Y018400D02*
X024182Y018400D01*
X024182Y018630D01*
X024105Y018707D01*
X024028Y018707D01*
X023951Y018630D01*
X023721Y019321D02*
X023721Y019551D01*
X023798Y019628D01*
X024105Y019628D01*
X024182Y019551D01*
X024182Y019321D01*
X023721Y019321D01*
X023951Y019781D02*
X023951Y020088D01*
X024182Y017556D02*
X024105Y017479D01*
X023721Y017479D01*
X015114Y023186D02*
X015037Y023110D01*
X014961Y023110D01*
X015114Y023186D02*
X015114Y023570D01*
X014884Y023570D01*
X014807Y023493D01*
X014807Y023340D01*
X014884Y023263D01*
X015114Y023263D01*
X015268Y023263D02*
X015421Y023263D01*
X015344Y023263D02*
X015344Y023570D01*
X015268Y023570D01*
X015344Y023723D02*
X015344Y023800D01*
X015575Y023570D02*
X015728Y023570D01*
X015651Y023647D02*
X015651Y023340D01*
X015728Y023263D01*
X015881Y023340D02*
X015958Y023416D01*
X016188Y023416D01*
X016188Y023493D02*
X016188Y023263D01*
X015958Y023263D01*
X015881Y023340D01*
X015958Y023570D02*
X016112Y023570D01*
X016188Y023493D01*
X016342Y023263D02*
X016495Y023263D01*
X016419Y023263D02*
X016419Y023723D01*
X016342Y023723D01*
X017109Y023647D02*
X017109Y023570D01*
X017186Y023493D01*
X017339Y023493D01*
X017416Y023416D01*
X017416Y023340D01*
X017339Y023263D01*
X017186Y023263D01*
X017109Y023340D01*
X017109Y023416D01*
X017186Y023493D01*
X017339Y023493D02*
X017416Y023570D01*
X017416Y023647D01*
X017339Y023723D01*
X017186Y023723D01*
X017109Y023647D01*
X018030Y023493D02*
X018337Y023493D01*
X018951Y023570D02*
X019104Y023723D01*
X019104Y023263D01*
X018951Y023263D02*
X019258Y023263D01*
X019411Y023340D02*
X019488Y023263D01*
X019641Y023263D01*
X019718Y023340D01*
X019718Y023416D01*
X019641Y023493D01*
X019565Y023493D01*
X019641Y023493D02*
X019718Y023570D01*
X019718Y023647D01*
X019641Y023723D01*
X019488Y023723D01*
X019411Y023647D01*
X020541Y023800D02*
X020541Y023340D01*
X020771Y023340D01*
X020848Y023416D01*
X020848Y023723D01*
X020771Y023800D01*
X020541Y023800D01*
X021002Y023647D02*
X021078Y023647D01*
X021078Y023340D01*
X021002Y023340D02*
X021155Y023340D01*
X021309Y023416D02*
X021385Y023340D01*
X021616Y023340D01*
X021616Y023263D02*
X021616Y023647D01*
X021385Y023647D01*
X021309Y023570D01*
X021309Y023416D01*
X021462Y023186D02*
X021539Y023186D01*
X021616Y023263D01*
X021769Y023340D02*
X021922Y023340D01*
X021846Y023340D02*
X021846Y023647D01*
X021769Y023647D01*
X021846Y023800D02*
X021846Y023877D01*
X022076Y023647D02*
X022229Y023647D01*
X022153Y023723D02*
X022153Y023416D01*
X022229Y023340D01*
X022383Y023416D02*
X022460Y023340D01*
X022690Y023340D01*
X022690Y023570D01*
X022613Y023647D01*
X022460Y023647D01*
X022460Y023493D02*
X022690Y023493D01*
X022843Y023340D02*
X022997Y023340D01*
X022920Y023340D02*
X022920Y023800D01*
X022843Y023800D01*
X022460Y023493D02*
X022383Y023416D01*
X023611Y023416D02*
X023687Y023340D01*
X023841Y023340D01*
X023917Y023416D01*
X023917Y023723D01*
X023611Y023416D01*
X023611Y023723D01*
X023687Y023800D01*
X023841Y023800D01*
X023917Y023723D01*
X024531Y023570D02*
X024838Y023570D01*
X025452Y023416D02*
X025452Y023340D01*
X025452Y023416D02*
X025759Y023723D01*
X025759Y023800D01*
X025452Y023800D01*
X021078Y023877D02*
X021078Y023800D01*
X014654Y023263D02*
X014500Y023263D01*
X014577Y023263D02*
X014577Y023570D01*
X014500Y023570D01*
X014347Y023647D02*
X014270Y023723D01*
X014040Y023723D01*
X014040Y023263D01*
X014270Y023263D01*
X014347Y023340D01*
X014347Y023647D01*
X014577Y023723D02*
X014577Y023800D01*
X009980Y011042D02*
X009858Y011042D01*
X009980Y011042D02*
X010103Y010920D01*
X010103Y010797D01*
X009616Y011039D02*
X009493Y011162D01*
X009186Y011100D02*
X009432Y010855D01*
X009312Y010483D02*
X008944Y010115D01*
X009067Y009993D02*
X008822Y010238D01*
X009248Y009935D02*
X009248Y009812D01*
X009370Y009689D01*
X009493Y009689D01*
X009554Y009751D01*
X009554Y009873D01*
X009432Y009996D01*
X009432Y010119D01*
X009493Y010180D01*
X009616Y010180D01*
X009738Y010057D01*
X009738Y009935D01*
X009919Y009877D02*
X009919Y009631D01*
X009858Y009693D02*
X010042Y009509D01*
X010164Y009631D02*
X009796Y009263D01*
X009612Y009447D01*
X009612Y009570D01*
X009735Y009693D01*
X009858Y009693D01*
X020909Y002491D02*
X021063Y002645D01*
X021216Y002491D01*
X021216Y002184D01*
X021370Y002184D02*
X021370Y002491D01*
X021600Y002491D01*
X021676Y002414D01*
X021676Y002184D01*
X021830Y002261D02*
X021907Y002338D01*
X022137Y002338D01*
X022137Y002414D02*
X022137Y002184D01*
X021907Y002184D01*
X021830Y002261D01*
X021907Y002491D02*
X022060Y002491D01*
X022137Y002414D01*
X022290Y002184D02*
X022444Y002184D01*
X022367Y002184D02*
X022367Y002645D01*
X022290Y002645D01*
X022597Y002414D02*
X022597Y002261D01*
X022674Y002184D01*
X022827Y002184D01*
X022904Y002261D01*
X022904Y002414D01*
X022827Y002491D01*
X022674Y002491D01*
X022597Y002414D01*
X023058Y002414D02*
X023058Y002261D01*
X023134Y002184D01*
X023365Y002184D01*
X023365Y002108D02*
X023365Y002491D01*
X023134Y002491D01*
X023058Y002414D01*
X023365Y002108D02*
X023288Y002031D01*
X023211Y002031D01*
X023978Y002261D02*
X024055Y002184D01*
X024209Y002184D01*
X024285Y002261D01*
X024285Y002414D01*
X024209Y002491D01*
X024132Y002491D01*
X023978Y002414D01*
X023978Y002645D01*
X024285Y002645D01*
X024899Y002491D02*
X025053Y002491D01*
X024976Y002568D02*
X024976Y002261D01*
X025053Y002184D01*
X025206Y002261D02*
X025206Y002414D01*
X025283Y002491D01*
X025436Y002491D01*
X025513Y002414D01*
X025513Y002261D01*
X025436Y002184D01*
X025283Y002184D01*
X025206Y002261D01*
X026127Y002261D02*
X026434Y002568D01*
X026434Y002261D01*
X026357Y002184D01*
X026204Y002184D01*
X026127Y002261D01*
X026127Y002568D01*
X026204Y002645D01*
X026357Y002645D01*
X026434Y002568D01*
X026674Y004590D02*
X026521Y004743D01*
X026674Y004897D01*
X026981Y004897D01*
X026751Y004897D02*
X026751Y004590D01*
X026674Y004590D02*
X026981Y004590D01*
X027646Y004743D02*
X027800Y004897D01*
X028107Y004897D01*
X028030Y005050D02*
X028107Y005127D01*
X028107Y005280D01*
X028030Y005357D01*
X027876Y005357D01*
X027800Y005280D01*
X027800Y005203D01*
X027876Y005050D01*
X027646Y005050D01*
X027646Y005357D01*
X026981Y005280D02*
X026521Y005280D01*
X026751Y005050D01*
X026751Y005357D01*
X026063Y005280D02*
X026063Y005127D01*
X025986Y005050D01*
X026063Y004897D02*
X025756Y004897D01*
X025602Y004743D01*
X025756Y004590D01*
X026063Y004590D01*
X025832Y004590D02*
X025832Y004897D01*
X025679Y005050D02*
X025602Y005127D01*
X025602Y005280D01*
X025679Y005357D01*
X025756Y005357D01*
X025832Y005280D01*
X025909Y005357D01*
X025986Y005357D01*
X026063Y005280D01*
X025832Y005280D02*
X025832Y005203D01*
X025044Y005050D02*
X024737Y005357D01*
X024661Y005357D01*
X024584Y005280D01*
X024584Y005127D01*
X024661Y005050D01*
X024737Y004897D02*
X025044Y004897D01*
X025044Y005050D02*
X025044Y005357D01*
X024814Y004897D02*
X024814Y004590D01*
X024737Y004590D02*
X025044Y004590D01*
X024737Y004590D02*
X024584Y004743D01*
X024737Y004897D01*
X024096Y004897D02*
X023789Y004897D01*
X023635Y004743D01*
X023789Y004590D01*
X024096Y004590D01*
X023865Y004590D02*
X023865Y004897D01*
X023789Y005050D02*
X023635Y005203D01*
X024096Y005203D01*
X024096Y005050D02*
X024096Y005357D01*
X022950Y005280D02*
X022950Y005127D01*
X022874Y005050D01*
X022567Y005357D01*
X022874Y005357D01*
X022950Y005280D01*
X022874Y005050D02*
X022567Y005050D01*
X022490Y005127D01*
X022490Y005280D01*
X022567Y005357D01*
X022643Y004897D02*
X022490Y004743D01*
X022643Y004590D01*
X022950Y004590D01*
X022720Y004590D02*
X022720Y004897D01*
X022643Y004897D02*
X022950Y004897D01*
X021216Y002414D02*
X020909Y002414D01*
X020909Y002491D02*
X020909Y002184D01*
X027646Y004743D02*
X027800Y004590D01*
X028107Y004590D01*
X027876Y004590D02*
X027876Y004897D01*
D13*
X036338Y010574D02*
X036732Y010574D01*
X036732Y015298D01*
X036338Y015298D01*
X035157Y014511D02*
X035157Y011361D01*
X027641Y016082D02*
X027641Y016593D01*
X026165Y016593D02*
X026165Y016082D01*
X019310Y019449D02*
X019310Y019602D01*
X019156Y019756D01*
X018389Y019756D01*
X019003Y019756D02*
X019003Y019295D01*
X018849Y019142D01*
X018389Y019142D01*
X018389Y018835D02*
X018389Y018528D01*
X018236Y018681D02*
X018849Y018681D01*
X019003Y018835D01*
X019003Y018221D02*
X019003Y017914D01*
X019003Y018067D02*
X018389Y018067D01*
X018389Y017914D01*
X018389Y017607D02*
X018389Y017454D01*
X018696Y017147D01*
X019003Y017147D02*
X018389Y017147D01*
X018389Y016840D02*
X019003Y016840D01*
X019003Y016379D01*
X018849Y016226D01*
X018389Y016226D01*
X018389Y015919D02*
X018389Y015459D01*
X018543Y015305D01*
X018849Y015305D01*
X019003Y015459D01*
X019003Y015919D01*
X018696Y014998D02*
X018696Y014384D01*
X018849Y014384D02*
X018543Y014384D01*
X018389Y014538D01*
X018389Y014845D01*
X018543Y014998D01*
X018696Y014998D01*
X019003Y014845D02*
X019003Y014538D01*
X018849Y014384D01*
X018849Y014077D02*
X018696Y014077D01*
X018543Y013924D01*
X018543Y013617D01*
X018389Y013464D01*
X018236Y013464D01*
X018082Y013617D01*
X018082Y013924D01*
X018236Y014077D01*
X018849Y014077D02*
X019003Y013924D01*
X019003Y013617D01*
X018849Y013464D01*
X018082Y018067D02*
X017929Y018067D01*
X014770Y006575D02*
X014589Y006575D01*
X014681Y006453D01*
X014589Y006575D02*
X014408Y006575D01*
X014503Y006453D02*
X014579Y006569D01*
X011646Y005010D02*
X011646Y004034D01*
X011252Y003522D02*
X010039Y003522D01*
X009646Y004034D02*
X009646Y005022D01*
X010039Y005522D02*
X011252Y005522D01*
X010146Y004522D02*
X010148Y004566D01*
X010154Y004610D01*
X010164Y004653D01*
X010177Y004695D01*
X010194Y004736D01*
X010215Y004775D01*
X010239Y004812D01*
X010266Y004847D01*
X010296Y004879D01*
X010329Y004909D01*
X010365Y004935D01*
X010402Y004959D01*
X010442Y004978D01*
X010483Y004995D01*
X010526Y005007D01*
X010569Y005016D01*
X010613Y005021D01*
X010657Y005022D01*
X010701Y005019D01*
X010745Y005012D01*
X010788Y005001D01*
X010830Y004987D01*
X010870Y004969D01*
X010909Y004947D01*
X010945Y004923D01*
X010979Y004895D01*
X011011Y004864D01*
X011040Y004830D01*
X011066Y004794D01*
X011088Y004756D01*
X011107Y004716D01*
X011122Y004674D01*
X011134Y004632D01*
X011142Y004588D01*
X011146Y004544D01*
X011146Y004500D01*
X011142Y004456D01*
X011134Y004412D01*
X011122Y004370D01*
X011107Y004328D01*
X011088Y004288D01*
X011066Y004250D01*
X011040Y004214D01*
X011011Y004180D01*
X010979Y004149D01*
X010945Y004121D01*
X010909Y004097D01*
X010870Y004075D01*
X010830Y004057D01*
X010788Y004043D01*
X010745Y004032D01*
X010701Y004025D01*
X010657Y004022D01*
X010613Y004023D01*
X010569Y004028D01*
X010526Y004037D01*
X010483Y004049D01*
X010442Y004066D01*
X010402Y004085D01*
X010365Y004109D01*
X010329Y004135D01*
X010296Y004165D01*
X010266Y004197D01*
X010239Y004232D01*
X010215Y004269D01*
X010194Y004308D01*
X010177Y004349D01*
X010164Y004391D01*
X010154Y004434D01*
X010148Y004478D01*
X010146Y004522D01*
D14*
X019583Y013905D02*
X019583Y014451D01*
X019765Y014633D01*
X019947Y014633D01*
X020129Y014451D01*
X020129Y013905D01*
X020675Y013905D02*
X019583Y013905D01*
X020129Y014451D02*
X020311Y014633D01*
X020493Y014633D01*
X020675Y014451D01*
X020675Y013905D01*
X020493Y014992D02*
X020675Y015174D01*
X020675Y015538D01*
X020493Y015720D01*
X020311Y015720D01*
X020129Y015538D01*
X020129Y015174D01*
X019947Y014992D01*
X019765Y014992D01*
X019583Y015174D01*
X019583Y015538D01*
X019765Y015720D01*
X019947Y016080D02*
X019947Y016262D01*
X020675Y016262D01*
X020675Y016080D02*
X020675Y016444D01*
X020493Y016805D02*
X020129Y016805D01*
X019947Y016987D01*
X019947Y017533D01*
X019583Y017533D02*
X020675Y017533D01*
X020675Y016987D01*
X020493Y016805D01*
X019583Y016262D02*
X019401Y016262D01*
X020129Y017892D02*
X019947Y018074D01*
X019947Y018438D01*
X020129Y018620D01*
X020311Y018620D01*
X020311Y017892D01*
X020493Y017892D02*
X020129Y017892D01*
X020493Y017892D02*
X020675Y018074D01*
X020675Y018438D01*
X020675Y018980D02*
X020675Y019526D01*
X020493Y019708D01*
X020311Y019526D01*
X020311Y019162D01*
X020129Y018980D01*
X019947Y019162D01*
X019947Y019708D01*
D15*
X021507Y019675D02*
X021507Y019459D01*
X021615Y019351D01*
X021832Y019351D01*
X021940Y019459D01*
X021940Y019675D01*
X021832Y019784D01*
X021615Y019784D01*
X021507Y019675D01*
X021507Y019131D02*
X021507Y018806D01*
X021615Y018698D01*
X021832Y018698D01*
X021940Y018806D01*
X021940Y019131D01*
X021940Y018480D02*
X021940Y018263D01*
X021940Y018371D02*
X021507Y018371D01*
X021507Y018263D01*
X021291Y018371D02*
X021183Y018371D01*
X021399Y018044D02*
X021615Y018044D01*
X021724Y017935D01*
X021724Y017611D01*
X021940Y017611D02*
X021291Y017611D01*
X021291Y017935D01*
X021399Y018044D01*
X021724Y017827D02*
X021940Y018044D01*
X021832Y016738D02*
X021615Y016738D01*
X021507Y016630D01*
X021507Y016414D01*
X021615Y016306D01*
X021832Y016306D01*
X021940Y016414D01*
X021940Y016630D01*
X021832Y016738D01*
X021940Y016087D02*
X021832Y015979D01*
X021399Y015979D01*
X021507Y015871D02*
X021507Y016087D01*
X021507Y015651D02*
X021507Y015543D01*
X021724Y015327D01*
X021940Y015327D02*
X021507Y015327D01*
X021615Y015107D02*
X021724Y015107D01*
X021724Y014674D01*
X021832Y014674D02*
X021615Y014674D01*
X021507Y014783D01*
X021507Y014999D01*
X021615Y015107D01*
X021940Y014999D02*
X021940Y014783D01*
X021832Y014674D01*
X021940Y014455D02*
X021507Y014455D01*
X021940Y014455D02*
X021940Y014130D01*
X021832Y014022D01*
X021507Y014022D01*
X021399Y013802D02*
X021615Y013802D01*
X021724Y013694D01*
X021724Y013369D01*
X021940Y013369D02*
X021291Y013369D01*
X021291Y013694D01*
X021399Y013802D01*
X023022Y014671D02*
X025781Y014671D01*
X025781Y012051D01*
X025642Y011911D01*
X023022Y011911D01*
X023022Y014671D01*
X025341Y012211D02*
X025343Y012234D01*
X025349Y012257D01*
X025358Y012278D01*
X025371Y012298D01*
X025387Y012315D01*
X025405Y012329D01*
X025425Y012340D01*
X025447Y012348D01*
X025470Y012352D01*
X025494Y012352D01*
X025517Y012348D01*
X025539Y012340D01*
X025559Y012329D01*
X025577Y012315D01*
X025593Y012298D01*
X025606Y012278D01*
X025615Y012257D01*
X025621Y012234D01*
X025623Y012211D01*
X025621Y012188D01*
X025615Y012165D01*
X025606Y012144D01*
X025593Y012124D01*
X025577Y012107D01*
X025559Y012093D01*
X025539Y012082D01*
X025517Y012074D01*
X025494Y012070D01*
X025470Y012070D01*
X025447Y012074D01*
X025425Y012082D01*
X025405Y012093D01*
X025387Y012107D01*
X025371Y012124D01*
X025358Y012144D01*
X025349Y012165D01*
X025343Y012188D01*
X025341Y012211D01*
X029871Y015011D02*
X029871Y017471D01*
X031233Y017471D01*
X031233Y015011D01*
X029871Y015011D01*
X031265Y014060D02*
X031265Y013823D01*
X031738Y013823D02*
X031738Y014060D01*
X029438Y018323D02*
X029438Y018560D01*
X028965Y018560D02*
X028965Y018323D01*
X028202Y021993D02*
X027702Y021993D01*
X027452Y022243D01*
X027202Y021993D01*
X026702Y021993D01*
X026452Y022243D01*
X026452Y022743D01*
X026702Y022993D01*
X027202Y022993D01*
X027452Y022743D01*
X027702Y022993D01*
X028202Y022993D01*
X028452Y022743D01*
X028452Y022243D01*
X028202Y021993D01*
X027452Y022243D02*
X027452Y022743D01*
X026452Y022743D02*
X026202Y022993D01*
X025702Y022993D01*
X025452Y022743D01*
X025202Y022993D01*
X024702Y022993D01*
X024452Y022743D01*
X024202Y022993D01*
X023702Y022993D01*
X023452Y022743D01*
X023452Y022243D01*
X023702Y021993D01*
X024202Y021993D01*
X024452Y022243D01*
X024452Y022743D01*
X024452Y022243D02*
X024702Y021993D01*
X025202Y021993D01*
X025452Y022243D01*
X025452Y022743D01*
X025452Y022243D02*
X025702Y021993D01*
X026202Y021993D01*
X026452Y022243D01*
X023452Y022243D02*
X023202Y021993D01*
X022702Y021993D01*
X022452Y022243D01*
X022202Y021993D01*
X021702Y021993D01*
X021452Y022243D01*
X021202Y021993D01*
X020702Y021993D01*
X020452Y022243D01*
X020452Y022743D01*
X020702Y022993D01*
X021202Y022993D01*
X021452Y022743D01*
X021702Y022993D01*
X022202Y022993D01*
X022452Y022743D01*
X022702Y022993D01*
X023202Y022993D01*
X023452Y022743D01*
X022452Y022743D02*
X022452Y022243D01*
X021452Y022243D02*
X021452Y022743D01*
X019852Y022743D02*
X019852Y022243D01*
X019602Y021993D01*
X019102Y021993D01*
X018852Y022243D01*
X018602Y021993D01*
X018102Y021993D01*
X017852Y022243D01*
X017852Y022743D01*
X018102Y022993D01*
X018602Y022993D01*
X018852Y022743D01*
X019102Y022993D01*
X019602Y022993D01*
X019852Y022743D01*
X018852Y022743D02*
X018852Y022243D01*
X017852Y022243D02*
X017602Y021993D01*
X017102Y021993D01*
X016852Y022243D01*
X016602Y021993D01*
X016102Y021993D01*
X015852Y022243D01*
X015602Y021993D01*
X015102Y021993D01*
X014852Y022243D01*
X014602Y021993D01*
X014102Y021993D01*
X013852Y022243D01*
X013852Y022743D01*
X014102Y022993D01*
X014602Y022993D01*
X014852Y022743D01*
X015102Y022993D01*
X015602Y022993D01*
X015852Y022743D01*
X016102Y022993D01*
X016602Y022993D01*
X016852Y022743D01*
X017102Y022993D01*
X017602Y022993D01*
X017852Y022743D01*
X016852Y022743D02*
X016852Y022243D01*
X015852Y022243D02*
X015852Y022743D01*
X014852Y022743D02*
X014852Y022243D01*
X011314Y017291D02*
X010814Y017291D01*
X010564Y017041D01*
X010564Y016541D01*
X010814Y016291D01*
X011314Y016291D01*
X011564Y016541D01*
X011564Y017041D01*
X011314Y017291D01*
X011314Y016291D02*
X011564Y016041D01*
X011564Y015541D01*
X011314Y015291D01*
X011564Y015041D01*
X011564Y014541D01*
X011314Y014291D01*
X011564Y014041D01*
X011564Y013541D01*
X011314Y013291D01*
X011564Y013041D01*
X011564Y012541D01*
X011314Y012291D01*
X011564Y012041D01*
X011564Y011541D01*
X011314Y011291D01*
X011564Y011041D01*
X011564Y010541D01*
X011314Y010291D01*
X011564Y010041D01*
X011564Y009541D01*
X011314Y009291D01*
X010814Y009291D01*
X010564Y009541D01*
X010564Y010041D01*
X010814Y010291D01*
X010564Y010541D01*
X010564Y011041D01*
X010814Y011291D01*
X011314Y011291D01*
X010814Y011291D02*
X010564Y011541D01*
X010564Y012041D01*
X010814Y012291D01*
X010564Y012541D01*
X010564Y013041D01*
X010814Y013291D01*
X010564Y013541D01*
X010564Y014041D01*
X010814Y014291D01*
X011314Y014291D01*
X010814Y014291D02*
X010564Y014541D01*
X010564Y015041D01*
X010814Y015291D01*
X010564Y015541D01*
X010564Y016041D01*
X010814Y016291D01*
X010814Y015291D02*
X011314Y015291D01*
X011314Y013291D02*
X010814Y013291D01*
X010814Y012291D02*
X011314Y012291D01*
X011314Y010291D02*
X010814Y010291D01*
X020663Y006936D02*
X020663Y006436D01*
X020913Y006186D01*
X021413Y006186D01*
X021663Y006436D01*
X021663Y006936D01*
X021413Y007186D01*
X020913Y007186D01*
X020663Y006936D01*
X020702Y003993D02*
X021202Y003993D01*
X021452Y003743D01*
X021452Y003243D01*
X021202Y002993D01*
X020702Y002993D01*
X020452Y003243D01*
X020202Y002993D01*
X019702Y002993D01*
X019452Y003243D01*
X019452Y003743D01*
X019702Y003993D01*
X020202Y003993D01*
X020452Y003743D01*
X020702Y003993D01*
X020452Y003743D02*
X020452Y003243D01*
X019452Y003243D02*
X019202Y002993D01*
X018702Y002993D01*
X018452Y003243D01*
X018202Y002993D01*
X017702Y002993D01*
X017452Y003243D01*
X017202Y002993D01*
X016702Y002993D01*
X016452Y003243D01*
X016202Y002993D01*
X015702Y002993D01*
X015452Y003243D01*
X015452Y003743D01*
X015702Y003993D01*
X016202Y003993D01*
X016452Y003743D01*
X016702Y003993D01*
X017202Y003993D01*
X017452Y003743D01*
X017702Y003993D01*
X018202Y003993D01*
X018452Y003743D01*
X018702Y003993D01*
X019202Y003993D01*
X019452Y003743D01*
X018452Y003743D02*
X018452Y003243D01*
X017452Y003243D02*
X017452Y003743D01*
X016452Y003743D02*
X016452Y003243D01*
X022452Y003243D02*
X022702Y002993D01*
X023202Y002993D01*
X023452Y003243D01*
X023702Y002993D01*
X024202Y002993D01*
X024452Y003243D01*
X024452Y003743D01*
X024202Y003993D01*
X023702Y003993D01*
X023452Y003743D01*
X023452Y003243D01*
X023452Y003743D02*
X023202Y003993D01*
X022702Y003993D01*
X022452Y003743D01*
X022452Y003243D01*
X024452Y003243D02*
X024702Y002993D01*
X025202Y002993D01*
X025452Y003243D01*
X025702Y002993D01*
X026202Y002993D01*
X026452Y003243D01*
X026702Y002993D01*
X027202Y002993D01*
X027452Y003243D01*
X027702Y002993D01*
X028202Y002993D01*
X028452Y003243D01*
X028452Y003743D01*
X028202Y003993D01*
X027702Y003993D01*
X027452Y003743D01*
X027452Y003243D01*
X027452Y003743D02*
X027202Y003993D01*
X026702Y003993D01*
X026452Y003743D01*
X026452Y003243D01*
X026452Y003743D02*
X026202Y003993D01*
X025702Y003993D01*
X025452Y003743D01*
X025452Y003243D01*
X025452Y003743D02*
X025202Y003993D01*
X024702Y003993D01*
X024452Y003743D01*
D16*
X031320Y009048D02*
X031320Y009717D01*
X030395Y010544D02*
X030395Y011213D01*
X021360Y021843D02*
X021360Y022040D01*
X020572Y022040D02*
X020572Y021843D01*
X020572Y023024D02*
X020572Y023221D01*
X021360Y023221D02*
X021360Y023024D01*
D17*
X019465Y003413D03*
D18*
X006059Y006593D02*
X004613Y006593D01*
X004613Y007316D01*
X004854Y007557D01*
X005336Y007557D01*
X005577Y007316D01*
X005577Y006593D01*
X005818Y008043D02*
X005577Y008284D01*
X005577Y009008D01*
X005336Y009008D02*
X006059Y009008D01*
X006059Y008284D01*
X005818Y008043D01*
X005095Y008284D02*
X005095Y008767D01*
X005336Y009008D01*
X005577Y009494D02*
X005095Y009976D01*
X005095Y010217D01*
X005095Y010702D02*
X005095Y011184D01*
X004854Y010943D02*
X005818Y010943D01*
X006059Y011184D01*
X006059Y011669D02*
X006059Y012151D01*
X006059Y011910D02*
X005095Y011910D01*
X005095Y011669D01*
X004613Y011910D02*
X004372Y011910D01*
X005336Y012635D02*
X005818Y012635D01*
X006059Y012876D01*
X006059Y013599D01*
X006059Y014085D02*
X006059Y014567D01*
X006059Y014326D02*
X005095Y014326D01*
X005095Y014085D01*
X004613Y014326D02*
X004372Y014326D01*
X005095Y015052D02*
X005095Y015775D01*
X005336Y016016D01*
X005818Y016016D01*
X006059Y015775D01*
X006059Y015052D01*
X006541Y015052D02*
X005095Y015052D01*
X005095Y013599D02*
X005095Y012876D01*
X005336Y012635D01*
X005095Y009494D02*
X006059Y009494D01*
X005818Y016502D02*
X005577Y016743D01*
X005577Y017466D01*
X005336Y017466D02*
X006059Y017466D01*
X006059Y016743D01*
X005818Y016502D01*
X005095Y016743D02*
X005095Y017225D01*
X005336Y017466D01*
X005095Y017952D02*
X005095Y018675D01*
X005336Y018916D01*
X006059Y018916D01*
X005818Y019643D02*
X004854Y019643D01*
X005095Y019402D02*
X005095Y019884D01*
X005818Y019643D02*
X006059Y019884D01*
X006059Y017952D02*
X005095Y017952D01*
D19*
X007113Y013059D03*
D20*
X003569Y013133D03*
D21*
X005267Y002724D03*
X005317Y022803D03*
D22*
X023122Y014313D02*
X023122Y014066D01*
X023122Y014252D02*
X023369Y014252D01*
X023369Y014313D02*
X023369Y014066D01*
X023490Y014190D02*
X023490Y014437D01*
X023369Y014313D02*
X023246Y014437D01*
X023122Y014313D01*
X023490Y014190D02*
X023614Y014066D01*
X023737Y014190D01*
X023737Y014437D01*
X023859Y014437D02*
X024044Y014437D01*
X024106Y014375D01*
X024106Y014252D01*
X024044Y014190D01*
X023859Y014190D01*
X023982Y014190D02*
X024106Y014066D01*
X024227Y014128D02*
X024289Y014066D01*
X024412Y014066D01*
X024474Y014128D01*
X024474Y014190D01*
X024412Y014252D01*
X024350Y014252D01*
X024412Y014252D02*
X024474Y014313D01*
X024474Y014375D01*
X024412Y014437D01*
X024289Y014437D01*
X024227Y014375D01*
X024595Y014375D02*
X024657Y014437D01*
X024780Y014437D01*
X024842Y014375D01*
X024842Y014313D01*
X024595Y014066D01*
X024842Y014066D01*
X024964Y014128D02*
X024964Y014190D01*
X025025Y014252D01*
X025149Y014252D01*
X025211Y014190D01*
X025211Y014128D01*
X025149Y014066D01*
X025025Y014066D01*
X024964Y014128D01*
X025025Y014252D02*
X024964Y014313D01*
X024964Y014375D01*
X025025Y014437D01*
X025149Y014437D01*
X025211Y014375D01*
X025211Y014313D01*
X025149Y014252D01*
X025332Y014190D02*
X025517Y014190D01*
X025579Y014252D01*
X025579Y014375D01*
X025517Y014437D01*
X025332Y014437D01*
X025332Y014066D01*
X023859Y014066D02*
X023859Y014437D01*
X028730Y011827D02*
X028730Y011456D01*
X028730Y011580D02*
X028915Y011580D01*
X028977Y011642D01*
X028977Y011765D01*
X028915Y011827D01*
X028730Y011827D01*
X028853Y011580D02*
X028977Y011456D01*
X029098Y011518D02*
X029160Y011456D01*
X029283Y011456D01*
X029345Y011518D01*
X029345Y011580D01*
X029283Y011642D01*
X029098Y011642D01*
X029098Y011518D01*
X029098Y011642D02*
X029222Y011765D01*
X029345Y011827D01*
X031266Y011920D02*
X031266Y012105D01*
X031328Y012167D01*
X031451Y012167D01*
X031513Y012105D01*
X031513Y011920D01*
X031513Y012043D02*
X031637Y012167D01*
X031575Y012288D02*
X031513Y012288D01*
X031451Y012350D01*
X031451Y012473D01*
X031513Y012535D01*
X031575Y012535D01*
X031637Y012473D01*
X031637Y012350D01*
X031575Y012288D01*
X031451Y012350D02*
X031390Y012288D01*
X031328Y012288D01*
X031266Y012350D01*
X031266Y012473D01*
X031328Y012535D01*
X031390Y012535D01*
X031451Y012473D01*
X031637Y011920D02*
X031266Y011920D01*
X031569Y010968D02*
X031631Y010968D01*
X031878Y010722D01*
X031940Y010722D01*
X031940Y010600D02*
X031816Y010477D01*
X031816Y010538D02*
X031816Y010353D01*
X031940Y010353D02*
X031569Y010353D01*
X031569Y010538D01*
X031631Y010600D01*
X031755Y010600D01*
X031816Y010538D01*
X031569Y010722D02*
X031569Y010968D01*
X030579Y010227D02*
X030332Y010227D01*
X030332Y010042D01*
X030455Y010103D01*
X030517Y010103D01*
X030579Y010042D01*
X030579Y009918D01*
X030517Y009856D01*
X030393Y009856D01*
X030332Y009918D01*
X030210Y009918D02*
X030149Y009856D01*
X029963Y009856D01*
X029963Y010227D01*
X030149Y010227D01*
X030210Y010165D01*
X030210Y009918D01*
X029235Y010040D02*
X029173Y009978D01*
X029050Y009978D01*
X028988Y010040D01*
X028867Y010040D02*
X028867Y010287D01*
X028805Y010349D01*
X028620Y010349D01*
X028620Y009978D01*
X028805Y009978D01*
X028867Y010040D01*
X029111Y010164D02*
X029173Y010164D01*
X029235Y010102D01*
X029235Y010040D01*
X029173Y010164D02*
X029235Y010225D01*
X029235Y010287D01*
X029173Y010349D01*
X029050Y010349D01*
X028988Y010287D01*
X030678Y013570D02*
X030925Y013570D01*
X030987Y013632D01*
X030987Y013755D01*
X030925Y013817D01*
X030987Y013938D02*
X030740Y014185D01*
X030678Y014185D01*
X030616Y014123D01*
X030616Y014000D01*
X030678Y013938D01*
X030678Y013817D02*
X030616Y013755D01*
X030616Y013632D01*
X030678Y013570D01*
X030987Y013938D02*
X030987Y014185D01*
X031816Y014062D02*
X031940Y013938D01*
X031878Y013817D02*
X031816Y013755D01*
X031816Y013632D01*
X031878Y013570D01*
X032125Y013570D01*
X032187Y013632D01*
X032187Y013755D01*
X032125Y013817D01*
X032187Y013938D02*
X032187Y014185D01*
X032187Y014062D02*
X031816Y014062D01*
X030625Y018106D02*
X030687Y018168D01*
X030687Y018292D01*
X030625Y018353D01*
X030501Y018475D02*
X030501Y018722D01*
X030316Y018660D02*
X030501Y018475D01*
X030378Y018353D02*
X030316Y018292D01*
X030316Y018168D01*
X030378Y018106D01*
X030625Y018106D01*
X030687Y018660D02*
X030316Y018660D01*
X028887Y018660D02*
X028887Y018536D01*
X028825Y018475D01*
X028825Y018353D02*
X028887Y018292D01*
X028887Y018168D01*
X028825Y018106D01*
X028578Y018106D01*
X028516Y018168D01*
X028516Y018292D01*
X028578Y018353D01*
X028578Y018475D02*
X028516Y018536D01*
X028516Y018660D01*
X028578Y018722D01*
X028640Y018722D01*
X028701Y018660D01*
X028763Y018722D01*
X028825Y018722D01*
X028887Y018660D01*
X028701Y018660D02*
X028701Y018598D01*
X013977Y006752D02*
X013977Y006505D01*
X013977Y006383D02*
X013854Y006260D01*
X013854Y006321D02*
X013854Y006136D01*
X013977Y006136D02*
X013607Y006136D01*
X013607Y006321D01*
X013669Y006383D01*
X013792Y006383D01*
X013854Y006321D01*
X013730Y006505D02*
X013607Y006628D01*
X013977Y006628D01*
X012299Y005296D02*
X012299Y005049D01*
X012299Y004928D02*
X012299Y004681D01*
X012670Y004681D01*
X012670Y004928D01*
X012484Y004804D02*
X012484Y004681D01*
X012546Y004559D02*
X012608Y004559D01*
X012670Y004498D01*
X012670Y004374D01*
X012608Y004313D01*
X012670Y004191D02*
X012670Y003944D01*
X012299Y003944D01*
X012299Y004191D01*
X012361Y004313D02*
X012423Y004313D01*
X012484Y004374D01*
X012484Y004498D01*
X012546Y004559D01*
X012361Y004559D02*
X012299Y004498D01*
X012299Y004374D01*
X012361Y004313D01*
X012484Y004068D02*
X012484Y003944D01*
X012484Y003823D02*
X012361Y003823D01*
X012299Y003761D01*
X012299Y003576D01*
X012670Y003576D01*
X012546Y003576D02*
X012546Y003761D01*
X012484Y003823D01*
X012546Y003699D02*
X012670Y003823D01*
X012670Y005173D02*
X012299Y005173D01*
D23*
X014159Y006163D02*
X014159Y006238D01*
X014184Y006263D01*
X014284Y006263D01*
X014309Y006238D01*
X014309Y006163D01*
X014159Y006163D01*
X014209Y006310D02*
X014159Y006360D01*
X014309Y006360D01*
X014309Y006310D02*
X014309Y006410D01*
X030312Y007536D02*
X030312Y007687D01*
X030387Y007687D01*
X030412Y007662D01*
X030412Y007611D01*
X030387Y007586D01*
X030312Y007586D01*
X030362Y007586D02*
X030412Y007536D01*
X030459Y007561D02*
X030484Y007536D01*
X030534Y007536D01*
X030559Y007561D01*
X030559Y007611D01*
X030534Y007637D01*
X030509Y007637D01*
X030459Y007611D01*
X030459Y007687D01*
X030559Y007687D01*
D24*
X030252Y007991D03*
X029102Y012141D03*
D25*
X030952Y012291D03*
X032452Y010491D03*
X013292Y006508D03*
D26*
X020840Y014441D02*
X020864Y014441D01*
X030290Y013941D02*
X030314Y013941D01*
X030990Y018441D02*
X031014Y018441D01*
D27*
X017232Y014822D03*
X015672Y014822D03*
X017052Y018302D03*
X010552Y018502D03*
X022972Y009722D03*
X017272Y006702D03*
D28*
X017632Y006852D03*
X022952Y009712D03*
X010972Y018512D03*
D29*
X011052Y018502D03*
X015992Y014802D03*
X019692Y009702D03*
X022932Y009722D03*
D30*
X022912Y009722D03*
X019512Y009722D03*
X018932Y009722D03*
X016772Y014822D03*
X016752Y014822D03*
X016152Y014822D03*
X016132Y014822D03*
X016112Y014822D03*
D31*
X016272Y014812D03*
X016292Y014812D03*
X016312Y014812D03*
X016332Y014812D03*
X016572Y014812D03*
X016592Y014812D03*
X016612Y014812D03*
X016632Y014812D03*
X016872Y017752D03*
X011352Y018512D03*
X011332Y018512D03*
X011312Y018512D03*
X022892Y009732D03*
D32*
X022872Y009722D03*
X016072Y017682D03*
X016052Y017682D03*
X016272Y017702D03*
X016292Y017702D03*
X016632Y017702D03*
X016652Y017702D03*
X016672Y017702D03*
X016832Y017702D03*
X011532Y018502D03*
D33*
X015112Y012312D03*
X015132Y012312D03*
X016592Y011792D03*
X016612Y011792D03*
X020572Y012212D03*
X022852Y009712D03*
X020592Y007212D03*
X020572Y007212D03*
D34*
X020732Y007332D03*
X022832Y009732D03*
X020752Y012072D03*
X017712Y012092D03*
X017692Y012092D03*
X016872Y011752D03*
X016852Y011752D03*
X016832Y011752D03*
X014912Y012472D03*
X014892Y012472D03*
D35*
X016892Y011752D03*
X020792Y012052D03*
X022812Y009712D03*
X020812Y007372D03*
X020772Y007352D03*
X020752Y007352D03*
X012852Y014832D03*
D36*
X014712Y012662D03*
X014732Y012662D03*
X017472Y011882D03*
X017492Y011902D03*
X020952Y011882D03*
X022792Y009722D03*
X020932Y007522D03*
X020912Y007522D03*
D37*
X022772Y009702D03*
X017252Y011742D03*
X017232Y011742D03*
X015172Y017562D03*
D38*
X011972Y018492D03*
X011952Y018492D03*
X011932Y018492D03*
X011912Y018492D03*
X011892Y018492D03*
X011872Y018492D03*
X011852Y018492D03*
X011832Y018492D03*
X011812Y018492D03*
X011792Y018492D03*
X011772Y018492D03*
X011752Y018492D03*
X011732Y018492D03*
X011712Y018492D03*
X012912Y014832D03*
X022752Y009712D03*
D39*
X022732Y009712D03*
X021152Y007852D03*
X012952Y014832D03*
D40*
X014512Y012962D03*
X021152Y011562D03*
X022712Y009702D03*
X021132Y007842D03*
X014932Y017482D03*
D41*
X014832Y017422D03*
X022692Y009702D03*
D42*
X022672Y009722D03*
D43*
X022652Y009712D03*
D44*
X022632Y009712D03*
X013032Y014832D03*
D45*
X022612Y009712D03*
D46*
X022592Y009732D03*
D47*
X022572Y009712D03*
X022552Y009712D03*
X013132Y014832D03*
D48*
X022532Y009712D03*
D49*
X022512Y009722D03*
D50*
X022492Y009712D03*
X013172Y014812D03*
X014612Y017412D03*
X014632Y017412D03*
D51*
X022472Y009712D03*
D52*
X022452Y009712D03*
D53*
X022432Y009702D03*
D54*
X022412Y009722D03*
X013252Y014822D03*
D55*
X022372Y009702D03*
X022392Y009702D03*
D56*
X022352Y009712D03*
X013332Y014812D03*
D57*
X013352Y014812D03*
X022332Y009712D03*
D58*
X022312Y009702D03*
D59*
X022292Y009712D03*
X022272Y009712D03*
X013432Y014832D03*
D60*
X022252Y009702D03*
D61*
X022232Y009712D03*
D62*
X022212Y009732D03*
D63*
X022192Y009702D03*
X013512Y014822D03*
D64*
X022172Y009712D03*
D65*
X022152Y009702D03*
D66*
X022132Y009722D03*
X013532Y014822D03*
D67*
X022112Y009712D03*
D68*
X022092Y009722D03*
X013572Y014822D03*
D69*
X013612Y014812D03*
X022072Y009712D03*
D70*
X022052Y009722D03*
D71*
X022032Y009712D03*
D72*
X022012Y009722D03*
D73*
X021992Y009722D03*
D74*
X021972Y009712D03*
X013692Y014812D03*
D75*
X021952Y009712D03*
D76*
X021932Y009712D03*
X021912Y009712D03*
X013752Y014812D03*
D77*
X021892Y009702D03*
D78*
X021872Y009712D03*
X021852Y009712D03*
X013812Y014812D03*
D79*
X013852Y014812D03*
X021832Y009712D03*
D80*
X021812Y009712D03*
X013872Y014812D03*
D81*
X013892Y014822D03*
X021792Y009722D03*
D82*
X021772Y009722D03*
D83*
X021752Y009712D03*
D84*
X021732Y009722D03*
X021712Y009722D03*
D85*
X021692Y009722D03*
D86*
X021672Y009712D03*
D87*
X021652Y009702D03*
X021632Y009702D03*
D88*
X021612Y009712D03*
X021592Y009712D03*
D89*
X021572Y009712D03*
D90*
X021552Y009702D03*
X021532Y009702D03*
D91*
X021512Y009712D03*
D92*
X021492Y009722D03*
D93*
X021472Y009712D03*
D94*
X021452Y009712D03*
X021432Y009712D03*
D95*
X021412Y009702D03*
X021392Y009702D03*
D96*
X021372Y009712D03*
D97*
X021352Y009712D03*
D98*
X021332Y009702D03*
X021312Y009702D03*
D99*
X021292Y009722D03*
D100*
X021272Y009702D03*
D101*
X021252Y009712D03*
X021232Y009712D03*
D102*
X021212Y009712D03*
X021192Y009712D03*
D103*
X021172Y011542D03*
X021172Y007882D03*
X012972Y014822D03*
X014872Y017462D03*
X014892Y017462D03*
D104*
X014952Y017502D03*
X014532Y012942D03*
X021132Y011582D03*
D105*
X021112Y007782D03*
X014572Y012902D03*
D106*
X021112Y011642D03*
X015032Y017522D03*
X015012Y017522D03*
D107*
X015072Y017552D03*
X011672Y018492D03*
X021092Y007732D03*
D108*
X021092Y011702D03*
X015052Y017542D03*
X011692Y018502D03*
D109*
X014592Y012812D03*
X014612Y012792D03*
X017332Y011732D03*
X017352Y011732D03*
X017372Y011732D03*
X021072Y007712D03*
X021052Y007672D03*
D110*
X021072Y011722D03*
X015092Y017542D03*
D111*
X015112Y017562D03*
X015132Y017562D03*
X011992Y018522D03*
X014632Y012762D03*
X014672Y012742D03*
X017292Y011742D03*
X017312Y011742D03*
X017392Y011802D03*
X017412Y011802D03*
X021052Y011742D03*
D112*
X021012Y011792D03*
X017432Y011812D03*
X014652Y012752D03*
X021032Y007652D03*
D113*
X021032Y011782D03*
X012012Y018502D03*
D114*
X015152Y017552D03*
X017272Y011732D03*
X021012Y007632D03*
D115*
X020992Y007552D03*
X020972Y007552D03*
X020992Y011852D03*
X017452Y011852D03*
X017212Y011752D03*
X017192Y011752D03*
X014692Y012692D03*
D116*
X017172Y011742D03*
X020972Y011862D03*
X020952Y007542D03*
X015212Y017562D03*
X015192Y017562D03*
D117*
X012872Y014812D03*
X014752Y012652D03*
X017092Y011732D03*
X017512Y011912D03*
X017532Y011932D03*
X020912Y011892D03*
X020932Y011892D03*
D118*
X020832Y011992D03*
X017612Y012032D03*
X016992Y011752D03*
X014852Y012512D03*
X015292Y017552D03*
X011632Y018492D03*
X020892Y007472D03*
X020872Y007452D03*
D119*
X020852Y007442D03*
X020832Y007442D03*
X020892Y011962D03*
X017592Y012022D03*
X017012Y011742D03*
X015272Y017562D03*
D120*
X015252Y017572D03*
X012072Y018512D03*
X012052Y018512D03*
X011652Y018512D03*
X014772Y012592D03*
X014792Y012572D03*
X014832Y012532D03*
X017032Y011752D03*
X017572Y011992D03*
X020852Y011972D03*
X020872Y011972D03*
D121*
X020812Y012042D03*
X017652Y012042D03*
X017632Y012042D03*
X016972Y011762D03*
X016952Y011762D03*
X016932Y011762D03*
X016912Y011762D03*
X014872Y012502D03*
X015312Y017542D03*
X020792Y007362D03*
D122*
X020772Y012062D03*
X011612Y018502D03*
D123*
X015332Y017562D03*
X014972Y012402D03*
X017672Y012082D03*
X017732Y012122D03*
X020732Y012082D03*
X020712Y007322D03*
D124*
X020692Y007312D03*
X016812Y011772D03*
X016792Y011772D03*
X016772Y011772D03*
X016752Y011772D03*
X016732Y011772D03*
X017792Y012172D03*
X014992Y012392D03*
X014952Y012452D03*
X014932Y012452D03*
X020692Y012112D03*
X020712Y012112D03*
D125*
X020672Y012152D03*
X016632Y011772D03*
X015072Y012332D03*
X015052Y012332D03*
X012832Y014812D03*
X015352Y017552D03*
X015372Y017552D03*
X020652Y007272D03*
X020672Y007272D03*
X020632Y007252D03*
D126*
X016712Y011782D03*
X016692Y011782D03*
X016672Y011782D03*
X016652Y011782D03*
X017752Y012162D03*
X017772Y012162D03*
X017812Y012182D03*
X015032Y012382D03*
X015012Y012382D03*
X020632Y012162D03*
X020652Y012162D03*
D127*
X020612Y012202D03*
X020592Y012202D03*
X017832Y012202D03*
X015092Y012322D03*
X020612Y007222D03*
D128*
X020552Y007202D03*
X020532Y007182D03*
X016572Y011802D03*
X016552Y011802D03*
X017852Y012222D03*
X017872Y012222D03*
X017892Y012222D03*
X017932Y012242D03*
X015152Y012282D03*
X020552Y012222D03*
X015412Y017542D03*
X015392Y017542D03*
D129*
X015192Y012272D03*
X015172Y012272D03*
X015252Y012232D03*
X017912Y012232D03*
X017992Y012292D03*
X018012Y012292D03*
X020492Y012252D03*
X020532Y012232D03*
X020512Y007172D03*
X020492Y007172D03*
X020472Y007172D03*
D130*
X020432Y007122D03*
X020412Y007122D03*
X020392Y007122D03*
X016532Y011802D03*
X016412Y011822D03*
X016392Y011822D03*
X015272Y012222D03*
X015232Y012242D03*
X015212Y012242D03*
X017952Y012282D03*
X017972Y012282D03*
X018032Y012322D03*
X018052Y012342D03*
X020412Y012302D03*
X020432Y012302D03*
X020452Y012282D03*
X020472Y012262D03*
X020512Y012242D03*
D131*
X020392Y012312D03*
X020372Y012312D03*
X016512Y011812D03*
X016492Y011812D03*
X016472Y011812D03*
X016452Y011812D03*
X016432Y011812D03*
X016372Y011832D03*
X015292Y012212D03*
X020372Y007112D03*
X020452Y007152D03*
X012092Y018512D03*
X011592Y018512D03*
D132*
X012112Y018522D03*
X015432Y017502D03*
X018072Y012362D03*
X018092Y012362D03*
X018112Y012362D03*
X018132Y012362D03*
X020272Y012362D03*
X020292Y012362D03*
X020312Y012362D03*
X020332Y012362D03*
X020352Y012342D03*
X015372Y012182D03*
X015352Y012182D03*
X015332Y012182D03*
X015312Y012202D03*
X018052Y007102D03*
X018092Y007062D03*
X018132Y007042D03*
X018152Y007042D03*
X020252Y007042D03*
X020272Y007042D03*
X020292Y007042D03*
X020352Y007102D03*
D133*
X017152Y006652D03*
X017132Y006652D03*
X020352Y009712D03*
X017552Y014592D03*
D134*
X018152Y012372D03*
X016352Y011852D03*
X016332Y011852D03*
X016312Y011852D03*
X016292Y011852D03*
X016272Y011872D03*
X015412Y012172D03*
X015392Y012172D03*
X018032Y007092D03*
X018072Y007072D03*
X018112Y007052D03*
X018172Y007032D03*
X020312Y007052D03*
X020332Y007052D03*
X015472Y017512D03*
X015452Y017512D03*
D135*
X012392Y017912D03*
X012372Y017912D03*
X012432Y019092D03*
X012452Y019092D03*
X017212Y014812D03*
X018112Y009712D03*
X018452Y009712D03*
X020332Y009712D03*
X017332Y006752D03*
D136*
X018472Y009702D03*
X019972Y009702D03*
X020312Y009702D03*
X012712Y014802D03*
X012352Y017942D03*
X012332Y017942D03*
X012312Y017942D03*
X012352Y019062D03*
X017012Y018222D03*
D137*
X015412Y015212D03*
X017272Y014832D03*
X018152Y010072D03*
X018152Y009332D03*
X020292Y009392D03*
X020272Y010052D03*
D138*
X020292Y010042D03*
X020032Y009702D03*
X020272Y009362D03*
X018132Y009382D03*
X018132Y010042D03*
X017112Y006642D03*
X017512Y014462D03*
X017532Y014482D03*
X017532Y015122D03*
X015392Y014462D03*
D139*
X015472Y014282D03*
X015492Y014242D03*
X017432Y014242D03*
X017452Y014302D03*
X017492Y014402D03*
X017472Y015242D03*
X017432Y015362D03*
X015492Y015382D03*
X020212Y010222D03*
X020252Y009262D03*
X020232Y009202D03*
X020172Y009142D03*
X018292Y009082D03*
X018252Y009102D03*
X018192Y009262D03*
X018172Y009262D03*
D140*
X018212Y009232D03*
X018172Y010152D03*
X018192Y010172D03*
X018212Y010192D03*
X020192Y010232D03*
X020252Y010152D03*
X015452Y014292D03*
X015412Y014432D03*
X015432Y015312D03*
D141*
X015492Y017522D03*
X020252Y012382D03*
X016252Y011882D03*
X016232Y011882D03*
X016212Y011882D03*
X016192Y011882D03*
X016172Y011882D03*
X015452Y012122D03*
X018192Y007022D03*
D142*
X018212Y007012D03*
X018012Y007072D03*
X020192Y007012D03*
X020212Y007012D03*
X020232Y007012D03*
X016152Y011892D03*
X016132Y011892D03*
X016112Y011892D03*
X016052Y011932D03*
X015652Y012052D03*
X015632Y012052D03*
X015612Y012052D03*
X015552Y012112D03*
X015532Y012112D03*
X015512Y012112D03*
X015492Y012112D03*
X015472Y012112D03*
X015432Y012132D03*
X018172Y012392D03*
X018192Y012392D03*
X018212Y012392D03*
X018232Y012432D03*
X018252Y012432D03*
X018272Y012432D03*
X018292Y012432D03*
X018312Y012452D03*
X020112Y012432D03*
X020132Y012432D03*
X020152Y012432D03*
X020232Y012392D03*
X015592Y017552D03*
X015572Y017552D03*
X015552Y017552D03*
X015512Y017532D03*
D143*
X016192Y015912D03*
X015692Y015632D03*
X015672Y015632D03*
X015592Y015532D03*
X015532Y015472D03*
X015512Y015412D03*
X015472Y015352D03*
X015452Y015352D03*
X016712Y015912D03*
X016972Y015812D03*
X017212Y015632D03*
X017232Y015632D03*
X017312Y015532D03*
X017412Y015392D03*
X017452Y015352D03*
X017412Y014232D03*
X017392Y014232D03*
X017372Y014132D03*
X017352Y014132D03*
X017332Y014132D03*
X017172Y013952D03*
X017012Y013852D03*
X015732Y013952D03*
X015572Y014132D03*
X015552Y014132D03*
X015532Y014152D03*
X015512Y014232D03*
X019572Y010772D03*
X019892Y010592D03*
X020012Y010492D03*
X020032Y010492D03*
X020172Y010272D03*
X020232Y010212D03*
X020212Y009192D03*
X020192Y009192D03*
X020152Y009072D03*
X020112Y009032D03*
X020012Y008912D03*
X019992Y008912D03*
X019532Y008632D03*
X018552Y008812D03*
X018532Y008812D03*
X018412Y008912D03*
X018272Y009092D03*
X018232Y009132D03*
X018252Y010312D03*
X018272Y010312D03*
X018292Y010332D03*
X018492Y010592D03*
X018512Y010592D03*
X017092Y006632D03*
D144*
X018232Y007002D03*
X018292Y006982D03*
X018352Y006962D03*
X018372Y006962D03*
X018512Y006902D03*
X018532Y006902D03*
X018552Y006902D03*
X019872Y006902D03*
X019972Y006922D03*
X020032Y006942D03*
X020052Y006942D03*
X020072Y006962D03*
X020092Y006982D03*
X020112Y006982D03*
X020132Y006982D03*
X020152Y006982D03*
X020172Y007002D03*
X016092Y011902D03*
X016072Y011922D03*
X016032Y011942D03*
X016012Y011942D03*
X015992Y011942D03*
X015972Y011942D03*
X015952Y011942D03*
X015892Y011962D03*
X015592Y012082D03*
X015572Y012102D03*
X018332Y012462D03*
X018412Y012502D03*
X018432Y012502D03*
X018452Y012502D03*
X018472Y012502D03*
X019912Y012502D03*
X019932Y012502D03*
X019952Y012502D03*
X019972Y012502D03*
X019992Y012482D03*
X020092Y012442D03*
X020172Y012422D03*
X020212Y012402D03*
X015612Y017562D03*
X015532Y017542D03*
X012132Y018502D03*
D145*
X011572Y018472D03*
X015632Y017572D03*
X015652Y017572D03*
X015712Y017612D03*
X015812Y017632D03*
X015832Y017632D03*
X018492Y012512D03*
X018512Y012512D03*
X018392Y012472D03*
X018372Y012472D03*
X018352Y012472D03*
X019892Y012512D03*
X020012Y012472D03*
X020032Y012472D03*
X020052Y012472D03*
X020072Y012472D03*
X020192Y012412D03*
X015932Y011952D03*
X015912Y011952D03*
X015872Y011972D03*
X015852Y011992D03*
X015752Y012032D03*
X015732Y012032D03*
X015712Y012032D03*
X015692Y012032D03*
X015672Y012032D03*
X017992Y007052D03*
X018252Y006992D03*
X018272Y006992D03*
X018312Y006972D03*
X018332Y006972D03*
X018392Y006932D03*
X018412Y006932D03*
X018432Y006932D03*
X018452Y006912D03*
X018472Y006912D03*
X018492Y006912D03*
X019852Y006892D03*
X019892Y006912D03*
X019912Y006912D03*
X019932Y006912D03*
X019952Y006912D03*
X019992Y006932D03*
X020012Y006932D03*
D146*
X019552Y008642D03*
X019752Y008722D03*
X019892Y008822D03*
X020072Y008982D03*
X020092Y009022D03*
X020132Y009062D03*
X018932Y008622D03*
X018912Y008622D03*
X018892Y008622D03*
X018872Y008622D03*
X018512Y008822D03*
X018492Y008822D03*
X018432Y008902D03*
X018372Y008982D03*
X018332Y009002D03*
X018312Y009002D03*
X018232Y010302D03*
X018312Y010402D03*
X018332Y010402D03*
X018372Y010442D03*
X018412Y010502D03*
X018532Y010602D03*
X018552Y010602D03*
X018652Y010682D03*
X018812Y010762D03*
X018832Y010762D03*
X018852Y010762D03*
X019552Y010782D03*
X019592Y010762D03*
X019912Y010582D03*
X019932Y010582D03*
X019992Y010502D03*
X020072Y010442D03*
X020092Y010402D03*
X020112Y010402D03*
X020132Y010362D03*
X020152Y010342D03*
X017272Y014042D03*
X017292Y014082D03*
X017312Y014102D03*
X017052Y013862D03*
X017032Y013862D03*
X015872Y013862D03*
X015852Y013862D03*
X015752Y013942D03*
X015712Y013962D03*
X015652Y014042D03*
X015632Y014042D03*
X015612Y014042D03*
X015592Y014102D03*
X015432Y014322D03*
X015572Y015502D03*
X015792Y015722D03*
X015892Y015802D03*
X015912Y015802D03*
X015932Y015802D03*
X015952Y015822D03*
X016172Y015902D03*
X016212Y015922D03*
X016692Y015922D03*
X016732Y015902D03*
X016752Y015902D03*
X016952Y015822D03*
X016992Y015802D03*
X017112Y015722D03*
X017192Y015642D03*
X017252Y015622D03*
X017292Y015542D03*
X017332Y015502D03*
X017352Y015482D03*
X017372Y015482D03*
X017392Y015422D03*
X017132Y018522D03*
X017112Y018522D03*
X017072Y006622D03*
D147*
X018632Y008732D03*
X018652Y008732D03*
X018672Y008732D03*
X018692Y008712D03*
X018612Y008752D03*
X018572Y008792D03*
X018472Y008872D03*
X018452Y008892D03*
X018392Y008952D03*
X018352Y008992D03*
X018832Y008652D03*
X018852Y008652D03*
X018952Y008612D03*
X018972Y008612D03*
X018992Y008612D03*
X019012Y008612D03*
X019032Y008612D03*
X019412Y008612D03*
X019432Y008612D03*
X019452Y008612D03*
X019472Y008612D03*
X019492Y008612D03*
X019512Y008612D03*
X019572Y008652D03*
X019592Y008652D03*
X019652Y008672D03*
X019672Y008672D03*
X019712Y008712D03*
X019732Y008712D03*
X019772Y008732D03*
X019792Y008732D03*
X019872Y008792D03*
X019912Y008832D03*
X019932Y008832D03*
X019952Y008832D03*
X019972Y008872D03*
X020032Y008932D03*
X020052Y008952D03*
X020052Y010472D03*
X019972Y010552D03*
X019952Y010572D03*
X019872Y010632D03*
X019852Y010632D03*
X019812Y010672D03*
X019792Y010672D03*
X019772Y010692D03*
X019752Y010692D03*
X019692Y010732D03*
X019672Y010752D03*
X019652Y010752D03*
X019632Y010752D03*
X019612Y010752D03*
X019532Y010792D03*
X019512Y010792D03*
X019412Y010812D03*
X019012Y010812D03*
X018932Y010792D03*
X018912Y010792D03*
X018892Y010792D03*
X018872Y010792D03*
X018792Y010752D03*
X018772Y010752D03*
X018752Y010732D03*
X018732Y010732D03*
X018672Y010692D03*
X018632Y010672D03*
X018612Y010672D03*
X018572Y010632D03*
X018472Y010552D03*
X018452Y010532D03*
X018432Y010512D03*
X018392Y010472D03*
X018352Y010432D03*
X016892Y013772D03*
X016872Y013772D03*
X016852Y013772D03*
X016832Y013752D03*
X016752Y013732D03*
X016732Y013732D03*
X016672Y013712D03*
X016532Y013692D03*
X016512Y013692D03*
X016492Y013692D03*
X016472Y013692D03*
X016452Y013692D03*
X016432Y013692D03*
X016412Y013692D03*
X016392Y013692D03*
X016372Y013692D03*
X016232Y013712D03*
X016092Y013752D03*
X016072Y013752D03*
X016052Y013772D03*
X016032Y013772D03*
X016012Y013772D03*
X015972Y013812D03*
X015952Y013812D03*
X015892Y013832D03*
X015832Y013872D03*
X015812Y013872D03*
X015772Y013932D03*
X015692Y013992D03*
X015672Y014012D03*
X016932Y013792D03*
X016952Y013812D03*
X016972Y013812D03*
X017072Y013872D03*
X017092Y013872D03*
X017132Y013932D03*
X017152Y013932D03*
X017212Y013992D03*
X017232Y014012D03*
X017252Y014032D03*
X017272Y015592D03*
X017172Y015692D03*
X017152Y015712D03*
X017132Y015712D03*
X017052Y015772D03*
X017032Y015772D03*
X016932Y015832D03*
X016912Y015832D03*
X016852Y015872D03*
X016812Y015892D03*
X016792Y015892D03*
X016772Y015892D03*
X016672Y015932D03*
X016652Y015932D03*
X016632Y015932D03*
X016612Y015932D03*
X016592Y015932D03*
X016572Y015932D03*
X016552Y015932D03*
X016352Y015932D03*
X016332Y015932D03*
X016312Y015932D03*
X016292Y015932D03*
X016272Y015932D03*
X016252Y015932D03*
X016232Y015932D03*
X016152Y015892D03*
X016132Y015892D03*
X016112Y015892D03*
X016092Y015892D03*
X016052Y015872D03*
X015972Y015832D03*
X015872Y015772D03*
X015852Y015772D03*
X015812Y015732D03*
X015772Y015712D03*
X015752Y015712D03*
X015732Y015692D03*
X015712Y015672D03*
X015652Y015612D03*
X015632Y015592D03*
X015612Y015572D03*
X015552Y015492D03*
D148*
X010112Y018492D03*
X020012Y009712D03*
D149*
X019992Y009712D03*
X017252Y006692D03*
X017232Y006692D03*
X017572Y014812D03*
X017092Y018352D03*
D150*
X012272Y017982D03*
X019952Y009702D03*
D151*
X019932Y009712D03*
X017392Y006772D03*
X010792Y018492D03*
D152*
X010812Y018502D03*
X019912Y009702D03*
D153*
X019892Y009702D03*
X018552Y009702D03*
X018532Y009702D03*
X018512Y009702D03*
X017132Y014822D03*
X016992Y018102D03*
D154*
X019872Y009702D03*
X017532Y006842D03*
D155*
X017972Y007042D03*
X018572Y006882D03*
X018592Y006882D03*
X018612Y006882D03*
X018632Y006882D03*
X018652Y006882D03*
X019752Y006882D03*
X019772Y006882D03*
X019792Y006882D03*
X019812Y006882D03*
X019832Y006882D03*
X015832Y012002D03*
X015812Y012002D03*
X015792Y012022D03*
X015772Y012022D03*
X018532Y012522D03*
X018552Y012522D03*
X018572Y012522D03*
X018592Y012542D03*
X018612Y012542D03*
X019792Y012542D03*
X019852Y012522D03*
X019872Y012522D03*
X012812Y014822D03*
X015672Y017582D03*
X015692Y017582D03*
X015732Y017622D03*
X015752Y017622D03*
X015772Y017622D03*
X015792Y017622D03*
X015852Y017642D03*
X015872Y017642D03*
D156*
X017152Y018522D03*
X016532Y015942D03*
X016512Y015942D03*
X016492Y015942D03*
X016472Y015942D03*
X016452Y015942D03*
X016432Y015942D03*
X016412Y015942D03*
X016392Y015942D03*
X016372Y015942D03*
X016072Y015882D03*
X016032Y015862D03*
X016012Y015842D03*
X015992Y015842D03*
X015832Y015762D03*
X016832Y015882D03*
X016872Y015862D03*
X016892Y015842D03*
X017012Y015782D03*
X017072Y015762D03*
X017092Y015742D03*
X017192Y013982D03*
X017112Y013922D03*
X016992Y013822D03*
X016912Y013782D03*
X016812Y013742D03*
X016792Y013742D03*
X016772Y013742D03*
X016712Y013722D03*
X016692Y013722D03*
X016652Y013702D03*
X016632Y013702D03*
X016612Y013702D03*
X016592Y013702D03*
X016572Y013702D03*
X016552Y013702D03*
X016352Y013702D03*
X016332Y013702D03*
X016312Y013702D03*
X016292Y013702D03*
X016272Y013702D03*
X016252Y013702D03*
X016212Y013722D03*
X016192Y013722D03*
X016172Y013722D03*
X016152Y013742D03*
X016132Y013742D03*
X016112Y013742D03*
X015992Y013782D03*
X015932Y013822D03*
X015912Y013822D03*
X015792Y013922D03*
X018712Y010722D03*
X018592Y010662D03*
X018952Y010802D03*
X018972Y010802D03*
X018992Y010802D03*
X019032Y010822D03*
X019392Y010822D03*
X019432Y010802D03*
X019452Y010802D03*
X019472Y010802D03*
X019492Y010802D03*
X019732Y010702D03*
X019832Y010662D03*
X019852Y008782D03*
X019832Y008762D03*
X019812Y008762D03*
X019692Y008682D03*
X019632Y008662D03*
X019612Y008662D03*
X019392Y008602D03*
X019372Y008602D03*
X019352Y008602D03*
X019052Y008602D03*
X018812Y008662D03*
X018792Y008662D03*
X018772Y008662D03*
X018752Y008682D03*
X018732Y008682D03*
X018712Y008702D03*
X018592Y008762D03*
X017052Y006622D03*
X009992Y018502D03*
D157*
X018572Y009712D03*
X019852Y009712D03*
D158*
X019832Y009712D03*
X017072Y014832D03*
X015832Y014832D03*
X010932Y018492D03*
D159*
X018632Y012552D03*
X018652Y012552D03*
X019772Y012552D03*
X019812Y012532D03*
X019832Y012532D03*
X017952Y007032D03*
X018672Y006872D03*
X019732Y006872D03*
D160*
X017572Y006842D03*
X018592Y009702D03*
X018612Y009702D03*
X019812Y009702D03*
X017052Y014822D03*
X015852Y014822D03*
D161*
X017012Y014812D03*
X019792Y009712D03*
D162*
X019772Y009702D03*
X018672Y009702D03*
X017652Y006862D03*
X015892Y014802D03*
X016932Y017942D03*
X011012Y018502D03*
X010992Y018502D03*
D163*
X012732Y014812D03*
X015912Y014812D03*
X015932Y014812D03*
X016992Y014812D03*
X019752Y009712D03*
D164*
X019752Y012562D03*
X019732Y012562D03*
X019712Y012562D03*
X019692Y012562D03*
X019672Y012562D03*
X019652Y012562D03*
X019632Y012562D03*
X019612Y012562D03*
X019592Y012562D03*
X019572Y012582D03*
X019552Y012582D03*
X019532Y012582D03*
X019512Y012582D03*
X019472Y012602D03*
X019452Y012602D03*
X019432Y012602D03*
X019412Y012602D03*
X019392Y012602D03*
X019372Y012602D03*
X019352Y012602D03*
X019332Y012602D03*
X019092Y012602D03*
X019072Y012602D03*
X019052Y012602D03*
X019032Y012602D03*
X019012Y012602D03*
X018992Y012602D03*
X018972Y012602D03*
X018952Y012602D03*
X018932Y012602D03*
X018892Y012582D03*
X018872Y012582D03*
X018852Y012582D03*
X018832Y012562D03*
X018812Y012562D03*
X018792Y012562D03*
X018772Y012562D03*
X018752Y012562D03*
X018732Y012562D03*
X018712Y012562D03*
X018692Y012562D03*
X018672Y012562D03*
X016012Y017662D03*
X015992Y017662D03*
X015972Y017662D03*
X015952Y017662D03*
X015932Y017662D03*
X015912Y017662D03*
X015892Y017662D03*
X013892Y018502D03*
X013872Y018502D03*
X012252Y018502D03*
X012232Y018502D03*
X012212Y018502D03*
X012192Y018502D03*
X012172Y018502D03*
X012152Y018502D03*
X011552Y018502D03*
X018792Y006842D03*
X018812Y006842D03*
X018832Y006842D03*
X018852Y006842D03*
X018872Y006842D03*
X018892Y006842D03*
X018912Y006842D03*
X018932Y006842D03*
X018952Y006842D03*
X018972Y006842D03*
X018992Y006842D03*
X019052Y006822D03*
X019072Y006822D03*
X019092Y006822D03*
X019112Y006822D03*
X019132Y006822D03*
X019152Y006822D03*
X019172Y006822D03*
X019192Y006822D03*
X019212Y006822D03*
X019232Y006822D03*
X019252Y006822D03*
X019272Y006822D03*
X019292Y006822D03*
X019312Y006822D03*
X019332Y006822D03*
X019352Y006822D03*
X019412Y006842D03*
X019432Y006842D03*
X019452Y006842D03*
X019472Y006842D03*
X019492Y006842D03*
X019512Y006842D03*
X019532Y006842D03*
X019552Y006842D03*
X019572Y006842D03*
X019592Y006842D03*
X019712Y006862D03*
D165*
X019732Y009712D03*
X015972Y014832D03*
X016912Y017912D03*
D166*
X011032Y018482D03*
X018692Y009702D03*
X018712Y009702D03*
X019712Y009702D03*
X017712Y006902D03*
X017692Y006902D03*
X017672Y006902D03*
D167*
X019072Y008592D03*
X019092Y008592D03*
X019112Y008592D03*
X019132Y008592D03*
X019152Y008592D03*
X019172Y008592D03*
X019192Y008592D03*
X019212Y008592D03*
X019232Y008592D03*
X019252Y008592D03*
X019272Y008592D03*
X019292Y008592D03*
X019312Y008592D03*
X019332Y008592D03*
X019712Y010712D03*
X019372Y010832D03*
X019352Y010832D03*
X019332Y010832D03*
X019312Y010832D03*
X019292Y010832D03*
X019272Y010832D03*
X019252Y010832D03*
X019232Y010832D03*
X019212Y010832D03*
X019192Y010832D03*
X019172Y010832D03*
X019152Y010832D03*
X019132Y010832D03*
X019112Y010832D03*
X019092Y010832D03*
X019072Y010832D03*
X019052Y010832D03*
X018692Y010712D03*
D168*
X018912Y012592D03*
X019112Y012612D03*
X019132Y012612D03*
X019152Y012612D03*
X019172Y012612D03*
X019192Y012612D03*
X019212Y012612D03*
X019232Y012612D03*
X019252Y012612D03*
X019272Y012612D03*
X019292Y012612D03*
X019312Y012612D03*
X019492Y012592D03*
X016032Y017672D03*
X016092Y017692D03*
X016112Y017692D03*
X016132Y017692D03*
X016152Y017692D03*
X016172Y017692D03*
X016192Y017692D03*
X016212Y017692D03*
X016232Y017692D03*
X016252Y017692D03*
X016312Y017712D03*
X016332Y017712D03*
X016352Y017712D03*
X016372Y017712D03*
X016392Y017712D03*
X016412Y017712D03*
X016432Y017712D03*
X016452Y017712D03*
X016472Y017712D03*
X016492Y017712D03*
X016512Y017712D03*
X016532Y017712D03*
X016552Y017712D03*
X016572Y017712D03*
X016592Y017712D03*
X016612Y017712D03*
X016692Y017692D03*
X016712Y017692D03*
X016732Y017692D03*
X016752Y017692D03*
X016772Y017692D03*
X016792Y017692D03*
X016812Y017692D03*
X018692Y006852D03*
X018712Y006852D03*
X018732Y006852D03*
X018752Y006852D03*
X018772Y006852D03*
X019012Y006832D03*
X019032Y006832D03*
X019372Y006832D03*
X019392Y006832D03*
X019612Y006852D03*
X019632Y006852D03*
X019652Y006852D03*
X019672Y006852D03*
X019692Y006852D03*
D169*
X019672Y009712D03*
X019652Y009712D03*
X016892Y014812D03*
X016012Y014812D03*
X011072Y018512D03*
D170*
X019632Y009722D03*
X017732Y006922D03*
D171*
X018772Y009712D03*
X019612Y009712D03*
X016032Y014812D03*
X011112Y018512D03*
X011092Y018512D03*
D172*
X016892Y017822D03*
X018852Y009702D03*
X019552Y009702D03*
X019572Y009702D03*
X019592Y009702D03*
X017772Y006942D03*
D173*
X018872Y009712D03*
X018892Y009712D03*
X018912Y009712D03*
X019532Y009712D03*
X016812Y014832D03*
X016792Y014832D03*
X016092Y014832D03*
X012752Y014832D03*
X011172Y018492D03*
X011152Y018492D03*
D174*
X011192Y018492D03*
X016732Y014812D03*
X018952Y009712D03*
X019472Y009712D03*
X019492Y009712D03*
D175*
X019452Y009712D03*
X019432Y009712D03*
X019412Y009712D03*
X019012Y009712D03*
X018992Y009712D03*
X018972Y009712D03*
X016652Y014812D03*
X016252Y014812D03*
X011292Y018512D03*
X011272Y018512D03*
X011252Y018512D03*
D176*
X011372Y018502D03*
X012772Y014822D03*
X016352Y014822D03*
X016372Y014822D03*
X016392Y014822D03*
X016412Y014822D03*
X016432Y014822D03*
X016452Y014822D03*
X016472Y014822D03*
X016492Y014822D03*
X016512Y014822D03*
X016532Y014822D03*
X016552Y014822D03*
X019372Y009722D03*
X019392Y009722D03*
D177*
X019352Y009712D03*
X019332Y009712D03*
X019112Y009712D03*
X019092Y009712D03*
X019072Y009712D03*
X019052Y009712D03*
X012792Y014832D03*
X011512Y018492D03*
X011492Y018492D03*
X011472Y018492D03*
X011452Y018492D03*
X011432Y018492D03*
X011412Y018492D03*
X011392Y018492D03*
D178*
X019132Y009702D03*
X019152Y009702D03*
X019172Y009702D03*
X019192Y009702D03*
X019212Y009702D03*
X019232Y009702D03*
X019252Y009702D03*
X019272Y009702D03*
X019292Y009702D03*
X019312Y009702D03*
X017872Y007002D03*
X017852Y007002D03*
D179*
X019032Y009722D03*
D180*
X018832Y009712D03*
X018812Y009712D03*
X016832Y014812D03*
X016072Y014812D03*
X011132Y018492D03*
D181*
X016052Y014802D03*
X016852Y014802D03*
X016872Y014802D03*
X018792Y009702D03*
X017752Y006922D03*
D182*
X018732Y009712D03*
X018752Y009712D03*
X016932Y014812D03*
X016912Y014812D03*
D183*
X018652Y009722D03*
X017612Y006862D03*
D184*
X018632Y009722D03*
X017032Y014822D03*
D185*
X018492Y009712D03*
X017452Y006772D03*
D186*
X017292Y006722D03*
X018432Y009702D03*
X015692Y014822D03*
X010772Y018502D03*
D187*
X010532Y018512D03*
X017072Y018312D03*
X017252Y014812D03*
X018412Y009712D03*
D188*
X018092Y009712D03*
D189*
X018072Y009702D03*
X010452Y018502D03*
X010432Y018502D03*
X010332Y018502D03*
D190*
X017892Y007012D03*
X017912Y007012D03*
X017932Y007012D03*
D191*
X017832Y006962D03*
X017812Y006962D03*
X017792Y006962D03*
X016712Y014802D03*
X016692Y014802D03*
X016672Y014802D03*
X016232Y014802D03*
X016212Y014802D03*
X016192Y014802D03*
X016172Y014802D03*
X011232Y018502D03*
X011212Y018502D03*
D192*
X010952Y018492D03*
X015872Y014832D03*
X017592Y006852D03*
D193*
X017592Y014802D03*
X015632Y014802D03*
D194*
X016972Y018042D03*
X010872Y018502D03*
X017552Y006842D03*
D195*
X017072Y011742D03*
X017052Y011742D03*
X017552Y011962D03*
X014812Y012562D03*
D196*
X015352Y015062D03*
X017552Y015062D03*
X010392Y018522D03*
X010372Y018522D03*
X017172Y006662D03*
D197*
X017512Y006822D03*
D198*
X017472Y014382D03*
X017512Y015162D03*
X017492Y015222D03*
X015392Y015162D03*
X010012Y018482D03*
D199*
X015772Y014832D03*
X015792Y014832D03*
X017112Y014832D03*
X017472Y006812D03*
X017492Y006812D03*
D200*
X017432Y006762D03*
X017172Y014802D03*
X015732Y014802D03*
X010832Y018522D03*
D201*
X017412Y006772D03*
D202*
X017372Y006752D03*
X017352Y006752D03*
X017192Y014812D03*
X015332Y014812D03*
D203*
X013852Y017892D03*
X013832Y017892D03*
X013812Y017892D03*
X013792Y017892D03*
X013772Y017892D03*
X013752Y017892D03*
X013732Y017892D03*
X013712Y017892D03*
X013692Y017892D03*
X013672Y017892D03*
X013652Y017892D03*
X013632Y017892D03*
X013612Y017892D03*
X013592Y017892D03*
X013572Y017892D03*
X013552Y017892D03*
X013532Y017892D03*
X013512Y017892D03*
X013492Y017892D03*
X013472Y017892D03*
X013452Y017892D03*
X013432Y017892D03*
X013412Y017892D03*
X013392Y017892D03*
X013372Y017892D03*
X013352Y017892D03*
X013332Y017892D03*
X013312Y017892D03*
X013292Y017892D03*
X013272Y017892D03*
X013252Y017892D03*
X013232Y017892D03*
X013212Y017892D03*
X013192Y017892D03*
X013172Y017892D03*
X013152Y017892D03*
X013132Y017892D03*
X013112Y017892D03*
X013092Y017892D03*
X013072Y017892D03*
X013052Y017892D03*
X013032Y017892D03*
X013012Y017892D03*
X012992Y017892D03*
X012972Y017892D03*
X012952Y017892D03*
X012932Y017892D03*
X012912Y017892D03*
X012892Y017892D03*
X012872Y017892D03*
X012852Y017892D03*
X012832Y017892D03*
X012812Y017892D03*
X012792Y017892D03*
X012772Y017892D03*
X012752Y017892D03*
X012732Y017892D03*
X012712Y017892D03*
X012692Y017892D03*
X012672Y017892D03*
X012652Y017892D03*
X012632Y017892D03*
X012612Y017892D03*
X012592Y017892D03*
X012572Y017892D03*
X012552Y017892D03*
X012552Y019112D03*
X012572Y019112D03*
X012592Y019112D03*
X012612Y019112D03*
X012632Y019112D03*
X012652Y019112D03*
X012672Y019112D03*
X012692Y019112D03*
X012712Y019112D03*
X012732Y019112D03*
X012752Y019112D03*
X012772Y019112D03*
X012792Y019112D03*
X012812Y019112D03*
X012832Y019112D03*
X012852Y019112D03*
X012872Y019112D03*
X012892Y019112D03*
X012912Y019112D03*
X012932Y019112D03*
X012952Y019112D03*
X012972Y019112D03*
X012992Y019112D03*
X013012Y019112D03*
X013032Y019112D03*
X013052Y019112D03*
X013072Y019112D03*
X013092Y019112D03*
X013112Y019112D03*
X013132Y019112D03*
X013152Y019112D03*
X013172Y019112D03*
X013192Y019112D03*
X013212Y019112D03*
X013232Y019112D03*
X013252Y019112D03*
X013272Y019112D03*
X013292Y019112D03*
X013312Y019112D03*
X013332Y019112D03*
X013352Y019112D03*
X013372Y019112D03*
X013392Y019112D03*
X013412Y019112D03*
X013432Y019112D03*
X013452Y019112D03*
X013472Y019112D03*
X013492Y019112D03*
X013512Y019112D03*
X013532Y019112D03*
X013552Y019112D03*
X013572Y019112D03*
X013592Y019112D03*
X013612Y019112D03*
X013632Y019112D03*
X013652Y019112D03*
X013672Y019112D03*
X013692Y019112D03*
X013712Y019112D03*
X013732Y019112D03*
X013752Y019112D03*
X013772Y019112D03*
X013792Y019112D03*
X013812Y019112D03*
X013832Y019112D03*
X013852Y019112D03*
X012532Y019112D03*
X012512Y019112D03*
X017312Y006732D03*
D204*
X017212Y006702D03*
X010292Y018482D03*
D205*
X017192Y006682D03*
D206*
X017152Y011732D03*
X017132Y011732D03*
X017112Y011732D03*
X012892Y014812D03*
X015232Y017572D03*
X012032Y018492D03*
D207*
X010852Y018492D03*
X017152Y014812D03*
D208*
X017092Y014822D03*
X016952Y018022D03*
X010912Y018502D03*
D209*
X012372Y019082D03*
X012392Y019082D03*
X012412Y019082D03*
X017032Y018242D03*
D210*
X016972Y014822D03*
X016952Y014822D03*
X015952Y014822D03*
D211*
X016852Y017722D03*
D212*
X015812Y014812D03*
X010892Y018512D03*
D213*
X015752Y014802D03*
D214*
X015712Y014822D03*
X012292Y017962D03*
X012312Y019042D03*
D215*
X010412Y018512D03*
X010352Y018512D03*
X010052Y018512D03*
X010032Y018512D03*
X015652Y014812D03*
D216*
X015352Y014572D03*
X015372Y014532D03*
X015372Y015092D03*
D217*
X012932Y014812D03*
X014552Y012912D03*
X014992Y017512D03*
D218*
X014972Y017502D03*
D219*
X014912Y017472D03*
D220*
X014852Y017432D03*
D221*
X014812Y017582D03*
X014792Y017582D03*
D222*
X014772Y017572D03*
D223*
X014752Y017522D03*
X014732Y017522D03*
D224*
X014712Y017502D03*
X014692Y017502D03*
D225*
X014672Y017462D03*
D226*
X014652Y017442D03*
D227*
X014592Y017382D03*
D228*
X014572Y017322D03*
X014552Y017322D03*
D229*
X014532Y017272D03*
D230*
X014512Y017242D03*
X013272Y014822D03*
D231*
X014492Y013132D03*
D232*
X013412Y014822D03*
X014492Y017182D03*
D233*
X014472Y015512D03*
X014452Y015512D03*
X014432Y015512D03*
D234*
X014412Y015532D03*
X014392Y015532D03*
X014372Y015532D03*
D235*
X014352Y015542D03*
D236*
X014332Y015552D03*
X014312Y015552D03*
D237*
X014292Y015582D03*
X014272Y015582D03*
X014252Y015582D03*
X014232Y015582D03*
D238*
X014212Y015602D03*
D239*
X014192Y015612D03*
X014172Y015612D03*
D240*
X014152Y015622D03*
X014132Y015622D03*
D241*
X014112Y015632D03*
D242*
X014092Y015642D03*
X014072Y015642D03*
D243*
X014052Y015652D03*
D244*
X014032Y015672D03*
X014012Y015672D03*
X013992Y015672D03*
D245*
X013972Y015702D03*
X013952Y015702D03*
D246*
X013932Y015722D03*
X013912Y015722D03*
D247*
X013832Y014822D03*
D248*
X013792Y014812D03*
D249*
X013772Y014822D03*
D250*
X013732Y014822D03*
D251*
X013712Y014812D03*
D252*
X013672Y014812D03*
D253*
X013652Y014822D03*
D254*
X013632Y014812D03*
D255*
X013592Y014812D03*
D256*
X013552Y014812D03*
D257*
X013492Y014832D03*
D258*
X013472Y014822D03*
D259*
X013452Y014822D03*
D260*
X013392Y014812D03*
D261*
X013372Y014832D03*
D262*
X013312Y014802D03*
D263*
X013292Y014832D03*
D264*
X013232Y014822D03*
X013212Y014822D03*
D265*
X013192Y014812D03*
D266*
X013152Y014812D03*
D267*
X013112Y014822D03*
D268*
X013092Y014842D03*
D269*
X013072Y014812D03*
D270*
X013052Y014822D03*
D271*
X013012Y014822D03*
D272*
X012992Y014822D03*
D273*
X012692Y014822D03*
X010512Y018502D03*
D274*
X012412Y017902D03*
X012432Y017902D03*
X012452Y017902D03*
X012472Y017902D03*
X012492Y017902D03*
X012512Y017902D03*
X012532Y017902D03*
X012492Y019102D03*
X012472Y019102D03*
D275*
X012332Y019052D03*
D276*
X012292Y019032D03*
X012272Y019032D03*
D277*
X010752Y018492D03*
X010732Y018492D03*
X010712Y018492D03*
X010692Y018492D03*
X010672Y018492D03*
X010652Y018492D03*
X010632Y018492D03*
X010612Y018492D03*
X010592Y018492D03*
X010572Y018492D03*
D278*
X010492Y018492D03*
X010472Y018492D03*
X010312Y018492D03*
X010092Y018492D03*
X010072Y018492D03*
D279*
X010132Y018502D03*
X010152Y018502D03*
X010172Y018502D03*
X010192Y018502D03*
X010212Y018502D03*
X010232Y018502D03*
X010252Y018502D03*
X010272Y018502D03*
M02*
