G75*
%MOIN*%
%OFA0B0*%
%FSLAX24Y24*%
%IPPOS*%
%LPD*%
%AMOC8*
5,1,8,0,0,1.08239X$1,22.5*
%
%ADD10C,0.0000*%
%ADD11C,0.0050*%
%ADD12C,0.0040*%
%ADD13C,0.0080*%
%ADD14C,0.0090*%
%ADD15C,0.0060*%
%ADD16C,0.0160*%
%ADD17R,0.2018X0.1427*%
%ADD18R,0.0246X2.2982*%
%ADD19R,0.0246X2.1161*%
%ADD20R,0.3543X0.2805*%
%ADD21C,0.0030*%
%ADD22C,0.0010*%
%ADD23R,0.0180X0.0300*%
%ADD24R,0.0300X0.0180*%
%ADD25C,0.0220*%
%ADD26R,0.0020X0.0520*%
%ADD27R,0.0020X0.1220*%
%ADD28R,0.0020X0.1360*%
%ADD29R,0.0020X0.1520*%
%ADD30R,0.0020X0.1620*%
%ADD31R,0.0020X0.1760*%
%ADD32R,0.0020X0.2060*%
%ADD33R,0.0020X0.2180*%
%ADD34R,0.0020X0.2220*%
%ADD35R,0.0020X0.2360*%
%ADD36R,0.0020X0.2440*%
%ADD37R,0.0020X0.2620*%
%ADD38R,0.0020X0.2780*%
%ADD39R,0.0020X0.2800*%
%ADD40R,0.0020X0.2920*%
%ADD41R,0.0020X0.3120*%
%ADD42R,0.0020X0.3140*%
%ADD43R,0.0020X0.3180*%
%ADD44R,0.0020X0.3260*%
%ADD45R,0.0020X0.3300*%
%ADD46R,0.0020X0.3540*%
%ADD47R,0.0020X0.3580*%
%ADD48R,0.0020X0.3640*%
%ADD49R,0.0020X0.3660*%
%ADD50R,0.0020X0.3820*%
%ADD51R,0.0020X0.3900*%
%ADD52R,0.0020X0.3920*%
%ADD53R,0.0020X0.3960*%
%ADD54R,0.0020X0.4120*%
%ADD55R,0.0020X0.4220*%
%ADD56R,0.0020X0.4260*%
%ADD57R,0.0020X0.4280*%
%ADD58R,0.0020X0.4460*%
%ADD59R,0.0020X0.4480*%
%ADD60R,0.0020X0.4500*%
%ADD61R,0.0020X0.4540*%
%ADD62R,0.0020X0.4680*%
%ADD63R,0.0020X0.4700*%
%ADD64R,0.0020X0.4720*%
%ADD65R,0.0020X0.4760*%
%ADD66R,0.0020X0.4860*%
%ADD67R,0.0020X0.4880*%
%ADD68R,0.0020X0.4940*%
%ADD69R,0.0020X0.4960*%
%ADD70R,0.0020X0.5020*%
%ADD71R,0.0020X0.5080*%
%ADD72R,0.0020X0.5120*%
%ADD73R,0.0020X0.5140*%
%ADD74R,0.0020X0.5220*%
%ADD75R,0.0020X0.5260*%
%ADD76R,0.0020X0.5360*%
%ADD77R,0.0020X0.5380*%
%ADD78R,0.0020X0.5460*%
%ADD79R,0.0020X0.5500*%
%ADD80R,0.0020X0.5520*%
%ADD81R,0.0020X0.5560*%
%ADD82R,0.0020X0.5580*%
%ADD83R,0.0020X0.5640*%
%ADD84R,0.0020X0.5680*%
%ADD85R,0.0020X0.5740*%
%ADD86R,0.0020X0.5800*%
%ADD87R,0.0020X0.5820*%
%ADD88R,0.0020X0.5900*%
%ADD89R,0.0020X0.5960*%
%ADD90R,0.0020X0.5980*%
%ADD91R,0.0020X0.6000*%
%ADD92R,0.0020X0.6020*%
%ADD93R,0.0020X0.6140*%
%ADD94R,0.0020X0.6160*%
%ADD95R,0.0020X0.6220*%
%ADD96R,0.0020X0.6260*%
%ADD97R,0.0020X0.6280*%
%ADD98R,0.0020X0.6320*%
%ADD99R,0.0020X0.6360*%
%ADD100R,0.0020X0.6380*%
%ADD101R,0.0020X0.6420*%
%ADD102R,0.0020X0.2840*%
%ADD103R,0.0020X0.2760*%
%ADD104R,0.0020X0.2680*%
%ADD105R,0.0020X0.2640*%
%ADD106R,0.0020X0.2580*%
%ADD107R,0.0020X0.2600*%
%ADD108R,0.0020X0.2540*%
%ADD109R,0.0020X0.2560*%
%ADD110R,0.0020X0.2520*%
%ADD111R,0.0020X0.2500*%
%ADD112R,0.0020X0.2480*%
%ADD113R,0.0020X0.2460*%
%ADD114R,0.0020X0.2420*%
%ADD115R,0.0020X0.2400*%
%ADD116R,0.0020X0.2340*%
%ADD117R,0.0020X0.2260*%
%ADD118R,0.0020X0.2280*%
%ADD119R,0.0020X0.2300*%
%ADD120R,0.0020X0.2240*%
%ADD121R,0.0020X0.2200*%
%ADD122R,0.0020X0.2160*%
%ADD123R,0.0020X0.2140*%
%ADD124R,0.0020X0.2100*%
%ADD125R,0.0020X0.2120*%
%ADD126R,0.0020X0.2080*%
%ADD127R,0.0020X0.2040*%
%ADD128R,0.0020X0.2020*%
%ADD129R,0.0020X0.2000*%
%ADD130R,0.0020X0.1980*%
%ADD131R,0.0020X0.1960*%
%ADD132R,0.0020X0.0260*%
%ADD133R,0.0020X0.1940*%
%ADD134R,0.0020X0.0620*%
%ADD135R,0.0020X0.0680*%
%ADD136R,0.0020X0.0180*%
%ADD137R,0.0020X0.0200*%
%ADD138R,0.0020X0.0120*%
%ADD139R,0.0020X0.0140*%
%ADD140R,0.0020X0.1920*%
%ADD141R,0.0020X0.1900*%
%ADD142R,0.0020X0.0100*%
%ADD143R,0.0020X0.1880*%
%ADD144R,0.0020X0.1860*%
%ADD145R,0.0020X0.0080*%
%ADD146R,0.0020X0.0060*%
%ADD147R,0.0020X0.0380*%
%ADD148R,0.0020X0.0420*%
%ADD149R,0.0020X0.0760*%
%ADD150R,0.0020X0.0780*%
%ADD151R,0.0020X0.0800*%
%ADD152R,0.0020X0.0920*%
%ADD153R,0.0020X0.1000*%
%ADD154R,0.0020X0.1840*%
%ADD155R,0.0020X0.0040*%
%ADD156R,0.0020X0.1020*%
%ADD157R,0.0020X0.1100*%
%ADD158R,0.0020X0.1820*%
%ADD159R,0.0020X0.1120*%
%ADD160R,0.0020X0.1180*%
%ADD161R,0.0020X0.1240*%
%ADD162R,0.0020X0.1260*%
%ADD163R,0.0020X0.1800*%
%ADD164R,0.0020X0.1300*%
%ADD165R,0.0020X0.1320*%
%ADD166R,0.0020X0.0020*%
%ADD167R,0.0020X0.1780*%
%ADD168R,0.0020X0.1380*%
%ADD169R,0.0020X0.1400*%
%ADD170R,0.0020X0.1420*%
%ADD171R,0.0020X0.1480*%
%ADD172R,0.0020X0.1500*%
%ADD173R,0.0020X0.1540*%
%ADD174R,0.0020X0.1580*%
%ADD175R,0.0020X0.1640*%
%ADD176R,0.0020X0.1660*%
%ADD177R,0.0020X0.1680*%
%ADD178R,0.0020X0.1600*%
%ADD179R,0.0020X0.1460*%
%ADD180R,0.0020X0.1440*%
%ADD181R,0.0020X0.1340*%
%ADD182R,0.0020X0.1200*%
%ADD183R,0.0020X0.1160*%
%ADD184R,0.0020X0.0860*%
%ADD185R,0.0020X0.0560*%
%ADD186R,0.0020X0.0500*%
%ADD187R,0.0020X0.0460*%
%ADD188R,0.0020X0.0320*%
%ADD189R,0.0020X0.1700*%
%ADD190R,0.0020X0.1560*%
%ADD191R,0.0020X0.1140*%
%ADD192R,0.0020X0.0240*%
%ADD193R,0.0020X0.1040*%
%ADD194R,0.0020X0.2320*%
%ADD195R,0.0020X0.0280*%
%ADD196R,0.0020X0.0960*%
%ADD197R,0.0020X0.0160*%
%ADD198R,0.0020X0.0940*%
%ADD199R,0.0020X0.0840*%
%ADD200R,0.0020X0.0820*%
%ADD201R,0.0020X0.0660*%
%ADD202R,0.0020X0.0580*%
%ADD203R,0.0020X0.0400*%
%ADD204R,0.0020X0.0360*%
%ADD205R,0.0020X0.2380*%
%ADD206R,0.0020X0.0900*%
%ADD207R,0.0020X0.1080*%
%ADD208R,0.0020X0.0640*%
%ADD209R,0.0020X0.1280*%
%ADD210R,0.0020X0.1720*%
%ADD211R,0.0020X0.1060*%
%ADD212R,0.0020X0.0880*%
%ADD213R,0.0020X0.0720*%
%ADD214R,0.0020X0.0300*%
%ADD215R,0.0020X0.0220*%
%ADD216R,0.0020X0.2700*%
%ADD217R,0.0020X0.2720*%
%ADD218R,0.0020X0.2820*%
%ADD219R,0.0020X0.2900*%
%ADD220R,0.0020X0.3320*%
%ADD221R,0.0020X0.3340*%
%ADD222R,0.0020X0.3440*%
%ADD223R,0.0020X0.3480*%
%ADD224R,0.0020X0.3560*%
%ADD225R,0.0020X0.3600*%
%ADD226R,0.0020X0.3720*%
%ADD227R,0.0020X0.3840*%
%ADD228R,0.0020X0.3940*%
%ADD229R,0.0020X0.4000*%
%ADD230R,0.0020X0.3060*%
%ADD231R,0.0020X0.4440*%
%ADD232R,0.0020X0.7780*%
%ADD233R,0.0020X0.7740*%
%ADD234R,0.0020X0.7720*%
%ADD235R,0.0020X0.7700*%
%ADD236R,0.0020X0.7640*%
%ADD237R,0.0020X0.7600*%
%ADD238R,0.0020X0.7580*%
%ADD239R,0.0020X0.7560*%
%ADD240R,0.0020X0.7540*%
%ADD241R,0.0020X0.7520*%
%ADD242R,0.0020X0.7500*%
%ADD243R,0.0020X0.7460*%
%ADD244R,0.0020X0.7400*%
%ADD245R,0.0020X0.7360*%
%ADD246R,0.0020X0.5400*%
%ADD247R,0.0020X0.5340*%
%ADD248R,0.0020X0.5320*%
%ADD249R,0.0020X0.5200*%
%ADD250R,0.0020X0.5180*%
%ADD251R,0.0020X0.5100*%
%ADD252R,0.0020X0.5000*%
%ADD253R,0.0020X0.4980*%
%ADD254R,0.0020X0.4900*%
%ADD255R,0.0020X0.4780*%
%ADD256R,0.0020X0.4660*%
%ADD257R,0.0020X0.4640*%
%ADD258R,0.0020X0.4520*%
%ADD259R,0.0020X0.4420*%
%ADD260R,0.0020X0.4300*%
%ADD261R,0.0020X0.4160*%
%ADD262R,0.0020X0.4100*%
%ADD263R,0.0020X0.3880*%
%ADD264R,0.0020X0.3780*%
%ADD265R,0.0020X0.3620*%
%ADD266R,0.0020X0.3520*%
%ADD267R,0.0020X0.3360*%
%ADD268R,0.0020X0.3220*%
%ADD269R,0.0020X0.3200*%
%ADD270R,0.0020X0.3080*%
%ADD271R,0.0020X0.2880*%
%ADD272R,0.0020X0.0480*%
%ADD273R,0.0020X0.0600*%
%ADD274R,0.0020X0.0700*%
%ADD275R,0.0020X0.0740*%
%ADD276R,0.0020X0.0540*%
%ADD277R,0.0020X0.0340*%
%ADD278R,0.0020X0.0440*%
D10*
X008171Y001429D02*
X013535Y001429D01*
X013537Y001357D01*
X013543Y001285D01*
X013553Y001214D01*
X013566Y001143D01*
X013583Y001073D01*
X013605Y001005D01*
X013629Y000937D01*
X013658Y000871D01*
X013690Y000806D01*
X013725Y000744D01*
X013764Y000683D01*
X013806Y000625D01*
X013851Y000569D01*
X013899Y000515D01*
X013950Y000464D01*
X014004Y000416D01*
X014060Y000371D01*
X014118Y000329D01*
X014179Y000290D01*
X014241Y000255D01*
X014306Y000223D01*
X014372Y000194D01*
X014440Y000170D01*
X014508Y000148D01*
X014578Y000131D01*
X014649Y000118D01*
X014720Y000108D01*
X014792Y000102D01*
X014864Y000100D01*
X015734Y000100D01*
X015780Y000102D01*
X015826Y000108D01*
X015871Y000117D01*
X015915Y000130D01*
X015958Y000147D01*
X015999Y000167D01*
X016039Y000191D01*
X016076Y000217D01*
X016111Y000247D01*
X016144Y000280D01*
X016174Y000315D01*
X016200Y000352D01*
X016224Y000392D01*
X016244Y000433D01*
X016261Y000476D01*
X016274Y000520D01*
X016283Y000565D01*
X016289Y000611D01*
X016291Y000657D01*
X016293Y000710D01*
X016298Y000762D01*
X016307Y000814D01*
X016320Y000865D01*
X016336Y000916D01*
X016355Y000965D01*
X016378Y001012D01*
X016403Y001058D01*
X016432Y001102D01*
X016464Y001144D01*
X016499Y001184D01*
X016536Y001221D01*
X016576Y001256D01*
X016618Y001288D01*
X016662Y001317D01*
X016708Y001342D01*
X016755Y001365D01*
X016804Y001384D01*
X016855Y001400D01*
X016906Y001413D01*
X016958Y001422D01*
X017010Y001427D01*
X017063Y001429D01*
X024903Y001429D01*
X036665Y010484D02*
X036665Y015110D01*
X035275Y013683D02*
X035277Y013712D01*
X035283Y013740D01*
X035292Y013768D01*
X035305Y013794D01*
X035322Y013817D01*
X035341Y013839D01*
X035363Y013858D01*
X035388Y013873D01*
X035414Y013886D01*
X035442Y013894D01*
X035470Y013899D01*
X035499Y013900D01*
X035528Y013897D01*
X035556Y013890D01*
X035583Y013880D01*
X035609Y013866D01*
X035632Y013849D01*
X035653Y013829D01*
X035671Y013806D01*
X035686Y013781D01*
X035697Y013754D01*
X035705Y013726D01*
X035709Y013697D01*
X035709Y013669D01*
X035705Y013640D01*
X035697Y013612D01*
X035686Y013585D01*
X035671Y013560D01*
X035653Y013537D01*
X035632Y013517D01*
X035609Y013500D01*
X035583Y013486D01*
X035556Y013476D01*
X035528Y013469D01*
X035499Y013466D01*
X035470Y013467D01*
X035442Y013472D01*
X035414Y013480D01*
X035388Y013493D01*
X035363Y013508D01*
X035341Y013527D01*
X035322Y013549D01*
X035305Y013572D01*
X035292Y013598D01*
X035283Y013626D01*
X035277Y013654D01*
X035275Y013683D01*
X035275Y011911D02*
X035277Y011940D01*
X035283Y011968D01*
X035292Y011996D01*
X035305Y012022D01*
X035322Y012045D01*
X035341Y012067D01*
X035363Y012086D01*
X035388Y012101D01*
X035414Y012114D01*
X035442Y012122D01*
X035470Y012127D01*
X035499Y012128D01*
X035528Y012125D01*
X035556Y012118D01*
X035583Y012108D01*
X035609Y012094D01*
X035632Y012077D01*
X035653Y012057D01*
X035671Y012034D01*
X035686Y012009D01*
X035697Y011982D01*
X035705Y011954D01*
X035709Y011925D01*
X035709Y011897D01*
X035705Y011868D01*
X035697Y011840D01*
X035686Y011813D01*
X035671Y011788D01*
X035653Y011765D01*
X035632Y011745D01*
X035609Y011728D01*
X035583Y011714D01*
X035556Y011704D01*
X035528Y011697D01*
X035499Y011694D01*
X035470Y011695D01*
X035442Y011700D01*
X035414Y011708D01*
X035388Y011721D01*
X035363Y011736D01*
X035341Y011755D01*
X035322Y011777D01*
X035305Y011800D01*
X035292Y011826D01*
X035283Y011854D01*
X035277Y011882D01*
X035275Y011911D01*
X036664Y010484D02*
X036629Y010233D01*
X036587Y009982D01*
X036539Y009733D01*
X036485Y009485D01*
X036425Y009239D01*
X036360Y008994D01*
X036288Y008751D01*
X036210Y008509D01*
X036127Y008270D01*
X036038Y008032D01*
X035943Y007797D01*
X035843Y007564D01*
X035737Y007334D01*
X035625Y007106D01*
X035508Y006881D01*
X035386Y006659D01*
X035258Y006440D01*
X035125Y006224D01*
X034987Y006011D01*
X034843Y005802D01*
X034695Y005596D01*
X034542Y005394D01*
X034384Y005196D01*
X034221Y005001D01*
X034053Y004811D01*
X033881Y004624D01*
X033705Y004442D01*
X033524Y004264D01*
X033339Y004091D01*
X033149Y003922D01*
X032956Y003758D01*
X032759Y003598D01*
X032558Y003443D01*
X032353Y003294D01*
X032145Y003149D01*
X031933Y003009D01*
X031718Y002874D01*
X031500Y002745D01*
X031279Y002621D01*
X031055Y002502D01*
X030828Y002389D01*
X030598Y002281D01*
X030366Y002179D01*
X030132Y002083D01*
X029895Y001992D01*
X029656Y001907D01*
X029415Y001828D01*
X029172Y001754D01*
X028928Y001687D01*
X028681Y001625D01*
X028434Y001569D01*
X028185Y001520D01*
X027935Y001476D01*
X027685Y001439D01*
X027433Y001407D01*
X027181Y001382D01*
X026928Y001363D01*
X026674Y001349D01*
X026421Y001342D01*
X026167Y001341D01*
X025914Y001347D01*
X025660Y001358D01*
X025407Y001375D01*
X025155Y001399D01*
X024903Y001429D01*
X008171Y001429D02*
X008009Y001431D01*
X007848Y001437D01*
X007686Y001447D01*
X007525Y001460D01*
X007364Y001478D01*
X007204Y001499D01*
X007044Y001525D01*
X006885Y001554D01*
X006727Y001587D01*
X006569Y001623D01*
X006413Y001664D01*
X006257Y001708D01*
X006103Y001757D01*
X005950Y001808D01*
X005798Y001864D01*
X005647Y001923D01*
X005498Y001986D01*
X005351Y002052D01*
X005205Y002122D01*
X005061Y002196D01*
X004918Y002273D01*
X004778Y002353D01*
X004640Y002437D01*
X004503Y002524D01*
X004369Y002614D01*
X004237Y002707D01*
X004107Y002804D01*
X003980Y002904D01*
X003855Y003006D01*
X003733Y003112D01*
X003613Y003221D01*
X003496Y003332D01*
X003381Y003447D01*
X003270Y003564D01*
X003161Y003684D01*
X003055Y003806D01*
X002953Y003931D01*
X002853Y004058D01*
X002756Y004188D01*
X002663Y004320D01*
X002573Y004454D01*
X002486Y004591D01*
X002402Y004729D01*
X002322Y004869D01*
X002245Y005012D01*
X002171Y005156D01*
X002101Y005302D01*
X002035Y005449D01*
X001972Y005598D01*
X001913Y005749D01*
X001857Y005901D01*
X001806Y006054D01*
X001757Y006208D01*
X001713Y006364D01*
X001672Y006520D01*
X001636Y006678D01*
X001603Y006836D01*
X001574Y006995D01*
X001548Y007155D01*
X001527Y007315D01*
X001509Y007476D01*
X001496Y007637D01*
X001486Y007799D01*
X001480Y007960D01*
X001478Y008122D01*
X001406Y008124D01*
X001334Y008130D01*
X001262Y008139D01*
X001191Y008152D01*
X001121Y008169D01*
X001052Y008189D01*
X000984Y008214D01*
X000918Y008241D01*
X000852Y008272D01*
X000789Y008307D01*
X000727Y008344D01*
X000668Y008385D01*
X000611Y008429D01*
X000556Y008476D01*
X000504Y008526D01*
X000454Y008578D01*
X000407Y008633D01*
X000363Y008690D01*
X000322Y008749D01*
X000285Y008811D01*
X000250Y008874D01*
X000219Y008940D01*
X000192Y009006D01*
X000167Y009074D01*
X000147Y009143D01*
X000130Y009213D01*
X000117Y009284D01*
X000108Y009356D01*
X000102Y009428D01*
X000100Y009500D01*
X000100Y015799D01*
X000102Y015871D01*
X000108Y015943D01*
X000117Y016015D01*
X000130Y016086D01*
X000147Y016156D01*
X000167Y016225D01*
X000192Y016293D01*
X000219Y016359D01*
X000250Y016425D01*
X000285Y016488D01*
X000322Y016550D01*
X000363Y016609D01*
X000407Y016666D01*
X000454Y016721D01*
X000504Y016773D01*
X000556Y016823D01*
X000611Y016870D01*
X000668Y016914D01*
X000727Y016955D01*
X000789Y016992D01*
X000852Y017027D01*
X000918Y017058D01*
X000984Y017085D01*
X001052Y017110D01*
X001121Y017130D01*
X001191Y017147D01*
X001262Y017160D01*
X001334Y017169D01*
X001406Y017175D01*
X001478Y017177D01*
X000698Y012846D02*
X000700Y012896D01*
X000706Y012946D01*
X000716Y012995D01*
X000730Y013043D01*
X000747Y013090D01*
X000768Y013135D01*
X000793Y013179D01*
X000821Y013220D01*
X000853Y013259D01*
X000887Y013296D01*
X000924Y013330D01*
X000964Y013360D01*
X001006Y013387D01*
X001050Y013411D01*
X001096Y013432D01*
X001143Y013448D01*
X001191Y013461D01*
X001241Y013470D01*
X001290Y013475D01*
X001341Y013476D01*
X001391Y013473D01*
X001440Y013466D01*
X001489Y013455D01*
X001537Y013440D01*
X001583Y013422D01*
X001628Y013400D01*
X001671Y013374D01*
X001712Y013345D01*
X001751Y013313D01*
X001787Y013278D01*
X001819Y013240D01*
X001849Y013200D01*
X001876Y013157D01*
X001899Y013113D01*
X001918Y013067D01*
X001934Y013019D01*
X001946Y012970D01*
X001954Y012921D01*
X001958Y012871D01*
X001958Y012821D01*
X001954Y012771D01*
X001946Y012722D01*
X001934Y012673D01*
X001918Y012625D01*
X001899Y012579D01*
X001876Y012535D01*
X001849Y012492D01*
X001819Y012452D01*
X001787Y012414D01*
X001751Y012379D01*
X001712Y012347D01*
X001671Y012318D01*
X001628Y012292D01*
X001583Y012270D01*
X001537Y012252D01*
X001489Y012237D01*
X001440Y012226D01*
X001391Y012219D01*
X001341Y012216D01*
X001290Y012217D01*
X001241Y012222D01*
X001191Y012231D01*
X001143Y012244D01*
X001096Y012260D01*
X001050Y012281D01*
X001006Y012305D01*
X000964Y012332D01*
X000924Y012362D01*
X000887Y012396D01*
X000853Y012433D01*
X000821Y012472D01*
X000793Y012513D01*
X000768Y012557D01*
X000747Y012602D01*
X000730Y012649D01*
X000716Y012697D01*
X000706Y012746D01*
X000700Y012796D01*
X000698Y012846D01*
X001478Y017177D02*
X001480Y017348D01*
X001486Y017519D01*
X001497Y017690D01*
X001511Y017861D01*
X001530Y018031D01*
X001552Y018201D01*
X001579Y018370D01*
X001610Y018539D01*
X001645Y018706D01*
X001684Y018873D01*
X001727Y019039D01*
X001774Y019203D01*
X001825Y019367D01*
X001880Y019529D01*
X001939Y019690D01*
X002001Y019849D01*
X002068Y020007D01*
X002138Y020163D01*
X002212Y020318D01*
X002290Y020470D01*
X002371Y020621D01*
X002456Y020770D01*
X002545Y020916D01*
X002637Y021061D01*
X002733Y021203D01*
X002831Y021343D01*
X002934Y021480D01*
X003039Y021615D01*
X003148Y021747D01*
X003260Y021877D01*
X003375Y022003D01*
X003494Y022127D01*
X003615Y022248D01*
X003739Y022367D01*
X003865Y022482D01*
X003995Y022594D01*
X004127Y022703D01*
X004262Y022808D01*
X004399Y022911D01*
X004539Y023009D01*
X004681Y023105D01*
X004826Y023197D01*
X004972Y023286D01*
X005121Y023371D01*
X005272Y023452D01*
X005424Y023530D01*
X005579Y023604D01*
X005735Y023674D01*
X005893Y023741D01*
X006052Y023803D01*
X006213Y023862D01*
X006375Y023917D01*
X006539Y023968D01*
X006703Y024015D01*
X006869Y024058D01*
X007036Y024097D01*
X007203Y024132D01*
X007372Y024163D01*
X007541Y024190D01*
X007711Y024212D01*
X007881Y024231D01*
X008052Y024245D01*
X008223Y024256D01*
X008394Y024262D01*
X008565Y024264D01*
X008565Y024263D02*
X013535Y024263D01*
X013537Y024338D01*
X013543Y024412D01*
X013553Y024486D01*
X013566Y024560D01*
X013584Y024632D01*
X013605Y024704D01*
X013630Y024774D01*
X013658Y024843D01*
X013691Y024911D01*
X013726Y024977D01*
X013765Y025040D01*
X013808Y025102D01*
X013853Y025161D01*
X013902Y025218D01*
X013953Y025272D01*
X014007Y025323D01*
X014064Y025372D01*
X014123Y025417D01*
X014185Y025460D01*
X014249Y025499D01*
X014314Y025534D01*
X014382Y025567D01*
X014451Y025595D01*
X014521Y025620D01*
X014593Y025641D01*
X014665Y025659D01*
X014739Y025672D01*
X014813Y025682D01*
X014887Y025688D01*
X014962Y025690D01*
X014962Y025691D02*
X015734Y025691D01*
X015780Y025689D01*
X015826Y025683D01*
X015871Y025674D01*
X015915Y025661D01*
X015958Y025644D01*
X015999Y025624D01*
X016039Y025600D01*
X016076Y025574D01*
X016111Y025544D01*
X016144Y025511D01*
X016174Y025476D01*
X016200Y025439D01*
X016224Y025399D01*
X016244Y025358D01*
X016261Y025315D01*
X016274Y025271D01*
X016283Y025226D01*
X016289Y025180D01*
X016291Y025134D01*
X016293Y025077D01*
X016298Y025020D01*
X016308Y024964D01*
X016321Y024909D01*
X016337Y024854D01*
X016357Y024801D01*
X016381Y024749D01*
X016408Y024699D01*
X016438Y024651D01*
X016471Y024604D01*
X016507Y024560D01*
X016546Y024519D01*
X016587Y024480D01*
X016631Y024444D01*
X016678Y024411D01*
X016726Y024381D01*
X016776Y024354D01*
X016828Y024330D01*
X016881Y024310D01*
X016936Y024294D01*
X016991Y024281D01*
X017047Y024271D01*
X017104Y024266D01*
X017161Y024264D01*
X017161Y024263D02*
X024903Y024263D01*
X024903Y024264D02*
X025156Y024292D01*
X025410Y024315D01*
X025664Y024331D01*
X025918Y024341D01*
X026173Y024345D01*
X026428Y024343D01*
X026682Y024334D01*
X026936Y024320D01*
X027190Y024299D01*
X027443Y024272D01*
X027696Y024239D01*
X027948Y024200D01*
X028198Y024155D01*
X028448Y024104D01*
X028696Y024047D01*
X028943Y023984D01*
X029188Y023915D01*
X029431Y023840D01*
X029673Y023759D01*
X029912Y023672D01*
X030150Y023580D01*
X030385Y023482D01*
X030617Y023378D01*
X030847Y023269D01*
X031075Y023154D01*
X031299Y023033D01*
X031520Y022908D01*
X031739Y022776D01*
X031954Y022640D01*
X032166Y022499D01*
X032374Y022352D01*
X032579Y022201D01*
X032780Y022044D01*
X032977Y021883D01*
X033170Y021717D01*
X033359Y021547D01*
X033544Y021371D01*
X033725Y021192D01*
X033901Y021008D01*
X034073Y020820D01*
X034240Y020628D01*
X034403Y020432D01*
X034560Y020232D01*
X034713Y020028D01*
X034861Y019821D01*
X035004Y019610D01*
X035142Y019396D01*
X035274Y019178D01*
X035401Y018958D01*
X035523Y018734D01*
X035639Y018507D01*
X035750Y018278D01*
X035855Y018046D01*
X035955Y017812D01*
X036049Y017575D01*
X036137Y017336D01*
X036220Y017095D01*
X036296Y016852D01*
X036367Y016608D01*
X036432Y016361D01*
X036490Y016113D01*
X036543Y015864D01*
X036590Y015614D01*
X036630Y015362D01*
X036665Y015110D01*
D11*
X032727Y015900D02*
X032727Y016050D01*
X032727Y015975D02*
X032276Y015975D01*
X032276Y015900D02*
X032276Y016050D01*
X032351Y016207D02*
X032652Y016207D01*
X032727Y016282D01*
X032727Y016432D01*
X032652Y016507D01*
X032727Y016667D02*
X032426Y016967D01*
X032351Y016967D01*
X032276Y016892D01*
X032276Y016742D01*
X032351Y016667D01*
X032351Y016507D02*
X032276Y016432D01*
X032276Y016282D01*
X032351Y016207D01*
X032727Y016667D02*
X032727Y016967D01*
X028992Y022059D02*
X029067Y022134D01*
X029067Y022209D01*
X028992Y022284D01*
X028616Y022284D01*
X028616Y022209D02*
X028616Y022359D01*
X028616Y022519D02*
X028616Y022745D01*
X028691Y022820D01*
X028841Y022820D01*
X028916Y022745D01*
X028916Y022519D01*
X029067Y022519D02*
X028616Y022519D01*
X028691Y022980D02*
X028616Y023055D01*
X028616Y023205D01*
X028691Y023280D01*
X028766Y023280D01*
X028841Y023205D01*
X028916Y023280D01*
X028992Y023280D01*
X029067Y023205D01*
X029067Y023055D01*
X028992Y022980D01*
X028841Y023130D02*
X028841Y023205D01*
X013437Y022735D02*
X012986Y022735D01*
X013211Y022510D01*
X013211Y022810D01*
X013211Y022350D02*
X013061Y022350D01*
X012986Y022275D01*
X012986Y022049D01*
X013437Y022049D01*
X013286Y022049D02*
X013286Y022275D01*
X013211Y022350D01*
X012986Y021889D02*
X012986Y021739D01*
X012986Y021814D02*
X013362Y021814D01*
X013437Y021739D01*
X013437Y021664D01*
X013362Y021589D01*
X009691Y017972D02*
X009476Y018188D01*
X009332Y018188D01*
X009044Y017900D01*
X009044Y017757D01*
X009260Y017541D01*
X009691Y017972D01*
X009833Y017830D02*
X009402Y017399D01*
X009689Y017111D02*
X009833Y017830D01*
X010121Y017543D02*
X009689Y017111D01*
X009903Y017041D02*
X009903Y016897D01*
X010047Y016753D01*
X010191Y016753D01*
X010479Y017041D01*
X010479Y017185D01*
X010335Y017329D01*
X010191Y017329D01*
X010047Y017185D01*
X010191Y017041D01*
X011987Y011402D02*
X012288Y011402D01*
X012062Y011402D02*
X012062Y011102D01*
X011987Y011102D02*
X011837Y011252D01*
X011987Y011402D01*
X011987Y011102D02*
X012288Y011102D01*
X012288Y010945D02*
X012288Y010795D01*
X012288Y010870D02*
X011837Y010870D01*
X011837Y010795D02*
X011837Y010945D01*
X011837Y010635D02*
X012138Y010335D01*
X012062Y010410D02*
X012288Y010635D01*
X012288Y010335D02*
X011837Y010335D01*
X011912Y010175D02*
X011837Y010100D01*
X011837Y009950D01*
X011912Y009875D01*
X012213Y009875D01*
X012288Y009950D01*
X012288Y010100D01*
X012213Y010175D01*
X011912Y010175D01*
X011837Y009714D02*
X012288Y009714D01*
X011837Y009414D01*
X012288Y009414D01*
X012363Y009254D02*
X012363Y008954D01*
X012213Y008794D02*
X012288Y008719D01*
X012288Y008493D01*
X011837Y008493D01*
X011837Y008719D01*
X011912Y008794D01*
X012213Y008794D01*
X012213Y008333D02*
X012288Y008258D01*
X012288Y008108D01*
X012213Y008033D01*
X011912Y008033D01*
X011837Y008108D01*
X011837Y008258D01*
X011912Y008333D01*
X012288Y007873D02*
X012288Y007573D01*
X011837Y007573D01*
X015475Y005944D02*
X015475Y005537D01*
X015475Y005741D02*
X016085Y005741D01*
X016589Y005841D02*
X016996Y005841D01*
X017199Y006044D01*
X016996Y006248D01*
X016589Y006248D01*
X016690Y005640D02*
X016589Y005539D01*
X016589Y005335D01*
X016690Y005233D01*
X016894Y005437D02*
X016894Y005539D01*
X016996Y005640D01*
X017097Y005640D01*
X017199Y005539D01*
X017199Y005335D01*
X017097Y005233D01*
X017097Y005031D02*
X017199Y005031D01*
X017199Y004929D01*
X017097Y004929D01*
X017097Y005031D01*
X017097Y004729D02*
X016996Y004729D01*
X016894Y004627D01*
X016894Y004525D01*
X016894Y004627D02*
X016792Y004729D01*
X016690Y004729D01*
X016589Y004627D01*
X016589Y004423D01*
X016690Y004322D01*
X017097Y004322D02*
X017199Y004423D01*
X017199Y004627D01*
X017097Y004729D01*
X017561Y004729D02*
X017968Y004729D01*
X018172Y004525D01*
X017968Y004322D01*
X017561Y004322D01*
X018593Y004227D02*
X018695Y004125D01*
X019102Y004125D01*
X019203Y004227D01*
X019203Y004430D01*
X019102Y004532D01*
X018898Y004532D01*
X018898Y004328D01*
X018695Y004532D02*
X018593Y004430D01*
X018593Y004227D01*
X018593Y004733D02*
X019203Y005140D01*
X018593Y005140D01*
X018593Y005340D02*
X018593Y005646D01*
X018695Y005747D01*
X019102Y005747D01*
X019203Y005646D01*
X019203Y005340D01*
X018593Y005340D01*
X018172Y005335D02*
X017561Y005335D01*
X018172Y005742D01*
X017561Y005742D01*
X016894Y005539D02*
X016792Y005640D01*
X016690Y005640D01*
X016085Y005235D02*
X016085Y005031D01*
X015984Y004929D01*
X016085Y004729D02*
X015882Y004525D01*
X015882Y004627D02*
X015882Y004322D01*
X016085Y004322D02*
X015475Y004322D01*
X015475Y004627D01*
X015577Y004729D01*
X015780Y004729D01*
X015882Y004627D01*
X015678Y004929D02*
X015780Y005031D01*
X015780Y005235D01*
X015882Y005336D01*
X015984Y005336D01*
X016085Y005235D01*
X015678Y004929D02*
X015577Y004929D01*
X015475Y005031D01*
X015475Y005235D01*
X015577Y005336D01*
X017561Y005133D02*
X017561Y004929D01*
X017561Y005031D02*
X018172Y005031D01*
X018172Y004929D02*
X018172Y005133D01*
X018593Y004733D02*
X019203Y004733D01*
X019583Y004733D02*
X020193Y005140D01*
X019583Y005140D01*
X019583Y005340D02*
X019583Y005646D01*
X019685Y005747D01*
X020092Y005747D01*
X020193Y005646D01*
X020193Y005340D01*
X019583Y005340D01*
X019583Y004733D02*
X020193Y004733D01*
X020092Y004532D02*
X019888Y004532D01*
X019888Y004328D01*
X019685Y004125D02*
X020092Y004125D01*
X020193Y004227D01*
X020193Y004430D01*
X020092Y004532D01*
X019685Y004532D02*
X019583Y004430D01*
X019583Y004227D01*
X019685Y004125D01*
X020711Y004125D02*
X021118Y004125D01*
X021322Y004328D01*
X021118Y004532D01*
X020711Y004532D01*
X020711Y004733D02*
X020711Y004936D01*
X020711Y004834D02*
X021322Y004834D01*
X021322Y004733D02*
X021322Y004936D01*
X021322Y005138D02*
X020711Y005138D01*
X021322Y005545D01*
X020711Y005545D01*
X020343Y006042D02*
X020418Y006117D01*
X020418Y006192D01*
X020343Y006267D01*
X019968Y006267D01*
X019968Y006192D02*
X019968Y006342D01*
X019968Y006502D02*
X019968Y006727D01*
X020043Y006802D01*
X020193Y006802D01*
X020268Y006727D01*
X020268Y006502D01*
X020418Y006502D02*
X019968Y006502D01*
X020043Y006963D02*
X019968Y007038D01*
X019968Y007188D01*
X020043Y007263D01*
X020118Y007263D01*
X020418Y006963D01*
X020418Y007263D01*
X018000Y002412D02*
X017700Y002412D01*
X017700Y002187D01*
X017850Y002262D01*
X017925Y002262D01*
X018000Y002187D01*
X018000Y002037D01*
X017925Y001962D01*
X017775Y001962D01*
X017700Y002037D01*
X017540Y002187D02*
X017465Y002112D01*
X017239Y002112D01*
X017239Y001962D02*
X017239Y002412D01*
X017465Y002412D01*
X017540Y002337D01*
X017540Y002187D01*
X017079Y002412D02*
X016929Y002412D01*
X017004Y002412D02*
X017004Y002037D01*
X016929Y001962D01*
X016854Y001962D01*
X016779Y002037D01*
D12*
X020909Y002045D02*
X020909Y002352D01*
X021063Y002506D01*
X021216Y002352D01*
X021216Y002045D01*
X021370Y002045D02*
X021370Y002352D01*
X021600Y002352D01*
X021676Y002275D01*
X021676Y002045D01*
X021830Y002122D02*
X021907Y002199D01*
X022137Y002199D01*
X022137Y002275D02*
X022137Y002045D01*
X021907Y002045D01*
X021830Y002122D01*
X021907Y002352D02*
X022060Y002352D01*
X022137Y002275D01*
X022290Y002045D02*
X022444Y002045D01*
X022367Y002045D02*
X022367Y002506D01*
X022290Y002506D01*
X022597Y002275D02*
X022597Y002122D01*
X022674Y002045D01*
X022827Y002045D01*
X022904Y002122D01*
X022904Y002275D01*
X022827Y002352D01*
X022674Y002352D01*
X022597Y002275D01*
X023058Y002275D02*
X023134Y002352D01*
X023365Y002352D01*
X023365Y001968D01*
X023288Y001892D01*
X023211Y001892D01*
X023134Y002045D02*
X023365Y002045D01*
X023134Y002045D02*
X023058Y002122D01*
X023058Y002275D01*
X023978Y002275D02*
X024132Y002352D01*
X024209Y002352D01*
X024285Y002275D01*
X024285Y002122D01*
X024209Y002045D01*
X024055Y002045D01*
X023978Y002122D01*
X023978Y002275D02*
X023978Y002506D01*
X024285Y002506D01*
X024899Y002352D02*
X025053Y002352D01*
X024976Y002429D02*
X024976Y002122D01*
X025053Y002045D01*
X025206Y002122D02*
X025283Y002045D01*
X025436Y002045D01*
X025513Y002122D01*
X025513Y002275D01*
X025436Y002352D01*
X025283Y002352D01*
X025206Y002275D01*
X025206Y002122D01*
X026127Y002122D02*
X026204Y002045D01*
X026357Y002045D01*
X026434Y002122D01*
X026434Y002429D01*
X026127Y002122D01*
X026127Y002429D01*
X026204Y002506D01*
X026357Y002506D01*
X026434Y002429D01*
X026674Y004451D02*
X026521Y004604D01*
X026674Y004757D01*
X026981Y004757D01*
X026751Y004757D02*
X026751Y004451D01*
X026674Y004451D02*
X026981Y004451D01*
X027646Y004604D02*
X027800Y004757D01*
X028107Y004757D01*
X028030Y004911D02*
X028107Y004988D01*
X028107Y005141D01*
X028030Y005218D01*
X027876Y005218D01*
X027800Y005141D01*
X027800Y005064D01*
X027876Y004911D01*
X027646Y004911D01*
X027646Y005218D01*
X026981Y005141D02*
X026521Y005141D01*
X026751Y004911D01*
X026751Y005218D01*
X026063Y005141D02*
X026063Y004988D01*
X025986Y004911D01*
X026063Y004757D02*
X025756Y004757D01*
X025602Y004604D01*
X025756Y004451D01*
X026063Y004451D01*
X025832Y004451D02*
X025832Y004757D01*
X025679Y004911D02*
X025602Y004988D01*
X025602Y005141D01*
X025679Y005218D01*
X025756Y005218D01*
X025832Y005141D01*
X025909Y005218D01*
X025986Y005218D01*
X026063Y005141D01*
X025832Y005141D02*
X025832Y005064D01*
X025044Y004911D02*
X024737Y005218D01*
X024661Y005218D01*
X024584Y005141D01*
X024584Y004988D01*
X024661Y004911D01*
X024737Y004757D02*
X025044Y004757D01*
X025044Y004911D02*
X025044Y005218D01*
X024814Y004757D02*
X024814Y004451D01*
X024737Y004451D02*
X024584Y004604D01*
X024737Y004757D01*
X024737Y004451D02*
X025044Y004451D01*
X024096Y004451D02*
X023789Y004451D01*
X023635Y004604D01*
X023789Y004757D01*
X024096Y004757D01*
X024096Y004911D02*
X024096Y005218D01*
X024096Y005064D02*
X023635Y005064D01*
X023789Y004911D01*
X023865Y004757D02*
X023865Y004451D01*
X022950Y004451D02*
X022643Y004451D01*
X022490Y004604D01*
X022643Y004757D01*
X022950Y004757D01*
X022874Y004911D02*
X022567Y004911D01*
X022490Y004988D01*
X022490Y005141D01*
X022567Y005218D01*
X022874Y004911D01*
X022950Y004988D01*
X022950Y005141D01*
X022874Y005218D01*
X022567Y005218D01*
X022720Y004757D02*
X022720Y004451D01*
X021216Y002275D02*
X020909Y002275D01*
X027646Y004604D02*
X027800Y004451D01*
X028107Y004451D01*
X027876Y004451D02*
X027876Y004757D01*
X010074Y009584D02*
X009828Y009829D01*
X009951Y009706D02*
X009583Y009338D01*
X009402Y009642D02*
X009280Y009642D01*
X009157Y009764D01*
X009157Y009887D01*
X008976Y009945D02*
X008976Y010190D01*
X009038Y010129D02*
X008854Y010313D01*
X008731Y010190D02*
X009099Y010558D01*
X009283Y010374D01*
X009283Y010252D01*
X009160Y010129D01*
X009038Y010129D01*
X009341Y010071D02*
X009341Y009948D01*
X009464Y009826D01*
X009464Y009703D01*
X009402Y009642D01*
X009648Y009887D02*
X009648Y010010D01*
X009525Y010132D01*
X009402Y010132D01*
X009341Y010071D01*
X009706Y010443D02*
X009460Y010688D01*
X009828Y011056D01*
X010074Y010811D01*
X009767Y010749D02*
X009644Y010872D01*
X009402Y010868D02*
X009280Y010868D01*
X009157Y010991D01*
X009157Y011114D01*
X009402Y011359D01*
X009525Y011359D01*
X009648Y011236D01*
X009648Y011114D01*
X009644Y011544D02*
X009767Y011544D01*
X009644Y011544D02*
X009522Y011667D01*
X009522Y011789D01*
X009767Y012035D01*
X009890Y012035D01*
X010012Y011912D01*
X010012Y011789D01*
X009648Y012154D02*
X009402Y011908D01*
X009280Y011908D01*
X009096Y012092D01*
X009464Y012460D01*
X009648Y012276D01*
X009648Y012154D01*
X009706Y012383D02*
X010074Y012751D01*
X009828Y012996D02*
X009706Y012383D01*
X009460Y012628D02*
X009828Y012996D01*
X009708Y013116D02*
X009585Y013239D01*
X009646Y013178D02*
X009278Y012810D01*
X009217Y012871D02*
X009340Y012748D01*
X009159Y013052D02*
X009405Y013297D01*
X009405Y013420D01*
X009221Y013604D01*
X008853Y013236D01*
X009037Y013052D01*
X009159Y013052D01*
X009706Y013413D02*
X009706Y013781D01*
X009583Y013781D02*
X010074Y013781D01*
X009828Y014026D02*
X009460Y013658D01*
X009341Y013777D02*
X009096Y014022D01*
X009464Y014390D01*
X009283Y014448D02*
X009283Y014571D01*
X009160Y014694D01*
X009038Y014694D01*
X008792Y014448D01*
X008792Y014326D01*
X008915Y014203D01*
X009038Y014203D01*
X009551Y014617D02*
X009796Y014862D01*
X010042Y014862D01*
X010042Y014617D01*
X009796Y014371D01*
X009432Y014736D02*
X009309Y014858D01*
X009370Y014797D02*
X009738Y015165D01*
X009800Y015104D02*
X009677Y015226D01*
X009557Y015347D02*
X009189Y014979D01*
X009311Y015592D01*
X008943Y015224D01*
X008824Y015343D02*
X009069Y015589D01*
X009069Y015834D01*
X008824Y015834D01*
X008579Y015589D01*
X009370Y015984D02*
X009738Y016352D01*
X009800Y016291D02*
X009677Y016413D01*
X009495Y016472D02*
X009495Y016595D01*
X009373Y016718D01*
X009250Y016718D01*
X009127Y016595D01*
X009250Y016472D01*
X009250Y016227D02*
X009495Y016472D01*
X009250Y016227D02*
X009127Y016227D01*
X009005Y016350D01*
X009005Y016472D01*
X008824Y016530D02*
X009192Y016898D01*
X009008Y016714D02*
X008763Y016960D01*
X008579Y016776D02*
X008947Y017144D01*
X008705Y017386D02*
X008337Y017018D01*
X008459Y016895D02*
X008214Y017140D01*
X009309Y016045D02*
X009432Y015923D01*
X009796Y015558D02*
X010164Y015926D01*
X009919Y016171D01*
X014065Y020467D02*
X014065Y020698D01*
X014142Y020774D01*
X014449Y020774D01*
X014525Y020698D01*
X014525Y020467D01*
X014065Y020467D01*
X014218Y020928D02*
X014065Y021081D01*
X014525Y021081D01*
X014525Y020928D02*
X014525Y021235D01*
X014449Y021388D02*
X014525Y021465D01*
X014525Y021618D01*
X014449Y021695D01*
X014372Y021695D01*
X014295Y021618D01*
X014295Y021542D01*
X014295Y021618D02*
X014218Y021695D01*
X014142Y021695D01*
X014065Y021618D01*
X014065Y021465D01*
X014142Y021388D01*
X014948Y021465D02*
X015025Y021388D01*
X014948Y021465D02*
X014948Y021618D01*
X015025Y021695D01*
X015101Y021695D01*
X015408Y021388D01*
X015408Y021695D01*
X015938Y021542D02*
X016398Y021542D01*
X016398Y021695D02*
X016398Y021388D01*
X016398Y021235D02*
X016398Y020928D01*
X016398Y021081D02*
X015938Y021081D01*
X016091Y020928D01*
X016015Y020774D02*
X015938Y020698D01*
X015938Y020467D01*
X016398Y020467D01*
X016398Y020698D01*
X016322Y020774D01*
X016015Y020774D01*
X015408Y020698D02*
X015408Y020467D01*
X014948Y020467D01*
X014948Y020698D01*
X015025Y020774D01*
X015332Y020774D01*
X015408Y020698D01*
X015408Y020928D02*
X015408Y021235D01*
X015408Y021081D02*
X014948Y021081D01*
X015101Y020928D01*
X015938Y021542D02*
X016091Y021388D01*
X017008Y021465D02*
X017008Y021618D01*
X017085Y021695D01*
X017392Y021388D01*
X017468Y021465D01*
X017468Y021618D01*
X017392Y021695D01*
X017085Y021695D01*
X017008Y021465D02*
X017085Y021388D01*
X017392Y021388D01*
X017468Y021235D02*
X017468Y020928D01*
X017468Y021081D02*
X017008Y021081D01*
X017161Y020928D01*
X017085Y020774D02*
X017008Y020698D01*
X017008Y020467D01*
X017468Y020467D01*
X017468Y020698D01*
X017392Y020774D01*
X017085Y020774D01*
X017938Y020698D02*
X017938Y020467D01*
X018398Y020467D01*
X018398Y020698D01*
X018322Y020774D01*
X018015Y020774D01*
X017938Y020698D01*
X018015Y020928D02*
X018091Y020928D01*
X018168Y021004D01*
X018168Y021235D01*
X018015Y021235D02*
X017938Y021158D01*
X017938Y021004D01*
X018015Y020928D01*
X018015Y021235D02*
X018322Y021235D01*
X018398Y021158D01*
X018398Y021004D01*
X018322Y020928D01*
X018878Y021004D02*
X018878Y021158D01*
X018955Y021235D01*
X019031Y021235D01*
X019108Y021158D01*
X019108Y021004D01*
X019031Y020928D01*
X018955Y020928D01*
X018878Y021004D01*
X019108Y021004D02*
X019185Y020928D01*
X019262Y020928D01*
X019338Y021004D01*
X019338Y021158D01*
X019262Y021235D01*
X019185Y021235D01*
X019108Y021158D01*
X018955Y020774D02*
X018878Y020698D01*
X018878Y020467D01*
X019338Y020467D01*
X019338Y020698D01*
X019262Y020774D01*
X018955Y020774D01*
X020671Y020720D02*
X020671Y020490D01*
X021132Y020490D01*
X021132Y020720D01*
X021055Y020797D01*
X020748Y020797D01*
X020671Y020720D01*
X020671Y020950D02*
X020671Y021257D01*
X020748Y021257D01*
X021055Y020950D01*
X021132Y020950D01*
X021671Y020720D02*
X021671Y020490D01*
X022132Y020490D01*
X022132Y020720D01*
X022055Y020797D01*
X021748Y020797D01*
X021671Y020720D01*
X021901Y020950D02*
X021901Y021181D01*
X021978Y021257D01*
X022055Y021257D01*
X022132Y021181D01*
X022132Y021027D01*
X022055Y020950D01*
X021901Y020950D01*
X021748Y021104D01*
X021671Y021257D01*
X022691Y021257D02*
X022691Y020950D01*
X022921Y020950D01*
X022845Y021104D01*
X022845Y021181D01*
X022921Y021257D01*
X023075Y021257D01*
X023152Y021181D01*
X023152Y021027D01*
X023075Y020950D01*
X023075Y020797D02*
X022768Y020797D01*
X022691Y020720D01*
X022691Y020490D01*
X023152Y020490D01*
X023152Y020720D01*
X023075Y020797D01*
X023721Y020793D02*
X023721Y020563D01*
X024182Y020563D01*
X024182Y020793D01*
X024105Y020870D01*
X023798Y020870D01*
X023721Y020793D01*
X023951Y021023D02*
X023951Y021330D01*
X023721Y021254D02*
X024182Y021254D01*
X023951Y021023D02*
X023721Y021254D01*
X024661Y021181D02*
X024661Y021027D01*
X024738Y020950D01*
X024738Y020797D02*
X024661Y020720D01*
X024661Y020490D01*
X025122Y020490D01*
X025122Y020720D01*
X025045Y020797D01*
X024738Y020797D01*
X024891Y021104D02*
X024891Y021181D01*
X024968Y021257D01*
X025045Y021257D01*
X025122Y021181D01*
X025122Y021027D01*
X025045Y020950D01*
X024891Y021181D02*
X024815Y021257D01*
X024738Y021257D01*
X024661Y021181D01*
X025731Y021057D02*
X025731Y020903D01*
X025808Y020827D01*
X025808Y020673D02*
X025731Y020596D01*
X025731Y020366D01*
X026192Y020366D01*
X026192Y020596D01*
X026115Y020673D01*
X025808Y020673D01*
X025731Y021057D02*
X025808Y021134D01*
X025885Y021134D01*
X026192Y020827D01*
X026192Y021134D01*
X026661Y021104D02*
X027122Y021104D01*
X027122Y021257D02*
X027122Y020950D01*
X027045Y020797D02*
X026738Y020797D01*
X026661Y020720D01*
X026661Y020490D01*
X027122Y020490D01*
X027122Y020720D01*
X027045Y020797D01*
X026815Y020950D02*
X026661Y021104D01*
X027751Y021027D02*
X027751Y021181D01*
X027828Y021257D01*
X028135Y020950D01*
X028212Y021027D01*
X028212Y021181D01*
X028135Y021257D01*
X027828Y021257D01*
X027751Y021027D02*
X027828Y020950D01*
X028135Y020950D01*
X028135Y020797D02*
X027828Y020797D01*
X027751Y020720D01*
X027751Y020490D01*
X028212Y020490D01*
X028212Y020720D01*
X028135Y020797D01*
X026115Y019599D02*
X025808Y019599D01*
X025961Y019752D02*
X025961Y019445D01*
X025808Y019292D02*
X025731Y019215D01*
X025731Y018985D01*
X026192Y018985D01*
X026192Y019215D01*
X026115Y019292D01*
X025808Y019292D01*
X025808Y018371D02*
X025885Y018371D01*
X025961Y018294D01*
X025961Y018064D01*
X026038Y017911D02*
X025961Y017834D01*
X025961Y017681D01*
X025885Y017604D01*
X025808Y017604D01*
X025731Y017681D01*
X025731Y017834D01*
X025808Y017911D01*
X025731Y018064D02*
X025731Y018294D01*
X025808Y018371D01*
X025961Y018294D02*
X026038Y018371D01*
X026115Y018371D01*
X026192Y018294D01*
X026192Y018064D01*
X025731Y018064D01*
X026038Y017911D02*
X026115Y017911D01*
X026192Y017834D01*
X026192Y017681D01*
X026115Y017604D01*
X026115Y017450D02*
X025731Y017450D01*
X025731Y017143D02*
X026115Y017143D01*
X026192Y017220D01*
X026192Y017374D01*
X026115Y017450D01*
X024182Y017417D02*
X024182Y017571D01*
X024105Y017647D01*
X023721Y017647D01*
X023798Y017801D02*
X023875Y017801D01*
X023951Y017877D01*
X023951Y018031D01*
X024028Y018108D01*
X024105Y018108D01*
X024182Y018031D01*
X024182Y017877D01*
X024105Y017801D01*
X023798Y017801D02*
X023721Y017877D01*
X023721Y018031D01*
X023798Y018108D01*
X023721Y018261D02*
X023721Y018491D01*
X023798Y018568D01*
X023875Y018568D01*
X023951Y018491D01*
X023951Y018261D01*
X023721Y018261D02*
X024182Y018261D01*
X024182Y018491D01*
X024105Y018568D01*
X024028Y018568D01*
X023951Y018491D01*
X023721Y019182D02*
X023721Y019412D01*
X023798Y019489D01*
X024105Y019489D01*
X024182Y019412D01*
X024182Y019182D01*
X023721Y019182D01*
X023951Y019642D02*
X023951Y019949D01*
X024182Y017417D02*
X024105Y017340D01*
X023721Y017340D01*
X023687Y023201D02*
X023611Y023277D01*
X023917Y023584D01*
X023917Y023277D01*
X023841Y023201D01*
X023687Y023201D01*
X023611Y023277D02*
X023611Y023584D01*
X023687Y023661D01*
X023841Y023661D01*
X023917Y023584D01*
X024531Y023431D02*
X024838Y023431D01*
X025452Y023277D02*
X025452Y023201D01*
X025452Y023277D02*
X025759Y023584D01*
X025759Y023661D01*
X025452Y023661D01*
X022997Y023201D02*
X022843Y023201D01*
X022920Y023201D02*
X022920Y023661D01*
X022843Y023661D01*
X022613Y023508D02*
X022690Y023431D01*
X022690Y023201D01*
X022460Y023201D01*
X022383Y023277D01*
X022460Y023354D01*
X022690Y023354D01*
X022613Y023508D02*
X022460Y023508D01*
X022229Y023508D02*
X022076Y023508D01*
X022153Y023584D02*
X022153Y023277D01*
X022229Y023201D01*
X021922Y023201D02*
X021769Y023201D01*
X021846Y023201D02*
X021846Y023508D01*
X021769Y023508D01*
X021616Y023508D02*
X021385Y023508D01*
X021309Y023431D01*
X021309Y023277D01*
X021385Y023201D01*
X021616Y023201D01*
X021616Y023124D02*
X021616Y023508D01*
X021846Y023661D02*
X021846Y023738D01*
X021078Y023738D02*
X021078Y023661D01*
X021078Y023508D02*
X021078Y023201D01*
X021002Y023201D02*
X021155Y023201D01*
X020848Y023277D02*
X020848Y023584D01*
X020771Y023661D01*
X020541Y023661D01*
X020541Y023201D01*
X020771Y023201D01*
X020848Y023277D01*
X021002Y023508D02*
X021078Y023508D01*
X021462Y023047D02*
X021539Y023047D01*
X021616Y023124D01*
X019718Y023201D02*
X019641Y023124D01*
X019488Y023124D01*
X019411Y023201D01*
X019258Y023124D02*
X018951Y023124D01*
X019104Y023124D02*
X019104Y023584D01*
X018951Y023431D01*
X019411Y023508D02*
X019488Y023584D01*
X019641Y023584D01*
X019718Y023508D01*
X019718Y023431D01*
X019641Y023354D01*
X019718Y023277D01*
X019718Y023201D01*
X019641Y023354D02*
X019565Y023354D01*
X018337Y023354D02*
X018030Y023354D01*
X017416Y023277D02*
X017416Y023201D01*
X017339Y023124D01*
X017186Y023124D01*
X017109Y023201D01*
X017109Y023277D01*
X017186Y023354D01*
X017339Y023354D01*
X017416Y023277D01*
X017339Y023354D02*
X017416Y023431D01*
X017416Y023508D01*
X017339Y023584D01*
X017186Y023584D01*
X017109Y023508D01*
X017109Y023431D01*
X017186Y023354D01*
X016495Y023124D02*
X016342Y023124D01*
X016419Y023124D02*
X016419Y023584D01*
X016342Y023584D01*
X016112Y023431D02*
X016188Y023354D01*
X016188Y023124D01*
X015958Y023124D01*
X015881Y023201D01*
X015958Y023277D01*
X016188Y023277D01*
X016112Y023431D02*
X015958Y023431D01*
X015728Y023431D02*
X015575Y023431D01*
X015651Y023508D02*
X015651Y023201D01*
X015728Y023124D01*
X015421Y023124D02*
X015268Y023124D01*
X015344Y023124D02*
X015344Y023431D01*
X015268Y023431D01*
X015114Y023431D02*
X014884Y023431D01*
X014807Y023354D01*
X014807Y023201D01*
X014884Y023124D01*
X015114Y023124D01*
X015114Y023047D02*
X015114Y023431D01*
X015344Y023584D02*
X015344Y023661D01*
X015114Y023047D02*
X015037Y022970D01*
X014961Y022970D01*
X014654Y023124D02*
X014500Y023124D01*
X014577Y023124D02*
X014577Y023431D01*
X014500Y023431D01*
X014347Y023508D02*
X014347Y023201D01*
X014270Y023124D01*
X014040Y023124D01*
X014040Y023584D01*
X014270Y023584D01*
X014347Y023508D01*
X014577Y023584D02*
X014577Y023661D01*
D13*
X018409Y019469D02*
X019176Y019469D01*
X019330Y019315D01*
X019330Y019162D01*
X019023Y019008D02*
X019023Y019469D01*
X019023Y019008D02*
X018869Y018855D01*
X018409Y018855D01*
X018409Y018548D02*
X018409Y018241D01*
X018255Y018395D02*
X018869Y018395D01*
X019023Y018548D01*
X019023Y017934D02*
X019023Y017627D01*
X019023Y017781D02*
X018409Y017781D01*
X018409Y017627D01*
X018409Y017320D02*
X018409Y017167D01*
X018716Y016860D01*
X019023Y016860D02*
X018409Y016860D01*
X018409Y016553D02*
X019023Y016553D01*
X019023Y016093D01*
X018869Y015939D01*
X018409Y015939D01*
X018409Y015632D02*
X018409Y015172D01*
X018562Y015018D01*
X018869Y015018D01*
X019023Y015172D01*
X019023Y015632D01*
X018716Y014711D02*
X018716Y014098D01*
X018869Y014098D02*
X018562Y014098D01*
X018409Y014251D01*
X018409Y014558D01*
X018562Y014711D01*
X018716Y014711D01*
X019023Y014558D02*
X019023Y014251D01*
X018869Y014098D01*
X018869Y013791D02*
X018716Y013791D01*
X018562Y013637D01*
X018562Y013330D01*
X018409Y013177D01*
X018255Y013177D01*
X018102Y013330D01*
X018102Y013637D01*
X018255Y013791D01*
X018869Y013791D02*
X019023Y013637D01*
X019023Y013330D01*
X018869Y013177D01*
X018102Y017781D02*
X017948Y017781D01*
X026165Y016454D02*
X026165Y015942D01*
X027641Y015942D02*
X027641Y016454D01*
X035059Y014372D02*
X035059Y011222D01*
X036240Y010435D02*
X036633Y010435D01*
X036633Y015159D01*
X036240Y015159D01*
X014770Y006436D02*
X014589Y006436D01*
X014681Y006314D01*
X014589Y006436D02*
X014408Y006436D01*
X014503Y006314D02*
X014579Y006430D01*
X011646Y004871D02*
X011646Y003894D01*
X011252Y003383D02*
X010039Y003383D01*
X009646Y003894D02*
X009646Y004883D01*
X010039Y005383D02*
X011252Y005383D01*
X010146Y004383D02*
X010148Y004427D01*
X010154Y004471D01*
X010164Y004514D01*
X010177Y004556D01*
X010194Y004597D01*
X010215Y004636D01*
X010239Y004673D01*
X010266Y004708D01*
X010296Y004740D01*
X010329Y004770D01*
X010365Y004796D01*
X010402Y004820D01*
X010442Y004839D01*
X010483Y004856D01*
X010526Y004868D01*
X010569Y004877D01*
X010613Y004882D01*
X010657Y004883D01*
X010701Y004880D01*
X010745Y004873D01*
X010788Y004862D01*
X010830Y004848D01*
X010870Y004830D01*
X010909Y004808D01*
X010945Y004784D01*
X010979Y004756D01*
X011011Y004725D01*
X011040Y004691D01*
X011066Y004655D01*
X011088Y004617D01*
X011107Y004577D01*
X011122Y004535D01*
X011134Y004493D01*
X011142Y004449D01*
X011146Y004405D01*
X011146Y004361D01*
X011142Y004317D01*
X011134Y004273D01*
X011122Y004231D01*
X011107Y004189D01*
X011088Y004149D01*
X011066Y004111D01*
X011040Y004075D01*
X011011Y004041D01*
X010979Y004010D01*
X010945Y003982D01*
X010909Y003958D01*
X010870Y003936D01*
X010830Y003918D01*
X010788Y003904D01*
X010745Y003893D01*
X010701Y003886D01*
X010657Y003883D01*
X010613Y003884D01*
X010569Y003889D01*
X010526Y003898D01*
X010483Y003910D01*
X010442Y003927D01*
X010402Y003946D01*
X010365Y003970D01*
X010329Y003996D01*
X010296Y004026D01*
X010266Y004058D01*
X010239Y004093D01*
X010215Y004130D01*
X010194Y004169D01*
X010177Y004210D01*
X010164Y004252D01*
X010154Y004295D01*
X010148Y004339D01*
X010146Y004383D01*
D14*
X019583Y013766D02*
X019583Y014312D01*
X019765Y014494D01*
X019947Y014494D01*
X020129Y014312D01*
X020129Y013766D01*
X020675Y013766D02*
X019583Y013766D01*
X020129Y014312D02*
X020311Y014494D01*
X020493Y014494D01*
X020675Y014312D01*
X020675Y013766D01*
X020493Y014853D02*
X020675Y015035D01*
X020675Y015399D01*
X020493Y015581D01*
X020311Y015581D01*
X020129Y015399D01*
X020129Y015035D01*
X019947Y014853D01*
X019765Y014853D01*
X019583Y015035D01*
X019583Y015399D01*
X019765Y015581D01*
X019947Y015941D02*
X019947Y016123D01*
X020675Y016123D01*
X020675Y015941D02*
X020675Y016305D01*
X020493Y016666D02*
X020129Y016666D01*
X019947Y016848D01*
X019947Y017394D01*
X019583Y017394D02*
X020675Y017394D01*
X020675Y016848D01*
X020493Y016666D01*
X019583Y016123D02*
X019401Y016123D01*
X020129Y017753D02*
X019947Y017935D01*
X019947Y018299D01*
X020129Y018481D01*
X020311Y018481D01*
X020311Y017753D01*
X020493Y017753D02*
X020129Y017753D01*
X020493Y017753D02*
X020675Y017935D01*
X020675Y018299D01*
X020675Y018841D02*
X020675Y019387D01*
X020493Y019569D01*
X020311Y019387D01*
X020311Y019023D01*
X020129Y018841D01*
X019947Y019023D01*
X019947Y019569D01*
D15*
X021507Y019536D02*
X021507Y019320D01*
X021615Y019212D01*
X021832Y019212D01*
X021940Y019320D01*
X021940Y019536D01*
X021832Y019645D01*
X021615Y019645D01*
X021507Y019536D01*
X021507Y018992D02*
X021507Y018667D01*
X021615Y018559D01*
X021832Y018559D01*
X021940Y018667D01*
X021940Y018992D01*
X021940Y018341D02*
X021940Y018124D01*
X021940Y018232D02*
X021507Y018232D01*
X021507Y018124D01*
X021291Y018232D02*
X021183Y018232D01*
X021399Y017904D02*
X021291Y017796D01*
X021291Y017472D01*
X021940Y017472D01*
X021724Y017472D02*
X021724Y017796D01*
X021615Y017904D01*
X021399Y017904D01*
X021724Y017688D02*
X021940Y017904D01*
X021832Y016599D02*
X021615Y016599D01*
X021507Y016491D01*
X021507Y016275D01*
X021615Y016167D01*
X021832Y016167D01*
X021940Y016275D01*
X021940Y016491D01*
X021832Y016599D01*
X021940Y015948D02*
X021832Y015840D01*
X021399Y015840D01*
X021507Y015732D02*
X021507Y015948D01*
X021507Y015512D02*
X021507Y015404D01*
X021724Y015188D01*
X021940Y015188D02*
X021507Y015188D01*
X021615Y014968D02*
X021724Y014968D01*
X021724Y014535D01*
X021832Y014535D02*
X021615Y014535D01*
X021507Y014643D01*
X021507Y014860D01*
X021615Y014968D01*
X021940Y014860D02*
X021940Y014643D01*
X021832Y014535D01*
X021940Y014316D02*
X021507Y014316D01*
X021940Y014316D02*
X021940Y013991D01*
X021832Y013883D01*
X021507Y013883D01*
X021399Y013663D02*
X021291Y013555D01*
X021291Y013230D01*
X021940Y013230D01*
X021724Y013230D02*
X021724Y013555D01*
X021615Y013663D01*
X021399Y013663D01*
X023022Y014532D02*
X025781Y014532D01*
X025781Y011912D01*
X025642Y011772D01*
X023022Y011772D01*
X023022Y014532D01*
X025341Y012072D02*
X025343Y012095D01*
X025349Y012118D01*
X025358Y012139D01*
X025371Y012159D01*
X025387Y012176D01*
X025405Y012190D01*
X025425Y012201D01*
X025447Y012209D01*
X025470Y012213D01*
X025494Y012213D01*
X025517Y012209D01*
X025539Y012201D01*
X025559Y012190D01*
X025577Y012176D01*
X025593Y012159D01*
X025606Y012139D01*
X025615Y012118D01*
X025621Y012095D01*
X025623Y012072D01*
X025621Y012049D01*
X025615Y012026D01*
X025606Y012005D01*
X025593Y011985D01*
X025577Y011968D01*
X025559Y011954D01*
X025539Y011943D01*
X025517Y011935D01*
X025494Y011931D01*
X025470Y011931D01*
X025447Y011935D01*
X025425Y011943D01*
X025405Y011954D01*
X025387Y011968D01*
X025371Y011985D01*
X025358Y012005D01*
X025349Y012026D01*
X025343Y012049D01*
X025341Y012072D01*
X029871Y014872D02*
X029871Y017332D01*
X031233Y017332D01*
X031233Y014872D01*
X029871Y014872D01*
X031265Y013920D02*
X031265Y013684D01*
X031738Y013684D02*
X031738Y013920D01*
X029438Y018184D02*
X029438Y018420D01*
X028965Y018420D02*
X028965Y018184D01*
X028202Y021854D02*
X027702Y021854D01*
X027452Y022104D01*
X027202Y021854D01*
X026702Y021854D01*
X026452Y022104D01*
X026452Y022604D01*
X026702Y022854D01*
X027202Y022854D01*
X027452Y022604D01*
X027702Y022854D01*
X028202Y022854D01*
X028452Y022604D01*
X028452Y022104D01*
X028202Y021854D01*
X027452Y022104D02*
X027452Y022604D01*
X026452Y022604D02*
X026202Y022854D01*
X025702Y022854D01*
X025452Y022604D01*
X025202Y022854D01*
X024702Y022854D01*
X024452Y022604D01*
X024202Y022854D01*
X023702Y022854D01*
X023452Y022604D01*
X023452Y022104D01*
X023702Y021854D01*
X024202Y021854D01*
X024452Y022104D01*
X024452Y022604D01*
X024452Y022104D02*
X024702Y021854D01*
X025202Y021854D01*
X025452Y022104D01*
X025452Y022604D01*
X025452Y022104D02*
X025702Y021854D01*
X026202Y021854D01*
X026452Y022104D01*
X023452Y022104D02*
X023202Y021854D01*
X022702Y021854D01*
X022452Y022104D01*
X022202Y021854D01*
X021702Y021854D01*
X021452Y022104D01*
X021202Y021854D01*
X020702Y021854D01*
X020452Y022104D01*
X020452Y022604D01*
X020702Y022854D01*
X021202Y022854D01*
X021452Y022604D01*
X021702Y022854D01*
X022202Y022854D01*
X022452Y022604D01*
X022702Y022854D01*
X023202Y022854D01*
X023452Y022604D01*
X022452Y022604D02*
X022452Y022104D01*
X021452Y022104D02*
X021452Y022604D01*
X019852Y022604D02*
X019852Y022104D01*
X019602Y021854D01*
X019102Y021854D01*
X018852Y022104D01*
X018602Y021854D01*
X018102Y021854D01*
X017852Y022104D01*
X017852Y022604D01*
X018102Y022854D01*
X018602Y022854D01*
X018852Y022604D01*
X019102Y022854D01*
X019602Y022854D01*
X019852Y022604D01*
X018852Y022604D02*
X018852Y022104D01*
X017852Y022104D02*
X017602Y021854D01*
X017102Y021854D01*
X016852Y022104D01*
X016602Y021854D01*
X016102Y021854D01*
X015852Y022104D01*
X015602Y021854D01*
X015102Y021854D01*
X014852Y022104D01*
X014602Y021854D01*
X014102Y021854D01*
X013852Y022104D01*
X013852Y022604D01*
X014102Y022854D01*
X014602Y022854D01*
X014852Y022604D01*
X015102Y022854D01*
X015602Y022854D01*
X015852Y022604D01*
X016102Y022854D01*
X016602Y022854D01*
X016852Y022604D01*
X017102Y022854D01*
X017602Y022854D01*
X017852Y022604D01*
X016852Y022604D02*
X016852Y022104D01*
X015852Y022104D02*
X015852Y022604D01*
X014852Y022604D02*
X014852Y022104D01*
X011314Y017152D02*
X010814Y017152D01*
X010564Y016902D01*
X010564Y016402D01*
X010814Y016152D01*
X011314Y016152D01*
X011564Y016402D01*
X011564Y016902D01*
X011314Y017152D01*
X011314Y016152D02*
X011564Y015902D01*
X011564Y015402D01*
X011314Y015152D01*
X011564Y014902D01*
X011564Y014402D01*
X011314Y014152D01*
X011564Y013902D01*
X011564Y013402D01*
X011314Y013152D01*
X011564Y012902D01*
X011564Y012402D01*
X011314Y012152D01*
X011564Y011902D01*
X011564Y011402D01*
X011314Y011152D01*
X011564Y010902D01*
X011564Y010402D01*
X011314Y010152D01*
X011564Y009902D01*
X011564Y009402D01*
X011314Y009152D01*
X010814Y009152D01*
X010564Y009402D01*
X010564Y009902D01*
X010814Y010152D01*
X010564Y010402D01*
X010564Y010902D01*
X010814Y011152D01*
X011314Y011152D01*
X010814Y011152D02*
X010564Y011402D01*
X010564Y011902D01*
X010814Y012152D01*
X010564Y012402D01*
X010564Y012902D01*
X010814Y013152D01*
X010564Y013402D01*
X010564Y013902D01*
X010814Y014152D01*
X011314Y014152D01*
X010814Y014152D02*
X010564Y014402D01*
X010564Y014902D01*
X010814Y015152D01*
X010564Y015402D01*
X010564Y015902D01*
X010814Y016152D01*
X010814Y015152D02*
X011314Y015152D01*
X011314Y013152D02*
X010814Y013152D01*
X010814Y012152D02*
X011314Y012152D01*
X011314Y010152D02*
X010814Y010152D01*
X020663Y006797D02*
X020663Y006297D01*
X020913Y006047D01*
X021413Y006047D01*
X021663Y006297D01*
X021663Y006797D01*
X021413Y007047D01*
X020913Y007047D01*
X020663Y006797D01*
X020702Y003854D02*
X021202Y003854D01*
X021452Y003604D01*
X021452Y003104D01*
X021202Y002854D01*
X020702Y002854D01*
X020452Y003104D01*
X020202Y002854D01*
X019702Y002854D01*
X019452Y003104D01*
X019452Y003604D01*
X019702Y003854D01*
X020202Y003854D01*
X020452Y003604D01*
X020702Y003854D01*
X020452Y003604D02*
X020452Y003104D01*
X019452Y003104D02*
X019202Y002854D01*
X018702Y002854D01*
X018452Y003104D01*
X018202Y002854D01*
X017702Y002854D01*
X017452Y003104D01*
X017202Y002854D01*
X016702Y002854D01*
X016452Y003104D01*
X016202Y002854D01*
X015702Y002854D01*
X015452Y003104D01*
X015452Y003604D01*
X015702Y003854D01*
X016202Y003854D01*
X016452Y003604D01*
X016702Y003854D01*
X017202Y003854D01*
X017452Y003604D01*
X017702Y003854D01*
X018202Y003854D01*
X018452Y003604D01*
X018702Y003854D01*
X019202Y003854D01*
X019452Y003604D01*
X018452Y003604D02*
X018452Y003104D01*
X017452Y003104D02*
X017452Y003604D01*
X016452Y003604D02*
X016452Y003104D01*
X022452Y003104D02*
X022702Y002854D01*
X023202Y002854D01*
X023452Y003104D01*
X023702Y002854D01*
X024202Y002854D01*
X024452Y003104D01*
X024452Y003604D01*
X024202Y003854D01*
X023702Y003854D01*
X023452Y003604D01*
X023452Y003104D01*
X023452Y003604D02*
X023202Y003854D01*
X022702Y003854D01*
X022452Y003604D01*
X022452Y003104D01*
X024452Y003104D02*
X024702Y002854D01*
X025202Y002854D01*
X025452Y003104D01*
X025702Y002854D01*
X026202Y002854D01*
X026452Y003104D01*
X026702Y002854D01*
X027202Y002854D01*
X027452Y003104D01*
X027702Y002854D01*
X028202Y002854D01*
X028452Y003104D01*
X028452Y003604D01*
X028202Y003854D01*
X027702Y003854D01*
X027452Y003604D01*
X027452Y003104D01*
X027452Y003604D02*
X027202Y003854D01*
X026702Y003854D01*
X026452Y003604D01*
X026452Y003104D01*
X026452Y003604D02*
X026202Y003854D01*
X025702Y003854D01*
X025452Y003604D01*
X025452Y003104D01*
X025452Y003604D02*
X025202Y003854D01*
X024702Y003854D01*
X024452Y003604D01*
D16*
X031320Y008909D02*
X031320Y009578D01*
X030395Y010405D02*
X030395Y011074D01*
X021360Y021704D02*
X021360Y021901D01*
X020572Y021901D02*
X020572Y021704D01*
X020572Y022885D02*
X020572Y023082D01*
X021360Y023082D02*
X021360Y022885D01*
X006418Y019738D02*
X005804Y019124D01*
X005804Y019431D02*
X005804Y018510D01*
X006418Y018510D02*
X004576Y018510D01*
X004576Y019431D01*
X004883Y019738D01*
X005497Y019738D01*
X005804Y019431D01*
X005497Y017896D02*
X004883Y017896D01*
X004576Y017590D01*
X004576Y016669D01*
X006418Y016669D01*
X005804Y016669D02*
X005804Y017590D01*
X005497Y017896D01*
X005190Y016055D02*
X005190Y015134D01*
X005497Y014827D01*
X005804Y015134D01*
X005804Y015748D01*
X006111Y016055D01*
X006418Y015748D01*
X006418Y014827D01*
X005804Y014213D02*
X005804Y012986D01*
X006111Y012986D02*
X005497Y012986D01*
X005190Y013293D01*
X005190Y013906D01*
X005497Y014213D01*
X005804Y014213D01*
X006418Y013906D02*
X006418Y013293D01*
X006111Y012986D01*
X006418Y012372D02*
X006418Y011451D01*
X006111Y011144D01*
X005497Y011144D01*
X005190Y011451D01*
X005190Y012372D01*
X004576Y012372D02*
X006418Y012372D01*
X006418Y010530D02*
X006418Y009916D01*
X006418Y010223D02*
X005190Y010223D01*
X005190Y009916D01*
X004883Y009302D02*
X004576Y008996D01*
X004576Y008382D01*
X004883Y008075D01*
X005190Y008075D01*
X005497Y008382D01*
X005497Y008996D01*
X005804Y009302D01*
X006111Y009302D01*
X006418Y008996D01*
X006418Y008382D01*
X006111Y008075D01*
X006111Y007461D02*
X005804Y007461D01*
X005497Y007154D01*
X005497Y006233D01*
X006418Y006233D02*
X004576Y006233D01*
X004576Y007154D01*
X004883Y007461D01*
X005190Y007461D01*
X005497Y007154D01*
X006111Y007461D02*
X006418Y007154D01*
X006418Y006233D01*
X004576Y010223D02*
X004269Y010223D01*
D17*
X019465Y003274D03*
D18*
X007113Y012920D03*
D19*
X003569Y012994D03*
D20*
X005267Y002585D03*
X005317Y022664D03*
D21*
X023122Y014174D02*
X023246Y014298D01*
X023369Y014174D01*
X023369Y013927D01*
X023490Y014051D02*
X023490Y014298D01*
X023369Y014113D02*
X023122Y014113D01*
X023122Y014174D02*
X023122Y013927D01*
X023490Y014051D02*
X023614Y013927D01*
X023737Y014051D01*
X023737Y014298D01*
X023859Y014298D02*
X023859Y013927D01*
X023859Y014051D02*
X024044Y014051D01*
X024106Y014113D01*
X024106Y014236D01*
X024044Y014298D01*
X023859Y014298D01*
X023982Y014051D02*
X024106Y013927D01*
X024227Y013989D02*
X024289Y013927D01*
X024412Y013927D01*
X024474Y013989D01*
X024474Y014051D01*
X024412Y014113D01*
X024350Y014113D01*
X024412Y014113D02*
X024474Y014174D01*
X024474Y014236D01*
X024412Y014298D01*
X024289Y014298D01*
X024227Y014236D01*
X024595Y014236D02*
X024657Y014298D01*
X024780Y014298D01*
X024842Y014236D01*
X024842Y014174D01*
X024595Y013927D01*
X024842Y013927D01*
X024964Y013989D02*
X024964Y014051D01*
X025025Y014113D01*
X025149Y014113D01*
X025211Y014051D01*
X025211Y013989D01*
X025149Y013927D01*
X025025Y013927D01*
X024964Y013989D01*
X025025Y014113D02*
X024964Y014174D01*
X024964Y014236D01*
X025025Y014298D01*
X025149Y014298D01*
X025211Y014236D01*
X025211Y014174D01*
X025149Y014113D01*
X025332Y014051D02*
X025517Y014051D01*
X025579Y014113D01*
X025579Y014236D01*
X025517Y014298D01*
X025332Y014298D01*
X025332Y013927D01*
X028730Y011688D02*
X028915Y011688D01*
X028977Y011626D01*
X028977Y011503D01*
X028915Y011441D01*
X028730Y011441D01*
X028853Y011441D02*
X028977Y011317D01*
X029098Y011379D02*
X029160Y011317D01*
X029283Y011317D01*
X029345Y011379D01*
X029345Y011441D01*
X029283Y011503D01*
X029098Y011503D01*
X029098Y011379D01*
X029098Y011503D02*
X029222Y011626D01*
X029345Y011688D01*
X028730Y011688D02*
X028730Y011317D01*
X028805Y010210D02*
X028620Y010210D01*
X028620Y009839D01*
X028805Y009839D01*
X028867Y009901D01*
X028867Y010148D01*
X028805Y010210D01*
X028988Y010148D02*
X029050Y010210D01*
X029173Y010210D01*
X029235Y010148D01*
X029235Y010086D01*
X029173Y010025D01*
X029235Y009963D01*
X029235Y009901D01*
X029173Y009839D01*
X029050Y009839D01*
X028988Y009901D01*
X029111Y010025D02*
X029173Y010025D01*
X029963Y010088D02*
X029963Y009717D01*
X030149Y009717D01*
X030210Y009779D01*
X030210Y010026D01*
X030149Y010088D01*
X029963Y010088D01*
X030332Y010088D02*
X030332Y009903D01*
X030455Y009964D01*
X030517Y009964D01*
X030579Y009903D01*
X030579Y009779D01*
X030517Y009717D01*
X030393Y009717D01*
X030332Y009779D01*
X030332Y010088D02*
X030579Y010088D01*
X031569Y010214D02*
X031569Y010399D01*
X031631Y010461D01*
X031755Y010461D01*
X031816Y010399D01*
X031816Y010214D01*
X031816Y010338D02*
X031940Y010461D01*
X031940Y010583D02*
X031878Y010583D01*
X031631Y010829D01*
X031569Y010829D01*
X031569Y010583D01*
X031569Y010214D02*
X031940Y010214D01*
X031637Y011781D02*
X031266Y011781D01*
X031266Y011966D01*
X031328Y012028D01*
X031451Y012028D01*
X031513Y011966D01*
X031513Y011781D01*
X031513Y011904D02*
X031637Y012028D01*
X031575Y012149D02*
X031513Y012149D01*
X031451Y012211D01*
X031451Y012334D01*
X031513Y012396D01*
X031575Y012396D01*
X031637Y012334D01*
X031637Y012211D01*
X031575Y012149D01*
X031451Y012211D02*
X031390Y012149D01*
X031328Y012149D01*
X031266Y012211D01*
X031266Y012334D01*
X031328Y012396D01*
X031390Y012396D01*
X031451Y012334D01*
X031878Y013431D02*
X032125Y013431D01*
X032187Y013492D01*
X032187Y013616D01*
X032125Y013678D01*
X032187Y013799D02*
X032187Y014046D01*
X032187Y013922D02*
X031816Y013922D01*
X031940Y013799D01*
X031878Y013678D02*
X031816Y013616D01*
X031816Y013492D01*
X031878Y013431D01*
X030987Y013492D02*
X030987Y013616D01*
X030925Y013678D01*
X030987Y013799D02*
X030740Y014046D01*
X030678Y014046D01*
X030616Y013984D01*
X030616Y013861D01*
X030678Y013799D01*
X030678Y013678D02*
X030616Y013616D01*
X030616Y013492D01*
X030678Y013431D01*
X030925Y013431D01*
X030987Y013492D01*
X030987Y013799D02*
X030987Y014046D01*
X030625Y017967D02*
X030687Y018029D01*
X030687Y018153D01*
X030625Y018214D01*
X030501Y018336D02*
X030501Y018583D01*
X030316Y018521D02*
X030501Y018336D01*
X030378Y018214D02*
X030316Y018153D01*
X030316Y018029D01*
X030378Y017967D01*
X030625Y017967D01*
X030687Y018521D02*
X030316Y018521D01*
X028887Y018521D02*
X028887Y018397D01*
X028825Y018336D01*
X028825Y018214D02*
X028887Y018153D01*
X028887Y018029D01*
X028825Y017967D01*
X028578Y017967D01*
X028516Y018029D01*
X028516Y018153D01*
X028578Y018214D01*
X028578Y018336D02*
X028516Y018397D01*
X028516Y018521D01*
X028578Y018583D01*
X028640Y018583D01*
X028701Y018521D01*
X028763Y018583D01*
X028825Y018583D01*
X028887Y018521D01*
X028701Y018521D02*
X028701Y018459D01*
X013977Y006612D02*
X013977Y006366D01*
X013977Y006244D02*
X013854Y006121D01*
X013854Y006182D02*
X013854Y005997D01*
X013977Y005997D02*
X013607Y005997D01*
X013607Y006182D01*
X013669Y006244D01*
X013792Y006244D01*
X013854Y006182D01*
X013730Y006366D02*
X013607Y006489D01*
X013977Y006489D01*
X012670Y005034D02*
X012299Y005034D01*
X012299Y005157D02*
X012299Y004910D01*
X012299Y004789D02*
X012299Y004542D01*
X012670Y004542D01*
X012670Y004789D01*
X012484Y004665D02*
X012484Y004542D01*
X012546Y004420D02*
X012608Y004420D01*
X012670Y004359D01*
X012670Y004235D01*
X012608Y004173D01*
X012670Y004052D02*
X012670Y003805D01*
X012299Y003805D01*
X012299Y004052D01*
X012361Y004173D02*
X012299Y004235D01*
X012299Y004359D01*
X012361Y004420D01*
X012484Y004359D02*
X012546Y004420D01*
X012484Y004359D02*
X012484Y004235D01*
X012423Y004173D01*
X012361Y004173D01*
X012484Y003929D02*
X012484Y003805D01*
X012484Y003684D02*
X012546Y003622D01*
X012546Y003437D01*
X012546Y003560D02*
X012670Y003684D01*
X012484Y003684D02*
X012361Y003684D01*
X012299Y003622D01*
X012299Y003437D01*
X012670Y003437D01*
D22*
X014159Y006024D02*
X014159Y006099D01*
X014184Y006124D01*
X014284Y006124D01*
X014309Y006099D01*
X014309Y006024D01*
X014159Y006024D01*
X014209Y006171D02*
X014159Y006221D01*
X014309Y006221D01*
X014309Y006171D02*
X014309Y006271D01*
X030312Y007397D02*
X030312Y007547D01*
X030387Y007547D01*
X030412Y007522D01*
X030412Y007472D01*
X030387Y007447D01*
X030312Y007447D01*
X030362Y007447D02*
X030412Y007397D01*
X030459Y007422D02*
X030484Y007397D01*
X030534Y007397D01*
X030559Y007422D01*
X030559Y007472D01*
X030534Y007497D01*
X030509Y007497D01*
X030459Y007472D01*
X030459Y007547D01*
X030559Y007547D01*
D23*
X030252Y007852D03*
X029102Y012002D03*
D24*
X030952Y012152D03*
X032452Y010352D03*
X013292Y006369D03*
D25*
X020840Y014302D02*
X020864Y014302D01*
X030290Y013802D02*
X030314Y013802D01*
X030990Y018302D02*
X031014Y018302D01*
D26*
X017052Y018163D03*
X017232Y014683D03*
X015672Y014683D03*
X010552Y018363D03*
X022972Y009583D03*
X017272Y006563D03*
D27*
X017632Y006713D03*
X022952Y009573D03*
X010972Y018373D03*
D28*
X011052Y018363D03*
X015992Y014663D03*
X019692Y009563D03*
X022932Y009583D03*
D29*
X022912Y009583D03*
X019512Y009583D03*
X018932Y009583D03*
X016772Y014683D03*
X016752Y014683D03*
X016152Y014683D03*
X016132Y014683D03*
X016112Y014683D03*
D30*
X016272Y014673D03*
X016292Y014673D03*
X016312Y014673D03*
X016332Y014673D03*
X016572Y014673D03*
X016592Y014673D03*
X016612Y014673D03*
X016632Y014673D03*
X016872Y017613D03*
X011352Y018373D03*
X011332Y018373D03*
X011312Y018373D03*
X022892Y009593D03*
D31*
X022872Y009583D03*
X016832Y017563D03*
X016672Y017563D03*
X016652Y017563D03*
X016632Y017563D03*
X016292Y017563D03*
X016272Y017563D03*
X016072Y017543D03*
X016052Y017543D03*
X011532Y018363D03*
D32*
X015112Y012173D03*
X015132Y012173D03*
X016592Y011653D03*
X016612Y011653D03*
X020572Y012073D03*
X022852Y009573D03*
X020592Y007073D03*
X020572Y007073D03*
D33*
X020732Y007193D03*
X022832Y009593D03*
X020752Y011933D03*
X017712Y011953D03*
X017692Y011953D03*
X016872Y011613D03*
X016852Y011613D03*
X016832Y011613D03*
X014912Y012333D03*
X014892Y012333D03*
D34*
X016892Y011613D03*
X020792Y011913D03*
X022812Y009573D03*
X020812Y007233D03*
X020772Y007213D03*
X020752Y007213D03*
X012852Y014693D03*
D35*
X014712Y012523D03*
X014732Y012523D03*
X017472Y011743D03*
X017492Y011763D03*
X020952Y011743D03*
X022792Y009583D03*
X020932Y007383D03*
X020912Y007383D03*
D36*
X022772Y009563D03*
X017252Y011603D03*
X017232Y011603D03*
X015172Y017423D03*
D37*
X011972Y018353D03*
X011952Y018353D03*
X011932Y018353D03*
X011912Y018353D03*
X011892Y018353D03*
X011872Y018353D03*
X011852Y018353D03*
X011832Y018353D03*
X011812Y018353D03*
X011792Y018353D03*
X011772Y018353D03*
X011752Y018353D03*
X011732Y018353D03*
X011712Y018353D03*
X012912Y014693D03*
X022752Y009573D03*
D38*
X022732Y009573D03*
X021152Y007713D03*
X012952Y014693D03*
D39*
X014512Y012823D03*
X021152Y011423D03*
X022712Y009563D03*
X021132Y007703D03*
X014932Y017343D03*
D40*
X014832Y017283D03*
X022692Y009563D03*
D41*
X022672Y009583D03*
D42*
X022652Y009573D03*
D43*
X022632Y009573D03*
X013032Y014693D03*
D44*
X022612Y009573D03*
D45*
X022592Y009593D03*
D46*
X022572Y009573D03*
X022552Y009573D03*
X013132Y014693D03*
D47*
X022532Y009573D03*
D48*
X022512Y009583D03*
D49*
X022492Y009573D03*
X013172Y014673D03*
X014612Y017273D03*
X014632Y017273D03*
D50*
X022472Y009573D03*
D51*
X022452Y009573D03*
D52*
X022432Y009563D03*
D53*
X022412Y009583D03*
X013252Y014683D03*
D54*
X022372Y009563D03*
X022392Y009563D03*
D55*
X022352Y009573D03*
X013332Y014673D03*
D56*
X013352Y014673D03*
X022332Y009573D03*
D57*
X022312Y009563D03*
D58*
X022292Y009573D03*
X022272Y009573D03*
X013432Y014693D03*
D59*
X022252Y009563D03*
D60*
X022232Y009573D03*
D61*
X022212Y009593D03*
D62*
X022192Y009563D03*
X013512Y014683D03*
D63*
X022172Y009573D03*
D64*
X022152Y009563D03*
D65*
X022132Y009583D03*
X013532Y014683D03*
D66*
X022112Y009573D03*
D67*
X022092Y009583D03*
X013572Y014683D03*
D68*
X013612Y014673D03*
X022072Y009573D03*
D69*
X022052Y009583D03*
D70*
X022032Y009573D03*
D71*
X022012Y009583D03*
D72*
X021992Y009583D03*
D73*
X021972Y009573D03*
X013692Y014673D03*
D74*
X021952Y009573D03*
D75*
X021932Y009573D03*
X021912Y009573D03*
X013752Y014673D03*
D76*
X021892Y009563D03*
D77*
X021872Y009573D03*
X021852Y009573D03*
X013812Y014673D03*
D78*
X013852Y014673D03*
X021832Y009573D03*
D79*
X021812Y009573D03*
X013872Y014673D03*
D80*
X013892Y014683D03*
X021792Y009583D03*
D81*
X021772Y009583D03*
D82*
X021752Y009573D03*
D83*
X021732Y009583D03*
X021712Y009583D03*
D84*
X021692Y009583D03*
D85*
X021672Y009573D03*
D86*
X021652Y009563D03*
X021632Y009563D03*
D87*
X021612Y009573D03*
X021592Y009573D03*
D88*
X021572Y009573D03*
D89*
X021552Y009563D03*
X021532Y009563D03*
D90*
X021512Y009573D03*
D91*
X021492Y009583D03*
D92*
X021472Y009573D03*
D93*
X021452Y009573D03*
X021432Y009573D03*
D94*
X021412Y009563D03*
X021392Y009563D03*
D95*
X021372Y009573D03*
D96*
X021352Y009573D03*
D97*
X021332Y009563D03*
X021312Y009563D03*
D98*
X021292Y009583D03*
D99*
X021272Y009563D03*
D100*
X021252Y009573D03*
X021232Y009573D03*
D101*
X021212Y009573D03*
X021192Y009573D03*
D102*
X021172Y011403D03*
X021172Y007743D03*
X012972Y014683D03*
X014872Y017323D03*
X014892Y017323D03*
D103*
X014952Y017363D03*
X014532Y012803D03*
X021132Y011443D03*
D104*
X021112Y007643D03*
X014572Y012763D03*
D105*
X021112Y011503D03*
X015032Y017383D03*
X015012Y017383D03*
D106*
X015072Y017413D03*
X011672Y018353D03*
X021092Y007593D03*
D107*
X021092Y011563D03*
X015052Y017403D03*
X011692Y018363D03*
D108*
X014592Y012673D03*
X014612Y012653D03*
X017332Y011593D03*
X017352Y011593D03*
X017372Y011593D03*
X021072Y007573D03*
X021052Y007533D03*
D109*
X021072Y011583D03*
X015092Y017403D03*
D110*
X015112Y017423D03*
X015132Y017423D03*
X011992Y018383D03*
X014632Y012623D03*
X014672Y012603D03*
X017292Y011603D03*
X017312Y011603D03*
X017392Y011663D03*
X017412Y011663D03*
X021052Y011603D03*
D111*
X021012Y011653D03*
X017432Y011673D03*
X014652Y012613D03*
X021032Y007513D03*
D112*
X021032Y011643D03*
X012012Y018363D03*
D113*
X015152Y017413D03*
X017272Y011593D03*
X021012Y007493D03*
D114*
X020992Y007413D03*
X020972Y007413D03*
X020992Y011713D03*
X017452Y011713D03*
X017212Y011613D03*
X017192Y011613D03*
X014692Y012553D03*
D115*
X017172Y011603D03*
X020972Y011723D03*
X020952Y007403D03*
X015212Y017423D03*
X015192Y017423D03*
D116*
X012872Y014673D03*
X014752Y012513D03*
X017092Y011593D03*
X017512Y011773D03*
X017532Y011793D03*
X020912Y011753D03*
X020932Y011753D03*
D117*
X020832Y011853D03*
X017612Y011893D03*
X016992Y011613D03*
X014852Y012373D03*
X020872Y007313D03*
X020892Y007333D03*
X015292Y017413D03*
X011632Y018353D03*
D118*
X015272Y017423D03*
X017592Y011883D03*
X017012Y011603D03*
X020892Y011823D03*
X020852Y007303D03*
X020832Y007303D03*
D119*
X020852Y011833D03*
X020872Y011833D03*
X017572Y011853D03*
X017032Y011613D03*
X014832Y012393D03*
X014792Y012433D03*
X014772Y012453D03*
X015252Y017433D03*
X012072Y018373D03*
X012052Y018373D03*
X011652Y018373D03*
D120*
X015312Y017403D03*
X014872Y012363D03*
X016912Y011623D03*
X016932Y011623D03*
X016952Y011623D03*
X016972Y011623D03*
X017632Y011903D03*
X017652Y011903D03*
X020812Y011903D03*
X020792Y007223D03*
D121*
X020772Y011923D03*
X011612Y018363D03*
D122*
X015332Y017423D03*
X014972Y012263D03*
X017672Y011943D03*
X017732Y011983D03*
X020732Y011943D03*
X020712Y007183D03*
D123*
X020692Y007173D03*
X016812Y011633D03*
X016792Y011633D03*
X016772Y011633D03*
X016752Y011633D03*
X016732Y011633D03*
X017792Y012033D03*
X014992Y012253D03*
X014952Y012313D03*
X014932Y012313D03*
X020692Y011973D03*
X020712Y011973D03*
D124*
X020672Y012013D03*
X016632Y011633D03*
X015072Y012193D03*
X015052Y012193D03*
X012832Y014673D03*
X015352Y017413D03*
X015372Y017413D03*
X020652Y007133D03*
X020672Y007133D03*
X020632Y007113D03*
D125*
X016712Y011643D03*
X016692Y011643D03*
X016672Y011643D03*
X016652Y011643D03*
X017752Y012023D03*
X017772Y012023D03*
X017812Y012043D03*
X015032Y012243D03*
X015012Y012243D03*
X020632Y012023D03*
X020652Y012023D03*
D126*
X020612Y012063D03*
X020592Y012063D03*
X017832Y012063D03*
X015092Y012183D03*
X020612Y007083D03*
D127*
X020552Y007063D03*
X020532Y007043D03*
X016572Y011663D03*
X016552Y011663D03*
X017852Y012083D03*
X017872Y012083D03*
X017892Y012083D03*
X017932Y012103D03*
X020552Y012083D03*
X015152Y012143D03*
X015392Y017403D03*
X015412Y017403D03*
D128*
X015192Y012133D03*
X015172Y012133D03*
X015252Y012093D03*
X017912Y012093D03*
X017992Y012153D03*
X018012Y012153D03*
X020492Y012113D03*
X020532Y012093D03*
X020512Y007033D03*
X020492Y007033D03*
X020472Y007033D03*
D129*
X020432Y006983D03*
X020412Y006983D03*
X020392Y006983D03*
X016532Y011663D03*
X016412Y011683D03*
X016392Y011683D03*
X015272Y012083D03*
X015232Y012103D03*
X015212Y012103D03*
X017952Y012143D03*
X017972Y012143D03*
X018032Y012183D03*
X018052Y012203D03*
X020412Y012163D03*
X020432Y012163D03*
X020452Y012143D03*
X020472Y012123D03*
X020512Y012103D03*
D130*
X020392Y012173D03*
X020372Y012173D03*
X016512Y011673D03*
X016492Y011673D03*
X016472Y011673D03*
X016452Y011673D03*
X016432Y011673D03*
X016372Y011693D03*
X015292Y012073D03*
X020372Y006973D03*
X020452Y007013D03*
X012092Y018373D03*
X011592Y018373D03*
D131*
X012112Y018383D03*
X015432Y017363D03*
X018072Y012223D03*
X018092Y012223D03*
X018112Y012223D03*
X018132Y012223D03*
X020272Y012223D03*
X020292Y012223D03*
X020312Y012223D03*
X020332Y012223D03*
X020352Y012203D03*
X015372Y012043D03*
X015352Y012043D03*
X015332Y012043D03*
X015312Y012063D03*
X018052Y006963D03*
X018092Y006923D03*
X018132Y006903D03*
X018152Y006903D03*
X020252Y006903D03*
X020272Y006903D03*
X020292Y006903D03*
X020352Y006963D03*
D132*
X017152Y006513D03*
X017132Y006513D03*
X020352Y009573D03*
X017552Y014453D03*
D133*
X018152Y012233D03*
X016352Y011713D03*
X016332Y011713D03*
X016312Y011713D03*
X016292Y011713D03*
X016272Y011733D03*
X015412Y012033D03*
X015392Y012033D03*
X018032Y006953D03*
X018072Y006933D03*
X018112Y006913D03*
X018172Y006893D03*
X020312Y006913D03*
X020332Y006913D03*
X015472Y017373D03*
X015452Y017373D03*
D134*
X012392Y017773D03*
X012372Y017773D03*
X012432Y018953D03*
X012452Y018953D03*
X017212Y014673D03*
X018112Y009573D03*
X018452Y009573D03*
X020332Y009573D03*
X017332Y006613D03*
D135*
X018472Y009563D03*
X019972Y009563D03*
X020312Y009563D03*
X012712Y014663D03*
X012352Y017803D03*
X012332Y017803D03*
X012312Y017803D03*
X012352Y018923D03*
X017012Y018083D03*
D136*
X015412Y015073D03*
X017272Y014693D03*
X018152Y009933D03*
X018152Y009193D03*
X020292Y009253D03*
X020272Y009913D03*
D137*
X020292Y009903D03*
X020032Y009563D03*
X020272Y009223D03*
X018132Y009243D03*
X018132Y009903D03*
X017112Y006503D03*
X017512Y014323D03*
X017532Y014343D03*
X017532Y014983D03*
X015392Y014323D03*
D138*
X015472Y014143D03*
X015492Y014103D03*
X017432Y014103D03*
X017452Y014163D03*
X017492Y014263D03*
X017472Y015103D03*
X017432Y015223D03*
X015492Y015243D03*
X020212Y010083D03*
X020252Y009123D03*
X020232Y009063D03*
X020172Y009003D03*
X018292Y008943D03*
X018252Y008963D03*
X018192Y009123D03*
X018172Y009123D03*
D139*
X018212Y009093D03*
X018172Y010013D03*
X018192Y010033D03*
X018212Y010053D03*
X020192Y010093D03*
X020252Y010013D03*
X015452Y014153D03*
X015412Y014293D03*
X015432Y015173D03*
D140*
X015492Y017383D03*
X020252Y012243D03*
X016252Y011743D03*
X016232Y011743D03*
X016212Y011743D03*
X016192Y011743D03*
X016172Y011743D03*
X015452Y011983D03*
X018192Y006883D03*
D141*
X018212Y006873D03*
X018012Y006933D03*
X020192Y006873D03*
X020212Y006873D03*
X020232Y006873D03*
X016152Y011753D03*
X016132Y011753D03*
X016112Y011753D03*
X016052Y011793D03*
X015652Y011913D03*
X015632Y011913D03*
X015612Y011913D03*
X015552Y011973D03*
X015532Y011973D03*
X015512Y011973D03*
X015492Y011973D03*
X015472Y011973D03*
X015432Y011993D03*
X018172Y012253D03*
X018192Y012253D03*
X018212Y012253D03*
X018232Y012293D03*
X018252Y012293D03*
X018272Y012293D03*
X018292Y012293D03*
X018312Y012313D03*
X020112Y012293D03*
X020132Y012293D03*
X020152Y012293D03*
X020232Y012253D03*
X015592Y017413D03*
X015572Y017413D03*
X015552Y017413D03*
X015512Y017393D03*
D142*
X016192Y015773D03*
X016712Y015773D03*
X016972Y015673D03*
X017212Y015493D03*
X017232Y015493D03*
X017312Y015393D03*
X017412Y015253D03*
X017452Y015213D03*
X017412Y014093D03*
X017392Y014093D03*
X017372Y013993D03*
X017352Y013993D03*
X017332Y013993D03*
X017172Y013813D03*
X017012Y013713D03*
X015732Y013813D03*
X015572Y013993D03*
X015552Y013993D03*
X015532Y014013D03*
X015512Y014093D03*
X015472Y015213D03*
X015452Y015213D03*
X015512Y015273D03*
X015532Y015333D03*
X015592Y015393D03*
X015672Y015493D03*
X015692Y015493D03*
X019572Y010633D03*
X019892Y010453D03*
X020012Y010353D03*
X020032Y010353D03*
X020172Y010133D03*
X020232Y010073D03*
X020212Y009053D03*
X020192Y009053D03*
X020152Y008933D03*
X020112Y008893D03*
X020012Y008773D03*
X019992Y008773D03*
X019532Y008493D03*
X018552Y008673D03*
X018532Y008673D03*
X018412Y008773D03*
X018272Y008953D03*
X018232Y008993D03*
X018252Y010173D03*
X018272Y010173D03*
X018292Y010193D03*
X018492Y010453D03*
X018512Y010453D03*
X017092Y006493D03*
D143*
X018232Y006863D03*
X018292Y006843D03*
X018352Y006823D03*
X018372Y006823D03*
X018512Y006763D03*
X018532Y006763D03*
X018552Y006763D03*
X019872Y006763D03*
X019972Y006783D03*
X020032Y006803D03*
X020052Y006803D03*
X020072Y006823D03*
X020092Y006843D03*
X020112Y006843D03*
X020132Y006843D03*
X020152Y006843D03*
X020172Y006863D03*
X016092Y011763D03*
X016072Y011783D03*
X016032Y011803D03*
X016012Y011803D03*
X015992Y011803D03*
X015972Y011803D03*
X015952Y011803D03*
X015892Y011823D03*
X015592Y011943D03*
X015572Y011963D03*
X018332Y012323D03*
X018412Y012363D03*
X018432Y012363D03*
X018452Y012363D03*
X018472Y012363D03*
X019912Y012363D03*
X019932Y012363D03*
X019952Y012363D03*
X019972Y012363D03*
X019992Y012343D03*
X020092Y012303D03*
X020172Y012283D03*
X020212Y012263D03*
X015612Y017423D03*
X015532Y017403D03*
X012132Y018363D03*
D144*
X011572Y018333D03*
X015632Y017433D03*
X015652Y017433D03*
X015712Y017473D03*
X015812Y017493D03*
X015832Y017493D03*
X018352Y012333D03*
X018372Y012333D03*
X018392Y012333D03*
X018492Y012373D03*
X018512Y012373D03*
X019892Y012373D03*
X020012Y012333D03*
X020032Y012333D03*
X020052Y012333D03*
X020072Y012333D03*
X020192Y012273D03*
X015932Y011813D03*
X015912Y011813D03*
X015872Y011833D03*
X015852Y011853D03*
X015752Y011893D03*
X015732Y011893D03*
X015712Y011893D03*
X015692Y011893D03*
X015672Y011893D03*
X017992Y006913D03*
X018252Y006853D03*
X018272Y006853D03*
X018312Y006833D03*
X018332Y006833D03*
X018392Y006793D03*
X018412Y006793D03*
X018432Y006793D03*
X018452Y006773D03*
X018472Y006773D03*
X018492Y006773D03*
X019852Y006753D03*
X019892Y006773D03*
X019912Y006773D03*
X019932Y006773D03*
X019952Y006773D03*
X019992Y006793D03*
X020012Y006793D03*
D145*
X019552Y008503D03*
X019752Y008583D03*
X019892Y008683D03*
X020072Y008843D03*
X020092Y008883D03*
X020132Y008923D03*
X018932Y008483D03*
X018912Y008483D03*
X018892Y008483D03*
X018872Y008483D03*
X018512Y008683D03*
X018492Y008683D03*
X018432Y008763D03*
X018372Y008843D03*
X018332Y008863D03*
X018312Y008863D03*
X018232Y010163D03*
X018312Y010263D03*
X018332Y010263D03*
X018372Y010303D03*
X018412Y010363D03*
X018532Y010463D03*
X018552Y010463D03*
X018652Y010543D03*
X018812Y010623D03*
X018832Y010623D03*
X018852Y010623D03*
X019552Y010643D03*
X019592Y010623D03*
X019912Y010443D03*
X019932Y010443D03*
X019992Y010363D03*
X020072Y010303D03*
X020092Y010263D03*
X020112Y010263D03*
X020132Y010223D03*
X020152Y010203D03*
X017272Y013903D03*
X017292Y013943D03*
X017312Y013963D03*
X017052Y013723D03*
X017032Y013723D03*
X015872Y013723D03*
X015852Y013723D03*
X015752Y013803D03*
X015712Y013823D03*
X015652Y013903D03*
X015632Y013903D03*
X015612Y013903D03*
X015592Y013963D03*
X015432Y014183D03*
X015572Y015363D03*
X015792Y015583D03*
X015892Y015663D03*
X015912Y015663D03*
X015932Y015663D03*
X015952Y015683D03*
X016172Y015763D03*
X016212Y015783D03*
X016692Y015783D03*
X016732Y015763D03*
X016752Y015763D03*
X016952Y015683D03*
X016992Y015663D03*
X017112Y015583D03*
X017192Y015503D03*
X017252Y015483D03*
X017292Y015403D03*
X017332Y015363D03*
X017352Y015343D03*
X017372Y015343D03*
X017392Y015283D03*
X017132Y018383D03*
X017112Y018383D03*
X017072Y006483D03*
D146*
X018952Y008473D03*
X018972Y008473D03*
X018992Y008473D03*
X019012Y008473D03*
X019032Y008473D03*
X018852Y008513D03*
X018832Y008513D03*
X018692Y008573D03*
X018672Y008593D03*
X018652Y008593D03*
X018632Y008593D03*
X018612Y008613D03*
X018572Y008653D03*
X018472Y008733D03*
X018452Y008753D03*
X018392Y008813D03*
X018352Y008853D03*
X019412Y008473D03*
X019432Y008473D03*
X019452Y008473D03*
X019472Y008473D03*
X019492Y008473D03*
X019512Y008473D03*
X019572Y008513D03*
X019592Y008513D03*
X019652Y008533D03*
X019672Y008533D03*
X019712Y008573D03*
X019732Y008573D03*
X019772Y008593D03*
X019792Y008593D03*
X019872Y008653D03*
X019912Y008693D03*
X019932Y008693D03*
X019952Y008693D03*
X019972Y008733D03*
X020032Y008793D03*
X020052Y008813D03*
X018352Y010293D03*
X018392Y010333D03*
X018432Y010373D03*
X018452Y010393D03*
X018472Y010413D03*
X018572Y010493D03*
X018612Y010533D03*
X018632Y010533D03*
X018672Y010553D03*
X018732Y010593D03*
X018752Y010593D03*
X018772Y010613D03*
X018792Y010613D03*
X018872Y010653D03*
X018892Y010653D03*
X018912Y010653D03*
X018932Y010653D03*
X019012Y010673D03*
X019412Y010673D03*
X019512Y010653D03*
X019532Y010653D03*
X019612Y010613D03*
X019632Y010613D03*
X019652Y010613D03*
X019672Y010613D03*
X019692Y010593D03*
X019752Y010553D03*
X019772Y010553D03*
X019792Y010533D03*
X019812Y010533D03*
X019852Y010493D03*
X019872Y010493D03*
X019952Y010433D03*
X019972Y010413D03*
X020052Y010333D03*
X016932Y013653D03*
X016952Y013673D03*
X016972Y013673D03*
X016892Y013633D03*
X016872Y013633D03*
X016852Y013633D03*
X016832Y013613D03*
X016752Y013593D03*
X016732Y013593D03*
X016672Y013573D03*
X016532Y013553D03*
X016512Y013553D03*
X016492Y013553D03*
X016472Y013553D03*
X016452Y013553D03*
X016432Y013553D03*
X016412Y013553D03*
X016392Y013553D03*
X016372Y013553D03*
X016232Y013573D03*
X016092Y013613D03*
X016072Y013613D03*
X016052Y013633D03*
X016032Y013633D03*
X016012Y013633D03*
X015972Y013673D03*
X015952Y013673D03*
X015892Y013693D03*
X015832Y013733D03*
X015812Y013733D03*
X015772Y013793D03*
X015692Y013853D03*
X015672Y013873D03*
X017072Y013733D03*
X017092Y013733D03*
X017132Y013793D03*
X017152Y013793D03*
X017212Y013853D03*
X017232Y013873D03*
X017252Y013893D03*
X017272Y015453D03*
X017172Y015553D03*
X017152Y015573D03*
X017132Y015573D03*
X017052Y015633D03*
X017032Y015633D03*
X016932Y015693D03*
X016912Y015693D03*
X016852Y015733D03*
X016812Y015753D03*
X016792Y015753D03*
X016772Y015753D03*
X016672Y015793D03*
X016652Y015793D03*
X016632Y015793D03*
X016612Y015793D03*
X016592Y015793D03*
X016572Y015793D03*
X016552Y015793D03*
X016352Y015793D03*
X016332Y015793D03*
X016312Y015793D03*
X016292Y015793D03*
X016272Y015793D03*
X016252Y015793D03*
X016232Y015793D03*
X016152Y015753D03*
X016132Y015753D03*
X016112Y015753D03*
X016092Y015753D03*
X016052Y015733D03*
X015972Y015693D03*
X015872Y015633D03*
X015852Y015633D03*
X015812Y015593D03*
X015772Y015573D03*
X015752Y015573D03*
X015732Y015553D03*
X015712Y015533D03*
X015652Y015473D03*
X015632Y015453D03*
X015612Y015433D03*
X015552Y015353D03*
D147*
X010112Y018353D03*
X020012Y009573D03*
D148*
X019992Y009573D03*
X017252Y006553D03*
X017232Y006553D03*
X017572Y014673D03*
X017092Y018213D03*
D149*
X012272Y017843D03*
X019952Y009563D03*
D150*
X019932Y009573D03*
X017392Y006633D03*
X010792Y018353D03*
D151*
X010812Y018363D03*
X019912Y009563D03*
D152*
X019892Y009563D03*
X018552Y009563D03*
X018532Y009563D03*
X018512Y009563D03*
X017132Y014683D03*
X016992Y017963D03*
D153*
X019872Y009563D03*
X017532Y006703D03*
D154*
X017972Y006903D03*
X018572Y006743D03*
X018592Y006743D03*
X018612Y006743D03*
X018632Y006743D03*
X018652Y006743D03*
X019752Y006743D03*
X019772Y006743D03*
X019792Y006743D03*
X019812Y006743D03*
X019832Y006743D03*
X015832Y011863D03*
X015812Y011863D03*
X015792Y011883D03*
X015772Y011883D03*
X018532Y012383D03*
X018552Y012383D03*
X018572Y012383D03*
X018592Y012403D03*
X018612Y012403D03*
X019792Y012403D03*
X019852Y012383D03*
X019872Y012383D03*
X012812Y014683D03*
X015672Y017443D03*
X015692Y017443D03*
X015732Y017483D03*
X015752Y017483D03*
X015772Y017483D03*
X015792Y017483D03*
X015852Y017503D03*
X015872Y017503D03*
D155*
X017152Y018383D03*
X016532Y015803D03*
X016512Y015803D03*
X016492Y015803D03*
X016472Y015803D03*
X016452Y015803D03*
X016432Y015803D03*
X016412Y015803D03*
X016392Y015803D03*
X016372Y015803D03*
X016072Y015743D03*
X016032Y015723D03*
X016012Y015703D03*
X015992Y015703D03*
X015832Y015623D03*
X016832Y015743D03*
X016872Y015723D03*
X016892Y015703D03*
X017012Y015643D03*
X017072Y015623D03*
X017092Y015603D03*
X017192Y013843D03*
X017112Y013783D03*
X016992Y013683D03*
X016912Y013643D03*
X016812Y013603D03*
X016792Y013603D03*
X016772Y013603D03*
X016712Y013583D03*
X016692Y013583D03*
X016652Y013563D03*
X016632Y013563D03*
X016612Y013563D03*
X016592Y013563D03*
X016572Y013563D03*
X016552Y013563D03*
X016352Y013563D03*
X016332Y013563D03*
X016312Y013563D03*
X016292Y013563D03*
X016272Y013563D03*
X016252Y013563D03*
X016212Y013583D03*
X016192Y013583D03*
X016172Y013583D03*
X016152Y013603D03*
X016132Y013603D03*
X016112Y013603D03*
X015992Y013643D03*
X015932Y013683D03*
X015912Y013683D03*
X015792Y013783D03*
X018712Y010583D03*
X018592Y010523D03*
X018952Y010663D03*
X018972Y010663D03*
X018992Y010663D03*
X019032Y010683D03*
X019392Y010683D03*
X019432Y010663D03*
X019452Y010663D03*
X019472Y010663D03*
X019492Y010663D03*
X019732Y010563D03*
X019832Y010523D03*
X019852Y008643D03*
X019832Y008623D03*
X019812Y008623D03*
X019692Y008543D03*
X019632Y008523D03*
X019612Y008523D03*
X019392Y008463D03*
X019372Y008463D03*
X019352Y008463D03*
X019052Y008463D03*
X018812Y008523D03*
X018792Y008523D03*
X018772Y008523D03*
X018752Y008543D03*
X018732Y008543D03*
X018712Y008563D03*
X018592Y008623D03*
X017052Y006483D03*
X009992Y018363D03*
D156*
X018572Y009573D03*
X019852Y009573D03*
D157*
X019832Y009573D03*
X017072Y014693D03*
X015832Y014693D03*
X010932Y018353D03*
D158*
X018632Y012413D03*
X018652Y012413D03*
X019772Y012413D03*
X019812Y012393D03*
X019832Y012393D03*
X019732Y006733D03*
X018672Y006733D03*
X017952Y006893D03*
D159*
X017572Y006703D03*
X018592Y009563D03*
X018612Y009563D03*
X019812Y009563D03*
X017052Y014683D03*
X015852Y014683D03*
D160*
X017012Y014673D03*
X019792Y009573D03*
D161*
X019772Y009563D03*
X018672Y009563D03*
X017652Y006723D03*
X015892Y014663D03*
X016932Y017803D03*
X011012Y018363D03*
X010992Y018363D03*
D162*
X012732Y014673D03*
X015912Y014673D03*
X015932Y014673D03*
X016992Y014673D03*
X019752Y009573D03*
D163*
X019752Y012423D03*
X019732Y012423D03*
X019712Y012423D03*
X019692Y012423D03*
X019672Y012423D03*
X019652Y012423D03*
X019632Y012423D03*
X019612Y012423D03*
X019592Y012423D03*
X019572Y012443D03*
X019552Y012443D03*
X019532Y012443D03*
X019512Y012443D03*
X019472Y012463D03*
X019452Y012463D03*
X019432Y012463D03*
X019412Y012463D03*
X019392Y012463D03*
X019372Y012463D03*
X019352Y012463D03*
X019332Y012463D03*
X019092Y012463D03*
X019072Y012463D03*
X019052Y012463D03*
X019032Y012463D03*
X019012Y012463D03*
X018992Y012463D03*
X018972Y012463D03*
X018952Y012463D03*
X018932Y012463D03*
X018892Y012443D03*
X018872Y012443D03*
X018852Y012443D03*
X018832Y012423D03*
X018812Y012423D03*
X018792Y012423D03*
X018772Y012423D03*
X018752Y012423D03*
X018732Y012423D03*
X018712Y012423D03*
X018692Y012423D03*
X018672Y012423D03*
X016012Y017523D03*
X015992Y017523D03*
X015972Y017523D03*
X015952Y017523D03*
X015932Y017523D03*
X015912Y017523D03*
X015892Y017523D03*
X013892Y018363D03*
X013872Y018363D03*
X012252Y018363D03*
X012232Y018363D03*
X012212Y018363D03*
X012192Y018363D03*
X012172Y018363D03*
X012152Y018363D03*
X011552Y018363D03*
X019712Y006723D03*
X019592Y006703D03*
X019572Y006703D03*
X019552Y006703D03*
X019532Y006703D03*
X019512Y006703D03*
X019492Y006703D03*
X019472Y006703D03*
X019452Y006703D03*
X019432Y006703D03*
X019412Y006703D03*
X019352Y006683D03*
X019332Y006683D03*
X019312Y006683D03*
X019292Y006683D03*
X019272Y006683D03*
X019252Y006683D03*
X019232Y006683D03*
X019212Y006683D03*
X019192Y006683D03*
X019172Y006683D03*
X019152Y006683D03*
X019132Y006683D03*
X019112Y006683D03*
X019092Y006683D03*
X019072Y006683D03*
X019052Y006683D03*
X018992Y006703D03*
X018972Y006703D03*
X018952Y006703D03*
X018932Y006703D03*
X018912Y006703D03*
X018892Y006703D03*
X018872Y006703D03*
X018852Y006703D03*
X018832Y006703D03*
X018812Y006703D03*
X018792Y006703D03*
D164*
X019732Y009573D03*
X015972Y014693D03*
X016912Y017773D03*
D165*
X011032Y018343D03*
X018692Y009563D03*
X018712Y009563D03*
X019712Y009563D03*
X017712Y006763D03*
X017692Y006763D03*
X017672Y006763D03*
D166*
X019072Y008453D03*
X019092Y008453D03*
X019112Y008453D03*
X019132Y008453D03*
X019152Y008453D03*
X019172Y008453D03*
X019192Y008453D03*
X019212Y008453D03*
X019232Y008453D03*
X019252Y008453D03*
X019272Y008453D03*
X019292Y008453D03*
X019312Y008453D03*
X019332Y008453D03*
X019712Y010573D03*
X019372Y010693D03*
X019352Y010693D03*
X019332Y010693D03*
X019312Y010693D03*
X019292Y010693D03*
X019272Y010693D03*
X019252Y010693D03*
X019232Y010693D03*
X019212Y010693D03*
X019192Y010693D03*
X019172Y010693D03*
X019152Y010693D03*
X019132Y010693D03*
X019112Y010693D03*
X019092Y010693D03*
X019072Y010693D03*
X019052Y010693D03*
X018692Y010573D03*
D167*
X018912Y012453D03*
X019112Y012473D03*
X019132Y012473D03*
X019152Y012473D03*
X019172Y012473D03*
X019192Y012473D03*
X019212Y012473D03*
X019232Y012473D03*
X019252Y012473D03*
X019272Y012473D03*
X019292Y012473D03*
X019312Y012473D03*
X019492Y012453D03*
X016032Y017533D03*
X016092Y017553D03*
X016112Y017553D03*
X016132Y017553D03*
X016152Y017553D03*
X016172Y017553D03*
X016192Y017553D03*
X016212Y017553D03*
X016232Y017553D03*
X016252Y017553D03*
X016312Y017573D03*
X016332Y017573D03*
X016352Y017573D03*
X016372Y017573D03*
X016392Y017573D03*
X016412Y017573D03*
X016432Y017573D03*
X016452Y017573D03*
X016472Y017573D03*
X016492Y017573D03*
X016512Y017573D03*
X016532Y017573D03*
X016552Y017573D03*
X016572Y017573D03*
X016592Y017573D03*
X016612Y017573D03*
X016692Y017553D03*
X016712Y017553D03*
X016732Y017553D03*
X016752Y017553D03*
X016772Y017553D03*
X016792Y017553D03*
X016812Y017553D03*
X018692Y006713D03*
X018712Y006713D03*
X018732Y006713D03*
X018752Y006713D03*
X018772Y006713D03*
X019012Y006693D03*
X019032Y006693D03*
X019372Y006693D03*
X019392Y006693D03*
X019612Y006713D03*
X019632Y006713D03*
X019652Y006713D03*
X019672Y006713D03*
X019692Y006713D03*
D168*
X019672Y009573D03*
X019652Y009573D03*
X016892Y014673D03*
X016012Y014673D03*
X011072Y018373D03*
D169*
X019632Y009583D03*
X017732Y006783D03*
D170*
X018772Y009573D03*
X019612Y009573D03*
X016032Y014673D03*
X011112Y018373D03*
X011092Y018373D03*
D171*
X016892Y017683D03*
X018852Y009563D03*
X019552Y009563D03*
X019572Y009563D03*
X019592Y009563D03*
X017772Y006803D03*
D172*
X018872Y009573D03*
X018892Y009573D03*
X018912Y009573D03*
X019532Y009573D03*
X016812Y014693D03*
X016792Y014693D03*
X016092Y014693D03*
X012752Y014693D03*
X011172Y018353D03*
X011152Y018353D03*
D173*
X011192Y018353D03*
X016732Y014673D03*
X018952Y009573D03*
X019472Y009573D03*
X019492Y009573D03*
D174*
X019452Y009573D03*
X019432Y009573D03*
X019412Y009573D03*
X019012Y009573D03*
X018992Y009573D03*
X018972Y009573D03*
X016652Y014673D03*
X016252Y014673D03*
X011292Y018373D03*
X011272Y018373D03*
X011252Y018373D03*
D175*
X011372Y018363D03*
X012772Y014683D03*
X016352Y014683D03*
X016372Y014683D03*
X016392Y014683D03*
X016412Y014683D03*
X016432Y014683D03*
X016452Y014683D03*
X016472Y014683D03*
X016492Y014683D03*
X016512Y014683D03*
X016532Y014683D03*
X016552Y014683D03*
X019372Y009583D03*
X019392Y009583D03*
D176*
X019352Y009573D03*
X019332Y009573D03*
X019112Y009573D03*
X019092Y009573D03*
X019072Y009573D03*
X019052Y009573D03*
X012792Y014693D03*
X011512Y018353D03*
X011492Y018353D03*
X011472Y018353D03*
X011452Y018353D03*
X011432Y018353D03*
X011412Y018353D03*
X011392Y018353D03*
D177*
X019132Y009563D03*
X019152Y009563D03*
X019172Y009563D03*
X019192Y009563D03*
X019212Y009563D03*
X019232Y009563D03*
X019252Y009563D03*
X019272Y009563D03*
X019292Y009563D03*
X019312Y009563D03*
X017872Y006863D03*
X017852Y006863D03*
D178*
X019032Y009583D03*
D179*
X018832Y009573D03*
X018812Y009573D03*
X016832Y014673D03*
X016072Y014673D03*
X011132Y018353D03*
D180*
X016052Y014663D03*
X016852Y014663D03*
X016872Y014663D03*
X018792Y009563D03*
X017752Y006783D03*
D181*
X018732Y009573D03*
X018752Y009573D03*
X016932Y014673D03*
X016912Y014673D03*
D182*
X018652Y009583D03*
X017612Y006723D03*
D183*
X018632Y009583D03*
X017032Y014683D03*
D184*
X018492Y009573D03*
X017452Y006633D03*
D185*
X017292Y006583D03*
X018432Y009563D03*
X015692Y014683D03*
X010772Y018363D03*
D186*
X010532Y018373D03*
X017072Y018173D03*
X017252Y014673D03*
X018412Y009573D03*
D187*
X018092Y009573D03*
D188*
X018072Y009563D03*
X010452Y018363D03*
X010432Y018363D03*
X010332Y018363D03*
D189*
X017892Y006873D03*
X017912Y006873D03*
X017932Y006873D03*
D190*
X017832Y006823D03*
X017812Y006823D03*
X017792Y006823D03*
X016712Y014663D03*
X016692Y014663D03*
X016672Y014663D03*
X016232Y014663D03*
X016212Y014663D03*
X016192Y014663D03*
X016172Y014663D03*
X011232Y018363D03*
X011212Y018363D03*
D191*
X010952Y018353D03*
X015872Y014693D03*
X017592Y006713D03*
D192*
X017592Y014663D03*
X015632Y014663D03*
D193*
X016972Y017903D03*
X010872Y018363D03*
X017552Y006703D03*
D194*
X017072Y011603D03*
X017052Y011603D03*
X017552Y011823D03*
X014812Y012423D03*
D195*
X015352Y014923D03*
X017552Y014923D03*
X010392Y018383D03*
X010372Y018383D03*
X017172Y006523D03*
D196*
X017512Y006683D03*
D197*
X017472Y014243D03*
X017512Y015023D03*
X017492Y015083D03*
X015392Y015023D03*
X010012Y018343D03*
D198*
X015772Y014693D03*
X015792Y014693D03*
X017112Y014693D03*
X017472Y006673D03*
X017492Y006673D03*
D199*
X017432Y006623D03*
X017172Y014663D03*
X015732Y014663D03*
X010832Y018383D03*
D200*
X017412Y006633D03*
D201*
X017372Y006613D03*
X017352Y006613D03*
X017192Y014673D03*
X015332Y014673D03*
D202*
X013852Y017753D03*
X013832Y017753D03*
X013812Y017753D03*
X013792Y017753D03*
X013772Y017753D03*
X013752Y017753D03*
X013732Y017753D03*
X013712Y017753D03*
X013692Y017753D03*
X013672Y017753D03*
X013652Y017753D03*
X013632Y017753D03*
X013612Y017753D03*
X013592Y017753D03*
X013572Y017753D03*
X013552Y017753D03*
X013532Y017753D03*
X013512Y017753D03*
X013492Y017753D03*
X013472Y017753D03*
X013452Y017753D03*
X013432Y017753D03*
X013412Y017753D03*
X013392Y017753D03*
X013372Y017753D03*
X013352Y017753D03*
X013332Y017753D03*
X013312Y017753D03*
X013292Y017753D03*
X013272Y017753D03*
X013252Y017753D03*
X013232Y017753D03*
X013212Y017753D03*
X013192Y017753D03*
X013172Y017753D03*
X013152Y017753D03*
X013132Y017753D03*
X013112Y017753D03*
X013092Y017753D03*
X013072Y017753D03*
X013052Y017753D03*
X013032Y017753D03*
X013012Y017753D03*
X012992Y017753D03*
X012972Y017753D03*
X012952Y017753D03*
X012932Y017753D03*
X012912Y017753D03*
X012892Y017753D03*
X012872Y017753D03*
X012852Y017753D03*
X012832Y017753D03*
X012812Y017753D03*
X012792Y017753D03*
X012772Y017753D03*
X012752Y017753D03*
X012732Y017753D03*
X012712Y017753D03*
X012692Y017753D03*
X012672Y017753D03*
X012652Y017753D03*
X012632Y017753D03*
X012612Y017753D03*
X012592Y017753D03*
X012572Y017753D03*
X012552Y017753D03*
X012552Y018973D03*
X012572Y018973D03*
X012592Y018973D03*
X012612Y018973D03*
X012632Y018973D03*
X012652Y018973D03*
X012672Y018973D03*
X012692Y018973D03*
X012712Y018973D03*
X012732Y018973D03*
X012752Y018973D03*
X012772Y018973D03*
X012792Y018973D03*
X012812Y018973D03*
X012832Y018973D03*
X012852Y018973D03*
X012872Y018973D03*
X012892Y018973D03*
X012912Y018973D03*
X012932Y018973D03*
X012952Y018973D03*
X012972Y018973D03*
X012992Y018973D03*
X013012Y018973D03*
X013032Y018973D03*
X013052Y018973D03*
X013072Y018973D03*
X013092Y018973D03*
X013112Y018973D03*
X013132Y018973D03*
X013152Y018973D03*
X013172Y018973D03*
X013192Y018973D03*
X013212Y018973D03*
X013232Y018973D03*
X013252Y018973D03*
X013272Y018973D03*
X013292Y018973D03*
X013312Y018973D03*
X013332Y018973D03*
X013352Y018973D03*
X013372Y018973D03*
X013392Y018973D03*
X013412Y018973D03*
X013432Y018973D03*
X013452Y018973D03*
X013472Y018973D03*
X013492Y018973D03*
X013512Y018973D03*
X013532Y018973D03*
X013552Y018973D03*
X013572Y018973D03*
X013592Y018973D03*
X013612Y018973D03*
X013632Y018973D03*
X013652Y018973D03*
X013672Y018973D03*
X013692Y018973D03*
X013712Y018973D03*
X013732Y018973D03*
X013752Y018973D03*
X013772Y018973D03*
X013792Y018973D03*
X013812Y018973D03*
X013832Y018973D03*
X013852Y018973D03*
X012532Y018973D03*
X012512Y018973D03*
X017312Y006593D03*
D203*
X017212Y006563D03*
X010292Y018343D03*
D204*
X017192Y006543D03*
D205*
X017152Y011593D03*
X017132Y011593D03*
X017112Y011593D03*
X012892Y014673D03*
X015232Y017433D03*
X012032Y018353D03*
D206*
X010852Y018353D03*
X017152Y014673D03*
D207*
X017092Y014683D03*
X016952Y017883D03*
X010912Y018363D03*
D208*
X012372Y018943D03*
X012392Y018943D03*
X012412Y018943D03*
X017032Y018103D03*
D209*
X016972Y014683D03*
X016952Y014683D03*
X015952Y014683D03*
D210*
X016852Y017583D03*
D211*
X015812Y014673D03*
X010892Y018373D03*
D212*
X015752Y014663D03*
D213*
X015712Y014683D03*
X012292Y017823D03*
X012312Y018903D03*
D214*
X010412Y018373D03*
X010352Y018373D03*
X010052Y018373D03*
X010032Y018373D03*
X015652Y014673D03*
D215*
X015352Y014433D03*
X015372Y014393D03*
X015372Y014953D03*
D216*
X012932Y014673D03*
X014552Y012773D03*
X014992Y017373D03*
D217*
X014972Y017363D03*
D218*
X014912Y017333D03*
D219*
X014852Y017293D03*
D220*
X014812Y017443D03*
X014792Y017443D03*
D221*
X014772Y017433D03*
D222*
X014752Y017383D03*
X014732Y017383D03*
D223*
X014712Y017363D03*
X014692Y017363D03*
D224*
X014672Y017323D03*
D225*
X014652Y017303D03*
D226*
X014592Y017243D03*
D227*
X014572Y017183D03*
X014552Y017183D03*
D228*
X014532Y017133D03*
D229*
X014512Y017103D03*
X013272Y014683D03*
D230*
X014492Y012993D03*
D231*
X013412Y014683D03*
X014492Y017043D03*
D232*
X014472Y015373D03*
X014452Y015373D03*
X014432Y015373D03*
D233*
X014412Y015393D03*
X014392Y015393D03*
X014372Y015393D03*
D234*
X014352Y015403D03*
D235*
X014332Y015413D03*
X014312Y015413D03*
D236*
X014292Y015443D03*
X014272Y015443D03*
X014252Y015443D03*
X014232Y015443D03*
D237*
X014212Y015463D03*
D238*
X014192Y015473D03*
X014172Y015473D03*
D239*
X014152Y015483D03*
X014132Y015483D03*
D240*
X014112Y015493D03*
D241*
X014092Y015503D03*
X014072Y015503D03*
D242*
X014052Y015513D03*
D243*
X014032Y015533D03*
X014012Y015533D03*
X013992Y015533D03*
D244*
X013972Y015563D03*
X013952Y015563D03*
D245*
X013932Y015583D03*
X013912Y015583D03*
D246*
X013832Y014683D03*
D247*
X013792Y014673D03*
D248*
X013772Y014683D03*
D249*
X013732Y014683D03*
D250*
X013712Y014673D03*
D251*
X013672Y014673D03*
D252*
X013652Y014683D03*
D253*
X013632Y014673D03*
D254*
X013592Y014673D03*
D255*
X013552Y014673D03*
D256*
X013492Y014693D03*
D257*
X013472Y014683D03*
D258*
X013452Y014683D03*
D259*
X013392Y014673D03*
D260*
X013372Y014693D03*
D261*
X013312Y014663D03*
D262*
X013292Y014693D03*
D263*
X013232Y014683D03*
X013212Y014683D03*
D264*
X013192Y014673D03*
D265*
X013152Y014673D03*
D266*
X013112Y014683D03*
D267*
X013092Y014703D03*
D268*
X013072Y014673D03*
D269*
X013052Y014683D03*
D270*
X013012Y014683D03*
D271*
X012992Y014683D03*
D272*
X012692Y014683D03*
X010512Y018363D03*
D273*
X012412Y017763D03*
X012432Y017763D03*
X012452Y017763D03*
X012472Y017763D03*
X012492Y017763D03*
X012512Y017763D03*
X012532Y017763D03*
X012492Y018963D03*
X012472Y018963D03*
D274*
X012332Y018913D03*
D275*
X012292Y018893D03*
X012272Y018893D03*
D276*
X010752Y018353D03*
X010732Y018353D03*
X010712Y018353D03*
X010692Y018353D03*
X010672Y018353D03*
X010652Y018353D03*
X010632Y018353D03*
X010612Y018353D03*
X010592Y018353D03*
X010572Y018353D03*
D277*
X010492Y018353D03*
X010472Y018353D03*
X010312Y018353D03*
X010092Y018353D03*
X010072Y018353D03*
D278*
X010132Y018363D03*
X010152Y018363D03*
X010172Y018363D03*
X010192Y018363D03*
X010212Y018363D03*
X010232Y018363D03*
X010252Y018363D03*
X010272Y018363D03*
M02*
