G75*
%MOIN*%
%OFA0B0*%
%FSLAX24Y24*%
%IPPOS*%
%LPD*%
%AMOC8*
5,1,8,0,0,1.08239X$1,22.5*
%
%ADD10C,0.0000*%
%ADD11C,0.0030*%
%ADD12C,0.0040*%
%ADD13C,0.0050*%
%ADD14R,0.6299X2.3622*%
%ADD15C,0.0080*%
%ADD16R,0.0020X0.0040*%
%ADD17R,0.0020X0.0180*%
%ADD18R,0.0020X0.0220*%
%ADD19R,0.0020X0.0280*%
%ADD20R,0.0020X0.0300*%
%ADD21R,0.0020X0.0320*%
%ADD22R,0.0020X0.0360*%
%ADD23R,0.0020X0.0420*%
%ADD24R,0.0020X0.0440*%
%ADD25R,0.0020X0.0460*%
%ADD26R,0.0020X0.0480*%
%ADD27R,0.0020X0.0500*%
%ADD28R,0.0020X0.0520*%
%ADD29R,0.0020X0.0540*%
%ADD30R,0.0020X0.0560*%
%ADD31R,0.0020X0.0580*%
%ADD32R,0.0020X0.0600*%
%ADD33R,0.0020X0.0620*%
%ADD34R,0.0020X0.0640*%
%ADD35R,0.0020X0.0660*%
%ADD36R,0.0020X0.0120*%
%ADD37R,0.0020X0.0140*%
%ADD38R,0.0020X0.0240*%
%ADD39R,0.0020X0.0680*%
%ADD40R,0.0020X0.0340*%
%ADD41R,0.0020X0.0400*%
%ADD42R,0.0020X0.0200*%
%ADD43R,0.0020X0.0700*%
%ADD44R,0.0020X0.0720*%
%ADD45R,0.0020X0.0740*%
%ADD46R,0.0020X0.0760*%
%ADD47R,0.0020X0.0780*%
%ADD48R,0.0020X0.0800*%
%ADD49R,0.0020X0.0820*%
%ADD50R,0.0020X0.0860*%
%ADD51R,0.0020X0.0840*%
%ADD52R,0.0020X0.0880*%
%ADD53R,0.0020X0.0900*%
%ADD54R,0.0020X0.0920*%
%ADD55R,0.0020X0.0940*%
%ADD56R,0.0020X0.0960*%
%ADD57R,0.0020X0.1000*%
%ADD58R,0.0020X0.0980*%
%ADD59R,0.0020X0.1020*%
%ADD60R,0.0020X0.1040*%
%ADD61R,0.0020X0.1060*%
%ADD62R,0.0020X0.1080*%
%ADD63R,0.0020X0.1100*%
%ADD64R,0.0020X0.1140*%
%ADD65R,0.0020X0.2220*%
%ADD66R,0.0020X0.2180*%
%ADD67R,0.0020X0.0060*%
%ADD68R,0.0020X0.2160*%
%ADD69R,0.0020X0.2140*%
%ADD70R,0.0020X0.2580*%
%ADD71R,0.0020X0.2620*%
%ADD72R,0.0020X0.2640*%
%ADD73R,0.0020X0.2680*%
%ADD74R,0.0020X0.2720*%
%ADD75R,0.0020X0.2740*%
%ADD76R,0.0020X0.2760*%
%ADD77R,0.0020X0.2800*%
%ADD78R,0.0020X0.2820*%
%ADD79R,0.0020X0.2860*%
%ADD80R,0.0020X0.2920*%
%ADD81R,0.0020X0.2980*%
%ADD82R,0.0020X0.1860*%
%ADD83R,0.0020X0.1160*%
%ADD84R,0.0020X0.3200*%
%ADD85R,0.0020X0.4420*%
%ADD86R,0.0020X0.3040*%
%ADD87R,0.0020X0.1340*%
%ADD88R,0.0020X0.4440*%
%ADD89R,0.0020X0.4540*%
%ADD90R,0.0020X0.4560*%
%ADD91R,0.0020X0.4600*%
%ADD92R,0.0020X0.4620*%
%ADD93R,0.0020X0.4640*%
%ADD94R,0.0020X0.4660*%
%ADD95R,0.0020X0.4680*%
%ADD96R,0.0020X0.4700*%
%ADD97R,0.0020X0.4720*%
%ADD98R,0.0020X0.4740*%
%ADD99R,0.0020X0.4760*%
%ADD100R,0.0020X0.3640*%
%ADD101R,0.0020X0.3600*%
%ADD102R,0.0020X0.3580*%
%ADD103R,0.0020X0.3560*%
%ADD104R,0.0020X0.3520*%
%ADD105R,0.0020X0.1920*%
%ADD106R,0.0020X0.1780*%
%ADD107R,0.0020X0.1760*%
%ADD108R,0.0020X0.1660*%
%ADD109R,0.0020X0.1620*%
%ADD110R,0.0020X0.1600*%
%ADD111R,0.0020X0.1540*%
%ADD112R,0.0020X0.1500*%
%ADD113R,0.0020X0.1460*%
%ADD114R,0.0020X0.1440*%
%ADD115R,0.0020X0.1420*%
%ADD116R,0.0020X0.1180*%
%ADD117R,0.0020X0.1400*%
%ADD118R,0.0020X0.1280*%
%ADD119R,0.0020X0.1360*%
%ADD120R,0.0020X0.1480*%
%ADD121R,0.0020X0.0020*%
%ADD122R,0.0020X0.1320*%
%ADD123R,0.0020X0.1640*%
%ADD124R,0.0020X0.1720*%
%ADD125R,0.0020X0.1260*%
%ADD126R,0.0020X0.1940*%
%ADD127R,0.0020X0.1220*%
%ADD128R,0.0020X0.2020*%
%ADD129R,0.0020X0.2040*%
%ADD130R,0.0020X0.1200*%
%ADD131R,0.0020X0.2100*%
%ADD132R,0.0020X0.2260*%
%ADD133R,0.0020X0.1120*%
%ADD134R,0.0020X0.2300*%
%ADD135R,0.0020X0.0080*%
%ADD136R,0.0020X0.2400*%
%ADD137R,0.0020X0.0380*%
%ADD138R,0.0020X0.2500*%
%ADD139R,0.0020X0.2600*%
%ADD140R,0.0020X0.2780*%
%ADD141R,0.0020X0.2900*%
%ADD142R,0.0020X0.0160*%
%ADD143R,0.0020X0.2960*%
%ADD144R,0.0020X0.3120*%
%ADD145R,0.0020X0.3240*%
%ADD146R,0.0020X0.3280*%
%ADD147R,0.0020X0.3340*%
%ADD148R,0.0020X0.3380*%
%ADD149R,0.0020X0.3420*%
%ADD150R,0.0020X0.3460*%
%ADD151R,0.0020X0.3480*%
%ADD152R,0.0020X0.3500*%
%ADD153R,0.0020X0.3540*%
%ADD154R,0.0020X0.0100*%
%ADD155R,0.0020X0.3360*%
%ADD156R,0.0020X0.3320*%
%ADD157R,0.0020X0.1240*%
%ADD158R,0.0020X0.3300*%
%ADD159R,0.0020X0.3220*%
%ADD160R,0.0020X0.3080*%
%ADD161R,0.0020X0.2940*%
%ADD162R,0.0020X0.2880*%
%ADD163R,0.0020X0.1300*%
%ADD164R,0.0020X0.2660*%
%ADD165R,0.0020X0.2560*%
%ADD166R,0.0020X0.2520*%
%ADD167R,0.0020X0.2480*%
%ADD168R,0.0020X0.2420*%
%ADD169R,0.0020X0.2360*%
%ADD170R,0.0020X0.1380*%
%ADD171R,0.0020X0.2240*%
%ADD172R,0.0020X0.2120*%
%ADD173R,0.0020X0.1520*%
%ADD174R,0.0020X0.0260*%
%ADD175R,0.0020X0.1560*%
%ADD176R,0.0020X0.1680*%
%ADD177R,0.0020X0.1700*%
%ADD178R,0.0020X0.1740*%
%ADD179R,0.0020X0.1800*%
%ADD180R,0.0020X0.1580*%
%ADD181R,0.0020X0.3060*%
%ADD182R,0.0020X0.3800*%
%ADD183R,0.0020X0.3780*%
%ADD184R,0.0020X0.3760*%
%ADD185R,0.0020X0.3740*%
%ADD186R,0.0020X0.3720*%
%ADD187R,0.0020X0.3700*%
%ADD188R,0.0020X0.2280*%
%ADD189R,0.0020X0.2080*%
%ADD190R,0.0020X0.1980*%
%ADD191R,0.0020X0.1880*%
%ADD192R,0.0020X0.2200*%
%ADD193R,0.0020X0.3440*%
%ADD194R,0.0020X0.4220*%
%ADD195R,0.0020X0.4180*%
%ADD196R,0.0020X0.4140*%
%ADD197R,0.0020X0.4120*%
%ADD198R,0.0020X0.4040*%
%ADD199R,0.0020X0.4000*%
%ADD200R,0.0020X0.3960*%
%ADD201R,0.0020X0.4020*%
%ADD202R,0.0020X0.4240*%
%ADD203R,0.0020X0.4380*%
%ADD204R,0.0020X0.4460*%
%ADD205R,0.0020X0.4520*%
%ADD206R,0.0020X0.4840*%
%ADD207R,0.0020X0.4880*%
%ADD208R,0.0020X0.4920*%
%ADD209R,0.0020X0.4980*%
%ADD210R,0.0020X0.5000*%
%ADD211R,0.0020X0.5080*%
%ADD212R,0.0020X0.5100*%
%ADD213R,0.0020X0.5120*%
%ADD214R,0.0020X0.5180*%
%ADD215R,0.0020X0.5240*%
%ADD216R,0.0020X0.5260*%
%ADD217R,0.0020X0.5300*%
%ADD218R,0.0020X0.5360*%
%ADD219R,0.0020X0.5380*%
%ADD220R,0.0020X0.5460*%
%ADD221R,0.0020X0.5500*%
%ADD222R,0.0020X0.5560*%
%ADD223R,0.0020X0.5640*%
%ADD224R,0.0020X0.5660*%
%ADD225R,0.0020X0.5680*%
%ADD226R,0.0020X0.5720*%
%ADD227R,0.0020X0.5740*%
%ADD228R,0.0020X0.5780*%
%ADD229R,0.0020X0.5800*%
%ADD230R,0.0020X0.5860*%
%ADD231R,0.0020X0.4160*%
%ADD232R,0.0020X0.4100*%
%ADD233R,0.0020X0.4080*%
%ADD234R,0.0020X0.4060*%
%ADD235R,0.0020X0.2700*%
%ADD236R,0.0020X0.2540*%
%ADD237R,0.0020X0.2460*%
%ADD238R,0.0020X0.2440*%
%ADD239R,0.0020X0.1820*%
%ADD240R,0.0020X0.1840*%
%ADD241R,0.0020X0.2000*%
%ADD242R,0.0020X0.2060*%
%ADD243R,0.0020X0.2320*%
%ADD244R,0.0020X0.2340*%
%ADD245R,0.0020X0.6760*%
%ADD246R,0.0020X0.6700*%
%ADD247R,0.0020X0.6660*%
%ADD248R,0.0020X0.6580*%
%ADD249R,0.0020X0.6560*%
%ADD250R,0.0020X0.6480*%
%ADD251R,0.0020X0.6420*%
%ADD252R,0.0020X0.6360*%
%ADD253R,0.0020X0.6320*%
%ADD254R,0.0020X0.6260*%
%ADD255R,0.0020X0.6200*%
%ADD256R,0.0020X0.6140*%
%ADD257R,0.0020X0.6120*%
%ADD258R,0.0020X0.6020*%
%ADD259R,0.0020X0.6000*%
%ADD260R,0.0020X0.5960*%
%ADD261R,0.0020X0.5820*%
%ADD262R,0.0020X0.5760*%
%ADD263R,0.0020X0.5600*%
%ADD264R,0.0020X0.5480*%
%ADD265R,0.0020X0.5400*%
%ADD266R,0.0020X0.5140*%
%ADD267R,0.0020X0.5040*%
%ADD268R,0.0020X0.4960*%
%ADD269R,0.0020X0.4860*%
%ADD270R,0.0020X0.4820*%
%ADD271R,0.0020X0.4780*%
%ADD272R,0.0020X0.4500*%
%ADD273R,0.0020X0.4320*%
%ADD274R,0.0020X0.4280*%
%ADD275R,0.0020X0.3880*%
%ADD276R,0.0020X0.3820*%
%ADD277R,0.0020X0.3680*%
%ADD278R,0.0020X0.2840*%
D10*
X008171Y001429D02*
X013535Y001429D01*
X013537Y001357D01*
X013543Y001285D01*
X013553Y001214D01*
X013566Y001143D01*
X013583Y001073D01*
X013605Y001005D01*
X013629Y000937D01*
X013658Y000871D01*
X013690Y000806D01*
X013725Y000744D01*
X013764Y000683D01*
X013806Y000625D01*
X013851Y000569D01*
X013899Y000515D01*
X013950Y000464D01*
X014004Y000416D01*
X014060Y000371D01*
X014118Y000329D01*
X014179Y000290D01*
X014241Y000255D01*
X014306Y000223D01*
X014372Y000194D01*
X014440Y000170D01*
X014508Y000148D01*
X014578Y000131D01*
X014649Y000118D01*
X014720Y000108D01*
X014792Y000102D01*
X014864Y000100D01*
X015734Y000100D01*
X015780Y000102D01*
X015826Y000108D01*
X015871Y000117D01*
X015915Y000130D01*
X015958Y000147D01*
X015999Y000167D01*
X016039Y000191D01*
X016076Y000217D01*
X016111Y000247D01*
X016144Y000280D01*
X016174Y000315D01*
X016200Y000352D01*
X016224Y000392D01*
X016244Y000433D01*
X016261Y000476D01*
X016274Y000520D01*
X016283Y000565D01*
X016289Y000611D01*
X016291Y000657D01*
X016293Y000710D01*
X016298Y000762D01*
X016307Y000814D01*
X016320Y000865D01*
X016336Y000916D01*
X016355Y000965D01*
X016378Y001012D01*
X016403Y001058D01*
X016432Y001102D01*
X016464Y001144D01*
X016499Y001184D01*
X016536Y001221D01*
X016576Y001256D01*
X016618Y001288D01*
X016662Y001317D01*
X016708Y001342D01*
X016755Y001365D01*
X016804Y001384D01*
X016855Y001400D01*
X016906Y001413D01*
X016958Y001422D01*
X017010Y001427D01*
X017063Y001429D01*
X024903Y001429D01*
X036665Y010484D02*
X036665Y015110D01*
X035275Y013683D02*
X035277Y013712D01*
X035283Y013740D01*
X035292Y013768D01*
X035305Y013794D01*
X035322Y013817D01*
X035341Y013839D01*
X035363Y013858D01*
X035388Y013873D01*
X035414Y013886D01*
X035442Y013894D01*
X035470Y013899D01*
X035499Y013900D01*
X035528Y013897D01*
X035556Y013890D01*
X035583Y013880D01*
X035609Y013866D01*
X035632Y013849D01*
X035653Y013829D01*
X035671Y013806D01*
X035686Y013781D01*
X035697Y013754D01*
X035705Y013726D01*
X035709Y013697D01*
X035709Y013669D01*
X035705Y013640D01*
X035697Y013612D01*
X035686Y013585D01*
X035671Y013560D01*
X035653Y013537D01*
X035632Y013517D01*
X035609Y013500D01*
X035583Y013486D01*
X035556Y013476D01*
X035528Y013469D01*
X035499Y013466D01*
X035470Y013467D01*
X035442Y013472D01*
X035414Y013480D01*
X035388Y013493D01*
X035363Y013508D01*
X035341Y013527D01*
X035322Y013549D01*
X035305Y013572D01*
X035292Y013598D01*
X035283Y013626D01*
X035277Y013654D01*
X035275Y013683D01*
X035275Y011911D02*
X035277Y011940D01*
X035283Y011968D01*
X035292Y011996D01*
X035305Y012022D01*
X035322Y012045D01*
X035341Y012067D01*
X035363Y012086D01*
X035388Y012101D01*
X035414Y012114D01*
X035442Y012122D01*
X035470Y012127D01*
X035499Y012128D01*
X035528Y012125D01*
X035556Y012118D01*
X035583Y012108D01*
X035609Y012094D01*
X035632Y012077D01*
X035653Y012057D01*
X035671Y012034D01*
X035686Y012009D01*
X035697Y011982D01*
X035705Y011954D01*
X035709Y011925D01*
X035709Y011897D01*
X035705Y011868D01*
X035697Y011840D01*
X035686Y011813D01*
X035671Y011788D01*
X035653Y011765D01*
X035632Y011745D01*
X035609Y011728D01*
X035583Y011714D01*
X035556Y011704D01*
X035528Y011697D01*
X035499Y011694D01*
X035470Y011695D01*
X035442Y011700D01*
X035414Y011708D01*
X035388Y011721D01*
X035363Y011736D01*
X035341Y011755D01*
X035322Y011777D01*
X035305Y011800D01*
X035292Y011826D01*
X035283Y011854D01*
X035277Y011882D01*
X035275Y011911D01*
X036664Y010484D02*
X036629Y010233D01*
X036587Y009982D01*
X036539Y009733D01*
X036485Y009485D01*
X036425Y009239D01*
X036360Y008994D01*
X036288Y008751D01*
X036210Y008509D01*
X036127Y008270D01*
X036038Y008032D01*
X035943Y007797D01*
X035843Y007564D01*
X035737Y007334D01*
X035625Y007106D01*
X035508Y006881D01*
X035386Y006659D01*
X035258Y006440D01*
X035125Y006224D01*
X034987Y006011D01*
X034843Y005802D01*
X034695Y005596D01*
X034542Y005394D01*
X034384Y005196D01*
X034221Y005001D01*
X034053Y004811D01*
X033881Y004624D01*
X033705Y004442D01*
X033524Y004264D01*
X033339Y004091D01*
X033149Y003922D01*
X032956Y003758D01*
X032759Y003598D01*
X032558Y003443D01*
X032353Y003294D01*
X032145Y003149D01*
X031933Y003009D01*
X031718Y002874D01*
X031500Y002745D01*
X031279Y002621D01*
X031055Y002502D01*
X030828Y002389D01*
X030598Y002281D01*
X030366Y002179D01*
X030132Y002083D01*
X029895Y001992D01*
X029656Y001907D01*
X029415Y001828D01*
X029172Y001754D01*
X028928Y001687D01*
X028681Y001625D01*
X028434Y001569D01*
X028185Y001520D01*
X027935Y001476D01*
X027685Y001439D01*
X027433Y001407D01*
X027181Y001382D01*
X026928Y001363D01*
X026674Y001349D01*
X026421Y001342D01*
X026167Y001341D01*
X025914Y001347D01*
X025660Y001358D01*
X025407Y001375D01*
X025155Y001399D01*
X024903Y001429D01*
X008171Y001429D02*
X008009Y001431D01*
X007848Y001437D01*
X007686Y001447D01*
X007525Y001460D01*
X007364Y001478D01*
X007204Y001499D01*
X007044Y001525D01*
X006885Y001554D01*
X006727Y001587D01*
X006569Y001623D01*
X006413Y001664D01*
X006257Y001708D01*
X006103Y001757D01*
X005950Y001808D01*
X005798Y001864D01*
X005647Y001923D01*
X005498Y001986D01*
X005351Y002052D01*
X005205Y002122D01*
X005061Y002196D01*
X004918Y002273D01*
X004778Y002353D01*
X004640Y002437D01*
X004503Y002524D01*
X004369Y002614D01*
X004237Y002707D01*
X004107Y002804D01*
X003980Y002904D01*
X003855Y003006D01*
X003733Y003112D01*
X003613Y003221D01*
X003496Y003332D01*
X003381Y003447D01*
X003270Y003564D01*
X003161Y003684D01*
X003055Y003806D01*
X002953Y003931D01*
X002853Y004058D01*
X002756Y004188D01*
X002663Y004320D01*
X002573Y004454D01*
X002486Y004591D01*
X002402Y004729D01*
X002322Y004869D01*
X002245Y005012D01*
X002171Y005156D01*
X002101Y005302D01*
X002035Y005449D01*
X001972Y005598D01*
X001913Y005749D01*
X001857Y005901D01*
X001806Y006054D01*
X001757Y006208D01*
X001713Y006364D01*
X001672Y006520D01*
X001636Y006678D01*
X001603Y006836D01*
X001574Y006995D01*
X001548Y007155D01*
X001527Y007315D01*
X001509Y007476D01*
X001496Y007637D01*
X001486Y007799D01*
X001480Y007960D01*
X001478Y008122D01*
X001406Y008124D01*
X001334Y008130D01*
X001262Y008139D01*
X001191Y008152D01*
X001121Y008169D01*
X001052Y008189D01*
X000984Y008214D01*
X000918Y008241D01*
X000852Y008272D01*
X000789Y008307D01*
X000727Y008344D01*
X000668Y008385D01*
X000611Y008429D01*
X000556Y008476D01*
X000504Y008526D01*
X000454Y008578D01*
X000407Y008633D01*
X000363Y008690D01*
X000322Y008749D01*
X000285Y008811D01*
X000250Y008874D01*
X000219Y008940D01*
X000192Y009006D01*
X000167Y009074D01*
X000147Y009143D01*
X000130Y009213D01*
X000117Y009284D01*
X000108Y009356D01*
X000102Y009428D01*
X000100Y009500D01*
X000100Y015799D01*
X000102Y015871D01*
X000108Y015943D01*
X000117Y016015D01*
X000130Y016086D01*
X000147Y016156D01*
X000167Y016225D01*
X000192Y016293D01*
X000219Y016359D01*
X000250Y016425D01*
X000285Y016488D01*
X000322Y016550D01*
X000363Y016609D01*
X000407Y016666D01*
X000454Y016721D01*
X000504Y016773D01*
X000556Y016823D01*
X000611Y016870D01*
X000668Y016914D01*
X000727Y016955D01*
X000789Y016992D01*
X000852Y017027D01*
X000918Y017058D01*
X000984Y017085D01*
X001052Y017110D01*
X001121Y017130D01*
X001191Y017147D01*
X001262Y017160D01*
X001334Y017169D01*
X001406Y017175D01*
X001478Y017177D01*
X000698Y012846D02*
X000700Y012896D01*
X000706Y012946D01*
X000716Y012995D01*
X000730Y013043D01*
X000747Y013090D01*
X000768Y013135D01*
X000793Y013179D01*
X000821Y013220D01*
X000853Y013259D01*
X000887Y013296D01*
X000924Y013330D01*
X000964Y013360D01*
X001006Y013387D01*
X001050Y013411D01*
X001096Y013432D01*
X001143Y013448D01*
X001191Y013461D01*
X001241Y013470D01*
X001290Y013475D01*
X001341Y013476D01*
X001391Y013473D01*
X001440Y013466D01*
X001489Y013455D01*
X001537Y013440D01*
X001583Y013422D01*
X001628Y013400D01*
X001671Y013374D01*
X001712Y013345D01*
X001751Y013313D01*
X001787Y013278D01*
X001819Y013240D01*
X001849Y013200D01*
X001876Y013157D01*
X001899Y013113D01*
X001918Y013067D01*
X001934Y013019D01*
X001946Y012970D01*
X001954Y012921D01*
X001958Y012871D01*
X001958Y012821D01*
X001954Y012771D01*
X001946Y012722D01*
X001934Y012673D01*
X001918Y012625D01*
X001899Y012579D01*
X001876Y012535D01*
X001849Y012492D01*
X001819Y012452D01*
X001787Y012414D01*
X001751Y012379D01*
X001712Y012347D01*
X001671Y012318D01*
X001628Y012292D01*
X001583Y012270D01*
X001537Y012252D01*
X001489Y012237D01*
X001440Y012226D01*
X001391Y012219D01*
X001341Y012216D01*
X001290Y012217D01*
X001241Y012222D01*
X001191Y012231D01*
X001143Y012244D01*
X001096Y012260D01*
X001050Y012281D01*
X001006Y012305D01*
X000964Y012332D01*
X000924Y012362D01*
X000887Y012396D01*
X000853Y012433D01*
X000821Y012472D01*
X000793Y012513D01*
X000768Y012557D01*
X000747Y012602D01*
X000730Y012649D01*
X000716Y012697D01*
X000706Y012746D01*
X000700Y012796D01*
X000698Y012846D01*
X001478Y017177D02*
X001480Y017348D01*
X001486Y017519D01*
X001497Y017690D01*
X001511Y017861D01*
X001530Y018031D01*
X001552Y018201D01*
X001579Y018370D01*
X001610Y018539D01*
X001645Y018706D01*
X001684Y018873D01*
X001727Y019039D01*
X001774Y019203D01*
X001825Y019367D01*
X001880Y019529D01*
X001939Y019690D01*
X002001Y019849D01*
X002068Y020007D01*
X002138Y020163D01*
X002212Y020318D01*
X002290Y020470D01*
X002371Y020621D01*
X002456Y020770D01*
X002545Y020916D01*
X002637Y021061D01*
X002733Y021203D01*
X002831Y021343D01*
X002934Y021480D01*
X003039Y021615D01*
X003148Y021747D01*
X003260Y021877D01*
X003375Y022003D01*
X003494Y022127D01*
X003615Y022248D01*
X003739Y022367D01*
X003865Y022482D01*
X003995Y022594D01*
X004127Y022703D01*
X004262Y022808D01*
X004399Y022911D01*
X004539Y023009D01*
X004681Y023105D01*
X004826Y023197D01*
X004972Y023286D01*
X005121Y023371D01*
X005272Y023452D01*
X005424Y023530D01*
X005579Y023604D01*
X005735Y023674D01*
X005893Y023741D01*
X006052Y023803D01*
X006213Y023862D01*
X006375Y023917D01*
X006539Y023968D01*
X006703Y024015D01*
X006869Y024058D01*
X007036Y024097D01*
X007203Y024132D01*
X007372Y024163D01*
X007541Y024190D01*
X007711Y024212D01*
X007881Y024231D01*
X008052Y024245D01*
X008223Y024256D01*
X008394Y024262D01*
X008565Y024264D01*
X008565Y024263D02*
X013535Y024263D01*
X013537Y024338D01*
X013543Y024412D01*
X013553Y024486D01*
X013566Y024560D01*
X013584Y024632D01*
X013605Y024704D01*
X013630Y024774D01*
X013658Y024843D01*
X013691Y024911D01*
X013726Y024977D01*
X013765Y025040D01*
X013808Y025102D01*
X013853Y025161D01*
X013902Y025218D01*
X013953Y025272D01*
X014007Y025323D01*
X014064Y025372D01*
X014123Y025417D01*
X014185Y025460D01*
X014249Y025499D01*
X014314Y025534D01*
X014382Y025567D01*
X014451Y025595D01*
X014521Y025620D01*
X014593Y025641D01*
X014665Y025659D01*
X014739Y025672D01*
X014813Y025682D01*
X014887Y025688D01*
X014962Y025690D01*
X014962Y025691D02*
X015734Y025691D01*
X015780Y025689D01*
X015826Y025683D01*
X015871Y025674D01*
X015915Y025661D01*
X015958Y025644D01*
X015999Y025624D01*
X016039Y025600D01*
X016076Y025574D01*
X016111Y025544D01*
X016144Y025511D01*
X016174Y025476D01*
X016200Y025439D01*
X016224Y025399D01*
X016244Y025358D01*
X016261Y025315D01*
X016274Y025271D01*
X016283Y025226D01*
X016289Y025180D01*
X016291Y025134D01*
X016293Y025077D01*
X016298Y025020D01*
X016308Y024964D01*
X016321Y024909D01*
X016337Y024854D01*
X016357Y024801D01*
X016381Y024749D01*
X016408Y024699D01*
X016438Y024651D01*
X016471Y024604D01*
X016507Y024560D01*
X016546Y024519D01*
X016587Y024480D01*
X016631Y024444D01*
X016678Y024411D01*
X016726Y024381D01*
X016776Y024354D01*
X016828Y024330D01*
X016881Y024310D01*
X016936Y024294D01*
X016991Y024281D01*
X017047Y024271D01*
X017104Y024266D01*
X017161Y024264D01*
X017161Y024263D02*
X024903Y024263D01*
X024903Y024264D02*
X025156Y024292D01*
X025410Y024315D01*
X025664Y024331D01*
X025918Y024341D01*
X026173Y024345D01*
X026428Y024343D01*
X026682Y024334D01*
X026936Y024320D01*
X027190Y024299D01*
X027443Y024272D01*
X027696Y024239D01*
X027948Y024200D01*
X028198Y024155D01*
X028448Y024104D01*
X028696Y024047D01*
X028943Y023984D01*
X029188Y023915D01*
X029431Y023840D01*
X029673Y023759D01*
X029912Y023672D01*
X030150Y023580D01*
X030385Y023482D01*
X030617Y023378D01*
X030847Y023269D01*
X031075Y023154D01*
X031299Y023033D01*
X031520Y022908D01*
X031739Y022776D01*
X031954Y022640D01*
X032166Y022499D01*
X032374Y022352D01*
X032579Y022201D01*
X032780Y022044D01*
X032977Y021883D01*
X033170Y021717D01*
X033359Y021547D01*
X033544Y021371D01*
X033725Y021192D01*
X033901Y021008D01*
X034073Y020820D01*
X034240Y020628D01*
X034403Y020432D01*
X034560Y020232D01*
X034713Y020028D01*
X034861Y019821D01*
X035004Y019610D01*
X035142Y019396D01*
X035274Y019178D01*
X035401Y018958D01*
X035523Y018734D01*
X035639Y018507D01*
X035750Y018278D01*
X035855Y018046D01*
X035955Y017812D01*
X036049Y017575D01*
X036137Y017336D01*
X036220Y017095D01*
X036296Y016852D01*
X036367Y016608D01*
X036432Y016361D01*
X036490Y016113D01*
X036543Y015864D01*
X036590Y015614D01*
X036630Y015362D01*
X036665Y015110D01*
D11*
X022115Y007234D02*
X021868Y007234D01*
X021744Y007111D01*
X021868Y006988D01*
X022115Y006988D01*
X022115Y006866D02*
X021744Y006866D01*
X021744Y006681D01*
X021806Y006619D01*
X021930Y006619D01*
X021991Y006681D01*
X021991Y006866D01*
X021991Y006743D02*
X022115Y006619D01*
X022115Y006498D02*
X022115Y006251D01*
X022115Y006130D02*
X021744Y006130D01*
X021744Y005883D01*
X021930Y006006D02*
X021930Y006130D01*
X021744Y006251D02*
X021744Y006498D01*
X022115Y006498D01*
X021930Y006498D02*
X021930Y006374D01*
X021930Y006988D02*
X021930Y007234D01*
X013368Y014697D02*
X013245Y014573D01*
X013121Y014697D01*
X013121Y014944D01*
X013000Y014944D02*
X012876Y014944D01*
X012938Y014944D02*
X012938Y014573D01*
X013000Y014573D02*
X012876Y014573D01*
X012754Y014573D02*
X012754Y014944D01*
X012507Y014573D01*
X012507Y014944D01*
X012386Y014944D02*
X012386Y014697D01*
X012262Y014573D01*
X012139Y014697D01*
X012139Y014944D01*
X013368Y014944D02*
X013368Y014697D01*
D12*
X013326Y014012D02*
X013095Y014012D01*
X013019Y013935D01*
X013019Y013628D01*
X013095Y013551D01*
X013326Y013551D01*
X013326Y014012D01*
X012865Y013858D02*
X012712Y014012D01*
X012712Y013551D01*
X012865Y013551D02*
X012558Y013551D01*
X012405Y013628D02*
X012328Y013551D01*
X012175Y013551D01*
X012098Y013628D01*
X012098Y013705D01*
X012175Y013782D01*
X012251Y013782D01*
X012175Y013782D02*
X012098Y013858D01*
X012098Y013935D01*
X012175Y014012D01*
X012328Y014012D01*
X012405Y013935D01*
X012251Y013028D02*
X012251Y012567D01*
X012098Y012567D02*
X012405Y012567D01*
X012558Y012567D02*
X012865Y012567D01*
X012712Y012567D02*
X012712Y013028D01*
X012865Y012874D01*
X013019Y012951D02*
X013019Y012644D01*
X013095Y012567D01*
X013326Y012567D01*
X013326Y013028D01*
X013095Y013028D01*
X013019Y012951D01*
X012405Y012874D02*
X012251Y013028D01*
X012491Y011847D02*
X012798Y011847D01*
X012798Y011616D01*
X012645Y011693D01*
X012568Y011693D01*
X012491Y011616D01*
X012491Y011463D01*
X012568Y011386D01*
X012722Y011386D01*
X012798Y011463D01*
X012952Y011463D02*
X012952Y011770D01*
X013029Y011847D01*
X013259Y011847D01*
X013259Y011386D01*
X013029Y011386D01*
X012952Y011463D01*
X013029Y010862D02*
X013259Y010862D01*
X013259Y010402D01*
X013029Y010402D01*
X012952Y010479D01*
X012952Y010786D01*
X013029Y010862D01*
X012798Y010786D02*
X012798Y010709D01*
X012722Y010632D01*
X012568Y010632D01*
X012491Y010555D01*
X012491Y010479D01*
X012568Y010402D01*
X012722Y010402D01*
X012798Y010479D01*
X012798Y010555D01*
X012722Y010632D01*
X012568Y010632D02*
X012491Y010709D01*
X012491Y010786D01*
X012568Y010862D01*
X012722Y010862D01*
X012798Y010786D01*
X013029Y009878D02*
X013259Y009878D01*
X013259Y009418D01*
X013029Y009418D01*
X012952Y009494D01*
X012952Y009801D01*
X013029Y009878D01*
X012798Y009648D02*
X012568Y009648D01*
X012491Y009571D01*
X012491Y009494D01*
X012568Y009418D01*
X012722Y009418D01*
X012798Y009494D01*
X012798Y009648D01*
X012645Y009801D01*
X012491Y009878D01*
X017469Y008061D02*
X017469Y007600D01*
X017622Y007754D01*
X017776Y007600D01*
X017776Y008061D01*
X017929Y007984D02*
X018006Y008061D01*
X018159Y008061D01*
X018236Y007984D01*
X018236Y007907D01*
X018159Y007831D01*
X018006Y007831D01*
X017929Y007754D01*
X017929Y007677D01*
X018006Y007600D01*
X018159Y007600D01*
X018236Y007677D01*
X018850Y007984D02*
X018850Y008061D01*
X019157Y008061D01*
X019310Y007984D02*
X019387Y008061D01*
X019617Y008061D01*
X019617Y007600D01*
X019387Y007600D01*
X019310Y007677D01*
X019310Y007984D01*
X019157Y007677D02*
X019157Y007600D01*
X019157Y007677D02*
X018850Y007984D01*
X022490Y005044D02*
X022643Y005198D01*
X022950Y005198D01*
X022720Y005198D02*
X022720Y004891D01*
X022643Y004891D02*
X022950Y004891D01*
X022874Y004738D02*
X022567Y004431D01*
X022874Y004431D01*
X022950Y004507D01*
X022950Y004661D01*
X022874Y004738D01*
X022567Y004738D01*
X022490Y004661D01*
X022490Y004507D01*
X022567Y004431D01*
X022643Y004891D02*
X022490Y005044D01*
X023635Y005044D02*
X023789Y004891D01*
X024096Y004891D01*
X024096Y004738D02*
X024096Y004431D01*
X024096Y004584D02*
X023635Y004584D01*
X023789Y004738D01*
X023865Y004891D02*
X023865Y005198D01*
X023789Y005198D02*
X024096Y005198D01*
X023789Y005198D02*
X023635Y005044D01*
X024584Y005044D02*
X024737Y004891D01*
X025044Y004891D01*
X025044Y004738D02*
X024737Y004431D01*
X024661Y004431D01*
X024584Y004507D01*
X024584Y004661D01*
X024661Y004738D01*
X024814Y004891D02*
X024814Y005198D01*
X024737Y005198D02*
X024584Y005044D01*
X024737Y005198D02*
X025044Y005198D01*
X025044Y004738D02*
X025044Y004431D01*
X025602Y004507D02*
X025679Y004431D01*
X025756Y004431D01*
X025832Y004507D01*
X025909Y004431D01*
X025986Y004431D01*
X026063Y004507D01*
X026063Y004661D01*
X025986Y004738D01*
X026063Y004891D02*
X025756Y004891D01*
X025602Y005044D01*
X025756Y005198D01*
X026063Y005198D01*
X025832Y005198D02*
X025832Y004891D01*
X025679Y004738D02*
X025602Y004661D01*
X025602Y004507D01*
X025832Y004507D02*
X025832Y004584D01*
X026521Y004507D02*
X026751Y004738D01*
X026751Y004431D01*
X026981Y004507D02*
X026521Y004507D01*
X026674Y004891D02*
X026981Y004891D01*
X026751Y004891D02*
X026751Y005198D01*
X026674Y005198D02*
X026521Y005044D01*
X026674Y004891D01*
X026674Y005198D02*
X026981Y005198D01*
X027646Y005044D02*
X027800Y004891D01*
X028107Y004891D01*
X028030Y004738D02*
X028107Y004661D01*
X028107Y004507D01*
X028030Y004431D01*
X027876Y004431D01*
X027800Y004507D01*
X027800Y004584D01*
X027876Y004738D01*
X027646Y004738D01*
X027646Y004431D01*
X027876Y004891D02*
X027876Y005198D01*
X027800Y005198D02*
X027646Y005044D01*
X027800Y005198D02*
X028107Y005198D01*
X013456Y015520D02*
X013225Y015520D01*
X013149Y015597D01*
X013149Y015904D01*
X013225Y015980D01*
X013456Y015980D01*
X013456Y015520D01*
X012995Y015597D02*
X012919Y015520D01*
X012765Y015520D01*
X012688Y015597D01*
X012688Y015673D01*
X012765Y015750D01*
X012842Y015750D01*
X012765Y015750D02*
X012688Y015827D01*
X012688Y015904D01*
X012765Y015980D01*
X012919Y015980D01*
X012995Y015904D01*
X013089Y016663D02*
X013012Y016739D01*
X013012Y016893D01*
X013166Y016893D01*
X013319Y017046D02*
X013319Y016739D01*
X013242Y016663D01*
X013089Y016663D01*
X012859Y016663D02*
X012859Y017123D01*
X012552Y016663D01*
X012552Y017123D01*
X012398Y017123D02*
X012168Y017123D01*
X012091Y017046D01*
X012091Y016739D01*
X012168Y016663D01*
X012398Y016663D01*
X012398Y017123D01*
X013012Y017046D02*
X013089Y017123D01*
X013242Y017123D01*
X013319Y017046D01*
X015126Y020184D02*
X015049Y020261D01*
X015049Y020414D01*
X015126Y020491D01*
X015126Y020184D02*
X015203Y020184D01*
X015510Y020491D01*
X015510Y020184D01*
X016033Y020337D02*
X016187Y020491D01*
X016033Y020337D02*
X016494Y020337D01*
X016494Y020184D02*
X016494Y020491D01*
X016494Y020644D02*
X016494Y020951D01*
X016494Y020798D02*
X016033Y020798D01*
X016187Y020951D01*
X016110Y021105D02*
X016033Y021181D01*
X016033Y021412D01*
X016494Y021412D01*
X016494Y021181D01*
X016417Y021105D01*
X016110Y021105D01*
X015510Y021181D02*
X015433Y021105D01*
X015126Y021105D01*
X015049Y021181D01*
X015049Y021412D01*
X015510Y021412D01*
X015510Y021181D01*
X015510Y020951D02*
X015510Y020644D01*
X015510Y020798D02*
X015049Y020798D01*
X015203Y020951D01*
X013804Y022686D02*
X013912Y022795D01*
X013912Y022903D01*
X014075Y022957D02*
X014292Y023174D01*
X014184Y023066D02*
X013858Y023391D01*
X014075Y023391D01*
X014129Y023554D02*
X014346Y023337D01*
X014455Y023337D01*
X014618Y023500D01*
X014292Y023825D01*
X014129Y023663D01*
X014129Y023554D01*
X013695Y023120D02*
X013587Y023120D01*
X013478Y023012D01*
X013478Y022903D01*
X013533Y022849D01*
X013641Y022849D01*
X013641Y022740D01*
X013695Y022686D01*
X013804Y022686D01*
X013641Y022849D02*
X013695Y022903D01*
X016628Y022903D02*
X016845Y022686D01*
X016954Y022686D01*
X017062Y022795D01*
X017062Y022903D01*
X016628Y022903D01*
X016628Y023012D01*
X016736Y023120D01*
X016845Y023120D01*
X017062Y022903D01*
X017225Y022957D02*
X017442Y023174D01*
X017333Y023066D02*
X017008Y023391D01*
X017225Y023391D01*
X017279Y023554D02*
X017279Y023663D01*
X017442Y023825D01*
X017767Y023500D01*
X017605Y023337D01*
X017496Y023337D01*
X017279Y023554D01*
X018121Y021412D02*
X018121Y021181D01*
X018197Y021105D01*
X018504Y021105D01*
X018581Y021181D01*
X018581Y021412D01*
X018121Y021412D01*
X018197Y020951D02*
X018274Y020951D01*
X018351Y020874D01*
X018351Y020644D01*
X018504Y020644D02*
X018197Y020644D01*
X018121Y020721D01*
X018121Y020874D01*
X018197Y020951D01*
X018504Y020951D02*
X018581Y020874D01*
X018581Y020721D01*
X018504Y020644D01*
X019272Y020721D02*
X019348Y020644D01*
X019425Y020644D01*
X019502Y020721D01*
X019502Y020874D01*
X019425Y020951D01*
X019348Y020951D01*
X019272Y020874D01*
X019272Y020721D01*
X019502Y020721D02*
X019579Y020644D01*
X019655Y020644D01*
X019732Y020721D01*
X019732Y020874D01*
X019655Y020951D01*
X019579Y020951D01*
X019502Y020874D01*
X019655Y021105D02*
X019348Y021105D01*
X019272Y021181D01*
X019272Y021412D01*
X019732Y021412D01*
X019732Y021181D01*
X019655Y021105D01*
X020505Y020959D02*
X020582Y020959D01*
X020889Y021265D01*
X020966Y021265D01*
X020966Y020959D01*
X020889Y020805D02*
X020582Y020805D01*
X020505Y020728D01*
X020505Y020498D01*
X020966Y020498D01*
X020966Y020728D01*
X020889Y020805D01*
X021671Y021007D02*
X021671Y021237D01*
X022132Y021237D01*
X022132Y021007D01*
X022055Y020930D01*
X021748Y020930D01*
X021671Y021007D01*
X021901Y020777D02*
X021901Y020547D01*
X021978Y020470D01*
X022055Y020470D01*
X022132Y020547D01*
X022132Y020700D01*
X022055Y020777D01*
X021901Y020777D01*
X021748Y020623D01*
X021671Y020470D01*
X022691Y020470D02*
X022691Y020777D01*
X022921Y020777D01*
X022845Y020623D01*
X022845Y020547D01*
X022921Y020470D01*
X023075Y020470D01*
X023152Y020547D01*
X023152Y020700D01*
X023075Y020777D01*
X023075Y020930D02*
X022768Y020930D01*
X022691Y021007D01*
X022691Y021237D01*
X023152Y021237D01*
X023152Y021007D01*
X023075Y020930D01*
X023677Y021007D02*
X023677Y021237D01*
X024137Y021237D01*
X024137Y021007D01*
X024061Y020930D01*
X023754Y020930D01*
X023677Y021007D01*
X023907Y020777D02*
X023907Y020470D01*
X024137Y020547D02*
X023677Y020547D01*
X023907Y020777D01*
X024661Y020700D02*
X024661Y020547D01*
X024738Y020470D01*
X024815Y020470D01*
X024891Y020547D01*
X024968Y020470D01*
X025045Y020470D01*
X025122Y020547D01*
X025122Y020700D01*
X025045Y020777D01*
X025045Y020930D02*
X024738Y020930D01*
X024661Y021007D01*
X024661Y021237D01*
X025122Y021237D01*
X025122Y021007D01*
X025045Y020930D01*
X024738Y020777D02*
X024661Y020700D01*
X024891Y020623D02*
X024891Y020547D01*
X025645Y020547D02*
X025645Y020700D01*
X025722Y020777D01*
X025722Y020930D02*
X025645Y021007D01*
X025645Y021237D01*
X026106Y021237D01*
X026106Y021007D01*
X026029Y020930D01*
X025722Y020930D01*
X026106Y020777D02*
X025799Y020470D01*
X025722Y020470D01*
X025645Y020547D01*
X026106Y020470D02*
X026106Y020777D01*
X026661Y020623D02*
X027122Y020623D01*
X027122Y020470D02*
X027122Y020777D01*
X027045Y020930D02*
X026738Y020930D01*
X026661Y021007D01*
X026661Y021237D01*
X027122Y021237D01*
X027122Y021007D01*
X027045Y020930D01*
X026815Y020777D02*
X026661Y020623D01*
X027751Y020547D02*
X027828Y020470D01*
X028135Y020777D01*
X028212Y020700D01*
X028212Y020547D01*
X028135Y020470D01*
X027828Y020470D01*
X027751Y020547D02*
X027751Y020700D01*
X027828Y020777D01*
X028135Y020777D01*
X028135Y020930D02*
X027828Y020930D01*
X027751Y021007D01*
X027751Y021237D01*
X028212Y021237D01*
X028212Y021007D01*
X028135Y020930D01*
D13*
X016996Y006240D02*
X016589Y006240D01*
X016996Y006240D02*
X017199Y006037D01*
X016996Y005833D01*
X016589Y005833D01*
X016690Y005632D02*
X016589Y005531D01*
X016589Y005327D01*
X016690Y005225D01*
X016792Y005225D01*
X016894Y005327D01*
X016996Y005225D01*
X017097Y005225D01*
X017199Y005327D01*
X017199Y005531D01*
X017097Y005632D01*
X016894Y005429D02*
X016894Y005327D01*
X017097Y005025D02*
X017097Y004923D01*
X017199Y004923D01*
X017199Y005025D01*
X017097Y005025D01*
X017097Y004721D02*
X017199Y004619D01*
X017199Y004416D01*
X017097Y004314D01*
X016996Y004314D01*
X016894Y004416D01*
X016894Y004517D01*
X016894Y004416D02*
X016792Y004314D01*
X016690Y004314D01*
X016589Y004416D01*
X016589Y004619D01*
X016690Y004721D01*
X016085Y004934D02*
X015984Y004832D01*
X015882Y004832D01*
X015780Y004934D01*
X015780Y005137D01*
X015678Y005239D01*
X015577Y005239D01*
X015475Y005137D01*
X015475Y004934D01*
X015577Y004832D01*
X015475Y004631D02*
X015475Y004224D01*
X015475Y004428D02*
X016085Y004428D01*
X016085Y004934D02*
X016085Y005137D01*
X015984Y005239D01*
X016085Y005439D02*
X015882Y005643D01*
X015882Y005541D02*
X015882Y005846D01*
X016085Y005846D02*
X015475Y005846D01*
X015475Y005541D01*
X015577Y005439D01*
X015780Y005439D01*
X015882Y005541D01*
X017561Y005439D02*
X017968Y005439D01*
X018172Y005643D01*
X017968Y005846D01*
X017561Y005846D01*
X017561Y005239D02*
X017561Y005035D01*
X017561Y005137D02*
X018172Y005137D01*
X018172Y005239D02*
X018172Y005035D01*
X018172Y004834D02*
X017561Y004834D01*
X018172Y004427D01*
X017561Y004427D01*
X018593Y004326D02*
X018593Y004631D01*
X019203Y004631D01*
X019203Y004326D01*
X019102Y004224D01*
X018695Y004224D01*
X018593Y004326D01*
X018593Y004832D02*
X019203Y004832D01*
X018593Y005239D01*
X019203Y005239D01*
X019102Y005439D02*
X018898Y005439D01*
X018898Y005643D01*
X018695Y005846D02*
X019102Y005846D01*
X019203Y005745D01*
X019203Y005541D01*
X019102Y005439D01*
X018695Y005439D02*
X018593Y005541D01*
X018593Y005745D01*
X018695Y005846D01*
X019577Y005745D02*
X019577Y005541D01*
X019679Y005439D01*
X019882Y005439D02*
X019882Y005643D01*
X019882Y005439D02*
X020086Y005439D01*
X020188Y005541D01*
X020188Y005745D01*
X020086Y005846D01*
X019679Y005846D01*
X019577Y005745D01*
X019577Y005239D02*
X020188Y004832D01*
X019577Y004832D01*
X019577Y004631D02*
X019577Y004326D01*
X019679Y004224D01*
X020086Y004224D01*
X020188Y004326D01*
X020188Y004631D01*
X019577Y004631D01*
X019577Y005239D02*
X020188Y005239D01*
X020711Y005243D02*
X021118Y005243D01*
X021322Y005446D01*
X021118Y005650D01*
X020711Y005650D01*
X020711Y005042D02*
X020711Y004838D01*
X020711Y004940D02*
X021322Y004940D01*
X021322Y005042D02*
X021322Y004838D01*
X021322Y004637D02*
X020711Y004637D01*
X021322Y004230D01*
X020711Y004230D01*
D14*
X030464Y012698D03*
D15*
X019172Y010319D02*
X019172Y009106D01*
X018660Y008712D02*
X017683Y008712D01*
X017172Y009106D02*
X017172Y010319D01*
X017672Y010712D02*
X018660Y010712D01*
X017672Y009712D02*
X017674Y009756D01*
X017680Y009800D01*
X017690Y009843D01*
X017703Y009885D01*
X017720Y009926D01*
X017741Y009965D01*
X017765Y010002D01*
X017792Y010037D01*
X017822Y010069D01*
X017855Y010099D01*
X017891Y010125D01*
X017928Y010149D01*
X017968Y010168D01*
X018009Y010185D01*
X018052Y010197D01*
X018095Y010206D01*
X018139Y010211D01*
X018183Y010212D01*
X018227Y010209D01*
X018271Y010202D01*
X018314Y010191D01*
X018356Y010177D01*
X018396Y010159D01*
X018435Y010137D01*
X018471Y010113D01*
X018505Y010085D01*
X018537Y010054D01*
X018566Y010020D01*
X018592Y009984D01*
X018614Y009946D01*
X018633Y009906D01*
X018648Y009864D01*
X018660Y009822D01*
X018668Y009778D01*
X018672Y009734D01*
X018672Y009690D01*
X018668Y009646D01*
X018660Y009602D01*
X018648Y009560D01*
X018633Y009518D01*
X018614Y009478D01*
X018592Y009440D01*
X018566Y009404D01*
X018537Y009370D01*
X018505Y009339D01*
X018471Y009311D01*
X018435Y009287D01*
X018396Y009265D01*
X018356Y009247D01*
X018314Y009233D01*
X018271Y009222D01*
X018227Y009215D01*
X018183Y009212D01*
X018139Y009213D01*
X018095Y009218D01*
X018052Y009227D01*
X018009Y009239D01*
X017968Y009256D01*
X017928Y009275D01*
X017891Y009299D01*
X017855Y009325D01*
X017822Y009355D01*
X017792Y009387D01*
X017765Y009422D01*
X017741Y009459D01*
X017720Y009498D01*
X017703Y009539D01*
X017690Y009581D01*
X017680Y009624D01*
X017674Y009668D01*
X017672Y009712D01*
D16*
X017751Y010838D03*
X024411Y009118D03*
X016971Y017418D03*
X013771Y017718D03*
X014031Y020798D03*
D17*
X017671Y020568D03*
X019391Y018348D03*
X017811Y017528D03*
X017771Y017548D03*
X017751Y017548D03*
X017191Y017428D03*
X017171Y017428D03*
X016831Y016368D03*
X013691Y017748D03*
X016431Y013988D03*
X018951Y013028D03*
X017651Y010688D03*
X017631Y010648D03*
X017611Y010628D03*
X017551Y010528D03*
X017511Y010448D03*
X017491Y010448D03*
X017371Y010268D03*
X017551Y008588D03*
X019651Y009828D03*
X019691Y009788D03*
X019711Y009768D03*
X019731Y009768D03*
X019771Y009748D03*
X019791Y009728D03*
X019811Y009728D03*
X024391Y009128D03*
D18*
X024371Y009128D03*
X023411Y007308D03*
X019631Y009848D03*
X017351Y010248D03*
X017331Y010208D03*
X017271Y010148D03*
X017251Y010128D03*
X017191Y010048D03*
X017171Y010028D03*
X017091Y009928D03*
X017071Y009928D03*
X017051Y009888D03*
X016351Y012388D03*
X016371Y012428D03*
X016391Y014048D03*
X018891Y012968D03*
X018931Y013008D03*
X021911Y011688D03*
X023571Y012248D03*
X020331Y016328D03*
X019131Y016948D03*
X018811Y017128D03*
X018791Y017148D03*
X018751Y017168D03*
X018731Y017188D03*
X018711Y017188D03*
X018691Y017188D03*
X018671Y017188D03*
X018591Y017228D03*
X018571Y017228D03*
X018531Y017248D03*
X018491Y017268D03*
X018471Y017268D03*
X018391Y017308D03*
X018351Y017328D03*
X018331Y017328D03*
X018291Y017348D03*
X018251Y017368D03*
X018231Y017368D03*
X018151Y017408D03*
X018131Y017408D03*
X018111Y017408D03*
X018091Y017428D03*
X018051Y017448D03*
X018031Y017448D03*
X018011Y017448D03*
X017971Y017468D03*
X017951Y017488D03*
X017931Y017488D03*
X017891Y017508D03*
X016411Y016108D03*
X014051Y020828D03*
D19*
X013611Y017798D03*
X016391Y016118D03*
X016791Y016398D03*
X019331Y018358D03*
X016331Y014158D03*
X016351Y014118D03*
X018851Y012898D03*
X016331Y012358D03*
X019591Y009918D03*
X016711Y009578D03*
X016671Y009538D03*
X016631Y009498D03*
X016531Y009418D03*
X024351Y009138D03*
D20*
X024331Y009128D03*
X023391Y007308D03*
X020971Y010428D03*
X020791Y011608D03*
X018831Y012868D03*
X020491Y013328D03*
X023531Y012228D03*
X016651Y009508D03*
X016611Y009488D03*
X016591Y009468D03*
X016571Y009448D03*
X016551Y009428D03*
X016511Y009388D03*
X016491Y009388D03*
X016471Y009368D03*
X016431Y009348D03*
X016411Y009328D03*
X016351Y009288D03*
X016271Y012268D03*
X016291Y012288D03*
X016311Y014188D03*
X014791Y014448D03*
D21*
X016291Y014238D03*
X018711Y012558D03*
X016251Y012238D03*
X016451Y009358D03*
X016391Y009318D03*
X016371Y009298D03*
X016331Y009258D03*
X016311Y009258D03*
X016251Y009218D03*
X016231Y009198D03*
X024311Y009138D03*
X013591Y017818D03*
X012491Y019498D03*
X014071Y020818D03*
X017651Y020558D03*
X019291Y018358D03*
X019311Y018358D03*
D22*
X013571Y017838D03*
X012511Y019478D03*
X016271Y014258D03*
X016211Y012158D03*
X016131Y009138D03*
X016051Y009098D03*
X016011Y009058D03*
X015971Y009038D03*
X015951Y009038D03*
X015891Y008998D03*
X015831Y008958D03*
X021891Y011678D03*
X023471Y012218D03*
X023491Y012218D03*
X024271Y009138D03*
X024291Y009138D03*
D23*
X024251Y009148D03*
X024231Y009148D03*
X023331Y007308D03*
X019551Y010008D03*
X020831Y011548D03*
X016151Y012028D03*
X016211Y014368D03*
X016351Y016148D03*
X019131Y018348D03*
X019151Y018348D03*
X019171Y018348D03*
X020431Y015988D03*
X015691Y008888D03*
X015651Y008868D03*
X015611Y008848D03*
X015591Y008848D03*
X015531Y008808D03*
X015471Y008788D03*
X015451Y008788D03*
X015431Y008768D03*
X015391Y008748D03*
X015371Y008748D03*
X015271Y008708D03*
D24*
X015251Y008698D03*
X015291Y008718D03*
X015311Y008718D03*
X015331Y008738D03*
X015351Y008738D03*
X015191Y008678D03*
X015171Y008678D03*
X015151Y008658D03*
X015131Y008658D03*
X015091Y008638D03*
X015071Y008638D03*
X019531Y010038D03*
X016131Y011998D03*
X016111Y011978D03*
X016171Y014438D03*
X014811Y014518D03*
X017491Y018098D03*
X017631Y020558D03*
X023431Y012218D03*
X024211Y009138D03*
D25*
X024191Y009148D03*
X023311Y007328D03*
X019511Y010048D03*
X023411Y012208D03*
X018971Y012908D03*
X015231Y008688D03*
X015211Y008688D03*
X015111Y008648D03*
X015051Y008628D03*
X015031Y008628D03*
X014991Y008608D03*
X014971Y008608D03*
X014951Y008608D03*
X014931Y008588D03*
X014911Y008588D03*
X013511Y017888D03*
X013491Y017888D03*
X012551Y019468D03*
X019071Y018348D03*
X019091Y018348D03*
X019111Y018348D03*
D26*
X019051Y018358D03*
X019031Y018358D03*
X019011Y018358D03*
X014091Y020778D03*
X016131Y014538D03*
X016151Y014498D03*
X020511Y013338D03*
X023391Y012198D03*
X020851Y011518D03*
X024171Y009158D03*
X023291Y007338D03*
X015011Y008618D03*
X014891Y008578D03*
X014831Y008558D03*
X014811Y008558D03*
X014791Y008558D03*
X014751Y008538D03*
X014731Y008538D03*
D27*
X014711Y008528D03*
X014691Y008528D03*
X014671Y008528D03*
X014611Y008508D03*
X014531Y008488D03*
X014511Y008488D03*
X014491Y008488D03*
X014771Y008548D03*
X014851Y008568D03*
X014871Y008568D03*
X016071Y011888D03*
X016091Y011928D03*
X016111Y014548D03*
X016331Y016148D03*
X016871Y016828D03*
X018471Y018548D03*
X018411Y018588D03*
X018351Y018628D03*
X018331Y018628D03*
X018551Y018488D03*
X018571Y018488D03*
X018651Y018448D03*
X018771Y018408D03*
X018791Y018408D03*
X018931Y018368D03*
X018951Y018368D03*
X018971Y018368D03*
X018991Y018368D03*
X013471Y017908D03*
X013451Y017908D03*
X012571Y019448D03*
X023371Y012188D03*
X024131Y009168D03*
X024151Y009168D03*
X023271Y007348D03*
D28*
X024091Y009178D03*
X024111Y009178D03*
X020951Y010438D03*
X018991Y011758D03*
X018871Y012158D03*
X020531Y013338D03*
X023351Y012178D03*
X017611Y008598D03*
X014651Y008518D03*
X014631Y008518D03*
X014591Y008498D03*
X014571Y008498D03*
X014551Y008498D03*
X014471Y008478D03*
X014451Y008478D03*
X014431Y008478D03*
X016051Y011838D03*
X018611Y018458D03*
X018631Y018458D03*
X018671Y018438D03*
X018691Y018438D03*
X018731Y018418D03*
X018751Y018418D03*
X018811Y018398D03*
X018831Y018398D03*
X018871Y018378D03*
X018891Y018378D03*
X018911Y018378D03*
X018591Y018478D03*
X018531Y018498D03*
X018511Y018518D03*
X018491Y018538D03*
X018451Y018558D03*
X018391Y018598D03*
X018371Y018618D03*
X018311Y018638D03*
X018291Y018638D03*
D29*
X018271Y018648D03*
X018251Y018648D03*
X018231Y018648D03*
X018431Y018568D03*
X018711Y018428D03*
X018851Y018388D03*
X017471Y018088D03*
X017611Y020548D03*
X014111Y020768D03*
X012591Y019448D03*
X013411Y017928D03*
X013431Y017928D03*
X016091Y014628D03*
X018851Y012208D03*
X018891Y012068D03*
X018911Y012028D03*
X018931Y011928D03*
X018971Y011808D03*
X019491Y010128D03*
X017631Y008588D03*
X014411Y008468D03*
X014391Y008468D03*
X014371Y008468D03*
X014351Y008468D03*
X016031Y011808D03*
X023331Y012168D03*
X024051Y009188D03*
X024071Y009188D03*
X023251Y007348D03*
D30*
X023231Y007358D03*
X024011Y009198D03*
X024031Y009198D03*
X020931Y010438D03*
X018951Y011898D03*
X018831Y012238D03*
X018991Y012858D03*
X016071Y014658D03*
X016051Y014698D03*
X016031Y014718D03*
X016311Y016158D03*
X013391Y017938D03*
X017831Y018738D03*
X018111Y018658D03*
X018131Y018658D03*
X018151Y018658D03*
X018171Y018658D03*
X018191Y018658D03*
X018211Y018658D03*
X023311Y012158D03*
X014331Y008458D03*
X014311Y008458D03*
X014291Y008458D03*
X014271Y008458D03*
X014251Y008458D03*
X014191Y008438D03*
X014171Y008438D03*
D31*
X014151Y008428D03*
X014131Y008428D03*
X014111Y008428D03*
X014091Y008428D03*
X014071Y008428D03*
X014051Y008428D03*
X014031Y008428D03*
X014211Y008448D03*
X014231Y008448D03*
X019471Y010168D03*
X016011Y011748D03*
X014831Y014568D03*
X013371Y017948D03*
X013351Y017948D03*
X012611Y019448D03*
X017771Y018768D03*
X017791Y018748D03*
X017811Y018748D03*
X017851Y018728D03*
X017871Y018728D03*
X017911Y018708D03*
X018051Y018668D03*
X018071Y018668D03*
X018091Y018668D03*
X023951Y009208D03*
X023971Y009208D03*
X023991Y009208D03*
X023211Y007368D03*
D32*
X023191Y007378D03*
X023911Y009218D03*
X023931Y009218D03*
X019451Y010218D03*
X023251Y012138D03*
X023271Y012158D03*
X023291Y012158D03*
X014011Y008418D03*
X013991Y008418D03*
X013971Y008418D03*
X013951Y008418D03*
X017711Y018758D03*
X017731Y018758D03*
X017751Y018758D03*
X017891Y018718D03*
X017931Y018698D03*
X017971Y018678D03*
X017991Y018678D03*
X018011Y018678D03*
X018031Y018678D03*
D33*
X017951Y018688D03*
X020331Y015868D03*
X018751Y012548D03*
X015991Y011708D03*
X019431Y010228D03*
X020911Y010448D03*
X023251Y009368D03*
X023311Y009348D03*
X023331Y009328D03*
X023351Y009328D03*
X023811Y009228D03*
X023831Y009228D03*
X023851Y009228D03*
X023871Y009228D03*
X023891Y009228D03*
X023171Y007388D03*
X023151Y007388D03*
X017651Y008608D03*
X013931Y008408D03*
X013911Y008408D03*
X013891Y008408D03*
X013871Y008408D03*
X013851Y008408D03*
X013831Y008408D03*
X013811Y008408D03*
X013791Y008408D03*
X013771Y008408D03*
X013751Y008408D03*
X013731Y008408D03*
X013711Y008408D03*
X013691Y008408D03*
X013671Y008408D03*
X013651Y008408D03*
X013631Y008408D03*
X013611Y008408D03*
X013591Y008408D03*
X023231Y012128D03*
D34*
X023211Y012118D03*
X020891Y011458D03*
X020871Y011458D03*
X018771Y012538D03*
X020551Y013338D03*
X020311Y015858D03*
X016011Y014798D03*
X015971Y011658D03*
X015491Y010478D03*
X013571Y008418D03*
X023111Y007418D03*
X023131Y007398D03*
X023591Y009278D03*
X023611Y009278D03*
X023731Y009258D03*
X023751Y009258D03*
X023771Y009258D03*
X023791Y009238D03*
X023431Y009318D03*
X023411Y009318D03*
X023391Y009318D03*
X023371Y009318D03*
X023291Y009358D03*
X023271Y009358D03*
X023231Y009378D03*
X013331Y017958D03*
X012651Y019418D03*
X012631Y019418D03*
X017571Y018798D03*
X017591Y018798D03*
X017651Y018758D03*
X017671Y018758D03*
X017691Y018758D03*
D35*
X017631Y018768D03*
X017611Y018768D03*
X017551Y018808D03*
X017591Y020528D03*
X013311Y017968D03*
X013291Y017968D03*
X013271Y017968D03*
X016291Y016168D03*
X016891Y016828D03*
X015991Y014828D03*
X020291Y015848D03*
X020411Y016008D03*
X023191Y012108D03*
X023091Y009408D03*
X023171Y009388D03*
X023191Y009388D03*
X023211Y009388D03*
X023451Y009308D03*
X023471Y009308D03*
X023491Y009308D03*
X023551Y009288D03*
X023571Y009288D03*
X023631Y009268D03*
X023651Y009268D03*
X023671Y009268D03*
X023691Y009268D03*
X023711Y009268D03*
X023091Y007428D03*
X015951Y011628D03*
X013551Y008408D03*
X013531Y008408D03*
X013511Y008408D03*
X013491Y008408D03*
X013471Y008408D03*
X013451Y008408D03*
X013431Y008408D03*
X013411Y008408D03*
X013391Y008408D03*
X013371Y008408D03*
X013351Y008408D03*
X013331Y008408D03*
X013311Y008408D03*
X013291Y008408D03*
X013271Y008408D03*
D36*
X017731Y010798D03*
X020751Y011698D03*
X021931Y011698D03*
X023611Y012238D03*
X020251Y016458D03*
X020191Y016518D03*
X020171Y016538D03*
X020131Y016558D03*
X020111Y016578D03*
X020071Y016598D03*
X020051Y016598D03*
X020031Y016618D03*
X019991Y016638D03*
X019971Y016638D03*
X019951Y016658D03*
X019911Y016678D03*
X019891Y016678D03*
X019851Y016698D03*
X019831Y016698D03*
X019791Y016718D03*
X019731Y016738D03*
X019691Y016758D03*
X019631Y016778D03*
X019611Y016778D03*
X019591Y016798D03*
X019571Y016818D03*
X019551Y016818D03*
X019531Y016818D03*
X019511Y016818D03*
X019491Y016838D03*
X019471Y016838D03*
X019451Y016858D03*
X019391Y016878D03*
X019371Y016878D03*
X019351Y016898D03*
X019331Y016898D03*
X019291Y016918D03*
X019271Y016938D03*
X017371Y017538D03*
X017351Y017518D03*
X017331Y017498D03*
X017311Y017498D03*
X017291Y017498D03*
X016851Y016358D03*
X013731Y017738D03*
D37*
X017211Y017448D03*
X017231Y017448D03*
X017251Y017468D03*
X017271Y017468D03*
X017391Y017548D03*
X017411Y017548D03*
X017471Y017568D03*
X017491Y017568D03*
X017511Y017568D03*
X017531Y017568D03*
X017551Y017568D03*
X017571Y017568D03*
X017591Y017568D03*
X017611Y017568D03*
X017631Y017568D03*
X017531Y018128D03*
X019411Y018348D03*
X019251Y016948D03*
X019231Y016948D03*
X019211Y016948D03*
X019191Y016948D03*
X019171Y016948D03*
X019311Y016908D03*
X019411Y016868D03*
X019431Y016868D03*
X019651Y016768D03*
X019671Y016768D03*
X019751Y016728D03*
X019771Y016728D03*
X019811Y016708D03*
X019871Y016688D03*
X020091Y016588D03*
X020151Y016548D03*
X020211Y016508D03*
X020231Y016488D03*
X020291Y016408D03*
X016451Y013968D03*
X016411Y012468D03*
X017711Y010788D03*
X017671Y010708D03*
X019831Y009708D03*
X019851Y009708D03*
X019891Y009688D03*
X019931Y009668D03*
X019951Y009668D03*
X023591Y012248D03*
X020471Y013328D03*
D38*
X018871Y012918D03*
X017391Y010298D03*
X017211Y010078D03*
X017151Y009998D03*
X017131Y009978D03*
X017031Y009878D03*
X017011Y009858D03*
X016991Y009838D03*
X016971Y009818D03*
X016951Y009798D03*
X016911Y009758D03*
X016891Y009738D03*
X016871Y009718D03*
X016851Y009698D03*
X019611Y009878D03*
X023551Y012238D03*
X016811Y016378D03*
X017911Y017498D03*
X018371Y017318D03*
X013651Y017778D03*
D39*
X016271Y016178D03*
X017511Y018818D03*
X017531Y018818D03*
X014131Y020718D03*
X012671Y019398D03*
X020571Y013338D03*
X023171Y012098D03*
X023071Y009418D03*
X023051Y009418D03*
X023111Y009398D03*
X023131Y009398D03*
X023151Y009398D03*
X023511Y009298D03*
X023531Y009298D03*
X023071Y007438D03*
X023051Y007438D03*
X017671Y008618D03*
X013251Y008418D03*
X013231Y008418D03*
X013211Y008418D03*
X015931Y011598D03*
D40*
X016231Y012188D03*
X016251Y014268D03*
X020811Y011588D03*
X019571Y009948D03*
X017571Y008588D03*
X016291Y009248D03*
X016271Y009228D03*
X016211Y009188D03*
X016191Y009168D03*
X016171Y009168D03*
X016151Y009148D03*
X016111Y009128D03*
X016091Y009108D03*
X016071Y009108D03*
X016031Y009088D03*
X023371Y007308D03*
X023511Y012228D03*
X019271Y018348D03*
X019251Y018348D03*
D41*
X019191Y018358D03*
X013531Y017858D03*
X012531Y019478D03*
X016191Y014418D03*
X016231Y014338D03*
X018731Y012558D03*
X019271Y011418D03*
X016191Y012118D03*
X016171Y012098D03*
X015791Y008938D03*
X015771Y008938D03*
X015711Y008898D03*
X015671Y008878D03*
X015631Y008858D03*
X015571Y008838D03*
X015551Y008818D03*
X015511Y008798D03*
X015491Y008798D03*
X015411Y008758D03*
X023351Y007318D03*
X023451Y012218D03*
D42*
X020771Y011658D03*
X018911Y012978D03*
X016411Y014038D03*
X014771Y014438D03*
X018431Y017278D03*
X018451Y017278D03*
X018411Y017298D03*
X018511Y017258D03*
X018551Y017238D03*
X018611Y017218D03*
X018631Y017218D03*
X018651Y017198D03*
X018771Y017158D03*
X018311Y017338D03*
X018271Y017358D03*
X018211Y017378D03*
X018191Y017398D03*
X018171Y017398D03*
X018071Y017438D03*
X017991Y017458D03*
X017871Y017518D03*
X017851Y017518D03*
X017831Y017518D03*
X017791Y017538D03*
X019371Y018358D03*
X013671Y017758D03*
X012471Y019498D03*
X017591Y010578D03*
X017571Y010558D03*
X017531Y010498D03*
X017471Y010418D03*
X017451Y010378D03*
X017431Y010358D03*
X017411Y010318D03*
X017311Y010198D03*
X017291Y010178D03*
X017231Y010098D03*
X019671Y009818D03*
X023431Y007298D03*
D43*
X023031Y007448D03*
X023011Y007468D03*
X022991Y007468D03*
X022971Y007488D03*
X022951Y007488D03*
X022971Y009428D03*
X022991Y009428D03*
X023011Y009428D03*
X023031Y009428D03*
X020911Y011428D03*
X019091Y011308D03*
X019011Y011548D03*
X015911Y011528D03*
X013191Y008428D03*
X013171Y008428D03*
X013151Y008428D03*
X013131Y008428D03*
X013111Y008428D03*
X013091Y008428D03*
X013071Y008428D03*
X013051Y008428D03*
X023111Y012068D03*
X023151Y012088D03*
X015971Y014888D03*
X016911Y016828D03*
X017491Y018808D03*
X017571Y020528D03*
X013251Y017968D03*
X013231Y017968D03*
X013211Y017968D03*
X013191Y017968D03*
X013171Y017968D03*
X013151Y017968D03*
X013131Y017968D03*
X013111Y017968D03*
X012691Y019388D03*
D44*
X012711Y019378D03*
X014151Y020698D03*
X013091Y017958D03*
X013071Y017958D03*
X013051Y017958D03*
X013031Y017958D03*
X013011Y017938D03*
X012991Y017938D03*
X012971Y017938D03*
X012951Y017938D03*
X016251Y016178D03*
X020271Y015838D03*
X020591Y013318D03*
X023071Y012038D03*
X023091Y012058D03*
X023131Y012078D03*
X019411Y010318D03*
X019071Y011358D03*
X019051Y011458D03*
X019031Y011498D03*
X015891Y011498D03*
X017691Y008618D03*
X013031Y008438D03*
X013011Y008438D03*
X012991Y008438D03*
X012971Y008438D03*
X012931Y008458D03*
X012911Y008458D03*
X012891Y008458D03*
X012871Y008458D03*
X012851Y008458D03*
X022831Y007558D03*
X022851Y007558D03*
X022871Y007538D03*
X022911Y009418D03*
X022931Y009418D03*
X022951Y009418D03*
D45*
X022891Y009428D03*
X022871Y009428D03*
X022711Y007628D03*
X022751Y007608D03*
X022771Y007588D03*
X022811Y007568D03*
X022891Y007528D03*
X022911Y007508D03*
X022931Y007508D03*
X019391Y010348D03*
X018791Y012548D03*
X019011Y012808D03*
X015951Y014928D03*
X016131Y017188D03*
X016151Y017188D03*
X017471Y018788D03*
X020391Y015988D03*
X020251Y015828D03*
X023051Y012028D03*
X012951Y008448D03*
X012831Y008468D03*
X012811Y008468D03*
X012851Y017928D03*
X012871Y017928D03*
X012891Y017928D03*
X012911Y017928D03*
X012931Y017928D03*
X012771Y019328D03*
X012751Y019348D03*
X012731Y019368D03*
D46*
X012791Y019318D03*
X012811Y017918D03*
X012831Y017918D03*
X016171Y017178D03*
X015931Y014958D03*
X019111Y011218D03*
X019131Y011198D03*
X019331Y010518D03*
X019351Y010478D03*
X019371Y010378D03*
X020891Y010438D03*
X022611Y009478D03*
X022631Y009478D03*
X022691Y009458D03*
X022711Y009458D03*
X022751Y009438D03*
X022771Y009438D03*
X022791Y009438D03*
X022811Y009438D03*
X022831Y009438D03*
X022851Y009438D03*
X021811Y008258D03*
X021731Y008298D03*
X022731Y007618D03*
X022791Y007578D03*
X017731Y008618D03*
X017711Y008618D03*
X015511Y010478D03*
X012791Y008478D03*
X012771Y008478D03*
X012751Y008478D03*
X012731Y008478D03*
X012711Y008478D03*
X012691Y008478D03*
X023011Y011998D03*
X023031Y012018D03*
D47*
X022991Y011968D03*
X022971Y011968D03*
X019271Y010728D03*
X019031Y012788D03*
X016231Y016188D03*
X016931Y016828D03*
X016191Y017168D03*
X012791Y017908D03*
X012771Y017908D03*
X012751Y017908D03*
X012731Y017908D03*
X012711Y017908D03*
X012691Y017908D03*
X012651Y017888D03*
X012571Y017868D03*
X012551Y017868D03*
X012491Y017848D03*
X012811Y019308D03*
X022591Y009488D03*
X022651Y009468D03*
X022671Y009468D03*
X022731Y009448D03*
X021771Y008288D03*
X021751Y008288D03*
X021791Y008268D03*
X021871Y008208D03*
X022691Y007648D03*
X012671Y008488D03*
X012651Y008488D03*
X012631Y008488D03*
D48*
X012611Y008498D03*
X012591Y008498D03*
X012571Y008518D03*
X012551Y008518D03*
X012531Y008518D03*
X012471Y008538D03*
X015851Y011378D03*
X015871Y011418D03*
X020611Y013298D03*
X020631Y013298D03*
X022931Y011938D03*
X022951Y011958D03*
X020931Y011378D03*
X022191Y009638D03*
X022211Y009638D03*
X022231Y009638D03*
X022271Y009618D03*
X022291Y009598D03*
X022311Y009598D03*
X022371Y009578D03*
X022471Y009538D03*
X022491Y009538D03*
X022511Y009518D03*
X022531Y009518D03*
X022551Y009498D03*
X022571Y009498D03*
X021711Y008318D03*
X021671Y008338D03*
X021651Y008358D03*
X021831Y008238D03*
X021851Y008218D03*
X021891Y008198D03*
X021911Y008178D03*
X021931Y008178D03*
X021951Y008158D03*
X022671Y007678D03*
X015911Y015018D03*
X015891Y015058D03*
X016211Y017158D03*
X012871Y019258D03*
X012851Y019278D03*
X012831Y019298D03*
X012671Y017898D03*
X012631Y017878D03*
X012611Y017878D03*
X012591Y017878D03*
X012531Y017858D03*
X012511Y017858D03*
X012471Y017838D03*
X012451Y017838D03*
X012431Y017838D03*
X014171Y020678D03*
X017551Y020518D03*
X020371Y015998D03*
X020231Y015838D03*
D49*
X020211Y015848D03*
X016231Y017148D03*
X012971Y019188D03*
X012911Y019228D03*
X012891Y019248D03*
X012411Y017828D03*
X012391Y017828D03*
X017531Y020508D03*
X020651Y013268D03*
X022891Y011908D03*
X022911Y011928D03*
X019311Y010588D03*
X022131Y009668D03*
X022151Y009648D03*
X022171Y009648D03*
X022251Y009628D03*
X022331Y009588D03*
X022351Y009588D03*
X022391Y009568D03*
X022411Y009548D03*
X022431Y009548D03*
X022451Y009548D03*
X021691Y008328D03*
X021971Y008148D03*
X021991Y008148D03*
X022011Y008128D03*
X022051Y008108D03*
X022071Y008088D03*
X022591Y007728D03*
X022611Y007728D03*
X022631Y007708D03*
X022651Y007688D03*
X017751Y008628D03*
X012511Y008528D03*
X012491Y008528D03*
X012451Y008548D03*
X012431Y008548D03*
X012411Y008548D03*
X012391Y008548D03*
D50*
X012271Y008588D03*
X012251Y008608D03*
X012231Y008608D03*
X012151Y008628D03*
X015811Y011288D03*
X017831Y008668D03*
X017851Y008668D03*
X017871Y008668D03*
X017891Y008688D03*
X017931Y008708D03*
X017951Y008708D03*
X017971Y008728D03*
X017991Y008728D03*
X018031Y008748D03*
X020871Y010448D03*
X022051Y009708D03*
X022071Y009708D03*
X021611Y008388D03*
X022111Y008068D03*
X022171Y008028D03*
X022191Y008028D03*
X022211Y008008D03*
X022231Y007988D03*
X022251Y007988D03*
X022271Y007968D03*
X022291Y007968D03*
X022311Y007948D03*
X022331Y007948D03*
X022351Y007928D03*
X022391Y007888D03*
X022411Y007888D03*
X022431Y007868D03*
X022451Y007848D03*
X022511Y007808D03*
X022551Y007768D03*
X020951Y011348D03*
X022831Y011848D03*
X022871Y011888D03*
X020891Y013008D03*
X020671Y013248D03*
X016211Y016188D03*
X016251Y017128D03*
X016271Y017128D03*
X016291Y017128D03*
X013491Y018728D03*
X013471Y018728D03*
X013431Y018768D03*
X013411Y018768D03*
X013391Y018808D03*
X013371Y018808D03*
X013271Y018908D03*
X013211Y018988D03*
X013191Y018988D03*
X013131Y019048D03*
X013111Y019068D03*
X013091Y019088D03*
X013071Y019108D03*
X013051Y019128D03*
X013031Y019128D03*
X012991Y019168D03*
X012311Y017808D03*
X012251Y017788D03*
X012231Y017768D03*
X012211Y017768D03*
X012191Y017768D03*
X012171Y017768D03*
X012151Y017768D03*
X014851Y014708D03*
D51*
X019051Y012778D03*
X020871Y013038D03*
X022851Y011858D03*
X022111Y009678D03*
X022091Y009678D03*
X021631Y008378D03*
X022031Y008118D03*
X022091Y008078D03*
X022131Y008058D03*
X022151Y008038D03*
X022371Y007898D03*
X022471Y007838D03*
X022491Y007818D03*
X022531Y007798D03*
X022571Y007758D03*
X019291Y010638D03*
X019151Y011138D03*
X015831Y011318D03*
X017771Y008638D03*
X017791Y008638D03*
X017811Y008658D03*
X012371Y008558D03*
X012351Y008558D03*
X012331Y008578D03*
X012311Y008578D03*
X012291Y008578D03*
X008171Y013178D03*
X012271Y017798D03*
X012291Y017798D03*
X012331Y017818D03*
X012351Y017818D03*
X012371Y017818D03*
X013011Y019158D03*
X012951Y019198D03*
X012931Y019218D03*
X014191Y020658D03*
X020351Y015998D03*
X020191Y015838D03*
D52*
X016951Y016818D03*
X016191Y016198D03*
X013511Y018718D03*
X013451Y018738D03*
X013351Y018818D03*
X013331Y018858D03*
X013311Y018858D03*
X013291Y018898D03*
X013251Y018938D03*
X013231Y018958D03*
X013171Y018998D03*
X013151Y019038D03*
X012131Y017758D03*
X012111Y017738D03*
X012091Y017738D03*
X012051Y017718D03*
X018811Y012518D03*
X020691Y013238D03*
X020751Y013178D03*
X020851Y013078D03*
X022771Y011798D03*
X022811Y011818D03*
X019171Y011118D03*
X018191Y008818D03*
X018171Y008818D03*
X018151Y008818D03*
X018131Y008798D03*
X018111Y008798D03*
X018091Y008778D03*
X018051Y008758D03*
X018011Y008738D03*
X017911Y008698D03*
X021591Y008398D03*
X012211Y008618D03*
X012191Y008618D03*
X012171Y008618D03*
X012131Y008638D03*
X012071Y008658D03*
X012051Y008658D03*
D53*
X012031Y008668D03*
X011991Y008688D03*
X011971Y008688D03*
X012091Y008648D03*
X012111Y008648D03*
X015791Y011188D03*
X018211Y008828D03*
X018231Y008828D03*
X018251Y008848D03*
X018271Y008848D03*
X018291Y008868D03*
X018311Y008868D03*
X018331Y008868D03*
X018351Y008888D03*
X018371Y008888D03*
X018391Y008908D03*
X018411Y008908D03*
X018431Y008908D03*
X018071Y008768D03*
X022011Y009728D03*
X022031Y009728D03*
X022711Y011728D03*
X022731Y011748D03*
X022751Y011768D03*
X022791Y011808D03*
X020831Y013088D03*
X020811Y013128D03*
X020791Y013128D03*
X020771Y013168D03*
X020731Y013188D03*
X020171Y015848D03*
X013571Y018668D03*
X013531Y018688D03*
X012071Y017728D03*
X012031Y017708D03*
X012011Y017708D03*
X011991Y017708D03*
X011971Y017708D03*
D54*
X011951Y017698D03*
X011931Y017678D03*
X011891Y017658D03*
X011871Y017658D03*
X013551Y018678D03*
X013591Y018638D03*
X014211Y020618D03*
X017511Y020498D03*
X016311Y017118D03*
X016971Y016818D03*
X016171Y016198D03*
X020151Y015838D03*
X020711Y013218D03*
X022691Y011718D03*
X018551Y008958D03*
X018531Y008958D03*
X018511Y008958D03*
X018491Y008938D03*
X018471Y008938D03*
X018451Y008918D03*
X012011Y008678D03*
X011951Y008698D03*
X011931Y008698D03*
X011891Y008718D03*
D55*
X011911Y008708D03*
X011871Y008728D03*
X011851Y008748D03*
X011831Y008748D03*
X015751Y011128D03*
X015771Y011168D03*
X018571Y008968D03*
X021571Y008428D03*
X020971Y011308D03*
X022671Y011668D03*
X016331Y017108D03*
X013611Y018628D03*
X011911Y017668D03*
X011851Y017648D03*
X011831Y017648D03*
X011791Y017628D03*
X014231Y020608D03*
X017491Y020488D03*
D56*
X013651Y018578D03*
X013631Y018598D03*
X011811Y017638D03*
X011771Y017618D03*
X011731Y017598D03*
X011691Y017578D03*
X016991Y016818D03*
X017011Y016818D03*
X021071Y012618D03*
X022511Y011478D03*
X022471Y011418D03*
X022431Y011378D03*
X022391Y011338D03*
X022611Y011598D03*
X022631Y011618D03*
X022651Y011658D03*
X021991Y009758D03*
X018591Y008978D03*
X011811Y008758D03*
X011791Y008758D03*
X011771Y008758D03*
X011751Y008778D03*
X011711Y008798D03*
D57*
X011671Y008818D03*
X011651Y008818D03*
X011631Y008818D03*
X011611Y008838D03*
X011591Y008838D03*
X011571Y008858D03*
X011551Y008878D03*
X015531Y010498D03*
X015711Y010998D03*
X015731Y011038D03*
X018611Y009018D03*
X022311Y011278D03*
X022331Y011298D03*
X022371Y011318D03*
X022531Y011498D03*
X022591Y011578D03*
X021031Y012678D03*
X020971Y012758D03*
X020911Y012878D03*
X019071Y012718D03*
X020091Y015838D03*
X020111Y015838D03*
X016351Y017078D03*
X016131Y016198D03*
X011591Y017538D03*
X011571Y017518D03*
X011551Y017518D03*
X014271Y020558D03*
D58*
X014251Y020588D03*
X017471Y020468D03*
X011751Y017608D03*
X011711Y017588D03*
X011671Y017568D03*
X011651Y017568D03*
X011631Y017568D03*
X011611Y017548D03*
X016151Y016208D03*
X014871Y014748D03*
X020131Y015848D03*
X021051Y012628D03*
X021091Y012588D03*
X022411Y011368D03*
X022451Y011408D03*
X022491Y011448D03*
X022551Y011528D03*
X022571Y011548D03*
X022351Y011308D03*
X020991Y011288D03*
X011731Y008788D03*
X011691Y008808D03*
D59*
X011531Y008888D03*
X019091Y012708D03*
X020931Y012848D03*
X020951Y012808D03*
X021011Y012688D03*
X021011Y011248D03*
X022271Y011268D03*
X022291Y011268D03*
X020071Y015828D03*
X016371Y017068D03*
X016111Y016188D03*
X013691Y018528D03*
X013671Y018548D03*
X014291Y020548D03*
X017451Y020468D03*
D60*
X013751Y018478D03*
X013731Y018498D03*
X013711Y018498D03*
X014171Y018018D03*
X014191Y017998D03*
X014231Y017958D03*
X011531Y017498D03*
X011511Y017498D03*
X011491Y017498D03*
X011471Y017478D03*
X011431Y017458D03*
X017031Y016818D03*
X020051Y015838D03*
X020991Y012738D03*
X022151Y011178D03*
X022191Y011198D03*
X022211Y011218D03*
X022231Y011238D03*
X022251Y011238D03*
X018631Y009038D03*
X011511Y008898D03*
X011491Y008898D03*
X011471Y008898D03*
X011451Y008918D03*
X011431Y008938D03*
X011411Y008938D03*
D61*
X011391Y008948D03*
X011371Y008968D03*
X011351Y008968D03*
X011331Y008988D03*
X011311Y008988D03*
X019191Y011028D03*
X020851Y010508D03*
X021031Y011228D03*
X022091Y011128D03*
X022131Y011148D03*
X022171Y011188D03*
X020271Y008968D03*
X020251Y008968D03*
X020231Y008968D03*
X020211Y008968D03*
X020191Y008968D03*
X020171Y008968D03*
X020151Y008968D03*
X020131Y008968D03*
X020111Y008968D03*
X020091Y008968D03*
X020071Y008968D03*
X020051Y008968D03*
X020031Y008968D03*
X020011Y008968D03*
X019991Y008968D03*
X019971Y008968D03*
X011451Y017468D03*
X011411Y017448D03*
X011351Y017408D03*
X013771Y018448D03*
X014111Y018088D03*
X014151Y018048D03*
X014211Y017968D03*
X014251Y017928D03*
X014311Y020528D03*
X017431Y020468D03*
D62*
X014331Y020498D03*
X013791Y018438D03*
X013811Y018398D03*
X013831Y018378D03*
X013851Y018358D03*
X013871Y018338D03*
X014051Y018158D03*
X014071Y018138D03*
X014131Y018058D03*
X014271Y017878D03*
X016391Y017038D03*
X016091Y016198D03*
X020031Y015838D03*
X019111Y012698D03*
X021151Y012418D03*
X021171Y012398D03*
X022111Y011138D03*
X022071Y011098D03*
X022051Y011078D03*
X022031Y011038D03*
X019211Y011018D03*
X019871Y008978D03*
X019891Y008978D03*
X019911Y008978D03*
X019931Y008978D03*
X019951Y008978D03*
X020291Y008978D03*
X020311Y008978D03*
X020331Y008978D03*
X015551Y010538D03*
X011291Y008998D03*
X011271Y017378D03*
X011331Y017398D03*
X011371Y017418D03*
X011391Y017438D03*
D63*
X011311Y017388D03*
X011291Y017388D03*
X011251Y017348D03*
X011231Y017348D03*
X011211Y017328D03*
X013931Y018288D03*
X013951Y018248D03*
X013971Y018248D03*
X013991Y018208D03*
X014011Y018188D03*
X014031Y018168D03*
X014091Y018108D03*
X016411Y017028D03*
X017051Y016808D03*
X016071Y016208D03*
X019991Y015848D03*
X020011Y015848D03*
X021111Y012468D03*
X021131Y012448D03*
X022011Y011008D03*
X020831Y010508D03*
X018651Y009088D03*
X020351Y008988D03*
X020371Y008988D03*
X020391Y008988D03*
X020411Y008988D03*
X020431Y008988D03*
X020451Y008988D03*
X015691Y010908D03*
X011271Y009008D03*
X011251Y009028D03*
X011231Y009048D03*
X014351Y020468D03*
X017391Y020428D03*
D64*
X017371Y020408D03*
X017311Y020348D03*
X014371Y020448D03*
X014311Y017808D03*
X016431Y016988D03*
X019951Y015848D03*
X021991Y010968D03*
X020491Y009008D03*
X019811Y008988D03*
X019791Y008988D03*
X018671Y009108D03*
X015571Y010548D03*
X011191Y009068D03*
X011151Y009088D03*
X011091Y009128D03*
X011091Y017268D03*
X011111Y017268D03*
X011131Y017288D03*
D65*
X009671Y015728D03*
X009651Y015708D03*
X016071Y017968D03*
X016571Y018708D03*
X009651Y010688D03*
X021971Y010388D03*
D66*
X021951Y010368D03*
X020531Y010768D03*
X020511Y010768D03*
X016031Y017968D03*
D67*
X012451Y019488D03*
X021951Y011688D03*
X018991Y011308D03*
D68*
X019411Y012258D03*
X021911Y010378D03*
X021931Y010378D03*
X009691Y015778D03*
X016551Y018698D03*
D69*
X016531Y018688D03*
X016011Y017948D03*
X014551Y017168D03*
X009691Y010608D03*
X020551Y010768D03*
X021891Y010368D03*
D70*
X021871Y010588D03*
X020411Y010908D03*
X009531Y015408D03*
D71*
X009511Y015368D03*
X021851Y010608D03*
D72*
X021831Y010638D03*
X014831Y016978D03*
X014811Y016978D03*
D73*
X019591Y011978D03*
X020371Y010938D03*
X021791Y010658D03*
X021811Y010658D03*
D74*
X021771Y010678D03*
X014871Y016938D03*
D75*
X021751Y010688D03*
D76*
X021731Y010698D03*
X009491Y011118D03*
X008331Y013198D03*
X009491Y015278D03*
D77*
X009471Y015238D03*
X021711Y010718D03*
D78*
X021691Y010728D03*
X020331Y011008D03*
X019631Y011908D03*
X009471Y011168D03*
D79*
X021671Y010748D03*
D80*
X021651Y010758D03*
X016911Y018778D03*
D81*
X009451Y011268D03*
X021611Y010768D03*
X021631Y010768D03*
D82*
X021591Y010188D03*
X021011Y009208D03*
X016311Y018548D03*
D83*
X016451Y016978D03*
X016511Y016978D03*
X017171Y016718D03*
X016051Y016198D03*
X019931Y015838D03*
X021591Y011718D03*
X019231Y010998D03*
X018691Y009118D03*
X019751Y008998D03*
X019771Y008998D03*
X011071Y009138D03*
X010971Y017178D03*
X010991Y017198D03*
X011031Y017218D03*
X011051Y017238D03*
X011071Y017258D03*
X017271Y020298D03*
X017291Y020338D03*
X017331Y020358D03*
D84*
X020231Y011178D03*
X021571Y010758D03*
D85*
X021551Y010168D03*
D86*
X021531Y009498D03*
X020271Y011118D03*
X019691Y011778D03*
X009451Y015098D03*
D87*
X010611Y016888D03*
X010651Y016928D03*
X010671Y016948D03*
X014391Y017648D03*
X017151Y016828D03*
X017371Y016708D03*
X017391Y016708D03*
X018551Y016288D03*
X018811Y016248D03*
X019131Y016088D03*
X019151Y016068D03*
X019251Y016028D03*
X019271Y016028D03*
X019291Y016008D03*
X019311Y016008D03*
X019371Y015968D03*
X019391Y015968D03*
X019411Y015968D03*
X019451Y015948D03*
X019471Y015948D03*
X021531Y011748D03*
X020751Y009068D03*
X020731Y009068D03*
X019491Y009068D03*
X018791Y009248D03*
X010651Y009448D03*
X010631Y009468D03*
X010611Y009488D03*
X014451Y020268D03*
D88*
X021511Y010218D03*
D89*
X021491Y010268D03*
D90*
X021471Y010278D03*
D91*
X021451Y010318D03*
X015551Y016838D03*
D92*
X008691Y013208D03*
X021411Y010348D03*
X021431Y010328D03*
D93*
X021391Y010378D03*
D94*
X021371Y010388D03*
X015531Y016828D03*
X008711Y013188D03*
D95*
X021331Y010418D03*
X021351Y010418D03*
D96*
X021311Y010448D03*
D97*
X021291Y010458D03*
X021271Y010478D03*
X021231Y010498D03*
D98*
X021251Y010488D03*
X021191Y010528D03*
X015511Y016828D03*
D99*
X015491Y016818D03*
X021211Y010518D03*
D100*
X021171Y009998D03*
D101*
X021151Y009998D03*
X008471Y013198D03*
D102*
X021131Y009988D03*
D103*
X021111Y009998D03*
X019971Y011378D03*
D104*
X020031Y011338D03*
X021051Y009998D03*
X021071Y009998D03*
X021091Y009998D03*
D105*
X021031Y009218D03*
X020671Y010738D03*
X009851Y016038D03*
X016351Y018578D03*
D106*
X016271Y018508D03*
X009971Y016228D03*
X009971Y010168D03*
X019151Y009368D03*
X020991Y009208D03*
D107*
X020971Y009198D03*
X019131Y009378D03*
X019111Y009378D03*
X009991Y010138D03*
X009991Y016238D03*
X016251Y018498D03*
D108*
X010131Y016428D03*
X010091Y016388D03*
X019271Y012468D03*
X019051Y009388D03*
X019031Y009388D03*
X019011Y009388D03*
X020951Y009148D03*
X010131Y009968D03*
X010111Y009988D03*
X010091Y010008D03*
D109*
X010151Y016448D03*
X010171Y016468D03*
X016171Y018408D03*
X017051Y018308D03*
X017151Y018388D03*
X019111Y016248D03*
X020931Y009148D03*
D110*
X020911Y009138D03*
X018991Y009378D03*
X018971Y009378D03*
X017611Y013178D03*
X017591Y013178D03*
X017571Y013178D03*
X014471Y017478D03*
X016151Y018378D03*
X016971Y018298D03*
X016991Y018298D03*
X017011Y018298D03*
X017031Y018298D03*
X017091Y018358D03*
X017131Y018378D03*
X017171Y018398D03*
X017191Y018398D03*
X017211Y018418D03*
X017231Y018418D03*
X017251Y018418D03*
X014691Y019858D03*
X014651Y019918D03*
X010151Y009938D03*
X010171Y009918D03*
D111*
X010251Y009828D03*
X017491Y013168D03*
X017511Y013168D03*
X017691Y013168D03*
X019231Y012528D03*
X020731Y010608D03*
X018951Y009368D03*
X019311Y009188D03*
X020891Y009148D03*
X014911Y019388D03*
X014871Y019508D03*
X014831Y019608D03*
X014551Y020068D03*
X014531Y020088D03*
D112*
X014511Y020128D03*
X014491Y020148D03*
X017371Y018448D03*
X010331Y016648D03*
X010271Y016588D03*
X008211Y013188D03*
X010271Y009788D03*
X010311Y009768D03*
X020871Y009128D03*
D113*
X020851Y009108D03*
X019391Y009128D03*
X019371Y009128D03*
X010391Y009688D03*
X010351Y009728D03*
X010391Y016708D03*
X014431Y017568D03*
X017391Y018468D03*
X017411Y018468D03*
X017431Y018468D03*
D114*
X017451Y018458D03*
X017551Y016638D03*
X017571Y016618D03*
X017591Y016618D03*
X010431Y016738D03*
X020771Y010578D03*
X018891Y009318D03*
X019411Y009118D03*
X020831Y009098D03*
X010411Y009658D03*
D115*
X010431Y009648D03*
X010451Y009628D03*
X010471Y009608D03*
X010491Y009588D03*
X010511Y009568D03*
X018871Y009308D03*
X020811Y009088D03*
X019191Y012568D03*
X018031Y016468D03*
X017851Y016548D03*
X017831Y016548D03*
X017631Y016628D03*
X017611Y016628D03*
X017531Y016648D03*
X010451Y016768D03*
X010411Y016728D03*
D116*
X010951Y017168D03*
X011011Y017208D03*
X014331Y017788D03*
X016471Y016968D03*
X016491Y016968D03*
X016531Y016968D03*
X017191Y016708D03*
X016031Y016208D03*
X019871Y015848D03*
X019891Y015848D03*
X019911Y015848D03*
X019131Y012668D03*
X015591Y010588D03*
X019691Y009008D03*
X019711Y009008D03*
X019731Y009008D03*
X020511Y009008D03*
X020531Y009008D03*
X020551Y009008D03*
X020811Y010508D03*
X011051Y009148D03*
X011031Y009168D03*
X011011Y009188D03*
X017251Y020268D03*
X014391Y020408D03*
D117*
X014471Y020218D03*
X016591Y016858D03*
X016611Y016858D03*
X017491Y016678D03*
X017651Y016618D03*
X017671Y016618D03*
X017711Y016598D03*
X017771Y016578D03*
X017791Y016558D03*
X017811Y016558D03*
X017871Y016538D03*
X017891Y016518D03*
X017911Y016518D03*
X017931Y016498D03*
X017951Y016498D03*
X017971Y016498D03*
X017991Y016498D03*
X018011Y016478D03*
X018051Y016458D03*
X018071Y016458D03*
X018091Y016458D03*
X018111Y016438D03*
X018131Y016438D03*
X018151Y016418D03*
X018171Y016418D03*
X018191Y016418D03*
X018211Y016418D03*
X018271Y016378D03*
X018291Y016358D03*
X018311Y016358D03*
X018331Y016358D03*
X018351Y016338D03*
X018371Y016338D03*
X018391Y016318D03*
X018411Y016318D03*
X017711Y013158D03*
X018851Y009298D03*
X019431Y009098D03*
X020791Y009078D03*
X010531Y009558D03*
X010471Y016778D03*
X010491Y016798D03*
X010511Y016818D03*
D118*
X010711Y016978D03*
X010751Y017018D03*
X010771Y017038D03*
X014371Y017698D03*
X015971Y016218D03*
X017131Y016818D03*
X017331Y016718D03*
X019651Y015878D03*
X019671Y015878D03*
X019691Y015878D03*
X019711Y015878D03*
X015631Y010658D03*
X018751Y009198D03*
X018771Y009218D03*
X019571Y009038D03*
X019591Y009038D03*
X020691Y009058D03*
X020791Y010538D03*
X010731Y009378D03*
X010711Y009398D03*
D119*
X010591Y009498D03*
X010571Y009518D03*
X010551Y009538D03*
X019471Y009078D03*
X020771Y009078D03*
X018531Y016298D03*
X018511Y016298D03*
X018491Y016298D03*
X018471Y016298D03*
X017451Y016698D03*
X017431Y016698D03*
X017411Y016698D03*
X010591Y016878D03*
X010571Y016858D03*
D120*
X010371Y016698D03*
X010351Y016658D03*
X017471Y013178D03*
X019211Y012538D03*
X020751Y010598D03*
X018911Y009338D03*
X010371Y009698D03*
X010331Y009738D03*
D121*
X016431Y012508D03*
X020731Y011748D03*
D122*
X019171Y012618D03*
X019591Y015898D03*
X019571Y015918D03*
X019551Y015918D03*
X019531Y015918D03*
X019511Y015918D03*
X019491Y015938D03*
X019431Y015958D03*
X019351Y015998D03*
X019331Y015998D03*
X019231Y016038D03*
X019211Y016038D03*
X019191Y016058D03*
X019171Y016058D03*
X018791Y016238D03*
X018671Y016258D03*
X018631Y016278D03*
X018611Y016278D03*
X018591Y016278D03*
X018571Y016278D03*
X017111Y019958D03*
X017191Y020078D03*
X010631Y016918D03*
X010671Y009438D03*
X019511Y009058D03*
X019531Y009058D03*
X020711Y009058D03*
D123*
X020711Y010638D03*
X019251Y012478D03*
X019091Y016258D03*
X016191Y018418D03*
X010111Y016398D03*
D124*
X010051Y016338D03*
X010031Y016298D03*
X016231Y018478D03*
X020691Y010658D03*
X019211Y009318D03*
X010031Y010098D03*
D125*
X010751Y009368D03*
X010771Y009348D03*
X010791Y009328D03*
X010811Y009308D03*
X019151Y012628D03*
X019731Y015868D03*
X019751Y015868D03*
X017311Y016708D03*
X017291Y016708D03*
X015991Y016208D03*
X010811Y017068D03*
X010791Y017048D03*
X017031Y019828D03*
X017051Y019848D03*
X017071Y019888D03*
X017091Y019908D03*
X017211Y020148D03*
X019611Y009028D03*
X020651Y009048D03*
X020671Y009048D03*
D126*
X020651Y010748D03*
X009851Y010348D03*
X009831Y010368D03*
X009831Y016008D03*
X016371Y018588D03*
D127*
X017011Y019808D03*
X017091Y016828D03*
X017231Y016728D03*
X017251Y016728D03*
X019831Y015848D03*
X019851Y015848D03*
X019251Y010968D03*
X018731Y009168D03*
X018711Y009168D03*
X019651Y009028D03*
X020611Y009028D03*
X020631Y009028D03*
X015651Y010708D03*
X015611Y010608D03*
X010911Y009248D03*
X010851Y017088D03*
X010891Y017128D03*
D128*
X014531Y017228D03*
X019331Y012288D03*
X020631Y010748D03*
X009771Y010448D03*
D129*
X019291Y012278D03*
X019311Y012278D03*
X019351Y012278D03*
X020611Y010758D03*
X016451Y018638D03*
X016431Y018638D03*
D130*
X017071Y016838D03*
X017211Y016718D03*
X014411Y020378D03*
X010931Y017158D03*
X010911Y017138D03*
X010931Y009238D03*
X010951Y009218D03*
X010971Y009198D03*
X010991Y009198D03*
X019671Y009018D03*
X020571Y009018D03*
X020591Y009018D03*
D131*
X020591Y010768D03*
X020571Y010768D03*
X019371Y012288D03*
X016491Y018668D03*
D132*
X016591Y018708D03*
X016091Y017968D03*
X019451Y012208D03*
X020491Y010788D03*
D133*
X020471Y008998D03*
X019851Y008978D03*
X019831Y008978D03*
X015671Y010858D03*
X011211Y009058D03*
X011171Y009078D03*
X011131Y009098D03*
X011111Y009118D03*
X019971Y015838D03*
X014291Y017858D03*
X013911Y018298D03*
X013891Y018318D03*
X011191Y017318D03*
X011171Y017318D03*
X011151Y017298D03*
X017351Y020398D03*
X017411Y020438D03*
D134*
X016111Y017988D03*
X014611Y017088D03*
X009631Y015648D03*
X009631Y010748D03*
X020471Y010808D03*
D135*
X015471Y010498D03*
X020471Y015998D03*
X019431Y018338D03*
X013751Y017718D03*
D136*
X014651Y017038D03*
X008291Y013198D03*
X020451Y010838D03*
D137*
X017591Y008588D03*
X015991Y009048D03*
X015931Y009028D03*
X015911Y009008D03*
X015871Y008988D03*
X015851Y008968D03*
X015811Y008948D03*
X015751Y008928D03*
X015731Y008908D03*
X020451Y015988D03*
X017511Y018108D03*
X019211Y018348D03*
X019231Y018348D03*
X016851Y016808D03*
X016771Y016428D03*
X016371Y016128D03*
X013551Y017848D03*
D138*
X020431Y010888D03*
D139*
X020391Y010918D03*
X009511Y011018D03*
D140*
X019611Y011928D03*
X020351Y010988D03*
D141*
X020311Y011048D03*
X016831Y018648D03*
X016811Y018648D03*
X016851Y018708D03*
D142*
X017431Y017558D03*
X017451Y017558D03*
X017651Y017558D03*
X017671Y017558D03*
X017691Y017558D03*
X017711Y017558D03*
X017731Y017558D03*
X019151Y016958D03*
X020271Y016438D03*
X020311Y016398D03*
X016391Y012458D03*
X017691Y010738D03*
X019751Y009758D03*
X019871Y009698D03*
X019911Y009678D03*
X013711Y017738D03*
D143*
X016791Y018598D03*
X016931Y018818D03*
X016951Y018838D03*
X020291Y011078D03*
D144*
X020251Y011158D03*
X019731Y011738D03*
X008391Y013198D03*
D145*
X020211Y011198D03*
D146*
X020191Y011218D03*
X019771Y011638D03*
X009431Y011438D03*
D147*
X020171Y011248D03*
D148*
X020151Y011248D03*
X019951Y011488D03*
X019931Y011508D03*
X019911Y011528D03*
X019871Y011568D03*
X008431Y013188D03*
D149*
X020111Y011288D03*
X020131Y011288D03*
D150*
X020091Y011308D03*
X015891Y017228D03*
D151*
X020071Y011318D03*
D152*
X020051Y011328D03*
D153*
X020011Y011348D03*
X019991Y011368D03*
D154*
X016471Y013948D03*
X019711Y016748D03*
X019931Y016668D03*
X020011Y016628D03*
D155*
X019851Y011598D03*
X019831Y011598D03*
X019891Y011538D03*
D156*
X019811Y011618D03*
X009431Y014938D03*
D157*
X010831Y017078D03*
X010871Y017118D03*
X014351Y017718D03*
X016551Y016938D03*
X017111Y016818D03*
X017271Y016718D03*
X016011Y016198D03*
X019771Y015858D03*
X019791Y015858D03*
X019811Y015858D03*
X016971Y019758D03*
X016991Y019778D03*
X017231Y020198D03*
X014431Y020338D03*
X010851Y009298D03*
X010831Y009298D03*
X010871Y009278D03*
X010891Y009258D03*
X019631Y009018D03*
D158*
X019791Y011628D03*
X008411Y013188D03*
D159*
X019751Y011688D03*
D160*
X019711Y011758D03*
D161*
X019671Y011828D03*
X016871Y018728D03*
X016891Y018768D03*
D162*
X019651Y011858D03*
D163*
X019551Y009048D03*
X010691Y009408D03*
X019611Y015888D03*
X019631Y015888D03*
X018771Y016228D03*
X018751Y016228D03*
X018731Y016228D03*
X018711Y016228D03*
X018691Y016248D03*
X018651Y016268D03*
X017351Y016708D03*
X015951Y016208D03*
X010731Y017008D03*
X010691Y016968D03*
X017131Y019988D03*
X017151Y020008D03*
X017171Y020048D03*
D164*
X019571Y012008D03*
D165*
X019551Y012058D03*
D166*
X019531Y012078D03*
X009531Y010958D03*
X008311Y013198D03*
D167*
X009551Y015478D03*
X014731Y016998D03*
X014751Y016998D03*
X019511Y012098D03*
D168*
X019491Y012128D03*
X014671Y017028D03*
D169*
X014631Y017058D03*
X019471Y012158D03*
D170*
X018831Y009288D03*
X018811Y009268D03*
X019451Y009088D03*
X008191Y013188D03*
X010531Y016828D03*
X010551Y016848D03*
X014411Y017608D03*
X016571Y016868D03*
X017471Y016688D03*
X017511Y016668D03*
X017691Y016608D03*
X017731Y016588D03*
X017751Y016588D03*
X018231Y016408D03*
X018251Y016388D03*
X018431Y016308D03*
X018451Y016308D03*
D171*
X014571Y017118D03*
X019431Y012218D03*
D172*
X019391Y012278D03*
X015991Y017958D03*
X016511Y018678D03*
X009711Y015818D03*
X009711Y010578D03*
D173*
X010291Y009778D03*
X018931Y009358D03*
X019331Y009158D03*
X019351Y009158D03*
X010311Y016618D03*
X010291Y016598D03*
X014451Y017518D03*
X017351Y018438D03*
X014891Y019438D03*
X014851Y019538D03*
D174*
X013631Y017788D03*
X016371Y014088D03*
X016311Y012348D03*
X017111Y009968D03*
X016931Y009788D03*
X016831Y009668D03*
X016811Y009668D03*
X016791Y009648D03*
X016771Y009628D03*
X016751Y009608D03*
X016731Y009588D03*
X016691Y009548D03*
X019351Y018348D03*
D175*
X017331Y018438D03*
X017311Y018438D03*
X017291Y018438D03*
X014931Y019358D03*
X014811Y019638D03*
X014791Y019698D03*
X014751Y019778D03*
X014731Y019798D03*
X014571Y020018D03*
X010251Y016558D03*
X010231Y016538D03*
X017531Y013178D03*
X017651Y013178D03*
X017671Y013178D03*
X019291Y009198D03*
X010231Y009858D03*
X010211Y009878D03*
D176*
X019271Y009258D03*
X019071Y016278D03*
X018991Y016318D03*
X018911Y016358D03*
X018891Y016358D03*
X016211Y018458D03*
X010071Y016358D03*
D177*
X018831Y016388D03*
X018851Y016368D03*
X018871Y016368D03*
X018931Y016348D03*
X018951Y016348D03*
X018971Y016328D03*
X019011Y016308D03*
X019031Y016308D03*
X019051Y016308D03*
X010071Y010028D03*
X010051Y010048D03*
X019071Y009388D03*
X019251Y009268D03*
D178*
X019231Y009308D03*
X019091Y009388D03*
X010011Y010108D03*
X010011Y016288D03*
X014491Y017368D03*
D179*
X016291Y018518D03*
X009931Y010198D03*
X009951Y010178D03*
X019171Y009358D03*
X019191Y009358D03*
D180*
X017631Y013188D03*
X017551Y013188D03*
X010211Y016508D03*
X010191Y016508D03*
X014951Y019308D03*
X014771Y019728D03*
X014711Y019808D03*
X014671Y019888D03*
X014631Y019948D03*
X014611Y019988D03*
X014591Y019988D03*
X016131Y018368D03*
X017071Y018348D03*
X017111Y018368D03*
X017271Y018428D03*
X010191Y009888D03*
D181*
X008371Y013188D03*
X016771Y018508D03*
D182*
X016751Y018118D03*
D183*
X016731Y018088D03*
D184*
X016711Y018078D03*
D185*
X016691Y018068D03*
D186*
X016671Y018058D03*
X016631Y018018D03*
D187*
X016651Y018028D03*
D188*
X016611Y018718D03*
X014591Y017098D03*
D189*
X015951Y017938D03*
X015971Y017938D03*
X016471Y018658D03*
X009731Y015858D03*
D190*
X016391Y018608D03*
X016411Y018608D03*
X009811Y010408D03*
D191*
X009871Y010298D03*
X009891Y010278D03*
X008231Y013178D03*
X009871Y016078D03*
X009891Y016098D03*
X016331Y018558D03*
D192*
X016051Y017958D03*
X008271Y013178D03*
X009671Y010658D03*
D193*
X008451Y013198D03*
X015911Y017238D03*
X015931Y017258D03*
D194*
X015871Y016828D03*
D195*
X015851Y016848D03*
X015651Y016928D03*
D196*
X015831Y016868D03*
X008591Y013188D03*
D197*
X015811Y016878D03*
D198*
X015791Y016918D03*
D199*
X015771Y016938D03*
X015751Y016958D03*
X008551Y013198D03*
D200*
X015691Y016998D03*
X015711Y016998D03*
X015731Y016978D03*
D201*
X015671Y016988D03*
D202*
X015631Y016918D03*
D203*
X015611Y016868D03*
D204*
X015591Y016848D03*
X008651Y013188D03*
D205*
X015571Y016838D03*
D206*
X015471Y016818D03*
D207*
X015451Y016838D03*
D208*
X015431Y016838D03*
D209*
X015411Y016848D03*
D210*
X015391Y016858D03*
D211*
X015371Y016858D03*
D212*
X015351Y016868D03*
D213*
X015331Y016858D03*
X008831Y013198D03*
D214*
X015311Y016868D03*
D215*
X015291Y016878D03*
D216*
X015271Y016888D03*
D217*
X015251Y016908D03*
X008891Y013188D03*
X008871Y013188D03*
D218*
X015231Y016918D03*
D219*
X015211Y016928D03*
D220*
X015191Y016948D03*
X008931Y013188D03*
D221*
X015171Y016968D03*
D222*
X015151Y016998D03*
X015131Y016998D03*
X008971Y013198D03*
D223*
X015111Y017038D03*
D224*
X015091Y017048D03*
D225*
X015071Y017058D03*
D226*
X015051Y017078D03*
X009011Y013198D03*
D227*
X015031Y017088D03*
D228*
X015011Y017108D03*
D229*
X014991Y017118D03*
D230*
X014971Y017148D03*
X009071Y013188D03*
D231*
X014951Y016298D03*
D232*
X014931Y016288D03*
D233*
X014911Y016298D03*
D234*
X014891Y016288D03*
X008571Y013188D03*
D235*
X014851Y016948D03*
D236*
X014791Y016988D03*
X014771Y016988D03*
D237*
X014711Y017008D03*
X009551Y010908D03*
D238*
X009571Y010858D03*
X009571Y015518D03*
X014691Y017018D03*
D239*
X014511Y017328D03*
X009951Y016208D03*
X009931Y016168D03*
X009911Y010228D03*
D240*
X009911Y016158D03*
D241*
X009811Y015978D03*
X009791Y015958D03*
X009771Y015938D03*
X009791Y010418D03*
D242*
X009751Y010508D03*
X009731Y010528D03*
X008251Y013188D03*
X009751Y015888D03*
D243*
X009611Y010778D03*
D244*
X009591Y010808D03*
X009591Y015588D03*
X009611Y015608D03*
D245*
X009411Y013198D03*
D246*
X009391Y013188D03*
D247*
X009371Y013188D03*
D248*
X009351Y013188D03*
D249*
X009331Y013198D03*
D250*
X009311Y013198D03*
X009291Y013198D03*
D251*
X009271Y013188D03*
D252*
X009251Y013198D03*
D253*
X009231Y013198D03*
D254*
X009211Y013188D03*
D255*
X009191Y013198D03*
D256*
X009171Y013188D03*
D257*
X009151Y013198D03*
D258*
X009131Y013188D03*
D259*
X009111Y013198D03*
D260*
X009091Y013198D03*
D261*
X009051Y013188D03*
D262*
X009031Y013198D03*
D263*
X008991Y013198D03*
D264*
X008951Y013198D03*
D265*
X008911Y013198D03*
D266*
X008851Y013188D03*
D267*
X008811Y013198D03*
D268*
X008791Y013198D03*
D269*
X008771Y013188D03*
D270*
X008751Y013188D03*
D271*
X008731Y013188D03*
D272*
X008671Y013188D03*
D273*
X008631Y013198D03*
D274*
X008611Y013198D03*
D275*
X008531Y013198D03*
D276*
X008511Y013208D03*
D277*
X008491Y013198D03*
D278*
X008351Y013198D03*
M02*
