G75*
%MOIN*%
%OFA0B0*%
%FSLAX24Y24*%
%IPPOS*%
%LPD*%
%AMOC8*
5,1,8,0,0,1.08239X$1,22.5*
%
%ADD10C,0.0000*%
%ADD11C,0.0030*%
%ADD12C,0.0040*%
%ADD13C,0.0050*%
%ADD14R,2.1063X0.5118*%
%ADD15C,0.0080*%
%ADD16R,0.0040X0.0020*%
%ADD17R,0.0180X0.0020*%
%ADD18R,0.0220X0.0020*%
%ADD19R,0.0280X0.0020*%
%ADD20R,0.0300X0.0020*%
%ADD21R,0.0320X0.0020*%
%ADD22R,0.0360X0.0020*%
%ADD23R,0.0420X0.0020*%
%ADD24R,0.0440X0.0020*%
%ADD25R,0.0460X0.0020*%
%ADD26R,0.0480X0.0020*%
%ADD27R,0.0500X0.0020*%
%ADD28R,0.0520X0.0020*%
%ADD29R,0.0540X0.0020*%
%ADD30R,0.0560X0.0020*%
%ADD31R,0.0580X0.0020*%
%ADD32R,0.0600X0.0020*%
%ADD33R,0.0620X0.0020*%
%ADD34R,0.0640X0.0020*%
%ADD35R,0.0660X0.0020*%
%ADD36R,0.0120X0.0020*%
%ADD37R,0.0140X0.0020*%
%ADD38R,0.0240X0.0020*%
%ADD39R,0.0680X0.0020*%
%ADD40R,0.0340X0.0020*%
%ADD41R,0.0400X0.0020*%
%ADD42R,0.0200X0.0020*%
%ADD43R,0.0700X0.0020*%
%ADD44R,0.0720X0.0020*%
%ADD45R,0.0740X0.0020*%
%ADD46R,0.0760X0.0020*%
%ADD47R,0.0780X0.0020*%
%ADD48R,0.0800X0.0020*%
%ADD49R,0.0820X0.0020*%
%ADD50R,0.0860X0.0020*%
%ADD51R,0.0840X0.0020*%
%ADD52R,0.0880X0.0020*%
%ADD53R,0.0900X0.0020*%
%ADD54R,0.0920X0.0020*%
%ADD55R,0.0940X0.0020*%
%ADD56R,0.0960X0.0020*%
%ADD57R,0.1000X0.0020*%
%ADD58R,0.0980X0.0020*%
%ADD59R,0.1020X0.0020*%
%ADD60R,0.1040X0.0020*%
%ADD61R,0.1060X0.0020*%
%ADD62R,0.1080X0.0020*%
%ADD63R,0.1100X0.0020*%
%ADD64R,0.1140X0.0020*%
%ADD65R,0.2220X0.0020*%
%ADD66R,0.2180X0.0020*%
%ADD67R,0.0060X0.0020*%
%ADD68R,0.2160X0.0020*%
%ADD69R,0.2140X0.0020*%
%ADD70R,0.2580X0.0020*%
%ADD71R,0.2620X0.0020*%
%ADD72R,0.2640X0.0020*%
%ADD73R,0.2680X0.0020*%
%ADD74R,0.2720X0.0020*%
%ADD75R,0.2740X0.0020*%
%ADD76R,0.2760X0.0020*%
%ADD77R,0.2800X0.0020*%
%ADD78R,0.2820X0.0020*%
%ADD79R,0.2860X0.0020*%
%ADD80R,0.2920X0.0020*%
%ADD81R,0.2980X0.0020*%
%ADD82R,0.1860X0.0020*%
%ADD83R,0.1160X0.0020*%
%ADD84R,0.3200X0.0020*%
%ADD85R,0.4420X0.0020*%
%ADD86R,0.3040X0.0020*%
%ADD87R,0.1340X0.0020*%
%ADD88R,0.4440X0.0020*%
%ADD89R,0.4540X0.0020*%
%ADD90R,0.4560X0.0020*%
%ADD91R,0.4600X0.0020*%
%ADD92R,0.4620X0.0020*%
%ADD93R,0.4640X0.0020*%
%ADD94R,0.4660X0.0020*%
%ADD95R,0.4680X0.0020*%
%ADD96R,0.4700X0.0020*%
%ADD97R,0.4720X0.0020*%
%ADD98R,0.4740X0.0020*%
%ADD99R,0.4760X0.0020*%
%ADD100R,0.3640X0.0020*%
%ADD101R,0.3600X0.0020*%
%ADD102R,0.3580X0.0020*%
%ADD103R,0.3560X0.0020*%
%ADD104R,0.3520X0.0020*%
%ADD105R,0.1920X0.0020*%
%ADD106R,0.1780X0.0020*%
%ADD107R,0.1760X0.0020*%
%ADD108R,0.1660X0.0020*%
%ADD109R,0.1620X0.0020*%
%ADD110R,0.1600X0.0020*%
%ADD111R,0.1540X0.0020*%
%ADD112R,0.1500X0.0020*%
%ADD113R,0.1460X0.0020*%
%ADD114R,0.1440X0.0020*%
%ADD115R,0.1420X0.0020*%
%ADD116R,0.1180X0.0020*%
%ADD117R,0.1400X0.0020*%
%ADD118R,0.1280X0.0020*%
%ADD119R,0.1360X0.0020*%
%ADD120R,0.1480X0.0020*%
%ADD121R,0.0020X0.0020*%
%ADD122R,0.1320X0.0020*%
%ADD123R,0.1640X0.0020*%
%ADD124R,0.1720X0.0020*%
%ADD125R,0.1260X0.0020*%
%ADD126R,0.1940X0.0020*%
%ADD127R,0.1220X0.0020*%
%ADD128R,0.2020X0.0020*%
%ADD129R,0.2040X0.0020*%
%ADD130R,0.1200X0.0020*%
%ADD131R,0.2100X0.0020*%
%ADD132R,0.2260X0.0020*%
%ADD133R,0.1120X0.0020*%
%ADD134R,0.2300X0.0020*%
%ADD135R,0.0080X0.0020*%
%ADD136R,0.2400X0.0020*%
%ADD137R,0.0380X0.0020*%
%ADD138R,0.2500X0.0020*%
%ADD139R,0.2600X0.0020*%
%ADD140R,0.2780X0.0020*%
%ADD141R,0.2900X0.0020*%
%ADD142R,0.0160X0.0020*%
%ADD143R,0.2960X0.0020*%
%ADD144R,0.3120X0.0020*%
%ADD145R,0.3240X0.0020*%
%ADD146R,0.3280X0.0020*%
%ADD147R,0.3340X0.0020*%
%ADD148R,0.3380X0.0020*%
%ADD149R,0.3420X0.0020*%
%ADD150R,0.3460X0.0020*%
%ADD151R,0.3480X0.0020*%
%ADD152R,0.3500X0.0020*%
%ADD153R,0.3540X0.0020*%
%ADD154R,0.0100X0.0020*%
%ADD155R,0.3360X0.0020*%
%ADD156R,0.3320X0.0020*%
%ADD157R,0.1240X0.0020*%
%ADD158R,0.3300X0.0020*%
%ADD159R,0.3220X0.0020*%
%ADD160R,0.3080X0.0020*%
%ADD161R,0.2940X0.0020*%
%ADD162R,0.2880X0.0020*%
%ADD163R,0.1300X0.0020*%
%ADD164R,0.2660X0.0020*%
%ADD165R,0.2560X0.0020*%
%ADD166R,0.2520X0.0020*%
%ADD167R,0.2480X0.0020*%
%ADD168R,0.2420X0.0020*%
%ADD169R,0.2360X0.0020*%
%ADD170R,0.1380X0.0020*%
%ADD171R,0.2240X0.0020*%
%ADD172R,0.2120X0.0020*%
%ADD173R,0.1520X0.0020*%
%ADD174R,0.0260X0.0020*%
%ADD175R,0.1560X0.0020*%
%ADD176R,0.1680X0.0020*%
%ADD177R,0.1700X0.0020*%
%ADD178R,0.1740X0.0020*%
%ADD179R,0.1800X0.0020*%
%ADD180R,0.1580X0.0020*%
%ADD181R,0.3060X0.0020*%
%ADD182R,0.3800X0.0020*%
%ADD183R,0.3780X0.0020*%
%ADD184R,0.3760X0.0020*%
%ADD185R,0.3740X0.0020*%
%ADD186R,0.3720X0.0020*%
%ADD187R,0.3700X0.0020*%
%ADD188R,0.2280X0.0020*%
%ADD189R,0.2080X0.0020*%
%ADD190R,0.1980X0.0020*%
%ADD191R,0.1880X0.0020*%
%ADD192R,0.2200X0.0020*%
%ADD193R,0.3440X0.0020*%
%ADD194R,0.4220X0.0020*%
%ADD195R,0.4180X0.0020*%
%ADD196R,0.4140X0.0020*%
%ADD197R,0.4120X0.0020*%
%ADD198R,0.4040X0.0020*%
%ADD199R,0.4000X0.0020*%
%ADD200R,0.3960X0.0020*%
%ADD201R,0.4020X0.0020*%
%ADD202R,0.4240X0.0020*%
%ADD203R,0.4380X0.0020*%
%ADD204R,0.4460X0.0020*%
%ADD205R,0.4520X0.0020*%
%ADD206R,0.4840X0.0020*%
%ADD207R,0.4880X0.0020*%
%ADD208R,0.4920X0.0020*%
%ADD209R,0.4980X0.0020*%
%ADD210R,0.5000X0.0020*%
%ADD211R,0.5080X0.0020*%
%ADD212R,0.5100X0.0020*%
%ADD213R,0.5120X0.0020*%
%ADD214R,0.5180X0.0020*%
%ADD215R,0.5240X0.0020*%
%ADD216R,0.5260X0.0020*%
%ADD217R,0.5300X0.0020*%
%ADD218R,0.5360X0.0020*%
%ADD219R,0.5380X0.0020*%
%ADD220R,0.5460X0.0020*%
%ADD221R,0.5500X0.0020*%
%ADD222R,0.5560X0.0020*%
%ADD223R,0.5640X0.0020*%
%ADD224R,0.5660X0.0020*%
%ADD225R,0.5680X0.0020*%
%ADD226R,0.5720X0.0020*%
%ADD227R,0.5740X0.0020*%
%ADD228R,0.5780X0.0020*%
%ADD229R,0.5800X0.0020*%
%ADD230R,0.5860X0.0020*%
%ADD231R,0.4160X0.0020*%
%ADD232R,0.4100X0.0020*%
%ADD233R,0.4080X0.0020*%
%ADD234R,0.4060X0.0020*%
%ADD235R,0.2700X0.0020*%
%ADD236R,0.2540X0.0020*%
%ADD237R,0.2460X0.0020*%
%ADD238R,0.2440X0.0020*%
%ADD239R,0.1820X0.0020*%
%ADD240R,0.1840X0.0020*%
%ADD241R,0.2000X0.0020*%
%ADD242R,0.2060X0.0020*%
%ADD243R,0.2320X0.0020*%
%ADD244R,0.2340X0.0020*%
%ADD245R,0.6760X0.0020*%
%ADD246R,0.6700X0.0020*%
%ADD247R,0.6660X0.0020*%
%ADD248R,0.6580X0.0020*%
%ADD249R,0.6560X0.0020*%
%ADD250R,0.6480X0.0020*%
%ADD251R,0.6420X0.0020*%
%ADD252R,0.6360X0.0020*%
%ADD253R,0.6320X0.0020*%
%ADD254R,0.6260X0.0020*%
%ADD255R,0.6200X0.0020*%
%ADD256R,0.6140X0.0020*%
%ADD257R,0.6120X0.0020*%
%ADD258R,0.6020X0.0020*%
%ADD259R,0.6000X0.0020*%
%ADD260R,0.5960X0.0020*%
%ADD261R,0.5820X0.0020*%
%ADD262R,0.5760X0.0020*%
%ADD263R,0.5600X0.0020*%
%ADD264R,0.5480X0.0020*%
%ADD265R,0.5400X0.0020*%
%ADD266R,0.5140X0.0020*%
%ADD267R,0.5040X0.0020*%
%ADD268R,0.4960X0.0020*%
%ADD269R,0.4860X0.0020*%
%ADD270R,0.4820X0.0020*%
%ADD271R,0.4780X0.0020*%
%ADD272R,0.4500X0.0020*%
%ADD273R,0.4320X0.0020*%
%ADD274R,0.4280X0.0020*%
%ADD275R,0.3880X0.0020*%
%ADD276R,0.3820X0.0020*%
%ADD277R,0.3680X0.0020*%
%ADD278R,0.2840X0.0020*%
D10*
X010533Y001133D02*
X015257Y001133D01*
X015257Y004677D01*
X010533Y004677D02*
X010533Y001133D01*
X010533Y004677D02*
X010314Y004680D01*
X010096Y004688D01*
X009877Y004701D01*
X009659Y004719D01*
X009442Y004743D01*
X009225Y004772D01*
X009009Y004806D01*
X008793Y004846D01*
X008579Y004890D01*
X008366Y004940D01*
X008154Y004995D01*
X007944Y005055D01*
X007735Y005120D01*
X007528Y005190D01*
X007322Y005265D01*
X007118Y005345D01*
X006917Y005430D01*
X006717Y005520D01*
X006520Y005615D01*
X006325Y005714D01*
X006132Y005818D01*
X005942Y005927D01*
X005755Y006040D01*
X005571Y006158D01*
X005389Y006280D01*
X005211Y006406D01*
X005035Y006537D01*
X004863Y006672D01*
X004694Y006811D01*
X004528Y006954D01*
X004366Y007101D01*
X004208Y007252D01*
X004053Y007407D01*
X003902Y007565D01*
X003755Y007727D01*
X003612Y007893D01*
X003473Y008062D01*
X003338Y008234D01*
X003207Y008410D01*
X003081Y008588D01*
X002959Y008770D01*
X002841Y008954D01*
X002728Y009141D01*
X002619Y009331D01*
X002515Y009524D01*
X002416Y009719D01*
X002321Y009916D01*
X002231Y010116D01*
X002146Y010317D01*
X002066Y010521D01*
X001991Y010727D01*
X001921Y010934D01*
X001856Y011143D01*
X001796Y011353D01*
X001741Y011565D01*
X001691Y011778D01*
X001647Y011992D01*
X001607Y012208D01*
X001573Y012424D01*
X001544Y012641D01*
X001520Y012858D01*
X001502Y013076D01*
X001489Y013295D01*
X001481Y013513D01*
X001478Y013732D01*
X001478Y019916D01*
X001476Y019980D01*
X001471Y020044D01*
X001461Y020107D01*
X001448Y020170D01*
X001432Y020231D01*
X001412Y020292D01*
X001388Y020352D01*
X001361Y020410D01*
X001331Y020466D01*
X001297Y020520D01*
X001260Y020573D01*
X001221Y020623D01*
X001178Y020671D01*
X001133Y020716D01*
X001085Y020759D01*
X001035Y020798D01*
X000982Y020835D01*
X000928Y020869D01*
X000872Y020899D01*
X000814Y020926D01*
X000754Y020950D01*
X000693Y020970D01*
X000632Y020986D01*
X000569Y020999D01*
X000506Y021009D01*
X000442Y021014D01*
X000378Y021016D01*
X000347Y021018D01*
X000316Y021023D01*
X000286Y021032D01*
X000257Y021044D01*
X000230Y021059D01*
X000205Y021077D01*
X000181Y021097D01*
X000161Y021121D01*
X000143Y021146D01*
X000128Y021173D01*
X000116Y021202D01*
X000107Y021232D01*
X000102Y021263D01*
X000100Y021294D01*
X000100Y022427D01*
X000102Y022473D01*
X000108Y022519D01*
X000117Y022564D01*
X000130Y022608D01*
X000147Y022651D01*
X000167Y022692D01*
X000191Y022732D01*
X000217Y022769D01*
X000247Y022804D01*
X000280Y022837D01*
X000315Y022867D01*
X000352Y022893D01*
X000392Y022917D01*
X000433Y022937D01*
X000476Y022954D01*
X000520Y022967D01*
X000565Y022976D01*
X000611Y022982D01*
X000657Y022984D01*
X000713Y022986D01*
X000769Y022992D01*
X000824Y023001D01*
X000879Y023014D01*
X000932Y023031D01*
X000984Y023052D01*
X001035Y023076D01*
X001084Y023104D01*
X001130Y023134D01*
X001175Y023168D01*
X001217Y023205D01*
X001257Y023245D01*
X001294Y023287D01*
X001328Y023332D01*
X001358Y023378D01*
X001386Y023427D01*
X001410Y023478D01*
X001431Y023530D01*
X001448Y023583D01*
X001461Y023638D01*
X001470Y023693D01*
X001476Y023749D01*
X001478Y023805D01*
X001480Y023964D01*
X001486Y024122D01*
X001496Y024280D01*
X001509Y024438D01*
X001527Y024596D01*
X001548Y024753D01*
X001573Y024910D01*
X001602Y025066D01*
X001635Y025221D01*
X001672Y025375D01*
X001712Y025528D01*
X001756Y025681D01*
X001804Y025832D01*
X001856Y025982D01*
X001911Y026131D01*
X001970Y026278D01*
X002032Y026424D01*
X002098Y026568D01*
X002168Y026710D01*
X002241Y026851D01*
X002317Y026990D01*
X002397Y027127D01*
X002481Y027262D01*
X002567Y027395D01*
X002657Y027526D01*
X002750Y027654D01*
X002846Y027781D01*
X002945Y027904D01*
X003047Y028026D01*
X003152Y028145D01*
X003260Y028261D01*
X003371Y028374D01*
X003484Y028485D01*
X003600Y028593D01*
X003719Y028698D01*
X003841Y028800D01*
X003964Y028899D01*
X004091Y028995D01*
X004219Y029088D01*
X004350Y029178D01*
X004483Y029264D01*
X004618Y029348D01*
X004755Y029428D01*
X004894Y029504D01*
X005035Y029577D01*
X005177Y029647D01*
X005321Y029713D01*
X005467Y029775D01*
X005614Y029834D01*
X005763Y029889D01*
X005913Y029941D01*
X006064Y029989D01*
X006217Y030033D01*
X006370Y030073D01*
X006524Y030110D01*
X006679Y030143D01*
X006835Y030172D01*
X006992Y030197D01*
X007149Y030218D01*
X007307Y030236D01*
X007465Y030249D01*
X007623Y030259D01*
X007781Y030265D01*
X007940Y030267D01*
X010125Y030267D01*
X010139Y030268D02*
X010193Y030270D01*
X010246Y030275D01*
X010299Y030284D01*
X010351Y030297D01*
X010403Y030313D01*
X010453Y030333D01*
X010501Y030356D01*
X010548Y030383D01*
X010593Y030412D01*
X010636Y030445D01*
X010676Y030480D01*
X010714Y030518D01*
X010749Y030558D01*
X010782Y030601D01*
X010811Y030646D01*
X010838Y030693D01*
X010861Y030741D01*
X010881Y030791D01*
X010897Y030843D01*
X010910Y030895D01*
X010919Y030948D01*
X010924Y031001D01*
X010926Y031055D01*
X010927Y031055D02*
X010929Y031127D01*
X010935Y031199D01*
X010944Y031271D01*
X010957Y031342D01*
X010974Y031412D01*
X010994Y031481D01*
X011019Y031549D01*
X011046Y031615D01*
X011077Y031681D01*
X011112Y031744D01*
X011149Y031806D01*
X011190Y031865D01*
X011234Y031922D01*
X011281Y031977D01*
X011331Y032029D01*
X011383Y032079D01*
X011438Y032126D01*
X011495Y032170D01*
X011554Y032211D01*
X011616Y032248D01*
X011679Y032283D01*
X011745Y032314D01*
X011811Y032341D01*
X011879Y032366D01*
X011948Y032386D01*
X012018Y032403D01*
X012089Y032416D01*
X012161Y032425D01*
X012233Y032431D01*
X012305Y032433D01*
X013486Y032433D01*
X012265Y031205D02*
X012267Y031255D01*
X012273Y031305D01*
X012283Y031354D01*
X012297Y031402D01*
X012314Y031449D01*
X012335Y031494D01*
X012360Y031538D01*
X012388Y031579D01*
X012420Y031618D01*
X012454Y031655D01*
X012491Y031689D01*
X012531Y031719D01*
X012573Y031746D01*
X012617Y031770D01*
X012663Y031791D01*
X012710Y031807D01*
X012758Y031820D01*
X012808Y031829D01*
X012857Y031834D01*
X012908Y031835D01*
X012958Y031832D01*
X013007Y031825D01*
X013056Y031814D01*
X013104Y031799D01*
X013150Y031781D01*
X013195Y031759D01*
X013238Y031733D01*
X013279Y031704D01*
X013318Y031672D01*
X013354Y031637D01*
X013386Y031599D01*
X013416Y031559D01*
X013443Y031516D01*
X013466Y031472D01*
X013485Y031426D01*
X013501Y031378D01*
X013513Y031329D01*
X013521Y031280D01*
X013525Y031230D01*
X013525Y031180D01*
X013521Y031130D01*
X013513Y031081D01*
X013501Y031032D01*
X013485Y030984D01*
X013466Y030938D01*
X013443Y030894D01*
X013416Y030851D01*
X013386Y030811D01*
X013354Y030773D01*
X013318Y030738D01*
X013279Y030706D01*
X013238Y030677D01*
X013195Y030651D01*
X013150Y030629D01*
X013104Y030611D01*
X013056Y030596D01*
X013007Y030585D01*
X012958Y030578D01*
X012908Y030575D01*
X012857Y030576D01*
X012808Y030581D01*
X012758Y030590D01*
X012710Y030603D01*
X012663Y030619D01*
X012617Y030640D01*
X012573Y030664D01*
X012531Y030691D01*
X012491Y030721D01*
X012454Y030755D01*
X012420Y030792D01*
X012388Y030831D01*
X012360Y030872D01*
X012335Y030916D01*
X012314Y030961D01*
X012297Y031008D01*
X012283Y031056D01*
X012273Y031105D01*
X012267Y031155D01*
X012265Y031205D01*
X013486Y032433D02*
X013558Y032431D01*
X013630Y032425D01*
X013702Y032416D01*
X013773Y032403D01*
X013843Y032386D01*
X013912Y032366D01*
X013980Y032341D01*
X014046Y032314D01*
X014112Y032283D01*
X014175Y032248D01*
X014237Y032211D01*
X014296Y032170D01*
X014353Y032126D01*
X014408Y032079D01*
X014460Y032029D01*
X014510Y031977D01*
X014557Y031922D01*
X014601Y031865D01*
X014642Y031806D01*
X014679Y031744D01*
X014714Y031681D01*
X014745Y031615D01*
X014772Y031549D01*
X014797Y031481D01*
X014817Y031412D01*
X014834Y031342D01*
X014847Y031271D01*
X014856Y031199D01*
X014862Y031127D01*
X014864Y031055D01*
X014866Y031001D01*
X014871Y030948D01*
X014880Y030895D01*
X014893Y030843D01*
X014909Y030791D01*
X014929Y030741D01*
X014952Y030693D01*
X014979Y030646D01*
X015008Y030601D01*
X015041Y030558D01*
X015076Y030518D01*
X015114Y030480D01*
X015154Y030445D01*
X015197Y030412D01*
X015242Y030383D01*
X015289Y030356D01*
X015337Y030333D01*
X015387Y030313D01*
X015439Y030297D01*
X015491Y030284D01*
X015544Y030275D01*
X015597Y030270D01*
X015651Y030268D01*
X015665Y030267D02*
X017850Y030267D01*
X018009Y030265D01*
X018167Y030259D01*
X018325Y030249D01*
X018483Y030236D01*
X018641Y030218D01*
X018798Y030197D01*
X018955Y030172D01*
X019111Y030143D01*
X019266Y030110D01*
X019420Y030073D01*
X019573Y030033D01*
X019726Y029989D01*
X019877Y029941D01*
X020027Y029889D01*
X020176Y029834D01*
X020323Y029775D01*
X020469Y029713D01*
X020613Y029647D01*
X020755Y029577D01*
X020896Y029504D01*
X021035Y029428D01*
X021172Y029348D01*
X021307Y029264D01*
X021440Y029178D01*
X021571Y029088D01*
X021699Y028995D01*
X021826Y028899D01*
X021949Y028800D01*
X022071Y028698D01*
X022190Y028593D01*
X022306Y028485D01*
X022419Y028374D01*
X022530Y028261D01*
X022638Y028145D01*
X022743Y028026D01*
X022845Y027904D01*
X022944Y027781D01*
X023040Y027654D01*
X023133Y027526D01*
X023223Y027395D01*
X023309Y027262D01*
X023393Y027127D01*
X023473Y026990D01*
X023549Y026851D01*
X023622Y026710D01*
X023692Y026568D01*
X023758Y026424D01*
X023820Y026278D01*
X023879Y026131D01*
X023934Y025982D01*
X023986Y025832D01*
X024034Y025681D01*
X024078Y025528D01*
X024118Y025375D01*
X024155Y025221D01*
X024188Y025066D01*
X024217Y024910D01*
X024242Y024753D01*
X024263Y024596D01*
X024281Y024438D01*
X024294Y024280D01*
X024304Y024122D01*
X024310Y023964D01*
X024312Y023805D01*
X024313Y023805D02*
X024315Y023749D01*
X024321Y023693D01*
X024330Y023638D01*
X024343Y023583D01*
X024360Y023530D01*
X024381Y023478D01*
X024405Y023427D01*
X024433Y023378D01*
X024463Y023332D01*
X024497Y023287D01*
X024534Y023245D01*
X024574Y023205D01*
X024616Y023168D01*
X024661Y023134D01*
X024707Y023104D01*
X024756Y023076D01*
X024807Y023052D01*
X024859Y023031D01*
X024912Y023014D01*
X024967Y023001D01*
X025022Y022992D01*
X025078Y022986D01*
X025134Y022984D01*
X025180Y022982D01*
X025226Y022976D01*
X025271Y022967D01*
X025315Y022954D01*
X025358Y022937D01*
X025399Y022917D01*
X025439Y022893D01*
X025476Y022867D01*
X025511Y022837D01*
X025544Y022804D01*
X025574Y022769D01*
X025600Y022732D01*
X025624Y022692D01*
X025644Y022651D01*
X025661Y022608D01*
X025674Y022564D01*
X025683Y022519D01*
X025689Y022473D01*
X025691Y022427D01*
X025691Y021294D01*
X025690Y021294D02*
X025688Y021263D01*
X025683Y021232D01*
X025674Y021202D01*
X025662Y021173D01*
X025647Y021146D01*
X025629Y021121D01*
X025609Y021097D01*
X025585Y021077D01*
X025560Y021059D01*
X025533Y021044D01*
X025504Y021032D01*
X025474Y021023D01*
X025443Y021018D01*
X025412Y021016D01*
X025348Y021014D01*
X025284Y021009D01*
X025221Y020999D01*
X025158Y020986D01*
X025097Y020970D01*
X025036Y020950D01*
X024976Y020926D01*
X024918Y020899D01*
X024862Y020869D01*
X024808Y020835D01*
X024755Y020798D01*
X024705Y020759D01*
X024657Y020716D01*
X024612Y020671D01*
X024569Y020623D01*
X024530Y020573D01*
X024493Y020520D01*
X024459Y020466D01*
X024429Y020410D01*
X024402Y020352D01*
X024378Y020292D01*
X024358Y020231D01*
X024342Y020170D01*
X024329Y020107D01*
X024319Y020044D01*
X024314Y019980D01*
X024312Y019916D01*
X024313Y019916D02*
X024313Y013732D01*
X024312Y013732D02*
X024309Y013513D01*
X024301Y013295D01*
X024288Y013076D01*
X024270Y012858D01*
X024246Y012641D01*
X024217Y012424D01*
X024183Y012208D01*
X024143Y011992D01*
X024099Y011778D01*
X024049Y011565D01*
X023994Y011353D01*
X023934Y011143D01*
X023869Y010934D01*
X023799Y010727D01*
X023724Y010521D01*
X023644Y010317D01*
X023559Y010116D01*
X023469Y009916D01*
X023374Y009719D01*
X023275Y009524D01*
X023171Y009331D01*
X023062Y009141D01*
X022949Y008954D01*
X022831Y008770D01*
X022709Y008588D01*
X022583Y008410D01*
X022452Y008234D01*
X022317Y008062D01*
X022178Y007893D01*
X022035Y007727D01*
X021888Y007565D01*
X021737Y007407D01*
X021582Y007252D01*
X021424Y007101D01*
X021262Y006954D01*
X021096Y006811D01*
X020927Y006672D01*
X020755Y006537D01*
X020579Y006406D01*
X020401Y006280D01*
X020219Y006158D01*
X020035Y006040D01*
X019848Y005927D01*
X019658Y005818D01*
X019465Y005714D01*
X019270Y005615D01*
X019073Y005520D01*
X018873Y005430D01*
X018672Y005345D01*
X018468Y005265D01*
X018262Y005190D01*
X018055Y005120D01*
X017846Y005055D01*
X017636Y004995D01*
X017424Y004940D01*
X017211Y004890D01*
X016997Y004846D01*
X016781Y004806D01*
X016565Y004772D01*
X016348Y004743D01*
X016131Y004719D01*
X015913Y004701D01*
X015694Y004688D01*
X015476Y004680D01*
X015257Y004677D01*
D11*
X007284Y016520D02*
X007284Y016767D01*
X007160Y016891D01*
X007037Y016767D01*
X007037Y016520D01*
X006915Y016520D02*
X006915Y016891D01*
X006730Y016891D01*
X006668Y016829D01*
X006668Y016705D01*
X006730Y016644D01*
X006915Y016644D01*
X006792Y016644D02*
X006668Y016520D01*
X006547Y016520D02*
X006300Y016520D01*
X006179Y016520D02*
X006179Y016891D01*
X005932Y016891D01*
X006055Y016705D02*
X006179Y016705D01*
X006300Y016891D02*
X006547Y016891D01*
X006547Y016520D01*
X006547Y016705D02*
X006424Y016705D01*
X007037Y016705D02*
X007284Y016705D01*
X007293Y023037D02*
X007417Y023037D01*
X007478Y023099D01*
X007600Y023037D02*
X007847Y023037D01*
X007847Y023408D01*
X007600Y023408D01*
X007478Y023346D02*
X007478Y023284D01*
X007417Y023222D01*
X007293Y023222D01*
X007231Y023161D01*
X007231Y023099D01*
X007293Y023037D01*
X007110Y023037D02*
X007110Y023408D01*
X006863Y023408D01*
X006742Y023408D02*
X006495Y023408D01*
X006618Y023408D02*
X006618Y023037D01*
X006863Y023037D02*
X007110Y023037D01*
X007110Y023222D02*
X006987Y023222D01*
X007231Y023346D02*
X007293Y023408D01*
X007417Y023408D01*
X007478Y023346D01*
X007723Y023222D02*
X007847Y023222D01*
X007968Y023222D02*
X008030Y023161D01*
X008215Y023161D01*
X008091Y023161D02*
X007968Y023037D01*
X007968Y023222D02*
X007968Y023346D01*
X008030Y023408D01*
X008215Y023408D01*
X008215Y023037D01*
X014622Y028540D02*
X014746Y028663D01*
X014993Y028663D01*
X014993Y028785D02*
X014993Y028908D01*
X014993Y028847D02*
X014622Y028847D01*
X014622Y028908D02*
X014622Y028785D01*
X014622Y028540D02*
X014746Y028417D01*
X014993Y028417D01*
X014993Y029030D02*
X014622Y029277D01*
X014993Y029277D01*
X014993Y029399D02*
X014746Y029399D01*
X014622Y029522D01*
X014746Y029646D01*
X014993Y029646D01*
X014993Y029030D02*
X014622Y029030D01*
D12*
X004710Y010528D02*
X004557Y010528D01*
X004480Y010605D01*
X004480Y010759D01*
X004557Y010835D01*
X004633Y010835D01*
X004787Y010759D01*
X004787Y010989D01*
X004480Y010989D01*
X004787Y010605D02*
X004710Y010528D01*
X004940Y010528D02*
X004940Y010835D01*
X005094Y010989D01*
X005247Y010835D01*
X005247Y010528D01*
X005247Y010759D02*
X004940Y010759D01*
X004940Y011654D02*
X004940Y011961D01*
X005094Y012114D01*
X005247Y011961D01*
X005247Y011654D01*
X005247Y011884D02*
X004940Y011884D01*
X004787Y011884D02*
X004480Y011884D01*
X004557Y011654D02*
X004557Y012114D01*
X004787Y011884D01*
X004710Y012572D02*
X004557Y012572D01*
X004480Y012649D01*
X004480Y012726D01*
X004557Y012802D01*
X004633Y012802D01*
X004557Y012802D02*
X004480Y012879D01*
X004480Y012956D01*
X004557Y013033D01*
X004710Y013033D01*
X004787Y012956D01*
X004940Y012879D02*
X004940Y012572D01*
X004787Y012649D02*
X004710Y012572D01*
X004940Y012802D02*
X005247Y012802D01*
X005247Y012879D02*
X005094Y013033D01*
X004940Y012879D01*
X005247Y012879D02*
X005247Y012572D01*
X005247Y013591D02*
X005247Y013898D01*
X005094Y014051D01*
X004940Y013898D01*
X004940Y013591D01*
X004787Y013591D02*
X004480Y013898D01*
X004480Y013974D01*
X004557Y014051D01*
X004710Y014051D01*
X004787Y013974D01*
X004940Y013821D02*
X005247Y013821D01*
X004787Y013591D02*
X004480Y013591D01*
X004480Y014539D02*
X004787Y014539D01*
X004940Y014539D02*
X004940Y014846D01*
X005094Y015000D01*
X005247Y014846D01*
X005247Y014539D01*
X005247Y014769D02*
X004940Y014769D01*
X004787Y014846D02*
X004633Y015000D01*
X004633Y014539D01*
X004557Y015685D02*
X004710Y015685D01*
X004787Y015761D01*
X004480Y016068D01*
X004480Y015761D01*
X004557Y015685D01*
X004787Y015761D02*
X004787Y016068D01*
X004710Y016145D01*
X004557Y016145D01*
X004480Y016068D01*
X004940Y015992D02*
X004940Y015685D01*
X004940Y015915D02*
X005247Y015915D01*
X005247Y015992D02*
X005247Y015685D01*
X005247Y015992D02*
X005094Y016145D01*
X004940Y015992D01*
X007797Y019264D02*
X007797Y019494D01*
X007874Y019570D01*
X008181Y019570D01*
X008258Y019494D01*
X008258Y019264D01*
X007797Y019264D01*
X007797Y019724D02*
X007874Y019724D01*
X008181Y020031D01*
X008258Y020031D01*
X008258Y019724D01*
X008181Y020645D02*
X008104Y020645D01*
X008027Y020721D01*
X008027Y020875D01*
X007951Y020952D01*
X007874Y020952D01*
X007797Y020875D01*
X007797Y020721D01*
X007874Y020645D01*
X008181Y020645D02*
X008258Y020721D01*
X008258Y020875D01*
X008181Y020952D01*
X008258Y021105D02*
X007797Y021105D01*
X007951Y021259D01*
X007797Y021412D01*
X008258Y021412D01*
X009467Y028526D02*
X009467Y028756D01*
X009544Y028833D01*
X009851Y028833D01*
X009927Y028756D01*
X009927Y028526D01*
X009467Y028526D01*
X009544Y028986D02*
X009467Y029063D01*
X009467Y029216D01*
X009544Y029293D01*
X009620Y029293D01*
X009697Y029216D01*
X009697Y028986D01*
X009544Y028986D01*
X009697Y028986D02*
X009851Y029140D01*
X009927Y029293D01*
X010451Y029216D02*
X010451Y029063D01*
X010528Y028986D01*
X010605Y028986D01*
X010681Y029063D01*
X010681Y029216D01*
X010605Y029293D01*
X010528Y029293D01*
X010451Y029216D01*
X010681Y029216D02*
X010758Y029293D01*
X010835Y029293D01*
X010911Y029216D01*
X010911Y029063D01*
X010835Y028986D01*
X010758Y028986D01*
X010681Y029063D01*
X010528Y028833D02*
X010835Y028833D01*
X010911Y028756D01*
X010911Y028526D01*
X010451Y028526D01*
X010451Y028756D01*
X010528Y028833D01*
X011435Y028756D02*
X011435Y028526D01*
X011896Y028526D01*
X011896Y028756D01*
X011819Y028833D01*
X011512Y028833D01*
X011435Y028756D01*
X011512Y028986D02*
X011435Y029063D01*
X011435Y029216D01*
X011512Y029293D01*
X011666Y029293D01*
X011742Y029216D01*
X011742Y029140D01*
X011666Y028986D01*
X011896Y028986D01*
X011896Y029293D01*
X012616Y029226D02*
X012616Y028919D01*
X012616Y029073D02*
X013077Y029073D01*
X012923Y028919D01*
X013000Y028766D02*
X013077Y028689D01*
X013077Y028459D01*
X012616Y028459D01*
X012616Y028689D01*
X012693Y028766D01*
X013000Y028766D01*
X013601Y028689D02*
X013601Y028459D01*
X014061Y028459D01*
X014061Y028689D01*
X013984Y028766D01*
X013677Y028766D01*
X013601Y028689D01*
X013601Y028919D02*
X013601Y029226D01*
X013601Y029073D02*
X014061Y029073D01*
X013908Y028919D01*
X013984Y029380D02*
X014061Y029457D01*
X014061Y029610D01*
X013984Y029687D01*
X013908Y029687D01*
X013831Y029610D01*
X013754Y029687D01*
X013677Y029687D01*
X013601Y029610D01*
X013601Y029457D01*
X013677Y029380D01*
X013831Y029533D02*
X013831Y029610D01*
X013077Y029533D02*
X012616Y029533D01*
X012616Y029380D02*
X012616Y029687D01*
X012923Y029380D02*
X013077Y029533D01*
X015569Y029019D02*
X015569Y028866D01*
X015646Y028789D01*
X015646Y028636D02*
X015953Y028636D01*
X016030Y028559D01*
X016030Y028329D01*
X015569Y028329D01*
X015569Y028559D01*
X015646Y028636D01*
X015799Y028943D02*
X015799Y029019D01*
X015723Y029096D01*
X015646Y029096D01*
X015569Y029019D01*
X015799Y029019D02*
X015876Y029096D01*
X015953Y029096D01*
X016030Y029019D01*
X016030Y028866D01*
X015953Y028789D01*
X016712Y028696D02*
X016712Y028542D01*
X016789Y028465D01*
X017096Y028465D01*
X017172Y028542D01*
X017172Y028696D01*
X017096Y028772D01*
X016942Y028772D02*
X016942Y028619D01*
X016942Y028772D02*
X016789Y028772D01*
X016712Y028696D01*
X016712Y028926D02*
X017172Y028926D01*
X016712Y029233D01*
X017172Y029233D01*
X017172Y029386D02*
X017172Y029616D01*
X017096Y029693D01*
X016789Y029693D01*
X016712Y029616D01*
X016712Y029386D01*
X017172Y029386D01*
X020310Y024570D02*
X020233Y024493D01*
X020233Y024417D01*
X020310Y024340D01*
X020233Y024263D01*
X020233Y024186D01*
X020310Y024110D01*
X020463Y024110D01*
X020540Y024186D01*
X020693Y024110D02*
X021000Y024110D01*
X020847Y024110D02*
X020847Y024570D01*
X021000Y024417D01*
X021154Y024493D02*
X021154Y024186D01*
X021231Y024110D01*
X021461Y024110D01*
X021461Y024570D01*
X021231Y024570D01*
X021154Y024493D01*
X020540Y024493D02*
X020463Y024570D01*
X020310Y024570D01*
X020310Y024340D02*
X020387Y024340D01*
X020310Y023586D02*
X020463Y023586D01*
X020540Y023509D01*
X020310Y023586D02*
X020233Y023509D01*
X020233Y023432D01*
X020540Y023125D01*
X020233Y023125D01*
X020693Y023125D02*
X021000Y023125D01*
X020847Y023125D02*
X020847Y023586D01*
X021000Y023432D01*
X021154Y023509D02*
X021154Y023202D01*
X021231Y023125D01*
X021461Y023125D01*
X021461Y023586D01*
X021231Y023586D01*
X021154Y023509D01*
X021231Y022602D02*
X021461Y022602D01*
X021461Y022141D01*
X021231Y022141D01*
X021154Y022218D01*
X021154Y022525D01*
X021231Y022602D01*
X021000Y022448D02*
X020847Y022602D01*
X020847Y022141D01*
X021000Y022141D02*
X020693Y022141D01*
X020540Y022141D02*
X020233Y022141D01*
X020387Y022141D02*
X020387Y022602D01*
X020540Y022448D01*
X020463Y021420D02*
X020310Y021420D01*
X020233Y021344D01*
X020540Y021037D01*
X020463Y020960D01*
X020310Y020960D01*
X020233Y021037D01*
X020233Y021344D01*
X020463Y021420D02*
X020540Y021344D01*
X020540Y021037D01*
X020693Y020960D02*
X021000Y020960D01*
X020847Y020960D02*
X020847Y021420D01*
X021000Y021267D01*
X021154Y021344D02*
X021154Y021037D01*
X021231Y020960D01*
X021461Y020960D01*
X021461Y021420D01*
X021231Y021420D01*
X021154Y021344D01*
X021231Y019363D02*
X021461Y019363D01*
X021461Y018903D01*
X021231Y018903D01*
X021154Y018980D01*
X021154Y019286D01*
X021231Y019363D01*
X021000Y019286D02*
X021000Y019210D01*
X020924Y019133D01*
X020770Y019133D01*
X020693Y019056D01*
X020693Y018980D01*
X020770Y018903D01*
X020924Y018903D01*
X021000Y018980D01*
X021000Y019056D01*
X020924Y019133D01*
X020770Y019133D02*
X020693Y019210D01*
X020693Y019286D01*
X020770Y019363D01*
X020924Y019363D01*
X021000Y019286D01*
X021056Y016964D02*
X021287Y016964D01*
X021287Y016503D01*
X021056Y016503D01*
X020980Y016580D01*
X020980Y016887D01*
X021056Y016964D01*
X020826Y016734D02*
X020596Y016734D01*
X020519Y016657D01*
X020519Y016580D01*
X020596Y016503D01*
X020749Y016503D01*
X020826Y016580D01*
X020826Y016734D01*
X020673Y016887D01*
X020519Y016964D01*
X020519Y015944D02*
X020826Y015944D01*
X020826Y015714D01*
X020673Y015790D01*
X020596Y015790D01*
X020519Y015714D01*
X020519Y015560D01*
X020596Y015483D01*
X020749Y015483D01*
X020826Y015560D01*
X020980Y015560D02*
X020980Y015867D01*
X021056Y015944D01*
X021287Y015944D01*
X021287Y015483D01*
X021056Y015483D01*
X020980Y015560D01*
X021056Y014958D02*
X021287Y014958D01*
X021287Y014498D01*
X021056Y014498D01*
X020980Y014574D01*
X020980Y014881D01*
X021056Y014958D01*
X020826Y014728D02*
X020519Y014728D01*
X020596Y014958D02*
X020826Y014728D01*
X020596Y014498D02*
X020596Y014958D01*
X020596Y013974D02*
X020519Y013897D01*
X020519Y013820D01*
X020596Y013744D01*
X020519Y013667D01*
X020519Y013590D01*
X020596Y013513D01*
X020749Y013513D01*
X020826Y013590D01*
X020980Y013590D02*
X020980Y013897D01*
X021056Y013974D01*
X021287Y013974D01*
X021287Y013513D01*
X021056Y013513D01*
X020980Y013590D01*
X020826Y013897D02*
X020749Y013974D01*
X020596Y013974D01*
X020596Y013744D02*
X020673Y013744D01*
X020596Y012989D02*
X020749Y012989D01*
X020826Y012913D01*
X020980Y012913D02*
X020980Y012606D01*
X021056Y012529D01*
X021287Y012529D01*
X021287Y012989D01*
X021056Y012989D01*
X020980Y012913D01*
X020826Y012529D02*
X020519Y012836D01*
X020519Y012913D01*
X020596Y012989D01*
X020519Y012529D02*
X020826Y012529D01*
X020673Y011974D02*
X020673Y011513D01*
X020826Y011513D02*
X020519Y011513D01*
X020826Y011820D02*
X020673Y011974D01*
X020980Y011897D02*
X020980Y011590D01*
X021056Y011513D01*
X021287Y011513D01*
X021287Y011974D01*
X021056Y011974D01*
X020980Y011897D01*
X021056Y010884D02*
X021287Y010884D01*
X021287Y010423D01*
X021056Y010423D01*
X020980Y010500D01*
X020980Y010807D01*
X021056Y010884D01*
X020826Y010807D02*
X020826Y010500D01*
X020519Y010807D01*
X020519Y010500D01*
X020596Y010423D01*
X020749Y010423D01*
X020826Y010500D01*
X020826Y010807D02*
X020749Y010884D01*
X020596Y010884D01*
X020519Y010807D01*
X023385Y017503D02*
X023385Y017580D01*
X023078Y017887D01*
X023078Y017964D01*
X023385Y017964D01*
X023539Y017887D02*
X023615Y017964D01*
X023846Y017964D01*
X023846Y017503D01*
X023615Y017503D01*
X023539Y017580D01*
X023539Y017887D01*
X023366Y020005D02*
X023257Y020005D01*
X023040Y020222D01*
X023040Y020330D01*
X023149Y020439D01*
X023257Y020439D01*
X023311Y020384D01*
X023311Y020276D01*
X023149Y020113D01*
X023366Y020005D02*
X023474Y020113D01*
X023474Y020222D01*
X023583Y020330D02*
X023366Y020547D01*
X023366Y020656D01*
X023528Y020819D01*
X023854Y020493D01*
X023691Y020330D01*
X023583Y020330D01*
D13*
X006289Y021537D02*
X006188Y021436D01*
X005984Y021436D01*
X005882Y021537D01*
X005882Y021639D01*
X005984Y021741D01*
X006086Y021741D01*
X005984Y021741D02*
X005882Y021843D01*
X005882Y021945D01*
X005984Y022046D01*
X006188Y022046D01*
X006289Y021945D01*
X005896Y022550D02*
X005896Y023160D01*
X005590Y023160D01*
X005489Y023058D01*
X005489Y022855D01*
X005590Y022753D01*
X005896Y022753D01*
X005692Y022753D02*
X005489Y022550D01*
X005288Y022651D02*
X005186Y022550D01*
X004983Y022550D01*
X004881Y022651D01*
X004881Y022753D01*
X004983Y022855D01*
X005186Y022855D01*
X005288Y022957D01*
X005288Y023058D01*
X005186Y023160D01*
X004983Y023160D01*
X004881Y023058D01*
X004680Y023160D02*
X004273Y023160D01*
X004477Y023160D02*
X004477Y022550D01*
X004363Y022046D02*
X004363Y021639D01*
X004567Y021436D01*
X004770Y021639D01*
X004770Y022046D01*
X004971Y021945D02*
X004971Y021843D01*
X005073Y021741D01*
X004971Y021639D01*
X004971Y021537D01*
X005073Y021436D01*
X005276Y021436D01*
X005378Y021537D01*
X005580Y021537D02*
X005580Y021436D01*
X005682Y021436D01*
X005682Y021537D01*
X005580Y021537D01*
X005174Y021741D02*
X005073Y021741D01*
X004971Y021945D02*
X005073Y022046D01*
X005276Y022046D01*
X005378Y021945D01*
X005288Y021074D02*
X005084Y021074D01*
X005186Y021074D02*
X005186Y020463D01*
X005288Y020463D02*
X005084Y020463D01*
X004883Y020463D02*
X004883Y021074D01*
X004476Y020463D01*
X004476Y021074D01*
X004375Y020042D02*
X004680Y020042D01*
X004680Y019431D01*
X004375Y019431D01*
X004273Y019533D01*
X004273Y019940D01*
X004375Y020042D01*
X004881Y020042D02*
X004881Y019431D01*
X005288Y020042D01*
X005288Y019431D01*
X005489Y019533D02*
X005489Y019737D01*
X005692Y019737D01*
X005489Y019940D02*
X005590Y020042D01*
X005794Y020042D01*
X005896Y019940D01*
X005896Y019533D01*
X005794Y019431D01*
X005590Y019431D01*
X005489Y019533D01*
X005590Y019058D02*
X005794Y019058D01*
X005896Y018956D01*
X005896Y018549D01*
X005794Y018447D01*
X005590Y018447D01*
X005489Y018549D01*
X005489Y018752D01*
X005692Y018752D01*
X005489Y018956D02*
X005590Y019058D01*
X005288Y019058D02*
X004881Y018447D01*
X004881Y019058D01*
X004680Y019058D02*
X004375Y019058D01*
X004273Y018956D01*
X004273Y018549D01*
X004375Y018447D01*
X004680Y018447D01*
X004680Y019058D01*
X005288Y019058D02*
X005288Y018447D01*
X005292Y017924D02*
X005292Y017517D01*
X005495Y017313D01*
X005699Y017517D01*
X005699Y017924D01*
X005091Y017924D02*
X004888Y017924D01*
X004989Y017924D02*
X004989Y017313D01*
X004888Y017313D02*
X005091Y017313D01*
X004686Y017313D02*
X004686Y017924D01*
X004279Y017313D01*
X004279Y017924D01*
X005692Y020463D02*
X005489Y020666D01*
X005489Y021074D01*
X005896Y021074D02*
X005896Y020666D01*
X005692Y020463D01*
D14*
X012994Y007236D03*
D15*
X010368Y019463D02*
X009155Y019463D01*
X008762Y019975D02*
X008762Y020952D01*
X009155Y021463D02*
X010368Y021463D01*
X010762Y020963D02*
X010762Y019975D01*
X009262Y020463D02*
X009264Y020507D01*
X009270Y020551D01*
X009280Y020594D01*
X009293Y020636D01*
X009310Y020677D01*
X009331Y020716D01*
X009355Y020753D01*
X009382Y020788D01*
X009412Y020820D01*
X009445Y020850D01*
X009481Y020876D01*
X009518Y020900D01*
X009558Y020919D01*
X009599Y020936D01*
X009642Y020948D01*
X009685Y020957D01*
X009729Y020962D01*
X009773Y020963D01*
X009817Y020960D01*
X009861Y020953D01*
X009904Y020942D01*
X009946Y020928D01*
X009986Y020910D01*
X010025Y020888D01*
X010061Y020864D01*
X010095Y020836D01*
X010127Y020805D01*
X010156Y020771D01*
X010182Y020735D01*
X010204Y020697D01*
X010223Y020657D01*
X010238Y020615D01*
X010250Y020573D01*
X010258Y020529D01*
X010262Y020485D01*
X010262Y020441D01*
X010258Y020397D01*
X010250Y020353D01*
X010238Y020311D01*
X010223Y020269D01*
X010204Y020229D01*
X010182Y020191D01*
X010156Y020155D01*
X010127Y020121D01*
X010095Y020090D01*
X010061Y020062D01*
X010025Y020038D01*
X009986Y020016D01*
X009946Y019998D01*
X009904Y019984D01*
X009861Y019973D01*
X009817Y019966D01*
X009773Y019963D01*
X009729Y019964D01*
X009685Y019969D01*
X009642Y019978D01*
X009599Y019990D01*
X009558Y020007D01*
X009518Y020026D01*
X009481Y020050D01*
X009445Y020076D01*
X009412Y020106D01*
X009382Y020138D01*
X009355Y020173D01*
X009331Y020210D01*
X009310Y020249D01*
X009293Y020290D01*
X009280Y020332D01*
X009270Y020375D01*
X009264Y020419D01*
X009262Y020463D01*
X009125Y022083D02*
X010338Y022083D01*
X010732Y022595D02*
X010732Y023583D01*
X010338Y024083D02*
X009125Y024083D01*
X008732Y023572D02*
X008732Y022595D01*
X009232Y023083D02*
X009234Y023127D01*
X009240Y023171D01*
X009250Y023214D01*
X009263Y023256D01*
X009280Y023297D01*
X009301Y023336D01*
X009325Y023373D01*
X009352Y023408D01*
X009382Y023440D01*
X009415Y023470D01*
X009451Y023496D01*
X009488Y023520D01*
X009528Y023539D01*
X009569Y023556D01*
X009612Y023568D01*
X009655Y023577D01*
X009699Y023582D01*
X009743Y023583D01*
X009787Y023580D01*
X009831Y023573D01*
X009874Y023562D01*
X009916Y023548D01*
X009956Y023530D01*
X009995Y023508D01*
X010031Y023484D01*
X010065Y023456D01*
X010097Y023425D01*
X010126Y023391D01*
X010152Y023355D01*
X010174Y023317D01*
X010193Y023277D01*
X010208Y023235D01*
X010220Y023193D01*
X010228Y023149D01*
X010232Y023105D01*
X010232Y023061D01*
X010228Y023017D01*
X010220Y022973D01*
X010208Y022931D01*
X010193Y022889D01*
X010174Y022849D01*
X010152Y022811D01*
X010126Y022775D01*
X010097Y022741D01*
X010065Y022710D01*
X010031Y022682D01*
X009995Y022658D01*
X009956Y022636D01*
X009916Y022618D01*
X009874Y022604D01*
X009831Y022593D01*
X009787Y022586D01*
X009743Y022583D01*
X009699Y022584D01*
X009655Y022589D01*
X009612Y022598D01*
X009569Y022610D01*
X009528Y022627D01*
X009488Y022646D01*
X009451Y022670D01*
X009415Y022696D01*
X009382Y022726D01*
X009352Y022758D01*
X009325Y022793D01*
X009301Y022830D01*
X009280Y022869D01*
X009263Y022910D01*
X009250Y022952D01*
X009240Y022995D01*
X009234Y023039D01*
X009232Y023083D01*
D16*
X011133Y016848D03*
X009413Y010188D03*
X017713Y017628D03*
X018013Y020828D03*
X021093Y020568D03*
D17*
X020863Y016928D03*
X018643Y015208D03*
X017823Y016788D03*
X017843Y016828D03*
X017843Y016848D03*
X017723Y017408D03*
X017723Y017428D03*
X016663Y017768D03*
X014283Y018168D03*
X013323Y015648D03*
X010983Y016948D03*
X010943Y016968D03*
X010923Y016988D03*
X010823Y017048D03*
X010743Y017088D03*
X010743Y017108D03*
X010563Y017228D03*
X008883Y017048D03*
X010123Y014948D03*
X010083Y014908D03*
X010063Y014888D03*
X010063Y014868D03*
X010043Y014828D03*
X010023Y014808D03*
X010023Y014788D03*
X009423Y010208D03*
X018043Y020908D03*
D18*
X016403Y018188D03*
X017783Y016668D03*
X017783Y016648D03*
X017763Y016628D03*
X017743Y016588D03*
X017743Y016568D03*
X017743Y016548D03*
X017723Y016508D03*
X017703Y016488D03*
X017703Y016468D03*
X017703Y016448D03*
X017663Y016368D03*
X017663Y016348D03*
X017643Y016308D03*
X017623Y016268D03*
X017623Y016248D03*
X017603Y016208D03*
X017563Y016128D03*
X017563Y016108D03*
X017543Y016068D03*
X017523Y016028D03*
X017523Y016008D03*
X017483Y015928D03*
X017483Y015908D03*
X017483Y015888D03*
X017483Y015868D03*
X017463Y015848D03*
X017443Y015808D03*
X017423Y015788D03*
X017243Y015468D03*
X016623Y014268D03*
X017803Y016708D03*
X021123Y020548D03*
X014343Y018208D03*
X012723Y018228D03*
X012683Y018248D03*
X013263Y015708D03*
X013303Y015668D03*
X011983Y012688D03*
X012543Y011028D03*
X009423Y010228D03*
X007603Y011188D03*
X010143Y014968D03*
X010543Y017248D03*
X010503Y017268D03*
X010443Y017328D03*
X010423Y017348D03*
X010343Y017408D03*
X010323Y017428D03*
X010223Y017508D03*
X010223Y017528D03*
X010183Y017548D03*
D19*
X009873Y017888D03*
X009833Y017928D03*
X009793Y017968D03*
X009713Y018068D03*
X010213Y015008D03*
X012653Y018268D03*
X014413Y018248D03*
X014453Y018268D03*
X016413Y018208D03*
X016693Y017808D03*
X018653Y015268D03*
X018093Y020988D03*
X013193Y015748D03*
X009433Y010248D03*
D20*
X009423Y010268D03*
X007603Y011208D03*
X010723Y013628D03*
X011903Y013808D03*
X013623Y014108D03*
X013163Y015768D03*
X012583Y018308D03*
X012563Y018328D03*
X014483Y018288D03*
X014743Y019808D03*
X009803Y017948D03*
X009783Y017988D03*
X009763Y018008D03*
X009743Y018028D03*
X009723Y018048D03*
X009683Y018088D03*
X009683Y018108D03*
X009663Y018128D03*
X009643Y018168D03*
X009623Y018188D03*
X009583Y018248D03*
X012523Y011068D03*
D21*
X009433Y010288D03*
X012853Y015888D03*
X012533Y018348D03*
X014533Y018308D03*
X018113Y021008D03*
X019793Y022108D03*
X021113Y020528D03*
X020853Y016948D03*
X018653Y015308D03*
X018653Y015288D03*
X009653Y018148D03*
X009613Y018208D03*
X009593Y018228D03*
X009553Y018268D03*
X009553Y018288D03*
X009513Y018348D03*
X009493Y018368D03*
D22*
X009433Y018468D03*
X009393Y018548D03*
X009353Y018588D03*
X009333Y018628D03*
X009333Y018648D03*
X009293Y018708D03*
X009253Y018768D03*
X012453Y018388D03*
X014553Y018328D03*
X018133Y021028D03*
X019773Y022088D03*
X011973Y012708D03*
X012513Y011128D03*
X012513Y011108D03*
X009433Y010328D03*
X009433Y010308D03*
D23*
X009443Y010348D03*
X009443Y010368D03*
X007603Y011268D03*
X010303Y015048D03*
X011843Y013768D03*
X012323Y018448D03*
X014663Y018388D03*
X016443Y018248D03*
X018643Y015468D03*
X018643Y015448D03*
X018643Y015428D03*
X016283Y014168D03*
X009183Y018908D03*
X009163Y018948D03*
X009143Y018988D03*
X009143Y019008D03*
X009103Y019068D03*
X009083Y019128D03*
X009083Y019148D03*
X009063Y019168D03*
X009043Y019208D03*
X009043Y019228D03*
X009003Y019328D03*
D24*
X009013Y019308D03*
X009013Y019288D03*
X009033Y019268D03*
X009033Y019248D03*
X008993Y019348D03*
X008973Y019408D03*
X008973Y019428D03*
X008953Y019448D03*
X008953Y019468D03*
X008933Y019508D03*
X008933Y019528D03*
X012273Y018488D03*
X012293Y018468D03*
X014733Y018428D03*
X014813Y019788D03*
X018393Y017108D03*
X020853Y016968D03*
X012513Y011168D03*
X009433Y010388D03*
X010333Y015068D03*
D25*
X010343Y015088D03*
X013203Y015628D03*
X012503Y011188D03*
X009443Y010408D03*
X007623Y011288D03*
X008983Y019368D03*
X008983Y019388D03*
X008943Y019488D03*
X008923Y019548D03*
X008923Y019568D03*
X008903Y019608D03*
X008903Y019628D03*
X008903Y019648D03*
X008883Y019668D03*
X008883Y019688D03*
X018183Y021088D03*
X018183Y021108D03*
X019763Y022048D03*
X018643Y015528D03*
X018643Y015508D03*
X018643Y015488D03*
D26*
X018653Y015548D03*
X018653Y015568D03*
X018653Y015588D03*
X014833Y018468D03*
X014793Y018448D03*
X013633Y014088D03*
X011813Y013748D03*
X012493Y011208D03*
X009453Y010428D03*
X007633Y011308D03*
X008913Y019588D03*
X008873Y019708D03*
X008853Y019768D03*
X008853Y019788D03*
X008853Y019808D03*
X008833Y019848D03*
X008833Y019868D03*
X021073Y020508D03*
D27*
X019743Y022028D03*
X018203Y021148D03*
X018203Y021128D03*
X016443Y018268D03*
X017123Y017728D03*
X018783Y016048D03*
X018783Y016028D03*
X018743Y015948D03*
X018703Y015828D03*
X018703Y015808D03*
X018663Y015668D03*
X018663Y015648D03*
X018663Y015628D03*
X018663Y015608D03*
X018843Y016128D03*
X018883Y016188D03*
X018923Y016248D03*
X018923Y016268D03*
X014843Y018488D03*
X012223Y018508D03*
X012183Y018528D03*
X008863Y019728D03*
X008863Y019748D03*
X008843Y019828D03*
X008823Y019888D03*
X008823Y019908D03*
X008823Y019928D03*
X008803Y019988D03*
X008783Y020068D03*
X008783Y020088D03*
X008783Y020108D03*
X007643Y011328D03*
X009463Y010468D03*
X009463Y010448D03*
X012483Y011228D03*
D28*
X012473Y011248D03*
X010733Y013648D03*
X012053Y015608D03*
X012453Y015728D03*
X013633Y014068D03*
X012133Y018548D03*
X008893Y016988D03*
X008813Y019948D03*
X008813Y019968D03*
X008793Y020008D03*
X008793Y020028D03*
X008793Y020048D03*
X008773Y020128D03*
X008773Y020148D03*
X008773Y020168D03*
X009473Y010508D03*
X009473Y010488D03*
X018673Y015688D03*
X018673Y015708D03*
X018673Y015728D03*
X018693Y015768D03*
X018693Y015788D03*
X018713Y015848D03*
X018713Y015868D03*
X018733Y015908D03*
X018733Y015928D03*
X018753Y015968D03*
X018753Y015988D03*
X018773Y016008D03*
X018793Y016068D03*
X018813Y016088D03*
X018833Y016108D03*
X018853Y016148D03*
X018893Y016208D03*
X018913Y016228D03*
X018933Y016288D03*
X018933Y016308D03*
D29*
X018943Y016328D03*
X018943Y016348D03*
X018943Y016368D03*
X018863Y016168D03*
X018723Y015888D03*
X018683Y015748D03*
X018383Y017128D03*
X020843Y016988D03*
X021063Y020488D03*
X019743Y022008D03*
X018223Y021188D03*
X018223Y021168D03*
X014923Y018508D03*
X012503Y015748D03*
X012363Y015708D03*
X012323Y015688D03*
X012223Y015668D03*
X012103Y015628D03*
X010423Y015108D03*
X008883Y016968D03*
X008763Y020188D03*
X008763Y020208D03*
X008763Y020228D03*
X008763Y020248D03*
X012103Y018568D03*
X012463Y011268D03*
X009483Y010548D03*
X009483Y010528D03*
X007643Y011348D03*
D30*
X007653Y011368D03*
X009493Y010588D03*
X009493Y010568D03*
X010733Y013668D03*
X012193Y015648D03*
X012533Y015768D03*
X013153Y015608D03*
X014953Y018528D03*
X014993Y018548D03*
X015013Y018568D03*
X016453Y018288D03*
X018233Y021208D03*
X019033Y016768D03*
X018953Y016488D03*
X018953Y016468D03*
X018953Y016448D03*
X018953Y016428D03*
X018953Y016408D03*
X018953Y016388D03*
X012453Y011288D03*
X008753Y020268D03*
X008753Y020288D03*
X008753Y020308D03*
X008753Y020328D03*
X008753Y020348D03*
X008733Y020408D03*
X008733Y020428D03*
D31*
X008723Y020448D03*
X008723Y020468D03*
X008723Y020488D03*
X008723Y020508D03*
X008723Y020528D03*
X008723Y020548D03*
X008723Y020568D03*
X008743Y020388D03*
X008743Y020368D03*
X012043Y018588D03*
X014863Y019768D03*
X018243Y021228D03*
X018243Y021248D03*
X019743Y021988D03*
X019063Y016828D03*
X019043Y016808D03*
X019043Y016788D03*
X019023Y016748D03*
X019023Y016728D03*
X019003Y016688D03*
X018963Y016548D03*
X018963Y016528D03*
X018963Y016508D03*
X010463Y015128D03*
X007663Y011388D03*
X009503Y010648D03*
X009503Y010628D03*
X009503Y010608D03*
D32*
X009513Y010668D03*
X009513Y010688D03*
X007673Y011408D03*
X010513Y015148D03*
X012433Y011348D03*
X012453Y011328D03*
X012453Y011308D03*
X018973Y016568D03*
X018973Y016588D03*
X018973Y016608D03*
X018973Y016628D03*
X018993Y016668D03*
X019013Y016708D03*
X019053Y016848D03*
X019053Y016868D03*
X019053Y016888D03*
X008713Y020588D03*
X008713Y020608D03*
X008713Y020628D03*
X008713Y020648D03*
D33*
X008703Y020668D03*
X008703Y020688D03*
X008703Y020708D03*
X008703Y020728D03*
X008703Y020748D03*
X008703Y020768D03*
X008703Y020788D03*
X008703Y020808D03*
X008703Y020828D03*
X008703Y020848D03*
X008703Y020868D03*
X008703Y020888D03*
X008703Y020908D03*
X008703Y020928D03*
X008703Y020948D03*
X008703Y020968D03*
X008703Y020988D03*
X008703Y021008D03*
X008903Y016948D03*
X010523Y015168D03*
X010743Y013688D03*
X009663Y011348D03*
X009643Y011288D03*
X009623Y011268D03*
X009623Y011248D03*
X009523Y010788D03*
X009523Y010768D03*
X009523Y010748D03*
X009523Y010728D03*
X009523Y010708D03*
X007683Y011428D03*
X007683Y011448D03*
X012423Y011368D03*
X012843Y015848D03*
X012003Y018608D03*
X016163Y014268D03*
X018983Y016648D03*
D34*
X019053Y016908D03*
X019053Y016928D03*
X019053Y016948D03*
X019093Y017008D03*
X019093Y017028D03*
X016153Y014288D03*
X013633Y014048D03*
X012833Y015828D03*
X011753Y013728D03*
X011753Y013708D03*
X012413Y011388D03*
X009673Y011368D03*
X009653Y011328D03*
X009653Y011308D03*
X009613Y011228D03*
X009613Y011208D03*
X009613Y011188D03*
X009613Y011168D03*
X009573Y011008D03*
X009573Y010988D03*
X009553Y010868D03*
X009553Y010848D03*
X009553Y010828D03*
X009533Y010808D03*
X007713Y011488D03*
X007693Y011468D03*
X011953Y018628D03*
X010773Y019108D03*
X008713Y021028D03*
X015093Y018588D03*
X018253Y021268D03*
X019713Y021948D03*
X019713Y021968D03*
D35*
X018263Y021328D03*
X018263Y021308D03*
X018263Y021288D03*
X016463Y018308D03*
X017123Y017708D03*
X019063Y016988D03*
X019063Y016968D03*
X019103Y017048D03*
X020823Y017008D03*
X016303Y014188D03*
X016143Y014308D03*
X015123Y018608D03*
X011923Y018648D03*
X008703Y021048D03*
X008703Y021068D03*
X008703Y021088D03*
X008703Y021108D03*
X008703Y021128D03*
X008703Y021148D03*
X008703Y021168D03*
X008703Y021188D03*
X008703Y021208D03*
X008703Y021228D03*
X008703Y021248D03*
X008703Y021268D03*
X008703Y021288D03*
X008703Y021308D03*
X008703Y021328D03*
X007723Y011508D03*
X009603Y011148D03*
X009603Y011128D03*
X009603Y011108D03*
X009583Y011048D03*
X009583Y011028D03*
X009563Y010968D03*
X009563Y010948D03*
X009563Y010928D03*
X009563Y010908D03*
X009563Y010888D03*
X009683Y011388D03*
X009683Y011408D03*
X009683Y011428D03*
X009703Y011508D03*
X012403Y011408D03*
D36*
X012533Y010988D03*
X011993Y012668D03*
X011993Y013848D03*
X011093Y016868D03*
X016653Y017748D03*
X017793Y017308D03*
X017793Y017288D03*
X017793Y017268D03*
X017813Y017248D03*
X017833Y017228D03*
X017233Y015328D03*
X017213Y015308D03*
X017193Y015268D03*
X017193Y015248D03*
X017173Y015228D03*
X017173Y015208D03*
X017153Y015148D03*
X017133Y015128D03*
X017133Y015108D03*
X017113Y015088D03*
X017113Y015068D03*
X017113Y015048D03*
X017113Y015028D03*
X017093Y015008D03*
X017073Y014988D03*
X017073Y014968D03*
X017053Y014908D03*
X017033Y014868D03*
X017013Y014808D03*
X016993Y014768D03*
X016993Y014748D03*
X016973Y014708D03*
X016973Y014688D03*
X016953Y014648D03*
X016933Y014628D03*
X016933Y014608D03*
X016913Y014568D03*
X016893Y014548D03*
X016893Y014528D03*
X016873Y014488D03*
X016853Y014468D03*
X016833Y014428D03*
X016813Y014408D03*
X016753Y014348D03*
X018033Y020868D03*
D37*
X017743Y017388D03*
X017743Y017368D03*
X017763Y017348D03*
X017763Y017328D03*
X017843Y017208D03*
X017843Y017188D03*
X017863Y017128D03*
X017863Y017108D03*
X017863Y017088D03*
X017863Y017068D03*
X017863Y017048D03*
X017863Y017028D03*
X017863Y017008D03*
X017863Y016988D03*
X017863Y016968D03*
X018423Y017068D03*
X017243Y015428D03*
X017243Y015408D03*
X017243Y015388D03*
X017243Y015368D03*
X017243Y015348D03*
X017203Y015288D03*
X017163Y015188D03*
X017163Y015168D03*
X017063Y014948D03*
X017063Y014928D03*
X017023Y014848D03*
X017023Y014828D03*
X017003Y014788D03*
X016983Y014728D03*
X016883Y014508D03*
X016843Y014448D03*
X016803Y014388D03*
X016783Y014368D03*
X016703Y014308D03*
X018643Y015188D03*
X014263Y018148D03*
X012763Y018188D03*
X011083Y016888D03*
X011003Y016928D03*
X010003Y014768D03*
X010003Y014748D03*
X009983Y014708D03*
X009963Y014668D03*
X009963Y014648D03*
X012543Y011008D03*
X013623Y014128D03*
D38*
X013213Y015728D03*
X010593Y017208D03*
X010373Y017388D03*
X010293Y017448D03*
X010273Y017468D03*
X010173Y017568D03*
X010153Y017588D03*
X010133Y017608D03*
X010113Y017628D03*
X010093Y017648D03*
X010053Y017688D03*
X010033Y017708D03*
X010013Y017728D03*
X009993Y017748D03*
X010173Y014988D03*
X012533Y011048D03*
X017613Y016228D03*
X017793Y016688D03*
X016673Y017788D03*
X018073Y020948D03*
D39*
X019693Y021928D03*
X021013Y020468D03*
X019113Y017088D03*
X019113Y017068D03*
X016473Y018328D03*
X013633Y014028D03*
X012393Y011428D03*
X009713Y011528D03*
X009713Y011548D03*
X009693Y011488D03*
X009693Y011468D03*
X009693Y011448D03*
X009593Y011088D03*
X009593Y011068D03*
X007733Y011528D03*
X007733Y011548D03*
X008913Y016928D03*
X011893Y018668D03*
X008713Y021348D03*
X008713Y021368D03*
X008713Y021388D03*
D40*
X009383Y018568D03*
X009403Y018528D03*
X009403Y018508D03*
X009423Y018488D03*
X009443Y018448D03*
X009463Y018428D03*
X009463Y018408D03*
X009483Y018388D03*
X009523Y018328D03*
X009543Y018308D03*
X008883Y017028D03*
X010243Y015028D03*
X011883Y013788D03*
X012523Y011088D03*
X007603Y011228D03*
X012483Y018368D03*
X014563Y018348D03*
X018643Y015348D03*
X018643Y015328D03*
D41*
X018653Y015408D03*
X014713Y018408D03*
X014633Y018368D03*
X012413Y018408D03*
X012393Y018428D03*
X012853Y015868D03*
X011713Y015328D03*
X009233Y018808D03*
X009233Y018828D03*
X009193Y018888D03*
X009173Y018928D03*
X009153Y018968D03*
X009133Y019028D03*
X009113Y019048D03*
X009093Y019088D03*
X009093Y019108D03*
X009053Y019188D03*
X007613Y011248D03*
X012513Y011148D03*
X018153Y021068D03*
X019773Y022068D03*
D42*
X019793Y022128D03*
X018053Y020928D03*
X014733Y019828D03*
X014333Y018188D03*
X013273Y015688D03*
X011953Y013828D03*
X010113Y014928D03*
X010873Y017008D03*
X010853Y017028D03*
X010793Y017068D03*
X010713Y017128D03*
X010673Y017148D03*
X010653Y017168D03*
X010613Y017188D03*
X010493Y017288D03*
X010473Y017308D03*
X010393Y017368D03*
X007593Y011168D03*
X017453Y015828D03*
X017493Y015948D03*
X017513Y015968D03*
X017513Y015988D03*
X017533Y016048D03*
X017553Y016088D03*
X017573Y016148D03*
X017573Y016168D03*
X017593Y016188D03*
X017633Y016288D03*
X017653Y016328D03*
X017673Y016388D03*
X017693Y016408D03*
X017693Y016428D03*
X017733Y016528D03*
X017753Y016608D03*
X017813Y016728D03*
X017813Y016748D03*
X017813Y016768D03*
X017833Y016808D03*
X018653Y015228D03*
D43*
X019103Y017108D03*
X020823Y017028D03*
X018263Y021348D03*
X018263Y021368D03*
X018263Y021388D03*
X018263Y021408D03*
X018263Y021428D03*
X018263Y021448D03*
X018263Y021468D03*
X018263Y021488D03*
X019683Y021908D03*
X017123Y017688D03*
X015183Y018628D03*
X011823Y018688D03*
X011843Y015588D03*
X011603Y015508D03*
X011723Y013688D03*
X012363Y011488D03*
X012383Y011448D03*
X009723Y011568D03*
X009723Y011588D03*
X009723Y011608D03*
X009723Y011628D03*
X007783Y011628D03*
X007783Y011648D03*
X007763Y011608D03*
X007763Y011588D03*
X007743Y011568D03*
X008723Y021408D03*
X008723Y021428D03*
X008723Y021448D03*
X008723Y021468D03*
X008723Y021488D03*
X008723Y021508D03*
X008723Y021528D03*
X008723Y021548D03*
D44*
X008733Y021568D03*
X008733Y021588D03*
X008733Y021608D03*
X008733Y021628D03*
X008753Y021668D03*
X008753Y021688D03*
X008753Y021708D03*
X008753Y021728D03*
X008753Y021748D03*
X011793Y018708D03*
X011793Y015568D03*
X011753Y015548D03*
X011653Y015528D03*
X010613Y015188D03*
X008913Y016908D03*
X007853Y011768D03*
X007853Y011748D03*
X007833Y011728D03*
X009713Y011688D03*
X009713Y011668D03*
X009713Y011648D03*
X012333Y011528D03*
X012353Y011508D03*
X012373Y011468D03*
X013613Y014008D03*
X016133Y014328D03*
X016473Y018348D03*
X018253Y021508D03*
X018253Y021528D03*
X018253Y021548D03*
X018253Y021568D03*
X018233Y021588D03*
X018233Y021608D03*
X018233Y021628D03*
X018233Y021648D03*
X019673Y021888D03*
X020993Y020448D03*
D45*
X019623Y021828D03*
X019643Y021848D03*
X019663Y021868D03*
X018223Y021748D03*
X018223Y021728D03*
X018223Y021708D03*
X018223Y021688D03*
X018223Y021668D03*
X017483Y018468D03*
X017483Y018448D03*
X019083Y017128D03*
X016283Y014208D03*
X016123Y014348D03*
X013103Y015588D03*
X012843Y015808D03*
X010643Y015208D03*
X009723Y011728D03*
X009723Y011708D03*
X007923Y011888D03*
X007903Y011848D03*
X007883Y011828D03*
X007863Y011788D03*
X007823Y011708D03*
X007803Y011688D03*
X007803Y011668D03*
X012323Y011548D03*
X015223Y018648D03*
X008743Y021648D03*
X008763Y021768D03*
X008763Y021788D03*
D46*
X008773Y021808D03*
X008773Y021828D03*
X008773Y021848D03*
X008773Y021868D03*
X008773Y021888D03*
X008773Y021908D03*
X010773Y019088D03*
X008913Y016888D03*
X008913Y016868D03*
X010673Y015228D03*
X010773Y015248D03*
X010813Y015268D03*
X011493Y015468D03*
X011513Y015488D03*
X010733Y013708D03*
X009773Y011988D03*
X009773Y011968D03*
X009753Y011908D03*
X009753Y011888D03*
X009733Y011848D03*
X009733Y011828D03*
X009733Y011808D03*
X009733Y011788D03*
X009733Y011768D03*
X009733Y011748D03*
X008553Y012788D03*
X008593Y012868D03*
X007913Y011868D03*
X007873Y011808D03*
X012293Y011588D03*
X012313Y011568D03*
X017473Y018428D03*
X015253Y018668D03*
X018213Y021768D03*
X018213Y021788D03*
X019613Y021808D03*
D47*
X019603Y021788D03*
X018203Y021808D03*
X018203Y021828D03*
X018203Y021848D03*
X018203Y021868D03*
X018203Y021888D03*
X018203Y021908D03*
X018183Y021948D03*
X018163Y022028D03*
X018163Y022048D03*
X018143Y022108D03*
X017463Y018408D03*
X017123Y017668D03*
X016483Y018368D03*
X013083Y015568D03*
X011023Y015328D03*
X008583Y012848D03*
X008583Y012828D03*
X008563Y012808D03*
X008503Y012728D03*
X007943Y011908D03*
X009743Y011868D03*
X009763Y011928D03*
X009763Y011948D03*
X009783Y012008D03*
X012263Y011628D03*
X012263Y011608D03*
X008783Y021928D03*
X008783Y021948D03*
X008783Y021968D03*
D48*
X008793Y021988D03*
X008793Y022008D03*
X008813Y022028D03*
X008813Y022048D03*
X008813Y022068D03*
X008833Y022128D03*
X011673Y018748D03*
X011713Y018728D03*
X015313Y018688D03*
X015353Y018708D03*
X017453Y018388D03*
X019553Y021728D03*
X019573Y021748D03*
X019593Y021768D03*
X018193Y021928D03*
X018173Y021968D03*
X018173Y021988D03*
X018173Y022008D03*
X018153Y022068D03*
X018153Y022088D03*
X018133Y022128D03*
X018133Y022148D03*
X018133Y022168D03*
X020973Y020428D03*
X020813Y017048D03*
X016293Y014228D03*
X016133Y014368D03*
X013593Y013988D03*
X013593Y013968D03*
X011673Y013668D03*
X012233Y011668D03*
X012253Y011648D03*
X009933Y012368D03*
X009933Y012388D03*
X009933Y012408D03*
X009913Y012328D03*
X009893Y012308D03*
X009893Y012288D03*
X009873Y012228D03*
X009833Y012128D03*
X009833Y012108D03*
X009813Y012088D03*
X009813Y012068D03*
X009793Y012048D03*
X009793Y012028D03*
X008613Y012888D03*
X008633Y012928D03*
X008653Y012948D03*
X008533Y012768D03*
X008513Y012748D03*
X008493Y012708D03*
X008473Y012688D03*
X008473Y012668D03*
X008453Y012648D03*
X007973Y011928D03*
D49*
X007983Y011948D03*
X008003Y011968D03*
X008023Y011988D03*
X008023Y012008D03*
X008383Y012528D03*
X008403Y012548D03*
X008423Y012588D03*
X008443Y012608D03*
X008443Y012628D03*
X008623Y012908D03*
X009943Y012448D03*
X009943Y012428D03*
X009963Y012468D03*
X009923Y012348D03*
X009883Y012268D03*
X009883Y012248D03*
X009863Y012208D03*
X009843Y012188D03*
X009843Y012168D03*
X009843Y012148D03*
X012203Y011708D03*
X012223Y011688D03*
X013563Y013948D03*
X016143Y014388D03*
X017443Y018368D03*
X019483Y021628D03*
X019523Y021688D03*
X019543Y021708D03*
X018123Y022188D03*
X018123Y022208D03*
X020803Y017068D03*
X010883Y015288D03*
X008923Y016848D03*
X008823Y022088D03*
X008823Y022108D03*
X008843Y022148D03*
X008843Y022168D03*
X008843Y022188D03*
X008843Y022208D03*
D50*
X008883Y022328D03*
X008903Y022348D03*
X008903Y022368D03*
X008923Y022448D03*
X011583Y018788D03*
X009043Y016568D03*
X009023Y016608D03*
X009023Y016628D03*
X009003Y016648D03*
X009003Y016668D03*
X008983Y016708D03*
X008963Y016728D03*
X008963Y016748D03*
X008963Y016768D03*
X010743Y013728D03*
X011643Y013648D03*
X012143Y011768D03*
X012183Y011728D03*
X013303Y013708D03*
X013543Y013928D03*
X010003Y012548D03*
X010003Y012528D03*
X008683Y012988D03*
X008363Y012488D03*
X008323Y012428D03*
X008323Y012408D03*
X008303Y012388D03*
X008283Y012368D03*
X008283Y012348D03*
X008263Y012328D03*
X008263Y012308D03*
X008243Y012288D03*
X008243Y012268D03*
X008223Y012248D03*
X008183Y012208D03*
X008183Y012188D03*
X008163Y012168D03*
X008143Y012148D03*
X008103Y012088D03*
X008063Y012048D03*
X015003Y019748D03*
X016483Y018388D03*
X017423Y018348D03*
X017423Y018328D03*
X017423Y018308D03*
X019023Y021108D03*
X019023Y021128D03*
X019063Y021168D03*
X019063Y021188D03*
X019103Y021208D03*
X019103Y021228D03*
X019203Y021328D03*
X019283Y021388D03*
X019283Y021408D03*
X019343Y021468D03*
X019363Y021488D03*
X019383Y021508D03*
X019403Y021528D03*
X019423Y021548D03*
X019423Y021568D03*
X019463Y021608D03*
X018103Y022288D03*
X018083Y022348D03*
X018063Y022368D03*
X018063Y022388D03*
X018063Y022408D03*
X018063Y022428D03*
X018063Y022448D03*
D51*
X018093Y022328D03*
X018093Y022308D03*
X018113Y022268D03*
X018113Y022248D03*
X018113Y022228D03*
X019453Y021588D03*
X019493Y021648D03*
X019513Y021668D03*
X020953Y020408D03*
X016133Y014408D03*
X016293Y014248D03*
X013333Y013728D03*
X013073Y015548D03*
X011433Y015448D03*
X010933Y015308D03*
X008953Y016788D03*
X008933Y016808D03*
X008933Y016828D03*
X011613Y018768D03*
X008853Y022228D03*
X008853Y022248D03*
X008873Y022268D03*
X008873Y022288D03*
X008873Y022308D03*
X013473Y026428D03*
X008673Y012968D03*
X008413Y012568D03*
X008373Y012508D03*
X008353Y012468D03*
X008333Y012448D03*
X008193Y012228D03*
X008133Y012128D03*
X008113Y012108D03*
X008093Y012068D03*
X008053Y012028D03*
X009973Y012488D03*
X009973Y012508D03*
X012153Y011748D03*
D52*
X012113Y011788D03*
X012093Y011828D03*
X013373Y013748D03*
X013473Y013848D03*
X013533Y013908D03*
X012813Y015788D03*
X011413Y015428D03*
X009113Y016408D03*
X009113Y016428D03*
X009113Y016448D03*
X009093Y016468D03*
X009093Y016488D03*
X009073Y016508D03*
X009053Y016548D03*
X009033Y016588D03*
X008993Y016688D03*
X008693Y013008D03*
X008913Y022388D03*
X008913Y022408D03*
X008913Y022428D03*
X008933Y022468D03*
X008953Y022528D03*
X008953Y022548D03*
X016493Y018408D03*
X017113Y017648D03*
X019013Y021088D03*
X019033Y021148D03*
X019113Y021248D03*
X019153Y021268D03*
X019153Y021288D03*
X019193Y021308D03*
X019233Y021348D03*
X019253Y021368D03*
X019293Y021428D03*
X019333Y021448D03*
X018053Y022468D03*
X018033Y022488D03*
X018033Y022508D03*
X018013Y022548D03*
D53*
X018023Y022528D03*
X018003Y022568D03*
X018003Y022588D03*
X018003Y022608D03*
X018003Y022628D03*
X018983Y021068D03*
X018963Y021028D03*
X016143Y014428D03*
X013483Y013868D03*
X013463Y013828D03*
X013423Y013808D03*
X013423Y013788D03*
X013383Y013768D03*
X012023Y011888D03*
X012043Y011868D03*
X012063Y011848D03*
X012103Y011808D03*
X010023Y012568D03*
X010023Y012588D03*
X009203Y016168D03*
X009203Y016188D03*
X009203Y016208D03*
X009183Y016228D03*
X009183Y016248D03*
X009163Y016268D03*
X009163Y016288D03*
X009163Y016308D03*
X009143Y016328D03*
X009143Y016348D03*
X009123Y016368D03*
X009123Y016388D03*
X009063Y016528D03*
X011483Y018808D03*
X008943Y022488D03*
X008943Y022508D03*
X008963Y022568D03*
X008983Y022608D03*
X008983Y022628D03*
D54*
X008993Y022648D03*
X008993Y022668D03*
X009013Y022708D03*
X008973Y022588D03*
X009213Y016148D03*
X009233Y016128D03*
X009233Y016108D03*
X009253Y016088D03*
X009253Y016068D03*
X009253Y016048D03*
X012013Y011908D03*
X013513Y013888D03*
X016133Y014448D03*
X017113Y017628D03*
X017413Y018288D03*
X016493Y018428D03*
X018933Y021008D03*
X018973Y021048D03*
X017993Y022648D03*
X017973Y022668D03*
X017953Y022708D03*
X017953Y022728D03*
X020913Y020388D03*
X020793Y017088D03*
D55*
X020783Y017108D03*
X020903Y020368D03*
X018923Y020988D03*
X017963Y022688D03*
X017943Y022748D03*
X017943Y022768D03*
X017923Y022808D03*
X017403Y018268D03*
X011963Y011928D03*
X011603Y013628D03*
X009263Y016028D03*
X008723Y013028D03*
X011463Y018828D03*
X011423Y018848D03*
X009003Y022688D03*
X009023Y022728D03*
X009043Y022748D03*
X009043Y022768D03*
D56*
X009053Y022788D03*
X009053Y022808D03*
X009053Y022828D03*
X009073Y022848D03*
X009093Y022888D03*
X009273Y016008D03*
X010053Y012608D03*
X011633Y012208D03*
X011673Y012168D03*
X011713Y012128D03*
X011773Y012088D03*
X011893Y011988D03*
X011913Y011968D03*
X011953Y011948D03*
X012913Y013528D03*
X017113Y017588D03*
X017113Y017608D03*
X018873Y020948D03*
X018893Y020968D03*
X017933Y022788D03*
X017913Y022828D03*
X017893Y022868D03*
X017873Y022908D03*
D57*
X017833Y023008D03*
X017813Y023028D03*
X017813Y023048D03*
X020853Y020328D03*
X017373Y018248D03*
X016493Y018468D03*
X016133Y014508D03*
X016133Y014488D03*
X013173Y013688D03*
X013053Y013628D03*
X012973Y013568D03*
X011793Y012068D03*
X011873Y012008D03*
X011613Y012228D03*
X011593Y012268D03*
X011573Y012288D03*
X013013Y015528D03*
X011333Y018868D03*
X011293Y018888D03*
X010793Y019068D03*
X009313Y015988D03*
X009113Y022928D03*
X009113Y022948D03*
X009113Y022968D03*
X009133Y022988D03*
X009133Y023008D03*
X009153Y023028D03*
X009173Y023048D03*
D58*
X009103Y022908D03*
X009083Y022868D03*
X015043Y019728D03*
X016503Y018448D03*
X016143Y014468D03*
X012923Y013548D03*
X012883Y013508D03*
X011663Y012188D03*
X011703Y012148D03*
X011743Y012108D03*
X011823Y012048D03*
X011843Y012028D03*
X011603Y012248D03*
X011583Y013608D03*
X017903Y022848D03*
X017883Y022888D03*
X017863Y022928D03*
X017863Y022948D03*
X017863Y022968D03*
X017843Y022988D03*
X020883Y020348D03*
X020763Y017128D03*
D59*
X020763Y017148D03*
X020843Y020308D03*
X018843Y020928D03*
X018823Y020908D03*
X017363Y018228D03*
X016483Y018488D03*
X016123Y014528D03*
X013143Y013668D03*
X013103Y013648D03*
X012983Y013588D03*
X011543Y013588D03*
X011563Y012328D03*
X011563Y012308D03*
X013003Y015508D03*
X009183Y023068D03*
D60*
X009193Y023088D03*
X009193Y023108D03*
X009193Y023128D03*
X009213Y023148D03*
X009233Y023168D03*
X009233Y023188D03*
X009333Y015968D03*
X011473Y012448D03*
X011493Y012408D03*
X011513Y012388D03*
X011533Y012368D03*
X011533Y012348D03*
X013033Y013608D03*
X016133Y014548D03*
X017113Y017568D03*
X018253Y020368D03*
X018293Y020408D03*
X018313Y020428D03*
X018773Y020848D03*
X018793Y020868D03*
X018793Y020888D03*
X017793Y023068D03*
X017793Y023088D03*
X017793Y023108D03*
X017773Y023128D03*
X017753Y023168D03*
D61*
X017763Y023148D03*
X017743Y023188D03*
X017703Y023248D03*
X018743Y020828D03*
X018383Y020488D03*
X018343Y020448D03*
X018263Y020388D03*
X018223Y020348D03*
X020823Y020288D03*
X020763Y017168D03*
X011523Y013568D03*
X010803Y013748D03*
X011423Y012508D03*
X011443Y012468D03*
X011483Y012428D03*
X009263Y014328D03*
X009263Y014348D03*
X009263Y014368D03*
X009263Y014388D03*
X009263Y014408D03*
X009263Y014428D03*
X009263Y014448D03*
X009263Y014468D03*
X009263Y014488D03*
X009263Y014508D03*
X009263Y014528D03*
X009263Y014548D03*
X009263Y014568D03*
X009263Y014588D03*
X009263Y014608D03*
X009263Y014628D03*
X011323Y015408D03*
X009243Y023208D03*
X009263Y023228D03*
X009263Y023248D03*
X009283Y023268D03*
X009283Y023288D03*
D62*
X009293Y023308D03*
X010833Y019048D03*
X011313Y015388D03*
X012713Y013448D03*
X012693Y013428D03*
X011433Y012488D03*
X011393Y012528D03*
X011373Y012548D03*
X011333Y012568D03*
X009273Y014268D03*
X009273Y014288D03*
X009273Y014308D03*
X009273Y014648D03*
X009273Y014668D03*
X009273Y014688D03*
X009273Y014708D03*
X009273Y014728D03*
X012993Y015488D03*
X016133Y014568D03*
X017333Y018208D03*
X016493Y018508D03*
X018173Y020328D03*
X018353Y020468D03*
X018433Y020528D03*
X018453Y020548D03*
X018633Y020728D03*
X018653Y020748D03*
X018673Y020768D03*
X018693Y020788D03*
X018733Y020808D03*
X020793Y020268D03*
X017733Y023208D03*
X017713Y023228D03*
X017693Y023268D03*
X017673Y023328D03*
D63*
X017683Y023308D03*
X017683Y023288D03*
X017643Y023348D03*
X017643Y023368D03*
X017623Y023388D03*
X018583Y020668D03*
X018543Y020648D03*
X018543Y020628D03*
X018503Y020608D03*
X018483Y020588D03*
X018463Y020568D03*
X018403Y020508D03*
X017323Y018188D03*
X017103Y017548D03*
X016503Y018528D03*
X016143Y014608D03*
X016143Y014588D03*
X012763Y013488D03*
X012743Y013468D03*
X011303Y012588D03*
X010803Y013768D03*
X009283Y014148D03*
X009283Y014168D03*
X009283Y014188D03*
X009283Y014208D03*
X009283Y014228D03*
X009283Y014248D03*
X009383Y015948D03*
X011203Y018908D03*
X009303Y023328D03*
X009323Y023348D03*
X009343Y023368D03*
X020763Y020248D03*
X020723Y017208D03*
D64*
X020703Y017228D03*
X020643Y017288D03*
X020743Y020228D03*
X018103Y020288D03*
X017283Y018168D03*
X016143Y014648D03*
X011263Y012608D03*
X009303Y014108D03*
X009283Y014788D03*
X009283Y014808D03*
X009403Y015928D03*
X010843Y019028D03*
X009363Y023408D03*
X009383Y023448D03*
X009423Y023508D03*
X017563Y023508D03*
X017563Y023488D03*
X017583Y023468D03*
D65*
X016023Y024928D03*
X016003Y024948D03*
X010983Y024948D03*
X018263Y018528D03*
X019003Y018028D03*
X010683Y012628D03*
D66*
X010663Y012648D03*
X011063Y014068D03*
X011063Y014088D03*
X018263Y018568D03*
D67*
X019783Y022148D03*
X011983Y012648D03*
X011603Y015608D03*
D68*
X012553Y015188D03*
X010673Y012688D03*
X010673Y012668D03*
X018993Y018048D03*
X016073Y024908D03*
D69*
X017463Y020048D03*
X018243Y018588D03*
X018983Y018068D03*
X011063Y014048D03*
X010663Y012708D03*
X010903Y024908D03*
D70*
X015703Y025068D03*
X011203Y014188D03*
X010883Y012728D03*
D71*
X010903Y012748D03*
X015663Y025088D03*
D72*
X017273Y019788D03*
X017273Y019768D03*
X010933Y012768D03*
D73*
X010953Y012788D03*
X010953Y012808D03*
X011233Y014228D03*
X012273Y015008D03*
D74*
X010973Y012828D03*
X017233Y019728D03*
D75*
X010983Y012848D03*
D76*
X010993Y012868D03*
X011413Y025108D03*
X013493Y026268D03*
X015573Y025108D03*
D77*
X015533Y025128D03*
X011013Y012888D03*
D78*
X011023Y012908D03*
X011303Y014268D03*
X012203Y014968D03*
X011463Y025128D03*
D79*
X011043Y012928D03*
D80*
X011053Y012948D03*
X019073Y017688D03*
D81*
X011563Y025148D03*
X011063Y012988D03*
X011063Y012968D03*
D82*
X010483Y013008D03*
X009503Y013588D03*
X018843Y018288D03*
D83*
X020593Y017328D03*
X020633Y017308D03*
X020653Y017268D03*
X017273Y018088D03*
X017273Y018148D03*
X017013Y017428D03*
X016493Y018548D03*
X016133Y014668D03*
X012013Y013008D03*
X011293Y015368D03*
X009413Y015908D03*
X009293Y014848D03*
X009293Y014828D03*
X009433Y023528D03*
X017473Y023628D03*
X017493Y023608D03*
X017513Y023568D03*
X017533Y023548D03*
X017553Y023528D03*
D84*
X011473Y014368D03*
X011053Y013028D03*
D85*
X010463Y013048D03*
D86*
X009793Y013068D03*
X011413Y014328D03*
X012073Y014908D03*
X015393Y025148D03*
D87*
X017183Y023988D03*
X017223Y023948D03*
X017243Y023928D03*
X017943Y020208D03*
X017123Y017448D03*
X017003Y017228D03*
X017003Y017208D03*
X016583Y016048D03*
X016543Y015788D03*
X016383Y015468D03*
X016363Y015448D03*
X016323Y015348D03*
X016323Y015328D03*
X016303Y015308D03*
X016303Y015288D03*
X016263Y015228D03*
X016263Y015208D03*
X016263Y015188D03*
X016243Y015148D03*
X016243Y015128D03*
X012043Y013068D03*
X009543Y015808D03*
X009363Y015108D03*
X009363Y013868D03*
X009363Y013848D03*
X009743Y023948D03*
X009763Y023968D03*
X009783Y023988D03*
X020563Y020148D03*
D88*
X010513Y013088D03*
D89*
X010563Y013108D03*
D90*
X010573Y013128D03*
D91*
X010613Y013148D03*
X017133Y019048D03*
D92*
X013503Y025908D03*
X010643Y013188D03*
X010623Y013168D03*
D93*
X010673Y013208D03*
D94*
X010683Y013228D03*
X017123Y019068D03*
X013483Y025888D03*
D95*
X010713Y013268D03*
X010713Y013248D03*
D96*
X010743Y013288D03*
D97*
X010753Y013308D03*
X010773Y013328D03*
X010793Y013368D03*
D98*
X010783Y013348D03*
X010823Y013408D03*
X017123Y019088D03*
D99*
X017113Y019108D03*
X010813Y013388D03*
D100*
X010293Y013428D03*
D101*
X010293Y013448D03*
X013493Y026128D03*
D102*
X010283Y013468D03*
D103*
X010293Y013488D03*
X011673Y014628D03*
D104*
X011633Y014568D03*
X010293Y013548D03*
X010293Y013528D03*
X010293Y013508D03*
D105*
X009513Y013568D03*
X011033Y013928D03*
X018873Y018248D03*
X016333Y024748D03*
D106*
X016523Y024628D03*
X018803Y018328D03*
X010463Y024628D03*
X009663Y015448D03*
X009503Y013608D03*
D107*
X009493Y013628D03*
X009673Y015468D03*
X009673Y015488D03*
X010433Y024608D03*
X016533Y024608D03*
X018793Y018348D03*
D108*
X016723Y024468D03*
X016683Y024508D03*
X010303Y024508D03*
X010283Y024488D03*
X010263Y024468D03*
X009683Y015588D03*
X009683Y015568D03*
X009683Y015548D03*
X009443Y013648D03*
X012763Y015328D03*
D109*
X009443Y013668D03*
X016543Y015488D03*
X018683Y017448D03*
X018603Y017548D03*
X018703Y018428D03*
X016763Y024428D03*
X016743Y024448D03*
D110*
X017773Y020128D03*
X018673Y018448D03*
X018593Y017628D03*
X018593Y017608D03*
X018593Y017588D03*
X018593Y017568D03*
X018653Y017508D03*
X018673Y017468D03*
X018693Y017428D03*
X018693Y017408D03*
X018713Y017388D03*
X018713Y017368D03*
X018713Y017348D03*
X020153Y019908D03*
X020213Y019948D03*
X013473Y017028D03*
X013473Y017008D03*
X013473Y016988D03*
X009673Y015628D03*
X009673Y015608D03*
X009433Y013688D03*
X010213Y024428D03*
X010233Y024448D03*
D111*
X010123Y024348D03*
X013463Y017108D03*
X013463Y017088D03*
X013463Y016908D03*
X012823Y015368D03*
X010903Y013868D03*
X009443Y013708D03*
X009483Y015288D03*
X009663Y015648D03*
X019683Y019688D03*
X019803Y019728D03*
X019903Y019768D03*
X020363Y020048D03*
X020383Y020068D03*
D112*
X020423Y020088D03*
X020443Y020108D03*
X018743Y017228D03*
X016943Y024268D03*
X016883Y024328D03*
X013483Y026388D03*
X010083Y024328D03*
X010063Y024288D03*
X009423Y013728D03*
D113*
X009403Y013748D03*
X009423Y015208D03*
X009423Y015228D03*
X009983Y024208D03*
X010023Y024248D03*
X017003Y024208D03*
X017863Y020168D03*
X018763Y017208D03*
X018763Y017188D03*
X018763Y017168D03*
D114*
X018753Y017148D03*
X016933Y017048D03*
X016913Y017028D03*
X016913Y017008D03*
X017033Y024168D03*
X009953Y024188D03*
X009613Y015708D03*
X009413Y015188D03*
X009393Y013768D03*
X010873Y013828D03*
D115*
X009383Y013788D03*
X009603Y015728D03*
X012863Y015408D03*
X016763Y016568D03*
X016843Y016748D03*
X016843Y016768D03*
X016923Y016968D03*
X016923Y016988D03*
X016943Y017068D03*
X017063Y024148D03*
X017023Y024188D03*
X009943Y024168D03*
X009923Y024148D03*
X009903Y024128D03*
X009883Y024108D03*
X009863Y024088D03*
D116*
X009483Y023588D03*
X009463Y023568D03*
X009443Y023548D03*
X010883Y019008D03*
X012963Y015468D03*
X010803Y013788D03*
X009303Y014048D03*
X009303Y014068D03*
X009303Y014088D03*
X009303Y014868D03*
X009303Y014888D03*
X009303Y014908D03*
X016143Y014728D03*
X016143Y014708D03*
X016143Y014688D03*
X017003Y017408D03*
X017263Y018068D03*
X017263Y018108D03*
X017263Y018128D03*
X016503Y018568D03*
X018083Y020268D03*
X020563Y017348D03*
X020703Y020208D03*
X017503Y023588D03*
X017463Y023648D03*
D117*
X017113Y024088D03*
X017093Y024108D03*
X017073Y024128D03*
X020513Y020128D03*
X017153Y018008D03*
X017153Y017988D03*
X016973Y017108D03*
X016913Y016948D03*
X016913Y016928D03*
X016893Y016888D03*
X016873Y016828D03*
X016853Y016808D03*
X016853Y016788D03*
X016833Y016728D03*
X016813Y016708D03*
X016813Y016688D03*
X016793Y016668D03*
X016793Y016648D03*
X016793Y016628D03*
X016793Y016608D03*
X016773Y016588D03*
X016753Y016548D03*
X016753Y016528D03*
X016753Y016508D03*
X016733Y016488D03*
X016733Y016468D03*
X016713Y016448D03*
X016713Y016428D03*
X016713Y016408D03*
X016713Y016388D03*
X016673Y016328D03*
X016653Y016308D03*
X016653Y016288D03*
X016653Y016268D03*
X016633Y016248D03*
X016633Y016228D03*
X016613Y016208D03*
X016613Y016188D03*
X013453Y016888D03*
X009593Y015748D03*
X009393Y015168D03*
X009373Y013808D03*
X009853Y024068D03*
D118*
X009693Y023888D03*
X009673Y023868D03*
X010953Y018968D03*
X009493Y015848D03*
X009513Y015828D03*
X009333Y015028D03*
X009333Y015008D03*
X009353Y013908D03*
X010833Y013808D03*
X016173Y014888D03*
X016173Y014908D03*
X016173Y014928D03*
X016173Y014948D03*
X017013Y017268D03*
X017113Y017468D03*
X016513Y018628D03*
X017993Y020228D03*
X017333Y023828D03*
X017313Y023848D03*
X017273Y023888D03*
D119*
X017173Y024008D03*
X017153Y024028D03*
X016993Y017188D03*
X016993Y017168D03*
X016993Y017148D03*
X016593Y016128D03*
X016593Y016108D03*
X016593Y016088D03*
X016593Y016068D03*
X009813Y024028D03*
X009793Y024008D03*
X009833Y024048D03*
X009373Y015128D03*
X009373Y013828D03*
D120*
X010893Y013848D03*
X009633Y015688D03*
X012833Y015388D03*
X013473Y017128D03*
X009993Y024228D03*
X010033Y024268D03*
X016953Y024248D03*
X016993Y024228D03*
D121*
X012803Y018168D03*
X012043Y013868D03*
D122*
X012913Y015428D03*
X016193Y015008D03*
X016213Y015028D03*
X016213Y015048D03*
X016213Y015068D03*
X016213Y015088D03*
X016233Y015108D03*
X016253Y015168D03*
X016293Y015248D03*
X016293Y015268D03*
X016333Y015368D03*
X016333Y015388D03*
X016353Y015408D03*
X016353Y015428D03*
X016533Y015808D03*
X016553Y015928D03*
X016573Y015968D03*
X016573Y015988D03*
X016573Y016008D03*
X016573Y016028D03*
X020253Y017488D03*
X020373Y017408D03*
X017213Y023968D03*
X009733Y023928D03*
X009353Y015088D03*
X009353Y015068D03*
X009353Y013888D03*
D123*
X010933Y013888D03*
X012773Y015348D03*
X016553Y015508D03*
X018713Y018408D03*
X016693Y024488D03*
D124*
X016633Y024548D03*
X016593Y024568D03*
X018773Y018368D03*
X010953Y013908D03*
X009613Y015388D03*
X010393Y024568D03*
D125*
X009663Y023848D03*
X009643Y023828D03*
X009623Y023808D03*
X009603Y023788D03*
X016503Y018608D03*
X017003Y017308D03*
X017003Y017288D03*
X016163Y014868D03*
X016163Y014848D03*
X012923Y015448D03*
X009323Y014988D03*
X009343Y013948D03*
X009343Y013928D03*
X017363Y023788D03*
X017343Y023808D03*
X020123Y017568D03*
X020143Y017548D03*
X020183Y017528D03*
X020203Y017508D03*
X020443Y017388D03*
D126*
X018883Y018228D03*
X016303Y024768D03*
X010663Y024768D03*
X010643Y024748D03*
X011043Y013948D03*
D127*
X011263Y015348D03*
X009463Y015868D03*
X009463Y015888D03*
X009323Y014948D03*
X009323Y013988D03*
X009323Y013968D03*
X011003Y018948D03*
X010903Y018988D03*
X009543Y023688D03*
X016143Y014768D03*
X016143Y014748D03*
X017023Y017348D03*
X017023Y017368D03*
X017123Y017508D03*
X020103Y017588D03*
X017423Y023708D03*
X017383Y023748D03*
D128*
X017523Y020068D03*
X012583Y015268D03*
X011043Y013968D03*
X010743Y024828D03*
D129*
X012573Y015308D03*
X012573Y015288D03*
X012573Y015248D03*
X011053Y013988D03*
X018933Y018148D03*
X018933Y018168D03*
D130*
X017133Y017528D03*
X017013Y017388D03*
X020673Y020188D03*
X017453Y023668D03*
X017433Y023688D03*
X009533Y023668D03*
X009513Y023648D03*
X009493Y023628D03*
X009493Y023608D03*
X009313Y014928D03*
X009313Y014028D03*
X009313Y014008D03*
D131*
X011063Y014008D03*
X011063Y014028D03*
X012583Y015228D03*
X018963Y018108D03*
D132*
X019003Y018008D03*
X018263Y018508D03*
X012503Y015148D03*
X011083Y014108D03*
D133*
X009293Y014128D03*
X009273Y014748D03*
X009273Y014768D03*
X011153Y018928D03*
X009353Y023388D03*
X009373Y023428D03*
X009393Y023468D03*
X009413Y023488D03*
X016133Y014628D03*
X020693Y017248D03*
X020733Y017188D03*
X018153Y020308D03*
X018593Y020688D03*
X018613Y020708D03*
X017613Y023408D03*
X017613Y023428D03*
X017593Y023448D03*
D134*
X015943Y024968D03*
X017383Y019988D03*
X018283Y018488D03*
X011103Y014128D03*
X011043Y024968D03*
D135*
X010793Y019128D03*
X016293Y014128D03*
X018633Y015168D03*
X018013Y020848D03*
D136*
X017333Y019948D03*
X013493Y026308D03*
X011133Y014148D03*
D137*
X008883Y017008D03*
X009343Y018608D03*
X009323Y018668D03*
X009303Y018688D03*
X009283Y018728D03*
X009263Y018748D03*
X009243Y018788D03*
X009223Y018848D03*
X009203Y018868D03*
X016423Y018228D03*
X016723Y017828D03*
X017103Y017748D03*
X018403Y017088D03*
X018643Y015388D03*
X018643Y015368D03*
X016283Y014148D03*
X018143Y021048D03*
D138*
X011183Y014168D03*
D139*
X011213Y014208D03*
X011313Y025088D03*
D140*
X012223Y014988D03*
X011283Y014248D03*
D141*
X011343Y014288D03*
X018943Y017768D03*
X018943Y017788D03*
X019003Y017748D03*
D142*
X017853Y017168D03*
X017853Y017148D03*
X017853Y016948D03*
X017853Y016928D03*
X017853Y016908D03*
X017853Y016888D03*
X017853Y016868D03*
X017253Y015448D03*
X016733Y014328D03*
X016693Y014288D03*
X012753Y018208D03*
X011033Y016908D03*
X010053Y014848D03*
X009993Y014728D03*
X009973Y014688D03*
X018033Y020888D03*
D143*
X018893Y017808D03*
X019113Y017668D03*
X019133Y017648D03*
X011373Y014308D03*
D144*
X011453Y014348D03*
X012033Y014868D03*
X013493Y026208D03*
D145*
X011493Y014388D03*
D146*
X011513Y014408D03*
X011933Y014828D03*
X011733Y025168D03*
D147*
X011543Y014428D03*
D148*
X011543Y014448D03*
X011783Y014648D03*
X011803Y014668D03*
X011823Y014688D03*
X011863Y014728D03*
X013483Y026168D03*
D149*
X011583Y014488D03*
X011583Y014468D03*
D150*
X011603Y014508D03*
X017523Y018708D03*
D151*
X011613Y014528D03*
D152*
X011623Y014548D03*
D153*
X011643Y014588D03*
X011663Y014608D03*
D154*
X014243Y018128D03*
X016963Y014668D03*
X016923Y014588D03*
X017043Y014888D03*
D155*
X011893Y014768D03*
X011893Y014748D03*
X011833Y014708D03*
D156*
X011913Y014788D03*
X015233Y025168D03*
D157*
X017373Y023768D03*
X017413Y023728D03*
X018013Y020248D03*
X016493Y018588D03*
X017233Y018048D03*
X017113Y017488D03*
X017013Y017328D03*
X016153Y014828D03*
X016153Y014808D03*
X016153Y014788D03*
X020053Y017628D03*
X020073Y017608D03*
X020493Y017368D03*
X020633Y020168D03*
X009593Y023748D03*
X009593Y023768D03*
X009573Y023728D03*
X009553Y023708D03*
X009313Y014968D03*
D158*
X011923Y014808D03*
X013483Y026188D03*
D159*
X011983Y014848D03*
D160*
X012053Y014888D03*
D161*
X012123Y014928D03*
X019023Y017728D03*
X019063Y017708D03*
D162*
X012153Y014948D03*
D163*
X009343Y015048D03*
X016183Y014988D03*
X016183Y014968D03*
X016523Y015828D03*
X016523Y015848D03*
X016523Y015868D03*
X016523Y015888D03*
X016543Y015908D03*
X016563Y015948D03*
X017003Y017248D03*
X016503Y018648D03*
X020283Y017468D03*
X020303Y017448D03*
X020343Y017428D03*
X017303Y023868D03*
X017263Y023908D03*
X009703Y023908D03*
D164*
X012303Y015028D03*
D165*
X012353Y015048D03*
D166*
X012373Y015068D03*
X011253Y025068D03*
X013493Y026288D03*
D167*
X015773Y025048D03*
X017293Y019868D03*
X017293Y019848D03*
X012393Y015088D03*
D168*
X012423Y015108D03*
X017323Y019928D03*
D169*
X017353Y019968D03*
X012453Y015128D03*
D170*
X009583Y015768D03*
X009563Y015788D03*
X009383Y015148D03*
X016603Y016148D03*
X016603Y016168D03*
X016683Y016348D03*
X016703Y016368D03*
X016883Y016848D03*
X016883Y016868D03*
X016903Y016908D03*
X016963Y017088D03*
X016983Y017128D03*
X017163Y018028D03*
X017903Y020188D03*
X017143Y024048D03*
X017123Y024068D03*
X013483Y026408D03*
D171*
X017413Y020028D03*
X012513Y015168D03*
D172*
X012573Y015208D03*
X018253Y018608D03*
X018973Y018088D03*
X016113Y024888D03*
X010873Y024888D03*
D173*
X010073Y024308D03*
X016893Y024308D03*
X016913Y024288D03*
X017813Y020148D03*
X019733Y019708D03*
X019833Y019748D03*
X018733Y017248D03*
X009653Y015668D03*
X009453Y015268D03*
X009453Y015248D03*
D174*
X010263Y017488D03*
X010083Y017668D03*
X009963Y017768D03*
X009963Y017788D03*
X009943Y017808D03*
X009923Y017828D03*
X009903Y017848D03*
X009883Y017868D03*
X009843Y017908D03*
X012643Y018288D03*
X014383Y018228D03*
X018083Y020968D03*
X018643Y015248D03*
D175*
X018733Y017268D03*
X018733Y017288D03*
X018733Y017308D03*
X019653Y019668D03*
X019933Y019788D03*
X019993Y019808D03*
X020073Y019848D03*
X020093Y019868D03*
X020313Y020028D03*
X016853Y024348D03*
X016833Y024368D03*
X013473Y017068D03*
X013473Y016948D03*
X013473Y016928D03*
X009493Y015308D03*
X010153Y024368D03*
X010173Y024388D03*
D176*
X016653Y024528D03*
X018753Y018388D03*
X016653Y015708D03*
X016653Y015688D03*
X016613Y015608D03*
X016573Y015528D03*
X009553Y015328D03*
D177*
X009563Y015348D03*
X009683Y015528D03*
X016603Y015548D03*
X016603Y015568D03*
X016603Y015588D03*
X016623Y015628D03*
X016643Y015648D03*
X016643Y015668D03*
X016663Y015728D03*
X016663Y015748D03*
X016683Y015768D03*
X010323Y024528D03*
X010343Y024548D03*
D178*
X010403Y024588D03*
X016583Y024588D03*
X017663Y020108D03*
X009683Y015508D03*
X009603Y015368D03*
D179*
X009653Y015408D03*
X009653Y015428D03*
X010473Y024648D03*
X010493Y024668D03*
X018813Y018308D03*
D180*
X018663Y018468D03*
X018643Y017528D03*
X018663Y017488D03*
X018723Y017328D03*
X019603Y019648D03*
X020023Y019828D03*
X020103Y019888D03*
X020183Y019928D03*
X020243Y019968D03*
X020283Y019988D03*
X020283Y020008D03*
X016803Y024388D03*
X016803Y024408D03*
X013483Y017048D03*
X013483Y016968D03*
X010183Y024408D03*
D181*
X013483Y026228D03*
X018803Y017828D03*
D182*
X018413Y017848D03*
D183*
X018383Y017868D03*
D184*
X018373Y017888D03*
D185*
X018363Y017908D03*
D186*
X018353Y017928D03*
X018313Y017968D03*
D187*
X018323Y017948D03*
D188*
X019013Y017988D03*
X017393Y020008D03*
D189*
X018233Y018648D03*
X018233Y018628D03*
X018953Y018128D03*
X016153Y024868D03*
D190*
X010703Y024788D03*
X018903Y018208D03*
X018903Y018188D03*
D191*
X018853Y018268D03*
X016393Y024708D03*
X016373Y024728D03*
X013473Y026368D03*
X010593Y024728D03*
X010573Y024708D03*
D192*
X010953Y024928D03*
X013473Y026328D03*
X018253Y018548D03*
D193*
X017553Y018668D03*
X017533Y018688D03*
X013493Y026148D03*
D194*
X017123Y018728D03*
D195*
X017143Y018748D03*
X017223Y018948D03*
D196*
X017163Y018768D03*
X013483Y026008D03*
D197*
X017173Y018788D03*
D198*
X017213Y018808D03*
D199*
X017233Y018828D03*
X017253Y018848D03*
X013493Y026048D03*
D200*
X017293Y018908D03*
X017293Y018888D03*
X017273Y018868D03*
D201*
X017283Y018928D03*
D202*
X017213Y018968D03*
D203*
X017163Y018988D03*
D204*
X017143Y019008D03*
X013483Y025948D03*
D205*
X017133Y019028D03*
D206*
X017113Y019128D03*
D207*
X017133Y019148D03*
D208*
X017133Y019168D03*
D209*
X017143Y019188D03*
D210*
X017153Y019208D03*
D211*
X017153Y019228D03*
D212*
X017163Y019248D03*
D213*
X017153Y019268D03*
X013493Y025768D03*
D214*
X017163Y019288D03*
D215*
X017173Y019308D03*
D216*
X017183Y019328D03*
D217*
X017203Y019348D03*
X013483Y025708D03*
X013483Y025728D03*
D218*
X017213Y019368D03*
D219*
X017223Y019388D03*
D220*
X017243Y019408D03*
X013483Y025668D03*
D221*
X017263Y019428D03*
D222*
X017293Y019448D03*
X017293Y019468D03*
X013493Y025628D03*
D223*
X017333Y019488D03*
D224*
X017343Y019508D03*
D225*
X017353Y019528D03*
D226*
X017373Y019548D03*
X013493Y025588D03*
D227*
X017383Y019568D03*
D228*
X017403Y019588D03*
D229*
X017413Y019608D03*
D230*
X017443Y019628D03*
X013483Y025528D03*
D231*
X016593Y019648D03*
D232*
X016583Y019668D03*
D233*
X016593Y019688D03*
D234*
X016583Y019708D03*
X013483Y026028D03*
D235*
X017243Y019748D03*
D236*
X017283Y019808D03*
X017283Y019828D03*
D237*
X017303Y019888D03*
X011203Y025048D03*
D238*
X011153Y025028D03*
X015813Y025028D03*
X017313Y019908D03*
D239*
X017623Y020088D03*
X016503Y024648D03*
X016463Y024668D03*
X010523Y024688D03*
D240*
X016453Y024688D03*
D241*
X016273Y024788D03*
X016253Y024808D03*
X016233Y024828D03*
X010713Y024808D03*
D242*
X010803Y024848D03*
X010823Y024868D03*
X013483Y026348D03*
X016183Y024848D03*
D243*
X011073Y024988D03*
D244*
X011103Y025008D03*
X015883Y025008D03*
X015903Y024988D03*
D245*
X013493Y025188D03*
D246*
X013483Y025208D03*
D247*
X013483Y025228D03*
D248*
X013483Y025248D03*
D249*
X013493Y025268D03*
D250*
X013493Y025288D03*
X013493Y025308D03*
D251*
X013483Y025328D03*
D252*
X013493Y025348D03*
D253*
X013493Y025368D03*
D254*
X013483Y025388D03*
D255*
X013493Y025408D03*
D256*
X013483Y025428D03*
D257*
X013493Y025448D03*
D258*
X013483Y025468D03*
D259*
X013493Y025488D03*
D260*
X013493Y025508D03*
D261*
X013483Y025548D03*
D262*
X013493Y025568D03*
D263*
X013493Y025608D03*
D264*
X013493Y025648D03*
D265*
X013493Y025688D03*
D266*
X013483Y025748D03*
D267*
X013493Y025788D03*
D268*
X013493Y025808D03*
D269*
X013483Y025828D03*
D270*
X013483Y025848D03*
D271*
X013483Y025868D03*
D272*
X013483Y025928D03*
D273*
X013493Y025968D03*
D274*
X013493Y025988D03*
D275*
X013493Y026068D03*
D276*
X013503Y026088D03*
D277*
X013493Y026108D03*
D278*
X013493Y026248D03*
M02*
