G75*
%MOIN*%
%OFA0B0*%
%FSLAX24Y24*%
%IPPOS*%
%LPD*%
%AMOC8*
5,1,8,0,0,1.08239X$1,22.5*
%
%ADD10C,0.0000*%
%ADD11C,0.0600*%
%ADD12R,0.0600X0.0300*%
%ADD13OC8,0.0600*%
%ADD14C,0.0160*%
%ADD15C,0.0360*%
%ADD16C,0.0240*%
D10*
X010533Y001133D02*
X015257Y001133D01*
X015257Y004677D01*
X010533Y004677D02*
X010533Y001133D01*
X010533Y004677D02*
X010314Y004680D01*
X010096Y004688D01*
X009877Y004701D01*
X009659Y004719D01*
X009442Y004743D01*
X009225Y004772D01*
X009009Y004806D01*
X008793Y004846D01*
X008579Y004890D01*
X008366Y004940D01*
X008154Y004995D01*
X007944Y005055D01*
X007735Y005120D01*
X007528Y005190D01*
X007322Y005265D01*
X007118Y005345D01*
X006917Y005430D01*
X006717Y005520D01*
X006520Y005615D01*
X006325Y005714D01*
X006132Y005818D01*
X005942Y005927D01*
X005755Y006040D01*
X005571Y006158D01*
X005389Y006280D01*
X005211Y006406D01*
X005035Y006537D01*
X004863Y006672D01*
X004694Y006811D01*
X004528Y006954D01*
X004366Y007101D01*
X004208Y007252D01*
X004053Y007407D01*
X003902Y007565D01*
X003755Y007727D01*
X003612Y007893D01*
X003473Y008062D01*
X003338Y008234D01*
X003207Y008410D01*
X003081Y008588D01*
X002959Y008770D01*
X002841Y008954D01*
X002728Y009141D01*
X002619Y009331D01*
X002515Y009524D01*
X002416Y009719D01*
X002321Y009916D01*
X002231Y010116D01*
X002146Y010317D01*
X002066Y010521D01*
X001991Y010727D01*
X001921Y010934D01*
X001856Y011143D01*
X001796Y011353D01*
X001741Y011565D01*
X001691Y011778D01*
X001647Y011992D01*
X001607Y012208D01*
X001573Y012424D01*
X001544Y012641D01*
X001520Y012858D01*
X001502Y013076D01*
X001489Y013295D01*
X001481Y013513D01*
X001478Y013732D01*
X001478Y019916D01*
X001476Y019980D01*
X001471Y020044D01*
X001461Y020107D01*
X001448Y020170D01*
X001432Y020231D01*
X001412Y020292D01*
X001388Y020352D01*
X001361Y020410D01*
X001331Y020466D01*
X001297Y020520D01*
X001260Y020573D01*
X001221Y020623D01*
X001178Y020671D01*
X001133Y020716D01*
X001085Y020759D01*
X001035Y020798D01*
X000982Y020835D01*
X000928Y020869D01*
X000872Y020899D01*
X000814Y020926D01*
X000754Y020950D01*
X000693Y020970D01*
X000632Y020986D01*
X000569Y020999D01*
X000506Y021009D01*
X000442Y021014D01*
X000378Y021016D01*
X000347Y021018D01*
X000316Y021023D01*
X000286Y021032D01*
X000257Y021044D01*
X000230Y021059D01*
X000205Y021077D01*
X000181Y021097D01*
X000161Y021121D01*
X000143Y021146D01*
X000128Y021173D01*
X000116Y021202D01*
X000107Y021232D01*
X000102Y021263D01*
X000100Y021294D01*
X000100Y022427D01*
X000102Y022473D01*
X000108Y022519D01*
X000117Y022564D01*
X000130Y022608D01*
X000147Y022651D01*
X000167Y022692D01*
X000191Y022732D01*
X000217Y022769D01*
X000247Y022804D01*
X000280Y022837D01*
X000315Y022867D01*
X000352Y022893D01*
X000392Y022917D01*
X000433Y022937D01*
X000476Y022954D01*
X000520Y022967D01*
X000565Y022976D01*
X000611Y022982D01*
X000657Y022984D01*
X000713Y022986D01*
X000769Y022992D01*
X000824Y023001D01*
X000879Y023014D01*
X000932Y023031D01*
X000984Y023052D01*
X001035Y023076D01*
X001084Y023104D01*
X001130Y023134D01*
X001175Y023168D01*
X001217Y023205D01*
X001257Y023245D01*
X001294Y023287D01*
X001328Y023332D01*
X001358Y023378D01*
X001386Y023427D01*
X001410Y023478D01*
X001431Y023530D01*
X001448Y023583D01*
X001461Y023638D01*
X001470Y023693D01*
X001476Y023749D01*
X001478Y023805D01*
X001480Y023964D01*
X001486Y024122D01*
X001496Y024280D01*
X001509Y024438D01*
X001527Y024596D01*
X001548Y024753D01*
X001573Y024910D01*
X001602Y025066D01*
X001635Y025221D01*
X001672Y025375D01*
X001712Y025528D01*
X001756Y025681D01*
X001804Y025832D01*
X001856Y025982D01*
X001911Y026131D01*
X001970Y026278D01*
X002032Y026424D01*
X002098Y026568D01*
X002168Y026710D01*
X002241Y026851D01*
X002317Y026990D01*
X002397Y027127D01*
X002481Y027262D01*
X002567Y027395D01*
X002657Y027526D01*
X002750Y027654D01*
X002846Y027781D01*
X002945Y027904D01*
X003047Y028026D01*
X003152Y028145D01*
X003260Y028261D01*
X003371Y028374D01*
X003484Y028485D01*
X003600Y028593D01*
X003719Y028698D01*
X003841Y028800D01*
X003964Y028899D01*
X004091Y028995D01*
X004219Y029088D01*
X004350Y029178D01*
X004483Y029264D01*
X004618Y029348D01*
X004755Y029428D01*
X004894Y029504D01*
X005035Y029577D01*
X005177Y029647D01*
X005321Y029713D01*
X005467Y029775D01*
X005614Y029834D01*
X005763Y029889D01*
X005913Y029941D01*
X006064Y029989D01*
X006217Y030033D01*
X006370Y030073D01*
X006524Y030110D01*
X006679Y030143D01*
X006835Y030172D01*
X006992Y030197D01*
X007149Y030218D01*
X007307Y030236D01*
X007465Y030249D01*
X007623Y030259D01*
X007781Y030265D01*
X007940Y030267D01*
X010125Y030267D01*
X010139Y030268D02*
X010193Y030270D01*
X010246Y030275D01*
X010299Y030284D01*
X010351Y030297D01*
X010403Y030313D01*
X010453Y030333D01*
X010501Y030356D01*
X010548Y030383D01*
X010593Y030412D01*
X010636Y030445D01*
X010676Y030480D01*
X010714Y030518D01*
X010749Y030558D01*
X010782Y030601D01*
X010811Y030646D01*
X010838Y030693D01*
X010861Y030741D01*
X010881Y030791D01*
X010897Y030843D01*
X010910Y030895D01*
X010919Y030948D01*
X010924Y031001D01*
X010926Y031055D01*
X010927Y031055D02*
X010929Y031127D01*
X010935Y031199D01*
X010944Y031271D01*
X010957Y031342D01*
X010974Y031412D01*
X010994Y031481D01*
X011019Y031549D01*
X011046Y031615D01*
X011077Y031681D01*
X011112Y031744D01*
X011149Y031806D01*
X011190Y031865D01*
X011234Y031922D01*
X011281Y031977D01*
X011331Y032029D01*
X011383Y032079D01*
X011438Y032126D01*
X011495Y032170D01*
X011554Y032211D01*
X011616Y032248D01*
X011679Y032283D01*
X011745Y032314D01*
X011811Y032341D01*
X011879Y032366D01*
X011948Y032386D01*
X012018Y032403D01*
X012089Y032416D01*
X012161Y032425D01*
X012233Y032431D01*
X012305Y032433D01*
X013486Y032433D01*
X012265Y031205D02*
X012267Y031255D01*
X012273Y031305D01*
X012283Y031354D01*
X012297Y031402D01*
X012314Y031449D01*
X012335Y031494D01*
X012360Y031538D01*
X012388Y031579D01*
X012420Y031618D01*
X012454Y031655D01*
X012491Y031689D01*
X012531Y031719D01*
X012573Y031746D01*
X012617Y031770D01*
X012663Y031791D01*
X012710Y031807D01*
X012758Y031820D01*
X012808Y031829D01*
X012857Y031834D01*
X012908Y031835D01*
X012958Y031832D01*
X013007Y031825D01*
X013056Y031814D01*
X013104Y031799D01*
X013150Y031781D01*
X013195Y031759D01*
X013238Y031733D01*
X013279Y031704D01*
X013318Y031672D01*
X013354Y031637D01*
X013386Y031599D01*
X013416Y031559D01*
X013443Y031516D01*
X013466Y031472D01*
X013485Y031426D01*
X013501Y031378D01*
X013513Y031329D01*
X013521Y031280D01*
X013525Y031230D01*
X013525Y031180D01*
X013521Y031130D01*
X013513Y031081D01*
X013501Y031032D01*
X013485Y030984D01*
X013466Y030938D01*
X013443Y030894D01*
X013416Y030851D01*
X013386Y030811D01*
X013354Y030773D01*
X013318Y030738D01*
X013279Y030706D01*
X013238Y030677D01*
X013195Y030651D01*
X013150Y030629D01*
X013104Y030611D01*
X013056Y030596D01*
X013007Y030585D01*
X012958Y030578D01*
X012908Y030575D01*
X012857Y030576D01*
X012808Y030581D01*
X012758Y030590D01*
X012710Y030603D01*
X012663Y030619D01*
X012617Y030640D01*
X012573Y030664D01*
X012531Y030691D01*
X012491Y030721D01*
X012454Y030755D01*
X012420Y030792D01*
X012388Y030831D01*
X012360Y030872D01*
X012335Y030916D01*
X012314Y030961D01*
X012297Y031008D01*
X012283Y031056D01*
X012273Y031105D01*
X012267Y031155D01*
X012265Y031205D01*
X013486Y032433D02*
X013558Y032431D01*
X013630Y032425D01*
X013702Y032416D01*
X013773Y032403D01*
X013843Y032386D01*
X013912Y032366D01*
X013980Y032341D01*
X014046Y032314D01*
X014112Y032283D01*
X014175Y032248D01*
X014237Y032211D01*
X014296Y032170D01*
X014353Y032126D01*
X014408Y032079D01*
X014460Y032029D01*
X014510Y031977D01*
X014557Y031922D01*
X014601Y031865D01*
X014642Y031806D01*
X014679Y031744D01*
X014714Y031681D01*
X014745Y031615D01*
X014772Y031549D01*
X014797Y031481D01*
X014817Y031412D01*
X014834Y031342D01*
X014847Y031271D01*
X014856Y031199D01*
X014862Y031127D01*
X014864Y031055D01*
X014866Y031001D01*
X014871Y030948D01*
X014880Y030895D01*
X014893Y030843D01*
X014909Y030791D01*
X014929Y030741D01*
X014952Y030693D01*
X014979Y030646D01*
X015008Y030601D01*
X015041Y030558D01*
X015076Y030518D01*
X015114Y030480D01*
X015154Y030445D01*
X015197Y030412D01*
X015242Y030383D01*
X015289Y030356D01*
X015337Y030333D01*
X015387Y030313D01*
X015439Y030297D01*
X015491Y030284D01*
X015544Y030275D01*
X015597Y030270D01*
X015651Y030268D01*
X015665Y030267D02*
X017850Y030267D01*
X018009Y030265D01*
X018167Y030259D01*
X018325Y030249D01*
X018483Y030236D01*
X018641Y030218D01*
X018798Y030197D01*
X018955Y030172D01*
X019111Y030143D01*
X019266Y030110D01*
X019420Y030073D01*
X019573Y030033D01*
X019726Y029989D01*
X019877Y029941D01*
X020027Y029889D01*
X020176Y029834D01*
X020323Y029775D01*
X020469Y029713D01*
X020613Y029647D01*
X020755Y029577D01*
X020896Y029504D01*
X021035Y029428D01*
X021172Y029348D01*
X021307Y029264D01*
X021440Y029178D01*
X021571Y029088D01*
X021699Y028995D01*
X021826Y028899D01*
X021949Y028800D01*
X022071Y028698D01*
X022190Y028593D01*
X022306Y028485D01*
X022419Y028374D01*
X022530Y028261D01*
X022638Y028145D01*
X022743Y028026D01*
X022845Y027904D01*
X022944Y027781D01*
X023040Y027654D01*
X023133Y027526D01*
X023223Y027395D01*
X023309Y027262D01*
X023393Y027127D01*
X023473Y026990D01*
X023549Y026851D01*
X023622Y026710D01*
X023692Y026568D01*
X023758Y026424D01*
X023820Y026278D01*
X023879Y026131D01*
X023934Y025982D01*
X023986Y025832D01*
X024034Y025681D01*
X024078Y025528D01*
X024118Y025375D01*
X024155Y025221D01*
X024188Y025066D01*
X024217Y024910D01*
X024242Y024753D01*
X024263Y024596D01*
X024281Y024438D01*
X024294Y024280D01*
X024304Y024122D01*
X024310Y023964D01*
X024312Y023805D01*
X024313Y023805D02*
X024315Y023749D01*
X024321Y023693D01*
X024330Y023638D01*
X024343Y023583D01*
X024360Y023530D01*
X024381Y023478D01*
X024405Y023427D01*
X024433Y023378D01*
X024463Y023332D01*
X024497Y023287D01*
X024534Y023245D01*
X024574Y023205D01*
X024616Y023168D01*
X024661Y023134D01*
X024707Y023104D01*
X024756Y023076D01*
X024807Y023052D01*
X024859Y023031D01*
X024912Y023014D01*
X024967Y023001D01*
X025022Y022992D01*
X025078Y022986D01*
X025134Y022984D01*
X025180Y022982D01*
X025226Y022976D01*
X025271Y022967D01*
X025315Y022954D01*
X025358Y022937D01*
X025399Y022917D01*
X025439Y022893D01*
X025476Y022867D01*
X025511Y022837D01*
X025544Y022804D01*
X025574Y022769D01*
X025600Y022732D01*
X025624Y022692D01*
X025644Y022651D01*
X025661Y022608D01*
X025674Y022564D01*
X025683Y022519D01*
X025689Y022473D01*
X025691Y022427D01*
X025691Y021294D01*
X025690Y021294D02*
X025688Y021263D01*
X025683Y021232D01*
X025674Y021202D01*
X025662Y021173D01*
X025647Y021146D01*
X025629Y021121D01*
X025609Y021097D01*
X025585Y021077D01*
X025560Y021059D01*
X025533Y021044D01*
X025504Y021032D01*
X025474Y021023D01*
X025443Y021018D01*
X025412Y021016D01*
X025348Y021014D01*
X025284Y021009D01*
X025221Y020999D01*
X025158Y020986D01*
X025097Y020970D01*
X025036Y020950D01*
X024976Y020926D01*
X024918Y020899D01*
X024862Y020869D01*
X024808Y020835D01*
X024755Y020798D01*
X024705Y020759D01*
X024657Y020716D01*
X024612Y020671D01*
X024569Y020623D01*
X024530Y020573D01*
X024493Y020520D01*
X024459Y020466D01*
X024429Y020410D01*
X024402Y020352D01*
X024378Y020292D01*
X024358Y020231D01*
X024342Y020170D01*
X024329Y020107D01*
X024319Y020044D01*
X024314Y019980D01*
X024312Y019916D01*
X024313Y019916D02*
X024313Y013732D01*
X024312Y013732D02*
X024309Y013513D01*
X024301Y013295D01*
X024288Y013076D01*
X024270Y012858D01*
X024246Y012641D01*
X024217Y012424D01*
X024183Y012208D01*
X024143Y011992D01*
X024099Y011778D01*
X024049Y011565D01*
X023994Y011353D01*
X023934Y011143D01*
X023869Y010934D01*
X023799Y010727D01*
X023724Y010521D01*
X023644Y010317D01*
X023559Y010116D01*
X023469Y009916D01*
X023374Y009719D01*
X023275Y009524D01*
X023171Y009331D01*
X023062Y009141D01*
X022949Y008954D01*
X022831Y008770D01*
X022709Y008588D01*
X022583Y008410D01*
X022452Y008234D01*
X022317Y008062D01*
X022178Y007893D01*
X022035Y007727D01*
X021888Y007565D01*
X021737Y007407D01*
X021582Y007252D01*
X021424Y007101D01*
X021262Y006954D01*
X021096Y006811D01*
X020927Y006672D01*
X020755Y006537D01*
X020579Y006406D01*
X020401Y006280D01*
X020219Y006158D01*
X020035Y006040D01*
X019848Y005927D01*
X019658Y005818D01*
X019465Y005714D01*
X019270Y005615D01*
X019073Y005520D01*
X018873Y005430D01*
X018672Y005345D01*
X018468Y005265D01*
X018262Y005190D01*
X018055Y005120D01*
X017846Y005055D01*
X017636Y004995D01*
X017424Y004940D01*
X017211Y004890D01*
X016997Y004846D01*
X016781Y004806D01*
X016565Y004772D01*
X016348Y004743D01*
X016131Y004719D01*
X015913Y004701D01*
X015694Y004688D01*
X015476Y004680D01*
X015257Y004677D01*
D11*
X022103Y010683D02*
X022703Y010683D01*
X022703Y011683D02*
X022103Y011683D01*
X022103Y012683D02*
X022703Y012683D01*
X022703Y013683D02*
X022103Y013683D01*
X022103Y014683D02*
X022703Y014683D01*
X022703Y015683D02*
X022103Y015683D01*
X022103Y016683D02*
X022703Y016683D01*
X022703Y017683D02*
X022103Y017683D01*
X022103Y019283D02*
X022703Y019283D01*
X022703Y020283D02*
X022103Y020283D01*
X022103Y021283D02*
X022703Y021283D01*
X022703Y022283D02*
X022103Y022283D01*
X022103Y023283D02*
X022703Y023283D01*
X022703Y024283D02*
X022103Y024283D01*
X016702Y027271D02*
X016702Y027871D01*
X015702Y027871D02*
X015702Y027271D01*
X014702Y027271D02*
X014702Y027871D01*
X013702Y027871D02*
X013702Y027271D01*
X012702Y027271D02*
X012702Y027871D01*
X011702Y027871D02*
X011702Y027271D01*
X010702Y027271D02*
X010702Y027871D01*
X009702Y027871D02*
X009702Y027271D01*
X003703Y022683D02*
X003103Y022683D01*
X003103Y021683D02*
X003703Y021683D01*
X003703Y020683D02*
X003103Y020683D01*
X003103Y019683D02*
X003703Y019683D01*
X003703Y018683D02*
X003103Y018683D01*
X003103Y017683D02*
X003703Y017683D01*
X003703Y015683D02*
X003103Y015683D01*
X003103Y014683D02*
X003703Y014683D01*
X003703Y013683D02*
X003103Y013683D01*
X003103Y012683D02*
X003703Y012683D01*
X003703Y011683D02*
X003103Y011683D01*
X003103Y010683D02*
X003703Y010683D01*
D12*
X008662Y019713D03*
X008662Y021213D03*
X008632Y022333D03*
X008632Y023833D03*
X010832Y023833D03*
X010832Y022333D03*
X010862Y021213D03*
X010862Y019713D03*
D13*
X006596Y017472D03*
D14*
X005512Y006860D02*
X005777Y006577D01*
X006070Y006325D01*
X006388Y006104D01*
X006728Y005918D01*
X007085Y005770D01*
X007456Y005659D01*
X007837Y005589D01*
X008223Y005558D01*
X012923Y005436D01*
X016652Y005633D01*
X017163Y005770D01*
X017830Y006041D01*
X018469Y006371D01*
X019076Y006757D01*
X019646Y007196D01*
X020175Y007684D01*
X020658Y008217D01*
X021091Y008792D01*
X021471Y009402D01*
X021453Y010463D01*
X019510Y010463D01*
X018959Y011015D01*
X010524Y011162D01*
X010512Y011153D01*
X010435Y011164D01*
X010357Y011165D01*
X010346Y011176D01*
X009358Y011310D01*
X009305Y011300D01*
X009272Y011322D01*
X009232Y011328D01*
X009199Y011371D01*
X009154Y011401D01*
X009146Y011441D01*
X009121Y011473D01*
X009129Y011526D01*
X009049Y011925D01*
X009032Y011942D01*
X009032Y012012D01*
X009018Y012080D01*
X009032Y012100D01*
X009032Y012701D01*
X008980Y012752D01*
X008932Y012870D01*
X008932Y012997D01*
X008980Y013115D01*
X009070Y013205D01*
X009188Y013253D01*
X009315Y013253D01*
X009433Y013205D01*
X009523Y013115D01*
X009572Y012997D01*
X009572Y012870D01*
X009523Y012752D01*
X009472Y012701D01*
X009472Y012055D01*
X009537Y011730D01*
X010285Y011628D01*
X009913Y011763D01*
X009860Y011763D01*
X009831Y011793D01*
X009791Y011808D01*
X009769Y011855D01*
X009732Y011892D01*
X009732Y011935D01*
X009714Y011973D01*
X009732Y012022D01*
X009732Y012601D01*
X009680Y012652D01*
X009632Y012770D01*
X009632Y012897D01*
X009680Y013015D01*
X009770Y013105D01*
X009888Y013153D01*
X010015Y013153D01*
X010133Y013105D01*
X010223Y013015D01*
X010272Y012897D01*
X010272Y012770D01*
X010223Y012652D01*
X010172Y012601D01*
X010172Y012137D01*
X010555Y011998D01*
X010810Y011961D01*
X010792Y011982D01*
X010560Y012213D01*
X010488Y012213D01*
X010370Y012262D01*
X010280Y012352D01*
X010232Y012470D01*
X010232Y012597D01*
X010280Y012715D01*
X010370Y012805D01*
X010488Y012853D01*
X010615Y012853D01*
X010733Y012805D01*
X010823Y012715D01*
X010872Y012597D01*
X010872Y012524D01*
X011047Y012349D01*
X011908Y012303D01*
X019117Y012264D01*
X019245Y012560D01*
X019269Y012636D01*
X019280Y012642D01*
X019286Y012654D01*
X019360Y012684D01*
X019720Y012873D01*
X019761Y012914D01*
X019798Y012914D01*
X019830Y012930D01*
X019885Y012913D01*
X021410Y012907D01*
X021400Y013497D01*
X013579Y013762D01*
X013525Y013747D01*
X013492Y013765D01*
X013453Y013767D01*
X013415Y013807D01*
X012650Y014228D01*
X012615Y014213D01*
X012488Y014213D01*
X012370Y014262D01*
X012280Y014352D01*
X012232Y014470D01*
X012232Y014597D01*
X012280Y014715D01*
X012370Y014805D01*
X012488Y014853D01*
X012512Y014853D01*
X014432Y017505D01*
X014432Y019201D01*
X014380Y019252D01*
X014332Y019370D01*
X014332Y019497D01*
X014380Y019615D01*
X014470Y019705D01*
X014588Y019753D01*
X014715Y019753D01*
X014833Y019705D01*
X014923Y019615D01*
X014972Y019497D01*
X014972Y019370D01*
X014923Y019252D01*
X014872Y019201D01*
X014872Y017451D01*
X014883Y017378D01*
X014872Y017362D01*
X014872Y017342D01*
X014820Y017290D01*
X013326Y015228D01*
X013388Y015253D01*
X013515Y015253D01*
X013633Y015205D01*
X013684Y015153D01*
X019221Y015153D01*
X019228Y015160D01*
X019310Y015153D01*
X019393Y015153D01*
X019400Y015146D01*
X021374Y014987D01*
X021366Y015479D01*
X019185Y015512D01*
X019181Y015509D01*
X019094Y015513D01*
X019007Y015515D01*
X019004Y015518D01*
X018999Y015518D01*
X018941Y015583D01*
X018880Y015646D01*
X018880Y015650D01*
X017647Y017020D01*
X017645Y017020D01*
X017587Y017088D01*
X017527Y017154D01*
X017527Y017156D01*
X013838Y021413D01*
X013788Y021413D01*
X013670Y021462D01*
X013580Y021552D01*
X013532Y021670D01*
X013532Y021797D01*
X013580Y021915D01*
X013670Y022005D01*
X013788Y022053D01*
X013915Y022053D01*
X014033Y022005D01*
X014123Y021915D01*
X014172Y021797D01*
X014172Y021700D01*
X017916Y017379D01*
X019201Y015952D01*
X021358Y015919D01*
X021349Y016463D01*
X019587Y016463D01*
X019583Y016460D01*
X019497Y016463D01*
X019410Y016463D01*
X019407Y016467D01*
X019401Y016467D01*
X019343Y016531D01*
X019282Y016592D01*
X019282Y016598D01*
X018248Y017721D01*
X018242Y017722D01*
X018186Y017788D01*
X018128Y017851D01*
X018128Y017857D01*
X016587Y019687D01*
X015199Y021175D01*
X011617Y024285D01*
X010349Y024313D01*
X010260Y024313D01*
X010258Y024315D01*
X010256Y024315D01*
X010194Y024379D01*
X009482Y025092D01*
X009482Y026886D01*
X009452Y026898D01*
X009329Y027021D01*
X009262Y027183D01*
X009262Y027958D01*
X009329Y028120D01*
X009452Y028244D01*
X009614Y028311D01*
X009789Y028311D01*
X009951Y028244D01*
X010075Y028120D01*
X010142Y027958D01*
X010142Y027183D01*
X010075Y027021D01*
X009951Y026898D01*
X009922Y026886D01*
X009922Y025274D01*
X010445Y024751D01*
X011696Y024724D01*
X011777Y024729D01*
X011786Y024722D01*
X011798Y024721D01*
X011854Y024663D01*
X015437Y021551D01*
X015450Y021550D01*
X015505Y021492D01*
X015565Y021440D01*
X015566Y021426D01*
X016855Y020045D01*
X016861Y020045D01*
X016916Y019979D01*
X016975Y019917D01*
X016974Y019910D01*
X018517Y018079D01*
X019598Y016903D01*
X021341Y016903D01*
X021328Y017653D01*
X019829Y017923D01*
X019816Y017917D01*
X019741Y017939D01*
X019663Y017953D01*
X019655Y017964D01*
X018669Y018257D01*
X018598Y018264D01*
X018584Y018282D01*
X018562Y018288D01*
X018528Y018350D01*
X016940Y020303D01*
X014984Y022131D01*
X014443Y022609D01*
X014442Y022609D01*
X014375Y022669D01*
X014308Y022729D01*
X014307Y022730D01*
X013198Y023733D01*
X013108Y023733D01*
X012990Y023782D01*
X012900Y023872D01*
X012852Y023990D01*
X012852Y024117D01*
X012900Y024235D01*
X012990Y024325D01*
X013108Y024373D01*
X013235Y024373D01*
X013353Y024325D01*
X013443Y024235D01*
X013492Y024117D01*
X013492Y024061D01*
X014668Y022997D01*
X015212Y022516D01*
X015215Y022516D01*
X015280Y022456D01*
X015346Y022398D01*
X015346Y022394D01*
X017198Y020665D01*
X017215Y020663D01*
X017263Y020604D01*
X017318Y020552D01*
X017319Y020535D01*
X018839Y018665D01*
X019842Y018368D01*
X021320Y018102D01*
X021302Y019174D01*
X018976Y019410D01*
X018935Y019396D01*
X018889Y019419D01*
X018839Y019424D01*
X018811Y019458D01*
X018772Y019477D01*
X018756Y019526D01*
X018724Y019565D01*
X018728Y019609D01*
X018353Y020733D01*
X016300Y023666D01*
X014588Y024617D01*
X011644Y024813D01*
X011560Y024813D01*
X011554Y024819D01*
X011546Y024820D01*
X011491Y024883D01*
X011105Y025269D01*
X010674Y025613D01*
X010660Y025613D01*
X010605Y025669D01*
X010543Y025718D01*
X010541Y025732D01*
X010532Y025742D01*
X010532Y025821D01*
X010523Y025900D01*
X010532Y025911D01*
X010532Y026865D01*
X010452Y026898D01*
X010329Y027021D01*
X010262Y027183D01*
X010262Y027958D01*
X010329Y028120D01*
X010452Y028244D01*
X010614Y028311D01*
X010789Y028311D01*
X010951Y028244D01*
X011075Y028120D01*
X011142Y027958D01*
X011142Y027183D01*
X011075Y027021D01*
X010972Y026918D01*
X010972Y025939D01*
X011329Y025653D01*
X011343Y025653D01*
X011399Y025598D01*
X011460Y025548D01*
X011462Y025534D01*
X011749Y025247D01*
X014628Y025055D01*
X014679Y025070D01*
X014715Y025050D01*
X014757Y025047D01*
X014792Y025007D01*
X016526Y024044D01*
X016580Y024034D01*
X016603Y024001D01*
X016638Y023981D01*
X016653Y023929D01*
X018700Y021005D01*
X018731Y020989D01*
X018750Y020933D01*
X018784Y020885D01*
X018778Y020850D01*
X019115Y019838D01*
X021294Y019617D01*
X021250Y022167D01*
X018611Y022407D01*
X018601Y022400D01*
X018522Y022415D01*
X018441Y022422D01*
X018434Y022431D01*
X018422Y022433D01*
X018376Y022500D01*
X018324Y022562D01*
X018325Y022574D01*
X016436Y025313D01*
X014004Y025313D01*
X013968Y025296D01*
X013916Y025313D01*
X013860Y025313D01*
X013833Y025341D01*
X012716Y025713D01*
X012660Y025713D01*
X012633Y025741D01*
X012596Y025753D01*
X012571Y025803D01*
X012532Y025842D01*
X012532Y025881D01*
X012514Y025916D01*
X012532Y025969D01*
X012532Y026865D01*
X012452Y026898D01*
X012329Y027021D01*
X012262Y027183D01*
X012262Y027958D01*
X012329Y028120D01*
X012452Y028244D01*
X012614Y028311D01*
X012789Y028311D01*
X012951Y028244D01*
X013075Y028120D01*
X013142Y027958D01*
X013142Y027183D01*
X013075Y027021D01*
X012972Y026918D01*
X012972Y026092D01*
X013987Y025753D01*
X016483Y025753D01*
X016502Y025766D01*
X016572Y025753D01*
X016643Y025753D01*
X016659Y025737D01*
X016681Y025733D01*
X016721Y025675D01*
X016772Y025624D01*
X016772Y025602D01*
X018674Y022843D01*
X021242Y022610D01*
X021195Y025330D01*
X021301Y026118D01*
X020249Y027628D01*
X020038Y027954D01*
X019792Y028255D01*
X019515Y028528D01*
X019210Y028768D01*
X018880Y028974D01*
X018530Y029142D01*
X018163Y029271D01*
X017785Y029359D01*
X017399Y029405D01*
X014428Y029405D01*
X014491Y029340D01*
X014496Y029339D01*
X014553Y029275D01*
X014613Y029212D01*
X014613Y029207D01*
X014847Y028942D01*
X014907Y028882D01*
X014907Y028874D01*
X014912Y028868D01*
X014907Y028784D01*
X014907Y028262D01*
X014951Y028244D01*
X015075Y028120D01*
X015142Y027958D01*
X015142Y027183D01*
X015075Y027021D01*
X014951Y026898D01*
X014789Y026831D01*
X014614Y026831D01*
X014452Y026898D01*
X014329Y027021D01*
X014262Y027183D01*
X014262Y027958D01*
X014329Y028120D01*
X014452Y028244D01*
X014467Y028250D01*
X014467Y028708D01*
X014229Y028976D01*
X013817Y029405D01*
X012106Y029405D01*
X008820Y029382D01*
X008644Y029374D01*
X008067Y029294D01*
X007321Y028859D01*
X005223Y027525D01*
X004569Y027064D01*
X002974Y025616D01*
X002867Y025424D01*
X002692Y025029D01*
X002544Y022817D01*
X002525Y021645D01*
X002677Y020885D01*
X002711Y020886D01*
X002730Y020933D01*
X002854Y021056D01*
X003016Y021123D01*
X003791Y021123D01*
X003952Y021056D01*
X004076Y020933D01*
X004143Y020771D01*
X004143Y020596D01*
X004076Y020434D01*
X003952Y020310D01*
X003791Y020243D01*
X003016Y020243D01*
X002854Y020310D01*
X002730Y020434D01*
X002725Y020446D01*
X002522Y020441D01*
X002451Y020427D01*
X002434Y020439D01*
X002412Y020439D01*
X002360Y020488D01*
X002300Y020528D01*
X002296Y020550D01*
X002280Y020564D01*
X002278Y020636D01*
X002102Y021519D01*
X002083Y021538D01*
X002084Y021605D01*
X002071Y021672D01*
X002086Y021694D01*
X002098Y022450D01*
X001913Y020490D01*
X002411Y011182D01*
X002466Y010852D01*
X002557Y010530D01*
X002685Y010220D01*
X002845Y009926D01*
X003038Y009652D01*
X003260Y009401D01*
X003509Y009177D01*
X003781Y008982D01*
X004074Y008819D01*
X004382Y008689D01*
X004704Y008594D01*
X004790Y008217D01*
X004916Y007851D01*
X005079Y007500D01*
X005279Y007168D01*
X005512Y006860D01*
X005531Y006839D02*
X019183Y006839D01*
X019389Y006998D02*
X005408Y006998D01*
X005288Y007156D02*
X019595Y007156D01*
X019775Y007315D02*
X005191Y007315D01*
X005095Y007473D02*
X019947Y007473D01*
X020118Y007632D02*
X005018Y007632D01*
X004944Y007790D02*
X020271Y007790D01*
X020415Y007949D02*
X004882Y007949D01*
X004828Y008107D02*
X020558Y008107D01*
X020694Y008266D02*
X004779Y008266D01*
X004743Y008424D02*
X020814Y008424D01*
X020934Y008583D02*
X004706Y008583D01*
X004257Y008741D02*
X021053Y008741D01*
X021158Y008900D02*
X003928Y008900D01*
X003675Y009058D02*
X021257Y009058D01*
X021356Y009217D02*
X003465Y009217D01*
X003289Y009375D02*
X013453Y009375D01*
X013411Y009417D02*
X013501Y009327D01*
X013619Y009278D01*
X013746Y009278D01*
X013864Y009327D01*
X013954Y009417D01*
X014003Y009534D01*
X014003Y009662D01*
X013954Y009779D01*
X013864Y009869D01*
X013746Y009918D01*
X013730Y009918D01*
X013299Y010349D01*
X013289Y010365D01*
X013263Y010385D01*
X013239Y010409D01*
X013222Y010416D01*
X012476Y010976D01*
X012452Y010999D01*
X012435Y011007D01*
X012419Y011018D01*
X012387Y011026D01*
X012356Y011039D01*
X012338Y011039D01*
X012319Y011044D01*
X012286Y011039D01*
X006113Y011039D01*
X005478Y011674D01*
X005478Y016845D01*
X005482Y016860D01*
X005478Y016896D01*
X005478Y016933D01*
X005472Y016947D01*
X005471Y016962D01*
X005453Y016995D01*
X005439Y017029D01*
X005428Y017039D01*
X005016Y017781D01*
X005003Y017814D01*
X004991Y017826D01*
X004983Y017840D01*
X004956Y017862D01*
X004931Y017888D01*
X004915Y017894D01*
X004902Y017905D01*
X004868Y017914D01*
X004836Y017928D01*
X004819Y017928D01*
X004803Y017933D01*
X004768Y017929D01*
X004072Y017936D01*
X003952Y018056D01*
X003791Y018123D01*
X003016Y018123D01*
X002854Y018056D01*
X002730Y017933D01*
X002663Y017771D01*
X002663Y017596D01*
X002730Y017434D01*
X002854Y017310D01*
X003016Y017243D01*
X003791Y017243D01*
X003952Y017310D01*
X004058Y017416D01*
X004627Y017410D01*
X004958Y016814D01*
X004958Y011515D01*
X004998Y011419D01*
X005071Y011346D01*
X005858Y010559D01*
X005954Y010519D01*
X012218Y010519D01*
X012921Y009992D01*
X013363Y009550D01*
X013363Y009534D01*
X003143Y009534D01*
X003010Y009692D02*
X013221Y009692D01*
X013363Y009534D02*
X013411Y009417D01*
X013913Y009375D02*
X021454Y009375D01*
X021469Y009534D02*
X014003Y009534D01*
X013990Y009692D02*
X021466Y009692D01*
X021463Y009851D02*
X013882Y009851D01*
X013639Y010009D02*
X021461Y010009D01*
X021458Y010168D02*
X013480Y010168D01*
X013322Y010326D02*
X021455Y010326D01*
X022403Y010683D02*
X019602Y010683D01*
X019052Y011233D01*
X010452Y011383D01*
X009352Y011533D01*
X009252Y012033D01*
X009252Y012933D01*
X009475Y012704D02*
X009659Y012704D01*
X009632Y012862D02*
X009569Y012862D01*
X009562Y013021D02*
X009687Y013021D01*
X009458Y013179D02*
X021406Y013179D01*
X021408Y013021D02*
X010217Y013021D01*
X010272Y012862D02*
X019700Y012862D01*
X019852Y012693D02*
X022403Y012683D01*
X022403Y011683D02*
X010852Y011733D01*
X010502Y011783D01*
X009952Y011983D01*
X009952Y012833D01*
X010244Y012704D02*
X010276Y012704D01*
X010232Y012545D02*
X010172Y012545D01*
X010172Y012387D02*
X010266Y012387D01*
X010172Y012228D02*
X010452Y012228D01*
X010357Y012070D02*
X010704Y012070D01*
X010952Y012133D02*
X010552Y012533D01*
X010827Y012704D02*
X019398Y012704D01*
X019239Y012545D02*
X010872Y012545D01*
X011009Y012387D02*
X019170Y012387D01*
X019452Y012483D02*
X019262Y012043D01*
X011902Y012083D01*
X010952Y012133D01*
X009942Y011753D02*
X009532Y011753D01*
X009500Y011911D02*
X009732Y011911D01*
X009732Y012070D02*
X009472Y012070D01*
X009472Y012228D02*
X009732Y012228D01*
X009732Y012387D02*
X009472Y012387D01*
X009472Y012545D02*
X009732Y012545D01*
X009032Y012545D02*
X008432Y012545D01*
X008442Y012535D02*
X008352Y012625D01*
X008235Y012674D01*
X008162Y012674D01*
X007603Y013232D01*
X007603Y021820D01*
X007858Y021987D01*
X008265Y022052D01*
X008274Y022043D01*
X008990Y022043D01*
X009060Y022113D01*
X010404Y022113D01*
X010474Y022043D01*
X011190Y022043D01*
X011272Y022125D01*
X011272Y022541D01*
X011190Y022623D01*
X010474Y022623D01*
X010404Y022553D01*
X009060Y022553D01*
X008990Y022623D01*
X008852Y022623D01*
X008852Y022774D01*
X008723Y022903D01*
X004088Y022903D01*
X004076Y022933D01*
X003952Y023056D01*
X003791Y023123D01*
X003016Y023123D01*
X002854Y023056D01*
X002730Y022933D01*
X002663Y022771D01*
X002663Y022596D01*
X002730Y022434D01*
X002854Y022310D01*
X003016Y022243D01*
X003791Y022243D01*
X003952Y022310D01*
X004076Y022434D01*
X004088Y022463D01*
X008053Y022463D01*
X007783Y022420D01*
X007733Y022430D01*
X007696Y022406D01*
X007652Y022399D01*
X007623Y022358D01*
X007318Y022160D01*
X007292Y022160D01*
X007244Y022111D01*
X007187Y022074D01*
X007182Y022049D01*
X007163Y022031D01*
X007163Y021963D01*
X007149Y021896D01*
X007163Y021874D01*
X007163Y013050D01*
X007851Y012363D01*
X007851Y012290D01*
X007900Y012173D01*
X007990Y012083D01*
X008107Y012034D01*
X008235Y012034D01*
X008352Y012083D01*
X008442Y012173D01*
X008491Y012290D01*
X008491Y012417D01*
X008442Y012535D01*
X008491Y012387D02*
X009032Y012387D01*
X009032Y012228D02*
X008465Y012228D01*
X008322Y012070D02*
X009020Y012070D01*
X009052Y011911D02*
X005478Y011911D01*
X005478Y011753D02*
X009083Y011753D01*
X009115Y011594D02*
X005558Y011594D01*
X005716Y011436D02*
X009147Y011436D01*
X009601Y011277D02*
X005875Y011277D01*
X006033Y011119D02*
X013000Y011119D01*
X012708Y010802D02*
X019172Y010802D01*
X019013Y010960D02*
X012496Y010960D01*
X012264Y010485D02*
X004097Y010485D01*
X004076Y010434D02*
X004143Y010596D01*
X004143Y010771D01*
X004076Y010933D01*
X003952Y011056D01*
X003791Y011123D01*
X003016Y011123D01*
X002854Y011056D01*
X002730Y010933D01*
X002663Y010771D01*
X002663Y010596D01*
X002730Y010434D01*
X002854Y010310D01*
X003016Y010243D01*
X003791Y010243D01*
X003952Y010310D01*
X004076Y010434D01*
X003968Y010326D02*
X012475Y010326D01*
X012686Y010168D02*
X002713Y010168D01*
X002641Y010326D02*
X002838Y010326D01*
X002709Y010485D02*
X002576Y010485D01*
X002525Y010643D02*
X002663Y010643D01*
X002676Y010802D02*
X002480Y010802D01*
X002448Y010960D02*
X002758Y010960D01*
X003005Y011119D02*
X002421Y011119D01*
X002406Y011277D02*
X002934Y011277D01*
X002854Y011310D02*
X003016Y011243D01*
X003791Y011243D01*
X003952Y011310D01*
X004076Y011434D01*
X004143Y011596D01*
X004143Y011771D01*
X004076Y011933D01*
X003952Y012056D01*
X003791Y012123D01*
X003016Y012123D01*
X002854Y012056D01*
X002730Y011933D01*
X002663Y011771D01*
X002663Y011596D01*
X002730Y011434D01*
X002854Y011310D01*
X002729Y011436D02*
X002397Y011436D01*
X002389Y011594D02*
X002664Y011594D01*
X002663Y011753D02*
X002380Y011753D01*
X002372Y011911D02*
X002721Y011911D01*
X002887Y012070D02*
X002363Y012070D01*
X002355Y012228D02*
X004958Y012228D01*
X004958Y012070D02*
X003920Y012070D01*
X003791Y012243D02*
X003952Y012310D01*
X004076Y012434D01*
X004143Y012596D01*
X004143Y012771D01*
X004076Y012933D01*
X003952Y013056D01*
X003791Y013123D01*
X003016Y013123D01*
X002854Y013056D01*
X002730Y012933D01*
X002663Y012771D01*
X002663Y012596D01*
X002730Y012434D01*
X002854Y012310D01*
X003016Y012243D01*
X003791Y012243D01*
X004029Y012387D02*
X004958Y012387D01*
X004958Y012545D02*
X004122Y012545D01*
X004143Y012704D02*
X004958Y012704D01*
X004958Y012862D02*
X004105Y012862D01*
X003988Y013021D02*
X004958Y013021D01*
X004958Y013179D02*
X002304Y013179D01*
X002312Y013021D02*
X002818Y013021D01*
X002701Y012862D02*
X002321Y012862D01*
X002329Y012704D02*
X002663Y012704D01*
X002684Y012545D02*
X002338Y012545D01*
X002346Y012387D02*
X002777Y012387D01*
X003016Y013243D02*
X003791Y013243D01*
X003952Y013310D01*
X004076Y013434D01*
X004143Y013596D01*
X004143Y013771D01*
X004076Y013933D01*
X003952Y014056D01*
X003791Y014123D01*
X003016Y014123D01*
X002854Y014056D01*
X002730Y013933D01*
X002663Y013771D01*
X002663Y013596D01*
X002730Y013434D01*
X002854Y013310D01*
X003016Y013243D01*
X002826Y013338D02*
X002295Y013338D01*
X002287Y013496D02*
X002704Y013496D01*
X002663Y013655D02*
X002278Y013655D01*
X002270Y013813D02*
X002681Y013813D01*
X002769Y013972D02*
X002261Y013972D01*
X002253Y014130D02*
X004958Y014130D01*
X004958Y013972D02*
X004037Y013972D01*
X004126Y013813D02*
X004958Y013813D01*
X004958Y013655D02*
X004143Y013655D01*
X004102Y013496D02*
X004958Y013496D01*
X004958Y013338D02*
X003980Y013338D01*
X003791Y014243D02*
X003952Y014310D01*
X004076Y014434D01*
X004143Y014596D01*
X004143Y014771D01*
X004076Y014933D01*
X003952Y015056D01*
X003791Y015123D01*
X003016Y015123D01*
X002854Y015056D01*
X002730Y014933D01*
X002663Y014771D01*
X002663Y014596D01*
X002730Y014434D01*
X002854Y014310D01*
X003016Y014243D01*
X003791Y014243D01*
X003901Y014289D02*
X004958Y014289D01*
X004958Y014447D02*
X004082Y014447D01*
X004143Y014606D02*
X004958Y014606D01*
X004958Y014764D02*
X004143Y014764D01*
X004080Y014923D02*
X004958Y014923D01*
X004958Y015081D02*
X003892Y015081D01*
X003791Y015243D02*
X003952Y015310D01*
X004076Y015434D01*
X004143Y015596D01*
X004143Y015771D01*
X004076Y015933D01*
X003952Y016056D01*
X003791Y016123D01*
X003016Y016123D01*
X002854Y016056D01*
X002730Y015933D01*
X002663Y015771D01*
X002663Y015596D01*
X002730Y015434D01*
X002854Y015310D01*
X003016Y015243D01*
X003791Y015243D01*
X004040Y015398D02*
X004958Y015398D01*
X004958Y015240D02*
X002194Y015240D01*
X002185Y015398D02*
X002766Y015398D01*
X002679Y015557D02*
X002177Y015557D01*
X002168Y015715D02*
X002663Y015715D01*
X002706Y015874D02*
X002160Y015874D01*
X002151Y016032D02*
X002830Y016032D01*
X002143Y016191D02*
X004958Y016191D01*
X004958Y016349D02*
X002134Y016349D01*
X002126Y016508D02*
X004958Y016508D01*
X004958Y016666D02*
X002117Y016666D01*
X002109Y016825D02*
X004952Y016825D01*
X004864Y016983D02*
X002100Y016983D01*
X002092Y017142D02*
X004776Y017142D01*
X004688Y017300D02*
X003928Y017300D01*
X004253Y017934D02*
X007163Y017934D01*
X007163Y017776D02*
X006914Y017776D01*
X007036Y017654D02*
X006778Y017912D01*
X006414Y017912D01*
X006156Y017654D01*
X006156Y017290D01*
X006414Y017032D01*
X006778Y017032D01*
X007036Y017290D01*
X007036Y017654D01*
X007036Y017617D02*
X007163Y017617D01*
X007163Y017459D02*
X007036Y017459D01*
X007036Y017300D02*
X007163Y017300D01*
X007163Y017142D02*
X006888Y017142D01*
X007163Y016983D02*
X005459Y016983D01*
X005478Y016825D02*
X007163Y016825D01*
X007163Y016666D02*
X005478Y016666D01*
X005478Y016508D02*
X007163Y016508D01*
X007163Y016349D02*
X005478Y016349D01*
X005478Y016191D02*
X007163Y016191D01*
X007163Y016032D02*
X005478Y016032D01*
X005478Y015874D02*
X007163Y015874D01*
X007163Y015715D02*
X005478Y015715D01*
X005478Y015557D02*
X007163Y015557D01*
X007163Y015398D02*
X005478Y015398D01*
X005478Y015240D02*
X007163Y015240D01*
X007163Y015081D02*
X005478Y015081D01*
X005478Y014923D02*
X007163Y014923D01*
X007163Y014764D02*
X005478Y014764D01*
X005478Y014606D02*
X007163Y014606D01*
X007163Y014447D02*
X005478Y014447D01*
X005478Y014289D02*
X007163Y014289D01*
X007163Y014130D02*
X005478Y014130D01*
X005478Y013972D02*
X007163Y013972D01*
X007163Y013813D02*
X005478Y013813D01*
X005478Y013655D02*
X007163Y013655D01*
X007163Y013496D02*
X005478Y013496D01*
X005478Y013338D02*
X007163Y013338D01*
X007163Y013179D02*
X005478Y013179D01*
X005478Y013021D02*
X007193Y013021D01*
X007351Y012862D02*
X005478Y012862D01*
X005478Y012704D02*
X007510Y012704D01*
X007668Y012545D02*
X005478Y012545D01*
X005478Y012387D02*
X007827Y012387D01*
X007876Y012228D02*
X005478Y012228D01*
X005478Y012070D02*
X008020Y012070D01*
X008171Y012354D02*
X007383Y013141D01*
X007383Y021940D01*
X007777Y022196D01*
X008632Y022333D01*
X008632Y022683D01*
X003403Y022683D01*
X003016Y022123D02*
X003791Y022123D01*
X003952Y022056D01*
X004076Y021933D01*
X004143Y021771D01*
X004143Y021596D01*
X004076Y021434D01*
X003952Y021310D01*
X003791Y021243D01*
X003016Y021243D01*
X002854Y021310D01*
X002730Y021434D01*
X002663Y021596D01*
X002663Y021771D01*
X002730Y021933D01*
X002854Y022056D01*
X003016Y022123D01*
X002853Y022055D02*
X002532Y022055D01*
X002529Y021897D02*
X002715Y021897D01*
X002663Y021738D02*
X002527Y021738D01*
X002538Y021580D02*
X002670Y021580D01*
X002743Y021421D02*
X002570Y021421D01*
X002602Y021263D02*
X002968Y021263D01*
X002970Y021104D02*
X002633Y021104D01*
X002665Y020946D02*
X002743Y020946D01*
X002498Y020661D02*
X003403Y020683D01*
X003836Y021104D02*
X007163Y021104D01*
X007163Y020946D02*
X004063Y020946D01*
X004136Y020787D02*
X007163Y020787D01*
X007163Y020629D02*
X004143Y020629D01*
X004091Y020470D02*
X007163Y020470D01*
X007163Y020312D02*
X003954Y020312D01*
X003887Y020128D02*
X003816Y020152D01*
X003741Y020163D01*
X003423Y020163D01*
X003423Y019703D01*
X004183Y019703D01*
X004183Y019721D01*
X004171Y019796D01*
X004148Y019868D01*
X004114Y019935D01*
X004069Y019996D01*
X004016Y020049D01*
X003955Y020094D01*
X003887Y020128D01*
X003804Y020153D02*
X007163Y020153D01*
X007163Y019995D02*
X004070Y019995D01*
X004158Y019836D02*
X007163Y019836D01*
X007163Y019678D02*
X003423Y019678D01*
X003423Y019663D02*
X003423Y019703D01*
X003383Y019703D01*
X003383Y019663D01*
X003423Y019663D01*
X003423Y019203D01*
X003741Y019203D01*
X003816Y019215D01*
X003887Y019238D01*
X003955Y019273D01*
X004016Y019317D01*
X004069Y019371D01*
X004114Y019432D01*
X004148Y019499D01*
X004171Y019571D01*
X004183Y019646D01*
X004183Y019663D01*
X003423Y019663D01*
X003383Y019663D02*
X003383Y019203D01*
X003065Y019203D01*
X002991Y019215D01*
X002919Y019238D01*
X002852Y019273D01*
X002790Y019317D01*
X002737Y019371D01*
X002693Y019432D01*
X002658Y019499D01*
X002635Y019571D01*
X002623Y019646D01*
X002623Y019663D01*
X003383Y019663D01*
X003383Y019678D02*
X001956Y019678D01*
X001948Y019836D02*
X002648Y019836D01*
X002658Y019868D02*
X002635Y019796D01*
X002623Y019721D01*
X002623Y019703D01*
X003383Y019703D01*
X003383Y020163D01*
X003065Y020163D01*
X002991Y020152D01*
X002919Y020128D01*
X002852Y020094D01*
X002790Y020049D01*
X002737Y019996D01*
X002693Y019935D01*
X002658Y019868D01*
X002736Y019995D02*
X001939Y019995D01*
X001931Y020153D02*
X003002Y020153D01*
X002852Y020312D02*
X001922Y020312D01*
X001914Y020470D02*
X002379Y020470D01*
X002278Y020629D02*
X001926Y020629D01*
X001941Y020787D02*
X002248Y020787D01*
X002216Y020946D02*
X001956Y020946D01*
X001971Y021104D02*
X002185Y021104D01*
X002153Y021263D02*
X001986Y021263D01*
X002001Y021421D02*
X002121Y021421D01*
X002084Y021580D02*
X002016Y021580D01*
X002031Y021738D02*
X002087Y021738D01*
X002089Y021897D02*
X002046Y021897D01*
X002061Y022055D02*
X002092Y022055D01*
X002076Y022214D02*
X002094Y022214D01*
X002091Y022372D02*
X002097Y022372D01*
X002537Y022372D02*
X002792Y022372D01*
X002690Y022531D02*
X002540Y022531D01*
X002542Y022689D02*
X002663Y022689D01*
X002695Y022848D02*
X002546Y022848D01*
X002557Y023006D02*
X002804Y023006D01*
X002567Y023165D02*
X012195Y023165D01*
X012170Y023155D02*
X012080Y023065D01*
X012032Y022947D01*
X012032Y022820D01*
X012080Y022702D01*
X012111Y022671D01*
X011927Y020649D01*
X011745Y020321D01*
X011503Y019985D01*
X011258Y019965D01*
X011220Y020003D01*
X010504Y020003D01*
X010434Y019933D01*
X009090Y019933D01*
X009020Y020003D01*
X008304Y020003D01*
X008222Y019921D01*
X008222Y019505D01*
X008304Y019423D01*
X009020Y019423D01*
X009090Y019493D01*
X010434Y019493D01*
X010504Y019423D01*
X011220Y019423D01*
X011302Y019505D01*
X011302Y019527D01*
X011558Y019548D01*
X011567Y019542D01*
X011648Y019555D01*
X011730Y019561D01*
X011736Y019569D01*
X011747Y019571D01*
X011795Y019637D01*
X011848Y019700D01*
X011847Y019710D01*
X012066Y020013D01*
X012080Y020017D01*
X012118Y020085D01*
X012163Y020149D01*
X012161Y020163D01*
X012314Y020441D01*
X012352Y020473D01*
X012356Y020517D01*
X012378Y020557D01*
X012364Y020605D01*
X012549Y022628D01*
X012623Y022702D01*
X012672Y022820D01*
X012672Y022947D01*
X012623Y023065D01*
X012533Y023155D01*
X012415Y023203D01*
X012288Y023203D01*
X012170Y023155D01*
X012056Y023006D02*
X004002Y023006D01*
X004014Y022372D02*
X007633Y022372D01*
X007401Y022214D02*
X002534Y022214D01*
X002305Y021625D02*
X002498Y020661D01*
X002305Y021625D02*
X002324Y022826D01*
X002502Y025484D01*
X004431Y027236D01*
X005100Y027708D01*
X007206Y029047D01*
X008151Y029598D01*
X013899Y029637D01*
X014391Y029125D01*
X014687Y028791D01*
X014687Y027571D01*
X014702Y027571D01*
X015142Y027603D02*
X015262Y027603D01*
X015262Y027761D02*
X015142Y027761D01*
X015142Y027920D02*
X015262Y027920D01*
X015262Y027958D02*
X015329Y028120D01*
X015452Y028244D01*
X015614Y028311D01*
X015789Y028311D01*
X015951Y028244D01*
X016075Y028120D01*
X016142Y027958D01*
X016142Y027183D01*
X016075Y027021D01*
X015951Y026898D01*
X015789Y026831D01*
X015614Y026831D01*
X015452Y026898D01*
X015329Y027021D01*
X015262Y027183D01*
X015262Y027958D01*
X015311Y028078D02*
X015092Y028078D01*
X014958Y028237D02*
X015445Y028237D01*
X015958Y028237D02*
X016389Y028237D01*
X016335Y028183D01*
X016291Y028122D01*
X016257Y028055D01*
X016233Y027983D01*
X016222Y027909D01*
X016222Y027591D01*
X016682Y027591D01*
X016682Y028351D01*
X016664Y028351D01*
X016589Y028339D01*
X016517Y028316D01*
X016450Y028281D01*
X016389Y028237D01*
X016269Y028078D02*
X016092Y028078D01*
X016142Y027920D02*
X016223Y027920D01*
X016222Y027761D02*
X016142Y027761D01*
X016142Y027603D02*
X016222Y027603D01*
X016222Y027551D02*
X016222Y027233D01*
X016233Y027158D01*
X016257Y027086D01*
X016291Y027019D01*
X016335Y026958D01*
X016389Y026905D01*
X016450Y026860D01*
X016517Y026826D01*
X016589Y026803D01*
X016664Y026791D01*
X016682Y026791D01*
X016682Y027551D01*
X016722Y027551D01*
X016722Y027591D01*
X017182Y027591D01*
X017182Y027909D01*
X017170Y027983D01*
X017146Y028055D01*
X017112Y028122D01*
X017068Y028183D01*
X017014Y028237D01*
X019807Y028237D01*
X019936Y028078D02*
X017134Y028078D01*
X017180Y027920D02*
X020060Y027920D01*
X020162Y027761D02*
X017182Y027761D01*
X017182Y027603D02*
X020266Y027603D01*
X020376Y027444D02*
X017182Y027444D01*
X017182Y027551D02*
X016722Y027551D01*
X016722Y026791D01*
X016739Y026791D01*
X016814Y026803D01*
X016886Y026826D01*
X016953Y026860D01*
X017014Y026905D01*
X017068Y026958D01*
X017112Y027019D01*
X017146Y027086D01*
X017170Y027158D01*
X017182Y027233D01*
X017182Y027551D01*
X017182Y027286D02*
X020487Y027286D01*
X020597Y027127D02*
X017160Y027127D01*
X017076Y026969D02*
X020708Y026969D01*
X020818Y026810D02*
X016838Y026810D01*
X016722Y026810D02*
X016682Y026810D01*
X016565Y026810D02*
X012972Y026810D01*
X012972Y026652D02*
X020929Y026652D01*
X021039Y026493D02*
X012972Y026493D01*
X012972Y026335D02*
X021150Y026335D01*
X021260Y026176D02*
X012972Y026176D01*
X013194Y026018D02*
X021288Y026018D01*
X021266Y025859D02*
X013669Y025859D01*
X013952Y025533D02*
X016552Y025533D01*
X018552Y022633D01*
X022403Y022283D01*
X021252Y022055D02*
X017965Y022055D01*
X018076Y021897D02*
X021254Y021897D01*
X021257Y021738D02*
X018187Y021738D01*
X018298Y021580D02*
X021260Y021580D01*
X021263Y021421D02*
X018408Y021421D01*
X018519Y021263D02*
X021265Y021263D01*
X021268Y021104D02*
X018630Y021104D01*
X018746Y020946D02*
X021271Y020946D01*
X021274Y020787D02*
X018799Y020787D01*
X018852Y020629D02*
X021276Y020629D01*
X021279Y020470D02*
X018904Y020470D01*
X018957Y020312D02*
X021282Y020312D01*
X021285Y020153D02*
X019010Y020153D01*
X019063Y019995D02*
X021287Y019995D01*
X021290Y019836D02*
X019130Y019836D01*
X018952Y019633D02*
X022403Y019283D01*
X021304Y019044D02*
X018531Y019044D01*
X018402Y019202D02*
X021021Y019202D01*
X021307Y018885D02*
X018660Y018885D01*
X018789Y018727D02*
X021309Y018727D01*
X021312Y018568D02*
X019165Y018568D01*
X018712Y018473D02*
X019792Y018153D01*
X022403Y017683D01*
X022403Y016683D02*
X019502Y016683D01*
X018352Y017933D01*
X016752Y019833D01*
X015352Y021333D01*
X011702Y024503D01*
X010352Y024533D01*
X009702Y025183D01*
X009702Y027571D01*
X009285Y027127D02*
X004659Y027127D01*
X004464Y026969D02*
X009381Y026969D01*
X009482Y026810D02*
X004290Y026810D01*
X004115Y026652D02*
X009482Y026652D01*
X009482Y026493D02*
X003941Y026493D01*
X003766Y026335D02*
X009482Y026335D01*
X009482Y026176D02*
X003591Y026176D01*
X003417Y026018D02*
X009482Y026018D01*
X009482Y025859D02*
X003242Y025859D01*
X003068Y025701D02*
X009482Y025701D01*
X009482Y025542D02*
X002933Y025542D01*
X002849Y025384D02*
X009482Y025384D01*
X009482Y025225D02*
X002779Y025225D01*
X002709Y025067D02*
X009507Y025067D01*
X009665Y024908D02*
X002684Y024908D01*
X002673Y024750D02*
X009824Y024750D01*
X009982Y024591D02*
X002663Y024591D01*
X002652Y024433D02*
X010141Y024433D01*
X010421Y024127D02*
X010388Y024094D01*
X010364Y024053D01*
X010352Y024007D01*
X010352Y023833D01*
X010352Y023660D01*
X010364Y023614D01*
X010388Y023573D01*
X010421Y023539D01*
X010462Y023516D01*
X010508Y023503D01*
X010832Y023503D01*
X010832Y023833D01*
X010832Y023833D01*
X011312Y023833D01*
X011312Y023660D01*
X011299Y023614D01*
X011276Y023573D01*
X011242Y023539D01*
X011201Y023516D01*
X011155Y023503D01*
X010832Y023503D01*
X010832Y023833D01*
X010832Y023833D01*
X011312Y023833D01*
X011312Y024007D01*
X011299Y024053D01*
X011276Y024094D01*
X011242Y024127D01*
X011201Y024151D01*
X011155Y024163D01*
X010832Y024163D01*
X010832Y023833D01*
X010832Y023833D01*
X010352Y023833D01*
X010832Y023833D01*
X010832Y023833D01*
X010832Y024163D01*
X010508Y024163D01*
X010462Y024151D01*
X010421Y024127D01*
X010410Y024116D02*
X009054Y024116D01*
X009042Y024127D02*
X009001Y024151D01*
X008955Y024163D01*
X008632Y024163D01*
X008632Y023833D01*
X008632Y023833D01*
X009112Y023833D01*
X009112Y023660D01*
X009099Y023614D01*
X009076Y023573D01*
X009042Y023539D01*
X009001Y023516D01*
X008955Y023503D01*
X008632Y023503D01*
X008632Y023833D01*
X008632Y023833D01*
X009112Y023833D01*
X009112Y024007D01*
X009099Y024053D01*
X009076Y024094D01*
X009042Y024127D01*
X009112Y023957D02*
X010352Y023957D01*
X010352Y023799D02*
X009112Y023799D01*
X009106Y023640D02*
X010357Y023640D01*
X010832Y023640D02*
X010832Y023640D01*
X010832Y023799D02*
X010832Y023799D01*
X010832Y023957D02*
X010832Y023957D01*
X010832Y024116D02*
X010832Y024116D01*
X011254Y024116D02*
X011812Y024116D01*
X011630Y024274D02*
X002641Y024274D01*
X002631Y024116D02*
X008210Y024116D01*
X008221Y024127D02*
X008188Y024094D01*
X008164Y024053D01*
X008152Y024007D01*
X008152Y023833D01*
X008152Y023660D01*
X008164Y023614D01*
X008188Y023573D01*
X008221Y023539D01*
X008262Y023516D01*
X008308Y023503D01*
X008632Y023503D01*
X008632Y023833D01*
X008632Y023833D01*
X008152Y023833D01*
X008632Y023833D01*
X008632Y023833D01*
X008632Y024163D01*
X008308Y024163D01*
X008262Y024151D01*
X008221Y024127D01*
X008152Y023957D02*
X002620Y023957D01*
X002610Y023799D02*
X008152Y023799D01*
X008157Y023640D02*
X002599Y023640D01*
X002589Y023482D02*
X012542Y023482D01*
X012360Y023640D02*
X011306Y023640D01*
X011312Y023799D02*
X012177Y023799D01*
X011995Y023957D02*
X011312Y023957D01*
X011936Y024591D02*
X014634Y024591D01*
X014652Y024833D02*
X016452Y023833D01*
X018552Y020833D01*
X018952Y019633D01*
X018758Y019519D02*
X018145Y019519D01*
X018273Y019361D02*
X019458Y019361D01*
X018705Y019678D02*
X018016Y019678D01*
X017887Y019836D02*
X018652Y019836D01*
X018599Y019995D02*
X017758Y019995D01*
X017629Y020153D02*
X018546Y020153D01*
X018493Y020312D02*
X017500Y020312D01*
X017371Y020470D02*
X018441Y020470D01*
X018388Y020629D02*
X017242Y020629D01*
X017102Y020453D02*
X018712Y018473D01*
X018686Y018251D02*
X018371Y018251D01*
X018480Y018410D02*
X018238Y018410D01*
X018351Y018568D02*
X018104Y018568D01*
X018222Y018727D02*
X017971Y018727D01*
X018093Y018885D02*
X017837Y018885D01*
X017964Y019044D02*
X017704Y019044D01*
X017835Y019202D02*
X017571Y019202D01*
X017437Y019361D02*
X017706Y019361D01*
X017577Y019519D02*
X017304Y019519D01*
X017170Y019678D02*
X017449Y019678D01*
X017320Y019836D02*
X017037Y019836D01*
X016903Y019995D02*
X017191Y019995D01*
X017062Y020153D02*
X016754Y020153D01*
X016606Y020312D02*
X016931Y020312D01*
X017102Y020453D02*
X015132Y022293D01*
X014522Y022833D01*
X013172Y024053D01*
X013403Y024274D02*
X015205Y024274D01*
X014919Y024433D02*
X012118Y024433D01*
X012301Y024274D02*
X012940Y024274D01*
X012852Y024116D02*
X012483Y024116D01*
X012666Y023957D02*
X012865Y023957D01*
X012848Y023799D02*
X012973Y023799D01*
X013031Y023640D02*
X013300Y023640D01*
X013213Y023482D02*
X013476Y023482D01*
X013396Y023323D02*
X013651Y023323D01*
X013578Y023165D02*
X013827Y023165D01*
X013761Y023006D02*
X014002Y023006D01*
X013943Y022848D02*
X014177Y022848D01*
X014126Y022689D02*
X014352Y022689D01*
X014308Y022531D02*
X014531Y022531D01*
X014491Y022372D02*
X014710Y022372D01*
X014673Y022214D02*
X014889Y022214D01*
X014856Y022055D02*
X015064Y022055D01*
X015038Y021897D02*
X015234Y021897D01*
X015221Y021738D02*
X015403Y021738D01*
X015403Y021580D02*
X015573Y021580D01*
X015570Y021421D02*
X015743Y021421D01*
X015718Y021263D02*
X015913Y021263D01*
X015866Y021104D02*
X016082Y021104D01*
X016014Y020946D02*
X016252Y020946D01*
X016162Y020787D02*
X016422Y020787D01*
X016310Y020629D02*
X016591Y020629D01*
X016458Y020470D02*
X016761Y020470D01*
X016300Y019995D02*
X015649Y019995D01*
X015512Y020153D02*
X016152Y020153D01*
X016004Y020312D02*
X015375Y020312D01*
X015237Y020470D02*
X015856Y020470D01*
X015708Y020629D02*
X015100Y020629D01*
X014963Y020787D02*
X015560Y020787D01*
X015412Y020946D02*
X014825Y020946D01*
X014688Y021104D02*
X015264Y021104D01*
X015097Y021263D02*
X014550Y021263D01*
X014413Y021421D02*
X014915Y021421D01*
X014732Y021580D02*
X014276Y021580D01*
X014172Y021738D02*
X014550Y021738D01*
X014367Y021897D02*
X014130Y021897D01*
X014185Y022055D02*
X012497Y022055D01*
X012482Y021897D02*
X013573Y021897D01*
X013532Y021738D02*
X012468Y021738D01*
X012453Y021580D02*
X013569Y021580D01*
X013769Y021421D02*
X012439Y021421D01*
X012425Y021263D02*
X013968Y021263D01*
X014106Y021104D02*
X012410Y021104D01*
X012396Y020946D02*
X014243Y020946D01*
X014380Y020787D02*
X012381Y020787D01*
X012367Y020629D02*
X014518Y020629D01*
X014655Y020470D02*
X012350Y020470D01*
X012243Y020312D02*
X014792Y020312D01*
X014930Y020153D02*
X012163Y020153D01*
X012052Y019995D02*
X015067Y019995D01*
X015204Y019836D02*
X011938Y019836D01*
X011829Y019678D02*
X014444Y019678D01*
X014341Y019519D02*
X011302Y019519D01*
X011622Y019773D02*
X010862Y019713D01*
X008662Y019713D01*
X008295Y019995D02*
X007603Y019995D01*
X007603Y020153D02*
X011624Y020153D01*
X011510Y019995D02*
X011228Y019995D01*
X011622Y019773D02*
X011932Y020203D01*
X012142Y020583D01*
X012352Y022883D01*
X012508Y023165D02*
X012907Y023165D01*
X012725Y023323D02*
X002578Y023323D01*
X003953Y022055D02*
X007183Y022055D01*
X007150Y021897D02*
X004091Y021897D01*
X004143Y021738D02*
X007163Y021738D01*
X007163Y021580D02*
X004137Y021580D01*
X004063Y021421D02*
X007163Y021421D01*
X007163Y021263D02*
X003838Y021263D01*
X003423Y020153D02*
X003383Y020153D01*
X003383Y019995D02*
X003423Y019995D01*
X003423Y019836D02*
X003383Y019836D01*
X003383Y019519D02*
X003423Y019519D01*
X003423Y019361D02*
X003383Y019361D01*
X003383Y019163D02*
X003065Y019163D01*
X002991Y019152D01*
X002919Y019128D01*
X002852Y019094D01*
X002790Y019049D01*
X002737Y018996D01*
X002693Y018935D01*
X002658Y018868D01*
X002635Y018796D01*
X002623Y018721D01*
X002623Y018703D01*
X003383Y018703D01*
X003383Y018663D01*
X003423Y018663D01*
X003423Y018203D01*
X003741Y018203D01*
X003816Y018215D01*
X003887Y018238D01*
X003955Y018273D01*
X004016Y018317D01*
X004069Y018371D01*
X004114Y018432D01*
X004148Y018499D01*
X004171Y018571D01*
X004183Y018646D01*
X004183Y018663D01*
X003423Y018663D01*
X003423Y018703D01*
X004183Y018703D01*
X004183Y018721D01*
X004171Y018796D01*
X004148Y018868D01*
X004114Y018935D01*
X004069Y018996D01*
X004016Y019049D01*
X003955Y019094D01*
X003887Y019128D01*
X003816Y019152D01*
X003741Y019163D01*
X003423Y019163D01*
X003423Y018703D01*
X003383Y018703D01*
X003383Y019163D01*
X003383Y019044D02*
X003423Y019044D01*
X003423Y018885D02*
X003383Y018885D01*
X003383Y018727D02*
X003423Y018727D01*
X003383Y018663D02*
X002623Y018663D01*
X002623Y018646D01*
X002635Y018571D01*
X002658Y018499D01*
X002693Y018432D01*
X002737Y018371D01*
X002790Y018317D01*
X002852Y018273D01*
X002919Y018238D01*
X002991Y018215D01*
X003065Y018203D01*
X003383Y018203D01*
X003383Y018663D01*
X003383Y018568D02*
X003423Y018568D01*
X003423Y018410D02*
X003383Y018410D01*
X003383Y018251D02*
X003423Y018251D01*
X003864Y018093D02*
X007163Y018093D01*
X007163Y018251D02*
X003913Y018251D01*
X004098Y018410D02*
X007163Y018410D01*
X007163Y018568D02*
X004170Y018568D01*
X004182Y018727D02*
X007163Y018727D01*
X007163Y018885D02*
X004139Y018885D01*
X004021Y019044D02*
X007163Y019044D01*
X007163Y019202D02*
X001981Y019202D01*
X001990Y019044D02*
X002785Y019044D01*
X002667Y018885D02*
X001998Y018885D01*
X002007Y018727D02*
X002624Y018727D01*
X002636Y018568D02*
X002015Y018568D01*
X002024Y018410D02*
X002709Y018410D01*
X002894Y018251D02*
X002032Y018251D01*
X002041Y018093D02*
X002942Y018093D01*
X002732Y017934D02*
X002049Y017934D01*
X002058Y017776D02*
X002665Y017776D01*
X002663Y017617D02*
X002066Y017617D01*
X002075Y017459D02*
X002720Y017459D01*
X002878Y017300D02*
X002083Y017300D01*
X001973Y019361D02*
X002747Y019361D01*
X002652Y019519D02*
X001965Y019519D01*
X004059Y019361D02*
X007163Y019361D01*
X007163Y019519D02*
X004155Y019519D01*
X005019Y017776D02*
X006278Y017776D01*
X006156Y017617D02*
X005107Y017617D01*
X005195Y017459D02*
X006156Y017459D01*
X006156Y017300D02*
X005283Y017300D01*
X005371Y017142D02*
X006304Y017142D01*
X007603Y017142D02*
X014169Y017142D01*
X014284Y017300D02*
X007603Y017300D01*
X007603Y017459D02*
X014398Y017459D01*
X014432Y017617D02*
X007603Y017617D01*
X007603Y017776D02*
X014432Y017776D01*
X014432Y017934D02*
X007603Y017934D01*
X007603Y018093D02*
X014432Y018093D01*
X014432Y018251D02*
X007603Y018251D01*
X007603Y018410D02*
X014432Y018410D01*
X014432Y018568D02*
X007603Y018568D01*
X007603Y018727D02*
X014432Y018727D01*
X014432Y018885D02*
X007603Y018885D01*
X007603Y019044D02*
X014432Y019044D01*
X014430Y019202D02*
X007603Y019202D01*
X007603Y019361D02*
X014335Y019361D01*
X014652Y019433D02*
X014652Y017433D01*
X012552Y014533D01*
X013552Y013983D01*
X022403Y013683D01*
X022403Y014683D02*
X019302Y014933D01*
X013452Y014933D01*
X013548Y015240D02*
X021370Y015240D01*
X021367Y015398D02*
X013450Y015398D01*
X013355Y015240D02*
X013335Y015240D01*
X013564Y015557D02*
X018964Y015557D01*
X018822Y015715D02*
X013679Y015715D01*
X013794Y015874D02*
X018679Y015874D01*
X018536Y016032D02*
X013909Y016032D01*
X014023Y016191D02*
X018394Y016191D01*
X018251Y016349D02*
X014138Y016349D01*
X014253Y016508D02*
X018109Y016508D01*
X017966Y016666D02*
X014368Y016666D01*
X014483Y016825D02*
X017823Y016825D01*
X017681Y016983D02*
X014597Y016983D01*
X014712Y017142D02*
X017538Y017142D01*
X017402Y017300D02*
X014830Y017300D01*
X014872Y017459D02*
X017265Y017459D01*
X017128Y017617D02*
X014872Y017617D01*
X014872Y017776D02*
X016990Y017776D01*
X016853Y017934D02*
X014872Y017934D01*
X014872Y018093D02*
X016716Y018093D01*
X016578Y018251D02*
X014872Y018251D01*
X014872Y018410D02*
X016441Y018410D01*
X016303Y018568D02*
X014872Y018568D01*
X014872Y018727D02*
X016166Y018727D01*
X016029Y018885D02*
X014872Y018885D01*
X014872Y019044D02*
X015891Y019044D01*
X015754Y019202D02*
X014873Y019202D01*
X014968Y019361D02*
X015617Y019361D01*
X015479Y019519D02*
X014962Y019519D01*
X014860Y019678D02*
X015342Y019678D01*
X015787Y019836D02*
X016448Y019836D01*
X016595Y019678D02*
X015924Y019678D01*
X016061Y019519D02*
X016728Y019519D01*
X016862Y019361D02*
X016199Y019361D01*
X016336Y019202D02*
X016995Y019202D01*
X017129Y019044D02*
X016474Y019044D01*
X016611Y018885D02*
X017262Y018885D01*
X017396Y018727D02*
X016748Y018727D01*
X016886Y018568D02*
X017529Y018568D01*
X017663Y018410D02*
X017023Y018410D01*
X017160Y018251D02*
X017796Y018251D01*
X017930Y018093D02*
X017298Y018093D01*
X017435Y017934D02*
X018063Y017934D01*
X018197Y017776D02*
X017573Y017776D01*
X017710Y017617D02*
X018343Y017617D01*
X018489Y017459D02*
X017847Y017459D01*
X017987Y017300D02*
X018635Y017300D01*
X018781Y017142D02*
X018130Y017142D01*
X018273Y016983D02*
X018927Y016983D01*
X019072Y016825D02*
X018415Y016825D01*
X018558Y016666D02*
X019218Y016666D01*
X019364Y016508D02*
X018700Y016508D01*
X018843Y016349D02*
X021351Y016349D01*
X021353Y016191D02*
X018986Y016191D01*
X019128Y016032D02*
X021356Y016032D01*
X021373Y015081D02*
X020203Y015081D01*
X019102Y015733D02*
X022403Y015683D01*
X021340Y016983D02*
X019524Y016983D01*
X019379Y017142D02*
X021337Y017142D01*
X021334Y017300D02*
X019233Y017300D01*
X019087Y017459D02*
X021331Y017459D01*
X021329Y017617D02*
X018941Y017617D01*
X018795Y017776D02*
X020647Y017776D01*
X020489Y018251D02*
X021318Y018251D01*
X021315Y018410D02*
X019700Y018410D01*
X019756Y017934D02*
X018650Y017934D01*
X018505Y018093D02*
X019221Y018093D01*
X017752Y017233D02*
X019102Y015733D01*
X017752Y017233D02*
X013852Y021733D01*
X014002Y022214D02*
X012511Y022214D01*
X012526Y022372D02*
X013820Y022372D01*
X013637Y022531D02*
X012540Y022531D01*
X012610Y022689D02*
X013455Y022689D01*
X013272Y022848D02*
X012672Y022848D01*
X012647Y023006D02*
X013090Y023006D01*
X013781Y023799D02*
X016061Y023799D01*
X016318Y023640D02*
X013957Y023640D01*
X014132Y023482D02*
X016429Y023482D01*
X016540Y023323D02*
X014307Y023323D01*
X014483Y023165D02*
X016651Y023165D01*
X016762Y023006D02*
X014658Y023006D01*
X014837Y022848D02*
X016873Y022848D01*
X016984Y022689D02*
X015016Y022689D01*
X015195Y022531D02*
X017095Y022531D01*
X017206Y022372D02*
X015369Y022372D01*
X015539Y022214D02*
X017317Y022214D01*
X017428Y022055D02*
X015709Y022055D01*
X015878Y021897D02*
X017539Y021897D01*
X017650Y021738D02*
X016048Y021738D01*
X016218Y021580D02*
X017760Y021580D01*
X017871Y021421D02*
X016387Y021421D01*
X016557Y021263D02*
X017982Y021263D01*
X018093Y021104D02*
X016727Y021104D01*
X016897Y020946D02*
X018204Y020946D01*
X018315Y020787D02*
X017066Y020787D01*
X017854Y022214D02*
X020737Y022214D01*
X020366Y022689D02*
X021241Y022689D01*
X021238Y022848D02*
X018671Y022848D01*
X018562Y023006D02*
X021235Y023006D01*
X021232Y023165D02*
X018452Y023165D01*
X018343Y023323D02*
X021230Y023323D01*
X021227Y023482D02*
X018234Y023482D01*
X018124Y023640D02*
X021224Y023640D01*
X021221Y023799D02*
X018015Y023799D01*
X017906Y023957D02*
X021219Y023957D01*
X021216Y024116D02*
X017796Y024116D01*
X017687Y024274D02*
X021213Y024274D01*
X021210Y024433D02*
X017578Y024433D01*
X017468Y024591D02*
X021208Y024591D01*
X021205Y024750D02*
X017359Y024750D01*
X017250Y024908D02*
X021202Y024908D01*
X021199Y025067D02*
X017141Y025067D01*
X017031Y025225D02*
X021197Y025225D01*
X021202Y025384D02*
X016922Y025384D01*
X016813Y025542D02*
X021224Y025542D01*
X021245Y025701D02*
X016703Y025701D01*
X016497Y025225D02*
X012078Y025225D01*
X011652Y025033D02*
X014652Y024833D01*
X014668Y025067D02*
X014456Y025067D01*
X014684Y025067D02*
X016606Y025067D01*
X016715Y024908D02*
X014970Y024908D01*
X015255Y024750D02*
X016825Y024750D01*
X016934Y024591D02*
X015540Y024591D01*
X015825Y024433D02*
X017043Y024433D01*
X017153Y024274D02*
X016111Y024274D01*
X016396Y024116D02*
X017262Y024116D01*
X017371Y023957D02*
X016645Y023957D01*
X016744Y023799D02*
X017481Y023799D01*
X017590Y023640D02*
X016855Y023640D01*
X016966Y023482D02*
X017699Y023482D01*
X017808Y023323D02*
X017077Y023323D01*
X017188Y023165D02*
X017918Y023165D01*
X018027Y023006D02*
X017299Y023006D01*
X017410Y022848D02*
X018136Y022848D01*
X018246Y022689D02*
X017521Y022689D01*
X017632Y022531D02*
X018351Y022531D01*
X017743Y022372D02*
X018992Y022372D01*
X020693Y019678D02*
X021293Y019678D01*
X021400Y013496D02*
X007603Y013496D01*
X007603Y013338D02*
X021403Y013338D01*
X019852Y012693D02*
X019452Y012483D01*
X019330Y010643D02*
X012919Y010643D01*
X013130Y010485D02*
X019489Y010485D01*
X018342Y010653D02*
X018352Y008033D01*
X016852Y008033D01*
X018147Y006205D02*
X006242Y006205D01*
X006025Y006364D02*
X018454Y006364D01*
X018706Y006522D02*
X005841Y006522D01*
X005680Y006681D02*
X018956Y006681D01*
X017840Y006047D02*
X006493Y006047D01*
X006800Y005888D02*
X017455Y005888D01*
X017014Y005730D02*
X007218Y005730D01*
X008058Y005571D02*
X015477Y005571D01*
X013062Y009851D02*
X002898Y009851D01*
X002800Y010009D02*
X012898Y010009D01*
X013404Y013813D02*
X007603Y013813D01*
X007603Y013655D02*
X016749Y013655D01*
X013939Y016825D02*
X007603Y016825D01*
X007603Y016983D02*
X014054Y016983D01*
X013825Y016666D02*
X007603Y016666D01*
X007603Y016508D02*
X013710Y016508D01*
X013595Y016349D02*
X007603Y016349D01*
X007603Y016191D02*
X013480Y016191D01*
X013365Y016032D02*
X007603Y016032D01*
X007603Y015874D02*
X013251Y015874D01*
X013136Y015715D02*
X007603Y015715D01*
X007603Y015557D02*
X013021Y015557D01*
X012906Y015398D02*
X007603Y015398D01*
X007603Y015240D02*
X012792Y015240D01*
X012677Y015081D02*
X007603Y015081D01*
X007603Y014923D02*
X012562Y014923D01*
X012330Y014764D02*
X007603Y014764D01*
X007603Y014606D02*
X012235Y014606D01*
X012241Y014447D02*
X007603Y014447D01*
X007603Y014289D02*
X012344Y014289D01*
X012828Y014130D02*
X007603Y014130D01*
X007603Y013972D02*
X013116Y013972D01*
X009045Y013179D02*
X007656Y013179D01*
X007815Y013021D02*
X008941Y013021D01*
X008935Y012862D02*
X007973Y012862D01*
X008132Y012704D02*
X009029Y012704D01*
X005773Y010643D02*
X004143Y010643D01*
X004130Y010802D02*
X005615Y010802D01*
X005456Y010960D02*
X004048Y010960D01*
X003801Y011119D02*
X005298Y011119D01*
X005139Y011277D02*
X003873Y011277D01*
X004077Y011436D02*
X004991Y011436D01*
X004958Y011594D02*
X004143Y011594D01*
X004143Y011753D02*
X004958Y011753D01*
X004958Y011911D02*
X004085Y011911D01*
X002906Y014289D02*
X002244Y014289D01*
X002236Y014447D02*
X002725Y014447D01*
X002663Y014606D02*
X002227Y014606D01*
X002219Y014764D02*
X002663Y014764D01*
X002726Y014923D02*
X002211Y014923D01*
X002202Y015081D02*
X002914Y015081D01*
X003976Y016032D02*
X004958Y016032D01*
X004958Y015874D02*
X004100Y015874D01*
X004143Y015715D02*
X004958Y015715D01*
X004958Y015557D02*
X004127Y015557D01*
X007603Y019519D02*
X008222Y019519D01*
X008222Y019678D02*
X007603Y019678D01*
X007603Y019836D02*
X008222Y019836D01*
X007603Y020312D02*
X011739Y020312D01*
X011828Y020470D02*
X007603Y020470D01*
X007603Y020629D02*
X011915Y020629D01*
X011939Y020787D02*
X007603Y020787D01*
X007603Y020946D02*
X008224Y020946D01*
X008218Y020953D02*
X008251Y020919D01*
X008292Y020896D01*
X008338Y020883D01*
X008662Y020883D01*
X008985Y020883D01*
X009031Y020896D01*
X009072Y020919D01*
X009106Y020953D01*
X009129Y020994D01*
X009142Y021040D01*
X009142Y021213D01*
X008662Y021213D01*
X008662Y021213D01*
X008662Y020883D01*
X008662Y021213D01*
X008662Y021213D01*
X009142Y021213D01*
X009142Y021387D01*
X009129Y021433D01*
X009106Y021474D01*
X009072Y021507D01*
X009031Y021531D01*
X008985Y021543D01*
X008662Y021543D01*
X008662Y021213D01*
X008662Y021213D01*
X008182Y021213D01*
X008182Y021040D01*
X008194Y020994D01*
X008218Y020953D01*
X008182Y021104D02*
X007603Y021104D01*
X007603Y021263D02*
X008182Y021263D01*
X008182Y021213D02*
X008182Y021387D01*
X008194Y021433D01*
X008218Y021474D01*
X008251Y021507D01*
X008292Y021531D01*
X008338Y021543D01*
X008662Y021543D01*
X008662Y021213D01*
X008662Y021213D01*
X008182Y021213D01*
X008191Y021421D02*
X007603Y021421D01*
X007603Y021580D02*
X012012Y021580D01*
X012026Y021738D02*
X007603Y021738D01*
X007721Y021897D02*
X012041Y021897D01*
X012055Y022055D02*
X011202Y022055D01*
X011272Y022214D02*
X012070Y022214D01*
X012084Y022372D02*
X011272Y022372D01*
X011272Y022531D02*
X012098Y022531D01*
X012093Y022689D02*
X008852Y022689D01*
X008778Y022848D02*
X012032Y022848D01*
X011272Y021507D02*
X011231Y021531D01*
X011185Y021543D01*
X010862Y021543D01*
X010862Y021213D01*
X010862Y021213D01*
X011342Y021213D01*
X011342Y021040D01*
X011329Y020994D01*
X011306Y020953D01*
X011272Y020919D01*
X011231Y020896D01*
X011185Y020883D01*
X010862Y020883D01*
X010862Y021213D01*
X010862Y021213D01*
X011342Y021213D01*
X011342Y021387D01*
X011329Y021433D01*
X011306Y021474D01*
X011272Y021507D01*
X011332Y021421D02*
X011997Y021421D01*
X011983Y021263D02*
X011342Y021263D01*
X011342Y021104D02*
X011968Y021104D01*
X011954Y020946D02*
X011299Y020946D01*
X010862Y020946D02*
X010862Y020946D01*
X010862Y020883D02*
X010862Y021213D01*
X010862Y021213D01*
X010382Y021213D01*
X010382Y021040D01*
X010394Y020994D01*
X010418Y020953D01*
X010451Y020919D01*
X010492Y020896D01*
X010538Y020883D01*
X010862Y020883D01*
X010862Y021104D02*
X010862Y021104D01*
X010862Y021213D02*
X010862Y021213D01*
X010862Y021543D01*
X010538Y021543D01*
X010492Y021531D01*
X010451Y021507D01*
X010418Y021474D01*
X010394Y021433D01*
X010382Y021387D01*
X010382Y021213D01*
X010862Y021213D01*
X010862Y021263D02*
X010862Y021263D01*
X010862Y021421D02*
X010862Y021421D01*
X010391Y021421D02*
X009132Y021421D01*
X009142Y021263D02*
X010382Y021263D01*
X010382Y021104D02*
X009142Y021104D01*
X009099Y020946D02*
X010424Y020946D01*
X010495Y019995D02*
X009028Y019995D01*
X008662Y020946D02*
X008662Y020946D01*
X008662Y021104D02*
X008662Y021104D01*
X008662Y021263D02*
X008662Y021263D01*
X008662Y021421D02*
X008662Y021421D01*
X009002Y022055D02*
X010462Y022055D01*
X010832Y022333D02*
X008632Y022333D01*
X008632Y023640D02*
X008632Y023640D01*
X008632Y023799D02*
X008632Y023799D01*
X008632Y023957D02*
X008632Y023957D01*
X008632Y024116D02*
X008632Y024116D01*
X009971Y025225D02*
X011148Y025225D01*
X011307Y025067D02*
X010129Y025067D01*
X010288Y024908D02*
X011465Y024908D01*
X011652Y025033D02*
X011252Y025433D01*
X010752Y025833D01*
X010752Y027571D01*
X010702Y027571D01*
X011142Y027603D02*
X011262Y027603D01*
X011262Y027761D02*
X011142Y027761D01*
X011142Y027920D02*
X011262Y027920D01*
X011262Y027958D02*
X011329Y028120D01*
X011452Y028244D01*
X011614Y028311D01*
X011789Y028311D01*
X011951Y028244D01*
X012075Y028120D01*
X012142Y027958D01*
X012142Y027183D01*
X012075Y027021D01*
X011951Y026898D01*
X011789Y026831D01*
X011614Y026831D01*
X011452Y026898D01*
X011329Y027021D01*
X011262Y027183D01*
X011262Y027958D01*
X011311Y028078D02*
X011092Y028078D01*
X010958Y028237D02*
X011445Y028237D01*
X011958Y028237D02*
X012445Y028237D01*
X012311Y028078D02*
X012092Y028078D01*
X012142Y027920D02*
X012262Y027920D01*
X012262Y027761D02*
X012142Y027761D01*
X012142Y027603D02*
X012262Y027603D01*
X012262Y027444D02*
X012142Y027444D01*
X012142Y027286D02*
X012262Y027286D01*
X012285Y027127D02*
X012118Y027127D01*
X012022Y026969D02*
X012381Y026969D01*
X012532Y026810D02*
X010972Y026810D01*
X010972Y026652D02*
X012532Y026652D01*
X012532Y026493D02*
X010972Y026493D01*
X010972Y026335D02*
X012532Y026335D01*
X012532Y026176D02*
X010972Y026176D01*
X010972Y026018D02*
X012532Y026018D01*
X012532Y025859D02*
X011071Y025859D01*
X011269Y025701D02*
X012753Y025701D01*
X012752Y025933D02*
X013952Y025533D01*
X013704Y025384D02*
X011612Y025384D01*
X011461Y025542D02*
X013229Y025542D01*
X012752Y025933D02*
X012752Y027571D01*
X012702Y027571D01*
X013142Y027603D02*
X013262Y027603D01*
X013262Y027761D02*
X013142Y027761D01*
X013142Y027920D02*
X013262Y027920D01*
X013262Y027958D02*
X013329Y028120D01*
X013452Y028244D01*
X013482Y028256D01*
X013482Y028358D01*
X013330Y028601D01*
X009990Y028601D01*
X008772Y028166D01*
X008772Y027753D01*
X008823Y027702D01*
X008872Y027584D01*
X008872Y027457D01*
X008823Y027339D01*
X008733Y027249D01*
X008615Y027201D01*
X008488Y027201D01*
X008370Y027249D01*
X008280Y027339D01*
X008232Y027457D01*
X008232Y027584D01*
X008280Y027702D01*
X008332Y027753D01*
X008332Y028283D01*
X008314Y028333D01*
X008332Y028370D01*
X008332Y028412D01*
X008369Y028449D01*
X008392Y028497D01*
X008431Y028511D01*
X008460Y028541D01*
X008513Y028541D01*
X009831Y029011D01*
X009860Y029041D01*
X009913Y029041D01*
X009963Y029059D01*
X010001Y029041D01*
X013388Y029041D01*
X013412Y029056D01*
X013477Y029041D01*
X013543Y029041D01*
X013563Y029021D01*
X013590Y029015D01*
X013625Y028959D01*
X013672Y028912D01*
X013672Y028884D01*
X013875Y028559D01*
X013922Y028512D01*
X013922Y028484D01*
X013936Y028460D01*
X013922Y028396D01*
X013922Y028256D01*
X013951Y028244D01*
X014075Y028120D01*
X014142Y027958D01*
X014142Y027183D01*
X014075Y027021D01*
X013951Y026898D01*
X013789Y026831D01*
X013614Y026831D01*
X013452Y026898D01*
X013329Y027021D01*
X013262Y027183D01*
X013262Y027958D01*
X013311Y028078D02*
X013092Y028078D01*
X012958Y028237D02*
X013445Y028237D01*
X013458Y028395D02*
X009415Y028395D01*
X009445Y028237D02*
X008971Y028237D01*
X008772Y028078D02*
X009311Y028078D01*
X009262Y027920D02*
X008772Y027920D01*
X008772Y027761D02*
X009262Y027761D01*
X009262Y027603D02*
X008864Y027603D01*
X008866Y027444D02*
X009262Y027444D01*
X009262Y027286D02*
X008769Y027286D01*
X008552Y027521D02*
X008552Y028321D01*
X009952Y028821D01*
X013452Y028821D01*
X013702Y028421D01*
X013702Y027571D01*
X014142Y027603D02*
X014262Y027603D01*
X014262Y027761D02*
X014142Y027761D01*
X014142Y027920D02*
X014262Y027920D01*
X014311Y028078D02*
X014092Y028078D01*
X013958Y028237D02*
X014445Y028237D01*
X014467Y028395D02*
X013922Y028395D01*
X013880Y028554D02*
X014467Y028554D01*
X014462Y028712D02*
X013779Y028712D01*
X013680Y028871D02*
X014323Y028871D01*
X014179Y029029D02*
X013554Y029029D01*
X013874Y029346D02*
X008443Y029346D01*
X007885Y029188D02*
X014026Y029188D01*
X014484Y029346D02*
X017840Y029346D01*
X018400Y029188D02*
X014630Y029188D01*
X014770Y029029D02*
X018765Y029029D01*
X019046Y028871D02*
X014909Y028871D01*
X014907Y028712D02*
X019281Y028712D01*
X019482Y028554D02*
X014907Y028554D01*
X014907Y028395D02*
X019650Y028395D01*
X017014Y028237D02*
X016953Y028281D01*
X016886Y028316D01*
X016814Y028339D01*
X016739Y028351D01*
X016722Y028351D01*
X016722Y027591D01*
X016682Y027591D01*
X016682Y027551D01*
X016222Y027551D01*
X016222Y027444D02*
X016142Y027444D01*
X016142Y027286D02*
X016222Y027286D01*
X016243Y027127D02*
X016118Y027127D01*
X016022Y026969D02*
X016328Y026969D01*
X016682Y026969D02*
X016722Y026969D01*
X016722Y027127D02*
X016682Y027127D01*
X016682Y027286D02*
X016722Y027286D01*
X016722Y027444D02*
X016682Y027444D01*
X016682Y027603D02*
X016722Y027603D01*
X016722Y027761D02*
X016682Y027761D01*
X016682Y027920D02*
X016722Y027920D01*
X016722Y028078D02*
X016682Y028078D01*
X016682Y028237D02*
X016722Y028237D01*
X015262Y027444D02*
X015142Y027444D01*
X015142Y027286D02*
X015262Y027286D01*
X015285Y027127D02*
X015118Y027127D01*
X015022Y026969D02*
X015381Y026969D01*
X014381Y026969D02*
X014022Y026969D01*
X014118Y027127D02*
X014285Y027127D01*
X014262Y027286D02*
X014142Y027286D01*
X014142Y027444D02*
X014262Y027444D01*
X013262Y027444D02*
X013142Y027444D01*
X013142Y027286D02*
X013262Y027286D01*
X013285Y027127D02*
X013118Y027127D01*
X013022Y026969D02*
X013381Y026969D01*
X013359Y028554D02*
X009858Y028554D01*
X009958Y028237D02*
X010445Y028237D01*
X010311Y028078D02*
X010092Y028078D01*
X010142Y027920D02*
X010262Y027920D01*
X010262Y027761D02*
X010142Y027761D01*
X010142Y027603D02*
X010262Y027603D01*
X010262Y027444D02*
X010142Y027444D01*
X010142Y027286D02*
X010262Y027286D01*
X010285Y027127D02*
X010118Y027127D01*
X010022Y026969D02*
X010381Y026969D01*
X010532Y026810D02*
X009922Y026810D01*
X009922Y026652D02*
X010532Y026652D01*
X010532Y026493D02*
X009922Y026493D01*
X009922Y026335D02*
X010532Y026335D01*
X010532Y026176D02*
X009922Y026176D01*
X009922Y026018D02*
X010532Y026018D01*
X010527Y025859D02*
X009922Y025859D01*
X009922Y025701D02*
X010565Y025701D01*
X010763Y025542D02*
X009922Y025542D01*
X009922Y025384D02*
X010961Y025384D01*
X010510Y024750D02*
X012596Y024750D01*
X013492Y024116D02*
X015490Y024116D01*
X015775Y023957D02*
X013606Y023957D01*
X011381Y026969D02*
X011022Y026969D01*
X011118Y027127D02*
X011285Y027127D01*
X011262Y027286D02*
X011142Y027286D01*
X011142Y027444D02*
X011262Y027444D01*
X009849Y029029D02*
X007613Y029029D01*
X007341Y028871D02*
X009438Y028871D01*
X008994Y028712D02*
X007090Y028712D01*
X006841Y028554D02*
X008550Y028554D01*
X008332Y028395D02*
X006592Y028395D01*
X006342Y028237D02*
X008332Y028237D01*
X008332Y028078D02*
X006093Y028078D01*
X005843Y027920D02*
X008332Y027920D01*
X008332Y027761D02*
X005594Y027761D01*
X005345Y027603D02*
X008239Y027603D01*
X008237Y027444D02*
X005108Y027444D01*
X004883Y027286D02*
X008334Y027286D01*
D15*
X008552Y027521D03*
X011642Y023503D03*
X012352Y022883D03*
X013172Y024053D03*
X013852Y021733D03*
X014652Y019433D03*
X016052Y022733D03*
X011852Y018833D03*
X013452Y014933D03*
X012552Y014533D03*
X013052Y013233D03*
X010552Y012533D03*
X009952Y012833D03*
X009252Y012933D03*
X008171Y012354D03*
X006952Y009733D03*
X010752Y007833D03*
X013683Y009598D03*
X013852Y006233D03*
X016852Y008033D03*
X018342Y010653D03*
X019602Y009683D03*
D16*
X013683Y009598D02*
X013092Y010188D01*
X012305Y010779D01*
X006006Y010779D01*
X005218Y011566D01*
X005218Y016881D01*
X004781Y017669D01*
X003403Y017683D01*
M02*
