%
M48
M72
T01C0.0240
T02C0.0360
T03C0.0400
T04C0.0433
T05C0.0866
T06C0.1260
%
T01
X28902Y7041
X26281Y8261
X25702Y9341
X25802Y10041
X26102Y10641
X32402Y13941
X29037Y13773
X11114Y8641
X15132Y11731
X15752Y12441
X14582Y13261
X16902Y13941
X19202Y14741
X15902Y16141
X19802Y11941
X23702Y13541
X24102Y12641
X25402Y13141
X30802Y10841
X30602Y16941
X27982Y18431
X28952Y19691
T02
X34606Y14314
X34606Y13380
X34606Y12492
X34606Y11558
T03
X27952Y3493
X26952Y3493
X25952Y3493
X24952Y3493
X23952Y3493
X22952Y3493
X20952Y3493
X19952Y3493
X18952Y3493
X17952Y3493
X16952Y3493
X15952Y3493
X21163Y6686
X14352Y22493
X15352Y22493
X16352Y22493
X17352Y22493
X18352Y22493
X19352Y22493
X20952Y22493
X21952Y22493
X22952Y22493
X23952Y22493
X24952Y22493
X25952Y22493
X26952Y22493
X27952Y22493
X11064Y16791
X11064Y15791
X11064Y14791
X11064Y13791
X11064Y12791
X11064Y11791
X11064Y10791
X11064Y9791
T04
X35590Y13822
X35590Y12050
T05
X35551Y10652
X35551Y15219
T06
X1328Y12985
M30
