G75*
%MOIN*%
%OFA0B0*%
%FSLAX24Y24*%
%IPPOS*%
%LPD*%
%AMOC8*
5,1,8,0,0,1.08239X$1,22.5*
%
%ADD10C,0.0000*%
%ADD11R,0.0300X0.0600*%
D10*
X008171Y001568D02*
X013535Y001568D01*
X013537Y001496D01*
X013543Y001424D01*
X013553Y001353D01*
X013566Y001282D01*
X013583Y001212D01*
X013605Y001144D01*
X013629Y001076D01*
X013658Y001010D01*
X013690Y000945D01*
X013725Y000883D01*
X013764Y000822D01*
X013806Y000764D01*
X013851Y000708D01*
X013899Y000654D01*
X013950Y000603D01*
X014004Y000555D01*
X014060Y000510D01*
X014118Y000468D01*
X014179Y000429D01*
X014241Y000394D01*
X014306Y000362D01*
X014372Y000333D01*
X014440Y000309D01*
X014508Y000287D01*
X014578Y000270D01*
X014649Y000257D01*
X014720Y000247D01*
X014792Y000241D01*
X014864Y000239D01*
X015734Y000239D01*
X015780Y000241D01*
X015826Y000247D01*
X015871Y000256D01*
X015915Y000269D01*
X015958Y000286D01*
X015999Y000306D01*
X016039Y000330D01*
X016076Y000356D01*
X016111Y000386D01*
X016144Y000419D01*
X016174Y000454D01*
X016200Y000491D01*
X016224Y000531D01*
X016244Y000572D01*
X016261Y000615D01*
X016274Y000659D01*
X016283Y000704D01*
X016289Y000750D01*
X016291Y000796D01*
X016293Y000849D01*
X016298Y000901D01*
X016307Y000953D01*
X016320Y001004D01*
X016336Y001055D01*
X016355Y001104D01*
X016378Y001151D01*
X016403Y001197D01*
X016432Y001241D01*
X016464Y001283D01*
X016499Y001323D01*
X016536Y001360D01*
X016576Y001395D01*
X016618Y001427D01*
X016662Y001456D01*
X016708Y001481D01*
X016755Y001504D01*
X016804Y001523D01*
X016855Y001539D01*
X016906Y001552D01*
X016958Y001561D01*
X017010Y001566D01*
X017063Y001568D01*
X027463Y001568D01*
X027463Y001567D02*
X027686Y001570D01*
X027909Y001578D01*
X028132Y001592D01*
X028354Y001611D01*
X028576Y001636D01*
X028797Y001665D01*
X029017Y001700D01*
X029237Y001741D01*
X029455Y001787D01*
X029672Y001838D01*
X029888Y001894D01*
X030102Y001955D01*
X030315Y002022D01*
X030527Y002094D01*
X030736Y002170D01*
X030944Y002252D01*
X031149Y002339D01*
X031352Y002431D01*
X031554Y002528D01*
X031752Y002629D01*
X031948Y002735D01*
X032142Y002846D01*
X032333Y002962D01*
X032521Y003082D01*
X032706Y003207D01*
X032888Y003336D01*
X033066Y003470D01*
X033242Y003607D01*
X033414Y003749D01*
X033582Y003895D01*
X033747Y004046D01*
X033909Y004200D01*
X034066Y004358D01*
X034220Y004519D01*
X034370Y004685D01*
X034516Y004853D01*
X034657Y005026D01*
X034795Y005202D01*
X034928Y005381D01*
X035056Y005563D01*
X035181Y005748D01*
X035301Y005936D01*
X035416Y006127D01*
X035526Y006321D01*
X035632Y006518D01*
X035733Y006716D01*
X035829Y006918D01*
X035921Y007121D01*
X036007Y007327D01*
X036089Y007535D01*
X036165Y007744D01*
X036236Y007956D01*
X036302Y008169D01*
X036363Y008383D01*
X036419Y008599D01*
X036470Y008817D01*
X036515Y009035D01*
X036555Y009255D01*
X036590Y009475D01*
X036619Y009696D01*
X036643Y009918D01*
X036661Y010140D01*
X036675Y010363D01*
X036683Y010586D01*
X036685Y010809D01*
X036685Y015181D01*
X035373Y013822D02*
X035375Y013851D01*
X035381Y013879D01*
X035390Y013907D01*
X035403Y013933D01*
X035420Y013956D01*
X035439Y013978D01*
X035461Y013997D01*
X035486Y014012D01*
X035512Y014025D01*
X035540Y014033D01*
X035568Y014038D01*
X035597Y014039D01*
X035626Y014036D01*
X035654Y014029D01*
X035681Y014019D01*
X035707Y014005D01*
X035730Y013988D01*
X035751Y013968D01*
X035769Y013945D01*
X035784Y013920D01*
X035795Y013893D01*
X035803Y013865D01*
X035807Y013836D01*
X035807Y013808D01*
X035803Y013779D01*
X035795Y013751D01*
X035784Y013724D01*
X035769Y013699D01*
X035751Y013676D01*
X035730Y013656D01*
X035707Y013639D01*
X035681Y013625D01*
X035654Y013615D01*
X035626Y013608D01*
X035597Y013605D01*
X035568Y013606D01*
X035540Y013611D01*
X035512Y013619D01*
X035486Y013632D01*
X035461Y013647D01*
X035439Y013666D01*
X035420Y013688D01*
X035403Y013711D01*
X035390Y013737D01*
X035381Y013765D01*
X035375Y013793D01*
X035373Y013822D01*
X035373Y012050D02*
X035375Y012079D01*
X035381Y012107D01*
X035390Y012135D01*
X035403Y012161D01*
X035420Y012184D01*
X035439Y012206D01*
X035461Y012225D01*
X035486Y012240D01*
X035512Y012253D01*
X035540Y012261D01*
X035568Y012266D01*
X035597Y012267D01*
X035626Y012264D01*
X035654Y012257D01*
X035681Y012247D01*
X035707Y012233D01*
X035730Y012216D01*
X035751Y012196D01*
X035769Y012173D01*
X035784Y012148D01*
X035795Y012121D01*
X035803Y012093D01*
X035807Y012064D01*
X035807Y012036D01*
X035803Y012007D01*
X035795Y011979D01*
X035784Y011952D01*
X035769Y011927D01*
X035751Y011904D01*
X035730Y011884D01*
X035707Y011867D01*
X035681Y011853D01*
X035654Y011843D01*
X035626Y011836D01*
X035597Y011833D01*
X035568Y011834D01*
X035540Y011839D01*
X035512Y011847D01*
X035486Y011860D01*
X035461Y011875D01*
X035439Y011894D01*
X035420Y011916D01*
X035403Y011939D01*
X035390Y011965D01*
X035381Y011993D01*
X035375Y012021D01*
X035373Y012050D01*
X036685Y015181D02*
X036682Y015404D01*
X036674Y015627D01*
X036661Y015849D01*
X036642Y016071D01*
X036618Y016293D01*
X036588Y016513D01*
X036553Y016734D01*
X036513Y016953D01*
X036468Y017171D01*
X036417Y017388D01*
X036361Y017604D01*
X036300Y017818D01*
X036234Y018031D01*
X036162Y018242D01*
X036086Y018451D01*
X036004Y018659D01*
X035918Y018864D01*
X035826Y019067D01*
X035730Y019268D01*
X035629Y019467D01*
X035523Y019663D01*
X035412Y019856D01*
X035297Y020047D01*
X035177Y020235D01*
X035053Y020420D01*
X034924Y020602D01*
X034791Y020780D01*
X034653Y020956D01*
X034512Y021128D01*
X034366Y021296D01*
X034216Y021461D01*
X034062Y021623D01*
X033905Y021780D01*
X033743Y021934D01*
X033578Y022084D01*
X033410Y022230D01*
X033238Y022371D01*
X033062Y022509D01*
X032884Y022642D01*
X032702Y022771D01*
X032517Y022895D01*
X032329Y023015D01*
X032138Y023130D01*
X031945Y023241D01*
X031749Y023347D01*
X031550Y023448D01*
X031349Y023544D01*
X031146Y023636D01*
X030941Y023722D01*
X030733Y023804D01*
X030524Y023880D01*
X030313Y023952D01*
X030100Y024018D01*
X029886Y024079D01*
X029670Y024135D01*
X029453Y024186D01*
X029235Y024231D01*
X029016Y024271D01*
X028795Y024306D01*
X028575Y024336D01*
X028353Y024360D01*
X028131Y024379D01*
X027909Y024392D01*
X027686Y024400D01*
X027463Y024403D01*
X027463Y024402D02*
X017161Y024402D01*
X017161Y024403D02*
X017104Y024405D01*
X017047Y024410D01*
X016991Y024420D01*
X016936Y024433D01*
X016881Y024449D01*
X016828Y024469D01*
X016776Y024493D01*
X016726Y024520D01*
X016678Y024550D01*
X016631Y024583D01*
X016587Y024619D01*
X016546Y024658D01*
X016507Y024699D01*
X016471Y024743D01*
X016438Y024790D01*
X016408Y024838D01*
X016381Y024888D01*
X016357Y024940D01*
X016337Y024993D01*
X016321Y025048D01*
X016308Y025103D01*
X016298Y025159D01*
X016293Y025216D01*
X016291Y025273D01*
X016289Y025319D01*
X016283Y025365D01*
X016274Y025410D01*
X016261Y025454D01*
X016244Y025497D01*
X016224Y025538D01*
X016200Y025578D01*
X016174Y025615D01*
X016144Y025650D01*
X016111Y025683D01*
X016076Y025713D01*
X016039Y025739D01*
X015999Y025763D01*
X015958Y025783D01*
X015915Y025800D01*
X015871Y025813D01*
X015826Y025822D01*
X015780Y025828D01*
X015734Y025830D01*
X014962Y025830D01*
X014962Y025829D02*
X014887Y025827D01*
X014813Y025821D01*
X014739Y025811D01*
X014665Y025798D01*
X014593Y025780D01*
X014521Y025759D01*
X014451Y025734D01*
X014382Y025706D01*
X014314Y025673D01*
X014249Y025638D01*
X014185Y025599D01*
X014123Y025556D01*
X014064Y025511D01*
X014007Y025462D01*
X013953Y025411D01*
X013902Y025357D01*
X013853Y025300D01*
X013808Y025241D01*
X013765Y025179D01*
X013726Y025116D01*
X013691Y025050D01*
X013658Y024982D01*
X013630Y024913D01*
X013605Y024843D01*
X013584Y024771D01*
X013566Y024699D01*
X013553Y024625D01*
X013543Y024551D01*
X013537Y024477D01*
X013535Y024402D01*
X008565Y024402D01*
X008565Y024403D02*
X008394Y024401D01*
X008223Y024395D01*
X008052Y024384D01*
X007881Y024370D01*
X007711Y024351D01*
X007541Y024329D01*
X007372Y024302D01*
X007203Y024271D01*
X007036Y024236D01*
X006869Y024197D01*
X006703Y024154D01*
X006539Y024107D01*
X006375Y024056D01*
X006213Y024001D01*
X006052Y023942D01*
X005893Y023880D01*
X005735Y023813D01*
X005579Y023743D01*
X005424Y023669D01*
X005272Y023591D01*
X005121Y023510D01*
X004972Y023425D01*
X004826Y023336D01*
X004681Y023244D01*
X004539Y023148D01*
X004399Y023050D01*
X004262Y022947D01*
X004127Y022842D01*
X003995Y022733D01*
X003865Y022621D01*
X003739Y022506D01*
X003615Y022387D01*
X003494Y022266D01*
X003375Y022142D01*
X003260Y022016D01*
X003148Y021886D01*
X003039Y021754D01*
X002934Y021619D01*
X002831Y021482D01*
X002733Y021342D01*
X002637Y021200D01*
X002545Y021055D01*
X002456Y020909D01*
X002371Y020760D01*
X002290Y020609D01*
X002212Y020457D01*
X002138Y020302D01*
X002068Y020146D01*
X002001Y019988D01*
X001939Y019829D01*
X001880Y019668D01*
X001825Y019506D01*
X001774Y019342D01*
X001727Y019178D01*
X001684Y019012D01*
X001645Y018845D01*
X001610Y018678D01*
X001579Y018509D01*
X001552Y018340D01*
X001530Y018170D01*
X001511Y018000D01*
X001497Y017829D01*
X001486Y017658D01*
X001480Y017487D01*
X001478Y017316D01*
X001406Y017314D01*
X001334Y017308D01*
X001262Y017299D01*
X001191Y017286D01*
X001121Y017269D01*
X001052Y017249D01*
X000984Y017224D01*
X000918Y017197D01*
X000852Y017166D01*
X000789Y017131D01*
X000727Y017094D01*
X000668Y017053D01*
X000611Y017009D01*
X000556Y016962D01*
X000504Y016912D01*
X000454Y016860D01*
X000407Y016805D01*
X000363Y016748D01*
X000322Y016689D01*
X000285Y016627D01*
X000250Y016564D01*
X000219Y016498D01*
X000192Y016432D01*
X000167Y016364D01*
X000147Y016295D01*
X000130Y016225D01*
X000117Y016154D01*
X000108Y016082D01*
X000102Y016010D01*
X000100Y015938D01*
X000100Y009639D01*
X000102Y009567D01*
X000108Y009495D01*
X000117Y009423D01*
X000130Y009352D01*
X000147Y009282D01*
X000167Y009213D01*
X000192Y009145D01*
X000219Y009079D01*
X000250Y009013D01*
X000285Y008950D01*
X000322Y008888D01*
X000363Y008829D01*
X000407Y008772D01*
X000454Y008717D01*
X000504Y008665D01*
X000556Y008615D01*
X000611Y008568D01*
X000668Y008524D01*
X000727Y008483D01*
X000789Y008446D01*
X000852Y008411D01*
X000918Y008380D01*
X000984Y008353D01*
X001052Y008328D01*
X001121Y008308D01*
X001191Y008291D01*
X001262Y008278D01*
X001334Y008269D01*
X001406Y008263D01*
X001478Y008261D01*
X001480Y008099D01*
X001486Y007938D01*
X001496Y007776D01*
X001509Y007615D01*
X001527Y007454D01*
X001548Y007294D01*
X001574Y007134D01*
X001603Y006975D01*
X001636Y006817D01*
X001672Y006659D01*
X001713Y006503D01*
X001757Y006347D01*
X001806Y006193D01*
X001857Y006040D01*
X001913Y005888D01*
X001972Y005737D01*
X002035Y005588D01*
X002101Y005441D01*
X002171Y005295D01*
X002245Y005151D01*
X002322Y005008D01*
X002402Y004868D01*
X002486Y004730D01*
X002573Y004593D01*
X002663Y004459D01*
X002756Y004327D01*
X002853Y004197D01*
X002953Y004070D01*
X003055Y003945D01*
X003161Y003823D01*
X003270Y003703D01*
X003381Y003586D01*
X003496Y003471D01*
X003613Y003360D01*
X003733Y003251D01*
X003855Y003145D01*
X003980Y003043D01*
X004107Y002943D01*
X004237Y002846D01*
X004369Y002753D01*
X004503Y002663D01*
X004640Y002576D01*
X004778Y002492D01*
X004918Y002412D01*
X005061Y002335D01*
X005205Y002261D01*
X005351Y002191D01*
X005498Y002125D01*
X005647Y002062D01*
X005798Y002003D01*
X005950Y001947D01*
X006103Y001896D01*
X006257Y001847D01*
X006413Y001803D01*
X006569Y001762D01*
X006727Y001726D01*
X006885Y001693D01*
X007044Y001664D01*
X007204Y001638D01*
X007364Y001617D01*
X007525Y001599D01*
X007686Y001586D01*
X007848Y001576D01*
X008009Y001570D01*
X008171Y001568D01*
X000698Y012985D02*
X000700Y013035D01*
X000706Y013085D01*
X000716Y013134D01*
X000730Y013182D01*
X000747Y013229D01*
X000768Y013274D01*
X000793Y013318D01*
X000821Y013359D01*
X000853Y013398D01*
X000887Y013435D01*
X000924Y013469D01*
X000964Y013499D01*
X001006Y013526D01*
X001050Y013550D01*
X001096Y013571D01*
X001143Y013587D01*
X001191Y013600D01*
X001241Y013609D01*
X001290Y013614D01*
X001341Y013615D01*
X001391Y013612D01*
X001440Y013605D01*
X001489Y013594D01*
X001537Y013579D01*
X001583Y013561D01*
X001628Y013539D01*
X001671Y013513D01*
X001712Y013484D01*
X001751Y013452D01*
X001787Y013417D01*
X001819Y013379D01*
X001849Y013339D01*
X001876Y013296D01*
X001899Y013252D01*
X001918Y013206D01*
X001934Y013158D01*
X001946Y013109D01*
X001954Y013060D01*
X001958Y013010D01*
X001958Y012960D01*
X001954Y012910D01*
X001946Y012861D01*
X001934Y012812D01*
X001918Y012764D01*
X001899Y012718D01*
X001876Y012674D01*
X001849Y012631D01*
X001819Y012591D01*
X001787Y012553D01*
X001751Y012518D01*
X001712Y012486D01*
X001671Y012457D01*
X001628Y012431D01*
X001583Y012409D01*
X001537Y012391D01*
X001489Y012376D01*
X001440Y012365D01*
X001391Y012358D01*
X001341Y012355D01*
X001290Y012356D01*
X001241Y012361D01*
X001191Y012370D01*
X001143Y012383D01*
X001096Y012399D01*
X001050Y012420D01*
X001006Y012444D01*
X000964Y012471D01*
X000924Y012501D01*
X000887Y012535D01*
X000853Y012572D01*
X000821Y012611D01*
X000793Y012652D01*
X000768Y012696D01*
X000747Y012741D01*
X000730Y012788D01*
X000716Y012836D01*
X000706Y012885D01*
X000700Y012935D01*
X000698Y012985D01*
D11*
X017422Y010951D03*
X018922Y010951D03*
X018922Y008751D03*
X017422Y008751D03*
M02*
