G75*
%MOIN*%
%OFA0B0*%
%FSLAX24Y24*%
%IPPOS*%
%LPD*%
%AMOC8*
5,1,8,0,0,1.08239X$1,22.5*
%
%ADD10C,0.0000*%
%ADD11C,0.0740*%
%ADD12C,0.1266*%
%ADD13C,0.0600*%
%ADD14R,0.0300X0.0600*%
%ADD15OC8,0.0600*%
%ADD16C,0.0160*%
%ADD17C,0.0360*%
%ADD18C,0.0240*%
D10*
X008171Y001568D02*
X013535Y001568D01*
X013537Y001496D01*
X013543Y001424D01*
X013553Y001353D01*
X013566Y001282D01*
X013583Y001212D01*
X013605Y001144D01*
X013629Y001076D01*
X013658Y001010D01*
X013690Y000945D01*
X013725Y000883D01*
X013764Y000822D01*
X013806Y000764D01*
X013851Y000708D01*
X013899Y000654D01*
X013950Y000603D01*
X014004Y000555D01*
X014060Y000510D01*
X014118Y000468D01*
X014179Y000429D01*
X014241Y000394D01*
X014306Y000362D01*
X014372Y000333D01*
X014440Y000309D01*
X014508Y000287D01*
X014578Y000270D01*
X014649Y000257D01*
X014720Y000247D01*
X014792Y000241D01*
X014864Y000239D01*
X015734Y000239D01*
X015780Y000241D01*
X015826Y000247D01*
X015871Y000256D01*
X015915Y000269D01*
X015958Y000286D01*
X015999Y000306D01*
X016039Y000330D01*
X016076Y000356D01*
X016111Y000386D01*
X016144Y000419D01*
X016174Y000454D01*
X016200Y000491D01*
X016224Y000531D01*
X016244Y000572D01*
X016261Y000615D01*
X016274Y000659D01*
X016283Y000704D01*
X016289Y000750D01*
X016291Y000796D01*
X016293Y000849D01*
X016298Y000901D01*
X016307Y000953D01*
X016320Y001004D01*
X016336Y001055D01*
X016355Y001104D01*
X016378Y001151D01*
X016403Y001197D01*
X016432Y001241D01*
X016464Y001283D01*
X016499Y001323D01*
X016536Y001360D01*
X016576Y001395D01*
X016618Y001427D01*
X016662Y001456D01*
X016708Y001481D01*
X016755Y001504D01*
X016804Y001523D01*
X016855Y001539D01*
X016906Y001552D01*
X016958Y001561D01*
X017010Y001566D01*
X017063Y001568D01*
X027463Y001568D01*
X027463Y001567D02*
X027686Y001570D01*
X027909Y001578D01*
X028132Y001592D01*
X028354Y001611D01*
X028576Y001636D01*
X028797Y001665D01*
X029017Y001700D01*
X029237Y001741D01*
X029455Y001787D01*
X029672Y001838D01*
X029888Y001894D01*
X030102Y001955D01*
X030315Y002022D01*
X030527Y002094D01*
X030736Y002170D01*
X030944Y002252D01*
X031149Y002339D01*
X031352Y002431D01*
X031554Y002528D01*
X031752Y002629D01*
X031948Y002735D01*
X032142Y002846D01*
X032333Y002962D01*
X032521Y003082D01*
X032706Y003207D01*
X032888Y003336D01*
X033066Y003470D01*
X033242Y003607D01*
X033414Y003749D01*
X033582Y003895D01*
X033747Y004046D01*
X033909Y004200D01*
X034066Y004358D01*
X034220Y004519D01*
X034370Y004685D01*
X034516Y004853D01*
X034657Y005026D01*
X034795Y005202D01*
X034928Y005381D01*
X035056Y005563D01*
X035181Y005748D01*
X035301Y005936D01*
X035416Y006127D01*
X035526Y006321D01*
X035632Y006518D01*
X035733Y006716D01*
X035829Y006918D01*
X035921Y007121D01*
X036007Y007327D01*
X036089Y007535D01*
X036165Y007744D01*
X036236Y007956D01*
X036302Y008169D01*
X036363Y008383D01*
X036419Y008599D01*
X036470Y008817D01*
X036515Y009035D01*
X036555Y009255D01*
X036590Y009475D01*
X036619Y009696D01*
X036643Y009918D01*
X036661Y010140D01*
X036675Y010363D01*
X036683Y010586D01*
X036685Y010809D01*
X036685Y015181D01*
X035373Y013822D02*
X035375Y013851D01*
X035381Y013879D01*
X035390Y013907D01*
X035403Y013933D01*
X035420Y013956D01*
X035439Y013978D01*
X035461Y013997D01*
X035486Y014012D01*
X035512Y014025D01*
X035540Y014033D01*
X035568Y014038D01*
X035597Y014039D01*
X035626Y014036D01*
X035654Y014029D01*
X035681Y014019D01*
X035707Y014005D01*
X035730Y013988D01*
X035751Y013968D01*
X035769Y013945D01*
X035784Y013920D01*
X035795Y013893D01*
X035803Y013865D01*
X035807Y013836D01*
X035807Y013808D01*
X035803Y013779D01*
X035795Y013751D01*
X035784Y013724D01*
X035769Y013699D01*
X035751Y013676D01*
X035730Y013656D01*
X035707Y013639D01*
X035681Y013625D01*
X035654Y013615D01*
X035626Y013608D01*
X035597Y013605D01*
X035568Y013606D01*
X035540Y013611D01*
X035512Y013619D01*
X035486Y013632D01*
X035461Y013647D01*
X035439Y013666D01*
X035420Y013688D01*
X035403Y013711D01*
X035390Y013737D01*
X035381Y013765D01*
X035375Y013793D01*
X035373Y013822D01*
X035373Y012050D02*
X035375Y012079D01*
X035381Y012107D01*
X035390Y012135D01*
X035403Y012161D01*
X035420Y012184D01*
X035439Y012206D01*
X035461Y012225D01*
X035486Y012240D01*
X035512Y012253D01*
X035540Y012261D01*
X035568Y012266D01*
X035597Y012267D01*
X035626Y012264D01*
X035654Y012257D01*
X035681Y012247D01*
X035707Y012233D01*
X035730Y012216D01*
X035751Y012196D01*
X035769Y012173D01*
X035784Y012148D01*
X035795Y012121D01*
X035803Y012093D01*
X035807Y012064D01*
X035807Y012036D01*
X035803Y012007D01*
X035795Y011979D01*
X035784Y011952D01*
X035769Y011927D01*
X035751Y011904D01*
X035730Y011884D01*
X035707Y011867D01*
X035681Y011853D01*
X035654Y011843D01*
X035626Y011836D01*
X035597Y011833D01*
X035568Y011834D01*
X035540Y011839D01*
X035512Y011847D01*
X035486Y011860D01*
X035461Y011875D01*
X035439Y011894D01*
X035420Y011916D01*
X035403Y011939D01*
X035390Y011965D01*
X035381Y011993D01*
X035375Y012021D01*
X035373Y012050D01*
X036685Y015181D02*
X036682Y015404D01*
X036674Y015627D01*
X036661Y015849D01*
X036642Y016071D01*
X036618Y016293D01*
X036588Y016513D01*
X036553Y016734D01*
X036513Y016953D01*
X036468Y017171D01*
X036417Y017388D01*
X036361Y017604D01*
X036300Y017818D01*
X036234Y018031D01*
X036162Y018242D01*
X036086Y018451D01*
X036004Y018659D01*
X035918Y018864D01*
X035826Y019067D01*
X035730Y019268D01*
X035629Y019467D01*
X035523Y019663D01*
X035412Y019856D01*
X035297Y020047D01*
X035177Y020235D01*
X035053Y020420D01*
X034924Y020602D01*
X034791Y020780D01*
X034653Y020956D01*
X034512Y021128D01*
X034366Y021296D01*
X034216Y021461D01*
X034062Y021623D01*
X033905Y021780D01*
X033743Y021934D01*
X033578Y022084D01*
X033410Y022230D01*
X033238Y022371D01*
X033062Y022509D01*
X032884Y022642D01*
X032702Y022771D01*
X032517Y022895D01*
X032329Y023015D01*
X032138Y023130D01*
X031945Y023241D01*
X031749Y023347D01*
X031550Y023448D01*
X031349Y023544D01*
X031146Y023636D01*
X030941Y023722D01*
X030733Y023804D01*
X030524Y023880D01*
X030313Y023952D01*
X030100Y024018D01*
X029886Y024079D01*
X029670Y024135D01*
X029453Y024186D01*
X029235Y024231D01*
X029016Y024271D01*
X028795Y024306D01*
X028575Y024336D01*
X028353Y024360D01*
X028131Y024379D01*
X027909Y024392D01*
X027686Y024400D01*
X027463Y024403D01*
X027463Y024402D02*
X017161Y024402D01*
X017161Y024403D02*
X017104Y024405D01*
X017047Y024410D01*
X016991Y024420D01*
X016936Y024433D01*
X016881Y024449D01*
X016828Y024469D01*
X016776Y024493D01*
X016726Y024520D01*
X016678Y024550D01*
X016631Y024583D01*
X016587Y024619D01*
X016546Y024658D01*
X016507Y024699D01*
X016471Y024743D01*
X016438Y024790D01*
X016408Y024838D01*
X016381Y024888D01*
X016357Y024940D01*
X016337Y024993D01*
X016321Y025048D01*
X016308Y025103D01*
X016298Y025159D01*
X016293Y025216D01*
X016291Y025273D01*
X016289Y025319D01*
X016283Y025365D01*
X016274Y025410D01*
X016261Y025454D01*
X016244Y025497D01*
X016224Y025538D01*
X016200Y025578D01*
X016174Y025615D01*
X016144Y025650D01*
X016111Y025683D01*
X016076Y025713D01*
X016039Y025739D01*
X015999Y025763D01*
X015958Y025783D01*
X015915Y025800D01*
X015871Y025813D01*
X015826Y025822D01*
X015780Y025828D01*
X015734Y025830D01*
X014962Y025830D01*
X014962Y025829D02*
X014887Y025827D01*
X014813Y025821D01*
X014739Y025811D01*
X014665Y025798D01*
X014593Y025780D01*
X014521Y025759D01*
X014451Y025734D01*
X014382Y025706D01*
X014314Y025673D01*
X014249Y025638D01*
X014185Y025599D01*
X014123Y025556D01*
X014064Y025511D01*
X014007Y025462D01*
X013953Y025411D01*
X013902Y025357D01*
X013853Y025300D01*
X013808Y025241D01*
X013765Y025179D01*
X013726Y025116D01*
X013691Y025050D01*
X013658Y024982D01*
X013630Y024913D01*
X013605Y024843D01*
X013584Y024771D01*
X013566Y024699D01*
X013553Y024625D01*
X013543Y024551D01*
X013537Y024477D01*
X013535Y024402D01*
X008565Y024402D01*
X008565Y024403D02*
X008394Y024401D01*
X008223Y024395D01*
X008052Y024384D01*
X007881Y024370D01*
X007711Y024351D01*
X007541Y024329D01*
X007372Y024302D01*
X007203Y024271D01*
X007036Y024236D01*
X006869Y024197D01*
X006703Y024154D01*
X006539Y024107D01*
X006375Y024056D01*
X006213Y024001D01*
X006052Y023942D01*
X005893Y023880D01*
X005735Y023813D01*
X005579Y023743D01*
X005424Y023669D01*
X005272Y023591D01*
X005121Y023510D01*
X004972Y023425D01*
X004826Y023336D01*
X004681Y023244D01*
X004539Y023148D01*
X004399Y023050D01*
X004262Y022947D01*
X004127Y022842D01*
X003995Y022733D01*
X003865Y022621D01*
X003739Y022506D01*
X003615Y022387D01*
X003494Y022266D01*
X003375Y022142D01*
X003260Y022016D01*
X003148Y021886D01*
X003039Y021754D01*
X002934Y021619D01*
X002831Y021482D01*
X002733Y021342D01*
X002637Y021200D01*
X002545Y021055D01*
X002456Y020909D01*
X002371Y020760D01*
X002290Y020609D01*
X002212Y020457D01*
X002138Y020302D01*
X002068Y020146D01*
X002001Y019988D01*
X001939Y019829D01*
X001880Y019668D01*
X001825Y019506D01*
X001774Y019342D01*
X001727Y019178D01*
X001684Y019012D01*
X001645Y018845D01*
X001610Y018678D01*
X001579Y018509D01*
X001552Y018340D01*
X001530Y018170D01*
X001511Y018000D01*
X001497Y017829D01*
X001486Y017658D01*
X001480Y017487D01*
X001478Y017316D01*
X001406Y017314D01*
X001334Y017308D01*
X001262Y017299D01*
X001191Y017286D01*
X001121Y017269D01*
X001052Y017249D01*
X000984Y017224D01*
X000918Y017197D01*
X000852Y017166D01*
X000789Y017131D01*
X000727Y017094D01*
X000668Y017053D01*
X000611Y017009D01*
X000556Y016962D01*
X000504Y016912D01*
X000454Y016860D01*
X000407Y016805D01*
X000363Y016748D01*
X000322Y016689D01*
X000285Y016627D01*
X000250Y016564D01*
X000219Y016498D01*
X000192Y016432D01*
X000167Y016364D01*
X000147Y016295D01*
X000130Y016225D01*
X000117Y016154D01*
X000108Y016082D01*
X000102Y016010D01*
X000100Y015938D01*
X000100Y009639D01*
X000102Y009567D01*
X000108Y009495D01*
X000117Y009423D01*
X000130Y009352D01*
X000147Y009282D01*
X000167Y009213D01*
X000192Y009145D01*
X000219Y009079D01*
X000250Y009013D01*
X000285Y008950D01*
X000322Y008888D01*
X000363Y008829D01*
X000407Y008772D01*
X000454Y008717D01*
X000504Y008665D01*
X000556Y008615D01*
X000611Y008568D01*
X000668Y008524D01*
X000727Y008483D01*
X000789Y008446D01*
X000852Y008411D01*
X000918Y008380D01*
X000984Y008353D01*
X001052Y008328D01*
X001121Y008308D01*
X001191Y008291D01*
X001262Y008278D01*
X001334Y008269D01*
X001406Y008263D01*
X001478Y008261D01*
X001480Y008099D01*
X001486Y007938D01*
X001496Y007776D01*
X001509Y007615D01*
X001527Y007454D01*
X001548Y007294D01*
X001574Y007134D01*
X001603Y006975D01*
X001636Y006817D01*
X001672Y006659D01*
X001713Y006503D01*
X001757Y006347D01*
X001806Y006193D01*
X001857Y006040D01*
X001913Y005888D01*
X001972Y005737D01*
X002035Y005588D01*
X002101Y005441D01*
X002171Y005295D01*
X002245Y005151D01*
X002322Y005008D01*
X002402Y004868D01*
X002486Y004730D01*
X002573Y004593D01*
X002663Y004459D01*
X002756Y004327D01*
X002853Y004197D01*
X002953Y004070D01*
X003055Y003945D01*
X003161Y003823D01*
X003270Y003703D01*
X003381Y003586D01*
X003496Y003471D01*
X003613Y003360D01*
X003733Y003251D01*
X003855Y003145D01*
X003980Y003043D01*
X004107Y002943D01*
X004237Y002846D01*
X004369Y002753D01*
X004503Y002663D01*
X004640Y002576D01*
X004778Y002492D01*
X004918Y002412D01*
X005061Y002335D01*
X005205Y002261D01*
X005351Y002191D01*
X005498Y002125D01*
X005647Y002062D01*
X005798Y002003D01*
X005950Y001947D01*
X006103Y001896D01*
X006257Y001847D01*
X006413Y001803D01*
X006569Y001762D01*
X006727Y001726D01*
X006885Y001693D01*
X007044Y001664D01*
X007204Y001638D01*
X007364Y001617D01*
X007525Y001599D01*
X007686Y001586D01*
X007848Y001576D01*
X008009Y001570D01*
X008171Y001568D01*
X000698Y012985D02*
X000700Y013035D01*
X000706Y013085D01*
X000716Y013134D01*
X000730Y013182D01*
X000747Y013229D01*
X000768Y013274D01*
X000793Y013318D01*
X000821Y013359D01*
X000853Y013398D01*
X000887Y013435D01*
X000924Y013469D01*
X000964Y013499D01*
X001006Y013526D01*
X001050Y013550D01*
X001096Y013571D01*
X001143Y013587D01*
X001191Y013600D01*
X001241Y013609D01*
X001290Y013614D01*
X001341Y013615D01*
X001391Y013612D01*
X001440Y013605D01*
X001489Y013594D01*
X001537Y013579D01*
X001583Y013561D01*
X001628Y013539D01*
X001671Y013513D01*
X001712Y013484D01*
X001751Y013452D01*
X001787Y013417D01*
X001819Y013379D01*
X001849Y013339D01*
X001876Y013296D01*
X001899Y013252D01*
X001918Y013206D01*
X001934Y013158D01*
X001946Y013109D01*
X001954Y013060D01*
X001958Y013010D01*
X001958Y012960D01*
X001954Y012910D01*
X001946Y012861D01*
X001934Y012812D01*
X001918Y012764D01*
X001899Y012718D01*
X001876Y012674D01*
X001849Y012631D01*
X001819Y012591D01*
X001787Y012553D01*
X001751Y012518D01*
X001712Y012486D01*
X001671Y012457D01*
X001628Y012431D01*
X001583Y012409D01*
X001537Y012391D01*
X001489Y012376D01*
X001440Y012365D01*
X001391Y012358D01*
X001341Y012355D01*
X001290Y012356D01*
X001241Y012361D01*
X001191Y012370D01*
X001143Y012383D01*
X001096Y012399D01*
X001050Y012420D01*
X001006Y012444D01*
X000964Y012471D01*
X000924Y012501D01*
X000887Y012535D01*
X000853Y012572D01*
X000821Y012611D01*
X000793Y012652D01*
X000768Y012696D01*
X000747Y012741D01*
X000730Y012788D01*
X000716Y012836D01*
X000706Y012885D01*
X000700Y012935D01*
X000698Y012985D01*
D11*
X034606Y013380D03*
X034606Y012492D03*
X034606Y011558D03*
X034606Y014314D03*
D12*
X035551Y015219D03*
X035551Y010652D03*
D13*
X027952Y003793D02*
X027952Y003193D01*
X026952Y003193D02*
X026952Y003793D01*
X025952Y003793D02*
X025952Y003193D01*
X024952Y003193D02*
X024952Y003793D01*
X023952Y003793D02*
X023952Y003193D01*
X022952Y003193D02*
X022952Y003793D01*
X020952Y003793D02*
X020952Y003193D01*
X019952Y003193D02*
X019952Y003793D01*
X018952Y003793D02*
X018952Y003193D01*
X017952Y003193D02*
X017952Y003793D01*
X016952Y003793D02*
X016952Y003193D01*
X015952Y003193D02*
X015952Y003793D01*
X011364Y009791D02*
X010764Y009791D01*
X010764Y010791D02*
X011364Y010791D01*
X011364Y011791D02*
X010764Y011791D01*
X010764Y012791D02*
X011364Y012791D01*
X011364Y013791D02*
X010764Y013791D01*
X010764Y014791D02*
X011364Y014791D01*
X011364Y015791D02*
X010764Y015791D01*
X010764Y016791D02*
X011364Y016791D01*
X014352Y022193D02*
X014352Y022793D01*
X015352Y022793D02*
X015352Y022193D01*
X016352Y022193D02*
X016352Y022793D01*
X017352Y022793D02*
X017352Y022193D01*
X018352Y022193D02*
X018352Y022793D01*
X019352Y022793D02*
X019352Y022193D01*
X020952Y022193D02*
X020952Y022793D01*
X021952Y022793D02*
X021952Y022193D01*
X022952Y022193D02*
X022952Y022793D01*
X023952Y022793D02*
X023952Y022193D01*
X024952Y022193D02*
X024952Y022793D01*
X025952Y022793D02*
X025952Y022193D01*
X026952Y022193D02*
X026952Y022793D01*
X027952Y022793D02*
X027952Y022193D01*
D14*
X018922Y010951D03*
X017422Y010951D03*
X017422Y008751D03*
X018922Y008751D03*
D15*
X021163Y006686D03*
D16*
X012622Y002847D02*
X004579Y002847D01*
X004333Y003005D02*
X012478Y003005D01*
X012334Y003164D02*
X004133Y003164D01*
X004268Y003047D02*
X003566Y003655D01*
X002957Y004358D01*
X002455Y005139D01*
X002069Y005985D01*
X001807Y006876D01*
X001675Y007796D01*
X001658Y008261D01*
X001658Y008335D01*
X001579Y008414D01*
X001643Y012239D01*
X001786Y012299D01*
X002014Y012526D01*
X002137Y012824D01*
X002137Y013146D01*
X002014Y013444D01*
X001786Y013672D01*
X001489Y013795D01*
X001456Y013795D01*
X001372Y014582D01*
X001348Y015526D01*
X001402Y016469D01*
X001496Y017136D01*
X001553Y017136D01*
X001658Y017241D01*
X001658Y017316D01*
X001676Y017809D01*
X001757Y018377D01*
X002024Y019227D01*
X002380Y020102D01*
X002807Y020944D01*
X003302Y021749D01*
X003369Y021840D01*
X003681Y022200D01*
X004426Y022845D01*
X005255Y023378D01*
X006151Y023787D01*
X007096Y024065D01*
X008072Y024205D01*
X008565Y024222D01*
X013610Y024222D01*
X013715Y024328D01*
X013715Y024402D01*
X013726Y024565D01*
X013810Y024880D01*
X013973Y025162D01*
X014203Y025392D01*
X014485Y025555D01*
X014799Y025639D01*
X014962Y025650D01*
X015734Y025650D01*
X015808Y025642D01*
X015943Y025586D01*
X016047Y025482D01*
X016104Y025346D01*
X016111Y025273D01*
X016111Y025106D01*
X016214Y024790D01*
X016409Y024521D01*
X016409Y024521D01*
X016409Y024521D01*
X016679Y024325D01*
X016995Y024222D01*
X027463Y024222D01*
X028009Y024206D01*
X029093Y024074D01*
X030153Y023813D01*
X031174Y023426D01*
X032141Y022918D01*
X033039Y022298D01*
X033856Y021574D01*
X034580Y020757D01*
X028172Y020757D01*
X028172Y020599D02*
X034690Y020599D01*
X034580Y020757D02*
X035201Y019858D01*
X035708Y018892D01*
X036095Y017871D01*
X036357Y016811D01*
X036488Y015727D01*
X036505Y015181D01*
X036505Y010884D01*
X036505Y010884D01*
X036505Y010809D01*
X036489Y010263D01*
X036358Y009177D01*
X036098Y008116D01*
X035711Y007093D01*
X035204Y006125D01*
X034584Y005225D01*
X033860Y004406D01*
X033043Y003680D01*
X032144Y003058D01*
X031177Y002549D01*
X030155Y002161D01*
X029094Y001898D01*
X028009Y001765D01*
X027463Y001748D01*
X016912Y001748D01*
X016625Y001655D01*
X016381Y001477D01*
X016204Y001233D01*
X016111Y000947D01*
X016111Y000796D01*
X016104Y000722D01*
X016047Y000587D01*
X015943Y000483D01*
X015808Y000426D01*
X015734Y000419D01*
X014864Y000419D01*
X014714Y000429D01*
X014424Y000506D01*
X014164Y000656D01*
X013952Y000868D01*
X013802Y001128D01*
X013725Y001418D01*
X013715Y001568D01*
X013715Y001642D01*
X013610Y001748D01*
X008171Y001748D01*
X007706Y001764D01*
X006786Y001897D01*
X005895Y002158D01*
X005050Y002544D01*
X004268Y003047D01*
X003950Y003322D02*
X012190Y003322D01*
X012046Y003481D02*
X003767Y003481D01*
X003584Y003639D02*
X011902Y003639D01*
X011759Y003798D02*
X003442Y003798D01*
X003305Y003956D02*
X011615Y003956D01*
X011471Y004115D02*
X003168Y004115D01*
X003030Y004273D02*
X011327Y004273D01*
X011287Y004317D02*
X012987Y002445D01*
X013046Y002378D01*
X013048Y002378D01*
X013050Y002376D01*
X013139Y002372D01*
X015709Y002200D01*
X015714Y002196D01*
X015800Y002194D01*
X015885Y002189D01*
X015890Y002193D01*
X016941Y002176D01*
X016963Y002161D01*
X017029Y002174D01*
X017097Y002173D01*
X017116Y002192D01*
X017998Y002368D01*
X018071Y002370D01*
X018085Y002385D01*
X018107Y002390D01*
X018147Y002450D01*
X018196Y002502D01*
X018196Y002523D01*
X018208Y002541D01*
X018193Y002612D01*
X018188Y002815D01*
X018201Y002820D01*
X018325Y002944D01*
X018392Y003105D01*
X018392Y003881D01*
X018325Y004042D01*
X018201Y004166D01*
X018039Y004233D01*
X017864Y004233D01*
X017702Y004166D01*
X017579Y004042D01*
X017512Y003881D01*
X017512Y003105D01*
X017579Y002944D01*
X017702Y002820D01*
X017749Y002801D01*
X017750Y002767D01*
X016989Y002615D01*
X015818Y002634D01*
X013254Y002805D01*
X011571Y004658D01*
X011110Y005312D01*
X009776Y007411D01*
X009257Y008301D01*
X009218Y013896D01*
X009659Y014319D01*
X009927Y014556D01*
X010385Y014556D01*
X010391Y014542D01*
X010515Y014418D01*
X010677Y014351D01*
X011452Y014351D01*
X011613Y014418D01*
X011737Y014542D01*
X011804Y014704D01*
X011804Y014879D01*
X011737Y015041D01*
X011613Y015164D01*
X011452Y015231D01*
X010677Y015231D01*
X010515Y015164D01*
X010391Y015041D01*
X010373Y014996D01*
X009851Y014996D01*
X009767Y015002D01*
X009761Y014996D01*
X009753Y014996D01*
X009693Y014937D01*
X009428Y014703D01*
X009423Y014703D01*
X009360Y014643D01*
X009296Y014586D01*
X009295Y014580D01*
X008908Y014208D01*
X008905Y014208D01*
X008843Y014146D01*
X008779Y014084D01*
X008779Y014081D01*
X008777Y014079D01*
X008778Y013990D01*
X008776Y013902D01*
X008778Y013900D01*
X008817Y008269D01*
X008801Y008209D01*
X008817Y008181D01*
X008818Y008148D01*
X008862Y008105D01*
X009355Y007260D01*
X009354Y007255D01*
X009400Y007182D01*
X009444Y007107D01*
X009449Y007105D01*
X010696Y005144D01*
X010694Y005137D01*
X010744Y005067D01*
X010790Y004995D01*
X010796Y004994D01*
X011176Y004456D01*
X011175Y004440D01*
X011227Y004383D01*
X011272Y004319D01*
X011287Y004317D01*
X011183Y004432D02*
X002909Y004432D01*
X002808Y004590D02*
X011081Y004590D01*
X010969Y004749D02*
X002706Y004749D01*
X002604Y004907D02*
X010857Y004907D01*
X010745Y005066D02*
X002502Y005066D01*
X002416Y005224D02*
X010644Y005224D01*
X010544Y005383D02*
X002344Y005383D01*
X002271Y005541D02*
X010443Y005541D01*
X010342Y005700D02*
X002199Y005700D01*
X002126Y005858D02*
X010241Y005858D01*
X010141Y006017D02*
X002059Y006017D01*
X002013Y006175D02*
X010040Y006175D01*
X009939Y006334D02*
X001966Y006334D01*
X001920Y006492D02*
X009838Y006492D01*
X009738Y006651D02*
X001873Y006651D01*
X001827Y006809D02*
X009637Y006809D01*
X009536Y006968D02*
X001794Y006968D01*
X001771Y007126D02*
X009433Y007126D01*
X009340Y007285D02*
X001748Y007285D01*
X001725Y007443D02*
X009248Y007443D01*
X009155Y007602D02*
X001703Y007602D01*
X001680Y007760D02*
X009063Y007760D01*
X008970Y007919D02*
X001670Y007919D01*
X001665Y008077D02*
X008878Y008077D01*
X008808Y008236D02*
X001659Y008236D01*
X001599Y008394D02*
X008816Y008394D01*
X008815Y008553D02*
X001581Y008553D01*
X001584Y008711D02*
X008814Y008711D01*
X008813Y008870D02*
X001587Y008870D01*
X001589Y009028D02*
X008812Y009028D01*
X008811Y009187D02*
X001592Y009187D01*
X001595Y009345D02*
X008809Y009345D01*
X008808Y009504D02*
X001597Y009504D01*
X001600Y009662D02*
X008807Y009662D01*
X008806Y009821D02*
X001603Y009821D01*
X001605Y009979D02*
X008805Y009979D01*
X008804Y010138D02*
X001608Y010138D01*
X001611Y010296D02*
X008803Y010296D01*
X008802Y010455D02*
X001613Y010455D01*
X001616Y010613D02*
X008801Y010613D01*
X008800Y010772D02*
X001618Y010772D01*
X001621Y010930D02*
X008799Y010930D01*
X008797Y011089D02*
X001624Y011089D01*
X001626Y011247D02*
X008796Y011247D01*
X008795Y011406D02*
X001629Y011406D01*
X001632Y011564D02*
X008794Y011564D01*
X008793Y011723D02*
X001634Y011723D01*
X001637Y011881D02*
X008792Y011881D01*
X008791Y012040D02*
X001640Y012040D01*
X001642Y012198D02*
X008790Y012198D01*
X008789Y012357D02*
X001845Y012357D01*
X002003Y012515D02*
X008788Y012515D01*
X008787Y012674D02*
X002075Y012674D01*
X002137Y012832D02*
X008786Y012832D01*
X008784Y012991D02*
X002137Y012991D01*
X002136Y013149D02*
X008783Y013149D01*
X008782Y013308D02*
X002071Y013308D01*
X001992Y013466D02*
X008781Y013466D01*
X008780Y013625D02*
X001833Y013625D01*
X001517Y013783D02*
X008779Y013783D01*
X008777Y013942D02*
X001441Y013942D01*
X001424Y014100D02*
X008796Y014100D01*
X008961Y014259D02*
X001406Y014259D01*
X001389Y014417D02*
X009125Y014417D01*
X009290Y014576D02*
X001372Y014576D01*
X001368Y014734D02*
X009464Y014734D01*
X009643Y014893D02*
X001364Y014893D01*
X001360Y015051D02*
X010402Y015051D01*
X010624Y015210D02*
X001356Y015210D01*
X001352Y015368D02*
X010636Y015368D01*
X010677Y015351D02*
X010515Y015418D01*
X010391Y015542D01*
X010324Y015704D01*
X010324Y015879D01*
X010391Y016041D01*
X010515Y016164D01*
X010677Y016231D01*
X011452Y016231D01*
X011613Y016164D01*
X011737Y016041D01*
X011804Y015879D01*
X011804Y015704D01*
X011737Y015542D01*
X011613Y015418D01*
X011452Y015351D01*
X010677Y015351D01*
X010407Y015527D02*
X001348Y015527D01*
X001357Y015685D02*
X010332Y015685D01*
X010324Y015844D02*
X001366Y015844D01*
X001375Y016002D02*
X010375Y016002D01*
X010511Y016161D02*
X001384Y016161D01*
X001393Y016319D02*
X010677Y016319D01*
X010652Y016323D02*
X010726Y016311D01*
X011044Y016311D01*
X011044Y016771D01*
X011084Y016771D01*
X011084Y016311D01*
X011402Y016311D01*
X011477Y016323D01*
X011548Y016347D01*
X011616Y016381D01*
X011677Y016425D01*
X011730Y016479D01*
X011775Y016540D01*
X011809Y016607D01*
X011832Y016679D01*
X011844Y016754D01*
X011844Y016771D01*
X011084Y016771D01*
X011084Y016811D01*
X011844Y016811D01*
X011844Y016829D01*
X011832Y016904D01*
X011809Y016976D01*
X011775Y017043D01*
X011730Y017104D01*
X011677Y017158D01*
X011616Y017202D01*
X011548Y017236D01*
X011477Y017260D01*
X011402Y017271D01*
X011084Y017271D01*
X011084Y016811D01*
X011044Y016811D01*
X011044Y016771D01*
X010284Y016771D01*
X010284Y016754D01*
X010296Y016679D01*
X010319Y016607D01*
X010354Y016540D01*
X010398Y016479D01*
X010451Y016425D01*
X010513Y016381D01*
X010580Y016347D01*
X010652Y016323D01*
X010399Y016478D02*
X001403Y016478D01*
X001425Y016636D02*
X010310Y016636D01*
X010284Y016811D02*
X011044Y016811D01*
X011044Y017271D01*
X010726Y017271D01*
X010652Y017260D01*
X010580Y017236D01*
X010513Y017202D01*
X010451Y017158D01*
X010398Y017104D01*
X010354Y017043D01*
X010319Y016976D01*
X010296Y016904D01*
X010284Y016829D01*
X010284Y016811D01*
X010312Y016953D02*
X001470Y016953D01*
X001448Y016795D02*
X011044Y016795D01*
X011084Y016795D02*
X012936Y016795D01*
X012960Y016811D02*
X012902Y016771D01*
X012898Y016749D01*
X012882Y016733D01*
X012882Y016661D01*
X012869Y016592D01*
X012882Y016573D01*
X012882Y014077D01*
X012543Y013061D01*
X011716Y013061D01*
X011613Y013164D01*
X011452Y013231D01*
X010677Y013231D01*
X010515Y013164D01*
X010391Y013041D01*
X010324Y012879D01*
X010324Y012704D01*
X010391Y012542D01*
X010515Y012418D01*
X010677Y012351D01*
X011452Y012351D01*
X011613Y012418D01*
X011737Y012542D01*
X011770Y012621D01*
X012666Y012621D01*
X012718Y012604D01*
X012754Y012621D01*
X012793Y012621D01*
X012832Y012661D01*
X012881Y012685D01*
X012894Y012723D01*
X012922Y012750D01*
X012922Y012806D01*
X013294Y013923D01*
X013322Y013950D01*
X013322Y014006D01*
X013339Y014058D01*
X013322Y014093D01*
X013322Y016526D01*
X016061Y018415D01*
X016072Y018414D01*
X016135Y018466D01*
X016201Y018512D01*
X016204Y018523D01*
X016212Y018531D01*
X016220Y018612D01*
X016234Y018691D01*
X016228Y018701D01*
X016508Y021781D01*
X016601Y021820D01*
X016725Y021944D01*
X016792Y022105D01*
X016792Y022881D01*
X016725Y023042D01*
X016601Y023166D01*
X016439Y023233D01*
X016264Y023233D01*
X016102Y023166D01*
X015979Y023042D01*
X015912Y022881D01*
X015912Y022105D01*
X015979Y021944D01*
X016072Y021850D01*
X015792Y018764D01*
X013033Y016861D01*
X013010Y016861D01*
X012960Y016811D01*
X012877Y016636D02*
X011818Y016636D01*
X011729Y016478D02*
X012882Y016478D01*
X012882Y016319D02*
X011451Y016319D01*
X011617Y016161D02*
X012882Y016161D01*
X012882Y016002D02*
X011753Y016002D01*
X011804Y015844D02*
X012882Y015844D01*
X012882Y015685D02*
X011796Y015685D01*
X011722Y015527D02*
X012882Y015527D01*
X012882Y015368D02*
X011492Y015368D01*
X011504Y015210D02*
X012882Y015210D01*
X012882Y015051D02*
X011727Y015051D01*
X011798Y014893D02*
X012882Y014893D01*
X012882Y014734D02*
X011804Y014734D01*
X011751Y014576D02*
X012882Y014576D01*
X012882Y014417D02*
X011610Y014417D01*
X011452Y014231D02*
X010677Y014231D01*
X010515Y014164D01*
X010391Y014041D01*
X010379Y014011D01*
X010239Y014011D01*
X010175Y014026D01*
X010151Y014011D01*
X010123Y014011D01*
X010076Y013965D01*
X009751Y013761D01*
X009723Y013761D01*
X009676Y013715D01*
X009620Y013680D01*
X009614Y013652D01*
X009594Y013633D01*
X009594Y013566D01*
X009579Y013502D01*
X009594Y013478D01*
X009594Y010091D01*
X009576Y010053D01*
X009594Y010003D01*
X009594Y009950D01*
X009624Y009921D01*
X010094Y008603D01*
X010094Y008550D01*
X010124Y008521D01*
X010138Y008482D01*
X010186Y008459D01*
X010223Y008421D01*
X010265Y008421D01*
X010302Y008404D01*
X010352Y008421D01*
X010882Y008421D01*
X010933Y008370D01*
X011051Y008321D01*
X011178Y008321D01*
X011295Y008370D01*
X011385Y008460D01*
X011434Y008578D01*
X011434Y008705D01*
X011385Y008823D01*
X011295Y008913D01*
X011178Y008961D01*
X011051Y008961D01*
X010933Y008913D01*
X010882Y008861D01*
X010469Y008861D01*
X010034Y010080D01*
X010034Y013419D01*
X010277Y013571D01*
X010379Y013571D01*
X010391Y013542D01*
X010515Y013418D01*
X010677Y013351D01*
X011452Y013351D01*
X011613Y013418D01*
X011737Y013542D01*
X011804Y013704D01*
X011804Y013879D01*
X011737Y014041D01*
X011613Y014164D01*
X011452Y014231D01*
X011678Y014100D02*
X012882Y014100D01*
X012882Y014259D02*
X009595Y014259D01*
X009431Y014100D02*
X010451Y014100D01*
X010518Y014417D02*
X009769Y014417D01*
X009509Y014481D02*
X008998Y013989D01*
X009037Y008241D01*
X009588Y007296D01*
X010927Y005190D01*
X011399Y004521D01*
X013151Y002591D01*
X015809Y002414D01*
X017009Y002395D01*
X017974Y002587D01*
X017952Y003493D01*
X018392Y003481D02*
X018932Y003481D01*
X018932Y003473D02*
X018472Y003473D01*
X018472Y003155D01*
X018483Y003081D01*
X018507Y003009D01*
X018541Y002941D01*
X018585Y002880D01*
X018639Y002827D01*
X018700Y002782D01*
X018767Y002748D01*
X018839Y002725D01*
X018914Y002713D01*
X018932Y002713D01*
X018932Y003473D01*
X018972Y003473D01*
X018972Y003513D01*
X019432Y003513D01*
X019432Y003831D01*
X019420Y003905D01*
X019396Y003977D01*
X019362Y004045D01*
X019318Y004106D01*
X019264Y004159D01*
X019203Y004204D01*
X019136Y004238D01*
X019064Y004261D01*
X018989Y004273D01*
X018972Y004273D01*
X018972Y003513D01*
X018932Y003513D01*
X018932Y004273D01*
X018914Y004273D01*
X018839Y004261D01*
X018767Y004238D01*
X018700Y004204D01*
X018639Y004159D01*
X018585Y004106D01*
X018541Y004045D01*
X018507Y003977D01*
X018483Y003905D01*
X018472Y003831D01*
X018472Y003513D01*
X018932Y003513D01*
X018932Y003473D01*
X018972Y003473D02*
X018972Y002713D01*
X018989Y002713D01*
X019064Y002725D01*
X019136Y002748D01*
X019203Y002782D01*
X019264Y002827D01*
X019318Y002880D01*
X019362Y002941D01*
X019396Y003009D01*
X019420Y003081D01*
X019432Y003155D01*
X019432Y003473D01*
X018972Y003473D01*
X018972Y003481D02*
X019932Y003481D01*
X019932Y003473D02*
X019472Y003473D01*
X019472Y003155D01*
X019483Y003081D01*
X019507Y003009D01*
X019541Y002941D01*
X019585Y002880D01*
X019639Y002827D01*
X019700Y002782D01*
X019767Y002748D01*
X019839Y002725D01*
X019914Y002713D01*
X019932Y002713D01*
X019932Y003473D01*
X019972Y003473D01*
X019972Y003513D01*
X020432Y003513D01*
X020432Y003831D01*
X020420Y003905D01*
X020396Y003977D01*
X020362Y004045D01*
X020318Y004106D01*
X020264Y004159D01*
X020203Y004204D01*
X020136Y004238D01*
X020064Y004261D01*
X019989Y004273D01*
X019972Y004273D01*
X019972Y003513D01*
X019932Y003513D01*
X019932Y004273D01*
X019914Y004273D01*
X019839Y004261D01*
X019767Y004238D01*
X019700Y004204D01*
X019639Y004159D01*
X019585Y004106D01*
X019541Y004045D01*
X019507Y003977D01*
X019483Y003905D01*
X019472Y003831D01*
X019472Y003513D01*
X019932Y003513D01*
X019932Y003473D01*
X019972Y003473D02*
X019972Y002713D01*
X019989Y002713D01*
X020064Y002725D01*
X020136Y002748D01*
X020203Y002782D01*
X020264Y002827D01*
X020318Y002880D01*
X020362Y002941D01*
X020396Y003009D01*
X020420Y003081D01*
X020432Y003155D01*
X020432Y003473D01*
X019972Y003473D01*
X019972Y003481D02*
X020512Y003481D01*
X020512Y003639D02*
X020432Y003639D01*
X020432Y003798D02*
X020512Y003798D01*
X020512Y003881D02*
X020512Y003105D01*
X020579Y002944D01*
X020702Y002820D01*
X020864Y002753D01*
X021039Y002753D01*
X021201Y002820D01*
X021325Y002944D01*
X021392Y003105D01*
X021392Y003881D01*
X021325Y004042D01*
X021219Y004148D01*
X021225Y004717D01*
X021821Y005048D01*
X027120Y005048D01*
X027216Y005088D01*
X027289Y005161D01*
X028076Y005948D01*
X028116Y006044D01*
X028116Y012308D01*
X028643Y013011D01*
X029085Y013453D01*
X029101Y013453D01*
X029218Y013501D01*
X029308Y013591D01*
X029357Y013709D01*
X029357Y013836D01*
X029308Y013954D01*
X029218Y014044D01*
X029101Y014093D01*
X028973Y014093D01*
X028856Y014044D01*
X028766Y013954D01*
X028717Y013836D01*
X028717Y013820D01*
X028286Y013389D01*
X028269Y013379D01*
X028250Y013353D01*
X028226Y013329D01*
X028219Y013312D01*
X027659Y012565D01*
X027635Y012542D01*
X027628Y012524D01*
X027617Y012509D01*
X027609Y012477D01*
X027596Y012446D01*
X027596Y012427D01*
X027591Y012409D01*
X027596Y012376D01*
X027596Y006203D01*
X026961Y005568D01*
X021790Y005568D01*
X021775Y005572D01*
X021739Y005568D01*
X021702Y005568D01*
X021688Y005562D01*
X021673Y005560D01*
X021640Y005542D01*
X021606Y005528D01*
X021595Y005518D01*
X020854Y005106D01*
X020821Y005093D01*
X020809Y005081D01*
X020795Y005073D01*
X020773Y005045D01*
X020747Y005021D01*
X020741Y005005D01*
X020730Y004992D01*
X020721Y004958D01*
X020707Y004925D01*
X020707Y004909D01*
X020702Y004893D01*
X020706Y004857D01*
X020699Y004162D01*
X020579Y004042D01*
X020512Y003881D01*
X020543Y003956D02*
X020403Y003956D01*
X020309Y004115D02*
X020651Y004115D01*
X020700Y004273D02*
X016172Y004273D01*
X016172Y004178D02*
X016172Y006082D01*
X016839Y007157D01*
X017524Y007499D01*
X025692Y007499D01*
X025732Y007481D01*
X025780Y007499D01*
X025831Y007499D01*
X025862Y007530D01*
X026133Y007632D01*
X026142Y007629D01*
X026218Y007664D01*
X026296Y007693D01*
X026300Y007701D01*
X026307Y007704D01*
X026337Y007783D01*
X026371Y007859D01*
X026368Y007867D01*
X026405Y007966D01*
X026462Y007989D01*
X026552Y008079D01*
X026601Y008197D01*
X026601Y008324D01*
X026552Y008442D01*
X026462Y008532D01*
X026345Y008581D01*
X026217Y008581D01*
X026100Y008532D01*
X026010Y008442D01*
X025961Y008324D01*
X025961Y008197D01*
X025993Y008120D01*
X025963Y008038D01*
X025700Y007939D01*
X017508Y007939D01*
X017455Y007957D01*
X017420Y007939D01*
X017381Y007939D01*
X017342Y007900D01*
X016609Y007534D01*
X016546Y007519D01*
X016531Y007495D01*
X016505Y007482D01*
X016484Y007420D01*
X015778Y006282D01*
X015732Y006236D01*
X015732Y006207D01*
X015717Y006183D01*
X015732Y006119D01*
X015732Y004178D01*
X015702Y004166D01*
X015579Y004042D01*
X015512Y003881D01*
X015512Y003105D01*
X015579Y002944D01*
X015702Y002820D01*
X015864Y002753D01*
X016039Y002753D01*
X016201Y002820D01*
X016325Y002944D01*
X016392Y003105D01*
X016392Y003881D01*
X016325Y004042D01*
X016201Y004166D01*
X016172Y004178D01*
X016252Y004115D02*
X016651Y004115D01*
X016702Y004166D02*
X016579Y004042D01*
X016512Y003881D01*
X016512Y003105D01*
X016579Y002944D01*
X016702Y002820D01*
X016864Y002753D01*
X017039Y002753D01*
X017201Y002820D01*
X017325Y002944D01*
X017392Y003105D01*
X017392Y003881D01*
X017325Y004042D01*
X017201Y004166D01*
X017039Y004233D01*
X016864Y004233D01*
X016702Y004166D01*
X016543Y003956D02*
X016360Y003956D01*
X016392Y003798D02*
X016512Y003798D01*
X016512Y003639D02*
X016392Y003639D01*
X016392Y003481D02*
X016512Y003481D01*
X016512Y003322D02*
X016392Y003322D01*
X016392Y003164D02*
X016512Y003164D01*
X016553Y003005D02*
X016350Y003005D01*
X016227Y002847D02*
X016676Y002847D01*
X017227Y002847D02*
X017676Y002847D01*
X017553Y003005D02*
X017350Y003005D01*
X017392Y003164D02*
X017512Y003164D01*
X017512Y003322D02*
X017392Y003322D01*
X017392Y003481D02*
X017512Y003481D01*
X017512Y003639D02*
X017392Y003639D01*
X017392Y003798D02*
X017512Y003798D01*
X017543Y003956D02*
X017360Y003956D01*
X017252Y004115D02*
X017651Y004115D01*
X018252Y004115D02*
X018594Y004115D01*
X018500Y003956D02*
X018360Y003956D01*
X018392Y003798D02*
X018472Y003798D01*
X018472Y003639D02*
X018392Y003639D01*
X018392Y003322D02*
X018472Y003322D01*
X018472Y003164D02*
X018392Y003164D01*
X018350Y003005D02*
X018509Y003005D01*
X018619Y002847D02*
X018227Y002847D01*
X018192Y002688D02*
X031441Y002688D01*
X031742Y002847D02*
X028227Y002847D01*
X028201Y002820D02*
X028325Y002944D01*
X028392Y003105D01*
X028392Y003881D01*
X028325Y004042D01*
X028201Y004166D01*
X028039Y004233D01*
X027864Y004233D01*
X027702Y004166D01*
X027579Y004042D01*
X027512Y003881D01*
X027512Y003105D01*
X027579Y002944D01*
X027702Y002820D01*
X027864Y002753D01*
X028039Y002753D01*
X028201Y002820D01*
X028350Y003005D02*
X032043Y003005D01*
X032296Y003164D02*
X028392Y003164D01*
X028392Y003322D02*
X032526Y003322D01*
X032755Y003481D02*
X028392Y003481D01*
X028392Y003639D02*
X032984Y003639D01*
X033175Y003798D02*
X028392Y003798D01*
X028360Y003956D02*
X033354Y003956D01*
X033532Y004115D02*
X028252Y004115D01*
X027651Y004115D02*
X027252Y004115D01*
X027201Y004166D02*
X027325Y004042D01*
X027392Y003881D01*
X027392Y003105D01*
X027325Y002944D01*
X027201Y002820D01*
X027039Y002753D01*
X026864Y002753D01*
X026702Y002820D01*
X026579Y002944D01*
X026512Y003105D01*
X026512Y003881D01*
X026579Y004042D01*
X026702Y004166D01*
X026864Y004233D01*
X027039Y004233D01*
X027201Y004166D01*
X027360Y003956D02*
X027543Y003956D01*
X027512Y003798D02*
X027392Y003798D01*
X027392Y003639D02*
X027512Y003639D01*
X027512Y003481D02*
X027392Y003481D01*
X027392Y003322D02*
X027512Y003322D01*
X027512Y003164D02*
X027392Y003164D01*
X027350Y003005D02*
X027553Y003005D01*
X027676Y002847D02*
X027227Y002847D01*
X026676Y002847D02*
X026227Y002847D01*
X026201Y002820D02*
X026325Y002944D01*
X026392Y003105D01*
X026392Y003881D01*
X026325Y004042D01*
X026201Y004166D01*
X026039Y004233D01*
X025864Y004233D01*
X025702Y004166D01*
X025579Y004042D01*
X025512Y003881D01*
X025512Y003105D01*
X025579Y002944D01*
X025702Y002820D01*
X025864Y002753D01*
X026039Y002753D01*
X026201Y002820D01*
X026350Y003005D02*
X026553Y003005D01*
X026512Y003164D02*
X026392Y003164D01*
X026392Y003322D02*
X026512Y003322D01*
X026512Y003481D02*
X026392Y003481D01*
X026392Y003639D02*
X026512Y003639D01*
X026512Y003798D02*
X026392Y003798D01*
X026360Y003956D02*
X026543Y003956D01*
X026651Y004115D02*
X026252Y004115D01*
X025651Y004115D02*
X025252Y004115D01*
X025201Y004166D02*
X025325Y004042D01*
X025392Y003881D01*
X025392Y003105D01*
X025325Y002944D01*
X025201Y002820D01*
X025039Y002753D01*
X024864Y002753D01*
X024702Y002820D01*
X024579Y002944D01*
X024512Y003105D01*
X024512Y003881D01*
X024579Y004042D01*
X024702Y004166D01*
X024864Y004233D01*
X025039Y004233D01*
X025201Y004166D01*
X025360Y003956D02*
X025543Y003956D01*
X025512Y003798D02*
X025392Y003798D01*
X025392Y003639D02*
X025512Y003639D01*
X025512Y003481D02*
X025392Y003481D01*
X025392Y003322D02*
X025512Y003322D01*
X025512Y003164D02*
X025392Y003164D01*
X025350Y003005D02*
X025553Y003005D01*
X025676Y002847D02*
X025227Y002847D01*
X024676Y002847D02*
X024227Y002847D01*
X024201Y002820D02*
X024325Y002944D01*
X024392Y003105D01*
X024392Y003881D01*
X024325Y004042D01*
X024201Y004166D01*
X024039Y004233D01*
X023864Y004233D01*
X023702Y004166D01*
X023579Y004042D01*
X023512Y003881D01*
X023512Y003105D01*
X023579Y002944D01*
X023702Y002820D01*
X023864Y002753D01*
X024039Y002753D01*
X024201Y002820D01*
X024350Y003005D02*
X024553Y003005D01*
X024512Y003164D02*
X024392Y003164D01*
X024392Y003322D02*
X024512Y003322D01*
X024512Y003481D02*
X024392Y003481D01*
X024392Y003639D02*
X024512Y003639D01*
X024512Y003798D02*
X024392Y003798D01*
X024360Y003956D02*
X024543Y003956D01*
X024651Y004115D02*
X024252Y004115D01*
X023651Y004115D02*
X023252Y004115D01*
X023201Y004166D02*
X023325Y004042D01*
X023392Y003881D01*
X023392Y003105D01*
X023325Y002944D01*
X023201Y002820D01*
X023039Y002753D01*
X022864Y002753D01*
X022702Y002820D01*
X022579Y002944D01*
X022512Y003105D01*
X022512Y003881D01*
X022579Y004042D01*
X022702Y004166D01*
X022864Y004233D01*
X023039Y004233D01*
X023201Y004166D01*
X023360Y003956D02*
X023543Y003956D01*
X023512Y003798D02*
X023392Y003798D01*
X023392Y003639D02*
X023512Y003639D01*
X023512Y003481D02*
X023392Y003481D01*
X023392Y003322D02*
X023512Y003322D01*
X023512Y003164D02*
X023392Y003164D01*
X023350Y003005D02*
X023553Y003005D01*
X023676Y002847D02*
X023227Y002847D01*
X022676Y002847D02*
X021227Y002847D01*
X021350Y003005D02*
X022553Y003005D01*
X022512Y003164D02*
X021392Y003164D01*
X021392Y003322D02*
X022512Y003322D01*
X022512Y003481D02*
X021392Y003481D01*
X021392Y003639D02*
X022512Y003639D01*
X022512Y003798D02*
X021392Y003798D01*
X021360Y003956D02*
X022543Y003956D01*
X022651Y004115D02*
X021252Y004115D01*
X021220Y004273D02*
X033711Y004273D01*
X033883Y004432D02*
X021222Y004432D01*
X021223Y004590D02*
X034023Y004590D01*
X034163Y004749D02*
X021282Y004749D01*
X021567Y004907D02*
X034304Y004907D01*
X034444Y005066D02*
X027163Y005066D01*
X027352Y005224D02*
X034584Y005224D01*
X034693Y005383D02*
X027511Y005383D01*
X027669Y005541D02*
X034802Y005541D01*
X034911Y005700D02*
X027828Y005700D01*
X027986Y005858D02*
X035021Y005858D01*
X035130Y006017D02*
X028105Y006017D01*
X028116Y006175D02*
X035231Y006175D01*
X035314Y006334D02*
X028116Y006334D01*
X028116Y006492D02*
X035396Y006492D01*
X035479Y006651D02*
X028116Y006651D01*
X028116Y006809D02*
X035562Y006809D01*
X035645Y006968D02*
X028116Y006968D01*
X028116Y007126D02*
X035724Y007126D01*
X035784Y007285D02*
X028116Y007285D01*
X028116Y007443D02*
X035843Y007443D01*
X035903Y007602D02*
X028116Y007602D01*
X028116Y007760D02*
X035963Y007760D01*
X036023Y007919D02*
X028116Y007919D01*
X028116Y008077D02*
X036083Y008077D01*
X036127Y008236D02*
X028116Y008236D01*
X028116Y008394D02*
X036166Y008394D01*
X036205Y008553D02*
X028116Y008553D01*
X028116Y008711D02*
X036244Y008711D01*
X036283Y008870D02*
X028116Y008870D01*
X028116Y009028D02*
X036322Y009028D01*
X036359Y009187D02*
X028116Y009187D01*
X028116Y009345D02*
X036378Y009345D01*
X036397Y009504D02*
X028116Y009504D01*
X028116Y009662D02*
X036416Y009662D01*
X036436Y009821D02*
X028116Y009821D01*
X028116Y009979D02*
X035156Y009979D01*
X035113Y009997D02*
X035397Y009879D01*
X035705Y009879D01*
X035989Y009997D01*
X036206Y010215D01*
X036324Y010499D01*
X036324Y010806D01*
X036206Y011090D01*
X035989Y011308D01*
X035705Y011426D01*
X035397Y011426D01*
X035113Y011308D01*
X035078Y011273D01*
X035116Y011347D01*
X035142Y011429D01*
X035156Y011515D01*
X035156Y011548D01*
X034616Y011548D01*
X034616Y011568D01*
X035156Y011568D01*
X035156Y011601D01*
X035142Y011687D01*
X035116Y011769D01*
X035076Y011846D01*
X035025Y011916D01*
X034964Y011977D01*
X034894Y012028D01*
X034860Y012046D01*
X034895Y012060D01*
X035038Y012203D01*
X035116Y012391D01*
X035116Y012594D01*
X035038Y012781D01*
X034895Y012925D01*
X034867Y012936D01*
X034895Y012947D01*
X035038Y013091D01*
X035116Y013278D01*
X035116Y013481D01*
X035038Y013668D01*
X034895Y013812D01*
X034811Y013847D01*
X034895Y013882D01*
X035038Y014025D01*
X035116Y014212D01*
X035116Y014415D01*
X035038Y014603D01*
X034895Y014746D01*
X034707Y014824D01*
X034504Y014824D01*
X034317Y014746D01*
X034174Y014603D01*
X034096Y014415D01*
X034096Y014212D01*
X034174Y014025D01*
X034317Y013882D01*
X034401Y013847D01*
X034317Y013812D01*
X034174Y013668D01*
X034096Y013481D01*
X034096Y013278D01*
X034174Y013091D01*
X034317Y012947D01*
X034344Y012936D01*
X034317Y012925D01*
X034174Y012781D01*
X034096Y012594D01*
X034096Y012391D01*
X034174Y012203D01*
X034317Y012060D01*
X034351Y012046D01*
X034318Y012028D01*
X034248Y011977D01*
X034186Y011916D01*
X034136Y011846D01*
X034096Y011769D01*
X034069Y011687D01*
X034056Y011601D01*
X034056Y011568D01*
X034596Y011568D01*
X034596Y011548D01*
X034616Y011548D01*
X034616Y011008D01*
X034649Y011008D01*
X034735Y011021D01*
X034817Y011048D01*
X034894Y011088D01*
X034778Y010806D01*
X034778Y010499D01*
X034895Y010215D01*
X035113Y009997D01*
X034972Y010138D02*
X028116Y010138D01*
X028116Y010296D02*
X034862Y010296D01*
X034796Y010455D02*
X028116Y010455D01*
X028116Y010613D02*
X034778Y010613D01*
X034778Y010772D02*
X028116Y010772D01*
X028116Y010930D02*
X034829Y010930D01*
X034894Y011088D02*
X034894Y011088D01*
X034616Y011089D02*
X034596Y011089D01*
X034596Y011008D02*
X034596Y011548D01*
X034056Y011548D01*
X034056Y011515D01*
X034069Y011429D01*
X034096Y011347D01*
X034136Y011270D01*
X034186Y011200D01*
X034248Y011138D01*
X034318Y011088D01*
X034395Y011048D01*
X034477Y011021D01*
X034563Y011008D01*
X034596Y011008D01*
X034596Y011247D02*
X034616Y011247D01*
X034616Y011406D02*
X034596Y011406D01*
X034596Y011564D02*
X028116Y011564D01*
X028116Y011406D02*
X034077Y011406D01*
X034152Y011247D02*
X028116Y011247D01*
X028116Y011089D02*
X034316Y011089D01*
X034616Y011564D02*
X036505Y011564D01*
X036505Y011406D02*
X035752Y011406D01*
X035669Y011654D02*
X035815Y011714D01*
X035926Y011825D01*
X035987Y011971D01*
X035987Y012129D01*
X035926Y012275D01*
X035815Y012386D01*
X035669Y012447D01*
X035511Y012447D01*
X035366Y012386D01*
X035254Y012275D01*
X035194Y012129D01*
X035194Y011971D01*
X035254Y011825D01*
X035366Y011714D01*
X035511Y011654D01*
X035669Y011654D01*
X035824Y011723D02*
X036505Y011723D01*
X036505Y011881D02*
X035949Y011881D01*
X035987Y012040D02*
X036505Y012040D01*
X036505Y012198D02*
X035958Y012198D01*
X035844Y012357D02*
X036505Y012357D01*
X036505Y012515D02*
X035116Y012515D01*
X035102Y012357D02*
X035336Y012357D01*
X035222Y012198D02*
X035033Y012198D01*
X034872Y012040D02*
X035194Y012040D01*
X035231Y011881D02*
X035051Y011881D01*
X035131Y011723D02*
X035357Y011723D01*
X035349Y011406D02*
X035135Y011406D01*
X036049Y011247D02*
X036505Y011247D01*
X036505Y011089D02*
X036207Y011089D01*
X036273Y010930D02*
X036505Y010930D01*
X036504Y010772D02*
X036324Y010772D01*
X036324Y010613D02*
X036499Y010613D01*
X036494Y010455D02*
X036306Y010455D01*
X036240Y010296D02*
X036490Y010296D01*
X036474Y010138D02*
X036129Y010138D01*
X035945Y009979D02*
X036455Y009979D01*
X034081Y011723D02*
X028116Y011723D01*
X028116Y011881D02*
X034161Y011881D01*
X034340Y012040D02*
X028116Y012040D01*
X028116Y012198D02*
X034179Y012198D01*
X034110Y012357D02*
X028152Y012357D01*
X028271Y012515D02*
X034096Y012515D01*
X034129Y012674D02*
X028390Y012674D01*
X028509Y012832D02*
X034225Y012832D01*
X034274Y012991D02*
X028628Y012991D01*
X028781Y013149D02*
X034149Y013149D01*
X034096Y013308D02*
X028940Y013308D01*
X029134Y013466D02*
X034096Y013466D01*
X034155Y013625D02*
X029322Y013625D01*
X029357Y013783D02*
X034288Y013783D01*
X034257Y013942D02*
X029313Y013942D01*
X028761Y013942D02*
X027531Y013942D01*
X027534Y014100D02*
X034142Y014100D01*
X034096Y014259D02*
X027536Y014259D01*
X027539Y014417D02*
X034097Y014417D01*
X034162Y014576D02*
X027542Y014576D01*
X027545Y014734D02*
X034305Y014734D01*
X034849Y014893D02*
X027548Y014893D01*
X027550Y015051D02*
X034784Y015051D01*
X034778Y015066D02*
X034895Y014781D01*
X035113Y014564D01*
X035397Y014446D01*
X035705Y014446D01*
X035989Y014564D01*
X036206Y014781D01*
X036324Y015066D01*
X036324Y015373D01*
X036206Y015657D01*
X035989Y015875D01*
X035705Y015992D01*
X035397Y015992D01*
X035113Y015875D01*
X034895Y015657D01*
X034778Y015373D01*
X034778Y015066D01*
X034778Y015210D02*
X027553Y015210D01*
X027556Y015368D02*
X034778Y015368D01*
X034841Y015527D02*
X027559Y015527D01*
X027561Y015685D02*
X034923Y015685D01*
X035082Y015844D02*
X027564Y015844D01*
X027567Y016002D02*
X036455Y016002D01*
X036474Y015844D02*
X036020Y015844D01*
X036178Y015685D02*
X036489Y015685D01*
X036494Y015527D02*
X036260Y015527D01*
X036324Y015368D02*
X036499Y015368D01*
X036504Y015210D02*
X036324Y015210D01*
X036318Y015051D02*
X036505Y015051D01*
X036505Y014893D02*
X036252Y014893D01*
X036159Y014734D02*
X036505Y014734D01*
X036505Y014576D02*
X036000Y014576D01*
X036505Y014417D02*
X035115Y014417D01*
X035116Y014259D02*
X036505Y014259D01*
X036505Y014100D02*
X035872Y014100D01*
X035926Y014046D02*
X035815Y014158D01*
X035669Y014218D01*
X035511Y014218D01*
X035366Y014158D01*
X035254Y014046D01*
X035194Y013901D01*
X035194Y013743D01*
X035254Y013597D01*
X035366Y013486D01*
X035511Y013425D01*
X035669Y013425D01*
X035815Y013486D01*
X035926Y013597D01*
X035987Y013743D01*
X035987Y013901D01*
X035926Y014046D01*
X035970Y013942D02*
X036505Y013942D01*
X036505Y013783D02*
X035987Y013783D01*
X035938Y013625D02*
X036505Y013625D01*
X036505Y013466D02*
X035768Y013466D01*
X035412Y013466D02*
X035116Y013466D01*
X035116Y013308D02*
X036505Y013308D01*
X036505Y013149D02*
X035062Y013149D01*
X034938Y012991D02*
X036505Y012991D01*
X036505Y012832D02*
X034987Y012832D01*
X035083Y012674D02*
X036505Y012674D01*
X035243Y013625D02*
X035056Y013625D01*
X034924Y013783D02*
X035194Y013783D01*
X035211Y013942D02*
X034955Y013942D01*
X035069Y014100D02*
X035308Y014100D01*
X035101Y014576D02*
X035049Y014576D01*
X034943Y014734D02*
X034907Y014734D01*
X036435Y016161D02*
X027570Y016161D01*
X027572Y016319D02*
X036416Y016319D01*
X036397Y016478D02*
X027575Y016478D01*
X027578Y016636D02*
X036378Y016636D01*
X036358Y016795D02*
X027581Y016795D01*
X027583Y016953D02*
X036321Y016953D01*
X036282Y017112D02*
X027586Y017112D01*
X027589Y017270D02*
X036243Y017270D01*
X036204Y017429D02*
X027592Y017429D01*
X027594Y017587D02*
X036165Y017587D01*
X036126Y017746D02*
X027597Y017746D01*
X027600Y017904D02*
X036083Y017904D01*
X036022Y018063D02*
X027603Y018063D01*
X027606Y018221D02*
X035962Y018221D01*
X035902Y018380D02*
X027608Y018380D01*
X027611Y018538D02*
X035842Y018538D01*
X035782Y018697D02*
X027614Y018697D01*
X027617Y018855D02*
X035722Y018855D01*
X035644Y019014D02*
X027619Y019014D01*
X027620Y019049D02*
X028172Y019600D01*
X028172Y021808D01*
X028201Y021820D01*
X028325Y021944D01*
X028392Y022105D01*
X028392Y022881D01*
X028325Y023042D01*
X028201Y023166D01*
X028039Y023233D01*
X027864Y023233D01*
X027702Y023166D01*
X027579Y023042D01*
X027512Y022881D01*
X027512Y022105D01*
X027579Y021944D01*
X027702Y021820D01*
X027732Y021808D01*
X027732Y019783D01*
X027247Y019298D01*
X027183Y019236D01*
X027183Y019234D01*
X027182Y019233D01*
X027182Y019143D01*
X027149Y017275D01*
X027169Y021807D01*
X027201Y021820D01*
X027325Y021944D01*
X027392Y022105D01*
X027392Y022881D01*
X027325Y023042D01*
X027201Y023166D01*
X027039Y023233D01*
X026864Y023233D01*
X026702Y023166D01*
X026579Y023042D01*
X026512Y022881D01*
X026512Y022105D01*
X026579Y021944D01*
X026702Y021820D01*
X026729Y021809D01*
X026719Y019536D01*
X026718Y019536D01*
X026684Y019571D01*
X026638Y019571D01*
X026310Y019713D01*
X026162Y019995D01*
X026169Y021807D01*
X026201Y021820D01*
X026325Y021944D01*
X026392Y022105D01*
X026392Y022881D01*
X026325Y023042D01*
X026201Y023166D01*
X026039Y023233D01*
X025864Y023233D01*
X025702Y023166D01*
X025579Y023042D01*
X025512Y022881D01*
X025512Y022105D01*
X025579Y021944D01*
X025702Y021820D01*
X025729Y021809D01*
X025722Y019975D01*
X025704Y019920D01*
X025721Y019888D01*
X025721Y019851D01*
X025762Y019810D01*
X025951Y019449D01*
X025981Y019376D01*
X025993Y019370D01*
X025999Y019358D01*
X026075Y019335D01*
X026371Y019207D01*
X026332Y011998D01*
X026286Y011137D01*
X026110Y010961D01*
X026038Y010961D01*
X025920Y010913D01*
X025830Y010823D01*
X025782Y010705D01*
X025782Y010578D01*
X025830Y010460D01*
X025920Y010370D01*
X026038Y010321D01*
X026165Y010321D01*
X026283Y010370D01*
X026373Y010460D01*
X026422Y010578D01*
X026422Y010650D01*
X026653Y010882D01*
X026673Y010900D01*
X026637Y010645D01*
X026497Y010261D01*
X026034Y010261D01*
X025983Y010313D01*
X025865Y010361D01*
X025738Y010361D01*
X025620Y010313D01*
X025530Y010223D01*
X025482Y010105D01*
X025482Y009978D01*
X025530Y009860D01*
X025620Y009770D01*
X025738Y009721D01*
X025865Y009721D01*
X025983Y009770D01*
X026034Y009821D01*
X026613Y009821D01*
X026662Y009804D01*
X026700Y009821D01*
X026743Y009821D01*
X026780Y009858D01*
X026827Y009881D01*
X026842Y009920D01*
X026872Y009950D01*
X026872Y010003D01*
X027007Y010374D01*
X026905Y009626D01*
X026580Y009561D01*
X025934Y009561D01*
X025883Y009613D01*
X025765Y009661D01*
X025638Y009661D01*
X025520Y009613D01*
X025430Y009523D01*
X025382Y009405D01*
X025382Y009278D01*
X025430Y009160D01*
X025520Y009070D01*
X025638Y009021D01*
X025765Y009021D01*
X025883Y009070D01*
X025934Y009121D01*
X026535Y009121D01*
X026555Y009108D01*
X026623Y009121D01*
X026693Y009121D01*
X026710Y009139D01*
X027108Y009218D01*
X027162Y009211D01*
X027194Y009236D01*
X027234Y009244D01*
X027264Y009289D01*
X027307Y009321D01*
X027313Y009362D01*
X027335Y009395D01*
X027325Y009448D01*
X027459Y010436D01*
X027470Y010446D01*
X027471Y010525D01*
X027482Y010602D01*
X027473Y010614D01*
X027620Y019049D01*
X027743Y019172D02*
X035561Y019172D01*
X035478Y019331D02*
X027902Y019331D01*
X028060Y019489D02*
X035394Y019489D01*
X035311Y019648D02*
X028172Y019648D01*
X028172Y019806D02*
X035228Y019806D01*
X035127Y019965D02*
X028172Y019965D01*
X028172Y020123D02*
X035018Y020123D01*
X034909Y020282D02*
X028172Y020282D01*
X028172Y020440D02*
X034799Y020440D01*
X034440Y020916D02*
X028172Y020916D01*
X028172Y021074D02*
X034299Y021074D01*
X034159Y021233D02*
X028172Y021233D01*
X028172Y021391D02*
X034019Y021391D01*
X033878Y021550D02*
X028172Y021550D01*
X028172Y021708D02*
X033705Y021708D01*
X033526Y021867D02*
X028248Y021867D01*
X028358Y022025D02*
X033347Y022025D01*
X033168Y022184D02*
X028392Y022184D01*
X028392Y022342D02*
X032976Y022342D01*
X032746Y022501D02*
X028392Y022501D01*
X028392Y022659D02*
X032516Y022659D01*
X032287Y022818D02*
X028392Y022818D01*
X028352Y022976D02*
X032031Y022976D01*
X031729Y023135D02*
X028232Y023135D01*
X027671Y023135D02*
X027232Y023135D01*
X027352Y022976D02*
X027551Y022976D01*
X027512Y022818D02*
X027392Y022818D01*
X027392Y022659D02*
X027512Y022659D01*
X027512Y022501D02*
X027392Y022501D01*
X027392Y022342D02*
X027512Y022342D01*
X027512Y022184D02*
X027392Y022184D01*
X027358Y022025D02*
X027545Y022025D01*
X027656Y021867D02*
X027248Y021867D01*
X027168Y021708D02*
X027732Y021708D01*
X027732Y021550D02*
X027167Y021550D01*
X027167Y021391D02*
X027732Y021391D01*
X027732Y021233D02*
X027166Y021233D01*
X027165Y021074D02*
X027732Y021074D01*
X027732Y020916D02*
X027165Y020916D01*
X027164Y020757D02*
X027732Y020757D01*
X027732Y020599D02*
X027163Y020599D01*
X027163Y020440D02*
X027732Y020440D01*
X027732Y020282D02*
X027162Y020282D01*
X027161Y020123D02*
X027732Y020123D01*
X027732Y019965D02*
X027161Y019965D01*
X027160Y019806D02*
X027732Y019806D01*
X027597Y019648D02*
X027159Y019648D01*
X027159Y019489D02*
X027438Y019489D01*
X027280Y019331D02*
X027158Y019331D01*
X027157Y019172D02*
X027182Y019172D01*
X027179Y019014D02*
X027157Y019014D01*
X027156Y018855D02*
X027177Y018855D01*
X027174Y018697D02*
X027155Y018697D01*
X027154Y018538D02*
X027171Y018538D01*
X027154Y018380D02*
X027168Y018380D01*
X027153Y018221D02*
X027165Y018221D01*
X027152Y018063D02*
X027163Y018063D01*
X027152Y017904D02*
X027160Y017904D01*
X027151Y017746D02*
X027157Y017746D01*
X027150Y017587D02*
X027154Y017587D01*
X027150Y017429D02*
X027152Y017429D01*
X026361Y017429D02*
X025000Y017429D01*
X025005Y017587D02*
X026362Y017587D01*
X026363Y017746D02*
X025011Y017746D01*
X025016Y017904D02*
X026364Y017904D01*
X026365Y018063D02*
X025022Y018063D01*
X025027Y018221D02*
X026365Y018221D01*
X026366Y018380D02*
X025032Y018380D01*
X025038Y018538D02*
X026367Y018538D01*
X026368Y018697D02*
X025043Y018697D01*
X025048Y018855D02*
X026369Y018855D01*
X026370Y019014D02*
X025054Y019014D01*
X025059Y019172D02*
X026371Y019172D01*
X026592Y019351D02*
X026552Y011991D01*
X026502Y011041D01*
X026102Y010641D01*
X025809Y010772D02*
X019212Y010772D01*
X019212Y010930D02*
X025962Y010930D01*
X026238Y011089D02*
X019212Y011089D01*
X019212Y011247D02*
X026292Y011247D01*
X026300Y011406D02*
X019106Y011406D01*
X019108Y011391D02*
X019087Y011648D01*
X019093Y011657D01*
X019080Y011738D01*
X019074Y011820D01*
X019066Y011826D01*
X019064Y011837D01*
X018998Y011885D01*
X018935Y011938D01*
X018925Y011937D01*
X018622Y012155D01*
X018618Y012170D01*
X018550Y012208D01*
X018486Y012253D01*
X018471Y012251D01*
X018194Y012404D01*
X018162Y012442D01*
X018118Y012446D01*
X018078Y012468D01*
X018030Y012454D01*
X016006Y012639D01*
X015933Y012713D01*
X015815Y012761D01*
X015688Y012761D01*
X015570Y012713D01*
X015480Y012623D01*
X015432Y012505D01*
X015432Y012378D01*
X015480Y012260D01*
X015570Y012170D01*
X015688Y012121D01*
X015815Y012121D01*
X015933Y012170D01*
X015964Y012201D01*
X017986Y012017D01*
X018314Y011835D01*
X018650Y011593D01*
X018670Y011347D01*
X018632Y011309D01*
X018632Y010593D01*
X018702Y010523D01*
X018702Y009179D01*
X018632Y009109D01*
X018632Y008393D01*
X018714Y008311D01*
X019130Y008311D01*
X019212Y008393D01*
X019212Y009109D01*
X019142Y009179D01*
X019142Y010523D01*
X019212Y010593D01*
X019212Y011309D01*
X019130Y011391D01*
X019108Y011391D01*
X019094Y011564D02*
X026309Y011564D01*
X026317Y011723D02*
X019083Y011723D01*
X019002Y011881D02*
X026325Y011881D01*
X026332Y012040D02*
X018782Y012040D01*
X018567Y012198D02*
X026333Y012198D01*
X026334Y012357D02*
X024250Y012357D01*
X024283Y012370D02*
X024373Y012460D01*
X024422Y012578D01*
X024422Y012705D01*
X024407Y012740D01*
X024827Y013505D01*
X024868Y013543D01*
X024870Y013581D01*
X024888Y013615D01*
X024873Y013669D01*
X025148Y021798D01*
X025201Y021820D01*
X025325Y021944D01*
X025392Y022105D01*
X025392Y022881D01*
X025325Y023042D01*
X025201Y023166D01*
X025039Y023233D01*
X024864Y023233D01*
X024702Y023166D01*
X024579Y023042D01*
X024512Y022881D01*
X024512Y022105D01*
X024579Y021944D01*
X024702Y021820D01*
X024709Y021817D01*
X024433Y013701D01*
X024029Y012966D01*
X023676Y013221D01*
X023765Y013221D01*
X023883Y013270D01*
X023973Y013360D01*
X024022Y013478D01*
X024022Y013605D01*
X023973Y013723D01*
X023922Y013774D01*
X023922Y019383D01*
X024115Y021785D01*
X024201Y021820D01*
X024325Y021944D01*
X024392Y022105D01*
X024392Y022881D01*
X024325Y023042D01*
X024201Y023166D01*
X024039Y023233D01*
X023864Y023233D01*
X023702Y023166D01*
X023579Y023042D01*
X023512Y022881D01*
X023512Y022105D01*
X023579Y021944D01*
X023679Y021844D01*
X023489Y019490D01*
X023482Y019483D01*
X023482Y019400D01*
X023475Y019318D01*
X023482Y019310D01*
X023482Y013774D01*
X023430Y013723D01*
X023382Y013605D01*
X023382Y013478D01*
X023407Y013416D01*
X021345Y014909D01*
X021293Y014961D01*
X021273Y014961D01*
X021257Y014973D01*
X021184Y014961D01*
X019434Y014961D01*
X019383Y015013D01*
X019265Y015061D01*
X019138Y015061D01*
X019020Y015013D01*
X018930Y014923D01*
X018882Y014805D01*
X018882Y014678D01*
X018930Y014560D01*
X019020Y014470D01*
X019138Y014421D01*
X019265Y014421D01*
X019383Y014470D01*
X019434Y014521D01*
X021130Y014521D01*
X023782Y012602D01*
X023782Y012578D01*
X023830Y012460D01*
X023920Y012370D01*
X024038Y012321D01*
X024165Y012321D01*
X024283Y012370D01*
X024396Y012515D02*
X026334Y012515D01*
X026335Y012674D02*
X024422Y012674D01*
X024458Y012832D02*
X026336Y012832D01*
X026337Y012991D02*
X024545Y012991D01*
X024632Y013149D02*
X026338Y013149D01*
X026339Y013308D02*
X024719Y013308D01*
X024806Y013466D02*
X026340Y013466D01*
X026340Y013625D02*
X024886Y013625D01*
X024877Y013783D02*
X026341Y013783D01*
X026342Y013942D02*
X024882Y013942D01*
X024887Y014100D02*
X026343Y014100D01*
X026344Y014259D02*
X024893Y014259D01*
X024898Y014417D02*
X026345Y014417D01*
X026346Y014576D02*
X024903Y014576D01*
X024909Y014734D02*
X026346Y014734D01*
X026347Y014893D02*
X024914Y014893D01*
X024919Y015051D02*
X026348Y015051D01*
X026349Y015210D02*
X024925Y015210D01*
X024930Y015368D02*
X026350Y015368D01*
X026351Y015527D02*
X024936Y015527D01*
X024941Y015685D02*
X026352Y015685D01*
X026353Y015844D02*
X024946Y015844D01*
X024952Y016002D02*
X026353Y016002D01*
X026354Y016161D02*
X024957Y016161D01*
X024962Y016319D02*
X026355Y016319D01*
X026356Y016478D02*
X024968Y016478D01*
X024973Y016636D02*
X026357Y016636D01*
X026358Y016795D02*
X024979Y016795D01*
X024984Y016953D02*
X026359Y016953D01*
X026359Y017112D02*
X024989Y017112D01*
X024995Y017270D02*
X026360Y017270D01*
X024554Y017270D02*
X023922Y017270D01*
X023922Y017112D02*
X024549Y017112D01*
X024544Y016953D02*
X023922Y016953D01*
X023922Y016795D02*
X024538Y016795D01*
X024533Y016636D02*
X023922Y016636D01*
X023922Y016478D02*
X024528Y016478D01*
X024522Y016319D02*
X023922Y016319D01*
X023922Y016161D02*
X024517Y016161D01*
X024511Y016002D02*
X023922Y016002D01*
X023922Y015844D02*
X024506Y015844D01*
X024501Y015685D02*
X023922Y015685D01*
X023922Y015527D02*
X024495Y015527D01*
X024490Y015368D02*
X023922Y015368D01*
X023922Y015210D02*
X024485Y015210D01*
X024479Y015051D02*
X023922Y015051D01*
X023922Y014893D02*
X024474Y014893D01*
X024468Y014734D02*
X023922Y014734D01*
X023922Y014576D02*
X024463Y014576D01*
X024458Y014417D02*
X023922Y014417D01*
X023922Y014259D02*
X024452Y014259D01*
X024447Y014100D02*
X023922Y014100D01*
X023922Y013942D02*
X024442Y013942D01*
X024436Y013783D02*
X023922Y013783D01*
X024013Y013625D02*
X024391Y013625D01*
X024304Y013466D02*
X024017Y013466D01*
X023920Y013308D02*
X024217Y013308D01*
X024130Y013149D02*
X023775Y013149D01*
X023994Y012991D02*
X024043Y012991D01*
X024102Y012641D02*
X021202Y014741D01*
X019202Y014741D01*
X018882Y014734D02*
X018152Y014734D01*
X017969Y014576D02*
X018924Y014576D01*
X018918Y014893D02*
X018335Y014893D01*
X018518Y015051D02*
X019113Y015051D01*
X019290Y015051D02*
X023482Y015051D01*
X023482Y014893D02*
X021368Y014893D01*
X021587Y014734D02*
X023482Y014734D01*
X023482Y014576D02*
X021806Y014576D01*
X022024Y014417D02*
X023482Y014417D01*
X023482Y014259D02*
X022243Y014259D01*
X022462Y014100D02*
X023482Y014100D01*
X023482Y013942D02*
X022681Y013942D01*
X022900Y013783D02*
X023482Y013783D01*
X023390Y013625D02*
X023119Y013625D01*
X023338Y013466D02*
X023386Y013466D01*
X023702Y013541D02*
X023702Y019391D01*
X023952Y022493D01*
X024392Y022501D02*
X024512Y022501D01*
X024512Y022659D02*
X024392Y022659D01*
X024392Y022818D02*
X024512Y022818D01*
X024551Y022976D02*
X024352Y022976D01*
X024232Y023135D02*
X024671Y023135D01*
X025232Y023135D02*
X025671Y023135D01*
X025551Y022976D02*
X025352Y022976D01*
X025392Y022818D02*
X025512Y022818D01*
X025512Y022659D02*
X025392Y022659D01*
X025392Y022501D02*
X025512Y022501D01*
X025512Y022342D02*
X025392Y022342D01*
X025392Y022184D02*
X025512Y022184D01*
X025545Y022025D02*
X025358Y022025D01*
X025248Y021867D02*
X025656Y021867D01*
X025728Y021708D02*
X025145Y021708D01*
X025140Y021550D02*
X025728Y021550D01*
X025727Y021391D02*
X025134Y021391D01*
X025129Y021233D02*
X025727Y021233D01*
X025726Y021074D02*
X025124Y021074D01*
X025118Y020916D02*
X025725Y020916D01*
X025725Y020757D02*
X025113Y020757D01*
X025107Y020599D02*
X025724Y020599D01*
X025724Y020440D02*
X025102Y020440D01*
X025097Y020282D02*
X025723Y020282D01*
X025722Y020123D02*
X025091Y020123D01*
X025086Y019965D02*
X025718Y019965D01*
X025764Y019806D02*
X025081Y019806D01*
X025075Y019648D02*
X025847Y019648D01*
X025931Y019489D02*
X025070Y019489D01*
X025065Y019331D02*
X026085Y019331D01*
X026152Y019541D02*
X025942Y019941D01*
X025952Y022493D01*
X026392Y022501D02*
X026512Y022501D01*
X026512Y022659D02*
X026392Y022659D01*
X026392Y022818D02*
X026512Y022818D01*
X026551Y022976D02*
X026352Y022976D01*
X026232Y023135D02*
X026671Y023135D01*
X026952Y022493D02*
X026902Y010941D01*
X026852Y010591D01*
X026652Y010041D01*
X025802Y010041D01*
X026033Y009821D02*
X026615Y009821D01*
X026699Y009821D02*
X026931Y009821D01*
X026953Y009979D02*
X026872Y009979D01*
X026921Y010138D02*
X026974Y010138D01*
X026978Y010296D02*
X026996Y010296D01*
X027252Y010541D02*
X027102Y009441D01*
X026602Y009341D01*
X025702Y009341D01*
X025382Y009345D02*
X019142Y009345D01*
X019142Y009187D02*
X025419Y009187D01*
X025622Y009028D02*
X019212Y009028D01*
X019212Y008870D02*
X027596Y008870D01*
X027596Y009028D02*
X025782Y009028D01*
X025422Y009504D02*
X019142Y009504D01*
X019142Y009662D02*
X026910Y009662D01*
X027354Y009662D02*
X027596Y009662D01*
X027596Y009504D02*
X027332Y009504D01*
X027310Y009345D02*
X027596Y009345D01*
X027596Y009187D02*
X026950Y009187D01*
X027375Y009821D02*
X027596Y009821D01*
X027596Y009979D02*
X027397Y009979D01*
X027419Y010138D02*
X027596Y010138D01*
X027596Y010296D02*
X027440Y010296D01*
X027470Y010455D02*
X027596Y010455D01*
X027596Y010613D02*
X027473Y010613D01*
X027476Y010772D02*
X027596Y010772D01*
X027596Y010930D02*
X027478Y010930D01*
X027481Y011089D02*
X027596Y011089D01*
X027596Y011247D02*
X027484Y011247D01*
X027487Y011406D02*
X027596Y011406D01*
X027596Y011564D02*
X027489Y011564D01*
X027492Y011723D02*
X027596Y011723D01*
X027596Y011881D02*
X027495Y011881D01*
X027498Y012040D02*
X027596Y012040D01*
X027596Y012198D02*
X027501Y012198D01*
X027503Y012357D02*
X027596Y012357D01*
X027621Y012515D02*
X027506Y012515D01*
X027509Y012674D02*
X027740Y012674D01*
X027859Y012832D02*
X027512Y012832D01*
X027514Y012991D02*
X027978Y012991D01*
X028097Y013149D02*
X027517Y013149D01*
X027520Y013308D02*
X028216Y013308D01*
X028363Y013466D02*
X027523Y013466D01*
X027525Y013625D02*
X028521Y013625D01*
X028680Y013783D02*
X027528Y013783D01*
X024652Y013641D02*
X024102Y012641D01*
X023808Y012515D02*
X017363Y012515D01*
X017732Y012040D02*
X014639Y012040D01*
X014776Y012198D02*
X015542Y012198D01*
X015440Y012357D02*
X014914Y012357D01*
X015052Y012515D02*
X015436Y012515D01*
X015531Y012674D02*
X015189Y012674D01*
X015327Y012832D02*
X023463Y012832D01*
X023682Y012674D02*
X015972Y012674D01*
X015752Y012441D02*
X018052Y012231D01*
X018432Y012021D01*
X018862Y011711D01*
X018922Y010951D01*
X018922Y008751D01*
X019212Y008711D02*
X027596Y008711D01*
X027596Y008553D02*
X026412Y008553D01*
X026572Y008394D02*
X027596Y008394D01*
X027596Y008236D02*
X026601Y008236D01*
X026550Y008077D02*
X027596Y008077D01*
X027596Y007919D02*
X026388Y007919D01*
X026328Y007760D02*
X027596Y007760D01*
X027596Y007602D02*
X026052Y007602D01*
X026133Y007867D02*
X025740Y007719D01*
X017472Y007719D01*
X016685Y007326D01*
X015952Y006145D01*
X015952Y003493D01*
X015512Y003481D02*
X012641Y003481D01*
X012497Y003639D02*
X015512Y003639D01*
X015512Y003798D02*
X012353Y003798D01*
X012209Y003956D02*
X015543Y003956D01*
X015651Y004115D02*
X012065Y004115D01*
X011921Y004273D02*
X015732Y004273D01*
X015732Y004432D02*
X011777Y004432D01*
X011633Y004590D02*
X015732Y004590D01*
X015732Y004749D02*
X011507Y004749D01*
X011396Y004907D02*
X015732Y004907D01*
X015732Y005066D02*
X011284Y005066D01*
X011172Y005224D02*
X015732Y005224D01*
X015732Y005383D02*
X011065Y005383D01*
X010964Y005541D02*
X015732Y005541D01*
X015732Y005700D02*
X010863Y005700D01*
X010763Y005858D02*
X015732Y005858D01*
X015732Y006017D02*
X010662Y006017D01*
X010561Y006175D02*
X015718Y006175D01*
X015810Y006334D02*
X010461Y006334D01*
X010360Y006492D02*
X015908Y006492D01*
X016007Y006651D02*
X010259Y006651D01*
X010158Y006809D02*
X016105Y006809D01*
X016204Y006968D02*
X010058Y006968D01*
X009957Y007126D02*
X016302Y007126D01*
X016400Y007285D02*
X009856Y007285D01*
X009757Y007443D02*
X016492Y007443D01*
X016745Y007602D02*
X009665Y007602D01*
X009572Y007760D02*
X017062Y007760D01*
X017360Y007919D02*
X009480Y007919D01*
X009387Y008077D02*
X025977Y008077D01*
X025961Y008236D02*
X009295Y008236D01*
X009256Y008394D02*
X010909Y008394D01*
X011114Y008641D02*
X010314Y008641D01*
X009814Y010041D01*
X009814Y013541D01*
X010214Y013791D01*
X011064Y013791D01*
X010467Y013466D02*
X010109Y013466D01*
X010034Y013308D02*
X012625Y013308D01*
X012678Y013466D02*
X011661Y013466D01*
X011771Y013625D02*
X012731Y013625D01*
X012784Y013783D02*
X011804Y013783D01*
X011778Y013942D02*
X012836Y013942D01*
X013102Y014041D02*
X013102Y016641D01*
X016002Y018641D01*
X016352Y022493D01*
X016792Y022501D02*
X016912Y022501D01*
X016912Y022659D02*
X016792Y022659D01*
X016792Y022818D02*
X016912Y022818D01*
X016912Y022881D02*
X016912Y022105D01*
X016979Y021944D01*
X017102Y021820D01*
X017264Y021753D01*
X017439Y021753D01*
X017601Y021820D01*
X017725Y021944D01*
X017792Y022105D01*
X017792Y022881D01*
X017725Y023042D01*
X017601Y023166D01*
X017439Y023233D01*
X017264Y023233D01*
X017102Y023166D01*
X016979Y023042D01*
X016912Y022881D01*
X016951Y022976D02*
X016752Y022976D01*
X016632Y023135D02*
X017071Y023135D01*
X017632Y023135D02*
X018071Y023135D01*
X018102Y023166D02*
X017979Y023042D01*
X017912Y022881D01*
X017912Y022105D01*
X017979Y021944D01*
X018102Y021820D01*
X018264Y021753D01*
X018439Y021753D01*
X018601Y021820D01*
X018725Y021944D01*
X018792Y022105D01*
X018792Y022881D01*
X018725Y023042D01*
X018601Y023166D01*
X018439Y023233D01*
X018264Y023233D01*
X018102Y023166D01*
X017951Y022976D02*
X017752Y022976D01*
X017792Y022818D02*
X017912Y022818D01*
X017912Y022659D02*
X017792Y022659D01*
X017792Y022501D02*
X017912Y022501D01*
X017912Y022342D02*
X017792Y022342D01*
X017792Y022184D02*
X017912Y022184D01*
X017945Y022025D02*
X017758Y022025D01*
X017648Y021867D02*
X018056Y021867D01*
X018648Y021867D02*
X019056Y021867D01*
X019066Y021856D02*
X018797Y019205D01*
X017785Y018868D01*
X017750Y018874D01*
X017702Y018840D01*
X017646Y018821D01*
X017630Y018790D01*
X014706Y016743D01*
X014654Y016728D01*
X014634Y016693D01*
X014601Y016669D01*
X014591Y016616D01*
X013628Y014882D01*
X013588Y014847D01*
X013585Y014805D01*
X013565Y014769D01*
X013580Y014718D01*
X013388Y011839D01*
X013101Y011552D01*
X013087Y011550D01*
X013037Y011488D01*
X012982Y011433D01*
X012982Y011419D01*
X012696Y011061D01*
X011716Y011061D01*
X011613Y011164D01*
X011452Y011231D01*
X010677Y011231D01*
X010515Y011164D01*
X010391Y011041D01*
X010324Y010879D01*
X010324Y010704D01*
X010391Y010542D01*
X010515Y010418D01*
X010677Y010351D01*
X011452Y010351D01*
X011613Y010418D01*
X011737Y010542D01*
X011770Y010621D01*
X012724Y010621D01*
X012735Y010613D01*
X011767Y010613D01*
X011650Y010455D02*
X013804Y010455D01*
X013884Y010535D02*
X013360Y010011D01*
X011749Y010011D01*
X011737Y010041D01*
X011613Y010164D01*
X011452Y010231D01*
X010677Y010231D01*
X010515Y010164D01*
X010391Y010041D01*
X010324Y009879D01*
X010324Y009704D01*
X010391Y009542D01*
X010515Y009418D01*
X010677Y009351D01*
X011452Y009351D01*
X011613Y009418D01*
X011737Y009542D01*
X011749Y009571D01*
X013543Y009571D01*
X014255Y010284D01*
X014319Y010345D01*
X014320Y010348D01*
X014322Y010350D01*
X014322Y010439D01*
X014350Y011707D01*
X017460Y015288D01*
X018948Y016677D01*
X020778Y018218D01*
X020783Y018218D01*
X020847Y018276D01*
X020913Y018332D01*
X020913Y018337D01*
X022037Y019371D01*
X022043Y019371D01*
X022104Y019433D01*
X022168Y019491D01*
X022168Y019497D01*
X022172Y019500D01*
X022172Y019587D01*
X022175Y019673D01*
X022172Y019677D01*
X022172Y021808D01*
X022201Y021820D01*
X022325Y021944D01*
X022392Y022105D01*
X022392Y022881D01*
X022325Y023042D01*
X022201Y023166D01*
X022039Y023233D01*
X021864Y023233D01*
X021702Y023166D01*
X021579Y023042D01*
X021512Y022881D01*
X021512Y022105D01*
X021579Y021944D01*
X021702Y021820D01*
X021732Y021808D01*
X021732Y019688D01*
X020556Y018607D01*
X018725Y017064D01*
X018718Y017064D01*
X018656Y017006D01*
X018590Y016951D01*
X018590Y016945D01*
X017208Y015655D01*
X017195Y015654D01*
X017143Y015594D01*
X017085Y015540D01*
X017084Y015527D01*
X016928Y015527D01*
X017084Y015527D02*
X013972Y011943D01*
X013914Y011887D01*
X013913Y011876D01*
X013906Y011867D01*
X013911Y011786D01*
X013884Y010535D01*
X013885Y010613D02*
X012740Y010613D01*
X012735Y010613D02*
X012814Y010621D01*
X012893Y010621D01*
X012903Y010631D01*
X012916Y010633D01*
X012966Y010694D01*
X013022Y010750D01*
X013022Y010764D01*
X013366Y011194D01*
X013752Y011581D01*
X013815Y011636D01*
X013816Y011644D01*
X013822Y011650D01*
X013822Y011734D01*
X014018Y014678D01*
X014969Y016390D01*
X017902Y018443D01*
X019026Y018818D01*
X019070Y018813D01*
X019109Y018845D01*
X019158Y018862D01*
X019177Y018901D01*
X019211Y018929D01*
X019216Y018979D01*
X019239Y019025D01*
X019225Y019066D01*
X019500Y021778D01*
X019601Y021820D01*
X019725Y021944D01*
X019792Y022105D01*
X019792Y022881D01*
X019725Y023042D01*
X019601Y023166D01*
X019439Y023233D01*
X019264Y023233D01*
X019102Y023166D01*
X018979Y023042D01*
X018912Y022881D01*
X018912Y022105D01*
X018979Y021944D01*
X019066Y021856D01*
X019051Y021708D02*
X016501Y021708D01*
X016487Y021550D02*
X019035Y021550D01*
X019019Y021391D02*
X016472Y021391D01*
X016458Y021233D02*
X019003Y021233D01*
X018987Y021074D02*
X016444Y021074D01*
X016429Y020916D02*
X018971Y020916D01*
X018954Y020757D02*
X016415Y020757D01*
X016400Y020599D02*
X018938Y020599D01*
X018922Y020440D02*
X016386Y020440D01*
X016372Y020282D02*
X018906Y020282D01*
X018890Y020123D02*
X016357Y020123D01*
X016343Y019965D02*
X018874Y019965D01*
X018858Y019806D02*
X016328Y019806D01*
X016314Y019648D02*
X018842Y019648D01*
X018826Y019489D02*
X016300Y019489D01*
X016285Y019331D02*
X018810Y019331D01*
X018698Y019172D02*
X016271Y019172D01*
X016256Y019014D02*
X018223Y019014D01*
X017723Y018855D02*
X016242Y018855D01*
X016231Y018697D02*
X017497Y018697D01*
X017270Y018538D02*
X016213Y018538D01*
X016010Y018380D02*
X017044Y018380D01*
X016818Y018221D02*
X015780Y018221D01*
X015550Y018063D02*
X016591Y018063D01*
X016365Y017904D02*
X015320Y017904D01*
X015090Y017746D02*
X016138Y017746D01*
X015912Y017587D02*
X014860Y017587D01*
X014631Y017429D02*
X015685Y017429D01*
X015459Y017270D02*
X014401Y017270D01*
X014171Y017112D02*
X015233Y017112D01*
X015006Y016953D02*
X013941Y016953D01*
X013711Y016795D02*
X014780Y016795D01*
X014595Y016636D02*
X013481Y016636D01*
X013322Y016478D02*
X014514Y016478D01*
X014426Y016319D02*
X013322Y016319D01*
X013322Y016161D02*
X014338Y016161D01*
X014250Y016002D02*
X013322Y016002D01*
X013322Y015844D02*
X014162Y015844D01*
X014074Y015685D02*
X013322Y015685D01*
X013322Y015527D02*
X013986Y015527D01*
X013898Y015368D02*
X013322Y015368D01*
X013322Y015210D02*
X013810Y015210D01*
X013722Y015051D02*
X013322Y015051D01*
X013322Y014893D02*
X013634Y014893D01*
X013575Y014734D02*
X013322Y014734D01*
X013322Y014576D02*
X013570Y014576D01*
X013559Y014417D02*
X013322Y014417D01*
X013322Y014259D02*
X013549Y014259D01*
X013538Y014100D02*
X013322Y014100D01*
X013313Y013942D02*
X013528Y013942D01*
X013517Y013783D02*
X013247Y013783D01*
X013195Y013625D02*
X013507Y013625D01*
X013496Y013466D02*
X013142Y013466D01*
X013089Y013308D02*
X013486Y013308D01*
X013475Y013149D02*
X013036Y013149D01*
X012983Y012991D02*
X013464Y012991D01*
X013454Y012832D02*
X012930Y012832D01*
X012858Y012674D02*
X013443Y012674D01*
X013433Y012515D02*
X011710Y012515D01*
X011464Y012357D02*
X013422Y012357D01*
X013412Y012198D02*
X011532Y012198D01*
X011452Y012231D02*
X011613Y012164D01*
X011737Y012041D01*
X011804Y011879D01*
X011804Y011704D01*
X011737Y011542D01*
X011613Y011418D01*
X011452Y011351D01*
X010677Y011351D01*
X010515Y011418D01*
X010391Y011542D01*
X010324Y011704D01*
X010324Y011879D01*
X010391Y012041D01*
X010515Y012164D01*
X010677Y012231D01*
X011452Y012231D01*
X011738Y012040D02*
X013401Y012040D01*
X013390Y011881D02*
X011803Y011881D01*
X011804Y011723D02*
X013272Y011723D01*
X013113Y011564D02*
X011746Y011564D01*
X011583Y011406D02*
X012971Y011406D01*
X012844Y011247D02*
X010034Y011247D01*
X010034Y011089D02*
X010439Y011089D01*
X010345Y010930D02*
X010034Y010930D01*
X010034Y010772D02*
X010324Y010772D01*
X010362Y010613D02*
X010034Y010613D01*
X010034Y010455D02*
X010479Y010455D01*
X010034Y010296D02*
X013645Y010296D01*
X013487Y010138D02*
X011640Y010138D01*
X011699Y009504D02*
X018702Y009504D01*
X018702Y009662D02*
X013633Y009662D01*
X013452Y009791D02*
X014102Y010441D01*
X014132Y011791D01*
X017302Y015441D01*
X018802Y016841D01*
X020702Y018441D01*
X021952Y019591D01*
X021952Y022493D01*
X022392Y022501D02*
X022512Y022501D01*
X022512Y022659D02*
X022392Y022659D01*
X022392Y022818D02*
X022512Y022818D01*
X022512Y022881D02*
X022512Y022105D01*
X022579Y021944D01*
X022702Y021820D01*
X022721Y021812D01*
X022683Y019291D01*
X021256Y018006D01*
X016935Y014261D01*
X016838Y014261D01*
X016720Y014213D01*
X016630Y014123D01*
X016582Y014005D01*
X016582Y013878D01*
X016630Y013760D01*
X016720Y013670D01*
X016838Y013621D01*
X016965Y013621D01*
X017083Y013670D01*
X017173Y013760D01*
X017222Y013878D01*
X017222Y013928D01*
X021479Y017617D01*
X021481Y017617D01*
X021547Y017677D01*
X021615Y017735D01*
X021615Y017737D01*
X022985Y018970D01*
X022989Y018970D01*
X023052Y019031D01*
X023116Y019089D01*
X023117Y019094D01*
X023120Y019097D01*
X023121Y019184D01*
X023126Y019271D01*
X023123Y019274D01*
X023161Y021804D01*
X023201Y021820D01*
X023325Y021944D01*
X023392Y022105D01*
X023392Y022881D01*
X023325Y023042D01*
X023201Y023166D01*
X023039Y023233D01*
X022864Y023233D01*
X022702Y023166D01*
X022579Y023042D01*
X022512Y022881D01*
X022551Y022976D02*
X022352Y022976D01*
X022232Y023135D02*
X022671Y023135D01*
X023232Y023135D02*
X023671Y023135D01*
X023551Y022976D02*
X023352Y022976D01*
X023392Y022818D02*
X023512Y022818D01*
X023512Y022659D02*
X023392Y022659D01*
X023392Y022501D02*
X023512Y022501D01*
X023512Y022342D02*
X023392Y022342D01*
X023392Y022184D02*
X023512Y022184D01*
X023545Y022025D02*
X023358Y022025D01*
X023248Y021867D02*
X023656Y021867D01*
X023668Y021708D02*
X023160Y021708D01*
X023157Y021550D02*
X023655Y021550D01*
X023642Y021391D02*
X023155Y021391D01*
X023153Y021233D02*
X023629Y021233D01*
X023617Y021074D02*
X023150Y021074D01*
X023148Y020916D02*
X023604Y020916D01*
X023591Y020757D02*
X023145Y020757D01*
X023143Y020599D02*
X023578Y020599D01*
X023565Y020440D02*
X023141Y020440D01*
X023138Y020282D02*
X023553Y020282D01*
X023540Y020123D02*
X023136Y020123D01*
X023133Y019965D02*
X023527Y019965D01*
X023514Y019806D02*
X023131Y019806D01*
X023129Y019648D02*
X023502Y019648D01*
X023488Y019489D02*
X023126Y019489D01*
X023124Y019331D02*
X023476Y019331D01*
X023482Y019172D02*
X023121Y019172D01*
X023034Y019014D02*
X023482Y019014D01*
X023482Y018855D02*
X022857Y018855D01*
X022681Y018697D02*
X023482Y018697D01*
X023482Y018538D02*
X022505Y018538D01*
X022329Y018380D02*
X023482Y018380D01*
X023482Y018221D02*
X022152Y018221D01*
X021976Y018063D02*
X023482Y018063D01*
X023482Y017904D02*
X021800Y017904D01*
X021624Y017746D02*
X023482Y017746D01*
X023482Y017587D02*
X021444Y017587D01*
X021261Y017429D02*
X023482Y017429D01*
X023482Y017270D02*
X021078Y017270D01*
X020895Y017112D02*
X023482Y017112D01*
X023482Y016953D02*
X020713Y016953D01*
X020530Y016795D02*
X023482Y016795D01*
X023482Y016636D02*
X020347Y016636D01*
X020164Y016478D02*
X023482Y016478D01*
X023482Y016319D02*
X019981Y016319D01*
X019798Y016161D02*
X023482Y016161D01*
X023482Y016002D02*
X019615Y016002D01*
X019432Y015844D02*
X023482Y015844D01*
X023482Y015685D02*
X019250Y015685D01*
X019067Y015527D02*
X023482Y015527D01*
X023482Y015368D02*
X018884Y015368D01*
X018701Y015210D02*
X023482Y015210D01*
X021712Y014100D02*
X017421Y014100D01*
X017604Y014259D02*
X021493Y014259D01*
X021274Y014417D02*
X017786Y014417D01*
X017480Y014734D02*
X016979Y014734D01*
X017116Y014893D02*
X017663Y014893D01*
X017846Y015051D02*
X017254Y015051D01*
X017392Y015210D02*
X018029Y015210D01*
X018212Y015368D02*
X017546Y015368D01*
X017715Y015527D02*
X018395Y015527D01*
X018578Y015685D02*
X017885Y015685D01*
X018055Y015844D02*
X018761Y015844D01*
X018943Y016002D02*
X018225Y016002D01*
X018395Y016161D02*
X019126Y016161D01*
X019309Y016319D02*
X018564Y016319D01*
X018734Y016478D02*
X019492Y016478D01*
X019675Y016636D02*
X018904Y016636D01*
X019088Y016795D02*
X019858Y016795D01*
X020041Y016953D02*
X019276Y016953D01*
X019464Y017112D02*
X020224Y017112D01*
X020407Y017270D02*
X019652Y017270D01*
X019840Y017429D02*
X020589Y017429D01*
X020772Y017587D02*
X020029Y017587D01*
X020217Y017746D02*
X020955Y017746D01*
X021138Y017904D02*
X020405Y017904D01*
X020593Y018063D02*
X021319Y018063D01*
X021495Y018221D02*
X020787Y018221D01*
X020959Y018380D02*
X021671Y018380D01*
X021847Y018538D02*
X021132Y018538D01*
X021304Y018697D02*
X022023Y018697D01*
X022199Y018855D02*
X021476Y018855D01*
X021649Y019014D02*
X022375Y019014D01*
X022551Y019172D02*
X021821Y019172D01*
X021993Y019331D02*
X022684Y019331D01*
X022686Y019489D02*
X022165Y019489D01*
X022174Y019648D02*
X022688Y019648D01*
X022691Y019806D02*
X022172Y019806D01*
X022172Y019965D02*
X022693Y019965D01*
X022696Y020123D02*
X022172Y020123D01*
X022172Y020282D02*
X022698Y020282D01*
X022700Y020440D02*
X022172Y020440D01*
X022172Y020599D02*
X022703Y020599D01*
X022705Y020757D02*
X022172Y020757D01*
X022172Y020916D02*
X022708Y020916D01*
X022710Y021074D02*
X022172Y021074D01*
X022172Y021233D02*
X022712Y021233D01*
X022715Y021391D02*
X022172Y021391D01*
X022172Y021550D02*
X022717Y021550D01*
X022720Y021708D02*
X022172Y021708D01*
X022248Y021867D02*
X022656Y021867D01*
X022545Y022025D02*
X022358Y022025D01*
X022392Y022184D02*
X022512Y022184D01*
X022512Y022342D02*
X022392Y022342D01*
X022952Y022493D02*
X022902Y019191D01*
X021402Y017841D01*
X016902Y013941D01*
X016582Y013942D02*
X016290Y013942D01*
X016153Y013783D02*
X016621Y013783D01*
X016830Y013625D02*
X016015Y013625D01*
X015877Y013466D02*
X022588Y013466D01*
X022806Y013308D02*
X015740Y013308D01*
X015602Y013149D02*
X023025Y013149D01*
X023244Y012991D02*
X015465Y012991D01*
X015019Y013149D02*
X014881Y013149D01*
X014902Y013198D02*
X014902Y013287D01*
X015905Y014397D01*
X015906Y014397D01*
X015966Y014465D01*
X016026Y014532D01*
X016026Y014533D01*
X016504Y015073D01*
X018332Y017030D01*
X020285Y018618D01*
X020347Y018652D01*
X020353Y018674D01*
X020371Y018688D01*
X020378Y018759D01*
X020671Y019745D01*
X020682Y019753D01*
X020696Y019831D01*
X020718Y019906D01*
X020712Y019918D01*
X021042Y021754D01*
X021201Y021820D01*
X021325Y021944D01*
X021392Y022105D01*
X021392Y022881D01*
X021325Y023042D01*
X021201Y023166D01*
X021039Y023233D01*
X020864Y023233D01*
X020702Y023166D01*
X020579Y023042D01*
X020512Y022881D01*
X020512Y022105D01*
X020579Y021944D01*
X020621Y021901D01*
X020267Y019932D01*
X019970Y018929D01*
X018100Y017409D01*
X018083Y017408D01*
X018031Y017353D01*
X017972Y017305D01*
X017970Y017288D01*
X016241Y015436D01*
X016237Y015435D01*
X016179Y015369D01*
X016119Y015305D01*
X016119Y015302D01*
X015638Y014758D01*
X014574Y013581D01*
X014518Y013581D01*
X014400Y013533D01*
X014310Y013443D01*
X014262Y013325D01*
X014262Y013198D01*
X014310Y013080D01*
X014400Y012990D01*
X014518Y012941D01*
X014645Y012941D01*
X014763Y012990D01*
X014853Y013080D01*
X014902Y013198D01*
X014920Y013308D02*
X015157Y013308D01*
X015063Y013466D02*
X015295Y013466D01*
X015206Y013625D02*
X015432Y013625D01*
X015350Y013783D02*
X015570Y013783D01*
X015493Y013942D02*
X015708Y013942D01*
X015636Y014100D02*
X015845Y014100D01*
X015779Y014259D02*
X015983Y014259D01*
X015923Y014417D02*
X016121Y014417D01*
X016064Y014576D02*
X016258Y014576D01*
X016204Y014734D02*
X016396Y014734D01*
X016344Y014893D02*
X016534Y014893D01*
X016485Y015051D02*
X016671Y015051D01*
X016632Y015210D02*
X016809Y015210D01*
X016780Y015368D02*
X016947Y015368D01*
X017076Y015685D02*
X017240Y015685D01*
X017224Y015844D02*
X017410Y015844D01*
X017372Y016002D02*
X017580Y016002D01*
X017520Y016161D02*
X017750Y016161D01*
X017668Y016319D02*
X017920Y016319D01*
X017816Y016478D02*
X018089Y016478D01*
X017964Y016636D02*
X018259Y016636D01*
X018112Y016795D02*
X018429Y016795D01*
X018593Y016953D02*
X018260Y016953D01*
X018432Y017112D02*
X018781Y017112D01*
X018627Y017270D02*
X018969Y017270D01*
X018822Y017429D02*
X019157Y017429D01*
X019017Y017587D02*
X019346Y017587D01*
X019212Y017746D02*
X019534Y017746D01*
X019407Y017904D02*
X019722Y017904D01*
X019602Y018063D02*
X019910Y018063D01*
X019797Y018221D02*
X020099Y018221D01*
X019992Y018380D02*
X020287Y018380D01*
X020187Y018538D02*
X020475Y018538D01*
X020372Y018697D02*
X020654Y018697D01*
X020826Y018855D02*
X020407Y018855D01*
X020454Y019014D02*
X020999Y019014D01*
X021171Y019172D02*
X020501Y019172D01*
X020548Y019331D02*
X021343Y019331D01*
X021516Y019489D02*
X020595Y019489D01*
X020642Y019648D02*
X021688Y019648D01*
X021732Y019806D02*
X020692Y019806D01*
X020720Y019965D02*
X021732Y019965D01*
X021732Y020123D02*
X020749Y020123D01*
X020777Y020282D02*
X021732Y020282D01*
X021732Y020440D02*
X020806Y020440D01*
X020834Y020599D02*
X021732Y020599D01*
X021732Y020757D02*
X020863Y020757D01*
X020891Y020916D02*
X021732Y020916D01*
X021732Y021074D02*
X020920Y021074D01*
X020948Y021233D02*
X021732Y021233D01*
X021732Y021391D02*
X020977Y021391D01*
X021005Y021550D02*
X021732Y021550D01*
X021732Y021708D02*
X021034Y021708D01*
X021248Y021867D02*
X021656Y021867D01*
X021545Y022025D02*
X021358Y022025D01*
X021392Y022184D02*
X021512Y022184D01*
X021512Y022342D02*
X021392Y022342D01*
X021392Y022501D02*
X021512Y022501D01*
X021512Y022659D02*
X021392Y022659D01*
X021392Y022818D02*
X021512Y022818D01*
X021551Y022976D02*
X021352Y022976D01*
X021232Y023135D02*
X021671Y023135D01*
X020952Y022493D02*
X020482Y019881D01*
X020162Y018801D01*
X018182Y017191D01*
X016342Y015221D01*
X015802Y014611D01*
X014582Y013261D01*
X014282Y013149D02*
X013916Y013149D01*
X013905Y012991D02*
X014400Y012991D01*
X014763Y012991D02*
X014882Y012991D01*
X014744Y012832D02*
X013895Y012832D01*
X013884Y012674D02*
X014606Y012674D01*
X014469Y012515D02*
X013874Y012515D01*
X013863Y012357D02*
X014331Y012357D01*
X014193Y012198D02*
X013853Y012198D01*
X013842Y012040D02*
X014056Y012040D01*
X013914Y011881D02*
X013831Y011881D01*
X013822Y011723D02*
X013910Y011723D01*
X013906Y011564D02*
X013735Y011564D01*
X013602Y011741D02*
X013802Y014741D01*
X014802Y016541D01*
X017802Y018641D01*
X019002Y019041D01*
X019352Y022493D01*
X019792Y022501D02*
X020512Y022501D01*
X020512Y022659D02*
X019792Y022659D01*
X019792Y022818D02*
X020512Y022818D01*
X020551Y022976D02*
X019752Y022976D01*
X019632Y023135D02*
X020671Y023135D01*
X020512Y022342D02*
X019792Y022342D01*
X019792Y022184D02*
X020512Y022184D01*
X020545Y022025D02*
X019758Y022025D01*
X019648Y021867D02*
X020615Y021867D01*
X020587Y021708D02*
X019493Y021708D01*
X019477Y021550D02*
X020558Y021550D01*
X020530Y021391D02*
X019461Y021391D01*
X019445Y021233D02*
X020501Y021233D01*
X020473Y021074D02*
X019429Y021074D01*
X019413Y020916D02*
X020444Y020916D01*
X020416Y020757D02*
X019397Y020757D01*
X019381Y020599D02*
X020387Y020599D01*
X020359Y020440D02*
X019365Y020440D01*
X019348Y020282D02*
X020330Y020282D01*
X020302Y020123D02*
X019332Y020123D01*
X019316Y019965D02*
X020273Y019965D01*
X020230Y019806D02*
X019300Y019806D01*
X019284Y019648D02*
X020183Y019648D01*
X020136Y019489D02*
X019268Y019489D01*
X019252Y019331D02*
X020089Y019331D01*
X020042Y019172D02*
X019236Y019172D01*
X019234Y019014D02*
X019995Y019014D01*
X019879Y018855D02*
X019139Y018855D01*
X019489Y018538D02*
X018188Y018538D01*
X017811Y018380D02*
X019294Y018380D01*
X019099Y018221D02*
X017585Y018221D01*
X017358Y018063D02*
X018904Y018063D01*
X018709Y017904D02*
X017132Y017904D01*
X016906Y017746D02*
X018515Y017746D01*
X018320Y017587D02*
X016679Y017587D01*
X016453Y017429D02*
X018125Y017429D01*
X017954Y017270D02*
X016226Y017270D01*
X016000Y017112D02*
X017806Y017112D01*
X017658Y016953D02*
X015773Y016953D01*
X015547Y016795D02*
X017510Y016795D01*
X017362Y016636D02*
X015321Y016636D01*
X015094Y016478D02*
X017214Y016478D01*
X017066Y016319D02*
X014930Y016319D01*
X014842Y016161D02*
X016918Y016161D01*
X016770Y016002D02*
X014754Y016002D01*
X014666Y015844D02*
X016622Y015844D01*
X016474Y015685D02*
X014578Y015685D01*
X014490Y015527D02*
X016326Y015527D01*
X016178Y015368D02*
X014401Y015368D01*
X014313Y015210D02*
X016037Y015210D01*
X015897Y015051D02*
X014225Y015051D01*
X014137Y014893D02*
X015757Y014893D01*
X015616Y014734D02*
X014049Y014734D01*
X014011Y014576D02*
X015473Y014576D01*
X015330Y014417D02*
X014000Y014417D01*
X013990Y014259D02*
X015186Y014259D01*
X015043Y014100D02*
X013979Y014100D01*
X013969Y013942D02*
X014900Y013942D01*
X014757Y013783D02*
X013958Y013783D01*
X013948Y013625D02*
X014613Y013625D01*
X014334Y013466D02*
X013937Y013466D01*
X013926Y013308D02*
X014262Y013308D01*
X013102Y014041D02*
X012702Y012841D01*
X011064Y012841D01*
X011064Y012791D01*
X010500Y013149D02*
X010034Y013149D01*
X010034Y012991D02*
X010370Y012991D01*
X010324Y012832D02*
X010034Y012832D01*
X010034Y012674D02*
X010337Y012674D01*
X010418Y012515D02*
X010034Y012515D01*
X010034Y012357D02*
X010664Y012357D01*
X010596Y012198D02*
X010034Y012198D01*
X010034Y012040D02*
X010391Y012040D01*
X010325Y011881D02*
X010034Y011881D01*
X010034Y011723D02*
X010324Y011723D01*
X010382Y011564D02*
X010034Y011564D01*
X010034Y011406D02*
X010546Y011406D01*
X011064Y010841D02*
X012802Y010841D01*
X013202Y011341D01*
X013602Y011741D01*
X013577Y011406D02*
X013903Y011406D01*
X013899Y011247D02*
X013418Y011247D01*
X013281Y011089D02*
X013896Y011089D01*
X013892Y010930D02*
X013154Y010930D01*
X013028Y010772D02*
X013889Y010772D01*
X014329Y010772D02*
X017092Y010772D01*
X017092Y010628D02*
X017104Y010582D01*
X017128Y010541D01*
X017161Y010507D01*
X017202Y010484D01*
X017248Y010471D01*
X017422Y010471D01*
X017595Y010471D01*
X017641Y010484D01*
X017682Y010507D01*
X017716Y010541D01*
X017739Y010582D01*
X017752Y010628D01*
X017752Y010951D01*
X017422Y010951D01*
X017422Y010951D01*
X017422Y010471D01*
X017422Y010951D01*
X017422Y010951D01*
X017752Y010951D01*
X017752Y011275D01*
X017739Y011321D01*
X017716Y011362D01*
X017682Y011395D01*
X017641Y011419D01*
X017595Y011431D01*
X017422Y011431D01*
X017422Y010951D01*
X017092Y010951D01*
X017092Y010628D01*
X017095Y010613D02*
X014325Y010613D01*
X014322Y010455D02*
X018702Y010455D01*
X018702Y010296D02*
X014268Y010296D01*
X014109Y010138D02*
X018702Y010138D01*
X018702Y009979D02*
X013950Y009979D01*
X013792Y009821D02*
X018702Y009821D01*
X019142Y009821D02*
X025570Y009821D01*
X025482Y009979D02*
X019142Y009979D01*
X019142Y010138D02*
X025495Y010138D01*
X025604Y010296D02*
X019142Y010296D01*
X019142Y010455D02*
X025836Y010455D01*
X025782Y010613D02*
X019212Y010613D01*
X018632Y010613D02*
X017748Y010613D01*
X017752Y010772D02*
X018632Y010772D01*
X018632Y010930D02*
X017752Y010930D01*
X017752Y011089D02*
X018632Y011089D01*
X018632Y011247D02*
X017752Y011247D01*
X017664Y011406D02*
X018665Y011406D01*
X018653Y011564D02*
X014347Y011564D01*
X014343Y011406D02*
X017179Y011406D01*
X017161Y011395D02*
X017128Y011362D01*
X017104Y011321D01*
X017092Y011275D01*
X017092Y010951D01*
X017422Y010951D01*
X017422Y010951D01*
X017422Y010951D01*
X017422Y011431D01*
X017248Y011431D01*
X017202Y011419D01*
X017161Y011395D01*
X017092Y011247D02*
X014340Y011247D01*
X014336Y011089D02*
X017092Y011089D01*
X017092Y010930D02*
X014332Y010930D01*
X014363Y011723D02*
X018470Y011723D01*
X018231Y011881D02*
X014501Y011881D01*
X015961Y012198D02*
X015996Y012198D01*
X017422Y011406D02*
X017422Y011406D01*
X017422Y011247D02*
X017422Y011247D01*
X017422Y011089D02*
X017422Y011089D01*
X017422Y010930D02*
X017422Y010930D01*
X017422Y010772D02*
X017422Y010772D01*
X017422Y010613D02*
X017422Y010613D01*
X017422Y009231D02*
X017422Y008751D01*
X017422Y008751D01*
X017752Y008751D01*
X017752Y008428D01*
X017739Y008382D01*
X017716Y008341D01*
X017682Y008307D01*
X017641Y008284D01*
X017595Y008271D01*
X017422Y008271D01*
X017422Y008751D01*
X017422Y008751D01*
X017752Y008751D01*
X017752Y009075D01*
X017739Y009121D01*
X017716Y009162D01*
X017682Y009195D01*
X017641Y009219D01*
X017595Y009231D01*
X017422Y009231D01*
X017248Y009231D01*
X017202Y009219D01*
X017161Y009195D01*
X017128Y009162D01*
X017104Y009121D01*
X017092Y009075D01*
X017092Y008751D01*
X017092Y008428D01*
X017104Y008382D01*
X017128Y008341D01*
X017161Y008307D01*
X017202Y008284D01*
X017248Y008271D01*
X017422Y008271D01*
X017422Y008751D01*
X017092Y008751D01*
X017422Y008751D01*
X017422Y008751D01*
X017422Y008751D01*
X017422Y009231D01*
X017422Y009187D02*
X017422Y009187D01*
X017422Y009028D02*
X017422Y009028D01*
X017422Y008870D02*
X017422Y008870D01*
X017422Y008711D02*
X017422Y008711D01*
X017422Y008553D02*
X017422Y008553D01*
X017422Y008394D02*
X017422Y008394D01*
X017743Y008394D02*
X018632Y008394D01*
X018632Y008553D02*
X017752Y008553D01*
X017752Y008711D02*
X018632Y008711D01*
X018632Y008870D02*
X017752Y008870D01*
X017752Y009028D02*
X018632Y009028D01*
X018702Y009187D02*
X017691Y009187D01*
X017152Y009187D02*
X010353Y009187D01*
X010296Y009345D02*
X018702Y009345D01*
X019212Y008553D02*
X026150Y008553D01*
X025990Y008394D02*
X019212Y008394D01*
X017412Y007443D02*
X027596Y007443D01*
X027596Y007285D02*
X017095Y007285D01*
X016820Y007126D02*
X027596Y007126D01*
X027596Y006968D02*
X021503Y006968D01*
X021603Y006868D02*
X021345Y007126D01*
X020981Y007126D01*
X020723Y006868D01*
X020723Y006504D01*
X020981Y006246D01*
X021345Y006246D01*
X021603Y006504D01*
X021603Y006868D01*
X021603Y006809D02*
X027596Y006809D01*
X027596Y006651D02*
X021603Y006651D01*
X021592Y006492D02*
X027596Y006492D01*
X027596Y006334D02*
X021433Y006334D01*
X020893Y006334D02*
X016328Y006334D01*
X016426Y006492D02*
X020734Y006492D01*
X020723Y006651D02*
X016525Y006651D01*
X016623Y006809D02*
X020723Y006809D01*
X020823Y006968D02*
X016721Y006968D01*
X016229Y006175D02*
X027568Y006175D01*
X027410Y006017D02*
X016172Y006017D01*
X016172Y005858D02*
X027251Y005858D01*
X027093Y005700D02*
X016172Y005700D01*
X016172Y005541D02*
X021637Y005541D01*
X021352Y005383D02*
X016172Y005383D01*
X016172Y005224D02*
X021067Y005224D01*
X020789Y005066D02*
X016172Y005066D01*
X016172Y004907D02*
X020706Y004907D01*
X020705Y004749D02*
X016172Y004749D01*
X016172Y004590D02*
X020703Y004590D01*
X020701Y004432D02*
X016172Y004432D01*
X015512Y003322D02*
X012785Y003322D01*
X012929Y003164D02*
X015512Y003164D01*
X015553Y003005D02*
X013073Y003005D01*
X013217Y002847D02*
X015676Y002847D01*
X015007Y002688D02*
X017356Y002688D01*
X017222Y002213D02*
X030292Y002213D01*
X030709Y002371D02*
X018072Y002371D01*
X018200Y002530D02*
X031125Y002530D01*
X029726Y002054D02*
X006250Y002054D01*
X005776Y002213D02*
X015525Y002213D01*
X016521Y001579D02*
X013715Y001579D01*
X013725Y001420D02*
X016340Y001420D01*
X016381Y001477D02*
X016381Y001477D01*
X016381Y001477D01*
X016225Y001262D02*
X013767Y001262D01*
X013817Y001103D02*
X016162Y001103D01*
X016204Y001233D02*
X016204Y001233D01*
X016111Y000945D02*
X013908Y000945D01*
X014035Y000786D02*
X016110Y000786D01*
X016064Y000628D02*
X014214Y000628D01*
X014564Y000469D02*
X015911Y000469D01*
X016625Y001655D02*
X016625Y001655D01*
X016879Y001737D02*
X013620Y001737D01*
X013148Y002371D02*
X005429Y002371D01*
X005082Y002530D02*
X012910Y002530D01*
X012766Y002688D02*
X004826Y002688D01*
X006793Y001896D02*
X029077Y001896D01*
X020676Y002847D02*
X020284Y002847D01*
X020395Y003005D02*
X020553Y003005D01*
X020512Y003164D02*
X020432Y003164D01*
X020432Y003322D02*
X020512Y003322D01*
X019972Y003322D02*
X019932Y003322D01*
X019932Y003164D02*
X019972Y003164D01*
X019972Y003005D02*
X019932Y003005D01*
X019932Y002847D02*
X019972Y002847D01*
X019619Y002847D02*
X019284Y002847D01*
X019395Y003005D02*
X019509Y003005D01*
X019472Y003164D02*
X019432Y003164D01*
X019432Y003322D02*
X019472Y003322D01*
X019472Y003639D02*
X019432Y003639D01*
X019432Y003798D02*
X019472Y003798D01*
X019500Y003956D02*
X019403Y003956D01*
X019309Y004115D02*
X019594Y004115D01*
X019932Y004115D02*
X019972Y004115D01*
X019972Y003956D02*
X019932Y003956D01*
X019932Y003798D02*
X019972Y003798D01*
X019972Y003639D02*
X019932Y003639D01*
X018972Y003639D02*
X018932Y003639D01*
X018932Y003798D02*
X018972Y003798D01*
X018972Y003956D02*
X018932Y003956D01*
X018932Y004115D02*
X018972Y004115D01*
X018972Y003322D02*
X018932Y003322D01*
X018932Y003164D02*
X018972Y003164D01*
X018972Y003005D02*
X018932Y003005D01*
X018932Y002847D02*
X018972Y002847D01*
X026133Y007867D02*
X026281Y008261D01*
X026510Y010296D02*
X025999Y010296D01*
X026367Y010455D02*
X026568Y010455D01*
X026625Y010613D02*
X026422Y010613D01*
X026543Y010772D02*
X026655Y010772D01*
X027252Y010541D02*
X027402Y019141D01*
X027952Y019691D01*
X027952Y022493D01*
X026656Y021867D02*
X026248Y021867D01*
X026168Y021708D02*
X026728Y021708D01*
X026727Y021550D02*
X026168Y021550D01*
X026167Y021391D02*
X026727Y021391D01*
X026726Y021233D02*
X026167Y021233D01*
X026166Y021074D02*
X026725Y021074D01*
X026725Y020916D02*
X026165Y020916D01*
X026165Y020757D02*
X026724Y020757D01*
X026723Y020599D02*
X026164Y020599D01*
X026164Y020440D02*
X026723Y020440D01*
X026722Y020282D02*
X026163Y020282D01*
X026162Y020123D02*
X026721Y020123D01*
X026721Y019965D02*
X026178Y019965D01*
X026261Y019806D02*
X026720Y019806D01*
X026719Y019648D02*
X026460Y019648D01*
X026592Y019351D02*
X026152Y019541D01*
X024635Y019648D02*
X023943Y019648D01*
X023956Y019806D02*
X024640Y019806D01*
X024646Y019965D02*
X023968Y019965D01*
X023981Y020123D02*
X024651Y020123D01*
X024657Y020282D02*
X023994Y020282D01*
X024007Y020440D02*
X024662Y020440D01*
X024667Y020599D02*
X024020Y020599D01*
X024032Y020757D02*
X024673Y020757D01*
X024678Y020916D02*
X024045Y020916D01*
X024058Y021074D02*
X024683Y021074D01*
X024689Y021233D02*
X024071Y021233D01*
X024083Y021391D02*
X024694Y021391D01*
X024699Y021550D02*
X024096Y021550D01*
X024109Y021708D02*
X024705Y021708D01*
X024656Y021867D02*
X024248Y021867D01*
X024358Y022025D02*
X024545Y022025D01*
X024512Y022184D02*
X024392Y022184D01*
X024392Y022342D02*
X024512Y022342D01*
X024952Y022493D02*
X024652Y013641D01*
X023953Y012357D02*
X018280Y012357D01*
X017182Y013783D02*
X022150Y013783D01*
X022369Y013625D02*
X016973Y013625D01*
X017238Y013942D02*
X021931Y013942D01*
X017298Y014576D02*
X016841Y014576D01*
X016703Y014417D02*
X017115Y014417D01*
X016831Y014259D02*
X016566Y014259D01*
X016621Y014100D02*
X016428Y014100D01*
X012572Y013149D02*
X011629Y013149D01*
X010039Y013942D02*
X009266Y013942D01*
X009219Y013783D02*
X009786Y013783D01*
X009594Y013625D02*
X009220Y013625D01*
X009221Y013466D02*
X009594Y013466D01*
X009594Y013308D02*
X009222Y013308D01*
X009223Y013149D02*
X009594Y013149D01*
X009594Y012991D02*
X009224Y012991D01*
X009226Y012832D02*
X009594Y012832D01*
X009594Y012674D02*
X009227Y012674D01*
X009228Y012515D02*
X009594Y012515D01*
X009594Y012357D02*
X009229Y012357D01*
X009230Y012198D02*
X009594Y012198D01*
X009594Y012040D02*
X009231Y012040D01*
X009232Y011881D02*
X009594Y011881D01*
X009594Y011723D02*
X009233Y011723D01*
X009234Y011564D02*
X009594Y011564D01*
X009594Y011406D02*
X009235Y011406D01*
X009236Y011247D02*
X009594Y011247D01*
X009594Y011089D02*
X009238Y011089D01*
X009239Y010930D02*
X009594Y010930D01*
X009594Y010772D02*
X009240Y010772D01*
X009241Y010613D02*
X009594Y010613D01*
X009594Y010455D02*
X009242Y010455D01*
X009243Y010296D02*
X009594Y010296D01*
X009594Y010138D02*
X009244Y010138D01*
X009245Y009979D02*
X009594Y009979D01*
X009659Y009821D02*
X009246Y009821D01*
X009247Y009662D02*
X009716Y009662D01*
X009773Y009504D02*
X009248Y009504D01*
X009249Y009345D02*
X009829Y009345D01*
X009886Y009187D02*
X009251Y009187D01*
X009252Y009028D02*
X009942Y009028D01*
X009999Y008870D02*
X009253Y008870D01*
X009254Y008711D02*
X010056Y008711D01*
X010094Y008553D02*
X009255Y008553D01*
X010410Y009028D02*
X017092Y009028D01*
X017092Y008870D02*
X011338Y008870D01*
X011432Y008711D02*
X017092Y008711D01*
X017092Y008553D02*
X011424Y008553D01*
X011319Y008394D02*
X017101Y008394D01*
X013452Y009791D02*
X011064Y009791D01*
X010488Y010138D02*
X010034Y010138D01*
X010070Y009979D02*
X010366Y009979D01*
X010324Y009821D02*
X010127Y009821D01*
X010183Y009662D02*
X010341Y009662D01*
X010430Y009504D02*
X010240Y009504D01*
X010466Y008870D02*
X010890Y008870D01*
X011064Y010791D02*
X011064Y010841D01*
X011689Y011089D02*
X012718Y011089D01*
X009509Y014481D02*
X009844Y014776D01*
X011064Y014776D01*
X011064Y014791D01*
X011044Y016319D02*
X011084Y016319D01*
X011084Y016478D02*
X011044Y016478D01*
X011044Y016636D02*
X011084Y016636D01*
X011084Y016953D02*
X011044Y016953D01*
X011044Y017112D02*
X011084Y017112D01*
X011084Y017270D02*
X011044Y017270D01*
X010719Y017270D02*
X001658Y017270D01*
X001662Y017429D02*
X013856Y017429D01*
X014085Y017587D02*
X001668Y017587D01*
X001673Y017746D02*
X014315Y017746D01*
X014545Y017904D02*
X001689Y017904D01*
X001712Y018063D02*
X014775Y018063D01*
X015005Y018221D02*
X001735Y018221D01*
X001758Y018380D02*
X015235Y018380D01*
X015464Y018538D02*
X001808Y018538D01*
X001858Y018697D02*
X015694Y018697D01*
X015800Y018855D02*
X001907Y018855D01*
X001957Y019014D02*
X015814Y019014D01*
X015829Y019172D02*
X002007Y019172D01*
X002067Y019331D02*
X015843Y019331D01*
X015858Y019489D02*
X002131Y019489D01*
X002196Y019648D02*
X015872Y019648D01*
X015887Y019806D02*
X002260Y019806D01*
X002325Y019965D02*
X015901Y019965D01*
X015915Y020123D02*
X002391Y020123D01*
X002472Y020282D02*
X015930Y020282D01*
X015944Y020440D02*
X002552Y020440D01*
X002632Y020599D02*
X015959Y020599D01*
X015973Y020757D02*
X002713Y020757D01*
X002793Y020916D02*
X015987Y020916D01*
X016002Y021074D02*
X002887Y021074D01*
X002985Y021233D02*
X016016Y021233D01*
X016031Y021391D02*
X003082Y021391D01*
X003180Y021550D02*
X016045Y021550D01*
X016059Y021708D02*
X003277Y021708D01*
X003392Y021867D02*
X014056Y021867D01*
X014102Y021820D02*
X013979Y021944D01*
X013912Y022105D01*
X013912Y022881D01*
X013979Y023042D01*
X014102Y023166D01*
X014264Y023233D01*
X014439Y023233D01*
X014601Y023166D01*
X014725Y023042D01*
X014792Y022881D01*
X014792Y022105D01*
X014725Y021944D01*
X014601Y021820D01*
X014439Y021753D01*
X014264Y021753D01*
X014102Y021820D01*
X013945Y022025D02*
X003530Y022025D01*
X003667Y022184D02*
X013912Y022184D01*
X013912Y022342D02*
X003845Y022342D01*
X004028Y022501D02*
X013912Y022501D01*
X013912Y022659D02*
X004211Y022659D01*
X004394Y022818D02*
X013912Y022818D01*
X013951Y022976D02*
X004630Y022976D01*
X004877Y023135D02*
X014071Y023135D01*
X014632Y023135D02*
X015071Y023135D01*
X015102Y023166D02*
X014979Y023042D01*
X014912Y022881D01*
X014912Y022105D01*
X014979Y021944D01*
X015102Y021820D01*
X015264Y021753D01*
X015439Y021753D01*
X015601Y021820D01*
X015725Y021944D01*
X015792Y022105D01*
X015792Y022881D01*
X015725Y023042D01*
X015601Y023166D01*
X015439Y023233D01*
X015264Y023233D01*
X015102Y023166D01*
X014951Y022976D02*
X014752Y022976D01*
X014792Y022818D02*
X014912Y022818D01*
X014912Y022659D02*
X014792Y022659D01*
X014792Y022501D02*
X014912Y022501D01*
X014912Y022342D02*
X014792Y022342D01*
X014792Y022184D02*
X014912Y022184D01*
X014945Y022025D02*
X014758Y022025D01*
X014648Y021867D02*
X015056Y021867D01*
X015648Y021867D02*
X016056Y021867D01*
X015945Y022025D02*
X015758Y022025D01*
X015792Y022184D02*
X015912Y022184D01*
X015912Y022342D02*
X015792Y022342D01*
X015792Y022501D02*
X015912Y022501D01*
X015912Y022659D02*
X015792Y022659D01*
X015792Y022818D02*
X015912Y022818D01*
X015951Y022976D02*
X015752Y022976D01*
X015632Y023135D02*
X016071Y023135D01*
X016792Y022342D02*
X016912Y022342D01*
X016912Y022184D02*
X016792Y022184D01*
X016758Y022025D02*
X016945Y022025D01*
X017056Y021867D02*
X016648Y021867D01*
X018758Y022025D02*
X018945Y022025D01*
X018912Y022184D02*
X018792Y022184D01*
X018792Y022342D02*
X018912Y022342D01*
X018912Y022501D02*
X018792Y022501D01*
X018792Y022659D02*
X018912Y022659D01*
X018912Y022818D02*
X018792Y022818D01*
X018752Y022976D02*
X018951Y022976D01*
X019071Y023135D02*
X018632Y023135D01*
X016928Y024244D02*
X013631Y024244D01*
X013715Y024403D02*
X016572Y024403D01*
X016679Y024325D02*
X016679Y024325D01*
X016380Y024561D02*
X013725Y024561D01*
X013767Y024720D02*
X016265Y024720D01*
X016214Y024790D02*
X016214Y024790D01*
X016185Y024878D02*
X013810Y024878D01*
X013901Y025037D02*
X016134Y025037D01*
X016111Y025195D02*
X014006Y025195D01*
X014165Y025354D02*
X016101Y025354D01*
X016017Y025512D02*
X014411Y025512D01*
X007243Y024086D02*
X028999Y024086D01*
X029690Y023927D02*
X006628Y023927D01*
X006111Y023769D02*
X030270Y023769D01*
X030688Y023610D02*
X005764Y023610D01*
X005417Y023452D02*
X031106Y023452D01*
X031427Y023293D02*
X005123Y023293D01*
X011410Y017270D02*
X013626Y017270D01*
X013396Y017112D02*
X011723Y017112D01*
X011816Y016953D02*
X013166Y016953D01*
X010406Y017112D02*
X001492Y017112D01*
X018663Y018697D02*
X019684Y018697D01*
X023922Y018697D02*
X024603Y018697D01*
X024608Y018855D02*
X023922Y018855D01*
X023922Y019014D02*
X024614Y019014D01*
X024619Y019172D02*
X023922Y019172D01*
X023922Y019331D02*
X024624Y019331D01*
X024630Y019489D02*
X023930Y019489D01*
X023922Y018538D02*
X024597Y018538D01*
X024592Y018380D02*
X023922Y018380D01*
X023922Y018221D02*
X024587Y018221D01*
X024581Y018063D02*
X023922Y018063D01*
X023922Y017904D02*
X024576Y017904D01*
X024571Y017746D02*
X023922Y017746D01*
X023922Y017587D02*
X024565Y017587D01*
X024560Y017429D02*
X023922Y017429D01*
X027982Y018431D02*
X030602Y018441D01*
X030602Y016941D01*
X026545Y022025D02*
X026358Y022025D01*
X026392Y022184D02*
X026512Y022184D01*
X026512Y022342D02*
X026392Y022342D01*
D17*
X028952Y019691D03*
X027982Y018431D03*
X030602Y016941D03*
X032402Y013941D03*
X029037Y013773D03*
X025402Y013141D03*
X024102Y012641D03*
X023702Y013541D03*
X019802Y011941D03*
X016902Y013941D03*
X014582Y013261D03*
X015752Y012441D03*
X015132Y011731D03*
X019202Y014741D03*
X015902Y016141D03*
X026102Y010641D03*
X025802Y010041D03*
X025702Y009341D03*
X026281Y008261D03*
X028902Y007041D03*
X030802Y010841D03*
X011114Y008641D03*
D18*
X020966Y004871D02*
X020952Y003493D01*
X020966Y004871D02*
X021754Y005308D01*
X027069Y005308D01*
X027856Y006095D01*
X027856Y012395D01*
X028446Y013182D01*
X029037Y013773D01*
M02*
