%
M48
M72
T01C0.0240
T02C0.0400
T03C0.1260
%
T01
X6952Y9733
X8171Y12354
X9252Y12933
X9952Y12833
X10552Y12533
X12552Y14533
X13452Y14933
X13052Y13233
X13683Y9598
X13852Y6233
X10752Y7833
X16852Y8033
X18342Y10653
X19602Y9683
X14652Y19433
X13852Y21733
X12352Y22883
X11642Y23503
X13172Y24053
X16052Y22733
X11852Y18833
X8552Y27521
T02
X9702Y27571
X10702Y27571
X11702Y27571
X12702Y27571
X13702Y27571
X14702Y27571
X15702Y27571
X16702Y27571
X22403Y24283
X22403Y23283
X22403Y22283
X22403Y21283
X22403Y20283
X22403Y19283
X22403Y17683
X22403Y16683
X22403Y15683
X22403Y14683
X22403Y13683
X22403Y12683
X22403Y11683
X22403Y10683
X6596Y17472
X3403Y17683
X3403Y18683
X3403Y19683
X3403Y20683
X3403Y21683
X3403Y22683
X3403Y15683
X3403Y14683
X3403Y13683
X3403Y12683
X3403Y11683
X3403Y10683
T03
X12895Y31402
M30
