G75*
%MOIN*%
%OFA0B0*%
%FSLAX24Y24*%
%IPPOS*%
%LPD*%
%AMOC8*
5,1,8,0,0,1.08239X$1,22.5*
%
%ADD10R,0.0220X0.0500*%
%ADD11R,0.0500X0.0220*%
%ADD12R,0.0394X0.0433*%
%ADD13R,0.0433X0.0394*%
%ADD14R,0.0709X0.0630*%
%ADD15R,0.0591X0.2953*%
%ADD16R,0.0394X0.2559*%
%ADD17R,0.0590X0.0790*%
%ADD18R,0.1500X0.0790*%
%ADD19C,0.0118*%
%ADD20R,0.0315X0.0472*%
%ADD21C,0.0240*%
%ADD22C,0.0177*%
D10*
X012099Y012543D03*
X012414Y012543D03*
X012729Y012543D03*
X013044Y012543D03*
X013359Y012543D03*
X013674Y012543D03*
X013989Y012543D03*
X014304Y012543D03*
X014304Y015923D03*
X013989Y015923D03*
X013674Y015923D03*
X013359Y015923D03*
X013044Y015923D03*
X012729Y015923D03*
X012414Y015923D03*
X012099Y015923D03*
D11*
X011512Y015336D03*
X011512Y015021D03*
X011512Y014706D03*
X011512Y014391D03*
X011512Y014076D03*
X011512Y013761D03*
X011512Y013446D03*
X011512Y013131D03*
X014892Y013131D03*
X014892Y013446D03*
X014892Y013761D03*
X014892Y014076D03*
X014892Y014391D03*
X014892Y014706D03*
X014892Y015021D03*
X014892Y015336D03*
D12*
X007902Y008049D03*
X007902Y008718D03*
X012052Y009199D03*
X012052Y009868D03*
D13*
X013517Y008333D03*
X014186Y008333D03*
X012536Y007683D03*
X011867Y007683D03*
X010736Y006183D03*
X010067Y006183D03*
X018017Y007633D03*
X018686Y007633D03*
X014686Y017783D03*
X014017Y017783D03*
X006753Y025343D03*
X006083Y025343D03*
D14*
X010802Y009885D03*
X010802Y008782D03*
X009302Y008935D03*
X009302Y007832D03*
D15*
X011517Y003055D03*
X014273Y003055D03*
D16*
X013289Y003251D03*
X012502Y003251D03*
D17*
X015242Y009323D03*
X016142Y009323D03*
X017042Y009323D03*
D18*
X016152Y006843D03*
D19*
X006625Y023908D02*
X006625Y024184D01*
X006901Y024184D01*
X006901Y023908D01*
X006625Y023908D01*
X006625Y024025D02*
X006901Y024025D01*
X006901Y024142D02*
X006625Y024142D01*
X005935Y024184D02*
X005935Y023908D01*
X005935Y024184D02*
X006211Y024184D01*
X006211Y023908D01*
X005935Y023908D01*
X005935Y024025D02*
X006211Y024025D01*
X006211Y024142D02*
X005935Y024142D01*
D20*
X017997Y009433D03*
X018706Y009433D03*
X014206Y007133D03*
X013497Y007133D03*
D21*
X015972Y011261D02*
X016532Y011261D01*
X016532Y012206D02*
X015972Y012206D01*
D22*
X016564Y011733D02*
X016564Y011733D01*
X015940Y011733D01*
X015940Y011733D01*
X016564Y011733D01*
M02*
