G75*
%MOIN*%
%OFA0B0*%
%FSLAX24Y24*%
%IPPOS*%
%LPD*%
%AMOC8*
5,1,8,0,0,1.08239X$1,22.5*
%
%ADD10C,0.1300*%
%ADD11R,0.0260X0.0540*%
%ADD12R,0.0540X0.0260*%
%ADD13R,0.0434X0.0473*%
%ADD14R,0.0473X0.0434*%
%ADD15R,0.0749X0.0670*%
%ADD16R,0.0631X0.2993*%
%ADD17R,0.0434X0.2599*%
%ADD18R,0.0630X0.0830*%
%ADD19R,0.1540X0.0830*%
%ADD20C,0.0640*%
%ADD21C,0.0130*%
%ADD22R,0.0355X0.0512*%
%ADD23C,0.0280*%
%ADD24C,0.0217*%
%ADD25R,0.0750X0.0250*%
%ADD26R,0.0775X0.0350*%
%ADD27R,0.0750X0.0300*%
%ADD28OC8,0.0640*%
D10*
X012895Y031402D03*
D11*
X013044Y015923D03*
X012729Y015923D03*
X012414Y015923D03*
X012099Y015923D03*
X013359Y015923D03*
X013674Y015923D03*
X013989Y015923D03*
X014304Y015923D03*
X014304Y012543D03*
X013989Y012543D03*
X013674Y012543D03*
X013359Y012543D03*
X013044Y012543D03*
X012729Y012543D03*
X012414Y012543D03*
X012099Y012543D03*
D12*
X011512Y013131D03*
X011512Y013446D03*
X011512Y013761D03*
X011512Y014076D03*
X011512Y014391D03*
X011512Y014706D03*
X011512Y015021D03*
X011512Y015336D03*
X014892Y015336D03*
X014892Y015021D03*
X014892Y014706D03*
X014892Y014391D03*
X014892Y014076D03*
X014892Y013761D03*
X014892Y013446D03*
X014892Y013131D03*
D13*
X007902Y008049D03*
X007902Y008718D03*
X012052Y009199D03*
X012052Y009868D03*
D14*
X013517Y008333D03*
X014186Y008333D03*
X012536Y007683D03*
X011867Y007683D03*
X010736Y006183D03*
X010067Y006183D03*
X018017Y007633D03*
X018686Y007633D03*
X014686Y017783D03*
X014017Y017783D03*
X006753Y025343D03*
X006083Y025343D03*
D15*
X010802Y009885D03*
X010802Y008782D03*
X009302Y008935D03*
X009302Y007832D03*
D16*
X011517Y003055D03*
X014273Y003055D03*
D17*
X013289Y003251D03*
X012502Y003251D03*
D18*
X015242Y009323D03*
X016142Y009323D03*
X017042Y009323D03*
D19*
X016152Y006843D03*
D20*
X022103Y010683D02*
X022703Y010683D01*
X022703Y011683D02*
X022103Y011683D01*
X022103Y012683D02*
X022703Y012683D01*
X022703Y013683D02*
X022103Y013683D01*
X022103Y014683D02*
X022703Y014683D01*
X022703Y015683D02*
X022103Y015683D01*
X022103Y016683D02*
X022703Y016683D01*
X022703Y017683D02*
X022103Y017683D01*
X022103Y019283D02*
X022703Y019283D01*
X022703Y020283D02*
X022103Y020283D01*
X022103Y021283D02*
X022703Y021283D01*
X022703Y022283D02*
X022103Y022283D01*
X022103Y023283D02*
X022703Y023283D01*
X022703Y024283D02*
X022103Y024283D01*
X016702Y027271D02*
X016702Y027871D01*
X015702Y027871D02*
X015702Y027271D01*
X014702Y027271D02*
X014702Y027871D01*
X013702Y027871D02*
X013702Y027271D01*
X012702Y027271D02*
X012702Y027871D01*
X011702Y027871D02*
X011702Y027271D01*
X010702Y027271D02*
X010702Y027871D01*
X009702Y027871D02*
X009702Y027271D01*
X003703Y022683D02*
X003103Y022683D01*
X003103Y021683D02*
X003703Y021683D01*
X003703Y020683D02*
X003103Y020683D01*
X003103Y019683D02*
X003703Y019683D01*
X003703Y018683D02*
X003103Y018683D01*
X003103Y017683D02*
X003703Y017683D01*
X003703Y015683D02*
X003103Y015683D01*
X003103Y014683D02*
X003703Y014683D01*
X003703Y013683D02*
X003103Y013683D01*
X003103Y012683D02*
X003703Y012683D01*
X003703Y011683D02*
X003103Y011683D01*
X003103Y010683D02*
X003703Y010683D01*
D21*
X005921Y023894D02*
X005921Y024198D01*
X006225Y024198D01*
X006225Y023894D01*
X005921Y023894D01*
X005921Y024023D02*
X006225Y024023D01*
X006225Y024152D02*
X005921Y024152D01*
X006611Y024198D02*
X006611Y023894D01*
X006611Y024198D02*
X006915Y024198D01*
X006915Y023894D01*
X006611Y023894D01*
X006611Y024023D02*
X006915Y024023D01*
X006915Y024152D02*
X006611Y024152D01*
D22*
X017997Y009433D03*
X018706Y009433D03*
X014206Y007133D03*
X013497Y007133D03*
D23*
X015972Y011261D02*
X016532Y011261D01*
X016532Y012206D02*
X015972Y012206D01*
D24*
X016564Y011733D02*
X016564Y011733D01*
X015940Y011733D01*
X015940Y011733D01*
X016564Y011733D01*
D25*
X016252Y011733D03*
D26*
X016264Y012208D03*
D27*
X016252Y011258D03*
D28*
X006596Y017472D03*
M02*
