G75*
%MOIN*%
%OFA0B0*%
%FSLAX24Y24*%
%IPPOS*%
%LPD*%
%AMOC8*
5,1,8,0,0,1.08239X$1,22.5*
%
%ADD10C,0.0130*%
%ADD11R,0.0220X0.0500*%
%ADD12R,0.0500X0.0220*%
%ADD13R,0.0394X0.0433*%
%ADD14R,0.0433X0.0394*%
%ADD15R,0.0709X0.0630*%
%ADD16R,0.0591X0.2953*%
%ADD17R,0.0394X0.2559*%
%ADD18R,0.0590X0.0790*%
%ADD19R,0.1500X0.0790*%
%ADD20C,0.0600*%
%ADD21C,0.0118*%
%ADD22R,0.0315X0.0472*%
%ADD23C,0.0240*%
%ADD24C,0.0177*%
%ADD25C,0.0100*%
%ADD26OC8,0.0600*%
%ADD27C,0.0160*%
%ADD28C,0.0360*%
D10*
X006442Y007550D02*
X006287Y007705D01*
X006287Y007860D01*
X006442Y008015D02*
X006674Y007937D01*
X006752Y007860D01*
X006752Y007705D01*
X006597Y007550D01*
X006442Y007550D01*
X006442Y008015D02*
X006674Y008247D01*
X006985Y007937D01*
X006317Y008605D02*
X005851Y008140D01*
X005696Y008295D02*
X006007Y007985D01*
X006007Y008605D02*
X006317Y008605D01*
X005882Y008885D02*
X005261Y008885D01*
X005261Y008730D01*
X005416Y008575D01*
X005571Y008575D01*
X005882Y008885D01*
X005882Y009040D01*
X005727Y009195D01*
X005571Y009195D01*
X005261Y008885D01*
X004981Y009010D02*
X004671Y009320D01*
X005291Y009320D01*
X005369Y009398D01*
X005369Y009553D01*
X005214Y009708D01*
X005059Y009708D01*
X003250Y023666D02*
X003482Y023899D01*
X003482Y024054D01*
X003405Y024131D01*
X003250Y024131D01*
X003017Y023899D01*
X003250Y024131D02*
X003250Y024287D01*
X003172Y024364D01*
X003017Y024364D01*
X002784Y024131D01*
X003250Y023666D01*
X003685Y024256D02*
X003840Y024256D01*
X003995Y024411D01*
X003995Y024567D01*
X003917Y024644D01*
X003762Y024644D01*
X003607Y024489D01*
X003452Y024489D01*
X003375Y024567D01*
X003375Y024722D01*
X003530Y024877D01*
X003685Y024877D01*
X003965Y025002D02*
X004042Y025079D01*
X004352Y024769D01*
X004275Y024692D02*
X004430Y024847D01*
X004539Y025111D02*
X004384Y025266D01*
X004384Y025421D01*
X004617Y025654D01*
X004462Y025809D02*
X004927Y025343D01*
X004694Y025111D01*
X004539Y025111D01*
X003887Y025234D02*
X003810Y025312D01*
X004897Y025779D02*
X004897Y025934D01*
X005052Y026089D01*
X005207Y026089D01*
X005284Y026011D01*
X004974Y025701D01*
X005052Y025624D02*
X004897Y025779D01*
X005052Y025624D02*
X005207Y025624D01*
X005362Y025779D01*
X005642Y026059D02*
X005875Y026291D01*
X005875Y026446D01*
X005720Y026446D01*
X005565Y026291D01*
X005409Y026291D01*
X005409Y026446D01*
X005642Y026679D01*
X006202Y027549D02*
X006435Y027782D01*
X006590Y027782D01*
X006745Y027627D01*
X006745Y027472D01*
X006512Y027239D01*
X006667Y027084D02*
X006202Y027549D01*
X006715Y028062D02*
X006947Y028295D01*
X007103Y028295D01*
X007258Y028139D01*
X007258Y027984D01*
X007025Y027752D01*
X007180Y027907D02*
X007490Y027907D01*
X007180Y027597D02*
X006715Y028062D01*
D11*
X012099Y015923D03*
X012414Y015923D03*
X012729Y015923D03*
X013044Y015923D03*
X013359Y015923D03*
X013674Y015923D03*
X013989Y015923D03*
X014304Y015923D03*
X014304Y012543D03*
X013989Y012543D03*
X013674Y012543D03*
X013359Y012543D03*
X013044Y012543D03*
X012729Y012543D03*
X012414Y012543D03*
X012099Y012543D03*
D12*
X011512Y013131D03*
X011512Y013446D03*
X011512Y013761D03*
X011512Y014076D03*
X011512Y014391D03*
X011512Y014706D03*
X011512Y015021D03*
X011512Y015336D03*
X014892Y015336D03*
X014892Y015021D03*
X014892Y014706D03*
X014892Y014391D03*
X014892Y014076D03*
X014892Y013761D03*
X014892Y013446D03*
X014892Y013131D03*
D13*
X012052Y009868D03*
X012052Y009199D03*
X007902Y008718D03*
X007902Y008049D03*
D14*
X010067Y006183D03*
X010736Y006183D03*
X011867Y007683D03*
X012536Y007683D03*
X013517Y008333D03*
X014186Y008333D03*
X018017Y007633D03*
X018686Y007633D03*
X014686Y017783D03*
X014017Y017783D03*
X006753Y025343D03*
X006083Y025343D03*
D15*
X010802Y009885D03*
X010802Y008782D03*
X009302Y008935D03*
X009302Y007832D03*
D16*
X011517Y003055D03*
X014273Y003055D03*
D17*
X013289Y003251D03*
X012502Y003251D03*
D18*
X015242Y009323D03*
X016142Y009323D03*
X017042Y009323D03*
D19*
X016152Y006843D03*
D20*
X022103Y010683D02*
X022703Y010683D01*
X022703Y011683D02*
X022103Y011683D01*
X022103Y012683D02*
X022703Y012683D01*
X022703Y013683D02*
X022103Y013683D01*
X022103Y014683D02*
X022703Y014683D01*
X022703Y015683D02*
X022103Y015683D01*
X022103Y016683D02*
X022703Y016683D01*
X022703Y017683D02*
X022103Y017683D01*
X022103Y019283D02*
X022703Y019283D01*
X022703Y020283D02*
X022103Y020283D01*
X022103Y021283D02*
X022703Y021283D01*
X022703Y022283D02*
X022103Y022283D01*
X022103Y023283D02*
X022703Y023283D01*
X022703Y024283D02*
X022103Y024283D01*
X016702Y027271D02*
X016702Y027871D01*
X015702Y027871D02*
X015702Y027271D01*
X014702Y027271D02*
X014702Y027871D01*
X013702Y027871D02*
X013702Y027271D01*
X012702Y027271D02*
X012702Y027871D01*
X011702Y027871D02*
X011702Y027271D01*
X010702Y027271D02*
X010702Y027871D01*
X009702Y027871D02*
X009702Y027271D01*
X003703Y022683D02*
X003103Y022683D01*
X003103Y021683D02*
X003703Y021683D01*
X003703Y020683D02*
X003103Y020683D01*
X003103Y019683D02*
X003703Y019683D01*
X003703Y018683D02*
X003103Y018683D01*
X003103Y017683D02*
X003703Y017683D01*
X003703Y015683D02*
X003103Y015683D01*
X003103Y014683D02*
X003703Y014683D01*
X003703Y013683D02*
X003103Y013683D01*
X003103Y012683D02*
X003703Y012683D01*
X003703Y011683D02*
X003103Y011683D01*
X003103Y010683D02*
X003703Y010683D01*
D21*
X005935Y023908D02*
X005935Y024184D01*
X006211Y024184D01*
X006211Y023908D01*
X005935Y023908D01*
X005935Y024025D02*
X006211Y024025D01*
X006211Y024142D02*
X005935Y024142D01*
X006625Y024184D02*
X006625Y023908D01*
X006625Y024184D02*
X006901Y024184D01*
X006901Y023908D01*
X006625Y023908D01*
X006625Y024025D02*
X006901Y024025D01*
X006901Y024142D02*
X006625Y024142D01*
D22*
X017997Y009433D03*
X018706Y009433D03*
X014206Y007133D03*
X013497Y007133D03*
D23*
X015972Y011261D02*
X016532Y011261D01*
X016532Y012206D02*
X015972Y012206D01*
D24*
X016564Y011733D02*
X016564Y011733D01*
X015940Y011733D01*
X015940Y011733D01*
X016564Y011733D01*
D25*
X016777Y011733D02*
X016252Y011733D01*
X015727Y011733D01*
X015727Y012206D02*
X016252Y012206D01*
X016777Y012206D01*
X016777Y011261D02*
X016252Y011261D01*
X015727Y011261D01*
X012152Y015633D02*
X012099Y015923D01*
D26*
X006596Y017472D03*
D27*
X004754Y007547D02*
X005259Y007113D01*
X005800Y006724D01*
X006372Y006382D01*
X006971Y006091D01*
X007593Y005852D01*
X008233Y005667D01*
X008887Y005537D01*
X009549Y005464D01*
X010370Y005464D01*
X010467Y005456D01*
X010560Y005430D01*
X010648Y005389D01*
X010728Y005334D01*
X010797Y005265D01*
X010852Y005186D01*
X010893Y005098D01*
X010918Y005004D01*
X010927Y004907D01*
X010927Y004310D01*
X011042Y004310D01*
X011042Y004555D01*
X011054Y004600D01*
X011078Y004641D01*
X011112Y004675D01*
X011153Y004699D01*
X011198Y004711D01*
X011450Y004711D01*
X011450Y003533D01*
X011585Y003533D01*
X011585Y004711D01*
X011836Y004711D01*
X011847Y004708D01*
X011859Y004749D01*
X011939Y004915D01*
X012040Y005067D01*
X012163Y005204D01*
X012235Y005264D01*
X012235Y005408D01*
X011369Y005918D01*
X011093Y005937D01*
X011093Y005928D01*
X011011Y005846D01*
X010462Y005846D01*
X010429Y005879D01*
X010428Y005876D01*
X010394Y005842D01*
X010353Y005819D01*
X010307Y005806D01*
X010085Y005806D01*
X010085Y006165D01*
X010049Y006165D01*
X010049Y005806D01*
X009827Y005806D01*
X009781Y005819D01*
X009740Y005842D01*
X009706Y005876D01*
X009683Y005917D01*
X009670Y005963D01*
X009670Y006165D01*
X010048Y006165D01*
X010048Y006202D01*
X009670Y006202D01*
X009670Y006404D01*
X009683Y006450D01*
X009706Y006491D01*
X009740Y006524D01*
X009781Y006548D01*
X009827Y006560D01*
X010049Y006560D01*
X010049Y006202D01*
X010085Y006202D01*
X010085Y006560D01*
X010307Y006560D01*
X010353Y006548D01*
X010394Y006524D01*
X010428Y006491D01*
X010429Y006488D01*
X010462Y006520D01*
X010473Y006520D01*
X010399Y007130D01*
X009743Y007407D01*
X009714Y007377D01*
X008889Y007377D01*
X008807Y007459D01*
X008807Y007612D01*
X007810Y007612D01*
X007730Y007692D01*
X007647Y007692D01*
X007565Y007774D01*
X007565Y008323D01*
X007625Y008383D01*
X007565Y008443D01*
X007565Y008993D01*
X007647Y009075D01*
X007691Y009075D01*
X007730Y010548D01*
X007720Y010561D01*
X007732Y010637D01*
X007734Y010715D01*
X007745Y010726D01*
X007748Y010741D01*
X007810Y010787D01*
X007866Y010840D01*
X007882Y010840D01*
X010232Y012571D01*
X010232Y012597D01*
X010280Y012715D01*
X010370Y012805D01*
X010487Y012853D01*
X010622Y013077D01*
X010620Y013088D01*
X010668Y013153D01*
X010710Y013223D01*
X010722Y013225D01*
X010722Y013226D01*
X010644Y013226D01*
X010272Y012846D01*
X010272Y012770D01*
X010223Y012652D01*
X010133Y012562D01*
X010015Y012513D01*
X009888Y012513D01*
X009770Y012562D01*
X009680Y012652D01*
X009632Y012770D01*
X009632Y012897D01*
X009680Y013015D01*
X009770Y013105D01*
X009888Y013153D01*
X009957Y013153D01*
X010332Y013536D01*
X010332Y013537D01*
X010335Y013541D01*
X010145Y013541D01*
X009572Y012948D01*
X009572Y012870D01*
X009523Y012752D01*
X009433Y012662D01*
X009315Y012613D01*
X009188Y012613D01*
X009070Y012662D01*
X008980Y012752D01*
X008932Y012870D01*
X008932Y012997D01*
X008980Y013115D01*
X009070Y013205D01*
X009188Y013253D01*
X009255Y013253D01*
X009832Y013850D01*
X009832Y013852D01*
X009835Y013856D01*
X009805Y013856D01*
X009304Y013564D01*
X008744Y012817D01*
X008486Y012430D01*
X008491Y012417D01*
X008491Y012290D01*
X008442Y012173D01*
X008352Y012083D01*
X008235Y012034D01*
X008107Y012034D01*
X007990Y012083D01*
X007900Y012173D01*
X007851Y012290D01*
X007851Y012417D01*
X007894Y012521D01*
X007453Y011967D01*
X007452Y011947D01*
X007398Y011897D01*
X007352Y011840D01*
X007332Y011838D01*
X006834Y011386D01*
X006833Y011381D01*
X006767Y011325D01*
X006702Y011267D01*
X006697Y011267D01*
X005908Y010601D01*
X005855Y010544D01*
X005840Y010544D01*
X005829Y010534D01*
X005751Y010541D01*
X004098Y010486D01*
X004076Y010434D01*
X003952Y010310D01*
X003791Y010243D01*
X003016Y010243D01*
X002854Y010310D01*
X002814Y010351D01*
X002815Y010335D01*
X002867Y010052D01*
X002955Y009778D01*
X003077Y009517D01*
X003231Y009273D01*
X003414Y009051D01*
X003623Y008853D01*
X003863Y008536D01*
X004287Y008022D01*
X004754Y007547D01*
X004839Y007473D02*
X006228Y007473D01*
X006202Y007500D02*
X006357Y007345D01*
X006682Y007345D01*
X006802Y007465D01*
X006837Y007500D01*
X006957Y007620D01*
X006957Y007732D01*
X007069Y007732D01*
X007190Y007852D01*
X007190Y008022D01*
X006879Y008332D01*
X006879Y008332D01*
X006759Y008452D01*
X006589Y008452D01*
X006320Y008183D01*
X006274Y008160D01*
X006263Y008125D01*
X006237Y008100D01*
X006237Y008065D01*
X006212Y008065D01*
X006212Y008070D01*
X006141Y008140D01*
X006522Y008520D01*
X006522Y008690D01*
X006402Y008810D01*
X006232Y008810D01*
X006087Y008810D01*
X006087Y008955D01*
X006087Y009016D01*
X006087Y009125D01*
X006087Y009125D01*
X006023Y009188D01*
X005967Y009245D01*
X005932Y009280D01*
X005811Y009400D01*
X005574Y009400D01*
X005574Y009468D01*
X005574Y009531D01*
X005574Y009638D01*
X005509Y009703D01*
X005454Y009758D01*
X005419Y009793D01*
X005299Y009913D01*
X004974Y009913D01*
X004854Y009793D01*
X004854Y009623D01*
X004952Y009525D01*
X004756Y009525D01*
X004586Y009525D01*
X004466Y009405D01*
X004466Y009235D01*
X004586Y009115D01*
X004586Y009115D01*
X004896Y008805D01*
X005056Y008805D01*
X005056Y008645D01*
X005331Y008370D01*
X005491Y008370D01*
X005491Y008210D01*
X005646Y008055D01*
X005767Y007935D01*
X005922Y007780D01*
X006082Y007780D01*
X006082Y007620D01*
X006202Y007500D01*
X006082Y007632D02*
X004670Y007632D01*
X004515Y007790D02*
X005911Y007790D01*
X005767Y007935D02*
X005767Y007935D01*
X005752Y007949D02*
X004359Y007949D01*
X004217Y008107D02*
X005594Y008107D01*
X005646Y008055D02*
X005646Y008055D01*
X005491Y008266D02*
X004086Y008266D01*
X003955Y008424D02*
X005277Y008424D01*
X005118Y008583D02*
X003827Y008583D01*
X003707Y008741D02*
X005056Y008741D01*
X004801Y008900D02*
X003573Y008900D01*
X003407Y009058D02*
X004643Y009058D01*
X004484Y009217D02*
X003277Y009217D01*
X003166Y009375D02*
X004466Y009375D01*
X004854Y009692D02*
X002995Y009692D01*
X002932Y009851D02*
X004912Y009851D01*
X004943Y009534D02*
X003069Y009534D01*
X002881Y010009D02*
X007715Y010009D01*
X007711Y009851D02*
X005361Y009851D01*
X005419Y009793D02*
X005419Y009793D01*
X005454Y009758D02*
X005454Y009758D01*
X005519Y009692D02*
X007707Y009692D01*
X007703Y009534D02*
X005574Y009534D01*
X005574Y009468D02*
X005574Y009468D01*
X005574Y009638D02*
X005574Y009638D01*
X005574Y009638D01*
X005836Y009375D02*
X007699Y009375D01*
X007695Y009217D02*
X005995Y009217D01*
X005967Y009245D02*
X005967Y009245D01*
X006087Y009125D02*
X006087Y009125D01*
X006087Y009058D02*
X007631Y009058D01*
X007565Y008900D02*
X006087Y008900D01*
X006087Y008955D02*
X006087Y008955D01*
X006232Y008810D02*
X006232Y008810D01*
X006470Y008741D02*
X007565Y008741D01*
X007565Y008583D02*
X006522Y008583D01*
X006561Y008424D02*
X006426Y008424D01*
X006403Y008266D02*
X006268Y008266D01*
X006244Y008107D02*
X006174Y008107D01*
X006787Y008424D02*
X007584Y008424D01*
X007565Y008266D02*
X006946Y008266D01*
X007104Y008107D02*
X007565Y008107D01*
X007565Y007949D02*
X007190Y007949D01*
X007128Y007790D02*
X007565Y007790D01*
X007791Y007632D02*
X006957Y007632D01*
X006837Y007500D02*
X006837Y007500D01*
X006811Y007473D02*
X008807Y007473D01*
X008807Y008052D02*
X008238Y008052D01*
X008238Y008323D01*
X008178Y008383D01*
X008238Y008443D01*
X008238Y008993D01*
X008156Y009075D01*
X008131Y009075D01*
X008169Y010505D01*
X010488Y012213D01*
X010615Y012213D01*
X010733Y012262D01*
X010823Y012352D01*
X010872Y012470D01*
X010872Y012597D01*
X010861Y012621D01*
X010987Y012829D01*
X011330Y012881D01*
X011820Y012881D01*
X011879Y012941D01*
X011879Y012881D01*
X011849Y012851D01*
X011849Y012235D01*
X011931Y012153D01*
X012194Y012153D01*
X012194Y010225D01*
X011797Y010225D01*
X011715Y010143D01*
X011715Y009593D01*
X011775Y009533D01*
X011715Y009473D01*
X011715Y009286D01*
X011334Y009110D01*
X011296Y009102D01*
X011296Y009155D01*
X011214Y009237D01*
X010389Y009237D01*
X010307Y009155D01*
X010307Y008409D01*
X010389Y008327D01*
X011214Y008327D01*
X011296Y008409D01*
X011296Y008654D01*
X011383Y008671D01*
X011411Y008661D01*
X011470Y008688D01*
X011533Y008700D01*
X011550Y008725D01*
X011738Y008812D01*
X011650Y008426D01*
X011629Y008404D01*
X011631Y008340D01*
X011617Y008278D01*
X011633Y008252D01*
X011639Y008020D01*
X011592Y008020D01*
X011510Y007938D01*
X011510Y007428D01*
X011592Y007346D01*
X011658Y007346D01*
X011680Y006693D01*
X011663Y006654D01*
X011683Y006605D01*
X011685Y006553D01*
X011716Y006524D01*
X011731Y006485D01*
X011780Y006464D01*
X011818Y006429D01*
X011860Y006430D01*
X012905Y005983D01*
X013100Y005561D01*
X012987Y005563D01*
X012805Y005540D01*
X012689Y005508D01*
X012675Y005561D01*
X012675Y005624D01*
X012653Y005646D01*
X012645Y005677D01*
X012591Y005709D01*
X012546Y005753D01*
X012515Y005753D01*
X011579Y006305D01*
X011543Y006346D01*
X011503Y006349D01*
X011469Y006369D01*
X011416Y006355D01*
X011093Y006378D01*
X011093Y006438D01*
X011011Y006520D01*
X010917Y006520D01*
X010827Y007252D01*
X010840Y007282D01*
X010816Y007339D01*
X010809Y007401D01*
X010783Y007421D01*
X010771Y007451D01*
X010714Y007475D01*
X010665Y007513D01*
X010633Y007509D01*
X009796Y007862D01*
X009796Y008205D01*
X009714Y008287D01*
X008889Y008287D01*
X008807Y008205D01*
X008807Y008052D01*
X008807Y008107D02*
X008238Y008107D01*
X008238Y008266D02*
X008868Y008266D01*
X008924Y008440D02*
X009224Y008440D01*
X009224Y008857D01*
X008767Y008857D01*
X008767Y008596D01*
X008780Y008550D01*
X008803Y008509D01*
X008837Y008476D01*
X008878Y008452D01*
X008924Y008440D01*
X008771Y008583D02*
X008238Y008583D01*
X008238Y008741D02*
X008767Y008741D01*
X008767Y009012D02*
X009224Y009012D01*
X009224Y008857D01*
X009379Y008857D01*
X009379Y008440D01*
X009680Y008440D01*
X009725Y008452D01*
X009766Y008476D01*
X009800Y008509D01*
X009824Y008550D01*
X009836Y008596D01*
X009836Y008857D01*
X009379Y008857D01*
X009379Y009012D01*
X009224Y009012D01*
X009224Y009429D01*
X008924Y009429D01*
X008878Y009417D01*
X008837Y009394D01*
X008803Y009360D01*
X008780Y009319D01*
X008767Y009273D01*
X008767Y009012D01*
X008767Y009058D02*
X008173Y009058D01*
X008135Y009217D02*
X008767Y009217D01*
X008819Y009375D02*
X008139Y009375D01*
X008143Y009534D02*
X010270Y009534D01*
X010267Y009546D02*
X010280Y009500D01*
X010303Y009459D01*
X010337Y009426D01*
X010378Y009402D01*
X010424Y009390D01*
X010724Y009390D01*
X010724Y009807D01*
X010267Y009807D01*
X010267Y009546D01*
X010267Y009692D02*
X008147Y009692D01*
X008151Y009851D02*
X010724Y009851D01*
X010724Y009807D02*
X010724Y009962D01*
X010267Y009962D01*
X010267Y010223D01*
X010280Y010269D01*
X010303Y010310D01*
X010337Y010344D01*
X010378Y010367D01*
X010424Y010379D01*
X010724Y010379D01*
X010724Y009962D01*
X010879Y009962D01*
X010879Y010379D01*
X011180Y010379D01*
X011225Y010367D01*
X011266Y010344D01*
X011300Y010310D01*
X011324Y010269D01*
X011336Y010223D01*
X011336Y009962D01*
X010879Y009962D01*
X010879Y009807D01*
X010879Y009390D01*
X011180Y009390D01*
X011225Y009402D01*
X011266Y009426D01*
X011300Y009459D01*
X011324Y009500D01*
X011336Y009546D01*
X011336Y009807D01*
X010879Y009807D01*
X010724Y009807D01*
X010724Y009692D02*
X010879Y009692D01*
X010879Y009534D02*
X010724Y009534D01*
X010879Y009851D02*
X011715Y009851D01*
X011715Y010009D02*
X011336Y010009D01*
X011336Y010168D02*
X011740Y010168D01*
X012052Y009868D02*
X012414Y009868D01*
X012414Y012543D01*
X012414Y013433D01*
X012852Y013733D01*
X013052Y013833D01*
X013452Y014233D01*
X013452Y014933D01*
X013672Y014701D02*
X013723Y014752D01*
X013769Y014863D01*
X013769Y013753D01*
X013560Y013753D01*
X013432Y013624D01*
X013432Y012973D01*
X013359Y012973D01*
X013225Y012973D01*
X013180Y012961D01*
X013139Y012937D01*
X013134Y012933D01*
X012954Y012933D01*
X012950Y012937D01*
X012909Y012961D01*
X012863Y012973D01*
X012729Y012973D01*
X012634Y012973D01*
X012634Y013317D01*
X012964Y013543D01*
X013104Y013613D01*
X013143Y013613D01*
X013182Y013653D01*
X013231Y013677D01*
X013244Y013714D01*
X013672Y014142D01*
X013672Y014701D01*
X013728Y014764D02*
X013769Y014764D01*
X013769Y014606D02*
X013672Y014606D01*
X013672Y014447D02*
X013769Y014447D01*
X013769Y014289D02*
X013672Y014289D01*
X013660Y014130D02*
X013769Y014130D01*
X013769Y013972D02*
X013501Y013972D01*
X013343Y013813D02*
X013769Y013813D01*
X013652Y013533D02*
X013989Y013533D01*
X013989Y015923D01*
X013989Y017183D01*
X014017Y017783D01*
X013033Y017866D01*
X010730Y017866D01*
X010139Y018456D01*
X006793Y018456D01*
X005809Y019440D01*
X005809Y021015D01*
X005415Y021683D01*
X003403Y021683D01*
X003016Y021243D02*
X003791Y021243D01*
X003952Y021310D01*
X004076Y021434D01*
X004088Y021463D01*
X005289Y021463D01*
X005589Y020955D01*
X005589Y019349D01*
X006573Y018365D01*
X006702Y018236D01*
X010048Y018236D01*
X010510Y017774D01*
X010639Y017646D01*
X013023Y017646D01*
X013660Y017592D01*
X013660Y017528D01*
X013742Y017446D01*
X013781Y017446D01*
X013773Y017279D01*
X013769Y017274D01*
X013769Y017188D01*
X013765Y017103D01*
X013769Y017098D01*
X013769Y016313D01*
X013579Y016313D01*
X013579Y016671D01*
X013588Y016749D01*
X013579Y016761D01*
X013579Y016776D01*
X013524Y016831D01*
X013115Y017351D01*
X013115Y017366D01*
X013060Y017421D01*
X013012Y017483D01*
X012997Y017484D01*
X012986Y017495D01*
X012908Y017495D01*
X012831Y017504D01*
X012819Y017495D01*
X010766Y017495D01*
X010258Y017664D01*
X010230Y017692D01*
X010175Y017692D01*
X010122Y017709D01*
X010087Y017692D01*
X006998Y017692D01*
X006778Y017912D01*
X006414Y017912D01*
X006156Y017654D01*
X006156Y017290D01*
X006414Y017032D01*
X006778Y017032D01*
X006998Y017252D01*
X010104Y017252D01*
X010611Y017083D01*
X010639Y017055D01*
X010694Y017055D01*
X010747Y017038D01*
X010782Y017055D01*
X012788Y017055D01*
X013139Y016608D01*
X013139Y016313D01*
X012624Y016313D01*
X012622Y016396D01*
X012638Y016452D01*
X012620Y016484D01*
X012619Y016520D01*
X012577Y016560D01*
X012549Y016611D01*
X012514Y016620D01*
X012487Y016646D01*
X012429Y016644D01*
X011766Y016830D01*
X011743Y016853D01*
X011682Y016853D01*
X011623Y016870D01*
X011594Y016853D01*
X006642Y016853D01*
X006580Y016869D01*
X006554Y016853D01*
X006523Y016853D01*
X006478Y016808D01*
X005030Y015946D01*
X004908Y015946D01*
X004905Y015949D01*
X004817Y015946D01*
X004729Y015946D01*
X004727Y015944D01*
X004080Y015924D01*
X004076Y015933D01*
X003952Y016056D01*
X003791Y016123D01*
X003016Y016123D01*
X002854Y016056D01*
X002730Y015933D01*
X002663Y015771D01*
X002663Y015596D01*
X002730Y015434D01*
X002854Y015310D01*
X003016Y015243D01*
X003791Y015243D01*
X003952Y015310D01*
X004076Y015434D01*
X004097Y015484D01*
X004824Y015506D01*
X005063Y015506D01*
X005125Y015491D01*
X005151Y015506D01*
X005182Y015506D01*
X005227Y015551D01*
X006675Y016413D01*
X011621Y016413D01*
X011836Y016353D01*
X011414Y016353D01*
X011335Y016362D01*
X011324Y016353D01*
X011310Y016353D01*
X011255Y016298D01*
X010824Y015953D01*
X008020Y015953D01*
X008002Y015966D01*
X007932Y015953D01*
X007860Y015953D01*
X007845Y015937D01*
X006510Y015694D01*
X006468Y015705D01*
X006424Y015679D01*
X006374Y015670D01*
X006349Y015633D01*
X004975Y014803D01*
X004107Y014859D01*
X004076Y014933D01*
X003952Y015056D01*
X003791Y015123D01*
X003016Y015123D01*
X002854Y015056D01*
X002730Y014933D01*
X002663Y014771D01*
X002663Y014596D01*
X002730Y014434D01*
X002854Y014310D01*
X003016Y014243D01*
X003791Y014243D01*
X003952Y014310D01*
X004063Y014421D01*
X004996Y014361D01*
X005066Y014344D01*
X005085Y014355D01*
X005107Y014354D01*
X005160Y014401D01*
X006583Y015260D01*
X007670Y015458D01*
X006926Y015155D01*
X006893Y015159D01*
X006844Y015122D01*
X006787Y015099D01*
X006775Y015068D01*
X006429Y014803D01*
X005270Y013955D01*
X004081Y013922D01*
X004076Y013933D01*
X003952Y014056D01*
X003791Y014123D01*
X003016Y014123D01*
X002854Y014056D01*
X002730Y013933D01*
X002663Y013771D01*
X002663Y013596D01*
X002730Y013434D01*
X002854Y013310D01*
X003016Y013243D01*
X003791Y013243D01*
X003952Y013310D01*
X004076Y013434D01*
X004096Y013482D01*
X005331Y013516D01*
X005401Y013505D01*
X005419Y013518D01*
X005442Y013519D01*
X005491Y013571D01*
X006620Y014397D01*
X006623Y014397D01*
X006693Y014451D01*
X006765Y014503D01*
X006765Y014506D01*
X007065Y014737D01*
X007993Y015115D01*
X008001Y015115D01*
X007187Y014552D01*
X007163Y014552D01*
X007115Y014502D01*
X007058Y014462D01*
X007053Y014438D01*
X006253Y013606D01*
X005245Y012993D01*
X004073Y012936D01*
X003952Y013056D01*
X003791Y013123D01*
X003016Y013123D01*
X002854Y013056D01*
X002730Y012933D01*
X002663Y012771D01*
X002663Y012596D01*
X002730Y012434D01*
X002854Y012310D01*
X003016Y012243D01*
X003791Y012243D01*
X003952Y012310D01*
X004076Y012434D01*
X004102Y012497D01*
X005291Y012555D01*
X005348Y012541D01*
X005378Y012559D01*
X005413Y012561D01*
X005453Y012604D01*
X006455Y013215D01*
X006487Y013215D01*
X006530Y013260D01*
X006584Y013293D01*
X006591Y013324D01*
X007401Y014165D01*
X008320Y014801D01*
X008578Y014801D01*
X007914Y014253D01*
X007901Y014252D01*
X007845Y014196D01*
X007784Y014145D01*
X007783Y014132D01*
X007212Y013550D01*
X005488Y011992D01*
X004076Y011932D01*
X004076Y011933D01*
X003952Y012056D01*
X003791Y012123D01*
X003016Y012123D01*
X002854Y012056D01*
X002730Y011933D01*
X002663Y011771D01*
X002663Y011596D01*
X002730Y011434D01*
X002854Y011310D01*
X003016Y011243D01*
X003791Y011243D01*
X003952Y011310D01*
X004076Y011434D01*
X004100Y011493D01*
X005576Y011556D01*
X005657Y011552D01*
X005665Y011559D01*
X005677Y011560D01*
X005732Y011619D01*
X007450Y013172D01*
X007457Y013172D01*
X007517Y013232D01*
X007579Y013289D01*
X007580Y013296D01*
X008143Y013871D01*
X008888Y014486D01*
X008934Y014486D01*
X008934Y014473D01*
X008483Y013932D01*
X008068Y013442D01*
X008064Y013442D01*
X008009Y013373D01*
X007952Y013306D01*
X007953Y013302D01*
X007076Y012199D01*
X006477Y011656D01*
X005673Y010978D01*
X004079Y010926D01*
X004076Y010933D01*
X003952Y011056D01*
X003791Y011123D01*
X003016Y011123D01*
X002854Y011056D01*
X002748Y010951D01*
X002090Y015312D01*
X001996Y016493D01*
X002051Y018359D01*
X002067Y018344D01*
X002242Y017642D01*
X002242Y017578D01*
X002264Y017556D01*
X002271Y017527D01*
X002326Y017494D01*
X002371Y017449D01*
X002401Y017449D01*
X002427Y017433D01*
X002489Y017449D01*
X002724Y017449D01*
X002730Y017434D01*
X002854Y017310D01*
X003016Y017243D01*
X003791Y017243D01*
X003952Y017310D01*
X004076Y017434D01*
X004143Y017596D01*
X004143Y017771D01*
X004076Y017933D01*
X003952Y018056D01*
X003791Y018123D01*
X003016Y018123D01*
X002854Y018056D01*
X002730Y017933D01*
X002712Y017889D01*
X002634Y017889D01*
X002485Y018483D01*
X002485Y020133D01*
X002919Y020283D01*
X003016Y020243D01*
X003791Y020243D01*
X003952Y020310D01*
X004076Y020434D01*
X004143Y020596D01*
X004143Y020771D01*
X004076Y020933D01*
X003952Y021056D01*
X003791Y021123D01*
X003016Y021123D01*
X002854Y021056D01*
X002730Y020933D01*
X002663Y020771D01*
X002663Y020660D01*
X002228Y020510D01*
X002174Y020510D01*
X002146Y020481D01*
X002113Y020470D01*
X002155Y021910D01*
X002208Y022591D01*
X002325Y023264D01*
X002505Y023923D01*
X002579Y024118D01*
X002579Y024047D01*
X002582Y024044D01*
X002812Y023814D01*
X002812Y023814D01*
X002932Y023694D01*
X002932Y023694D01*
X003045Y023581D01*
X003165Y023461D01*
X003335Y023461D01*
X003687Y023814D01*
X003687Y024051D01*
X003925Y024051D01*
X004045Y024171D01*
X004200Y024327D01*
X004200Y024487D01*
X004360Y024487D01*
X004635Y024762D01*
X004635Y024906D01*
X004779Y024906D01*
X004899Y025026D01*
X005132Y025259D01*
X005132Y025419D01*
X005292Y025419D01*
X005412Y025539D01*
X005567Y025694D01*
X005567Y025854D01*
X005727Y025854D01*
X005960Y026086D01*
X006080Y026206D01*
X006080Y026531D01*
X005960Y026651D01*
X005847Y026651D01*
X005847Y026764D01*
X005727Y026884D01*
X005557Y026884D01*
X005325Y026651D01*
X005325Y026651D01*
X005207Y026534D01*
X005204Y026531D01*
X005204Y026294D01*
X004967Y026294D01*
X004899Y026226D01*
X004812Y026139D01*
X004694Y026021D01*
X004692Y026019D01*
X004692Y025869D01*
X004547Y026014D01*
X004377Y026014D01*
X004257Y025894D01*
X004257Y025724D01*
X004327Y025654D01*
X004299Y025626D01*
X004182Y025509D01*
X004179Y025506D01*
X004179Y025232D01*
X004130Y025281D01*
X004127Y025284D01*
X004092Y025284D01*
X004092Y025319D01*
X003895Y025517D01*
X003725Y025517D01*
X003605Y025397D01*
X003605Y025227D01*
X003750Y025082D01*
X003615Y025082D01*
X003552Y025082D01*
X003445Y025082D01*
X003445Y025082D01*
X003445Y025082D01*
X003380Y025017D01*
X003325Y024962D01*
X003290Y024927D01*
X003290Y024927D01*
X003170Y024807D01*
X003170Y024569D01*
X003102Y024569D01*
X003102Y024569D01*
X003041Y024569D01*
X002932Y024569D01*
X002862Y024499D01*
X002812Y024449D01*
X002699Y024336D01*
X002640Y024277D01*
X002748Y024562D01*
X003050Y025175D01*
X003409Y025756D01*
X003822Y026300D01*
X004285Y026803D01*
X004794Y027260D01*
X005343Y027666D01*
X005929Y028017D01*
X006546Y028312D01*
X006749Y028386D01*
X006742Y028379D01*
X006630Y028267D01*
X006630Y028267D01*
X006515Y028152D01*
X006510Y028147D01*
X006510Y027987D01*
X006459Y027987D01*
X006350Y027987D01*
X006350Y027987D01*
X006350Y027987D01*
X006279Y027916D01*
X006230Y027867D01*
X006117Y027754D01*
X006003Y027640D01*
X005997Y027634D01*
X005997Y027464D01*
X006000Y027461D01*
X006307Y027154D01*
X006427Y027034D01*
X006427Y027034D01*
X006583Y026879D01*
X006752Y026879D01*
X006872Y026999D01*
X006872Y027169D01*
X006802Y027239D01*
X006830Y027267D01*
X006950Y027387D01*
X006950Y027537D01*
X007095Y027392D01*
X007265Y027392D01*
X007385Y027512D01*
X007385Y027682D01*
X007365Y027702D01*
X007575Y027702D01*
X007695Y027822D01*
X007695Y027992D01*
X007575Y028112D01*
X007463Y028112D01*
X007463Y028224D01*
X007343Y028344D01*
X007187Y028500D01*
X007060Y028500D01*
X007188Y028546D01*
X007849Y028718D01*
X008523Y028827D01*
X009205Y028871D01*
X017007Y028994D01*
X017336Y028979D01*
X017662Y028924D01*
X017978Y028829D01*
X018281Y028697D01*
X018565Y028528D01*
X018825Y028325D01*
X020211Y026761D01*
X021119Y025132D01*
X019928Y025694D01*
X019468Y026969D01*
X020027Y026969D01*
X020167Y026810D02*
X019525Y026810D01*
X019582Y026652D02*
X020272Y026652D01*
X020360Y026493D02*
X019639Y026493D01*
X019697Y026335D02*
X020448Y026335D01*
X020537Y026176D02*
X019754Y026176D01*
X019811Y026018D02*
X020625Y026018D01*
X020713Y025859D02*
X019868Y025859D01*
X019925Y025701D02*
X020802Y025701D01*
X020890Y025542D02*
X020248Y025542D01*
X020585Y025384D02*
X020978Y025384D01*
X020921Y025225D02*
X021067Y025225D01*
X020898Y024750D02*
X015572Y024750D01*
X015572Y024908D02*
X020561Y024908D01*
X020225Y025067D02*
X015572Y025067D01*
X015572Y025181D02*
X015882Y025803D01*
X015922Y025842D01*
X015922Y025881D01*
X015939Y025916D01*
X015922Y025969D01*
X015922Y026886D01*
X015951Y026898D01*
X016075Y027021D01*
X016142Y027183D01*
X016142Y027958D01*
X016075Y028120D01*
X015951Y028244D01*
X015789Y028311D01*
X015614Y028311D01*
X015452Y028244D01*
X015329Y028120D01*
X015262Y027958D01*
X015262Y027183D01*
X015329Y027021D01*
X015452Y026898D01*
X015482Y026886D01*
X015482Y025985D01*
X015171Y025364D01*
X015132Y025324D01*
X015132Y025285D01*
X015114Y025250D01*
X015132Y025198D01*
X015132Y021373D01*
X014525Y019727D01*
X014470Y019705D01*
X014380Y019615D01*
X014332Y019497D01*
X014332Y019370D01*
X014380Y019252D01*
X014470Y019162D01*
X014588Y019113D01*
X014715Y019113D01*
X014833Y019162D01*
X014923Y019252D01*
X014972Y019370D01*
X014972Y019497D01*
X014939Y019576D01*
X015541Y021212D01*
X015572Y021242D01*
X015572Y021294D01*
X015590Y021343D01*
X015572Y021382D01*
X015572Y025181D01*
X015594Y025225D02*
X019889Y025225D01*
X019658Y025334D02*
X021193Y024611D01*
X021191Y024487D01*
X019292Y024460D01*
X019247Y024478D01*
X019204Y024459D01*
X019157Y024458D01*
X019124Y024424D01*
X018504Y024154D01*
X018453Y024152D01*
X018423Y024119D01*
X018383Y024102D01*
X018365Y024054D01*
X016492Y021985D01*
X016432Y021924D01*
X016432Y021918D01*
X016427Y021913D01*
X016432Y021828D01*
X016432Y019798D01*
X015380Y018172D01*
X015332Y018124D01*
X015332Y018098D01*
X015317Y018076D01*
X015332Y018010D01*
X015332Y017376D01*
X015203Y017053D01*
X014560Y017053D01*
X014213Y016706D01*
X014209Y016702D01*
X014209Y017178D01*
X014221Y017446D01*
X014291Y017446D01*
X014324Y017479D01*
X014326Y017476D01*
X014359Y017442D01*
X014400Y017419D01*
X014446Y017406D01*
X014668Y017406D01*
X014668Y017765D01*
X014705Y017765D01*
X014705Y017802D01*
X015083Y017802D01*
X015083Y018004D01*
X015070Y018050D01*
X015047Y018091D01*
X015013Y018124D01*
X014972Y018148D01*
X014926Y018160D01*
X014705Y018160D01*
X014705Y017802D01*
X014668Y017802D01*
X014668Y018160D01*
X014446Y018160D01*
X014400Y018148D01*
X014359Y018124D01*
X014326Y018091D01*
X014324Y018088D01*
X014291Y018120D01*
X014234Y018120D01*
X014222Y019784D01*
X014222Y020430D01*
X014989Y021913D01*
X014934Y022087D01*
X014772Y022171D01*
X014598Y022115D01*
X013822Y020615D01*
X013782Y020574D01*
X013782Y020537D01*
X013764Y020503D01*
X013782Y020449D01*
X013782Y019873D01*
X013781Y019873D01*
X013782Y019783D01*
X013782Y019692D01*
X013782Y019692D01*
X013794Y018120D01*
X013742Y018120D01*
X013660Y018038D01*
X013660Y018034D01*
X013131Y018078D01*
X013124Y018086D01*
X013042Y018086D01*
X012960Y018092D01*
X012952Y018086D01*
X010821Y018086D01*
X010230Y018676D01*
X006884Y018676D01*
X006029Y019532D01*
X006029Y020987D01*
X006044Y021048D01*
X006029Y021075D01*
X006029Y021106D01*
X005984Y021151D01*
X005635Y021743D01*
X005635Y021774D01*
X005590Y021819D01*
X005558Y021874D01*
X005528Y021881D01*
X005506Y021903D01*
X005443Y021903D01*
X005382Y021919D01*
X005355Y021903D01*
X004088Y021903D01*
X004076Y021933D01*
X003952Y022056D01*
X003791Y022123D01*
X003016Y022123D01*
X002854Y022056D01*
X002730Y021933D01*
X002663Y021771D01*
X002663Y021596D01*
X002730Y021434D01*
X002854Y021310D01*
X003016Y021243D01*
X002968Y021263D02*
X002136Y021263D01*
X002141Y021421D02*
X002743Y021421D01*
X002670Y021580D02*
X002145Y021580D01*
X002150Y021738D02*
X002663Y021738D01*
X002715Y021897D02*
X002155Y021897D01*
X002166Y022055D02*
X002853Y022055D01*
X003016Y022243D02*
X002854Y022310D01*
X002730Y022434D01*
X002663Y022596D01*
X002663Y022771D01*
X002730Y022933D01*
X002854Y023056D01*
X003016Y023123D01*
X003791Y023123D01*
X003952Y023056D01*
X004076Y022933D01*
X004143Y022771D01*
X004143Y022596D01*
X004076Y022434D01*
X003952Y022310D01*
X003791Y022243D01*
X003016Y022243D01*
X002792Y022372D02*
X002191Y022372D01*
X002179Y022214D02*
X013632Y022214D01*
X013632Y022372D02*
X004014Y022372D01*
X004116Y022531D02*
X013632Y022531D01*
X013632Y022689D02*
X012610Y022689D01*
X012623Y022702D02*
X012672Y022820D01*
X012672Y022947D01*
X012670Y022950D01*
X012939Y023324D01*
X012942Y023324D01*
X012992Y023397D01*
X013043Y023469D01*
X013043Y023472D01*
X013220Y023733D01*
X013235Y023733D01*
X013353Y023782D01*
X013443Y023872D01*
X013492Y023990D01*
X013492Y024117D01*
X013443Y024235D01*
X013353Y024325D01*
X013235Y024373D01*
X013108Y024373D01*
X012990Y024325D01*
X012900Y024235D01*
X012852Y024117D01*
X012852Y023990D01*
X012856Y023980D01*
X012631Y023649D01*
X012311Y023203D01*
X012288Y023203D01*
X012170Y023155D01*
X012080Y023065D01*
X012032Y022947D01*
X012032Y022820D01*
X012080Y022702D01*
X012170Y022612D01*
X012288Y022563D01*
X012415Y022563D01*
X012533Y022612D01*
X012623Y022702D01*
X012672Y022848D02*
X013632Y022848D01*
X013632Y023006D02*
X012711Y023006D01*
X012825Y023165D02*
X013632Y023165D01*
X013632Y023323D02*
X012939Y023323D01*
X013049Y023482D02*
X013632Y023482D01*
X013632Y023640D02*
X013157Y023640D01*
X013370Y023799D02*
X013632Y023799D01*
X013632Y023957D02*
X013478Y023957D01*
X013492Y024116D02*
X013632Y024116D01*
X013632Y024274D02*
X013403Y024274D01*
X013597Y024433D02*
X006300Y024433D01*
X006299Y024377D02*
X006302Y024544D01*
X006303Y024545D01*
X006303Y024635D01*
X006305Y024724D01*
X006303Y024725D01*
X006303Y025006D01*
X006358Y025006D01*
X006418Y025066D01*
X006478Y025006D01*
X007027Y025006D01*
X007109Y025088D01*
X007109Y025228D01*
X008587Y025713D01*
X008643Y025713D01*
X008670Y025741D01*
X008707Y025753D01*
X008732Y025803D01*
X008772Y025842D01*
X008772Y025881D01*
X008789Y025915D01*
X008772Y025969D01*
X008772Y027288D01*
X008823Y027339D01*
X008872Y027457D01*
X008872Y027584D01*
X008823Y027702D01*
X008733Y027792D01*
X008615Y027841D01*
X008488Y027841D01*
X008370Y027792D01*
X008280Y027702D01*
X008232Y027584D01*
X008232Y027457D01*
X008280Y027339D01*
X008332Y027288D01*
X008332Y026093D01*
X007039Y025668D01*
X007027Y025680D01*
X006478Y025680D01*
X006418Y025620D01*
X006358Y025680D01*
X005809Y025680D01*
X005727Y025598D01*
X005727Y025088D01*
X005809Y025006D01*
X005863Y025006D01*
X005863Y024638D01*
X005859Y024383D01*
X005853Y024383D01*
X005736Y024266D01*
X005736Y023826D01*
X005853Y023709D01*
X006293Y023709D01*
X006404Y023820D01*
X006414Y023795D01*
X006440Y023756D01*
X006473Y023722D01*
X006512Y023696D01*
X006556Y023678D01*
X006602Y023669D01*
X006745Y023669D01*
X006745Y024027D01*
X006782Y024027D01*
X006782Y023669D01*
X006925Y023669D01*
X006971Y023678D01*
X007014Y023696D01*
X007054Y023722D01*
X007087Y023756D01*
X007113Y023795D01*
X007131Y023838D01*
X007140Y023885D01*
X007140Y024028D01*
X006782Y024028D01*
X006782Y024064D01*
X007140Y024064D01*
X007140Y024207D01*
X007131Y024253D01*
X007113Y024297D01*
X007087Y024336D01*
X007054Y024369D01*
X007014Y024396D01*
X006971Y024414D01*
X006925Y024423D01*
X006782Y024423D01*
X006782Y024064D01*
X006745Y024064D01*
X006745Y024423D01*
X006602Y024423D01*
X006556Y024414D01*
X006512Y024396D01*
X006473Y024369D01*
X006440Y024336D01*
X006414Y024297D01*
X006404Y024272D01*
X006299Y024377D01*
X006401Y024274D02*
X006404Y024274D01*
X006303Y024591D02*
X013344Y024591D01*
X013090Y024750D02*
X006303Y024750D01*
X006303Y024908D02*
X012810Y024908D01*
X012944Y024841D02*
X013632Y024411D01*
X013632Y021966D01*
X013580Y021915D01*
X013532Y021797D01*
X013532Y021670D01*
X013580Y021552D01*
X013670Y021462D01*
X013788Y021413D01*
X013915Y021413D01*
X014033Y021462D01*
X014123Y021552D01*
X014172Y021670D01*
X014172Y021797D01*
X014123Y021915D01*
X014072Y021966D01*
X014072Y024470D01*
X014086Y024494D01*
X014072Y024558D01*
X014072Y024624D01*
X014052Y024644D01*
X014045Y024672D01*
X013989Y024707D01*
X013943Y024753D01*
X013915Y024753D01*
X013235Y025178D01*
X013231Y025189D01*
X013159Y025225D01*
X013091Y025268D01*
X013079Y025265D01*
X012377Y025617D01*
X011922Y026031D01*
X011922Y026886D01*
X011951Y026898D01*
X012075Y027021D01*
X012142Y027183D01*
X012142Y027958D01*
X012075Y028120D01*
X011951Y028244D01*
X011789Y028311D01*
X011614Y028311D01*
X011452Y028244D01*
X011329Y028120D01*
X011262Y027958D01*
X011262Y027183D01*
X011329Y027021D01*
X011452Y026898D01*
X011482Y026886D01*
X011482Y026018D01*
X011477Y026014D01*
X011482Y025928D01*
X011482Y025842D01*
X011486Y025838D01*
X011486Y025832D01*
X011550Y025774D01*
X011610Y025713D01*
X011617Y025713D01*
X012061Y025309D01*
X012072Y025277D01*
X012126Y025250D01*
X012171Y025209D01*
X012205Y025211D01*
X012944Y024841D01*
X013052Y025033D02*
X012252Y025433D01*
X011702Y025933D01*
X011702Y027571D01*
X012118Y027127D02*
X012285Y027127D01*
X012262Y027183D02*
X012329Y027021D01*
X012452Y026898D01*
X012614Y026831D01*
X012789Y026831D01*
X012951Y026898D01*
X013075Y027021D01*
X013142Y027183D01*
X013142Y027958D01*
X013075Y028120D01*
X012951Y028244D01*
X012789Y028311D01*
X012614Y028311D01*
X012452Y028244D01*
X012329Y028120D01*
X012262Y027958D01*
X012262Y027183D01*
X012262Y027286D02*
X012142Y027286D01*
X012142Y027444D02*
X012262Y027444D01*
X012262Y027603D02*
X012142Y027603D01*
X012142Y027761D02*
X012262Y027761D01*
X012262Y027920D02*
X012142Y027920D01*
X012092Y028078D02*
X012311Y028078D01*
X012445Y028237D02*
X011958Y028237D01*
X011445Y028237D02*
X010958Y028237D01*
X010951Y028244D02*
X010789Y028311D01*
X010614Y028311D01*
X010452Y028244D01*
X010329Y028120D01*
X010262Y027958D01*
X010262Y027183D01*
X010329Y027021D01*
X010452Y026898D01*
X010614Y026831D01*
X010789Y026831D01*
X010951Y026898D01*
X011075Y027021D01*
X011142Y027183D01*
X011142Y027958D01*
X011075Y028120D01*
X010951Y028244D01*
X011092Y028078D02*
X011311Y028078D01*
X011262Y027920D02*
X011142Y027920D01*
X011142Y027761D02*
X011262Y027761D01*
X011262Y027603D02*
X011142Y027603D01*
X011142Y027444D02*
X011262Y027444D01*
X011262Y027286D02*
X011142Y027286D01*
X011118Y027127D02*
X011285Y027127D01*
X011381Y026969D02*
X011022Y026969D01*
X011482Y026810D02*
X008772Y026810D01*
X008772Y026652D02*
X011482Y026652D01*
X011482Y026493D02*
X008772Y026493D01*
X008772Y026335D02*
X011482Y026335D01*
X011482Y026176D02*
X008772Y026176D01*
X008772Y026018D02*
X011481Y026018D01*
X011482Y025859D02*
X008772Y025859D01*
X008552Y025933D02*
X008552Y027521D01*
X008763Y027761D02*
X009262Y027761D01*
X009262Y027603D02*
X008864Y027603D01*
X008866Y027444D02*
X009262Y027444D01*
X009262Y027286D02*
X008772Y027286D01*
X008772Y027127D02*
X009285Y027127D01*
X009262Y027183D02*
X009329Y027021D01*
X009452Y026898D01*
X009614Y026831D01*
X009789Y026831D01*
X009951Y026898D01*
X010075Y027021D01*
X010142Y027183D01*
X010142Y027958D01*
X010075Y028120D01*
X009951Y028244D01*
X009789Y028311D01*
X009614Y028311D01*
X009452Y028244D01*
X009329Y028120D01*
X009262Y027958D01*
X009262Y027183D01*
X009381Y026969D02*
X008772Y026969D01*
X008332Y026969D02*
X006842Y026969D01*
X006872Y027127D02*
X008332Y027127D01*
X008332Y027286D02*
X006849Y027286D01*
X006830Y027267D02*
X006830Y027267D01*
X006950Y027444D02*
X007042Y027444D01*
X007318Y027444D02*
X008237Y027444D01*
X008239Y027603D02*
X007385Y027603D01*
X007635Y027761D02*
X008340Y027761D01*
X007695Y027920D02*
X009262Y027920D01*
X009311Y028078D02*
X007609Y028078D01*
X007450Y028237D02*
X009445Y028237D01*
X009958Y028237D02*
X010445Y028237D01*
X010311Y028078D02*
X010092Y028078D01*
X010142Y027920D02*
X010262Y027920D01*
X010262Y027761D02*
X010142Y027761D01*
X010142Y027603D02*
X010262Y027603D01*
X010262Y027444D02*
X010142Y027444D01*
X010142Y027286D02*
X010262Y027286D01*
X010285Y027127D02*
X010118Y027127D01*
X010022Y026969D02*
X010381Y026969D01*
X011630Y025701D02*
X008549Y025701D01*
X008552Y025933D02*
X006753Y025343D01*
X007109Y025225D02*
X012153Y025225D01*
X011979Y025384D02*
X007583Y025384D01*
X007621Y025859D02*
X005733Y025859D01*
X005891Y026018D02*
X008104Y026018D01*
X008332Y026176D02*
X006050Y026176D01*
X006080Y026335D02*
X008332Y026335D01*
X008332Y026493D02*
X006080Y026493D01*
X005847Y026652D02*
X008332Y026652D01*
X008332Y026810D02*
X005801Y026810D01*
X005484Y026810D02*
X004293Y026810D01*
X004146Y026652D02*
X005325Y026652D01*
X005204Y026493D02*
X004000Y026493D01*
X003854Y026335D02*
X005204Y026335D01*
X005567Y025701D02*
X007138Y025701D01*
X007088Y025067D02*
X012493Y025067D01*
X012842Y025384D02*
X015181Y025384D01*
X015122Y025225D02*
X013159Y025225D01*
X013052Y025033D02*
X013852Y024533D01*
X013852Y021733D01*
X014172Y021738D02*
X014403Y021738D01*
X014321Y021580D02*
X014134Y021580D01*
X014239Y021421D02*
X013935Y021421D01*
X013769Y021421D02*
X005825Y021421D01*
X005918Y021263D02*
X014157Y021263D01*
X014075Y021104D02*
X006029Y021104D01*
X006029Y020946D02*
X013993Y020946D01*
X013911Y020787D02*
X006029Y020787D01*
X006029Y020629D02*
X013829Y020629D01*
X013775Y020470D02*
X006029Y020470D01*
X006029Y020312D02*
X013782Y020312D01*
X013782Y020153D02*
X006029Y020153D01*
X006029Y019995D02*
X013782Y019995D01*
X013781Y019836D02*
X006029Y019836D01*
X006029Y019678D02*
X013782Y019678D01*
X013784Y019519D02*
X006041Y019519D01*
X006199Y019361D02*
X013785Y019361D01*
X013786Y019202D02*
X006358Y019202D01*
X006516Y019044D02*
X013787Y019044D01*
X013788Y018885D02*
X006675Y018885D01*
X006833Y018727D02*
X013790Y018727D01*
X013791Y018568D02*
X010338Y018568D01*
X010497Y018410D02*
X013792Y018410D01*
X013793Y018251D02*
X010655Y018251D01*
X010814Y018093D02*
X013715Y018093D01*
X014017Y017783D02*
X014002Y019783D01*
X014002Y020483D01*
X014752Y021933D01*
X014567Y022055D02*
X014072Y022055D01*
X014072Y022214D02*
X015132Y022214D01*
X015132Y022372D02*
X014072Y022372D01*
X014072Y022531D02*
X015132Y022531D01*
X015132Y022689D02*
X014072Y022689D01*
X014072Y022848D02*
X015132Y022848D01*
X015132Y023006D02*
X014072Y023006D01*
X014072Y023165D02*
X015132Y023165D01*
X015132Y023323D02*
X014072Y023323D01*
X014072Y023482D02*
X015132Y023482D01*
X015132Y023640D02*
X014072Y023640D01*
X014072Y023799D02*
X015132Y023799D01*
X015132Y023957D02*
X014072Y023957D01*
X014072Y024116D02*
X015132Y024116D01*
X015132Y024274D02*
X014072Y024274D01*
X014072Y024433D02*
X015132Y024433D01*
X015132Y024591D02*
X014072Y024591D01*
X013946Y024750D02*
X015132Y024750D01*
X015132Y024908D02*
X013667Y024908D01*
X013413Y025067D02*
X015132Y025067D01*
X015352Y025233D02*
X015702Y025933D01*
X015702Y027571D01*
X015262Y027603D02*
X015142Y027603D01*
X015142Y027761D02*
X015262Y027761D01*
X015262Y027920D02*
X015142Y027920D01*
X015142Y027958D02*
X015075Y028120D01*
X014951Y028244D01*
X014789Y028311D01*
X014614Y028311D01*
X014452Y028244D01*
X014329Y028120D01*
X014262Y027958D01*
X014262Y027183D01*
X014329Y027021D01*
X014452Y026898D01*
X014614Y026831D01*
X014789Y026831D01*
X014951Y026898D01*
X015075Y027021D01*
X015142Y027183D01*
X015142Y027958D01*
X015092Y028078D02*
X015311Y028078D01*
X015445Y028237D02*
X014958Y028237D01*
X014445Y028237D02*
X014101Y028237D01*
X014077Y028113D02*
X014131Y028398D01*
X017266Y028398D01*
X018440Y027316D01*
X018441Y027310D01*
X018507Y027255D01*
X018570Y027197D01*
X018576Y027197D01*
X019065Y026790D01*
X019544Y025459D01*
X019575Y025373D01*
X019575Y025373D01*
X019576Y025373D01*
X019658Y025334D01*
X019572Y025384D02*
X015673Y025384D01*
X015752Y025542D02*
X019514Y025542D01*
X019457Y025701D02*
X015831Y025701D01*
X015922Y025859D02*
X019400Y025859D01*
X019343Y026018D02*
X015922Y026018D01*
X015922Y026176D02*
X019286Y026176D01*
X019229Y026335D02*
X015922Y026335D01*
X015922Y026493D02*
X019172Y026493D01*
X019115Y026652D02*
X015922Y026652D01*
X015922Y026810D02*
X016565Y026810D01*
X016589Y026803D02*
X016664Y026791D01*
X016682Y026791D01*
X016682Y027551D01*
X016722Y027551D01*
X016722Y027591D01*
X017182Y027591D01*
X017182Y027909D01*
X017170Y027983D01*
X017146Y028055D01*
X017112Y028122D01*
X017068Y028183D01*
X017014Y028237D01*
X017440Y028237D01*
X017268Y028395D02*
X014130Y028395D01*
X014077Y028113D02*
X014142Y027958D01*
X014142Y027183D01*
X014075Y027021D01*
X013951Y026898D01*
X013789Y026831D01*
X013614Y026831D01*
X013452Y026898D01*
X013329Y027021D01*
X013262Y027183D01*
X013262Y027958D01*
X013329Y028120D01*
X013452Y028244D01*
X013614Y028311D01*
X013667Y028311D01*
X013728Y028638D01*
X013728Y028709D01*
X013745Y028725D01*
X013749Y028748D01*
X013807Y028788D01*
X013857Y028838D01*
X013880Y028838D01*
X013900Y028851D01*
X013969Y028838D01*
X017347Y028838D01*
X017434Y028841D01*
X017437Y028838D01*
X017443Y028838D01*
X017504Y028776D01*
X018797Y027586D01*
X019371Y027108D01*
X019428Y027081D01*
X019438Y027052D01*
X019462Y027031D01*
X019468Y026969D01*
X019347Y027127D02*
X019886Y027127D01*
X019746Y027286D02*
X019157Y027286D01*
X018967Y027444D02*
X019606Y027444D01*
X019465Y027603D02*
X018779Y027603D01*
X018652Y027421D02*
X019252Y026921D01*
X019752Y025533D01*
X022403Y024283D01*
X019252Y024240D01*
X018555Y023936D01*
X016652Y021833D01*
X016652Y019733D01*
X015552Y018033D01*
X015552Y017333D01*
X015352Y016833D01*
X014652Y016833D01*
X014304Y016486D01*
X014304Y015923D01*
X013769Y016349D02*
X013579Y016349D01*
X013579Y016508D02*
X013769Y016508D01*
X013769Y016666D02*
X013579Y016666D01*
X013530Y016825D02*
X013769Y016825D01*
X013769Y016983D02*
X013404Y016983D01*
X013280Y017142D02*
X013767Y017142D01*
X013774Y017300D02*
X013155Y017300D01*
X013031Y017459D02*
X013730Y017459D01*
X013362Y017617D02*
X010399Y017617D01*
X010509Y017776D02*
X006914Y017776D01*
X006596Y017472D02*
X010139Y017472D01*
X010730Y017275D01*
X012895Y017275D01*
X013359Y016685D01*
X013359Y015923D01*
X013139Y016349D02*
X012624Y016349D01*
X012620Y016508D02*
X013139Y016508D01*
X013094Y016666D02*
X012350Y016666D01*
X012402Y016423D02*
X011652Y016633D01*
X006614Y016633D01*
X005091Y015726D01*
X004820Y015726D01*
X003403Y015683D01*
X003976Y016032D02*
X005174Y016032D01*
X005441Y016191D02*
X002020Y016191D01*
X002008Y016349D02*
X005707Y016349D01*
X005973Y016508D02*
X001997Y016508D01*
X002002Y016666D02*
X006240Y016666D01*
X006495Y016825D02*
X002006Y016825D01*
X002011Y016983D02*
X012845Y016983D01*
X012969Y016825D02*
X011783Y016825D01*
X011306Y016349D02*
X006567Y016349D01*
X006301Y016191D02*
X011121Y016191D01*
X010923Y016032D02*
X006035Y016032D01*
X005768Y015874D02*
X007495Y015874D01*
X007522Y015398D02*
X007340Y015398D01*
X007134Y015240D02*
X006549Y015240D01*
X006504Y015470D02*
X007952Y015733D01*
X010902Y015733D01*
X011402Y016133D01*
X012099Y016133D01*
X012099Y015923D01*
X012414Y015923D02*
X012402Y016423D01*
X011512Y015336D02*
X008152Y015333D01*
X007952Y015336D01*
X006955Y014929D01*
X006561Y014627D01*
X005345Y013736D01*
X003403Y013683D01*
X003980Y013338D02*
X005812Y013338D01*
X006072Y013496D02*
X004612Y013496D01*
X004037Y013972D02*
X005294Y013972D01*
X005510Y014130D02*
X002268Y014130D01*
X002292Y013972D02*
X002769Y013972D01*
X002681Y013813D02*
X002316Y013813D01*
X002340Y013655D02*
X002663Y013655D01*
X002704Y013496D02*
X002364Y013496D01*
X002388Y013338D02*
X002826Y013338D01*
X002818Y013021D02*
X002436Y013021D01*
X002412Y013179D02*
X005552Y013179D01*
X005291Y013021D02*
X003988Y013021D01*
X004029Y012387D02*
X005925Y012387D01*
X006100Y012545D02*
X005356Y012545D01*
X005329Y012545D02*
X005100Y012545D01*
X005312Y012776D02*
X003403Y012683D01*
X002887Y012070D02*
X002579Y012070D01*
X002555Y012228D02*
X005749Y012228D01*
X005574Y012070D02*
X003920Y012070D01*
X003403Y011683D02*
X005577Y011776D01*
X007364Y013391D01*
X007994Y014033D01*
X008809Y014706D01*
X011512Y014706D01*
X011512Y015021D02*
X008252Y015021D01*
X007258Y014333D01*
X006392Y013433D01*
X005312Y012776D01*
X005617Y012704D02*
X006276Y012704D01*
X006451Y012862D02*
X005877Y012862D01*
X006137Y013021D02*
X006627Y013021D01*
X006802Y013179D02*
X006398Y013179D01*
X006605Y013338D02*
X006977Y013338D01*
X007153Y013496D02*
X006758Y013496D01*
X006910Y013655D02*
X007315Y013655D01*
X007470Y013813D02*
X007063Y013813D01*
X007215Y013972D02*
X007626Y013972D01*
X007781Y014130D02*
X007368Y014130D01*
X007580Y014289D02*
X007958Y014289D01*
X007809Y014447D02*
X008150Y014447D01*
X008039Y014606D02*
X008342Y014606D01*
X008268Y014764D02*
X008534Y014764D01*
X008842Y014447D02*
X008912Y014447D01*
X008780Y014289D02*
X008649Y014289D01*
X008648Y014130D02*
X008457Y014130D01*
X008516Y013972D02*
X008265Y013972D01*
X008382Y013813D02*
X008087Y013813D01*
X007931Y013655D02*
X008248Y013655D01*
X008114Y013496D02*
X007776Y013496D01*
X007620Y013338D02*
X007979Y013338D01*
X007855Y013179D02*
X007465Y013179D01*
X007283Y013021D02*
X007729Y013021D01*
X007603Y012862D02*
X007107Y012862D01*
X006932Y012704D02*
X007477Y012704D01*
X007351Y012545D02*
X006757Y012545D01*
X006581Y012387D02*
X007225Y012387D01*
X007099Y012228D02*
X006406Y012228D01*
X006230Y012070D02*
X006933Y012070D01*
X006758Y011911D02*
X006055Y011911D01*
X005879Y011753D02*
X006583Y011753D01*
X006403Y011594D02*
X005709Y011594D01*
X006028Y011277D02*
X003873Y011277D01*
X003801Y011119D02*
X005840Y011119D01*
X005757Y010761D02*
X003403Y010683D01*
X003005Y011119D02*
X002723Y011119D01*
X002699Y011277D02*
X002934Y011277D01*
X002729Y011436D02*
X002675Y011436D01*
X002664Y011594D02*
X002651Y011594D01*
X002663Y011753D02*
X002627Y011753D01*
X002603Y011911D02*
X002721Y011911D01*
X002777Y012387D02*
X002532Y012387D01*
X002508Y012545D02*
X002684Y012545D01*
X002663Y012704D02*
X002484Y012704D01*
X002460Y012862D02*
X002701Y012862D01*
X002906Y014289D02*
X002244Y014289D01*
X002221Y014447D02*
X002725Y014447D01*
X002663Y014606D02*
X002197Y014606D01*
X002173Y014764D02*
X002663Y014764D01*
X002726Y014923D02*
X002149Y014923D01*
X002125Y015081D02*
X002914Y015081D01*
X002766Y015398D02*
X002083Y015398D01*
X002101Y015240D02*
X005698Y015240D01*
X005436Y015081D02*
X003892Y015081D01*
X004080Y014923D02*
X005174Y014923D01*
X005030Y014579D02*
X006504Y015470D01*
X006625Y015715D02*
X005502Y015715D01*
X005236Y015557D02*
X006223Y015557D01*
X005960Y015398D02*
X004040Y015398D01*
X003403Y014683D02*
X005030Y014579D01*
X005237Y014447D02*
X005943Y014447D01*
X005727Y014289D02*
X003901Y014289D01*
X002679Y015557D02*
X002071Y015557D01*
X002058Y015715D02*
X002663Y015715D01*
X002706Y015874D02*
X002046Y015874D01*
X002033Y016032D02*
X002830Y016032D01*
X002015Y017142D02*
X006304Y017142D01*
X006156Y017300D02*
X003928Y017300D01*
X004086Y017459D02*
X006156Y017459D01*
X006156Y017617D02*
X004143Y017617D01*
X004141Y017776D02*
X006278Y017776D01*
X006687Y018251D02*
X003913Y018251D01*
X003887Y018238D02*
X003955Y018273D01*
X004016Y018317D01*
X004069Y018371D01*
X004114Y018432D01*
X004148Y018499D01*
X004171Y018571D01*
X004183Y018646D01*
X004183Y018663D01*
X003423Y018663D01*
X003423Y018203D01*
X003741Y018203D01*
X003816Y018215D01*
X003887Y018238D01*
X003864Y018093D02*
X010192Y018093D01*
X010350Y017934D02*
X004074Y017934D01*
X004098Y018410D02*
X006528Y018410D01*
X006370Y018568D02*
X004170Y018568D01*
X004183Y018703D02*
X004183Y018721D01*
X004171Y018796D01*
X004148Y018868D01*
X004114Y018935D01*
X004069Y018996D01*
X004016Y019049D01*
X003955Y019094D01*
X003887Y019128D01*
X003816Y019152D01*
X003741Y019163D01*
X003423Y019163D01*
X003423Y018703D01*
X004183Y018703D01*
X004182Y018727D02*
X006211Y018727D01*
X006053Y018885D02*
X004139Y018885D01*
X004021Y019044D02*
X005894Y019044D01*
X005736Y019202D02*
X002485Y019202D01*
X002485Y019044D02*
X002785Y019044D01*
X002790Y019049D02*
X002737Y018996D01*
X002693Y018935D01*
X002658Y018868D01*
X002635Y018796D01*
X002623Y018721D01*
X002623Y018703D01*
X003383Y018703D01*
X003383Y018663D01*
X003423Y018663D01*
X003423Y018703D01*
X003383Y018703D01*
X003383Y019163D01*
X003065Y019163D01*
X002991Y019152D01*
X002919Y019128D01*
X002852Y019094D01*
X002790Y019049D01*
X002667Y018885D02*
X002485Y018885D01*
X002485Y018727D02*
X002624Y018727D01*
X002623Y018663D02*
X002623Y018646D01*
X002635Y018571D01*
X002658Y018499D01*
X002693Y018432D01*
X002737Y018371D01*
X002790Y018317D01*
X002852Y018273D01*
X002919Y018238D01*
X002991Y018215D01*
X003065Y018203D01*
X003383Y018203D01*
X003383Y018663D01*
X002623Y018663D01*
X002636Y018568D02*
X002485Y018568D01*
X002504Y018410D02*
X002709Y018410D01*
X002543Y018251D02*
X002894Y018251D01*
X002942Y018093D02*
X002583Y018093D01*
X002623Y017934D02*
X002732Y017934D01*
X002462Y017669D02*
X003403Y017669D01*
X003403Y017683D01*
X003383Y018251D02*
X003423Y018251D01*
X003423Y018410D02*
X003383Y018410D01*
X003383Y018568D02*
X003423Y018568D01*
X003423Y018727D02*
X003383Y018727D01*
X003383Y018885D02*
X003423Y018885D01*
X003423Y019044D02*
X003383Y019044D01*
X003383Y019203D02*
X003383Y019663D01*
X003423Y019663D01*
X003423Y019203D01*
X003741Y019203D01*
X003816Y019215D01*
X003887Y019238D01*
X003955Y019273D01*
X004016Y019317D01*
X004069Y019371D01*
X004114Y019432D01*
X004148Y019499D01*
X004171Y019571D01*
X004183Y019646D01*
X004183Y019663D01*
X003423Y019663D01*
X003423Y019703D01*
X004183Y019703D01*
X004183Y019721D01*
X004171Y019796D01*
X004148Y019868D01*
X004114Y019935D01*
X004069Y019996D01*
X004016Y020049D01*
X003955Y020094D01*
X003887Y020128D01*
X003816Y020152D01*
X003741Y020163D01*
X003423Y020163D01*
X003423Y019703D01*
X003383Y019703D01*
X003383Y019663D01*
X002623Y019663D01*
X002623Y019646D01*
X002635Y019571D01*
X002658Y019499D01*
X002693Y019432D01*
X002737Y019371D01*
X002790Y019317D01*
X002852Y019273D01*
X002919Y019238D01*
X002991Y019215D01*
X003065Y019203D01*
X003383Y019203D01*
X003383Y019361D02*
X003423Y019361D01*
X003423Y019519D02*
X003383Y019519D01*
X003383Y019678D02*
X002485Y019678D01*
X002623Y019703D02*
X003383Y019703D01*
X003383Y020163D01*
X003065Y020163D01*
X002991Y020152D01*
X002919Y020128D01*
X002852Y020094D01*
X002790Y020049D01*
X002737Y019996D01*
X002693Y019935D01*
X002658Y019868D01*
X002635Y019796D01*
X002623Y019721D01*
X002623Y019703D01*
X002648Y019836D02*
X002485Y019836D01*
X002485Y019995D02*
X002736Y019995D01*
X002544Y020153D02*
X003002Y020153D01*
X003383Y020153D02*
X003423Y020153D01*
X003423Y019995D02*
X003383Y019995D01*
X003383Y019836D02*
X003423Y019836D01*
X003423Y019678D02*
X005589Y019678D01*
X005589Y019836D02*
X004158Y019836D01*
X004070Y019995D02*
X005589Y019995D01*
X005589Y020153D02*
X003804Y020153D01*
X003954Y020312D02*
X005589Y020312D01*
X005589Y020470D02*
X004091Y020470D01*
X004143Y020629D02*
X005589Y020629D01*
X005589Y020787D02*
X004136Y020787D01*
X004063Y020946D02*
X005589Y020946D01*
X005501Y021104D02*
X003836Y021104D01*
X003838Y021263D02*
X005407Y021263D01*
X005314Y021421D02*
X004063Y021421D01*
X003953Y022055D02*
X013632Y022055D01*
X013573Y021897D02*
X005513Y021897D01*
X005638Y021738D02*
X013532Y021738D01*
X013569Y021580D02*
X005731Y021580D01*
X004143Y022689D02*
X012093Y022689D01*
X012032Y022848D02*
X004111Y022848D01*
X004002Y023006D02*
X012056Y023006D01*
X012195Y023165D02*
X002308Y023165D01*
X002280Y023006D02*
X002804Y023006D01*
X002695Y022848D02*
X002252Y022848D01*
X002225Y022689D02*
X002663Y022689D01*
X002690Y022531D02*
X002203Y022531D01*
X002341Y023323D02*
X012397Y023323D01*
X012511Y023482D02*
X003355Y023482D01*
X003144Y023482D02*
X002385Y023482D01*
X002428Y023640D02*
X002986Y023640D01*
X003045Y023581D02*
X003045Y023581D01*
X002827Y023799D02*
X002471Y023799D01*
X002518Y023957D02*
X002669Y023957D01*
X002579Y024116D02*
X002579Y024116D01*
X002699Y024336D02*
X002699Y024336D01*
X002699Y024433D02*
X002796Y024433D01*
X002812Y024449D02*
X002812Y024449D01*
X002763Y024591D02*
X003170Y024591D01*
X003170Y024750D02*
X002841Y024750D01*
X002919Y024908D02*
X003271Y024908D01*
X003325Y024962D02*
X003325Y024962D01*
X003430Y025067D02*
X002997Y025067D01*
X003082Y025225D02*
X003606Y025225D01*
X003615Y025082D02*
X003615Y025082D01*
X003605Y025384D02*
X003179Y025384D01*
X003277Y025542D02*
X004216Y025542D01*
X004299Y025626D02*
X004299Y025626D01*
X004280Y025701D02*
X003375Y025701D01*
X003488Y025859D02*
X004257Y025859D01*
X004179Y025384D02*
X004028Y025384D01*
X003608Y026018D02*
X004692Y026018D01*
X004812Y026139D02*
X004812Y026139D01*
X004850Y026176D02*
X003728Y026176D01*
X004470Y026969D02*
X006493Y026969D01*
X006334Y027127D02*
X004646Y027127D01*
X004829Y027286D02*
X006176Y027286D01*
X006307Y027154D02*
X006307Y027154D01*
X006017Y027444D02*
X005044Y027444D01*
X005258Y027603D02*
X005997Y027603D01*
X006117Y027754D02*
X006117Y027754D01*
X006124Y027761D02*
X005503Y027761D01*
X005767Y027920D02*
X006283Y027920D01*
X006230Y027867D02*
X006230Y027867D01*
X006057Y028078D02*
X006510Y028078D01*
X006600Y028237D02*
X006389Y028237D01*
X006742Y028379D02*
X006742Y028379D01*
X007217Y028554D02*
X013713Y028554D01*
X013732Y028712D02*
X007825Y028712D01*
X007343Y028344D02*
X007343Y028344D01*
X007292Y028395D02*
X013683Y028395D01*
X013445Y028237D02*
X012958Y028237D01*
X013092Y028078D02*
X013311Y028078D01*
X013262Y027920D02*
X013142Y027920D01*
X013142Y027761D02*
X013262Y027761D01*
X013262Y027603D02*
X013142Y027603D01*
X013142Y027444D02*
X013262Y027444D01*
X013262Y027286D02*
X013142Y027286D01*
X013118Y027127D02*
X013285Y027127D01*
X013381Y026969D02*
X013022Y026969D01*
X012381Y026969D02*
X012022Y026969D01*
X011922Y026810D02*
X015482Y026810D01*
X015482Y026652D02*
X011922Y026652D01*
X011922Y026493D02*
X015482Y026493D01*
X015482Y026335D02*
X011922Y026335D01*
X011922Y026176D02*
X015482Y026176D01*
X015482Y026018D02*
X011936Y026018D01*
X012110Y025859D02*
X015419Y025859D01*
X015339Y025701D02*
X012284Y025701D01*
X012525Y025542D02*
X015260Y025542D01*
X015352Y025233D02*
X015352Y021333D01*
X014652Y019433D01*
X014873Y019202D02*
X016046Y019202D01*
X015943Y019044D02*
X014227Y019044D01*
X014226Y019202D02*
X014430Y019202D01*
X014335Y019361D02*
X014225Y019361D01*
X014224Y019519D02*
X014341Y019519D01*
X014444Y019678D02*
X014222Y019678D01*
X014222Y019836D02*
X014566Y019836D01*
X014624Y019995D02*
X014222Y019995D01*
X014222Y020153D02*
X014682Y020153D01*
X014741Y020312D02*
X014222Y020312D01*
X014243Y020470D02*
X014799Y020470D01*
X014858Y020629D02*
X014325Y020629D01*
X014407Y020787D02*
X014916Y020787D01*
X014974Y020946D02*
X014489Y020946D01*
X014570Y021104D02*
X015033Y021104D01*
X015091Y021263D02*
X014652Y021263D01*
X014734Y021421D02*
X015132Y021421D01*
X015132Y021580D02*
X014816Y021580D01*
X014898Y021738D02*
X015132Y021738D01*
X015132Y021897D02*
X014980Y021897D01*
X014944Y022055D02*
X015132Y022055D01*
X015572Y022055D02*
X016556Y022055D01*
X016428Y021897D02*
X015572Y021897D01*
X015572Y021738D02*
X016432Y021738D01*
X016432Y021580D02*
X015572Y021580D01*
X015572Y021421D02*
X016432Y021421D01*
X016432Y021263D02*
X015572Y021263D01*
X015502Y021104D02*
X016432Y021104D01*
X016432Y020946D02*
X015443Y020946D01*
X015385Y020787D02*
X016432Y020787D01*
X016432Y020629D02*
X015326Y020629D01*
X015268Y020470D02*
X016432Y020470D01*
X016432Y020312D02*
X015210Y020312D01*
X015151Y020153D02*
X016432Y020153D01*
X016432Y019995D02*
X015093Y019995D01*
X015035Y019836D02*
X016432Y019836D01*
X016354Y019678D02*
X014976Y019678D01*
X014962Y019519D02*
X016251Y019519D01*
X016149Y019361D02*
X014968Y019361D01*
X015636Y018568D02*
X014231Y018568D01*
X014232Y018410D02*
X015533Y018410D01*
X015431Y018251D02*
X014233Y018251D01*
X014319Y018093D02*
X014328Y018093D01*
X014668Y018093D02*
X014705Y018093D01*
X014705Y017934D02*
X014668Y017934D01*
X014705Y017776D02*
X015332Y017776D01*
X015332Y017934D02*
X015083Y017934D01*
X015045Y018093D02*
X015328Y018093D01*
X015083Y017765D02*
X014705Y017765D01*
X014705Y017406D01*
X014926Y017406D01*
X014972Y017419D01*
X015013Y017442D01*
X015047Y017476D01*
X015070Y017517D01*
X015083Y017563D01*
X015083Y017765D01*
X015083Y017617D02*
X015332Y017617D01*
X015332Y017459D02*
X015030Y017459D01*
X015301Y017300D02*
X014215Y017300D01*
X014209Y017142D02*
X015238Y017142D01*
X014705Y017459D02*
X014668Y017459D01*
X014668Y017617D02*
X014705Y017617D01*
X014343Y017459D02*
X014304Y017459D01*
X014209Y016983D02*
X014490Y016983D01*
X014332Y016825D02*
X014209Y016825D01*
X014892Y015336D02*
X015552Y015336D01*
X015852Y015633D01*
X015952Y015933D01*
X015972Y017853D01*
X016852Y019033D01*
X017252Y019533D01*
X017252Y021533D01*
X019055Y023240D01*
X022403Y023283D01*
X022403Y022283D02*
X019152Y022240D01*
X017752Y021033D01*
X017752Y019133D01*
X017252Y018633D01*
X016452Y017733D01*
X016352Y015633D01*
X015952Y015021D01*
X014892Y015021D01*
X014892Y014706D02*
X016352Y014706D01*
X016752Y015033D01*
X016852Y015533D01*
X016852Y017333D01*
X017452Y018033D01*
X018252Y018833D01*
X018252Y020240D01*
X019445Y021240D01*
X022403Y021283D01*
X022403Y020283D02*
X019742Y020436D01*
X018752Y019740D01*
X018752Y018633D01*
X017552Y017433D01*
X017552Y015433D01*
X017352Y014933D01*
X016852Y014391D01*
X014892Y014391D01*
X014892Y014076D02*
X017352Y014076D01*
X017952Y014833D01*
X018052Y017233D01*
X019852Y018733D01*
X022403Y019283D01*
X022403Y017683D02*
X019402Y017533D01*
X019052Y017233D01*
X018452Y016633D01*
X018352Y014633D01*
X017552Y013761D01*
X014892Y013761D01*
X014892Y013446D02*
X017852Y013446D01*
X017952Y013533D01*
X018752Y014333D01*
X018802Y016343D01*
X019502Y016733D01*
X022403Y016683D01*
X022403Y015683D02*
X020264Y015693D01*
X019622Y015703D01*
X019182Y015473D01*
X019152Y014133D01*
X018752Y013533D01*
X018252Y013131D01*
X014892Y013131D01*
X014304Y012543D02*
X014429Y012206D01*
X016252Y012206D01*
X016252Y011733D02*
X017873Y011732D01*
X018342Y010653D01*
X017937Y010524D02*
X017913Y010548D01*
X017904Y010580D01*
X017851Y010610D01*
X017808Y010653D01*
X017775Y010653D01*
X017745Y010670D01*
X017687Y010653D01*
X017583Y010653D01*
X017583Y012911D01*
X018240Y012911D01*
X018319Y012902D01*
X018329Y012911D01*
X018343Y012911D01*
X018399Y012967D01*
X018848Y013328D01*
X018884Y013335D01*
X018916Y013383D01*
X018960Y013419D01*
X018965Y013456D01*
X019321Y013991D01*
X019369Y014037D01*
X019370Y014064D01*
X019385Y014087D01*
X019372Y014153D01*
X019399Y015339D01*
X019674Y015482D01*
X020171Y015475D01*
X020172Y015474D01*
X020262Y015473D01*
X020352Y015472D01*
X020353Y015473D01*
X021071Y015470D01*
X021002Y010282D01*
X020969Y009774D01*
X020885Y009272D01*
X020750Y008781D01*
X020566Y008306D01*
X020335Y007853D01*
X020058Y007425D01*
X019740Y007028D01*
X019383Y006665D01*
X018991Y006341D01*
X018568Y006058D01*
X018118Y005819D01*
X017646Y005628D01*
X017158Y005485D01*
X016657Y005393D01*
X016150Y005352D01*
X015641Y005363D01*
X014487Y005447D01*
X014628Y005709D01*
X015120Y006390D01*
X015172Y006442D01*
X015172Y006462D01*
X015183Y006479D01*
X015172Y006551D01*
X015172Y008042D01*
X015344Y008214D01*
X015345Y008214D01*
X015408Y008279D01*
X015472Y008342D01*
X015472Y008344D01*
X015473Y008345D01*
X015472Y008435D01*
X015472Y008524D01*
X015471Y008525D01*
X015468Y008788D01*
X015595Y008788D01*
X015677Y008870D01*
X015677Y009776D01*
X015595Y009858D01*
X014889Y009858D01*
X014807Y009776D01*
X014807Y009407D01*
X014713Y009374D01*
X014441Y009657D01*
X014394Y009720D01*
X014379Y009722D01*
X014369Y009733D01*
X014291Y009734D01*
X013951Y009782D01*
X013864Y009869D01*
X013746Y009918D01*
X013619Y009918D01*
X013501Y009869D01*
X013411Y009779D01*
X013363Y009662D01*
X013363Y009534D01*
X013275Y009534D01*
X013272Y009540D02*
X013272Y011513D01*
X013454Y011513D01*
X013454Y010342D01*
X013583Y010213D01*
X015932Y010213D01*
X015932Y009858D01*
X015789Y009858D01*
X015707Y009776D01*
X015707Y008870D01*
X015789Y008788D01*
X016495Y008788D01*
X016576Y008870D01*
X016579Y008859D01*
X016603Y008818D01*
X016636Y008784D01*
X016677Y008761D01*
X016723Y008748D01*
X016974Y008748D01*
X016974Y009256D01*
X016577Y009256D01*
X016577Y009391D01*
X016974Y009391D01*
X016974Y009898D01*
X016723Y009898D01*
X016677Y009886D01*
X016636Y009862D01*
X016603Y009829D01*
X016579Y009788D01*
X016576Y009777D01*
X016495Y009858D01*
X016472Y009858D01*
X016472Y010213D01*
X017550Y010213D01*
X017700Y009679D01*
X017700Y009139D01*
X017781Y009058D01*
X017793Y007970D01*
X017742Y007970D01*
X017660Y007888D01*
X017660Y007378D01*
X017742Y007296D01*
X018291Y007296D01*
X018324Y007329D01*
X018326Y007326D01*
X018359Y007292D01*
X018400Y007269D01*
X018446Y007256D01*
X018668Y007256D01*
X018668Y007615D01*
X018705Y007615D01*
X018705Y007652D01*
X019083Y007652D01*
X019083Y007854D01*
X019070Y007900D01*
X019047Y007941D01*
X019013Y007974D01*
X018972Y007998D01*
X018926Y008010D01*
X018705Y008010D01*
X018705Y007652D01*
X018668Y007652D01*
X018668Y008010D01*
X018446Y008010D01*
X018400Y007998D01*
X018359Y007974D01*
X018326Y007941D01*
X018324Y007938D01*
X018291Y007970D01*
X018233Y007970D01*
X018221Y009066D01*
X018295Y009139D01*
X018295Y009728D01*
X018213Y009810D01*
X018120Y009810D01*
X017937Y010464D01*
X017937Y010524D01*
X017937Y010485D02*
X021005Y010485D01*
X021007Y010643D02*
X017818Y010643D01*
X017717Y010433D02*
X017997Y009433D01*
X018017Y007633D01*
X017660Y007632D02*
X015172Y007632D01*
X015172Y007790D02*
X017660Y007790D01*
X017721Y007949D02*
X015172Y007949D01*
X015237Y008107D02*
X017792Y008107D01*
X017790Y008266D02*
X015395Y008266D01*
X015472Y008424D02*
X017788Y008424D01*
X017787Y008583D02*
X015470Y008583D01*
X015468Y008741D02*
X017785Y008741D01*
X017783Y008900D02*
X017515Y008900D01*
X017517Y008905D02*
X017517Y009256D01*
X017109Y009256D01*
X017109Y009391D01*
X016974Y009391D01*
X016974Y009256D01*
X017109Y009256D01*
X017109Y008748D01*
X017360Y008748D01*
X017406Y008761D01*
X017447Y008784D01*
X017481Y008818D01*
X017504Y008859D01*
X017517Y008905D01*
X017517Y009058D02*
X017781Y009058D01*
X017700Y009217D02*
X017517Y009217D01*
X017517Y009391D02*
X017517Y009742D01*
X017504Y009788D01*
X017481Y009829D01*
X017447Y009862D01*
X017406Y009886D01*
X017360Y009898D01*
X017109Y009898D01*
X017109Y009391D01*
X017517Y009391D01*
X017517Y009534D02*
X017700Y009534D01*
X017696Y009692D02*
X017517Y009692D01*
X017459Y009851D02*
X017652Y009851D01*
X017607Y010009D02*
X016472Y010009D01*
X016472Y010168D02*
X017563Y010168D01*
X017717Y010433D02*
X016252Y010433D01*
X016252Y009323D01*
X016142Y009323D01*
X016152Y009323D01*
X016152Y010433D01*
X013674Y010433D01*
X013674Y011733D01*
X013674Y012543D01*
X013652Y012543D01*
X013652Y013533D01*
X013432Y013496D02*
X012895Y013496D01*
X012664Y013338D02*
X013432Y013338D01*
X013432Y013179D02*
X012634Y013179D01*
X012634Y013021D02*
X013432Y013021D01*
X013359Y012973D02*
X013359Y012543D01*
X013359Y012543D01*
X013359Y012113D01*
X013272Y012113D01*
X013272Y011953D01*
X013454Y011953D01*
X013454Y012113D01*
X013359Y012113D01*
X013359Y012543D01*
X013359Y012973D01*
X013359Y012862D02*
X013359Y012862D01*
X013359Y012704D02*
X013359Y012704D01*
X013359Y012545D02*
X013359Y012545D01*
X013359Y012543D02*
X013359Y012543D01*
X013359Y012387D02*
X013359Y012387D01*
X013359Y012228D02*
X013359Y012228D01*
X013272Y012070D02*
X013454Y012070D01*
X013674Y011733D02*
X013052Y011733D01*
X013052Y009483D01*
X012536Y007683D01*
X012893Y007632D02*
X013978Y007632D01*
X013980Y007499D02*
X013908Y007428D01*
X013908Y006839D01*
X013990Y006757D01*
X014421Y006757D01*
X014503Y006839D01*
X014503Y007428D01*
X014421Y007510D01*
X014420Y007510D01*
X014412Y007996D01*
X014461Y007996D01*
X014543Y008078D01*
X014543Y008505D01*
X014799Y008939D01*
X014807Y008942D01*
X014807Y008870D01*
X014889Y008788D01*
X015028Y008788D01*
X015031Y008523D01*
X014732Y008224D01*
X014732Y006604D01*
X014307Y006016D01*
X014291Y006011D01*
X014255Y005943D01*
X014210Y005881D01*
X014212Y005865D01*
X014066Y005592D01*
X014024Y005549D01*
X014024Y005515D01*
X014008Y005485D01*
X014009Y005482D01*
X013577Y005514D01*
X013590Y005549D01*
X013573Y005585D01*
X013574Y005625D01*
X013536Y005665D01*
X013272Y006238D01*
X013240Y006318D01*
X013234Y006320D01*
X013231Y006326D01*
X013151Y006356D01*
X012117Y006799D01*
X012098Y007346D01*
X012141Y007346D01*
X012202Y007407D01*
X012262Y007346D01*
X012811Y007346D01*
X012893Y007428D01*
X012893Y007938D01*
X012850Y007981D01*
X013247Y009368D01*
X013272Y009392D01*
X013272Y009452D01*
X013288Y009510D01*
X013272Y009540D01*
X013363Y009534D02*
X013411Y009417D01*
X013501Y009327D01*
X013619Y009278D01*
X013746Y009278D01*
X013864Y009327D01*
X013885Y009347D01*
X014167Y009307D01*
X014377Y009089D01*
X014130Y008670D01*
X013912Y008670D01*
X013879Y008638D01*
X013878Y008641D01*
X013844Y008674D01*
X013803Y008698D01*
X013757Y008710D01*
X013535Y008710D01*
X013535Y008352D01*
X013499Y008352D01*
X013499Y008710D01*
X013277Y008710D01*
X013231Y008698D01*
X013190Y008674D01*
X013156Y008641D01*
X013133Y008600D01*
X013120Y008554D01*
X013120Y008352D01*
X013498Y008352D01*
X013498Y008315D01*
X013120Y008315D01*
X013120Y008113D01*
X013133Y008067D01*
X013156Y008026D01*
X013190Y007992D01*
X013231Y007969D01*
X013277Y007956D01*
X013499Y007956D01*
X013499Y008315D01*
X013535Y008315D01*
X013535Y007956D01*
X013757Y007956D01*
X013803Y007969D01*
X013844Y007992D01*
X013878Y008026D01*
X013879Y008029D01*
X013912Y007996D01*
X013972Y007996D01*
X013980Y007499D01*
X013954Y007473D02*
X013803Y007473D01*
X013799Y007480D02*
X013765Y007514D01*
X013724Y007537D01*
X013678Y007550D01*
X013497Y007550D01*
X013316Y007550D01*
X013270Y007537D01*
X013229Y007514D01*
X013196Y007480D01*
X013172Y007439D01*
X013160Y007393D01*
X013160Y007133D01*
X013160Y006873D01*
X013172Y006828D01*
X013196Y006787D01*
X013229Y006753D01*
X013270Y006729D01*
X013316Y006717D01*
X013497Y006717D01*
X013497Y007133D01*
X013497Y007133D01*
X013160Y007133D01*
X013497Y007133D01*
X013497Y007133D01*
X013497Y006717D01*
X013678Y006717D01*
X013724Y006729D01*
X013765Y006753D01*
X013799Y006787D01*
X013822Y006828D01*
X013835Y006873D01*
X013835Y007133D01*
X013497Y007133D01*
X013497Y007133D01*
X013497Y007550D01*
X013497Y007133D01*
X013497Y007133D01*
X013835Y007133D01*
X013835Y007393D01*
X013822Y007439D01*
X013799Y007480D01*
X013835Y007315D02*
X013908Y007315D01*
X013908Y007156D02*
X013835Y007156D01*
X013835Y006998D02*
X013908Y006998D01*
X013908Y006839D02*
X013826Y006839D01*
X013497Y006839D02*
X013497Y006839D01*
X013497Y006998D02*
X013497Y006998D01*
X013497Y007156D02*
X013497Y007156D01*
X013497Y007315D02*
X013497Y007315D01*
X013497Y007473D02*
X013497Y007473D01*
X013192Y007473D02*
X012893Y007473D01*
X012893Y007790D02*
X013975Y007790D01*
X013972Y007949D02*
X012882Y007949D01*
X012886Y008107D02*
X013122Y008107D01*
X013120Y008266D02*
X012932Y008266D01*
X012977Y008424D02*
X013120Y008424D01*
X013128Y008583D02*
X013023Y008583D01*
X013068Y008741D02*
X014172Y008741D01*
X014265Y008900D02*
X013113Y008900D01*
X013159Y009058D02*
X014359Y009058D01*
X014254Y009217D02*
X013204Y009217D01*
X013255Y009375D02*
X013453Y009375D01*
X013683Y009598D02*
X014273Y009514D01*
X014651Y009121D01*
X015242Y009323D01*
X015252Y008433D01*
X014952Y008133D01*
X014952Y006533D01*
X014442Y005826D01*
X014245Y005461D01*
X014273Y003055D01*
X013289Y003251D02*
X013352Y005540D01*
X013070Y006151D01*
X011902Y006651D01*
X011867Y007683D01*
X011852Y008318D01*
X012052Y009199D01*
X011402Y008899D01*
X010802Y008782D01*
X010307Y008741D02*
X009836Y008741D01*
X009832Y008583D02*
X010307Y008583D01*
X010307Y008424D02*
X008219Y008424D01*
X007902Y008718D02*
X007952Y010618D01*
X010552Y012533D01*
X010852Y013031D01*
X011512Y013131D01*
X011512Y013446D02*
X010552Y013446D01*
X009952Y012833D01*
X010244Y012704D02*
X010276Y012704D01*
X010288Y012862D02*
X010493Y012862D01*
X010443Y013021D02*
X010589Y013021D01*
X010598Y013179D02*
X010684Y013179D01*
X010911Y012704D02*
X011849Y012704D01*
X011849Y012545D02*
X010872Y012545D01*
X010837Y012387D02*
X011849Y012387D01*
X011856Y012228D02*
X010651Y012228D01*
X010293Y012070D02*
X012194Y012070D01*
X012194Y011911D02*
X010078Y011911D01*
X009863Y011753D02*
X012194Y011753D01*
X012194Y011594D02*
X009648Y011594D01*
X009433Y011436D02*
X012194Y011436D01*
X012194Y011277D02*
X009218Y011277D01*
X009002Y011119D02*
X012194Y011119D01*
X012194Y010960D02*
X008787Y010960D01*
X008572Y010802D02*
X012194Y010802D01*
X012194Y010643D02*
X008357Y010643D01*
X008168Y010485D02*
X012194Y010485D01*
X012194Y010326D02*
X011284Y010326D01*
X010879Y010326D02*
X010724Y010326D01*
X010724Y010168D02*
X010879Y010168D01*
X010879Y010009D02*
X010724Y010009D01*
X010320Y010326D02*
X008164Y010326D01*
X008160Y010168D02*
X010267Y010168D01*
X010267Y010009D02*
X008156Y010009D01*
X007720Y010168D02*
X002846Y010168D01*
X002838Y010326D02*
X002816Y010326D01*
X002758Y010960D02*
X002747Y010960D01*
X004048Y010960D02*
X005130Y010960D01*
X005757Y010761D02*
X006622Y011491D01*
X007237Y012048D01*
X008179Y013233D01*
X008652Y013791D01*
X009152Y014391D01*
X009402Y014383D01*
X011512Y014391D01*
X011512Y014076D02*
X009746Y014076D01*
X009155Y013732D01*
X008565Y012944D01*
X008171Y012354D01*
X008465Y012228D02*
X009767Y012228D01*
X009982Y012387D02*
X008491Y012387D01*
X008563Y012545D02*
X009811Y012545D01*
X009659Y012704D02*
X009475Y012704D01*
X009569Y012862D02*
X009632Y012862D01*
X009642Y013021D02*
X009687Y013021D01*
X009795Y013179D02*
X009983Y013179D01*
X009949Y013338D02*
X010138Y013338D01*
X010102Y013496D02*
X010293Y013496D01*
X010052Y013761D02*
X009252Y012933D01*
X009029Y012704D02*
X008669Y012704D01*
X008778Y012862D02*
X008935Y012862D01*
X008941Y013021D02*
X008897Y013021D01*
X009016Y013179D02*
X009045Y013179D01*
X009135Y013338D02*
X009337Y013338D01*
X009254Y013496D02*
X009490Y013496D01*
X009460Y013655D02*
X009643Y013655D01*
X009732Y013813D02*
X009796Y013813D01*
X010052Y013761D02*
X011512Y013761D01*
X012152Y013733D02*
X012099Y013433D01*
X012099Y012543D01*
X011860Y012862D02*
X011207Y012862D01*
X010197Y012545D02*
X010093Y012545D01*
X009551Y012070D02*
X008322Y012070D01*
X008020Y012070D02*
X007535Y012070D01*
X007413Y011911D02*
X009336Y011911D01*
X009121Y011753D02*
X007238Y011753D01*
X007063Y011594D02*
X008906Y011594D01*
X008691Y011436D02*
X006889Y011436D01*
X006714Y011277D02*
X008476Y011277D01*
X008261Y011119D02*
X006522Y011119D01*
X006334Y010960D02*
X008045Y010960D01*
X007826Y010802D02*
X006146Y010802D01*
X005959Y010643D02*
X007732Y010643D01*
X007728Y010485D02*
X004097Y010485D01*
X003968Y010326D02*
X007724Y010326D01*
X008238Y008900D02*
X009224Y008900D01*
X009379Y008900D02*
X010307Y008900D01*
X010307Y009058D02*
X009836Y009058D01*
X009836Y009012D02*
X009836Y009273D01*
X009824Y009319D01*
X009800Y009360D01*
X009766Y009394D01*
X009725Y009417D01*
X009680Y009429D01*
X009379Y009429D01*
X009379Y009012D01*
X009836Y009012D01*
X009836Y009217D02*
X010369Y009217D01*
X009785Y009375D02*
X011715Y009375D01*
X011774Y009534D02*
X011333Y009534D01*
X011336Y009692D02*
X011715Y009692D01*
X011566Y009217D02*
X011234Y009217D01*
X011586Y008741D02*
X011722Y008741D01*
X011686Y008583D02*
X011296Y008583D01*
X011296Y008424D02*
X011649Y008424D01*
X011624Y008266D02*
X009735Y008266D01*
X009796Y008107D02*
X011637Y008107D01*
X011521Y007949D02*
X009796Y007949D01*
X009966Y007790D02*
X011510Y007790D01*
X011510Y007632D02*
X010342Y007632D01*
X010717Y007473D02*
X011510Y007473D01*
X011659Y007315D02*
X010826Y007315D01*
X010839Y007156D02*
X011664Y007156D01*
X011670Y006998D02*
X010858Y006998D01*
X010878Y006839D02*
X011675Y006839D01*
X011675Y006681D02*
X010897Y006681D01*
X010916Y006522D02*
X011716Y006522D01*
X011478Y006364D02*
X012014Y006364D01*
X011747Y006205D02*
X012385Y006205D01*
X012286Y005888D02*
X012949Y005888D01*
X013022Y005730D02*
X012569Y005730D01*
X012675Y005571D02*
X013095Y005571D01*
X013360Y006047D02*
X014329Y006047D01*
X014215Y005888D02*
X013433Y005888D01*
X013506Y005730D02*
X014140Y005730D01*
X014045Y005571D02*
X013579Y005571D01*
X013287Y006205D02*
X014444Y006205D01*
X014558Y006364D02*
X013133Y006364D01*
X012762Y006522D02*
X014672Y006522D01*
X014732Y006681D02*
X012392Y006681D01*
X012115Y006839D02*
X013169Y006839D01*
X013160Y006998D02*
X012110Y006998D01*
X012105Y007156D02*
X013160Y007156D01*
X013160Y007315D02*
X012099Y007315D01*
X012202Y007960D02*
X012141Y008020D01*
X012079Y008020D01*
X012072Y008296D01*
X012196Y008842D01*
X012306Y008842D01*
X012388Y008924D01*
X012388Y009473D01*
X012328Y009533D01*
X012388Y009593D01*
X012388Y009648D01*
X012505Y009648D01*
X012634Y009777D01*
X012634Y012113D01*
X012729Y012113D01*
X012729Y012543D01*
X012729Y012543D01*
X012729Y012113D01*
X012832Y012113D01*
X012832Y009514D01*
X012404Y008020D01*
X012262Y008020D01*
X012202Y007960D01*
X012077Y008107D02*
X012429Y008107D01*
X012474Y008266D02*
X012073Y008266D01*
X012101Y008424D02*
X012520Y008424D01*
X012565Y008583D02*
X012137Y008583D01*
X012173Y008741D02*
X012610Y008741D01*
X012656Y008900D02*
X012364Y008900D01*
X012388Y009058D02*
X012701Y009058D01*
X012746Y009217D02*
X012388Y009217D01*
X012388Y009375D02*
X012792Y009375D01*
X012832Y009534D02*
X012329Y009534D01*
X012550Y009692D02*
X012832Y009692D01*
X012832Y009851D02*
X012634Y009851D01*
X012634Y010009D02*
X012832Y010009D01*
X012832Y010168D02*
X012634Y010168D01*
X012634Y010326D02*
X012832Y010326D01*
X012832Y010485D02*
X012634Y010485D01*
X012634Y010643D02*
X012832Y010643D01*
X012832Y010802D02*
X012634Y010802D01*
X012634Y010960D02*
X012832Y010960D01*
X012832Y011119D02*
X012634Y011119D01*
X012634Y011277D02*
X012832Y011277D01*
X012832Y011436D02*
X012634Y011436D01*
X012634Y011594D02*
X012832Y011594D01*
X012832Y011753D02*
X012634Y011753D01*
X012634Y011911D02*
X012832Y011911D01*
X012832Y012070D02*
X012634Y012070D01*
X012729Y012228D02*
X012729Y012228D01*
X012729Y012387D02*
X012729Y012387D01*
X012729Y012543D02*
X012729Y012973D01*
X012729Y012543D01*
X012729Y012543D01*
X012729Y012545D02*
X012729Y012545D01*
X012729Y012704D02*
X012729Y012704D01*
X012729Y012862D02*
X012729Y012862D01*
X013052Y012543D02*
X013052Y011733D01*
X013272Y011436D02*
X013454Y011436D01*
X013454Y011277D02*
X013272Y011277D01*
X013272Y011119D02*
X013454Y011119D01*
X013454Y010960D02*
X013272Y010960D01*
X013272Y010802D02*
X013454Y010802D01*
X013454Y010643D02*
X013272Y010643D01*
X013272Y010485D02*
X013454Y010485D01*
X013470Y010326D02*
X013272Y010326D01*
X013272Y010168D02*
X015932Y010168D01*
X015932Y010009D02*
X013272Y010009D01*
X013272Y009851D02*
X013483Y009851D01*
X013375Y009692D02*
X013272Y009692D01*
X013882Y009851D02*
X014881Y009851D01*
X014807Y009692D02*
X014415Y009692D01*
X014560Y009534D02*
X014807Y009534D01*
X014715Y009375D02*
X014712Y009375D01*
X014651Y009121D02*
X014186Y008333D01*
X014206Y007133D01*
X014503Y007156D02*
X014732Y007156D01*
X014732Y006998D02*
X014503Y006998D01*
X014503Y006839D02*
X014732Y006839D01*
X015172Y006839D02*
X015262Y006839D01*
X015262Y006681D02*
X015172Y006681D01*
X015176Y006522D02*
X015262Y006522D01*
X015262Y006390D02*
X015344Y006308D01*
X016960Y006308D01*
X017042Y006390D01*
X017042Y007296D01*
X016960Y007378D01*
X015344Y007378D01*
X015262Y007296D01*
X015262Y006390D01*
X015288Y006364D02*
X015101Y006364D01*
X014986Y006205D02*
X018789Y006205D01*
X019019Y006364D02*
X017015Y006364D01*
X017042Y006522D02*
X019210Y006522D01*
X019398Y006681D02*
X017042Y006681D01*
X017042Y006839D02*
X019554Y006839D01*
X019710Y006998D02*
X017042Y006998D01*
X017042Y007156D02*
X019843Y007156D01*
X019970Y007315D02*
X019036Y007315D01*
X019047Y007326D02*
X019070Y007367D01*
X019083Y007413D01*
X019083Y007615D01*
X018705Y007615D01*
X018705Y007256D01*
X018926Y007256D01*
X018972Y007269D01*
X019013Y007292D01*
X019047Y007326D01*
X019083Y007473D02*
X020090Y007473D01*
X020192Y007632D02*
X018705Y007632D01*
X018705Y007790D02*
X018668Y007790D01*
X018668Y007949D02*
X018705Y007949D01*
X019039Y007949D02*
X020384Y007949D01*
X020465Y008107D02*
X018232Y008107D01*
X018230Y008266D02*
X020546Y008266D01*
X020612Y008424D02*
X018228Y008424D01*
X018227Y008583D02*
X020673Y008583D01*
X020735Y008741D02*
X018225Y008741D01*
X018223Y008900D02*
X020783Y008900D01*
X020826Y009058D02*
X018979Y009058D01*
X018974Y009053D02*
X019007Y009087D01*
X019031Y009128D01*
X019043Y009173D01*
X019043Y009433D01*
X018706Y009433D01*
X018706Y009017D01*
X018887Y009017D01*
X018933Y009029D01*
X018974Y009053D01*
X019043Y009217D02*
X020870Y009217D01*
X020902Y009375D02*
X019043Y009375D01*
X019043Y009433D02*
X019043Y009693D01*
X019031Y009739D01*
X019007Y009780D01*
X018974Y009814D01*
X018933Y009837D01*
X018887Y009850D01*
X018706Y009850D01*
X018706Y009433D01*
X018706Y009433D01*
X018706Y009017D01*
X018525Y009017D01*
X018479Y009029D01*
X018438Y009053D01*
X018404Y009087D01*
X018381Y009128D01*
X018368Y009173D01*
X018368Y009433D01*
X018706Y009433D01*
X018706Y009433D01*
X018706Y009433D01*
X019043Y009433D01*
X019043Y009534D02*
X020929Y009534D01*
X020956Y009692D02*
X019043Y009692D01*
X018706Y009692D02*
X018706Y009692D01*
X018706Y009850D02*
X018525Y009850D01*
X018479Y009837D01*
X018438Y009814D01*
X018404Y009780D01*
X018381Y009739D01*
X018368Y009693D01*
X018368Y009433D01*
X018706Y009433D01*
X018706Y009433D01*
X018706Y009850D01*
X018706Y009534D02*
X018706Y009534D01*
X018706Y009375D02*
X018706Y009375D01*
X018706Y009217D02*
X018706Y009217D01*
X018706Y009058D02*
X018706Y009058D01*
X018433Y009058D02*
X018221Y009058D01*
X018295Y009217D02*
X018368Y009217D01*
X018368Y009375D02*
X018295Y009375D01*
X018295Y009534D02*
X018368Y009534D01*
X018368Y009692D02*
X018295Y009692D01*
X018109Y009851D02*
X020974Y009851D01*
X020984Y010009D02*
X018064Y010009D01*
X018020Y010168D02*
X020995Y010168D01*
X021003Y010326D02*
X017975Y010326D01*
X017583Y010802D02*
X021009Y010802D01*
X021011Y010960D02*
X017583Y010960D01*
X017583Y011119D02*
X021013Y011119D01*
X021015Y011277D02*
X017583Y011277D01*
X017583Y011436D02*
X021017Y011436D01*
X021019Y011594D02*
X017583Y011594D01*
X017583Y011753D02*
X021022Y011753D01*
X021024Y011911D02*
X017583Y011911D01*
X017583Y012070D02*
X021026Y012070D01*
X021028Y012228D02*
X017583Y012228D01*
X017583Y012387D02*
X021030Y012387D01*
X021032Y012545D02*
X017583Y012545D01*
X017583Y012704D02*
X021034Y012704D01*
X021036Y012862D02*
X017583Y012862D01*
X018466Y013021D02*
X021038Y013021D01*
X021041Y013179D02*
X018663Y013179D01*
X018886Y013338D02*
X021043Y013338D01*
X021045Y013496D02*
X018991Y013496D01*
X019097Y013655D02*
X021047Y013655D01*
X021049Y013813D02*
X019203Y013813D01*
X019308Y013972D02*
X021051Y013972D01*
X021053Y014130D02*
X019377Y014130D01*
X019375Y014289D02*
X021055Y014289D01*
X021057Y014447D02*
X019379Y014447D01*
X019382Y014606D02*
X021060Y014606D01*
X021062Y014764D02*
X019386Y014764D01*
X019389Y014923D02*
X021064Y014923D01*
X021066Y015081D02*
X019393Y015081D01*
X019396Y015240D02*
X021068Y015240D01*
X021070Y015398D02*
X019513Y015398D01*
X016252Y011261D02*
X014428Y011268D01*
X013989Y011664D01*
X013991Y011914D01*
X013989Y012543D01*
X013462Y013655D02*
X013187Y013655D01*
X012252Y014033D02*
X012552Y014533D01*
X012252Y014033D02*
X012152Y013733D01*
X010434Y017142D02*
X006888Y017142D01*
X006780Y015081D02*
X006287Y015081D01*
X006024Y014923D02*
X006585Y014923D01*
X006376Y014764D02*
X005762Y014764D01*
X005500Y014606D02*
X006160Y014606D01*
X006255Y014130D02*
X006757Y014130D01*
X006605Y013972D02*
X006039Y013972D01*
X005822Y013813D02*
X006452Y013813D01*
X006300Y013655D02*
X005606Y013655D01*
X006472Y014289D02*
X006910Y014289D01*
X007055Y014447D02*
X006688Y014447D01*
X006895Y014606D02*
X007265Y014606D01*
X007133Y014764D02*
X007494Y014764D01*
X007522Y014923D02*
X007723Y014923D01*
X007910Y015081D02*
X007953Y015081D01*
X007851Y012387D02*
X007787Y012387D01*
X007876Y012228D02*
X007661Y012228D01*
X006215Y011436D02*
X004077Y011436D01*
X005024Y007315D02*
X009961Y007315D01*
X010337Y007156D02*
X005209Y007156D01*
X005419Y006998D02*
X010415Y006998D01*
X010434Y006839D02*
X005639Y006839D01*
X005872Y006681D02*
X010454Y006681D01*
X010473Y006522D02*
X010396Y006522D01*
X010085Y006522D02*
X010049Y006522D01*
X010049Y006364D02*
X010085Y006364D01*
X010085Y006205D02*
X010049Y006205D01*
X010049Y006047D02*
X010085Y006047D01*
X010085Y005888D02*
X010049Y005888D01*
X009699Y005888D02*
X007499Y005888D01*
X007086Y006047D02*
X009670Y006047D01*
X009670Y006205D02*
X006736Y006205D01*
X006410Y006364D02*
X009670Y006364D01*
X009738Y006522D02*
X006138Y006522D01*
X006802Y007465D02*
X006802Y007465D01*
X007902Y007832D02*
X007902Y008049D01*
X007902Y007832D02*
X009302Y007832D01*
X010602Y007283D01*
X010736Y006183D01*
X011436Y006133D01*
X012455Y005533D01*
X012455Y003251D01*
X012502Y003251D01*
X011585Y003669D02*
X011450Y003669D01*
X011450Y003828D02*
X011585Y003828D01*
X011585Y003986D02*
X011450Y003986D01*
X011450Y004145D02*
X011585Y004145D01*
X011585Y004303D02*
X011450Y004303D01*
X011450Y004462D02*
X011585Y004462D01*
X011585Y004620D02*
X011450Y004620D01*
X011066Y004620D02*
X010927Y004620D01*
X010927Y004462D02*
X011042Y004462D01*
X010927Y004779D02*
X011874Y004779D01*
X011954Y004937D02*
X010924Y004937D01*
X010894Y005096D02*
X012066Y005096D01*
X012224Y005254D02*
X010804Y005254D01*
X010598Y005413D02*
X012226Y005413D01*
X011957Y005571D02*
X008715Y005571D01*
X008016Y005730D02*
X011688Y005730D01*
X011419Y005888D02*
X011053Y005888D01*
X011297Y006364D02*
X011449Y006364D01*
X012016Y006047D02*
X012755Y006047D01*
X013499Y008107D02*
X013535Y008107D01*
X013535Y008266D02*
X013499Y008266D01*
X013499Y008424D02*
X013535Y008424D01*
X013535Y008583D02*
X013499Y008583D01*
X014413Y007949D02*
X014732Y007949D01*
X014732Y008107D02*
X014543Y008107D01*
X014543Y008266D02*
X014773Y008266D01*
X014931Y008424D02*
X014543Y008424D01*
X014589Y008583D02*
X015030Y008583D01*
X015028Y008741D02*
X014683Y008741D01*
X014776Y008900D02*
X014807Y008900D01*
X015677Y008900D02*
X015707Y008900D01*
X015707Y009058D02*
X015677Y009058D01*
X015677Y009217D02*
X015707Y009217D01*
X015707Y009375D02*
X015677Y009375D01*
X015677Y009534D02*
X015707Y009534D01*
X015707Y009692D02*
X015677Y009692D01*
X015602Y009851D02*
X015781Y009851D01*
X016502Y009851D02*
X016625Y009851D01*
X016974Y009851D02*
X017109Y009851D01*
X017109Y009692D02*
X016974Y009692D01*
X016974Y009534D02*
X017109Y009534D01*
X017109Y009375D02*
X017700Y009375D01*
X017109Y009217D02*
X016974Y009217D01*
X016974Y009375D02*
X016577Y009375D01*
X016974Y009058D02*
X017109Y009058D01*
X017109Y008900D02*
X016974Y008900D01*
X017660Y007473D02*
X015172Y007473D01*
X015172Y007315D02*
X015280Y007315D01*
X015262Y007156D02*
X015172Y007156D01*
X015172Y006998D02*
X015262Y006998D01*
X014732Y007315D02*
X014503Y007315D01*
X014458Y007473D02*
X014732Y007473D01*
X014732Y007632D02*
X014418Y007632D01*
X014415Y007790D02*
X014732Y007790D01*
X014872Y006047D02*
X018547Y006047D01*
X018249Y005888D02*
X014757Y005888D01*
X014643Y005730D02*
X017898Y005730D01*
X017454Y005571D02*
X014554Y005571D01*
X014961Y005413D02*
X016765Y005413D01*
X017023Y007315D02*
X017724Y007315D01*
X018310Y007315D02*
X018337Y007315D01*
X018668Y007315D02*
X018705Y007315D01*
X018705Y007473D02*
X018668Y007473D01*
X019083Y007790D02*
X020294Y007790D01*
X018334Y007949D02*
X018313Y007949D01*
X015738Y018727D02*
X014230Y018727D01*
X014228Y018885D02*
X015841Y018885D01*
X014485Y021897D02*
X014130Y021897D01*
X012352Y022883D02*
X012812Y023523D01*
X013172Y024053D01*
X012940Y024274D02*
X007122Y024274D01*
X007140Y024116D02*
X012852Y024116D01*
X012840Y023957D02*
X007140Y023957D01*
X007115Y023799D02*
X012733Y023799D01*
X012625Y023640D02*
X003514Y023640D01*
X003672Y023799D02*
X005763Y023799D01*
X005736Y023957D02*
X003687Y023957D01*
X003989Y024116D02*
X005736Y024116D01*
X005744Y024274D02*
X004148Y024274D01*
X004200Y024433D02*
X005860Y024433D01*
X005863Y024591D02*
X004465Y024591D01*
X004623Y024750D02*
X005863Y024750D01*
X005863Y024908D02*
X004782Y024908D01*
X004940Y025067D02*
X005748Y025067D01*
X005727Y025225D02*
X005099Y025225D01*
X005132Y025384D02*
X005727Y025384D01*
X005727Y025542D02*
X005416Y025542D01*
X006083Y025343D02*
X006083Y024636D01*
X006073Y024046D01*
X006383Y023799D02*
X006412Y023799D01*
X006745Y023799D02*
X006782Y023799D01*
X006782Y023957D02*
X006745Y023957D01*
X006745Y024116D02*
X006782Y024116D01*
X006782Y024274D02*
X006745Y024274D01*
X008066Y025542D02*
X011805Y025542D01*
X013702Y027571D02*
X013752Y027571D01*
X013948Y028618D01*
X017352Y028618D01*
X018652Y027421D01*
X018470Y027286D02*
X017182Y027286D01*
X017182Y027233D02*
X017182Y027551D01*
X016722Y027551D01*
X016722Y026791D01*
X016739Y026791D01*
X016814Y026803D01*
X016886Y026826D01*
X016953Y026860D01*
X017014Y026905D01*
X017068Y026958D01*
X017112Y027019D01*
X017146Y027086D01*
X017170Y027158D01*
X017182Y027233D01*
X017160Y027127D02*
X018660Y027127D01*
X018850Y026969D02*
X017076Y026969D01*
X016838Y026810D02*
X019040Y026810D01*
X018301Y027444D02*
X017182Y027444D01*
X017182Y027603D02*
X018129Y027603D01*
X017957Y027761D02*
X017182Y027761D01*
X017180Y027920D02*
X017785Y027920D01*
X017612Y028078D02*
X017134Y028078D01*
X017014Y028237D02*
X016953Y028281D01*
X016886Y028316D01*
X016814Y028339D01*
X016739Y028351D01*
X016722Y028351D01*
X016722Y027591D01*
X016682Y027591D01*
X016682Y028351D01*
X016664Y028351D01*
X016589Y028339D01*
X016517Y028316D01*
X016450Y028281D01*
X016389Y028237D01*
X015958Y028237D01*
X016092Y028078D02*
X016269Y028078D01*
X016257Y028055D02*
X016233Y027983D01*
X016222Y027909D01*
X016222Y027591D01*
X016682Y027591D01*
X016682Y027551D01*
X016222Y027551D01*
X016222Y027233D01*
X016233Y027158D01*
X016257Y027086D01*
X016291Y027019D01*
X016335Y026958D01*
X016389Y026905D01*
X016450Y026860D01*
X016517Y026826D01*
X016589Y026803D01*
X016682Y026810D02*
X016722Y026810D01*
X016722Y026969D02*
X016682Y026969D01*
X016682Y027127D02*
X016722Y027127D01*
X016722Y027286D02*
X016682Y027286D01*
X016682Y027444D02*
X016722Y027444D01*
X016722Y027603D02*
X016682Y027603D01*
X016682Y027761D02*
X016722Y027761D01*
X016722Y027920D02*
X016682Y027920D01*
X016682Y028078D02*
X016722Y028078D01*
X016722Y028237D02*
X016682Y028237D01*
X016389Y028237D02*
X016335Y028183D01*
X016291Y028122D01*
X016257Y028055D01*
X016223Y027920D02*
X016142Y027920D01*
X016142Y027761D02*
X016222Y027761D01*
X016222Y027603D02*
X016142Y027603D01*
X016142Y027444D02*
X016222Y027444D01*
X016222Y027286D02*
X016142Y027286D01*
X016118Y027127D02*
X016243Y027127D01*
X016328Y026969D02*
X016022Y026969D01*
X015381Y026969D02*
X015022Y026969D01*
X015118Y027127D02*
X015285Y027127D01*
X015262Y027286D02*
X015142Y027286D01*
X015142Y027444D02*
X015262Y027444D01*
X014262Y027444D02*
X014142Y027444D01*
X014142Y027286D02*
X014262Y027286D01*
X014285Y027127D02*
X014118Y027127D01*
X014022Y026969D02*
X014381Y026969D01*
X014262Y027603D02*
X014142Y027603D01*
X014142Y027761D02*
X014262Y027761D01*
X014262Y027920D02*
X014142Y027920D01*
X014092Y028078D02*
X014311Y028078D01*
X015572Y024591D02*
X021193Y024591D01*
X019133Y024433D02*
X015572Y024433D01*
X015572Y024274D02*
X018780Y024274D01*
X018416Y024116D02*
X015572Y024116D01*
X015572Y023957D02*
X018277Y023957D01*
X018133Y023799D02*
X015572Y023799D01*
X015572Y023640D02*
X017990Y023640D01*
X017847Y023482D02*
X015572Y023482D01*
X015572Y023323D02*
X017703Y023323D01*
X017560Y023165D02*
X015572Y023165D01*
X015572Y023006D02*
X017416Y023006D01*
X017273Y022848D02*
X015572Y022848D01*
X015572Y022689D02*
X017130Y022689D01*
X016986Y022531D02*
X015572Y022531D01*
X015572Y022372D02*
X016843Y022372D01*
X016699Y022214D02*
X015572Y022214D01*
X018606Y027761D02*
X019325Y027761D01*
X019185Y027920D02*
X018434Y027920D01*
X018262Y028078D02*
X019044Y028078D01*
X018904Y028237D02*
X018090Y028237D01*
X017918Y028395D02*
X018735Y028395D01*
X018521Y028554D02*
X017746Y028554D01*
X017573Y028712D02*
X018245Y028712D01*
X017840Y028871D02*
X009205Y028871D01*
X002932Y024569D02*
X002932Y024569D01*
X002932Y024569D01*
X002970Y021104D02*
X002132Y021104D01*
X002127Y020946D02*
X002743Y020946D01*
X002670Y020787D02*
X002122Y020787D01*
X002118Y020629D02*
X002573Y020629D01*
X002265Y020290D02*
X002265Y018456D01*
X002462Y017669D01*
X002242Y017617D02*
X002029Y017617D01*
X002025Y017459D02*
X002361Y017459D01*
X002209Y017776D02*
X002034Y017776D01*
X002039Y017934D02*
X002169Y017934D01*
X002129Y018093D02*
X002043Y018093D01*
X002048Y018251D02*
X002090Y018251D01*
X002020Y017300D02*
X002878Y017300D01*
X002747Y019361D02*
X002485Y019361D01*
X002485Y019519D02*
X002652Y019519D01*
X002265Y020290D02*
X003403Y020683D01*
X004155Y019519D02*
X005589Y019519D01*
X005589Y019361D02*
X004059Y019361D01*
X002115Y020470D02*
X002113Y020470D01*
X009224Y009375D02*
X009379Y009375D01*
X009379Y009217D02*
X009224Y009217D01*
X009224Y009058D02*
X009379Y009058D01*
X009379Y008741D02*
X009224Y008741D01*
X009224Y008583D02*
X009379Y008583D01*
D28*
X010752Y007833D03*
X013683Y009598D03*
X013852Y006233D03*
X016852Y008033D03*
X018342Y010653D03*
X019602Y009683D03*
X013452Y014933D03*
X012552Y014533D03*
X013052Y013233D03*
X010552Y012533D03*
X009952Y012833D03*
X009252Y012933D03*
X008171Y012354D03*
X006952Y009733D03*
X011852Y018833D03*
X013852Y021733D03*
X012352Y022883D03*
X011642Y023503D03*
X013172Y024053D03*
X016052Y022733D03*
X014652Y019433D03*
X008552Y027521D03*
M02*
