G75*
%MOIN*%
%OFA0B0*%
%FSLAX24Y24*%
%IPPOS*%
%LPD*%
%AMOC8*
5,1,8,0,0,1.08239X$1,22.5*
%
%ADD10C,0.0000*%
D10*
X010533Y001133D02*
X015257Y001133D01*
X015257Y004677D01*
X010533Y004677D02*
X010533Y001133D01*
X010533Y004677D02*
X010314Y004680D01*
X010096Y004688D01*
X009877Y004701D01*
X009659Y004719D01*
X009442Y004743D01*
X009225Y004772D01*
X009009Y004806D01*
X008793Y004846D01*
X008579Y004890D01*
X008366Y004940D01*
X008154Y004995D01*
X007944Y005055D01*
X007735Y005120D01*
X007528Y005190D01*
X007322Y005265D01*
X007118Y005345D01*
X006917Y005430D01*
X006717Y005520D01*
X006520Y005615D01*
X006325Y005714D01*
X006132Y005818D01*
X005942Y005927D01*
X005755Y006040D01*
X005571Y006158D01*
X005389Y006280D01*
X005211Y006406D01*
X005035Y006537D01*
X004863Y006672D01*
X004694Y006811D01*
X004528Y006954D01*
X004366Y007101D01*
X004208Y007252D01*
X004053Y007407D01*
X003902Y007565D01*
X003755Y007727D01*
X003612Y007893D01*
X003473Y008062D01*
X003338Y008234D01*
X003207Y008410D01*
X003081Y008588D01*
X002959Y008770D01*
X002841Y008954D01*
X002728Y009141D01*
X002619Y009331D01*
X002515Y009524D01*
X002416Y009719D01*
X002321Y009916D01*
X002231Y010116D01*
X002146Y010317D01*
X002066Y010521D01*
X001991Y010727D01*
X001921Y010934D01*
X001856Y011143D01*
X001796Y011353D01*
X001741Y011565D01*
X001691Y011778D01*
X001647Y011992D01*
X001607Y012208D01*
X001573Y012424D01*
X001544Y012641D01*
X001520Y012858D01*
X001502Y013076D01*
X001489Y013295D01*
X001481Y013513D01*
X001478Y013732D01*
X001478Y019916D01*
X001476Y019980D01*
X001471Y020044D01*
X001461Y020107D01*
X001448Y020170D01*
X001432Y020231D01*
X001412Y020292D01*
X001388Y020352D01*
X001361Y020410D01*
X001331Y020466D01*
X001297Y020520D01*
X001260Y020573D01*
X001221Y020623D01*
X001178Y020671D01*
X001133Y020716D01*
X001085Y020759D01*
X001035Y020798D01*
X000982Y020835D01*
X000928Y020869D01*
X000872Y020899D01*
X000814Y020926D01*
X000754Y020950D01*
X000693Y020970D01*
X000632Y020986D01*
X000569Y020999D01*
X000506Y021009D01*
X000442Y021014D01*
X000378Y021016D01*
X000347Y021018D01*
X000316Y021023D01*
X000286Y021032D01*
X000257Y021044D01*
X000230Y021059D01*
X000205Y021077D01*
X000181Y021097D01*
X000161Y021121D01*
X000143Y021146D01*
X000128Y021173D01*
X000116Y021202D01*
X000107Y021232D01*
X000102Y021263D01*
X000100Y021294D01*
X000100Y022427D01*
X000102Y022473D01*
X000108Y022519D01*
X000117Y022564D01*
X000130Y022608D01*
X000147Y022651D01*
X000167Y022692D01*
X000191Y022732D01*
X000217Y022769D01*
X000247Y022804D01*
X000280Y022837D01*
X000315Y022867D01*
X000352Y022893D01*
X000392Y022917D01*
X000433Y022937D01*
X000476Y022954D01*
X000520Y022967D01*
X000565Y022976D01*
X000611Y022982D01*
X000657Y022984D01*
X000713Y022986D01*
X000769Y022992D01*
X000824Y023001D01*
X000879Y023014D01*
X000932Y023031D01*
X000984Y023052D01*
X001035Y023076D01*
X001084Y023104D01*
X001130Y023134D01*
X001175Y023168D01*
X001217Y023205D01*
X001257Y023245D01*
X001294Y023287D01*
X001328Y023332D01*
X001358Y023378D01*
X001386Y023427D01*
X001410Y023478D01*
X001431Y023530D01*
X001448Y023583D01*
X001461Y023638D01*
X001470Y023693D01*
X001476Y023749D01*
X001478Y023805D01*
X001480Y023964D01*
X001486Y024122D01*
X001496Y024280D01*
X001509Y024438D01*
X001527Y024596D01*
X001548Y024753D01*
X001573Y024910D01*
X001602Y025066D01*
X001635Y025221D01*
X001672Y025375D01*
X001712Y025528D01*
X001756Y025681D01*
X001804Y025832D01*
X001856Y025982D01*
X001911Y026131D01*
X001970Y026278D01*
X002032Y026424D01*
X002098Y026568D01*
X002168Y026710D01*
X002241Y026851D01*
X002317Y026990D01*
X002397Y027127D01*
X002481Y027262D01*
X002567Y027395D01*
X002657Y027526D01*
X002750Y027654D01*
X002846Y027781D01*
X002945Y027904D01*
X003047Y028026D01*
X003152Y028145D01*
X003260Y028261D01*
X003371Y028374D01*
X003484Y028485D01*
X003600Y028593D01*
X003719Y028698D01*
X003841Y028800D01*
X003964Y028899D01*
X004091Y028995D01*
X004219Y029088D01*
X004350Y029178D01*
X004483Y029264D01*
X004618Y029348D01*
X004755Y029428D01*
X004894Y029504D01*
X005035Y029577D01*
X005177Y029647D01*
X005321Y029713D01*
X005467Y029775D01*
X005614Y029834D01*
X005763Y029889D01*
X005913Y029941D01*
X006064Y029989D01*
X006217Y030033D01*
X006370Y030073D01*
X006524Y030110D01*
X006679Y030143D01*
X006835Y030172D01*
X006992Y030197D01*
X007149Y030218D01*
X007307Y030236D01*
X007465Y030249D01*
X007623Y030259D01*
X007781Y030265D01*
X007940Y030267D01*
X010125Y030267D01*
X010139Y030268D02*
X010193Y030270D01*
X010246Y030275D01*
X010299Y030284D01*
X010351Y030297D01*
X010403Y030313D01*
X010453Y030333D01*
X010501Y030356D01*
X010548Y030383D01*
X010593Y030412D01*
X010636Y030445D01*
X010676Y030480D01*
X010714Y030518D01*
X010749Y030558D01*
X010782Y030601D01*
X010811Y030646D01*
X010838Y030693D01*
X010861Y030741D01*
X010881Y030791D01*
X010897Y030843D01*
X010910Y030895D01*
X010919Y030948D01*
X010924Y031001D01*
X010926Y031055D01*
X010927Y031055D02*
X010929Y031127D01*
X010935Y031199D01*
X010944Y031271D01*
X010957Y031342D01*
X010974Y031412D01*
X010994Y031481D01*
X011019Y031549D01*
X011046Y031615D01*
X011077Y031681D01*
X011112Y031744D01*
X011149Y031806D01*
X011190Y031865D01*
X011234Y031922D01*
X011281Y031977D01*
X011331Y032029D01*
X011383Y032079D01*
X011438Y032126D01*
X011495Y032170D01*
X011554Y032211D01*
X011616Y032248D01*
X011679Y032283D01*
X011745Y032314D01*
X011811Y032341D01*
X011879Y032366D01*
X011948Y032386D01*
X012018Y032403D01*
X012089Y032416D01*
X012161Y032425D01*
X012233Y032431D01*
X012305Y032433D01*
X013486Y032433D01*
X012265Y031402D02*
X012267Y031452D01*
X012273Y031502D01*
X012283Y031551D01*
X012297Y031599D01*
X012314Y031646D01*
X012335Y031691D01*
X012360Y031735D01*
X012388Y031776D01*
X012420Y031815D01*
X012454Y031852D01*
X012491Y031886D01*
X012531Y031916D01*
X012573Y031943D01*
X012617Y031967D01*
X012663Y031988D01*
X012710Y032004D01*
X012758Y032017D01*
X012808Y032026D01*
X012857Y032031D01*
X012908Y032032D01*
X012958Y032029D01*
X013007Y032022D01*
X013056Y032011D01*
X013104Y031996D01*
X013150Y031978D01*
X013195Y031956D01*
X013238Y031930D01*
X013279Y031901D01*
X013318Y031869D01*
X013354Y031834D01*
X013386Y031796D01*
X013416Y031756D01*
X013443Y031713D01*
X013466Y031669D01*
X013485Y031623D01*
X013501Y031575D01*
X013513Y031526D01*
X013521Y031477D01*
X013525Y031427D01*
X013525Y031377D01*
X013521Y031327D01*
X013513Y031278D01*
X013501Y031229D01*
X013485Y031181D01*
X013466Y031135D01*
X013443Y031091D01*
X013416Y031048D01*
X013386Y031008D01*
X013354Y030970D01*
X013318Y030935D01*
X013279Y030903D01*
X013238Y030874D01*
X013195Y030848D01*
X013150Y030826D01*
X013104Y030808D01*
X013056Y030793D01*
X013007Y030782D01*
X012958Y030775D01*
X012908Y030772D01*
X012857Y030773D01*
X012808Y030778D01*
X012758Y030787D01*
X012710Y030800D01*
X012663Y030816D01*
X012617Y030837D01*
X012573Y030861D01*
X012531Y030888D01*
X012491Y030918D01*
X012454Y030952D01*
X012420Y030989D01*
X012388Y031028D01*
X012360Y031069D01*
X012335Y031113D01*
X012314Y031158D01*
X012297Y031205D01*
X012283Y031253D01*
X012273Y031302D01*
X012267Y031352D01*
X012265Y031402D01*
X013486Y032433D02*
X013558Y032431D01*
X013630Y032425D01*
X013702Y032416D01*
X013773Y032403D01*
X013843Y032386D01*
X013912Y032366D01*
X013980Y032341D01*
X014046Y032314D01*
X014112Y032283D01*
X014175Y032248D01*
X014237Y032211D01*
X014296Y032170D01*
X014353Y032126D01*
X014408Y032079D01*
X014460Y032029D01*
X014510Y031977D01*
X014557Y031922D01*
X014601Y031865D01*
X014642Y031806D01*
X014679Y031744D01*
X014714Y031681D01*
X014745Y031615D01*
X014772Y031549D01*
X014797Y031481D01*
X014817Y031412D01*
X014834Y031342D01*
X014847Y031271D01*
X014856Y031199D01*
X014862Y031127D01*
X014864Y031055D01*
X014866Y031001D01*
X014871Y030948D01*
X014880Y030895D01*
X014893Y030843D01*
X014909Y030791D01*
X014929Y030741D01*
X014952Y030693D01*
X014979Y030646D01*
X015008Y030601D01*
X015041Y030558D01*
X015076Y030518D01*
X015114Y030480D01*
X015154Y030445D01*
X015197Y030412D01*
X015242Y030383D01*
X015289Y030356D01*
X015337Y030333D01*
X015387Y030313D01*
X015439Y030297D01*
X015491Y030284D01*
X015544Y030275D01*
X015597Y030270D01*
X015651Y030268D01*
X015665Y030267D02*
X017850Y030267D01*
X018009Y030265D01*
X018167Y030259D01*
X018325Y030249D01*
X018483Y030236D01*
X018641Y030218D01*
X018798Y030197D01*
X018955Y030172D01*
X019111Y030143D01*
X019266Y030110D01*
X019420Y030073D01*
X019573Y030033D01*
X019726Y029989D01*
X019877Y029941D01*
X020027Y029889D01*
X020176Y029834D01*
X020323Y029775D01*
X020469Y029713D01*
X020613Y029647D01*
X020755Y029577D01*
X020896Y029504D01*
X021035Y029428D01*
X021172Y029348D01*
X021307Y029264D01*
X021440Y029178D01*
X021571Y029088D01*
X021699Y028995D01*
X021826Y028899D01*
X021949Y028800D01*
X022071Y028698D01*
X022190Y028593D01*
X022306Y028485D01*
X022419Y028374D01*
X022530Y028261D01*
X022638Y028145D01*
X022743Y028026D01*
X022845Y027904D01*
X022944Y027781D01*
X023040Y027654D01*
X023133Y027526D01*
X023223Y027395D01*
X023309Y027262D01*
X023393Y027127D01*
X023473Y026990D01*
X023549Y026851D01*
X023622Y026710D01*
X023692Y026568D01*
X023758Y026424D01*
X023820Y026278D01*
X023879Y026131D01*
X023934Y025982D01*
X023986Y025832D01*
X024034Y025681D01*
X024078Y025528D01*
X024118Y025375D01*
X024155Y025221D01*
X024188Y025066D01*
X024217Y024910D01*
X024242Y024753D01*
X024263Y024596D01*
X024281Y024438D01*
X024294Y024280D01*
X024304Y024122D01*
X024310Y023964D01*
X024312Y023805D01*
X024313Y023805D02*
X024315Y023749D01*
X024321Y023693D01*
X024330Y023638D01*
X024343Y023583D01*
X024360Y023530D01*
X024381Y023478D01*
X024405Y023427D01*
X024433Y023378D01*
X024463Y023332D01*
X024497Y023287D01*
X024534Y023245D01*
X024574Y023205D01*
X024616Y023168D01*
X024661Y023134D01*
X024707Y023104D01*
X024756Y023076D01*
X024807Y023052D01*
X024859Y023031D01*
X024912Y023014D01*
X024967Y023001D01*
X025022Y022992D01*
X025078Y022986D01*
X025134Y022984D01*
X025180Y022982D01*
X025226Y022976D01*
X025271Y022967D01*
X025315Y022954D01*
X025358Y022937D01*
X025399Y022917D01*
X025439Y022893D01*
X025476Y022867D01*
X025511Y022837D01*
X025544Y022804D01*
X025574Y022769D01*
X025600Y022732D01*
X025624Y022692D01*
X025644Y022651D01*
X025661Y022608D01*
X025674Y022564D01*
X025683Y022519D01*
X025689Y022473D01*
X025691Y022427D01*
X025691Y021294D01*
X025690Y021294D02*
X025688Y021263D01*
X025683Y021232D01*
X025674Y021202D01*
X025662Y021173D01*
X025647Y021146D01*
X025629Y021121D01*
X025609Y021097D01*
X025585Y021077D01*
X025560Y021059D01*
X025533Y021044D01*
X025504Y021032D01*
X025474Y021023D01*
X025443Y021018D01*
X025412Y021016D01*
X025348Y021014D01*
X025284Y021009D01*
X025221Y020999D01*
X025158Y020986D01*
X025097Y020970D01*
X025036Y020950D01*
X024976Y020926D01*
X024918Y020899D01*
X024862Y020869D01*
X024808Y020835D01*
X024755Y020798D01*
X024705Y020759D01*
X024657Y020716D01*
X024612Y020671D01*
X024569Y020623D01*
X024530Y020573D01*
X024493Y020520D01*
X024459Y020466D01*
X024429Y020410D01*
X024402Y020352D01*
X024378Y020292D01*
X024358Y020231D01*
X024342Y020170D01*
X024329Y020107D01*
X024319Y020044D01*
X024314Y019980D01*
X024312Y019916D01*
X024313Y019916D02*
X024313Y013732D01*
X024312Y013732D02*
X024309Y013513D01*
X024301Y013295D01*
X024288Y013076D01*
X024270Y012858D01*
X024246Y012641D01*
X024217Y012424D01*
X024183Y012208D01*
X024143Y011992D01*
X024099Y011778D01*
X024049Y011565D01*
X023994Y011353D01*
X023934Y011143D01*
X023869Y010934D01*
X023799Y010727D01*
X023724Y010521D01*
X023644Y010317D01*
X023559Y010116D01*
X023469Y009916D01*
X023374Y009719D01*
X023275Y009524D01*
X023171Y009331D01*
X023062Y009141D01*
X022949Y008954D01*
X022831Y008770D01*
X022709Y008588D01*
X022583Y008410D01*
X022452Y008234D01*
X022317Y008062D01*
X022178Y007893D01*
X022035Y007727D01*
X021888Y007565D01*
X021737Y007407D01*
X021582Y007252D01*
X021424Y007101D01*
X021262Y006954D01*
X021096Y006811D01*
X020927Y006672D01*
X020755Y006537D01*
X020579Y006406D01*
X020401Y006280D01*
X020219Y006158D01*
X020035Y006040D01*
X019848Y005927D01*
X019658Y005818D01*
X019465Y005714D01*
X019270Y005615D01*
X019073Y005520D01*
X018873Y005430D01*
X018672Y005345D01*
X018468Y005265D01*
X018262Y005190D01*
X018055Y005120D01*
X017846Y005055D01*
X017636Y004995D01*
X017424Y004940D01*
X017211Y004890D01*
X016997Y004846D01*
X016781Y004806D01*
X016565Y004772D01*
X016348Y004743D01*
X016131Y004719D01*
X015913Y004701D01*
X015694Y004688D01*
X015476Y004680D01*
X015257Y004677D01*
M02*
